<?xml version="1.0" encoding="UTF-8"?> <svg xmlns="http://www.w3.org/2000/svg" width="482" height="252" viewBox="0 0 482 252" fill="none"> <g id="Group 8"> <g id="Popup Copy 16"> <g id="pro-7"> <rect id="Rectangle Copy 16" width="482" height="252" rx="8" transform="matrix(-1 0 0 1 482 0)" fill="url(#paint0_linear)"></rect> <mask id="mask0" maskUnits="userSpaceOnUse" x="0" y="0" width="482" height="252"> <rect id="Rectangle Copy 16_2" width="482" height="252" rx="8" transform="matrix(-1 0 0 1 482 0)" fill="white"></rect> </mask> <g mask="url(#mask0)"> <path id="Stroke 21 Copy 6" d="M55 56L-29 186.108" stroke="#FFCE6E" stroke-width="10"></path> <path id="Stroke 21 Copy 25" d="M368 -102L284 28.1081" stroke="#FFCE6E" stroke-width="2"></path> <path id="Stroke 21 Copy 8" d="M461 52V218.162" stroke="#FFCE6E" stroke-width="20"></path> <path id="Stroke 21 Copy 14" d="M441 -108V51.8919" stroke="white" stroke-width="20"></path> <path id="Stroke 21 Copy 7" d="M425 110V274.483" stroke="#FF7965" stroke-width="5" stroke-linecap="round"></path> <path id="Stroke 21 Copy 15" d="M418 155.216V178.73" stroke="#FFCE6E" stroke-width="20" stroke-linecap="round"></path> <path id="Stroke 21 Copy 13" d="M395 120.729V185" stroke="#222437" stroke-width="33" stroke-linecap="round"></path> <path id="Stroke 21 Copy 8_2" d="M296.702 110.354L206.898 287.798" stroke="#222437" stroke-width="41"></path> <path id="Stroke 21 Copy 14_2" d="M327.982 96.9691C327.982 96.9691 298.977 154.216 240.968 268.709" stroke="#FF7965" stroke-width="25"></path> <path id="Stroke 21 Copy 16" d="M352.007 86.9681C352.007 86.9681 323.002 144.215 264.993 258.708" stroke="#F6F6F6" stroke-width="18"></path> </g> </g> <path id="Title" d="M37.308 212.248V206.596H46.848V201.916H37.308V196.552H47.748V191.8H32.34V217H47.928V212.248H37.308ZM61.2218 198.496C58.8098 198.496 56.9378 199.396 55.8578 201.016V199H51.2138V217H55.8578V207.28C55.8578 204.148 57.5498 202.816 59.8178 202.816C61.9058 202.816 63.3818 204.076 63.3818 206.524V217H68.0258V205.948C68.0258 201.16 65.0378 198.496 61.2218 198.496ZM82.2872 203.464V199H78.2192V193.96L73.5752 195.364V199H70.4432V203.464H73.5752V210.952C73.5752 215.812 75.7712 217.72 82.2872 217V212.788C79.6232 212.932 78.2192 212.896 78.2192 210.952V203.464H82.2872ZM88.923 209.908H102.495C102.603 209.296 102.675 208.684 102.675 208C102.675 202.708 98.895 198.496 93.567 198.496C87.915 198.496 84.063 202.636 84.063 208C84.063 213.364 87.879 217.504 93.927 217.504C97.383 217.504 100.083 216.1 101.775 213.652L98.031 211.492C97.239 212.536 95.799 213.292 93.999 213.292C91.551 213.292 89.571 212.284 88.923 209.908ZM88.851 206.308C89.391 204.004 91.083 202.672 93.567 202.672C95.511 202.672 97.455 203.716 98.031 206.308H88.851ZM110.561 202.096V199H105.917V217H110.561V208.396C110.561 204.616 113.621 203.536 116.033 203.824V198.64C113.765 198.64 111.497 199.648 110.561 202.096ZM129.225 198.496C126.597 198.496 124.689 199.468 123.393 201.124V199H118.749V224.2H123.393V214.876C124.689 216.532 126.597 217.504 129.225 217.504C134.049 217.504 138.009 213.364 138.009 208C138.009 202.636 134.049 198.496 129.225 198.496ZM128.361 213.076C125.517 213.076 123.393 211.024 123.393 208C123.393 204.976 125.517 202.924 128.361 202.924C131.241 202.924 133.365 204.976 133.365 208C133.365 211.024 131.241 213.076 128.361 213.076ZM145.928 202.096V199H141.284V217H145.928V208.396C145.928 204.616 148.988 203.536 151.4 203.824V198.64C149.132 198.64 146.864 199.648 145.928 202.096ZM156.42 196.84C158.004 196.84 159.3 195.544 159.3 193.996C159.3 192.448 158.004 191.116 156.42 191.116C154.872 191.116 153.576 192.448 153.576 193.996C153.576 195.544 154.872 196.84 156.42 196.84ZM154.116 217H158.76V199H154.116V217ZM167.154 204.112C167.154 203.14 168.09 202.636 169.242 202.636C170.574 202.636 171.582 203.32 172.122 204.472L176.082 202.312C174.678 199.828 172.158 198.496 169.242 198.496C165.534 198.496 162.402 200.548 162.402 204.22C162.402 210.556 171.69 209.116 171.69 211.744C171.69 212.788 170.682 213.292 169.206 213.292C167.406 213.292 166.182 212.428 165.678 210.952L161.646 213.22C162.942 215.992 165.606 217.504 169.206 217.504C173.058 217.504 176.442 215.632 176.442 211.744C176.442 205.12 167.154 206.776 167.154 204.112ZM183.107 209.908H196.679C196.787 209.296 196.859 208.684 196.859 208C196.859 202.708 193.079 198.496 187.751 198.496C182.099 198.496 178.247 202.636 178.247 208C178.247 213.364 182.063 217.504 188.111 217.504C191.567 217.504 194.267 216.1 195.959 213.652L192.215 211.492C191.423 212.536 189.983 213.292 188.183 213.292C185.735 213.292 183.755 212.284 183.107 209.908ZM183.035 206.308C183.575 204.004 185.267 202.672 187.751 202.672C189.695 202.672 191.639 203.716 192.215 206.308H183.035Z" fill="white"></path> <path id="Title Copy" d="M40.584 27.4H31.17V40H33.654V29.776H38.1V40H40.584V27.4ZM48.0598 30.748C46.7458 30.748 45.7918 31.234 45.1438 32.062V31H42.8218V43.6H45.1438V38.938C45.7918 39.766 46.7458 40.252 48.0598 40.252C50.4718 40.252 52.4518 38.182 52.4518 35.5C52.4518 32.818 50.4718 30.748 48.0598 30.748ZM47.6278 38.038C46.2058 38.038 45.1438 37.012 45.1438 35.5C45.1438 33.988 46.2058 32.962 47.6278 32.962C49.0678 32.962 50.1298 33.988 50.1298 35.5C50.1298 37.012 49.0678 38.038 47.6278 38.038ZM60.5873 31L56.3573 36.112V31H54.0893V40H55.8173L60.0473 34.888V40H62.3153V31H60.5873ZM68.7269 40.252C71.3729 40.252 73.4969 38.182 73.4969 35.5C73.4969 32.818 71.3729 30.748 68.7269 30.748C66.0809 30.748 63.9749 32.818 63.9749 35.5C63.9749 38.182 66.0809 40.252 68.7269 40.252ZM68.7269 37.984C67.3589 37.984 66.2969 36.958 66.2969 35.5C66.2969 34.042 67.3589 33.016 68.7269 33.016C70.1129 33.016 71.1749 34.042 71.1749 35.5C71.1749 36.958 70.1129 37.984 68.7269 37.984ZM80.3684 30.748C79.0544 30.748 78.1004 31.234 77.4524 32.062V31H75.1304V43.6H77.4524V38.938C78.1004 39.766 79.0544 40.252 80.3684 40.252C82.7804 40.252 84.7604 38.182 84.7604 35.5C84.7604 32.818 82.7804 30.748 80.3684 30.748ZM79.9364 38.038C78.5144 38.038 77.4524 37.012 77.4524 35.5C77.4524 33.988 78.5144 32.962 79.9364 32.962C81.3764 32.962 82.4384 33.988 82.4384 35.5C82.4384 37.012 81.3764 38.038 79.9364 38.038ZM92.8959 31L88.6659 36.112V31H86.3979V40H88.1259L92.3559 34.888V40H94.6239V31H92.8959ZM103.843 31H95.8695V33.232H98.7135V40H101.035V33.232H103.843V31ZM106.694 36.454H113.48C113.534 36.148 113.57 35.842 113.57 35.5C113.57 32.854 111.68 30.748 109.016 30.748C106.19 30.748 104.264 32.818 104.264 35.5C104.264 38.182 106.172 40.252 109.196 40.252C110.924 40.252 112.274 39.55 113.12 38.326L111.248 37.246C110.852 37.768 110.132 38.146 109.232 38.146C108.008 38.146 107.018 37.642 106.694 36.454ZM106.658 34.654C106.928 33.502 107.774 32.836 109.016 32.836C109.988 32.836 110.96 33.358 111.248 34.654H106.658ZM121.931 31H113.957V33.232H116.801V40H119.123V33.232H121.931V31ZM129.075 31V34.402H125.493V31H123.171V40H125.493V36.58H129.075V40H131.397V31H129.075ZM140.365 31V32.062C139.717 31.252 138.745 30.748 137.431 30.748C135.037 30.748 133.057 32.818 133.057 35.5C133.057 38.182 135.037 40.252 137.431 40.252C138.745 40.252 139.717 39.748 140.365 38.938V40H142.687V31H140.365ZM137.863 38.038C136.441 38.038 135.379 37.012 135.379 35.5C135.379 33.988 136.441 32.962 137.863 32.962C139.303 32.962 140.365 33.988 140.365 35.5C140.365 37.012 139.303 38.038 137.863 38.038ZM152.01 31H147.798C145.764 31 144.54 32.494 144.54 34.096C144.54 35.284 145.26 36.436 146.43 36.922L144.18 40H146.862L148.932 37.192H149.742V40H152.01V31ZM147.978 33.07H149.742V35.23H147.978C147.312 35.23 146.808 34.834 146.808 34.168C146.808 33.484 147.312 33.07 147.978 33.07ZM166.852 31H158.626V40H160.948V33.178H164.53V40H166.852V31ZM173.264 40.252C175.91 40.252 178.034 38.182 178.034 35.5C178.034 32.818 175.91 30.748 173.264 30.748C170.618 30.748 168.512 32.818 168.512 35.5C168.512 38.182 170.618 40.252 173.264 40.252ZM173.264 37.984C171.896 37.984 170.834 36.958 170.834 35.5C170.834 34.042 171.896 33.016 173.264 33.016C174.65 33.016 175.712 34.042 175.712 35.5C175.712 36.958 174.65 37.984 173.264 37.984ZM187.416 37.822V31H180.36V34.636C180.36 36.238 180.072 37.102 179.586 37.822H178.488V42.412H180.756V40H186.336V42.412H188.604V37.822H187.416ZM182.07 37.822C182.43 36.994 182.628 35.986 182.628 34.636V33.088H185.148V37.822H182.07ZM198.314 37.822V31H191.258V34.636C191.258 36.238 190.97 37.102 190.484 37.822H189.386V42.412H191.654V40H197.234V42.412H199.502V37.822H198.314ZM192.968 37.822C193.328 36.994 193.526 35.986 193.526 34.636V33.088H196.046V37.822H192.968ZM202.583 36.454H209.369C209.423 36.148 209.459 35.842 209.459 35.5C209.459 32.854 207.569 30.748 204.905 30.748C202.079 30.748 200.153 32.818 200.153 35.5C200.153 38.182 202.061 40.252 205.085 40.252C206.813 40.252 208.163 39.55 209.009 38.326L207.137 37.246C206.741 37.768 206.021 38.146 205.121 38.146C203.897 38.146 202.907 37.642 202.583 36.454ZM202.547 34.654C202.817 33.502 203.663 32.836 204.905 32.836C205.877 32.836 206.849 33.358 207.137 34.654H202.547ZM216.318 30.748C215.004 30.748 214.05 31.234 213.402 32.062V31H211.08V43.6H213.402V38.938C214.05 39.766 215.004 40.252 216.318 40.252C218.73 40.252 220.71 38.182 220.71 35.5C220.71 32.818 218.73 30.748 216.318 30.748ZM215.886 38.038C214.464 38.038 213.402 37.012 213.402 35.5C213.402 33.988 214.464 32.962 215.886 32.962C217.326 32.962 218.388 33.988 218.388 35.5C218.388 37.012 217.326 38.038 215.886 38.038ZM233.776 40L230.518 35.446L233.596 31H230.986L228.412 34.906V31H226.144V34.906L223.57 31H220.978L224.038 35.446L220.798 40H223.39L226.144 35.968V40H228.412V35.968L231.166 40H233.776ZM243.354 40L239.628 35.446L243.246 31H240.474L237.378 34.96V31H235.056V40H237.378V35.914L240.654 40H243.354ZM250.703 31V32.062C250.055 31.252 249.083 30.748 247.769 30.748C245.375 30.748 243.395 32.818 243.395 35.5C243.395 38.182 245.375 40.252 247.769 40.252C249.083 40.252 250.055 39.748 250.703 38.938V40H253.025V31H250.703ZM248.201 38.038C246.779 38.038 245.717 37.012 245.717 35.5C245.717 33.988 246.779 32.962 248.201 32.962C249.641 32.962 250.703 33.988 250.703 35.5C250.703 37.012 249.641 38.038 248.201 38.038Z" fill="#85D685"></path> </g> <g id="ent-6 copy 3"> <rect id="Rectangle Copy 17" x="32" y="157" width="78" height="16" rx="1" fill="#FFCE6E"></rect> <mask id="mask1" maskUnits="userSpaceOnUse" x="32" y="157" width="78" height="16"> <rect id="Rectangle Copy 17_2" x="32" y="157" width="78" height="16" rx="1" fill="white"></rect> </mask> <g mask="url(#mask1)"> <path id="Enterprise" d="M58.03 166.68V165.11H60.68V163.81H58.03V162.32H60.93V161H56.65V168H60.98V166.68H58.03ZM65.0061 162.86C64.3361 162.86 63.8161 163.11 63.5161 163.56V163H62.2261V168H63.5161V165.3C63.5161 164.43 63.9861 164.06 64.6161 164.06C65.1961 164.06 65.6061 164.41 65.6061 165.09V168H66.8961V164.93C66.8961 163.6 66.0661 162.86 65.0061 162.86ZM71.1909 164.24V163H70.0609V161.6L68.7709 161.99V163H67.9009V164.24H68.7709V166.32C68.7709 167.67 69.3809 168.2 71.1909 168V166.83C70.4509 166.87 70.0609 166.86 70.0609 166.32V164.24H71.1909ZM73.3675 166.03H77.1375C77.1675 165.86 77.1875 165.69 77.1875 165.5C77.1875 164.03 76.1375 162.86 74.6575 162.86C73.0875 162.86 72.0175 164.01 72.0175 165.5C72.0175 166.99 73.0775 168.14 74.7575 168.14C75.7175 168.14 76.4675 167.75 76.9375 167.07L75.8975 166.47C75.6775 166.76 75.2775 166.97 74.7775 166.97C74.0975 166.97 73.5475 166.69 73.3675 166.03ZM73.3475 165.03C73.4975 164.39 73.9675 164.02 74.6575 164.02C75.1975 164.02 75.7375 164.31 75.8975 165.03H73.3475ZM79.7114 163.86V163H78.4214V168H79.7114V165.61C79.7114 164.56 80.5614 164.26 81.2314 164.34V162.9C80.6014 162.9 79.9714 163.18 79.7114 163.86ZM85.2292 162.86C84.4992 162.86 83.9692 163.13 83.6092 163.59V163H82.3192V170H83.6092V167.41C83.9692 167.87 84.4992 168.14 85.2292 168.14C86.5692 168.14 87.6692 166.99 87.6692 165.5C87.6692 164.01 86.5692 162.86 85.2292 162.86ZM84.9892 166.91C84.1992 166.91 83.6092 166.34 83.6092 165.5C83.6092 164.66 84.1992 164.09 84.9892 164.09C85.7892 164.09 86.3792 164.66 86.3792 165.5C86.3792 166.34 85.7892 166.91 84.9892 166.91ZM90.2023 163.86V163H88.9123V168H90.2023V165.61C90.2023 164.56 91.0523 164.26 91.7223 164.34V162.9C91.0923 162.9 90.4623 163.18 90.2023 163.86ZM93.4501 162.4C93.8901 162.4 94.2501 162.04 94.2501 161.61C94.2501 161.18 93.8901 160.81 93.4501 160.81C93.0201 160.81 92.6601 161.18 92.6601 161.61C92.6601 162.04 93.0201 162.4 93.4501 162.4ZM92.8101 168H94.1001V163H92.8101V168ZM96.765 164.42C96.765 164.15 97.025 164.01 97.345 164.01C97.715 164.01 97.995 164.2 98.145 164.52L99.245 163.92C98.855 163.23 98.155 162.86 97.345 162.86C96.315 162.86 95.445 163.43 95.445 164.45C95.445 166.21 98.025 165.81 98.025 166.54C98.025 166.83 97.745 166.97 97.335 166.97C96.835 166.97 96.495 166.73 96.355 166.32L95.235 166.95C95.595 167.72 96.335 168.14 97.335 168.14C98.405 168.14 99.345 167.62 99.345 166.54C99.345 164.7 96.765 165.16 96.765 164.42ZM101.53 166.03H105.3C105.33 165.86 105.35 165.69 105.35 165.5C105.35 164.03 104.3 162.86 102.82 162.86C101.25 162.86 100.18 164.01 100.18 165.5C100.18 166.99 101.24 168.14 102.92 168.14C103.88 168.14 104.63 167.75 105.1 167.07L104.06 166.47C103.84 166.76 103.44 166.97 102.94 166.97C102.26 166.97 101.71 166.69 101.53 166.03ZM101.51 165.03C101.66 164.39 102.13 164.02 102.82 164.02C103.36 164.02 103.9 164.31 104.06 165.03H101.51Z" fill="#222437"></path> <path id="Stroke 21 Copy 8_3" d="M40.3205 164L33 191.321" stroke="#222437" stroke-width="8"></path> <path id="Stroke 21 Copy 14_3" d="M46.0617 161C46.0617 161 43.7078 169.785 39 187.355" stroke="#FF7965" stroke-width="5"></path> <path id="Stroke 21 Copy 16_2" d="M51.0617 159C51.0617 159 48.7078 167.785 44 185.355" stroke="#F6F6F6" stroke-width="4"></path> </g> </g> </g> <defs> <linearGradient id="paint0_linear" x1="828.619" y1="248.141" x2="643.609" y2="-316.471" gradientUnits="userSpaceOnUse"> <stop stop-color="#2A264D"></stop> <stop offset="1" stop-color="#5F5ACE"></stop> </linearGradient> </defs> </svg> 