<?xml version="1.0" encoding="UTF-8"?> <svg xmlns="http://www.w3.org/2000/svg" width="24" height="24" viewBox="0 0 24 24" fill="none"> <g clip-path="url(#clip0_7391_29908)"> <path fill-rule="evenodd" clip-rule="evenodd" d="M12 24C18.6274 24 24 18.6274 24 12C24 5.37258 18.6274 0 12 0C5.37258 0 0 5.37258 0 12C0 18.6274 5.37258 24 12 24Z" fill="#404040"></path> <path fill-rule="evenodd" clip-rule="evenodd" d="M19.6667 19H16.6531V13.8673C16.6531 12.46 16.1184 11.6736 15.0046 11.6736C13.7928 11.6736 13.1598 12.492 13.1598 13.8673V19H10.2556V9.22226H13.1598V10.5393C13.1598 10.5393 14.033 8.92354 16.1079 8.92354C18.1819 8.92354 19.6667 10.19 19.6667 12.8094V19ZM6.79084 7.94194C5.80161 7.94194 5 7.13405 5 6.13766C5 5.14127 5.80161 4.33337 6.79084 4.33337C7.78008 4.33337 8.58121 5.14127 8.58121 6.13766C8.58121 7.13405 7.78008 7.94194 6.79084 7.94194ZM5.29123 19H8.31957V9.22226H5.29123V19Z" fill="#BFBFBF"></path> </g> <defs> <clipPath id="clip0_7391_29908"> <rect width="24" height="24" fill="white"></rect> </clipPath> </defs> </svg> 