<?xml version="1.0" encoding="UTF-8"?> <svg xmlns="http://www.w3.org/2000/svg" width="1571" height="2014" viewBox="0 0 1571 2014" fill="none"> <path d="M9.99992 1185.71C184.375 1173.86 344.659 1078.44 448.819 941.363C517.493 850.984 561.77 742.494 569.604 627.899" stroke="#222437" stroke-width="20"></path> <rect width="1218" height="1544" rx="8" transform="matrix(-1 0 0 1 1430.18 77.4287)" fill="url(#paint0_linear)"></rect> <mask id="mask0" maskUnits="userSpaceOnUse" x="212" y="77" width="1219" height="1545"> <rect width="1218" height="1544" rx="8" transform="matrix(-1 0 0 1 1430.18 77.4287)" fill="white"></rect> </mask> <g mask="url(#mask0)"> <path fill-rule="evenodd" clip-rule="evenodd" d="M1275 127.668C1350.18 121.089 1405.72 53.9748 1399.05 -22.2344C1392.39 -98.4437 1326.04 -154.89 1250.86 -148.31C1175.68 -141.73 1120.13 -74.6164 1126.8 1.59281C1133.47 77.802 1199.81 134.248 1275 127.668Z" fill="#F3F4F6"></path> <path fill-rule="evenodd" clip-rule="evenodd" d="M734.341 253.122C830.572 244.7 901.687 159.022 893.18 61.7548C884.673 -35.5123 799.766 -107.535 703.534 -99.1134C607.303 -90.6914 536.188 -5.01342 544.695 92.2536C553.202 189.521 638.109 261.544 734.341 253.122Z" fill="#F3F4F6"></path> <path fill-rule="evenodd" clip-rule="evenodd" d="M1001.24 347.182C1148.59 334.286 1257.6 204.336 1244.71 56.9317C1231.81 -90.473 1101.91 -199.514 954.555 -186.617C807.201 -173.721 698.197 -43.7716 711.089 103.633C723.981 251.038 853.886 360.079 1001.24 347.182Z" fill="#F3F4F6"></path> <path d="M1343.88 -25.5412C1343.88 -25.5412 1269.94 122.794 1122.05 419.464" stroke="#F6F6F6" stroke-width="10"></path> </g> <path fill-rule="evenodd" clip-rule="evenodd" d="M286.727 295.429V306.417H275.411V284.605H280.987C283.693 280.833 285.743 275.257 285.743 265.171V238.029H323.627V284.605H329.777V306.417H318.461V295.429H286.727ZM293.123 284.605H312.311V248.607H297.059V265.335C297.059 275.175 295.255 280.915 293.123 284.605ZM357.165 296.577C365.037 296.577 371.187 293.379 375.041 287.803L366.513 282.883C364.709 285.261 361.429 286.983 357.329 286.983C351.753 286.983 347.243 284.687 345.767 279.275H376.681C376.927 277.881 377.091 276.487 377.091 274.929C377.091 262.875 368.481 253.281 356.345 253.281C343.471 253.281 334.697 262.711 334.697 274.929C334.697 287.147 343.389 296.577 357.165 296.577ZM345.603 271.075H366.513C365.201 265.171 360.773 262.793 356.345 262.793C350.687 262.793 346.833 265.827 345.603 271.075ZM403.987 295.429V264.597H416.779V254.429H380.453V264.597H393.409V295.429H403.987ZM453.597 290.591C450.645 294.281 446.217 296.577 440.231 296.577C429.325 296.577 420.305 287.147 420.305 274.929C420.305 262.711 429.325 253.281 440.231 253.281C446.217 253.281 450.645 255.577 453.597 259.267V254.429H464.175V295.429H453.597V290.591ZM442.199 286.491C435.721 286.491 430.883 281.817 430.883 274.929C430.883 268.041 435.721 263.367 442.199 263.367C448.759 263.367 453.597 268.041 453.597 274.929C453.597 281.817 448.759 286.491 442.199 286.491ZM487.053 264.597V278.291C487.053 291.247 480.821 296.659 469.751 295.429V285.507C474.097 286.573 476.475 284.113 476.475 277.717V254.429H508.947V295.429H498.369V264.597H487.053ZM526.413 295.429L545.683 272.141V295.429H556.015V254.429H548.143L528.873 277.717V254.429H518.541V295.429H526.413ZM596.769 264.351V295.429H586.191V254.429H623.665V295.429H613.087V264.351H596.769ZM646.625 278.291V264.597H657.941V295.429H668.519V254.429H636.047V277.717C636.047 284.113 633.669 286.573 629.323 285.507V295.429C640.393 296.659 646.625 291.247 646.625 278.291ZM709.273 290.591C706.321 294.281 701.893 296.577 695.907 296.577C685.001 296.577 675.981 287.147 675.981 274.929C675.981 262.711 685.001 253.281 695.907 253.281C701.893 253.281 706.321 255.577 709.273 259.267V254.429H719.851V295.429H709.273V290.591ZM697.875 286.491C691.397 286.491 686.559 281.817 686.559 274.929C686.559 268.041 691.397 263.367 697.875 263.367C704.435 263.367 709.273 268.041 709.273 274.929C709.273 281.817 704.435 286.491 697.875 286.491ZM740.023 279.849V295.429H729.445V254.429H740.023V269.927H756.341V254.429H766.919V295.429H756.341V279.849H740.023ZM794.389 296.577C800.375 296.577 804.803 294.281 807.755 290.591V295.429H818.333V254.429H807.755V259.267C804.803 255.577 800.375 253.281 794.389 253.281C783.483 253.281 774.463 262.711 774.463 274.929C774.463 287.147 783.483 296.577 794.389 296.577ZM785.041 274.929C785.041 281.817 789.879 286.491 796.357 286.491C802.917 286.491 807.755 281.817 807.755 274.929C807.755 268.041 802.917 263.367 796.357 263.367C789.879 263.367 785.041 268.041 785.041 274.929ZM859.005 295.429V264.351H875.323V295.429H885.901V254.429H848.427V295.429H859.005ZM936.823 274.929C936.823 287.147 927.147 296.577 915.093 296.577C903.039 296.577 893.445 287.147 893.445 274.929C893.445 262.711 903.039 253.281 915.093 253.281C927.147 253.281 936.823 262.711 936.823 274.929ZM915.093 286.245C908.861 286.245 904.023 281.571 904.023 274.929C904.023 268.287 908.861 263.613 915.093 263.613C921.407 263.613 926.245 268.287 926.245 274.929C926.245 281.571 921.407 286.245 915.093 286.245ZM950.845 295.429V306.417H940.513V285.507H945.515C947.729 282.227 949.041 278.291 949.041 270.993V254.429H981.185V285.507H986.597V306.417H976.265V295.429H950.845ZM970.853 285.507H956.831C958.471 281.735 959.373 277.143 959.373 270.993V263.941H970.853V285.507ZM1003.9 264.351V295.429H993.321V254.429H1030.79V295.429H1020.22V264.351H1003.9ZM1048.34 295.429L1067.61 272.141V295.429H1077.94V254.429H1070.07L1050.8 277.717V254.429H1040.47V295.429H1048.34ZM1125.67 285.917C1122.14 292.313 1115.17 296.577 1107.14 296.577C1094.67 296.577 1085.49 287.147 1085.49 274.929C1085.49 262.711 1094.67 253.281 1107.14 253.281C1115.17 253.281 1122.14 257.545 1125.5 263.859L1116.4 269.189C1114.76 265.827 1111.24 263.695 1107.05 263.695C1100.74 263.695 1096.07 268.369 1096.07 274.929C1096.07 281.407 1100.74 286.081 1107.05 286.081C1111.32 286.081 1114.84 284.031 1116.48 280.669L1125.67 285.917ZM1142.15 295.429V276.815L1157.07 295.429H1169.37L1152.4 274.683L1168.88 254.429H1156.25L1142.15 272.469V254.429H1131.57V295.429H1142.15ZM1201.76 272.141L1182.49 295.429H1174.62V254.429H1184.95V277.717L1204.22 254.429H1212.1V295.429H1201.76V272.141ZM299.109 396.577C311.327 396.577 319.937 390.017 319.937 379.275C319.937 367.566 310.289 364.524 301.198 361.657L301.159 361.645C292.467 359.021 290.253 357.135 290.253 353.609C290.253 350.329 293.041 347.869 297.797 347.869C303.619 347.869 306.735 350.903 308.785 355.249L318.297 349.755C314.443 341.719 307.227 336.881 297.797 336.881C287.957 336.881 278.937 343.113 278.937 353.937C278.937 364.843 287.465 368.533 296.239 371.075C304.767 373.535 308.621 375.175 308.621 379.439C308.621 382.637 306.243 385.507 299.437 385.507C292.303 385.507 288.285 382.063 286.235 376.733L276.559 382.391C279.675 390.919 287.383 396.577 299.109 396.577ZM350.277 385.835V395.429C335.435 397.069 330.433 392.723 330.433 381.653V364.597H323.299V354.429H330.433V346.147L341.011 342.949V354.429H350.277V364.597H341.011V381.653C341.011 386.081 344.209 386.163 350.277 385.835ZM378.731 396.577C386.603 396.577 392.753 393.379 396.607 387.803L388.079 382.883C386.275 385.261 382.995 386.983 378.895 386.983C373.319 386.983 368.809 384.687 367.333 379.275H398.247C398.493 377.881 398.657 376.487 398.657 374.929C398.657 362.875 390.047 353.281 377.911 353.281C365.037 353.281 356.263 362.711 356.263 374.929C356.263 387.147 364.955 396.577 378.731 396.577ZM367.169 371.075H388.079C386.767 365.171 382.339 362.793 377.911 362.793C372.253 362.793 368.399 365.827 367.169 371.075ZM416.615 411.829V390.591C419.567 394.363 423.913 396.577 429.899 396.577C440.887 396.577 449.907 387.147 449.907 374.929C449.907 362.711 440.887 353.281 429.899 353.281C423.913 353.281 419.567 355.495 416.615 359.267V354.429H406.037V411.829H416.615ZM416.615 374.929C416.615 381.817 421.453 386.491 427.931 386.491C434.491 386.491 439.329 381.817 439.329 374.929C439.329 368.041 434.491 363.367 427.931 363.367C421.453 363.367 416.615 368.041 416.615 374.929ZM462.617 349.509C466.225 349.509 469.177 346.557 469.177 343.031C469.177 339.505 466.225 336.471 462.617 336.471C459.091 336.471 456.139 339.505 456.139 343.031C456.139 346.557 459.091 349.509 462.617 349.509ZM457.369 354.429H467.947V395.429H457.369V354.429ZM488.201 395.429V376.815L503.125 395.429H515.425L498.451 374.683L514.933 354.429H502.305L488.201 372.469V338.029H477.623V395.429H488.201ZM583.895 378.783C583.895 388.623 575.941 395.429 566.019 395.429H541.665V338.029H564.297C573.973 338.029 581.763 344.589 581.763 354.183C581.763 359.103 579.713 362.957 576.351 365.663C580.943 368.287 583.895 372.797 583.895 378.783ZM564.297 361.235H552.981V348.607H564.297C567.905 348.607 570.447 351.313 570.447 354.921C570.447 358.529 567.823 361.235 564.297 361.235ZM552.981 384.851H566.019C569.873 384.851 572.661 381.981 572.661 378.045C572.661 374.191 569.873 371.321 566.019 371.321H552.981V384.851ZM608.577 396.577C614.563 396.577 618.991 394.281 621.943 390.591V395.429H632.521V354.429H621.943V359.267C618.991 355.577 614.563 353.281 608.577 353.281C597.671 353.281 588.651 362.711 588.651 374.929C588.651 387.147 597.671 396.577 608.577 396.577ZM599.229 374.929C599.229 381.817 604.067 386.491 610.545 386.491C617.105 386.491 621.943 381.817 621.943 374.929C621.943 368.041 617.105 363.367 610.545 363.367C604.067 363.367 599.229 368.041 599.229 374.929ZM656.547 396.577C665.321 396.577 673.029 392.313 673.029 383.457C673.029 374.224 665.107 372.053 658.958 370.369C655.059 369.301 651.873 368.428 651.873 366.073C651.873 363.859 654.005 362.711 656.629 362.711C659.663 362.711 661.959 364.269 663.189 366.893L672.209 361.973C669.011 356.315 663.271 353.281 656.629 353.281C648.183 353.281 641.049 357.955 641.049 366.319C641.049 375.097 648.876 377.323 655.009 379.066C658.958 380.189 662.205 381.112 662.205 383.457C662.205 385.835 659.909 386.983 656.547 386.983C652.447 386.983 649.659 385.015 648.511 381.653L639.327 386.819C642.279 393.133 648.347 396.577 656.547 396.577ZM692.053 343.031C692.053 346.557 689.101 349.509 685.493 349.509C681.967 349.509 679.015 346.557 679.015 343.031C679.015 339.505 681.967 336.471 685.493 336.471C689.101 336.471 692.053 339.505 692.053 343.031ZM690.823 354.429H680.245V395.429H690.823V354.429ZM738.547 385.917C735.021 392.313 728.051 396.577 720.015 396.577C707.551 396.577 698.367 387.147 698.367 374.929C698.367 362.711 707.551 353.281 720.015 353.281C728.051 353.281 735.021 357.545 738.383 363.859L729.281 369.189C727.641 365.827 724.115 363.695 719.933 363.695C713.619 363.695 708.945 368.369 708.945 374.929C708.945 381.407 713.619 386.081 719.933 386.081C724.197 386.081 727.723 384.031 729.363 380.669L738.547 385.917Z" fill="#222437"></path> <path fill-rule="evenodd" clip-rule="evenodd" d="M480.716 162.919C486.071 162.919 489.536 159.419 489.536 154.694C489.536 149.794 485.686 146.959 482.081 146.959C480.226 146.959 478.231 147.519 476.831 148.954C477.391 147.414 478.406 146.329 481.556 145.104C485.196 143.704 487.716 142.479 488.381 139.399L484.671 137.264C483.938 139.462 482.493 140.139 479.863 141.37L479.863 141.37C479.353 141.608 478.799 141.868 478.196 142.164C472.561 144.929 471.511 147.869 471.511 153.504C471.511 158.894 475.116 162.919 480.716 162.919ZM300.781 150.179C300.781 157.319 295.111 162.919 288.041 162.919C280.971 162.919 275.336 157.319 275.336 150.179C275.336 143.004 280.971 137.439 288.041 137.439C295.111 137.439 300.781 143.004 300.781 150.179ZM280.131 150.179C280.131 154.869 283.596 158.194 288.041 158.194C292.486 158.194 295.951 154.869 295.951 150.179C295.951 145.454 292.486 142.129 288.041 142.129C283.596 142.129 280.131 145.454 280.131 150.179ZM312.296 162.429V149.269H317.756V144.929H302.251V149.269H307.781V162.429H312.296ZM324.686 154.484V162.429H320.171V144.929H324.686V152.629L330.706 144.929H336.096L329.061 153.574L336.306 162.429H331.056L324.686 154.484ZM343.061 169.429V160.364C344.321 161.974 346.176 162.919 348.731 162.919C353.421 162.919 357.271 158.894 357.271 153.679C357.271 148.464 353.421 144.439 348.731 144.439C346.176 144.439 344.321 145.384 343.061 146.994V144.929H338.546V169.429H343.061ZM343.061 153.679C343.061 156.619 345.126 158.614 347.891 158.614C350.691 158.614 352.756 156.619 352.756 153.679C352.756 150.739 350.691 148.744 347.891 148.744C345.126 148.744 343.061 150.739 343.061 153.679ZM368.366 162.429C372.356 162.429 374.981 160.049 374.981 156.479C374.981 152.909 372.356 150.529 368.366 150.529H364.971V144.929H360.456V162.429H368.366ZM376.906 144.929H381.421V162.429H376.906V144.929ZM368.401 158.439H364.971V154.484H368.401C369.661 154.484 370.571 155.289 370.571 156.479C370.571 157.669 369.661 158.439 368.401 158.439ZM393.881 149.269V162.429H389.366V149.269H383.836V144.929H399.341V149.269H393.881ZM410.086 162.919C415.231 162.919 419.361 158.894 419.361 153.679C419.361 148.464 415.231 144.439 410.086 144.439C404.941 144.439 400.846 148.464 400.846 153.679C400.846 158.894 404.941 162.919 410.086 162.919ZM405.361 153.679C405.361 156.514 407.426 158.509 410.086 158.509C412.781 158.509 414.846 156.514 414.846 153.679C414.846 150.844 412.781 148.849 410.086 148.849C407.426 148.849 405.361 150.844 405.361 153.679ZM431.226 162.919C434.586 162.919 437.211 161.554 438.856 159.174L435.216 157.074C434.446 158.089 433.046 158.824 431.296 158.824C428.916 158.824 426.991 157.844 426.361 155.534H439.556C439.661 154.939 439.731 154.344 439.731 153.679C439.731 148.534 436.056 144.439 430.876 144.439C425.381 144.439 421.636 148.464 421.636 153.679C421.636 158.894 425.346 162.919 431.226 162.919ZM426.291 152.034H435.216C434.656 149.514 432.766 148.499 430.876 148.499C428.461 148.499 426.816 149.794 426.291 152.034ZM459.961 162.919C465.106 162.919 469.236 158.894 469.236 153.679C469.236 148.464 465.106 144.439 459.961 144.439C454.816 144.439 450.721 148.464 450.721 153.679C450.721 158.894 454.816 162.919 459.961 162.919ZM455.236 153.679C455.236 156.514 457.301 158.509 459.961 158.509C462.656 158.509 464.721 156.514 464.721 153.679C464.721 150.844 462.656 148.849 459.961 148.849C457.301 148.849 455.236 150.844 455.236 153.679ZM476.236 154.554C476.236 157.039 478.196 158.789 480.681 158.789C483.236 158.789 485.021 157.039 485.021 154.694C485.021 152.314 483.236 150.564 480.646 150.564C478.511 150.564 476.236 151.999 476.236 154.554ZM496.781 169.429V160.364C498.041 161.974 499.896 162.919 502.451 162.919C507.141 162.919 510.991 158.894 510.991 153.679C510.991 148.464 507.141 144.439 502.451 144.439C499.896 144.439 498.041 145.384 496.781 146.994V144.929H492.266V169.429H496.781ZM496.781 153.679C496.781 156.619 498.846 158.614 501.611 158.614C504.411 158.614 506.476 156.619 506.476 153.679C506.476 150.739 504.411 148.744 501.611 148.744C498.846 148.744 496.781 150.739 496.781 153.679ZM521.771 162.919C524.326 162.919 526.216 161.939 527.476 160.364V162.429H531.991V144.929H527.476V146.994C526.216 145.419 524.326 144.439 521.771 144.439C517.116 144.439 513.266 148.464 513.266 153.679C513.266 158.894 517.116 162.919 521.771 162.919ZM517.781 153.679C517.781 156.619 519.846 158.614 522.611 158.614C525.411 158.614 527.476 156.619 527.476 153.679C527.476 150.739 525.411 148.744 522.611 148.744C519.846 148.744 517.781 150.739 517.781 153.679ZM541.931 162.919C546.586 162.919 549.001 160.504 549.001 157.669C549.001 155.849 548.056 154.344 546.341 153.504C547.636 152.629 548.266 151.264 548.266 149.654C548.266 146.889 545.886 144.439 541.721 144.439C538.641 144.439 536.226 145.804 534.896 148.464L538.536 150.564C539.201 149.059 540.286 148.359 541.791 148.359C543.121 148.359 543.961 149.024 543.961 150.039C543.961 151.054 543.261 151.649 541.931 151.649H540.041V155.499H542.526C543.891 155.499 544.591 156.129 544.591 157.109C544.591 158.229 543.646 158.929 541.966 158.929C540.041 158.929 538.886 158.019 538.361 156.549L534.686 158.719C535.911 161.414 538.291 162.919 541.931 162.919ZM569.441 153.679C569.441 158.894 565.311 162.919 560.166 162.919C555.021 162.919 550.926 158.894 550.926 153.679C550.926 148.464 555.021 144.439 560.166 144.439C565.311 144.439 569.441 148.464 569.441 153.679ZM560.166 158.509C557.506 158.509 555.441 156.514 555.441 153.679C555.441 150.844 557.506 148.849 560.166 148.849C562.861 148.849 564.926 150.844 564.926 153.679C564.926 156.514 562.861 158.509 560.166 158.509ZM587.676 157.459C587.676 160.294 585.681 162.429 581.831 162.429H572.626V144.929H581.131C584.911 144.929 586.941 146.994 586.941 149.864C586.941 151.404 586.346 152.629 585.226 153.469C586.801 154.239 587.676 155.639 587.676 157.459ZM580.711 151.789H576.861V148.639H580.711C581.936 148.639 582.636 149.164 582.636 150.214C582.636 151.299 581.936 151.789 580.711 151.789ZM576.861 158.614H581.306C582.531 158.614 583.266 158.019 583.266 156.934C583.266 155.919 582.496 155.359 581.306 155.359H576.861V158.614ZM598.106 162.919C600.661 162.919 602.551 161.939 603.811 160.364V162.429H608.326V144.929H603.811V146.994C602.551 145.419 600.661 144.439 598.106 144.439C593.451 144.439 589.601 148.464 589.601 153.679C589.601 158.894 593.451 162.919 598.106 162.919ZM594.116 153.679C594.116 156.619 596.181 158.614 598.946 158.614C601.746 158.614 603.811 156.619 603.811 153.679C603.811 150.739 601.746 148.744 598.946 148.744C596.181 148.744 594.116 150.739 594.116 153.679ZM616.936 162.429V155.779H623.901V162.429H628.416V144.929H623.901V151.544H616.936V144.929H612.421V162.429H616.936ZM648.541 162.429H644.131V152.489L635.906 162.429H632.546V144.929H636.956V154.869L645.181 144.929H648.541V162.429ZM661.351 162.919C664.711 162.919 667.336 161.554 668.981 159.174L665.341 157.074C664.571 158.089 663.171 158.824 661.421 158.824C659.041 158.824 657.116 157.844 656.486 155.534H669.681C669.786 154.939 669.856 154.344 669.856 153.679C669.856 148.534 666.181 144.439 661.001 144.439C655.506 144.439 651.761 148.464 651.761 153.679C651.761 158.894 655.471 162.919 661.351 162.919ZM656.416 152.034H665.341C664.781 149.514 662.891 148.499 661.001 148.499C658.586 148.499 656.941 149.794 656.416 152.034Z" fill="#6C7BDF"></path> <path d="M1384.18 1502.43L874.181 2007.43" stroke="white" stroke-width="12" stroke-linecap="round"></path> <path d="M1534.82 1353.9C1534.82 1353.9 1539.57 1422.4 1506.36 1454.36C1473.16 1486.33 1402.01 1481.76 1402.01 1481.76C1402.01 1481.76 1397.27 1413.27 1430.47 1381.3C1463.67 1349.34 1534.82 1353.9 1534.82 1353.9Z" fill="#222437"></path> <path d="M1147.18 1785.43L1349.18 1022.43" stroke="#66CC66" stroke-width="24"></path> <path d="M1090.18 1248.43L1220.67 1476.04" stroke="#6C7BDF" stroke-width="12"></path> <path fill-rule="evenodd" clip-rule="evenodd" d="M1235.18 16.6289C1235.18 25.2289 1227.98 32.4289 1219.18 32.4289C1210.58 32.4289 1203.38 25.2289 1203.38 16.6289C1203.38 8.02891 1210.58 0.628906 1219.18 0.628906C1227.98 0.628906 1235.18 8.02891 1235.18 16.6289ZM927.781 144.429C951.981 144.429 971.381 127.829 971.381 103.829C971.381 89.2289 964.181 78.2289 952.981 71.8289C961.181 65.2289 966.181 55.8289 966.181 43.8289C966.181 20.4289 947.181 4.42891 923.581 4.42891H868.381V144.429H927.781ZM923.581 61.0289H895.981V30.2289H923.581C932.381 30.2289 938.581 36.8289 938.581 45.6289C938.581 54.4289 932.181 61.0289 923.581 61.0289ZM895.981 118.629H927.781C937.181 118.629 943.981 111.629 943.981 102.029C943.981 92.6289 937.181 85.6289 927.781 85.6289H895.981V118.629ZM1031.58 147.229C1046.18 147.229 1056.98 141.629 1064.18 132.629V144.429H1089.98V44.4289H1064.18V56.2289C1056.98 47.2289 1046.18 41.6289 1031.58 41.6289C1004.98 41.6289 982.981 64.6289 982.981 94.4289C982.981 124.229 1004.98 147.229 1031.58 147.229ZM1008.78 94.4289C1008.78 111.229 1020.58 122.629 1036.38 122.629C1052.38 122.629 1064.18 111.229 1064.18 94.4289C1064.18 77.6289 1052.38 66.2289 1036.38 66.2289C1020.58 66.2289 1008.78 77.6289 1008.78 94.4289ZM1148.58 147.229C1169.98 147.229 1188.78 136.829 1188.78 115.229C1188.78 92.7099 1169.46 87.4159 1154.46 83.3071C1144.95 80.7014 1137.18 78.5723 1137.18 72.8289C1137.18 67.4289 1142.38 64.6289 1148.78 64.6289C1156.18 64.6289 1161.78 68.4289 1164.78 74.8289L1186.78 62.8289C1178.98 49.0289 1164.98 41.6289 1148.78 41.6289C1128.18 41.6289 1110.78 53.0289 1110.78 73.4289C1110.78 94.8397 1129.87 100.267 1144.83 104.52C1154.46 107.258 1162.38 109.51 1162.38 115.229C1162.38 121.029 1156.78 123.829 1148.58 123.829C1138.58 123.829 1131.78 119.029 1128.98 110.829L1106.58 123.429C1113.78 138.829 1128.58 147.229 1148.58 147.229ZM1232.18 44.4289H1206.38V144.429H1232.18V44.4289ZM1348.58 121.229C1339.98 136.829 1322.98 147.229 1303.38 147.229C1272.98 147.229 1250.58 124.229 1250.58 94.4289C1250.58 64.6289 1272.98 41.6289 1303.38 41.6289C1322.98 41.6289 1339.98 52.0289 1348.18 67.4289L1325.98 80.4289C1321.98 72.2289 1313.38 67.0289 1303.18 67.0289C1287.78 67.0289 1276.38 78.4289 1276.38 94.4289C1276.38 110.229 1287.78 121.629 1303.18 121.629C1313.58 121.629 1322.18 116.629 1326.18 108.429L1348.58 121.229Z" fill="#66CC66"></path> <defs> <linearGradient id="paint0_linear" x1="1537.05" y1="1474.52" x2="795.686" y2="-218.414" gradientUnits="userSpaceOnUse"> <stop stop-color="#A9AEFF"></stop> <stop offset="0.436742" stop-color="#BEE5F0"></stop> <stop offset="1" stop-color="white"></stop> </linearGradient> </defs> </svg> 