<?xml version="1.0" encoding="UTF-8"?> <svg xmlns="http://www.w3.org/2000/svg" width="122" height="122" viewBox="0 0 122 122" fill="none"> <path fill-rule="evenodd" clip-rule="evenodd" d="M23.001 54.8444L64.3688 104.316L64.3701 104.315L105.737 54.8454L105.741 54.8444L88.6182 33.0046L88.6198 33H88.6146H64.3685H64.3663H55.0375H40.1263H40.1231L40.1238 33.0032L23.001 54.8444Z" fill="url(#paint0_linear_9745_210843)"></path> <path fill-rule="evenodd" clip-rule="evenodd" d="M79.724 52.073C80.0371 52.2356 80.1592 52.6213 79.9966 52.9344L62.7462 86.1574C62.5836 86.4705 62.1979 86.5926 61.8848 86.43C61.5716 86.2674 61.4496 85.8817 61.6122 85.5685L78.8625 52.3456C79.0251 52.0324 79.4108 51.9104 79.724 52.073Z" fill="black"></path> <path fill-rule="evenodd" clip-rule="evenodd" d="M44.6345 52.073C44.3214 52.2356 44.1993 52.6213 44.3619 52.9344L61.6123 86.1574C61.7749 86.4705 62.1606 86.5926 62.4737 86.43C62.7869 86.2674 62.9089 85.8817 62.7463 85.5685L45.496 52.3456C45.3334 52.0324 44.9477 51.9104 44.6345 52.073Z" fill="black"></path> <path fill-rule="evenodd" clip-rule="evenodd" d="M62.8181 31.5557C63.013 31.5557 63.1973 31.6447 63.3185 31.7973L75.4912 47.131C75.6437 47.323 75.6728 47.5853 75.5662 47.8061C75.4595 48.0268 75.236 48.1671 74.9908 48.1671H50.6454C50.4002 48.1671 50.1767 48.0268 50.0701 47.8061C49.9634 47.5853 49.9926 47.323 50.145 47.131L62.3177 31.7973C62.4389 31.6447 62.6232 31.5557 62.8181 31.5557ZM51.9683 46.8893H73.6679L62.8181 33.2221L51.9683 46.8893Z" fill="black"></path> <path fill-rule="evenodd" clip-rule="evenodd" d="M49 25.1672C49 24.8144 49.286 24.5283 49.6389 24.5283H75.195C75.5479 24.5283 75.8339 24.8144 75.8339 25.1672C75.8339 25.5201 75.5479 25.8061 75.195 25.8061H49.6389C49.286 25.8061 49 25.5201 49 25.1672Z" fill="black"></path> <path fill-rule="evenodd" clip-rule="evenodd" d="M100.486 20.938L98.1507 17L95.8152 20.938L91.8772 23.2735L95.8152 25.6091L98.1507 29.5471L100.486 25.6091L104.424 23.2735L100.486 20.938ZM101.965 23.2735L99.5706 21.8537L98.1507 19.4596L96.7308 21.8537L94.3368 23.2735L96.7308 24.6934L98.1507 27.0875L99.5706 24.6934L101.965 23.2735Z" fill="black"></path> <path fill-rule="evenodd" clip-rule="evenodd" d="M21.9068 29.2539L19.1041 24.5283L16.3014 29.2539L11.5758 32.0566L16.3014 34.8593L19.1041 39.5848L21.9068 34.8593L26.6323 32.0566L21.9068 29.2539ZM24.1727 32.0566L20.9911 30.1696L19.1041 26.9879L17.217 30.1696L14.0354 32.0566L17.217 33.9436L19.1041 37.1252L20.9911 33.9436L24.1727 32.0566Z" fill="black"></path> <path fill-rule="evenodd" clip-rule="evenodd" d="M102.542 33.3112C102.889 33.3112 103.17 33.0303 103.17 32.6838C103.17 32.3373 102.889 32.0565 102.542 32.0565C102.196 32.0565 101.915 32.3373 101.915 32.6838C101.915 33.0303 102.196 33.3112 102.542 33.3112ZM102.542 34.5659C103.582 34.5659 104.424 33.7233 104.424 32.6838C104.424 31.6444 103.582 30.8018 102.542 30.8018C101.503 30.8018 100.66 31.6444 100.66 32.6838C100.66 33.7233 101.503 34.5659 102.542 34.5659Z" fill="black"></path> <path d="M62.7537 100.636L104.09 51.2028C104.144 51.1501 104.186 51.0852 104.212 51.0118C104.269 50.8504 104.24 50.6708 104.134 50.5359L87.0494 28.7442C87.0424 28.7324 87.0348 28.7208 87.0267 28.7095C86.9329 28.578 86.7813 28.5 86.6198 28.5H86.6146H62.3685H62.3663H53.0375H38.1263H38.1231C37.9714 28.5 37.8279 28.5688 37.733 28.6872C37.7214 28.7017 37.7106 28.7168 37.7008 28.7323L20.6319 50.5048C20.4642 50.6867 20.4535 50.9691 20.6164 51.164C20.6167 51.1643 20.617 51.1647 20.6173 51.165C20.6173 51.1651 20.6174 51.1651 20.6174 51.1652L61.9853 100.637C62.1387 100.82 62.4006 100.869 62.6101 100.754L62.6114 100.753C62.6657 100.723 62.7139 100.684 62.7537 100.636Z" stroke="black" stroke-linecap="round" stroke-linejoin="round"></path> <defs> <linearGradient id="paint0_linear_9745_210843" x1="64.3704" y1="33" x2="85.2504" y2="97.5633" gradientUnits="userSpaceOnUse"> <stop stop-color="#ADB9FD"></stop> <stop offset="1" stop-color="#C5ACFF"></stop> </linearGradient> </defs> </svg> 