<?xml version="1.0" encoding="UTF-8"?> <svg xmlns="http://www.w3.org/2000/svg" xmlns:xlink="http://www.w3.org/1999/xlink" viewBox="0 0 468.47 138.04"> <defs> <style>.cls-1{fill:none;}.cls-2{clip-path:url(#clip-path);}.cls-3{fill:#38a70d;}.cls-4{fill:#fff;}</style> <clipPath id="clip-path"> <rect class="cls-1" width="468.47" height="138.04"></rect> </clipPath> </defs> <g id="Layer_2" data-name="Layer 2"> <g id="Layer_1-2" data-name="Layer 1"> <g class="cls-2"> <path class="cls-3" d="M468.47,46.65h-5.78V17.35c0-10-1.55-11.56-11.19-11.56H421.82V0h29.69c13.1,0,17,3.86,17,17.35Z"></path> <path class="cls-3" d="M46.65,138H17c-13.11,0-17-3.86-17-17.36V91.38H5.78v29.3c0,10,1.55,11.57,11.19,11.57H46.65Z"></path> <path class="cls-4" d="M425.29,89.84,407.55,68.25l16.19-20-4.24-3.86L404.08,63.62,388.27,44.34,384,48.2l16.19,20L382.49,89.84l4.62,3.86,17-20.82L420.66,93.7Z"></path> <path class="cls-4" d="M144.21,46.27h-5.79V91.38h5.79Z"></path> <path class="cls-4" d="M141.12,18.12a8.1,8.1,0,0,0-7.94,9.68A8,8,0,0,0,135.4,32a8.09,8.09,0,1,0,5.72-13.83Zm0,10.41a2.47,2.47,0,0,1-1.59-.72,2.49,2.49,0,0,1-.72-1.59,2.32,2.32,0,0,1,2.31-2.31,2.3,2.3,0,0,1,2.31,2.31,2.44,2.44,0,0,1-.72,1.59A2.49,2.49,0,0,1,141.12,28.53Z"></path> <path class="cls-4" d="M354,43.57c-17.35,0-22.36,5.78-22.36,25.06,0,20.44,2.7,25.84,21.59,25.84,16.58,0,21.6-5.78,21.6-25.83C374.78,50.13,372.85,43.57,354,43.57Zm-.77,45.11c-13.88,0-15.8-.77-15.8-20.05,0-17,3.47-19.28,16.58-19.28,13.88,0,15,1.93,15,19.28C369,87.14,365.14,88.68,353.18,88.68Z"></path> <path class="cls-4" d="M304.6,43.18c-5.4,0-15,3.09-20.43,5V20.05h-5.79V92.92l2.7.39a133.76,133.76,0,0,0,17,1.16c17.35,0,21.2-5,21.2-26.22C319.64,51.28,317.33,43.18,304.6,43.18Zm-6.17,45.5c-3.85,0-8.86-.38-13.88-.77V54.75c5.79-2.31,15.43-5.4,20.44-5.4,6.55,0,9.25.77,9.25,18.89-.38,19.67-3.47,20.44-15.81,20.44Z"></path> <path class="cls-4" d="M192.4,43.57c-6.17,0-17,3.47-23.13,5.78V46.27h-5.79V91.38h5.79V55.14C177,52.05,187,49,192.4,49c4.24,0,6.56.39,6.56,10V91h5.78V59C204.74,51.28,203.2,43.57,192.4,43.57Z"></path> <path class="cls-4" d="M106.42,43.57c-6.17,0-15.81,3.09-23.52,6.17-1.54-3.47-4.63-6.17-10.8-6.17-5.78,0-14.65,3.09-22,5.78V46.27H44.34V91.38h5.78V55.14c5.4-1.93,16.2-6.17,22-6.17,4.24,0,6.56.38,6.56,10V91h5.78V54.75c10.41-3.85,18.12-6.17,22-6.17,4.24,0,6.55.39,6.55,10v32h5.79v-32C118.76,51.28,117.6,43.57,106.42,43.57Z"></path> <path class="cls-4" d="M254.48,44c-4.63-.39-9.64-.78-13.88-.78-17.35,0-21.21,5-21.21,26.22,0,16.58,2.31,24.68,15,24.68,5.4,0,15-3.08,20.43-5V91h5.79V20.05h-6.17ZM234,88.68c-6.55,0-9.25-.77-9.25-18.89,0-19.67,3.08-20.44,15.42-20.44,4.24,0,9.26.39,13.88.77V83.67C248.69,85.6,239.05,88.68,234,88.68Z"></path> </g> </g> </g> </svg> 