<?xml version="1.0" encoding="UTF-8"?> <svg xmlns="http://www.w3.org/2000/svg" id="Layer_1" data-name="Layer 1" viewBox="0 0 330 80"> <defs> <style>.cls-1{fill:#fff;}</style> </defs> <title>logo-bi-18-Artboard 3 copy 6</title> <path class="cls-1" d="M97.59,9.38h5.7a11,11,0,0,1,2.19.23,5.86,5.86,0,0,1,2,.78,4.29,4.29,0,0,1,1.43,1.5,4.63,4.63,0,0,1,.55,2.38,4,4,0,0,1-.92,2.63,4.28,4.28,0,0,1-2.47,1.47v.05a5.09,5.09,0,0,1,3.09,1.45,4.53,4.53,0,0,1,1.22,3.33,4.66,4.66,0,0,1-.5,2.18,4.79,4.79,0,0,1-1.41,1.67,6.76,6.76,0,0,1-2.24,1.07,10.79,10.79,0,0,1-3,.38H97.59Zm2,8.37h3.91a6.31,6.31,0,0,0,1.42-.16,3.82,3.82,0,0,0,1.31-.56,3,3,0,0,0,1-1,3.22,3.22,0,0,0,.36-1.59,3.09,3.09,0,0,0-.36-1.55,3.17,3.17,0,0,0-1-1,4.25,4.25,0,0,0-1.46-.58,8.39,8.39,0,0,0-1.78-.18H99.54Zm0,9.07h3.61a10.1,10.1,0,0,0,2-.2,5.29,5.29,0,0,0,1.67-.65A3.45,3.45,0,0,0,108,24.81a3.34,3.34,0,0,0,.43-1.71,3.28,3.28,0,0,0-1.28-2.83,6.13,6.13,0,0,0-3.63-.93h-4Z"></path> <path class="cls-1" d="M116.71,28.5h-1.95V9.38h1.95Z"></path> <path class="cls-1" d="M140.68,18.94a10.5,10.5,0,0,1-.75,4,9.59,9.59,0,0,1-2.1,3.17,9.77,9.77,0,0,1-3.15,2.1,10.8,10.8,0,0,1-7.91,0A9.58,9.58,0,0,1,121.51,23a10.5,10.5,0,0,1-.75-4,10.59,10.59,0,0,1,.75-4,9.75,9.75,0,0,1,2.1-3.17,9.52,9.52,0,0,1,3.16-2.09,10.67,10.67,0,0,1,7.91,0,9.54,9.54,0,0,1,5.25,5.26A10.59,10.59,0,0,1,140.68,18.94Zm-2.05,0a9.4,9.4,0,0,0-.54-3.18,7.9,7.9,0,0,0-1.57-2.66A7.34,7.34,0,0,0,134,11.3a8.4,8.4,0,0,0-6.62,0,7.34,7.34,0,0,0-2.49,1.81,7.9,7.9,0,0,0-1.57,2.66,9.63,9.63,0,0,0,0,6.36,7.63,7.63,0,0,0,1.57,2.64,7.47,7.47,0,0,0,2.49,1.81,8.51,8.51,0,0,0,6.62,0,7.47,7.47,0,0,0,2.49-1.81,7.63,7.63,0,0,0,1.57-2.64A9.32,9.32,0,0,0,138.63,19Z"></path> <path class="cls-1" d="M146.68,28.5h-2V9.38h2Z"></path> <path class="cls-1" d="M165.31,25.66h.05V9.38h1.95V28.5h-2.43L153.75,12.05h-.05V28.5h-1.95V9.38h2.43Z"></path> <path class="cls-1" d="M174.32,28.5h-1.94V9.38h11.53v1.73h-9.59v6.61h8.91v1.73h-8.91Z"></path> <path class="cls-1" d="M206.45,18.94a10.5,10.5,0,0,1-.75,4,9.52,9.52,0,0,1-5.25,5.27,10.8,10.8,0,0,1-7.91,0A9.58,9.58,0,0,1,187.28,23a10.5,10.5,0,0,1-.75-4,10.59,10.59,0,0,1,.75-4,9.75,9.75,0,0,1,2.1-3.17,9.52,9.52,0,0,1,3.16-2.09,10.67,10.67,0,0,1,7.91,0,9.63,9.63,0,0,1,3.16,2.09,9.72,9.72,0,0,1,2.09,3.17A10.59,10.59,0,0,1,206.45,18.94Zm-2,0a9.4,9.4,0,0,0-.54-3.18,8,8,0,0,0-1.56-2.66,7.48,7.48,0,0,0-2.5-1.81,8.4,8.4,0,0,0-6.62,0,7.34,7.34,0,0,0-2.49,1.81,7.9,7.9,0,0,0-1.57,2.66,9.63,9.63,0,0,0,0,6.36,7.63,7.63,0,0,0,1.57,2.64,7.47,7.47,0,0,0,2.49,1.81,8.51,8.51,0,0,0,6.62,0,7.62,7.62,0,0,0,2.5-1.81,7.76,7.76,0,0,0,1.56-2.64A9.32,9.32,0,0,0,204.4,19Z"></path> <path class="cls-1" d="M212.45,28.5H210.5V9.38h5.62a11.89,11.89,0,0,1,2.61.27,5.84,5.84,0,0,1,2.08.88,4.17,4.17,0,0,1,1.36,1.58,5.3,5.3,0,0,1,.48,2.37,4.7,4.7,0,0,1-2.94,4.43,7,7,0,0,1-1.94.49l5.59,9.1H221l-5.29-8.94h-3.24Zm0-10.62h3.37a6.44,6.44,0,0,0,3.62-.85,2.84,2.84,0,0,0,1.27-2.55,3.34,3.34,0,0,0-.35-1.59,2.87,2.87,0,0,0-1-1.05,4.59,4.59,0,0,0-1.51-.6,10.08,10.08,0,0,0-2-.19h-3.45Z"></path> <path class="cls-1" d="M236.13,25.2h0l6.4-15.82h3V28.5h-1.94V11.89h-.05L236.61,28.5h-1l-6.91-16.61h-.06V28.5h-1.94V9.38h3Z"></path> <path class="cls-1" d="M250.46,28.5h-2.13l8.26-19.12h1.89l8.21,19.12h-2.16l-2.1-5h-9.89Zm2.81-6.81h8.43l-4.22-10.15Z"></path> <path class="cls-1" d="M274,28.5h-1.95V11.11h-6.39V9.38h14.74v1.73H274Z"></path> <path class="cls-1" d="M285.21,28.5h-1.94V9.38h1.94Z"></path> <path class="cls-1" d="M306.38,25.39a7.52,7.52,0,0,1-1.17,1.38,7.66,7.66,0,0,1-1.6,1.14,8.67,8.67,0,0,1-2,.78,9.35,9.35,0,0,1-2.38.29,10.47,10.47,0,0,1-4-.75,9.6,9.6,0,0,1-3.16-2.1A9.49,9.49,0,0,1,290,23a10.5,10.5,0,0,1-.75-4,10.41,10.41,0,0,1,.76-4,9.46,9.46,0,0,1,5.25-5.26,10.27,10.27,0,0,1,4-.76,10.07,10.07,0,0,1,2.06.22,9.4,9.4,0,0,1,1.9.62,7.61,7.61,0,0,1,1.62,1A5.54,5.54,0,0,1,306,11.94l-1.62,1.19a5,5,0,0,0-.8-.92,5.75,5.75,0,0,0-1.17-.81,7.34,7.34,0,0,0-1.47-.56,6.33,6.33,0,0,0-1.72-.22,8,8,0,0,0-3.33.67,7.54,7.54,0,0,0-2.5,1.82,8,8,0,0,0-1.57,2.65,9.4,9.4,0,0,0-.54,3.18,9.08,9.08,0,0,0,.56,3.17,8,8,0,0,0,1.58,2.65,7.36,7.36,0,0,0,2.49,1.82,7.9,7.9,0,0,0,3.31.67,7.46,7.46,0,0,0,3.13-.67,6,6,0,0,0,2.49-2.16Z"></path> <path class="cls-1" d="M319,12.46a4.74,4.74,0,0,0-1.59-1.39,4.89,4.89,0,0,0-2.35-.53,4.78,4.78,0,0,0-1.43.22,4,4,0,0,0-1.33.66,3.49,3.49,0,0,0-1,1.12,3.33,3.33,0,0,0-.36,1.59,3,3,0,0,0,.35,1.51,3.23,3.23,0,0,0,.93,1,5.3,5.3,0,0,0,1.32.68l1.55.54c.66.22,1.33.45,2,.71a7.21,7.21,0,0,1,1.82,1,4.81,4.81,0,0,1,1.32,1.54,4.88,4.88,0,0,1,.51,2.36,5.06,5.06,0,0,1-2,4.19,6,6,0,0,1-2,1,8.34,8.34,0,0,1-2.26.32,9.22,9.22,0,0,1-1.73-.17,8.27,8.27,0,0,1-1.64-.53,6.41,6.41,0,0,1-1.46-.89,6.65,6.65,0,0,1-1.19-1.24l1.67-1.25A5.15,5.15,0,0,0,312,26.62a4.89,4.89,0,0,0,2.63.69,5.18,5.18,0,0,0,1.48-.23,4.44,4.44,0,0,0,1.37-.7,4.2,4.2,0,0,0,1-1.17,3.16,3.16,0,0,0,.39-1.6,3.21,3.21,0,0,0-.39-1.66,3.67,3.67,0,0,0-1-1.11,6.48,6.48,0,0,0-1.49-.74l-1.75-.6c-.63-.19-1.26-.42-1.87-.67a6,6,0,0,1-1.64-1,4.56,4.56,0,0,1-1.18-1.49,4.86,4.86,0,0,1-.44-2.19,4.84,4.84,0,0,1,.55-2.38A5.07,5.07,0,0,1,311,10.14a6,6,0,0,1,2-1,7.93,7.93,0,0,1,2.13-.3,7.36,7.36,0,0,1,3.32.69,5.72,5.72,0,0,1,2.08,1.64Z"></path> <path class="cls-1" d="M99.54,70.5h-2V51.38h2Z"></path> <path class="cls-1" d="M118.17,67.66h0V51.38h1.94V70.5h-2.43L106.61,54.05h0V70.5h-2V51.38H107Z"></path> <path class="cls-1" d="M134.5,54.46a4.55,4.55,0,0,0-1.59-1.39,4.89,4.89,0,0,0-2.35-.53,4.78,4.78,0,0,0-1.43.22,4,4,0,0,0-1.33.66,3.34,3.34,0,0,0-1,1.12,3.22,3.22,0,0,0-.37,1.59,3,3,0,0,0,.35,1.51,3.23,3.23,0,0,0,.93,1,5.48,5.48,0,0,0,1.32.68l1.55.54c.66.22,1.33.45,2,.71a7.21,7.21,0,0,1,1.82,1,4.81,4.81,0,0,1,1.32,1.54,4.88,4.88,0,0,1,.51,2.36,5.06,5.06,0,0,1-2,4.19,6,6,0,0,1-2,1,8.34,8.34,0,0,1-2.26.32,9.3,9.3,0,0,1-1.73-.17,8.27,8.27,0,0,1-1.64-.53,6.65,6.65,0,0,1-2.65-2.13l1.68-1.25a5,5,0,0,0,1.74,1.72,4.89,4.89,0,0,0,2.63.69,5.12,5.12,0,0,0,1.48-.23,4.44,4.44,0,0,0,1.37-.7,4,4,0,0,0,1-1.17,3.16,3.16,0,0,0,.39-1.6A3.21,3.21,0,0,0,134,64a3.55,3.55,0,0,0-1-1.11,6.28,6.28,0,0,0-1.49-.74l-1.75-.6c-.63-.19-1.25-.42-1.87-.67a6,6,0,0,1-1.64-1A4.56,4.56,0,0,1,125,58.35a5,5,0,0,1-.44-2.19,4.84,4.84,0,0,1,.55-2.38,5,5,0,0,1,1.45-1.64,5.9,5.9,0,0,1,2-1,7.93,7.93,0,0,1,2.13-.3,7.34,7.34,0,0,1,3.32.69A5.72,5.72,0,0,1,136,53.22Z"></path> <path class="cls-1" d="M146.11,70.5h-1.94V53.11h-6.4V51.38h14.74v1.73h-6.4Z"></path> <path class="cls-1" d="M157.32,70.5h-1.95V51.38h1.95Z"></path> <path class="cls-1" d="M168.52,70.5h-1.94V53.11h-6.4V51.38h14.74v1.73h-6.4Z"></path> <path class="cls-1" d="M184.83,71a7.5,7.5,0,0,1-3.54-.74,6.32,6.32,0,0,1-2.19-1.88A6.91,6.91,0,0,1,178,65.89a11.55,11.55,0,0,1-.31-2.52v-12h2V63.15a9.39,9.39,0,0,0,.27,2.26,5.8,5.8,0,0,0,.87,1.94,4.52,4.52,0,0,0,1.61,1.38,5.26,5.26,0,0,0,2.46.52,5.19,5.19,0,0,0,2.45-.52,4.44,4.44,0,0,0,1.61-1.38,5.62,5.62,0,0,0,.88-1.94,9.39,9.39,0,0,0,.27-2.26V51.38H192v12a11,11,0,0,1-.31,2.52,6.74,6.74,0,0,1-1.12,2.47,6.27,6.27,0,0,1-2.2,1.88A7.5,7.5,0,0,1,184.83,71Z"></path> <path class="cls-1" d="M203.08,70.5h-1.94V53.11h-6.4V51.38h14.74v1.73h-6.4Z"></path> <path class="cls-1" d="M214.28,68.77h10.24V70.5H212.34V51.38h11.85v1.73h-9.91v6.56h9.27V61.4h-9.27Z"></path> <path class="cls-1" d="M9.23,18.39a9.31,9.31,0,1,1,9.3,9.3A9.3,9.3,0,0,1,9.23,18.39Z"></path> <path class="cls-1" d="M52.65,18.39a9.3,9.3,0,1,1,9.3,9.3A9.3,9.3,0,0,1,52.65,18.39Z"></path> <path class="cls-1" d="M9.23,61.8a9.31,9.31,0,1,1,9.3,9.31A9.3,9.3,0,0,1,9.23,61.8Z"></path> <path class="cls-1" d="M52.65,61.8A9.3,9.3,0,1,1,62,71.11,9.3,9.3,0,0,1,52.65,61.8Z"></path> <path class="cls-1" d="M29.38,12.38a29.66,29.66,0,0,1,21.72,0c.21-.37.43-.73.67-1.07a30.92,30.92,0,0,0-23.06,0A10.67,10.67,0,0,1,29.38,12.38Z"></path> <path class="cls-1" d="M68,29.24A29.63,29.63,0,0,1,68,51a12.21,12.21,0,0,1,1.08.68,31.08,31.08,0,0,0,0-23.07A12.21,12.21,0,0,1,68,29.24Z"></path> <path class="cls-1" d="M51.1,67.81a29.66,29.66,0,0,1-21.72,0,10.67,10.67,0,0,1-.67,1.07,30.92,30.92,0,0,0,23.06,0C51.53,68.54,51.31,68.18,51.1,67.81Z"></path> <path class="cls-1" d="M12.53,51a29.63,29.63,0,0,1,0-21.71,12.21,12.21,0,0,1-1.08-.68,31.08,31.08,0,0,0,0,23.07A12.21,12.21,0,0,1,12.53,51Z"></path> </svg> 