<?xml version="1.0" encoding="UTF-8" standalone="no"?>
<svg width="49px" height="49px" viewBox="0 0 49 49" version="1.1" xmlns="http://www.w3.org/2000/svg" xmlns:xlink="http://www.w3.org/1999/xlink">
    <!-- Generator: Sketch 40.2 (33826) - http://www.bohemiancoding.com/sketch -->
    <title>Group 51</title>
    <desc>Created with Sketch.</desc>
    <defs></defs>
    <g id="Welcome" stroke="none" stroke-width="1" fill="none" fill-rule="evenodd">
        <g id="Group-51">
            <rect id="Rectangle-2-Copy" fill="#FFFFFF" x="0" y="0" width="49" height="49" rx="24.5"></rect>
            <path d="M13.2187658,16 C13.0122428,16.067754 12.8642358,16.282897 12.8750158,16.5 L12.8750158,23.7500002 L11.9375158,23.7500002 L11.9375158,22.8125002 C11.9625118,22.5065422 11.6456178,22.2228852 11.3437658,22.2812502 L8.43751586,22.7812502 C8.19702747,22.8112552 7.99795427,23.0391752 8.00001587,23.2812502 L8.00001587,25.2187503 C7.99798047,25.4608253 8.19702747,25.6883573 8.43751586,25.7187503 L11.3437658,26.1875003 C11.6247858,26.2407353 11.9248678,26.0041883 11.9375158,25.7187503 L11.9375158,24.7500003 L12.8750158,24.7500003 L12.8750158,30.5312504 L11.4375158,30.5312504 L11.3437658,30.5312504 C11.1032778,30.5622234 10.9042038,30.7891755 10.9062658,31.0312505 C10.9062658,32.4040435 12.1824698,33.4375005 13.6250158,33.4375005 L36.3750154,33.4375005 C37.8175613,33.4375005 39.0937653,32.4040435 39.0937653,31.0312505 C39.0944423,30.7589764 38.8347073,30.5145054 38.5625153,30.5312504 L37.1250154,30.5312504 L37.1250154,27.6562504 L39.5312653,27.6562504 C39.8034583,27.6727054 40.0631923,27.4285243 40.0625153,27.1562503 L40.0625153,21.3437502 C40.0631923,21.0713792 39.8034583,20.8270051 39.5312653,20.8437501 L37.1250154,20.8437501 L37.1250154,16.5 C37.1249894,16.238179 36.8868064,16 36.6250154,16 L13.3750158,16 L13.2812658,16 L13.2187658,16 L13.2187658,16 L13.2187658,16 Z M13.8750158,17 L36.1250154,17 L36.1250154,20.8437501 L24.0312656,20.8437501 L23.9375156,20.8437501 C23.7768016,20.8689161 23.6316576,20.9778772 23.5625156,21.1250002 C23.5621896,21.1356472 23.5621896,21.1456032 23.5625156,21.1562502 C23.5506526,21.1765762 23.5402016,21.1974562 23.5312656,21.2187502 C23.5309396,21.2293972 23.5309396,21.2383682 23.5312656,21.2480472 C23.5283576,21.2790202 23.5283576,21.3127772 23.5312656,21.3437502 L23.5312656,21.8125002 L22.0937656,21.8125002 L22.0000156,21.8125002 C21.7595286,21.8425052 21.5604536,22.0704252 21.5625156,22.3125002 L21.5625156,23.7500002 L13.8750158,23.7500002 L13.8750158,17 L13.8750158,17 L13.8750158,17 Z M24.5312656,21.8437502 L39.0312653,21.8437502 L39.0312653,22.7812502 L24.5312656,22.7812502 L24.5312656,22.3125002 C24.5395036,22.2612012 24.5395036,22.2079372 24.5312656,22.1562502 L24.5312656,21.8437502 L24.5312656,21.8437502 L24.5312656,21.8437502 Z M22.5937656,22.8125002 L23.5312656,22.8125002 L23.5312656,23.7812502 L23.5312656,25.6875003 L22.5937656,25.6875003 L22.5937656,22.8125002 L22.5937656,22.8125002 L22.5937656,22.8125002 Z M10.9062658,23.3750002 L10.9062658,25.0937503 L9.03126585,24.7812503 L9.03126585,23.7187502 L10.9062658,23.3750002 L10.9062658,23.3750002 L10.9062658,23.3750002 Z M24.5312656,23.7812502 L39.0312653,23.7812502 L39.0312653,24.7187503 L24.5312656,24.7187503 L24.5312656,23.7812502 L24.5312656,23.7812502 L24.5312656,23.7812502 Z M13.8750158,24.7500003 L21.5625156,24.7500003 L21.5625156,26.1875003 C21.5618386,26.4598713 21.8215736,26.7042453 22.0937656,26.6875003 L23.5312656,26.6875003 L23.5312656,27.1562503 C23.5312656,27.6188164 24.0312656,27.6562504 24.0312656,27.6562504 L36.1250154,27.6562504 L36.1250154,30.5312504 L13.8750158,30.5312504 L13.8750158,24.7500003 L13.8750158,24.7500003 L13.8750158,24.7500003 Z M24.5312656,25.7187503 L39.0312653,25.7187503 L39.0312653,26.6562503 L24.5312656,26.6562503 L24.5312656,26.3125003 C24.5364996,26.2708803 24.5364996,26.2293143 24.5312656,26.1875003 L24.5312656,25.7187503 L24.5312656,25.7187503 L24.5312656,25.7187503 Z M12.1562658,31.5000005 L13.2500158,31.5000005 C13.2901028,31.5154875 13.3322348,31.5264105 13.3750158,31.5312505 L36.6250154,31.5312505 C36.6783234,31.5312505 36.7312934,31.5183905 36.7812654,31.5000005 L37.8437653,31.5000005 C37.6048783,32.0220935 37.1060794,32.4375005 36.3750154,32.4375005 L13.6250158,32.4375005 C12.8939518,32.4375005 12.3951538,32.0220935 12.1562658,31.5000005 L12.1562658,31.5000005 L12.1562658,31.5000005 Z" id="Shape" fill="#222222"></path>
        </g>
    </g>
</svg>