<?xml version="1.0" encoding="UTF-8"?> <svg xmlns="http://www.w3.org/2000/svg" width="280" height="8" viewBox="0 0 280 8" fill="none"> <mask id="mask0" maskUnits="userSpaceOnUse" x="0" y="0" width="280" height="8"> <rect width="280" height="8" rx="4" fill="#C4C4C4"></rect> </mask> <g mask="url(#mask0)"> <rect width="287" height="107" rx="8" transform="matrix(-1 0 0 1 283 -20)" fill="url(#paint0_linear)"></rect> <mask id="mask1" maskUnits="userSpaceOnUse" x="-4" y="-20" width="287" height="107"> <rect width="287" height="107" rx="8" transform="matrix(-1 0 0 1 283 -20)" fill="white"></rect> </mask> <g mask="url(#mask1)"> <path d="M230 -42L180 35.4453" stroke="#FFCE6E" stroke-width="2"></path> <path d="M74.1905 -36V62.906" stroke="#FFCE6E" stroke-width="20"></path> <path d="M258.5 -84.2861V10.8876" stroke="white" stroke-width="20"></path> <path d="M201.381 -29.2344V68.672" stroke="#FF7965" stroke-width="5" stroke-linecap="round"></path> <path d="M230.381 -5V8.99614" stroke="#FFCE6E" stroke-width="20" stroke-linecap="round"></path> <path d="M172.381 13V51.2561" stroke="#222437" stroke-width="33" stroke-linecap="round"></path> <path d="M120.97 -9.66498L42 78.5221" stroke="#222437" stroke-width="41"></path> <path d="M141.017 -12.543C141.017 -12.543 115.521 15.9028 64.5297 72.7943" stroke="#FF7965" stroke-width="25"></path> <path d="M156.371 -14.5909C156.371 -14.5909 130.875 13.8549 79.8834 70.7465" stroke="#F6F6F6" stroke-width="18"></path> </g> </g> <defs> <linearGradient id="paint0_linear" x1="493.389" y1="105.362" x2="434.568" y2="-146.371" gradientUnits="userSpaceOnUse"> <stop stop-color="white"></stop> <stop offset="1" stop-color="white"></stop> </linearGradient> </defs> </svg> 