<?xml version="1.0" encoding="UTF-8" standalone="no"?>
<svg width="49px" height="49px" viewBox="0 0 49 49" version="1.1" xmlns="http://www.w3.org/2000/svg" xmlns:xlink="http://www.w3.org/1999/xlink">
    <!-- Generator: Sketch 40.2 (33826) - http://www.bohemiancoding.com/sketch -->
    <title>Group 48</title>
    <desc>Created with Sketch.</desc>
    <defs></defs>
    <g id="Welcome" stroke="none" stroke-width="1" fill="none" fill-rule="evenodd">
        <g id="Group-48">
            <rect id="Rectangle-2-Copy-3" fill="#FFFFFF" x="0" y="0" width="49" height="49" rx="24.5"></rect>
            <path d="M24.7224514,11 L24.2763951,11.0551789 L23.7372647,11.1281575 L23.6986297,11.1370574 L23.3526726,11.2153758 L22.9136412,11.3132738 L23.1085714,12.2032564 L23.5476027,12.1053583 L23.8935599,12.0270399 L23.8953159,12.0270399 L24.3940562,11.9629611 L24.8401115,11.9024423 L24.7224514,11 L24.7224514,11 L24.7224514,11 Z M25.7831512,11.0498391 L25.591734,11.9416015 L26.0307653,12.0377196 L26.4891146,12.1409576 L26.4996506,12.1409576 L26.8614129,12.2566553 L27.2916641,12.3919327 L27.5585953,11.5215298 L27.128344,11.3862525 L26.7279477,11.2598749 L26.6910687,11.2509751 L26.2221834,11.1459572 L25.7831512,11.0498391 L25.7831512,11.0498391 L25.7831512,11.0498391 Z M21.9723576,11.6995263 L21.5719613,11.9077822 L21.5315703,11.9309217 L21.4982033,11.9469415 L21.036342,12.2388556 L21.006488,12.2619952 L20.7588748,12.4488915 L20.3988686,12.7212262 L20.936243,13.4510115 L21.2962492,13.178677 L21.5333263,13.0006809 L21.5438633,12.9900009 L21.9530406,12.7336859 L21.9828946,12.7176663 L22.3832909,12.5094103 L21.9723576,11.6995263 L21.9723576,11.6995263 L21.9723576,11.6995263 Z M28.506903,11.9914406 L28.506903,11.9932205 L27.9730406,12.7247861 L28.3330468,12.9953404 L28.7316871,13.2943746 L29.0073993,13.5400104 L29.3445755,13.8408244 L29.9381459,13.155538 L29.6009697,12.854724 L29.3112094,12.5966287 L29.2813545,12.5734891 L28.8686652,12.2637752 L28.506903,11.9914406 L28.506903,11.9914406 L28.506903,11.9914406 Z M24.9366986,12.8173443 C22.1533107,12.8173443 19.8860802,15.1111696 19.8860802,17.9294038 C19.8860802,19.4785031 20.6522929,20.5810393 21.3348842,21.6851302 C21.6937053,22.2655639 22.0340006,22.8536439 22.2796798,23.5309533 L22.0548957,23.4188154 L22.0443587,23.4099161 L21.7739155,23.244379 L21.3893242,23.0094241 L20.92395,23.7926087 L21.3102982,24.0275636 L21.5912783,24.2002201 L21.6246444,24.2180205 L22.1374337,24.4725547 L22.5413429,24.6736915 L22.562416,24.6291916 C22.6133521,24.948617 22.6467101,25.2843554 22.6467101,25.6544514 L22.6467101,27.8972077 C22.6467349,28.1488575 22.8479989,28.3528536 23.0962784,28.3528788 L24.4871303,28.3528788 L24.4871303,31.4108588 C23.6106861,30.1965867 22.205145,29.4095826 20.6306777,29.4083979 L20.6289217,29.4083979 C20.0631993,29.4083979 19.5029958,29.5142384 18.9728946,29.7145523 L18.6427424,29.8391492 L18.6831334,30.1933623 C18.9575688,32.6422296 21.0070805,34.4991465 23.4387235,34.5008781 L23.4404795,34.5008781 C23.7940506,34.5008781 24.1433517,34.4452516 24.4871303,34.3656003 L24.4871303,40.186086 L25.3862669,40.186086 L25.3862669,36.4499389 C25.7437474,36.5374287 26.1075471,36.5964007 26.4768216,36.5976766 L26.4785776,36.5976766 C28.8874607,36.5976766 30.9202638,34.7570928 31.1920198,32.3311002 L31.2306548,31.976887 L30.9022595,31.8522902 C30.3771251,31.653891 29.8206953,31.5516093 29.2602814,31.5496954 L29.2585254,31.5496954 C27.6646287,31.5496954 26.2491269,32.3676969 25.3862669,33.6162356 L25.3862669,28.3528788 L26.7771188,28.3528788 C27.0253982,28.3528536 27.2266622,28.1488575 27.2266871,27.8972077 L27.2266871,25.6544514 C27.2266871,25.3100552 27.2560268,24.9969354 27.3004442,24.6968305 L27.7605495,24.4618756 L28.0116756,24.3354979 L28.4155849,24.134362 L28.0151876,23.3173575 L27.6130353,23.5184934 L27.5937174,23.5273936 C27.839321,22.8514512 28.1802457,22.2645615 28.538513,21.6851302 C29.2211033,20.5810393 29.9873179,19.4785031 29.9873179,17.9294038 C29.9873179,15.1111696 27.7200883,12.8173443 24.9366986,12.8173443 L24.9366986,12.8173443 L24.9366986,12.8173443 Z M19.6911501,13.4510115 L19.6911501,13.4527922 L19.4084139,13.8105651 L19.3662668,13.8657432 L19.3434369,13.8942227 L19.0378707,14.3534543 L19.0167976,14.3872733 L18.8780635,14.6382487 L18.6603034,15.0369609 L19.4452919,15.480172 L19.663052,15.0832397 L19.7824682,14.8643044 L19.7859811,14.8554042 L20.0669613,14.4335522 L20.0722293,14.4246529 L20.1091074,14.3765933 L20.3900876,14.022381 L19.6911501,13.4510115 L19.6911501,13.4510115 L19.6911501,13.4510115 Z M24.9366986,13.7286865 C27.2347551,13.7286865 29.0881804,15.6042968 29.0881813,17.9294038 C29.0881813,19.1743882 28.4738795,20.0727382 27.7763545,21.2009797 C27.1412628,22.2282445 26.5266553,23.4984895 26.4100885,25.1987804 L25.3862669,25.1987804 L25.3862669,22.0891819 C25.3885612,21.9248496 25.3033793,21.7719954 25.1633393,21.6891506 C25.0232993,21.6063059 24.8500979,21.6063059 24.7100579,21.6891506 C24.5700179,21.7719954 24.484836,21.9248496 24.4871303,22.0891819 L24.4871303,25.1987804 L23.4633086,25.1987804 C23.3467427,23.4984895 22.7321352,22.2282445 22.0970427,21.2009797 C21.3995177,20.0727382 20.7852168,19.1743882 20.7852168,17.9294038 C20.7852168,15.6042968 22.6386439,13.7286865 24.9366986,13.7286865 L24.9366986,13.7286865 L24.9366986,13.7286865 Z M30.6247913,13.9725416 L29.8398028,14.4175326 L30.061075,14.8144649 L30.3122011,15.2630165 L30.3174692,15.2772562 L30.4579592,15.5905301 L30.6441084,16.0052618 L31.4624639,15.6279088 L31.2763138,15.213177 L31.1305557,14.8874433 L31.1129946,14.8518445 L30.8443075,14.3694739 L30.6247913,13.9725416 L30.6247913,13.9725416 L30.6247913,13.9725416 Z M18.3002981,15.9999213 L18.3002981,16.0017012 L18.1896621,16.4431334 L18.1510271,16.5962097 L18.144003,16.6353692 L18.050928,17.204958 L18.047416,17.2441174 L18.033367,17.4185538 L18,17.8742248 L18.8973806,17.9418637 L18.9307475,17.4879725 L18.9395276,17.3509149 L18.9412836,17.3420156 L19.0290906,16.793786 L19.0308466,16.7795462 L19.0607007,16.6656285 L19.1713367,16.2241972 L18.3002981,15.9999213 L18.3002981,15.9999213 L18.3002981,15.9999213 Z M31.727639,16.6211295 L30.8407945,16.7724268 L30.9145525,17.2209775 L30.9286015,17.3028562 L30.9707485,17.8528648 L30.9689925,18.0468813 L30.9654796,18.5025523 L31.8646162,18.5132324 L31.8681291,18.0575613 L31.8698851,17.8243853 L31.8681291,17.7834469 L31.8242252,17.2174178 L31.8189571,17.1782584 L31.8013961,17.0714609 L31.727639,16.6211295 L31.727639,16.6211295 L31.727639,16.6211295 Z M18.9289906,18.7357274 L18.04566,18.9012645 L18.1264411,19.3498161 L18.1703441,19.5936712 L18.1791251,19.6310499 L18.3231272,20.16326 L18.3354202,20.2006387 L18.3722992,20.3038774 L18.5268383,20.7328488 L19.3715349,20.419575 L19.2169958,19.9906035 L19.1836297,19.8980449 L19.1801168,19.8873649 L19.0519197,19.4138944 L19.0115287,19.184279 L18.9289906,18.7357274 L18.9289906,18.7357274 L18.9289906,18.7357274 Z M30.8513315,19.2964169 L30.7336714,19.7342886 L30.6915244,19.8944852 L30.6897684,19.9033844 L30.5246923,20.3643959 L30.4526912,20.5210329 L30.2647851,20.9339847 L31.0813846,21.3148975 L31.2692898,20.9019456 L31.3483149,20.7310689 L31.3623648,20.6954692 L31.5467579,20.1774997 L31.5590509,20.1419 L31.602954,19.9745839 L31.7188581,19.5349325 L30.8513315,19.2964169 L30.8513315,19.2964169 L30.8513315,19.2964169 Z M19.7157352,21.1369005 L18.9746506,21.6530901 L19.2292888,22.0286633 L19.3785589,22.2493785 L19.4013889,22.2796378 L19.7473461,22.7068294 L19.7719312,22.733529 L19.8351522,22.799388 L20.1477424,23.1269016 L20.7939968,22.4914537 L20.4796506,22.1639402 L20.4287226,22.1105419 L20.4181856,22.0998619 L20.1108643,21.7189492 L19.9703742,21.5106929 L19.7157352,21.1369005 L19.7157352,21.1369005 L19.7157352,21.1369005 Z M29.8503398,21.610371 L29.5658476,21.9628043 L29.4587236,22.0963013 L29.1022303,22.4718745 L29.0916933,22.4825545 L28.9986183,22.566213 L28.6596861,22.8634663 L29.2515005,23.5505335 L29.5904327,23.2497195 L29.7116057,23.1411413 L29.7397038,23.1162216 L30.119027,22.7175094 L30.145369,22.6872501 L30.2647851,22.5395134 L30.5475222,22.1853002 L29.8503398,21.610371 L29.8503398,21.610371 L29.8503398,21.610371 Z M23.5458467,26.1101224 L24.8646975,26.1101224 C24.9129602,26.1181579 24.962193,26.1181579 25.0104557,26.1101224 L26.3275505,26.1101224 L26.3275505,27.4415367 L23.5458467,27.4415367 L23.5458467,26.1101224 L23.5458467,26.1101224 L23.5458467,26.1101224 Z M20.6306777,30.31974 L20.6324337,30.31974 C22.4701025,30.31974 23.9783323,31.6372098 24.3729822,33.4168795 C24.0651799,33.4961653 23.7591039,33.5883512 23.4404795,33.589536 C21.602059,33.589536 20.0912254,32.2726121 19.6964181,30.4923965 C20.0043148,30.4131097 20.3119454,30.3210159 20.6306777,30.31974 L20.6306777,30.31974 L20.6306777,30.31974 Z M29.2567694,32.4610375 L29.2585254,32.4610375 C29.5719123,32.4610375 29.8741517,32.5525791 30.1769791,32.6301343 C29.7851695,34.3868373 28.2951842,35.6841473 26.4803336,35.6863345 C26.1662868,35.6863345 25.863578,35.5949752 25.560123,35.5172377 C25.9519335,33.7605347 27.4419188,32.4632247 29.2567694,32.4610375 L29.2567694,32.4610375 L29.2567694,32.4610375 Z" id="Shape" fill="#222222"></path>
        </g>
    </g>
</svg>