<?xml version="1.0" encoding="UTF-8"?> <svg xmlns="http://www.w3.org/2000/svg" width="1014" height="1069" viewBox="0 0 1014 1069" fill="none"> <path d="M320.531 467.629L297.219 773.021L112.308 773.021L134.031 331.672L320.531 331.672L320.531 467.629Z" fill="#040823"></path> <path d="M336.176 179.208C335.944 216.014 318.258 239.888 283.116 250.832C247.974 261.776 230.288 285.651 230.056 322.456" stroke="#3E50CB" stroke-width="32" stroke-linecap="square"></path> <path d="M321.061 621.165L17 833.001L1001 672L1001 621.166L544.119 621.166L321.061 621.165Z" fill="#FEA88D"></path> <path d="M74.6653 166.64L74.6653 221.55L341.575 221.55L341.575 163.515C341.575 88.5162 279.741 27.3562 204.561 29.5883C131.606 31.8204 74.6653 93.4268 74.6653 166.64Z" fill="#3E50CB"></path> <path d="M205.221 351.808C205.221 363.406 214.623 372.808 226.221 372.808C237.819 372.808 247.221 363.406 247.221 351.808L205.221 351.808ZM205.221 208.752L205.221 351.808L247.221 351.808L247.221 208.752L205.221 208.752Z" fill="#E9EBFA"></path> <path d="M220.3 269.556C274.386 269.556 318.231 225.281 318.231 170.665C318.231 116.049 274.386 71.7744 220.3 71.7744V269.556Z" fill="#D6DAFF"></path> <path d="M148.292 112.774C148.292 90.1308 166.649 71.7744 189.292 71.7744H220.3V269.556V269.556C180.531 269.556 148.292 237.317 148.292 197.548V112.774Z" fill="#D6DAFF"></path> <path d="M223.372 173.327C223.372 164.16 215.115 156.729 204.93 156.729C194.745 156.729 186.488 164.16 186.488 173.327" stroke="black" stroke-width="8"></path> <line x1="204.207" y1="157.16" x2="204.207" y2="145.173" stroke="black" stroke-width="8"></line> <line x1="218.298" y1="161.32" x2="227.011" y2="152.608" stroke="black" stroke-width="8"></line> <line y1="-4" x2="12.3217" y2="-4" transform="matrix(-0.707107 -0.707107 -0.707107 0.707107 188.159 164.149)" stroke="black" stroke-width="8"></line> <path d="M311.863 173.327C311.863 164.16 303.606 156.729 293.421 156.729C283.236 156.729 274.979 164.16 274.979 173.327" stroke="black" stroke-width="8"></path> <line x1="294.278" y1="157.16" x2="294.278" y2="145.173" stroke="black" stroke-width="8"></line> <line x1="306.789" y1="161.32" x2="315.502" y2="152.608" stroke="black" stroke-width="8"></line> <line y1="-4" x2="12.3217" y2="-4" transform="matrix(-0.707107 -0.707107 -0.707107 0.707107 276.65 164.149)" stroke="black" stroke-width="8"></line> <path d="M262.414 188.536C255.898 195.052 245.446 195.165 239.069 188.788" stroke="white" stroke-width="8" stroke-linecap="round"></path> <path d="M222.361 106.285L208.789 102.648L169.904 92.2289L158.856 89.2688C122.332 79.4823 101.242 39.4603 111.815 0.000605158L189.181 20.7303L227.955 31.1198L242.3 34.9635C260.837 39.9307 271.515 60.552 265.564 80.5513C259.774 99.9545 240.458 111.134 222.361 106.285Z" fill="url(#paint0_linear)"></path> <path d="M127.798 425.028L120.451 469.466L54.0103 844.755C49.5571 869.908 25.8325 886.903 0.583728 883.025L75.108 462.045L89.8306 372.998C114.838 377.133 131.86 400.46 127.798 425.028Z" fill="#FFEDEB"></path> <path d="M366.208 418.034L366.207 486.474L366.207 573.427C366.207 598.889 345.721 619.611 320.261 619.903L320.261 486.55L320.263 372.895C345.609 372.895 366.208 393.132 366.208 418.034Z" fill="#FFEDEB"></path> <path d="M365.672 574.334L410.712 574.335L497.665 574.335C523.127 574.335 543.849 594.821 544.141 620.281L410.788 620.281L320.532 620.28C320.532 594.934 340.77 574.334 365.672 574.334Z" fill="#FDE3E1"></path> <path d="M162.258 144.276C161.211 171.207 147.959 189.096 122.501 197.942C97.0433 206.789 83.7912 224.677 82.745 251.608" stroke="#4C75F2" stroke-width="30" stroke-linecap="square"></path> <path d="M371.95 371.672C371.95 349.581 354.041 331.672 331.95 331.672L289.381 331.672L289.381 429.603L371.95 429.603L371.95 371.672Z" fill="#040823"></path> <path d="M83.5742 364.959C86.8472 345.735 103.506 331.672 123.007 331.672L171.81 331.672L171.81 429.603L72.5681 429.603L83.5742 364.959Z" fill="#040823"></path> <defs> <linearGradient id="paint0_linear" x1="158.461" y1="99.3553" x2="241.571" y2="35.6966" gradientUnits="userSpaceOnUse"> <stop stop-color="#FF7965" stop-opacity="0.15"></stop> <stop offset="1" stop-color="#3E50CB"></stop> </linearGradient> </defs> </svg> 