<?xml version="1.0" encoding="UTF-8"?> <svg xmlns="http://www.w3.org/2000/svg" width="481" height="147" viewBox="0 0 481 147" fill="none"> <path fill-rule="evenodd" clip-rule="evenodd" d="M366.8 16C366.8 24.6 359.6 31.8 350.8 31.8C342.2 31.8 335 24.6 335 16C335 7.4 342.2 0 350.8 0C359.6 0 366.8 7.4 366.8 16ZM59.4 143.8C83.6 143.8 103 127.2 103 103.2C103 88.6 95.8 77.6 84.6 71.2C92.8 64.6 97.8 55.2 97.8 43.2C97.8 19.8 78.8 3.8 55.2 3.8H0V143.8H59.4ZM55.2 60.4H27.6V29.6H55.2C64 29.6 70.2 36.2 70.2 45C70.2 53.8 63.8 60.4 55.2 60.4ZM27.6 118H59.4C68.8 118 75.6 111 75.6 101.4C75.6 92 68.8 85 59.4 85H27.6V118ZM163.2 146.6C177.8 146.6 188.6 141 195.8 132V143.8H221.6V43.8H195.8V55.6C188.6 46.6 177.8 41 163.2 41C136.6 41 114.6 64 114.6 93.8C114.6 123.6 136.6 146.6 163.2 146.6ZM140.4 93.8C140.4 110.6 152.2 122 168 122C184 122 195.8 110.6 195.8 93.8C195.8 77 184 65.6 168 65.6C152.2 65.6 140.4 77 140.4 93.8ZM280.2 146.6C301.6 146.6 320.4 136.2 320.4 114.6C320.4 92.0809 301.078 86.787 286.081 82.6782C276.571 80.0725 268.8 77.9434 268.8 72.2C268.8 66.8 274 64 280.4 64C287.8 64 293.4 67.8 296.4 74.2L318.4 62.2C310.6 48.4 296.6 41 280.4 41C259.8 41 242.4 52.4 242.4 72.8C242.4 94.2108 261.491 99.6384 276.449 103.891C286.082 106.629 294 108.881 294 114.6C294 120.4 288.4 123.2 280.2 123.2C270.2 123.2 263.4 118.4 260.6 110.2L238.2 122.8C245.4 138.2 260.2 146.6 280.2 146.6ZM363.8 43.8H338V143.8H363.8V43.8ZM480.2 120.6C471.6 136.2 454.6 146.6 435 146.6C404.6 146.6 382.2 123.6 382.2 93.8C382.2 64 404.6 41 435 41C454.6 41 471.6 51.4 479.8 66.8L457.6 79.8C453.6 71.6 445 66.4 434.8 66.4C419.4 66.4 408 77.8 408 93.8C408 109.6 419.4 121 434.8 121C445.2 121 453.8 116 457.8 107.8L480.2 120.6Z" fill="#66CC66"></path> </svg> 