<?xml version="1.0" encoding="UTF-8"?> <svg xmlns="http://www.w3.org/2000/svg" xmlns:xlink="http://www.w3.org/1999/xlink" width="55px" height="55px" viewBox="0 0 55 55"> <!-- Generator: Sketch 63.1 (92452) - https://sketch.com --> <title>Group 3</title> <desc>Created with Sketch.</desc> <defs> <polygon id="path-1" points="0 0 55 0 55 55 0 55"></polygon> </defs> <g id="Page-1" stroke="none" stroke-width="1" fill="none" fill-rule="evenodd"> <g id="Group-3"> <mask id="mask-2" fill="white"> <use xlink:href="#path-1"></use> </mask> <g id="Clip-2"></g> <path d="M43.2877925,34.2487628 L34.1212401,43.4153152 C32.4031114,45.0689969 30.0686229,46.088493 27.5003428,46.088493 C24.8683013,46.088493 22.4817068,45.0162052 20.7526084,43.2871069 L25.2090475,38.8313534 C25.7952406,39.4182321 26.6063126,39.7822889 27.5003428,39.7822889 C28.3950587,39.7822889 29.205445,39.4182321 29.7916381,38.8313534 L38.8313534,29.7930093 C39.4168609,29.205445 39.7829745,28.3957443 39.7829745,27.5003428 C39.7829745,26.6042557 39.4189177,25.7952406 38.8313534,25.2083619 C38.2458459,24.6221688 37.4347739,24.2574264 36.5393725,24.2574264 C35.6453422,24.2574264 34.8342703,24.6221688 34.2473916,25.2083619 L25.2090475,34.2487628 C23.4806347,35.9764899 21.0933546,37.0487778 18.4606275,37.0487778 C15.828586,37.0487778 13.4419915,35.9764899 11.7128931,34.2487628 C9.98379477,32.5189788 8.91219257,30.1337555 8.91219257,27.5003428 C8.91219257,24.8676157 9.98379477,22.4817068 11.7128931,20.753294 L20.7526084,11.7135787 C22.4817068,9.98516598 24.8683013,8.91219257 27.5003428,8.91219257 C30.1323843,8.91219257 32.5189788,9.98516598 34.2473916,11.7135787 L29.7916381,16.1700178 C29.205445,15.5838247 28.3950587,15.2183967 27.5003428,15.2183967 C26.605627,15.2183967 25.7952406,15.5838247 25.2090475,16.1700178 L16.1693322,25.2083619 C15.5824535,25.7952406 15.2190823,26.605627 15.2190823,27.5003428 C15.2190823,28.3964299 15.5817679,29.205445 16.1693322,29.7930093 C16.756211,30.3778312 17.5665973,30.7432592 18.4606275,30.7432592 C19.3553434,30.7432592 20.1657297,30.3778312 20.7526084,29.7930093 L29.7916381,20.753294 C31.5214221,19.0241957 33.907331,17.9519079 36.5393725,17.9519079 C39.1720996,17.9519079 41.5586941,19.0241957 43.2877925,20.753294 C45.0168908,22.4817068 46.088493,24.8676157 46.088493,27.5003428 C46.088493,30.1337555 45.0168908,32.5189788 43.2877925,34.2487628 M49.5891973,14.4505179 L40.5501677,5.41148826 C37.0590618,1.92175366 32.4257364,0 27.5003428,0 C22.5756348,0 17.9416238,1.92175366 14.4505179,5.41148826 L5.41217387,14.4498323 C1.92243926,17.9381957 0,22.573578 0,27.5003428 C0,32.4271076 1.92243926,37.0624899 5.41148826,40.5494821 L14.4512036,49.5912542 C17.9416238,53.0796176 22.5756348,55 27.5003428,55 C32.2968425,55 36.8430959,53.1653183 40.3026639,49.8346443 L40.3204896,49.8175041 L40.3362586,49.8010496 L49.5871405,40.5501677 C53.0775607,37.0624899 55,32.4271076 55,27.5003428 C55,22.573578 53.0782463,17.9381957 49.5891973,14.4505179" id="Fill-1" fill="#222437" mask="url(#mask-2)"></path> </g> </g> </svg> 