<?xml version="1.0" encoding="UTF-8"?> <svg xmlns="http://www.w3.org/2000/svg" width="289" height="143" viewBox="0 0 289 143" fill="none"> <path fill-rule="evenodd" clip-rule="evenodd" d="M27.6 140V94H52.2C79.2 94 100 73.2 100 47C100 20.8 79.2 0 52.2 0H0V140H27.6ZM52.2 68.2H27.6V25.8H52.2C64 25.8 72.6 34.8 72.6 47C72.6 59 64 68.2 52.2 68.2ZM142.6 92.2V140H116.8V40H142.6V57.2C147.8 43.6 160.4 38 173 38V66.8C159.6 65.2 142.6 71.2 142.6 92.2ZM235.6 142.8C265 142.8 288.6 119.8 288.6 90C288.6 60.2 265 37.2 235.6 37.2C206.2 37.2 182.8 60.2 182.8 90C182.8 119.8 206.2 142.8 235.6 142.8ZM208.6 90C208.6 106.2 220.4 117.6 235.6 117.6C251 117.6 262.8 106.2 262.8 90C262.8 73.8 251 62.4 235.6 62.4C220.4 62.4 208.6 73.8 208.6 90Z" fill="#222437"></path> </svg> 