<?xml version="1.0" encoding="UTF-8"?> <svg xmlns="http://www.w3.org/2000/svg" width="3444" height="959" viewBox="0 0 3444 959" fill="none"> <path d="M0.00173216 170.256L0.00173514 238.44L0.00172923 433.785L-1.45386e-05 489.29C-6.51813e-06 672.777 149.641 821.894 333.772 821.894L333.774 433.23L333.774 238.44L333.774 166.375C333.774 73.2464 256.45 -2.6981 162.438 0.0736011C71.2065 2.84531 0.00172819 79.3442 0.00173216 170.256Z" fill="url(#paint0_linear)"></path> <path d="M2351.61 628.093H731L1486.52 958.5H3443.02L2351.61 628.093Z" fill="#9CA6E6"></path> <path d="M579.163 534.296L478.571 459.16L424.568 459.16L586.434 627.914L612.807 627.913H723.482L870.051 627.913C870.051 576.267 828 534.296 776.258 534.296L723.639 534.296L579.163 534.296Z" fill="#FEA88D"></path> <path fill-rule="evenodd" clip-rule="evenodd" d="M344.719 147.876L176.027 147.876V147.876C176.027 180.002 202.07 206.046 234.197 206.046L344.719 206.046C360.782 206.046 373.804 193.024 373.804 176.961C373.804 160.898 360.782 147.876 344.719 147.876Z" fill="white"></path> <path d="M364.056 430.329C364.056 446.898 350.624 460.329 334.056 460.329C317.487 460.329 304.056 446.898 304.056 430.329L364.056 430.329ZM364.056 292.661L364.056 430.329L304.056 430.329L304.056 292.661L364.056 292.661Z" fill="#FFDDD2"></path> <path fill-rule="evenodd" clip-rule="evenodd" d="M357.323 289.311L219.654 289.311V289.311C219.654 321.437 245.698 347.48 277.824 347.48L357.323 347.48C373.386 347.48 386.407 334.459 386.407 318.396C386.407 302.333 373.386 289.311 357.323 289.311Z" fill="white"></path> <rect width="220.516" height="177.399" transform="matrix(-1 0 0 1 440.106 402.649)" fill="white"></rect> <path fill-rule="evenodd" clip-rule="evenodd" d="M340.236 247.095L171.544 247.095V247.095C171.544 279.221 197.587 305.265 229.714 305.265L340.236 305.265C356.299 305.265 369.321 292.243 369.321 276.18C369.321 260.117 356.299 247.095 340.236 247.095Z" fill="white"></path> <path opacity="0.95" fill-rule="evenodd" clip-rule="evenodd" d="M326.685 192.803L157.993 192.803V192.803C157.993 224.93 184.037 250.973 216.163 250.973L326.685 250.973C342.748 250.973 355.77 237.951 355.77 221.888C355.77 205.825 342.748 192.803 326.685 192.803Z" fill="white"></path> <path d="M212.293 569.134L190.571 473.154L158.29 473.154L158.29 662.752L212.293 662.752L322.969 662.752L510.504 662.752C510.504 611.106 468.454 569.134 416.712 569.134L323.125 569.134L212.293 569.134Z" fill="#FEA88D"></path> <path d="M335.025 147.237C394.994 147.237 443.609 195.851 443.609 255.82C443.609 315.789 394.994 364.404 335.025 364.404L335.025 147.237Z" fill="#FEA88D"></path> <path d="M400.95 239.339C400.95 229.701 393.137 221.888 383.499 221.888C373.861 221.888 366.048 229.701 366.048 239.339L400.95 239.339Z" fill="#F2C94C"></path> <path d="M361.77 181.17H372.869L404.668 181.17L413.703 181.17C443.572 181.17 467.846 155.091 467.846 123.001L404.578 123L372.869 123H361.138C345.979 123 333.616 136.476 334.067 152.86C334.519 168.76 346.971 181.17 361.77 181.17Z" fill="url(#paint1_linear)"></path> <path d="M241.765 402.649H157.993V525.842H181.765C214.902 525.842 241.765 498.979 241.765 465.842V402.649Z" fill="#F3F4F6"></path> <path d="M463.087 528.788L514.502 477.372L439.779 402.649L430.79 411.638C407.358 435.069 407.358 473.059 430.79 496.491L463.087 528.788Z" fill="white"></path> <path d="M397.698 209.236V209.236C397.698 214.59 393.358 218.931 388.003 218.931L366.19 218.931" stroke="#3E50CB" stroke-width="6"></path> <defs> <linearGradient id="paint0_linear" x1="-44.3746" y1="478.474" x2="349.824" y2="197.013" gradientUnits="userSpaceOnUse"> <stop stop-color="#3E50CB" stop-opacity="0.42"></stop> <stop offset="1" stop-color="#FEA88D"></stop> </linearGradient> <linearGradient id="paint1_linear" x1="400.951" y1="181.17" x2="400.951" y2="123" gradientUnits="userSpaceOnUse"> <stop stop-color="#6C7BDF"></stop> <stop offset="1" stop-color="#3E50CB"></stop> </linearGradient> </defs> </svg> 