<?xml version="1.0" encoding="UTF-8"?> <svg xmlns="http://www.w3.org/2000/svg" width="112" height="64" viewBox="0 0 112 64" fill="none"> <path fill-rule="evenodd" clip-rule="evenodd" d="M56 50.682c-13.714.087-24.884-10.997-24.927-24.711C30.986 12.257 42.07 1.087 55.784 1 69.5.913 80.668 11.997 80.712 25.711 80.798 39.426 69.714 50.596 56 50.682z" fill="#004F9E"></path> <path fill-rule="evenodd" clip-rule="evenodd" d="M56 50.251c-13.498.043-24.453-10.825-24.539-24.28-.043-13.499 10.825-24.496 24.324-24.54 13.498-.086 24.452 10.826 24.539 24.281.043 13.499-10.825 24.496-24.324 24.54z" fill="#fff"></path> <path d="M62.857 5.313a.554.554 0 01.388.69.554.554 0 01-.69.388.554.554 0 01-.388-.69.554.554 0 01.69-.388zM56 46.672a.554.554 0 01.388.69.554.554 0 01-.69.388.554.554 0 01-.389-.69.554.554 0 01.69-.388zM35.645 15.88s.043 0 0 0h.043l.043-.044c0-.043.043-.043.043-.043l.043-.043.043-.043h.043s.044 0 .044.043l.344.216c.087.043.13.086.216.129.086.043.13.086.216.13l.604.387c.043.044.129.087.215.13.086.043.13.086.216.13.086.042.172.128.215.128h.087c.043 0 .043.044.043.044l.043.043-.043.086v.086h.043c.043 0 .043 0 .086-.043l.173-.345.905-1.423s.043-.043.043-.086l.044-.087c.043-.043.086-.086.086-.172l.043-.043.043-.043v-.043l.604-.95s.043-.042.043-.085l.043-.087c.043-.043.043-.086.086-.13.044-.042.044-.085.087-.128.043-.044.043-.044.043-.087s0-.086-.043-.086h-.044-.043l-.129.13-.043.043h-.043c-.043 0-.043 0-.087-.044-.043-.043-.129-.043-.215-.129l-.043-.043-.043-.043c-.087-.043-.13-.087-.216-.13-.086-.043-.13-.086-.216-.129l-.603-.388-.432-.259-.302-.172-.086-.087v-.043l.043-.086v-.043c0-.043-.043-.086-.043-.086h-.043-.086c-.043 0-.043.043-.043.043l-.216.345-.259.388c0 .043-.043.043-.043.086s0 .086.043.086h.087c.043 0 .043-.043.043-.043 0-.043.043-.043.043-.086h.129s.043 0 .043.043l.13.086.215.13.431.258.561.346a.937.937 0 01.216.129c.086.043.13.086.215.13.044.042.13.085.173.129.043.043.086.043.086.086l.043.043-.388 1.035c-.043-.043-.13-.086-.215-.13 0 0-.044 0-.044-.043l-.043-.043c-.086-.043-.13-.086-.215-.129-.043-.043-.13-.086-.216-.13l-.647-.344a3.954 3.954 0 01-.345-.216l-.086-.043c-.13-.086-.216-.13-.259-.173l-.086-.086v-.043l.043-.086v-.043c0-.043 0-.043-.043-.087h-.086c-.044 0-.044.043-.044.043l-.215.345-.216.345s0 .044-.043.087c0 .043 0 .086.043.086h.086l.044-.043v-.043l.043-.043.043-.043c.043 0 .043 0 .086.043l.173.086.172.13.173.129.215.129.604.388c.13.086.216.13.345.216l.043.043.043.043c.087.043.173.13.216.13 0 0 .043 0 .043.043l.043.043-.604.948h-.043c-.043 0-.086-.043-.13-.086a.327.327 0 00-.172-.086.943.943 0 00-.215-.13.944.944 0 00-.216-.129l-.517-.431c-.044-.043-.13-.086-.173-.13a1.347 1.347 0 01-.259-.172l-.215-.13c-.043-.042-.087-.042-.087-.042v.043-.043l-.086-.087v-.043l.043-.086v-.043c0-.043 0-.043-.043-.087h-.086c-.043 0-.043.044-.043.044l-.216.345-.259.388c0 .043-.043.043-.043.086s0 .086.043.086c0-.043.044-.043.044-.043zM52.68 6.606c0 .043 0 .043 0 0zm2.156-.259c0-.043 0-.043-.043-.086h-.043-.087-.086-.043l-.043-.043c-.043-.043-.086-.086-.086-.13-.043-.043-.087-.086-.13-.172-.086-.173-.172-.302-.215-.431-.087-.13-.13-.26-.216-.388-.086-.173-.216-.345-.345-.604l-.086-.13-.086-.172c-.087-.13-.13-.259-.216-.388l-.13-.087-.043-.086c0-.043-.043-.043-.043-.086s-.043-.043-.043-.043-.043-.043-.086-.043-.043 0-.043.043l-.043.043s0 .043-.044.086l-.56 2.588c0 .086-.043.13-.043.215v.044c-.043.043-.043.086-.087.086h-.172c-.043 0-.043 0-.086.043-.043 0-.043.043-.043.086s.043.086.086.086H52.29l.302-.043c.043 0 .087-.043.13-.043V6.65v-.043c0-.043-.043-.086-.043-.086h-.087-.043v-.043-.173l.173-.949.172-.992.475.863.086.172.517.906h-.043s-.043.043-.043.086.043.087.086.087h.13l.604-.087c.043 0 .086 0 .129-.043v-.043.043zm-5.951-.215a.327.327 0 00-.087-.173 1.177 1.177 0 00-.388-.517c-.172-.13-.345-.26-.517-.302-.173-.043-.302-.087-.475-.087h-.13c-.215 0-.43.087-.646.173-.345.172-.604.388-.776.69-.044.043-.044.13-.087.172-.043.044-.043.13-.043.173-.043.13-.043.302-.043.431v.13c0 .172.086.388.173.56.086.173.215.345.345.518.129.13.302.259.474.345.216.086.431.13.604.13.13 0 .215 0 .345-.044.043 0 .13-.043.215-.043.087-.043.13-.043.216-.086.216-.087.388-.216.56-.388.13-.173.26-.346.346-.561.043-.173.086-.345.086-.518 0-.129 0-.258-.043-.388-.086-.13-.086-.172-.13-.215zm-.346.862v.086a.613.613 0 01-.086.26.943.943 0 01-.13.215l-.129.13c-.043.042-.129.085-.172.129a.983.983 0 01-.474.129c-.173 0-.302-.043-.475-.086a1.348 1.348 0 01-.604-.518c-.043-.043-.043-.086-.086-.13-.043-.042-.043-.086-.086-.172a2.427 2.427 0 01-.173-.517v-.13c0-.129 0-.215.043-.302.044-.172.173-.345.346-.474.043-.043.086-.043.086-.086.043 0 .086-.043.13-.043.129-.087.301-.087.43-.087.13 0 .26.044.432.087.215.086.43.258.56.474.043.043.043.086.087.13.043.043.043.086.086.172.086.216.172.431.172.604.043.043.043.086.043.13zm-5.304 3.968c-.043-.043-.043-.043-.086-.043h-.044l-.129.086h-.043s-.043-.043-.086-.043c-.043-.043-.087-.086-.13-.173l-.043-.043-.043-.043c-.043-.043-.086-.13-.13-.173l-.172-.215-.13-.173c.044 0 .087 0 .173.043.13.044.345.044.561.087.302.043.56.086.69.086H44.011c.086 0 .13 0 .173-.043.043 0 .129-.043.172-.086h.043l.043-.043s.044 0 .044-.044c0 0 .043 0 .043-.043l.086-.086.172-.13.044-.043v-.043-.043c0-.043-.044-.043-.087-.043h-.043c-.043 0-.043 0-.086.043 0 0-.043 0-.043.043-.043 0-.043.043-.087.043-.043 0-.086.044-.172.044H44.141h-.389c-.043 0-.129 0-.258-.044h-.173c-.172 0-.302-.043-.431-.043-.13 0-.173-.043-.259-.043-.172-.043-.259-.043-.345-.043V9.54c0-.13.043-.302.086-.561 0-.13.044-.259.044-.345v-.086-.216c0-.043 0-.086.043-.13 0-.042.043-.086.043-.129.043-.043.043-.086.086-.13l.043-.042v-.043c0-.043 0-.043-.043-.043 0 0-.043-.044-.086-.044h-.043c-.044 0-.044 0-.087.044l-.302.258-.258.173-.043.043v.043c0 .043 0 .043.043.043 0 .043.043.043.086.043h.043v.216l-.043.345v.043l-.043.302-.043.302v.172l-.043-.043V9.67l-.26-.302c-.086-.13-.172-.216-.172-.259-.043-.043-.043-.086-.043-.086s0-.043.043-.043l.086-.086.044-.043v-.044-.043c0-.043-.044-.043-.087-.043h-.043l-.431.216c-.043.043-.086.086-.13.086-.043.043-.086.043-.129.086l-.043.043-.043.044c-.043 0-.043.043-.043.086v.043c0 .043 0 .043.043.043 0 .043.043.043.086.043s.043 0 .087-.043l.043-.043.043-.043h.043s.043 0 .043.043l.13.13.129.172.043.043.259.345.43.56c.087.087.173.216.26.303l.043.043.043.043c.086.086.13.172.172.215v.087c0 .043.044.043.044.086v.043l-.087.086-.043.043v.043c0 .044.043.044.087.044h.043l.301-.26.044-.042c.043-.043.086-.043.129-.086.043 0 .043-.044.086-.087s.087-.043.13-.086c.043 0 .043-.043.043-.043v-.043c.086.043.086 0 .043 0zm-9.833 12.593c0 .043.043.086.043.13 0 .042.043.042.043.085.043.13.173.216.259.302.13.087.259.13.388.13h.086c.087 0 .173 0 .26-.043.042 0 .042 0 .085-.044.043 0 .043-.043.087-.043.086-.043.172-.086.215-.172.043-.043.087-.087.13-.173a.94.94 0 00.215.13c.087.086.173.129.26.215.085.087.172.13.215.216.043.086.13.13.172.172.043.044.087.087.087.13.043.043.043.086.086.13V25.021s0 .043.043.043h.043a.093.093 0 00.086-.086c0-.043 0-.043.043-.086l.044-.26v-.258-.086c0-.043 0-.086-.044-.086-.043-.043-.043-.087-.086-.13-.043-.043-.086-.086-.13-.172a78.934 78.934 0 00-.129-.13c-.043-.043-.13-.129-.215-.172l-.432-.259.044-.345h.043c.086 0 .215.043.258.043.087 0 .173.043.26.043.086 0 .172.044.258.044h.086c.043 0 .043 0 .087.043 0 0 .043 0 .043.043V23.47s0 .043.043.043.086 0 .086-.044c0 0 0-.043.043-.086v-.258-.13-.086l.043-.388v-.043c0-.044-.043-.087-.086-.087 0 0-.043 0-.043.044l-.043.043-.043.129h-.044-.388c-.086 0-.172 0-.215-.043-.087 0-.173 0-.26-.043l-.69-.087c-.129 0-.258-.043-.387-.043h-.13l-.345-.043c-.043 0-.086 0-.086-.043 0 0-.043-.043-.043-.086v-.043-.13c0-.043-.043-.043-.086-.043v.043-.043c-.043 0-.087 0-.087.043 0 0 0 .043-.043.087l-.043.43c-.043.13-.043.173-.043.26v.043c0 .086-.043.13-.043.172v.216c-.043.086 0 .215 0 .302zm.259-.388v-.087c0-.043 0-.086.043-.129 0-.043.043-.086.043-.13v-.043l1.208.13s.043 0 .043.043v.129c0 .087-.043.173-.087.26-.043.085-.129.128-.172.215a.696.696 0 01-.388.13h-.173c-.13 0-.215-.044-.258-.087a.337.337 0 01-.173-.173c-.043-.043-.043-.086-.043-.129v-.086c-.043 0-.043-.043-.043-.043zm2.544 6.77c.043 0 .087.044.13.044.043 0 .086.043.086.043.043.043.086.043.086.086v.173c0 .043 0 .043.043.043 0 0 .043.043.087.043.043 0 .086-.043.086-.087v-.086-.258-.13-.086l-.043-.302c0-.043 0-.043-.044-.086 0-.043-.043-.043-.086-.043a.093.093 0 00-.086.086v.172h-.259l-.733-.129-.13-.776.906-.475.044.043c.043 0 .086-.086.086-.129v-.086l-.087-.604c0-.043 0-.086-.043-.086 0-.043-.043-.043-.086-.043a.093.093 0 00-.086.086v.172s0 .044-.043.087-.087.086-.13.086c-.043.043-.13.086-.172.13-.13.086-.259.129-.388.215a1.75 1.75 0 01-.389.216c-.172.086-.345.215-.603.345l-.13.086-.172.086c-.13.086-.259.13-.388.216l-.087.043v.043c-.043 0-.043.043-.086.043l-.043.043s-.043.043-.043.087c0 .043 0 .043.043.043l.043.043c.043 0 .043 0 .087.043h.043l2.587.56zm-1.121-1.164l.086.56-.906-.172.82-.388zm-.475 4.916c.044 0 .044 0 0 0zm4.184 2.674c.043 0 .043 0 .086-.043h.086l.043.087c0 .043.044.043.044.043h.043s.043-.044.043-.087h-.043.043v-.043l-.173-.345-.647-1.552c0-.043-.043-.087-.043-.13v-.086c0-.043-.043-.086-.043-.13-.043-.043-.043-.086-.086-.129 0 0 0-.043-.043-.043l-.475-1.035c0-.043-.043-.086-.043-.086l-.043-.086a.327.327 0 00-.086-.173v-.086c0-.043-.043-.043-.043-.086h-.086v.129l.043.173v.043l-.043.043s-.044.043-.087.043c-.043.043-.086.043-.172.086h-.043l-.044.043c-.086.043-.129.087-.215.087-.086.043-.13.086-.216.086l-.647.302a2.088 2.088 0 01-.302.129l-.301.172-.216.087-.086.043c-.043 0-.087.043-.087.043h-.043l-.043-.086-.043-.043h-.086c-.043 0-.087.043-.087.086v.086l.173.345.173.388c0 .043.043.043.043.087.043 0 .043.043.086.043h.043c.043 0 .043-.043.043-.087 0-.043-.043-.043-.043-.086v-.043-.043l.043-.043.043-.043.388-.173c.173-.086.26-.13.389-.172l.086-.044.604-.258.258-.13c.087-.043.173-.086.216-.086.13-.043.216-.086.259-.086h.086l.474 1.035c-.043.043-.086.043-.129.086-.043.043-.13.043-.172.086-.13.044-.216.087-.302.13l-.043.043-.087.043-.647.302-.215.086-.259.13-.302.129c-.043 0-.086.043-.086.043-.043 0-.043 0-.043-.043l-.043-.086-.044-.043h-.086c-.043 0-.043.043-.043.086v.086l.173.345.172.388c0 .043.043.043.043.087 0 0 .043.043.087.043h.043c.043 0 .043-.044.043-.087v-.086-.043c0-.043 0-.043.043-.086h.086l.173-.087.172-.086.086-.043.345-.172.647-.302c.13-.043.259-.13.345-.173l.043-.043.044-.043c.086-.043.172-.086.215-.086h.086l.475 1.035h-.043c-.043.043-.087.043-.13.086-.043.043-.13.043-.172.086l-.087.043c-.129.044-.215.13-.344.173l-.604.259-.475.215-.345-.172-.172.086c-.043 0-.086.043-.086.043h-.044l-.043-.086-.043-.043h-.086c-.043 0-.043.043-.043.086v.086l.172.345.173.388c0 .044.043.044.043.087 0 0 .043.043.086.043h.043c.043 0 .043-.043.043-.086v-.044s0-.043-.043-.086v-.086-.043h.043l.044-.043c.043 0 .129-.043.172-.087l.173-.086.258-.13.173-.086.647-.301c.13-.044.258-.13.345-.173l.043-.043.043-.043c.086-.086.173-.13.259-.173zm3.191 3.235c-.043-.043-.086-.13-.13-.173-.042-.043-.085-.129-.129-.172-.043-.043-.086-.13-.172-.173a78.934 78.934 0 00-.13-.129c-.043-.043-.086-.086-.172-.13-.043-.043-.086-.086-.172-.129-.044-.043-.087-.043-.13-.086h-.172s-.044 0-.087.043c-.043 0-.086.043-.172.086l-.043.044c-.043.043-.087.086-.13.086-.043.043-.043.043-.086.043l.043.043h-.043l-.043.043v.043c0 .043 0 .043.043.087 0 0 .043.043.086.043h.044l.043-.044c.043 0 .043-.043.086-.043s.086-.043.13-.043h.129c.043 0 .086.043.129.043.043.043.13.087.216.173l.043.043.043.043c.13.13.215.302.302.474.043.13.086.302.086.475v.086c0 .173-.043.345-.13.518a1.548 1.548 0 01-.301.43c-.13.13-.259.26-.431.303a.695.695 0 01-.389.13h-.086c-.13 0-.259-.044-.388-.087a1.65 1.65 0 01-.474-.345c-.087-.086-.173-.173-.216-.302l-.13-.259v-.13c0-.085 0-.129.044-.215l.043-.043.043-.043.043-.043v-.043c0-.043 0-.043-.043-.087-.043-.043-.043-.043-.086-.043s-.043 0-.087.044c-.043 0-.043.043-.086.086l-.086.086-.086.086-.087.087-.086.086s-.043.043-.043.086 0 .043.043.086c.043.087.13.173.13.216l.129.216a.76.76 0 00.172.215l.173.173c.302.302.604.517.949.56.086 0 .13.044.215.044h.216c.259 0 .517-.087.733-.26.043-.042.086-.042.13-.085l.129-.13c.172-.172.302-.345.388-.56.086-.216.13-.389.13-.604.129-.389.043-.69-.087-.95zm5.736 4.097l-.345-.173-.431-.302a1.18 1.18 0 00-.604-.172h-.086c-.043 0-.087 0-.13.043-.129.043-.215.086-.345.173l-.258.258a.695.695 0 00-.13.388v.087c0 .086 0 .215.043.302.087.172.173.345.345.474l.087.086a.133.133 0 00.086.044h.13l.042.043.043.043s.044 0 .044.043l-.475.776-.086.086-.086-.043h-.043c-.044 0-.044 0-.087.043v.043c0 .044 0 .087.044.087l.344.172.345.216c.044 0 .044 0 .087.043.043 0 .043 0 .086-.043v-.086c0-.044-.043-.044-.043-.044h-.043s-.043 0-.043-.043v-.086l.086-.172.086-.173c.043-.086.13-.215.216-.388l.345-.604.13-.259c.042-.086.085-.129.129-.215a.943.943 0 01.129-.216v-.086c0-.043.043-.043.043-.043l.043-.043h.043l.087.043h.086v-.13c.13-.129.13-.129.086-.172zm-.733.043s0 .043-.043.086v.086l-.431.734-.044.086-.043.043h-.043c-.043 0-.043-.043-.086-.043a.577.577 0 01-.302-.345c0-.043-.043-.086-.043-.086v-.087-.086c0-.043 0-.13.043-.172 0-.087.043-.173.086-.26a.337.337 0 01.173-.172c.043-.043.13-.043.172-.086h.13c.043 0 .086.043.172.043.043 0 .043.043.086.043h.044l.043.043.043.044c.043.043.043.086.043.129 0-.043 0-.043 0 0zm-1.596-.949c0-.043.043-.043.043-.043l.044-.043.172.043h.086l.043-.043v-.086l-.043-.043-.345-.173s-.043-.043-.086-.043l-.086-.043c-.043-.043-.087-.086-.173-.086l-.043-.043-.043-.044c-.043 0-.043-.043-.086-.043s-.087 0-.087.043v.044s0 .043.044.043l.129.086s.043 0 .043.043v.043c0 .043 0 .043-.043.086-.043.044-.043.13-.086.216l-.043.043-.044.043c-.043.043-.086.13-.129.216a.46.46 0 01-.13.215l-.344.604-.173.302-.086.13-.13.215c-.043.043-.043.086-.043.086l-.086.087h-.043l-.086-.043c-.043 0-.043-.044-.087-.044-.043 0-.043 0-.086.044v.086c0 .043.043.043.043.043l.345.172.345.216c.044 0 .044.043.087.043h.086l.043-.043v-.086l-.043-.043h-.043-.043c-.043 0 0 0 0 0l-.043-.043c0-.044 0-.044.043-.087l.086-.172.086-.173.216-.388.345-.604.13-.258c.042-.087.085-.13.129-.216.043-.086.086-.172.129-.216l.086-.043c0 .043 0 0 0 0zm7.16 2.415s-.044-.043-.087-.043l-.388-.086-.518-.13c-.13-.042-.215-.042-.345-.042-.13 0-.215 0-.302.043-.043 0-.086.043-.129.043-.043 0-.086.043-.086.043-.13.086-.216.13-.259.259a.49.49 0 00-.13.345c0 .086-.043.129-.043.215 0 .087 0 .173.044.302 0 .043.043.043.043.086s.043.043.043.087a.94.94 0 00.172.215c.043.043.087.087.13.087-.087.043-.13.086-.173.129l-.043.043-.043.043a.695.695 0 00-.172.302s0 .043-.044.043v.173c0 .086 0 .13.044.215 0 0 0 .043.043.043 0 0 0 .044.043.044.086.129.215.258.388.345.043 0 .086.043.13.043.042 0 .086.043.129.043.043 0 .086 0 .129.043h.043c.086 0 .13.043.173.043h.043l.431.13h.086a.093.093 0 00.087-.087v-.043c0-.043 0-.043-.044-.043l-.043-.043h-.086c-.043 0-.043 0-.043-.043 0 0-.043 0-.043-.043v-.087h-.043v-.043-.345l.043-.13.043-.129.043-.215.173-.69c.043-.173.086-.302.086-.431v-.173c.043-.13.043-.216.086-.259 0-.043.043-.043.043-.086h.13v-.043c.258-.13.258-.173.215-.173zm-1.338 2.631h-.043-.043-.086c-.086 0-.13-.043-.173-.086-.043-.043-.086-.086-.13-.173-.042-.086-.042-.13-.042-.215v-.087-.129c0-.043.043-.086.043-.13v-.042c.043-.044.043-.087.086-.087s.043-.043.086-.043h.087c.043 0 .086 0 .129.043h.173l-.087.95zm.56-2.415v.086c0 .043 0 .13-.042.173l-.216.905c-.043 0-.086 0-.13-.043-.042 0-.085 0-.129-.043-.043 0-.043-.043-.086-.043s-.043-.043-.086-.043-.043-.043-.086-.086a.694.694 0 01-.173-.302v-.043-.044-.129V45.593a.695.695 0 01.173-.301l.043-.044s.043 0 .043-.043c.043 0 .086-.043.13-.043h.258c.043 0 .043 0 .086.043.043 0 .043.044.087.044.043 0 .043.043.043.043.043.043.043.086.086.129 0-.043 0-.043 0 0 0-.043 0-.043 0 0 0-.043 0-.043 0 0 0-.043 0-.043 0 0zm11.084 1.984c0-.043-.043-.043-.043-.086h-.301l-.044-.044s0-.043-.043-.086l-.043-.13c0-.085-.043-.129-.043-.215l-.043-.13-.086-.301-.432-1.768v-.043c0-.043 0-.043-.043-.087 0-.043-.043-.043-.086-.043h-.043c-.043 0-.043.043-.086.043 0 0-.044.044-.044.087l-.043.086-.215.474c-.13.259-.216.518-.345.776-.043.044-.043.13-.087.173 0 .043-.043.086-.086.172l-.259.518c-.086.13-.129.302-.215.431l-.259-.992c-.043-.086-.043-.172-.086-.258 0-.087-.043-.173-.043-.26 0-.085-.044-.129-.044-.215v-.13-.129l.087-.043c.043 0 .043-.043.043-.043a.093.093 0 00-.086-.086h-.087l-.388.086h-.172c-.043 0-.087 0-.13.043-.043 0-.086.044-.172.044-.043 0-.043 0-.086.043-.044 0-.044.043-.044.086v.043s.044 0 .044.043h.086l.172-.043h.044l.043.043c0 .043.043.043.043.086 0 .044.043.087.043.13 0 .043.043.13.043.172 0 .043.043.13.043.216.043.086.043.172.043.259l.173.69.258 1.078v.043c0 .043.044.086.087.13h.086c.043 0 .043-.044.086-.044 0 0 .043-.043.043-.086.13-.259.216-.518.345-.776l.087-.173.086-.172c.086-.216.172-.389.302-.647l.043-.13.086-.129.302-.604v-.043l.474 1.855v.172l-.086.043c-.043 0-.043.043-.086.043v.087c0 .043.043.043.086.086h.086l.389-.086.43-.087c.044 0 .087-.043.13-.086.087 0 .087-.043.087-.086 0 .043 0 .043 0 0 0 .043 0 0 0 0zm5.391-2.717h-.086c-.043 0-.043.043-.086.043s-.043 0-.086.043h-.043-.044l-.043-.043-.043-.043a.937.937 0 01-.13-.216l-.086-.13c-.043-.085-.129-.172-.172-.301l-.043-.043-.043-.043-.345-.604-.13-.259a.943.943 0 00-.13-.215c-.042-.087-.085-.173-.129-.216v-.043-.043c0-.044 0-.044-.043-.087v-.043l.087-.086.043-.043c0-.043-.043-.043-.087-.043h-.043l-.302.215c-.043 0-.043.044-.086.044l-.086.043c-.043.043-.086.043-.172.086h-.044l-.043.043c-.043 0-.043.043-.086.043v.086h.086l.13-.086h.043l.043.043v.043c.043.044.086.087.13.173l.042.043.043.043.13.216c.043.043.086.13.13.215l.085.173a2.01 2.01 0 00-.388-.13c-.043 0-.086-.043-.172-.043s-.13-.043-.173-.043c-.215-.043-.388-.13-.56-.13-.13-.042-.216-.042-.302-.085h-.259a.39.39 0 00-.216.043h-.043c-.043 0-.043 0-.043.043h-.129s-.043 0-.043.043l-.087.043-.172.086c-.043 0-.043.043-.086.043 0 0-.044.044-.044.087v.043c0 .043.044.043.087.043s.043 0 .086-.043h.043c.043 0 .086-.043.086-.043h.302s.043 0 .13.043c.043 0 .13.043.258.043.044 0 .13.043.26.086l.085.043.087.043c.172.044.302.087.388.087.13.043.172.043.259.086.129.043.215.043.258.086h.087c0 .043-.044.087-.044.173-.043.13-.086.302-.129.517-.043.13-.043.216-.086.302v.173l-.043.13c0 .042-.043.085-.043.128 0 .044-.043.087-.087.13l-.129.13c-.043 0-.043.042-.043.042v.087c0 .043.043.043.086.043s.043 0 .086-.043l.345-.216.26-.13c.042 0 .042-.043.042-.043v-.086c0-.043-.043-.043-.086-.043h-.086v-.043c0-.043 0-.086.043-.13v-.086l.043-.215.043-.216.043-.172c.043-.13.043-.26.087-.389 0-.043.043-.129.043-.172l.043.043c.043.086.086.13.13.173l.129.258.086.13.13.172a.134.134 0 01.042.087s0 .043-.043.043l-.086.043-.043.043v.086c0 .043.043.043.086.043s.043 0 .086-.043l.345-.215s.043-.044.087-.044l.086-.043c.043-.043.086-.043.172-.086h.087c.043 0 .043-.043.043-.043v-.086c.258.086.258.086.215.086zm5.262-4.615c-.043 0-.043 0 0 0-.043-.043-.087-.043-.087-.043-.043 0-.043 0-.043.043l-.086.087h-.043-.086l-.043-.044-.302-.258-.259-.216-.043-.043-.043-.043-1.337-1.208-.043-.043c-.043-.043-.043-.043-.087-.043h-.043c-.043 0-.043 0-.086.043 0 0-.043.043-.043.086v.173l.086.517c.043.26.086.561.13.863 0 .043 0 .13.043.172 0 .044 0 .087.043.173.043.215.043.388.086.604.043.172.043.302.086.474l-.776-.69c-.086-.086-.13-.13-.216-.172-.086-.044-.129-.13-.172-.173-.043-.043-.13-.086-.13-.13l-.086-.086-.086-.086.043-.086v-.086s-.043-.043-.086-.043h-.043c-.043 0-.043.043-.087.043l-.258.302-.043.043-.087.086-.086.086-.13.13c0 .043-.042.043-.042.086v.043c0 .043 0 .043.043.086h.086l.13-.13s.042 0 .042-.042c0 0 .044 0 .087.043h.086c.043.043.086.043.13.086a.593.593 0 00.172.13c.043.043.13.086.172.172l.173.172.517.475.82.733c.043.043.086.043.13.043H71.697c0-.043.044-.043.044-.086v-.043c-.044-.259-.087-.56-.13-.82l-.043-.172-.043-.173a3.346 3.346 0 01-.086-.69v-.13l-.043-.172c-.044-.258-.087-.474-.087-.647v-.043l1.424 1.251c.043.043.086.086.086.13l-.043.086s-.043.043-.043.086v.043s.043.043.086.043h.043c.043 0 .043-.043.086-.043l.259-.302.302-.302c-.043-.215 0-.258 0-.345 0 .043 0 .043 0 0 0 .043 0 0 0 0zm3.407-6.038l-2.286-1.293c-.043-.043-.086-.043-.13-.086l-.042-.044c0-.043 0-.043.043-.086v-.086l-.043-.043h-.087c-.043 0-.043 0-.086.043-.043 0-.043.043-.043.086l-.13.302-.172.345v.086c0 .043.043.087.086.087h.087l.043-.044v-.043s0-.043.043-.043h.043l.172.086 1.38.733h-.172c-.345 0-.604 0-.69.044h-.129l-1.035.086h-.216c-.043 0-.043.043-.086.043v.043c0 .043 0 .043.043.086l.043.044.043.043 1.337 1.51-1.682-.518h-.043-.086v-.043c0-.044-.043-.044-.043-.087h-.044c-.043 0-.086.043-.129.087v.086l-.086.258-.173.389c0 .043-.043.043-.043.086s.043.086.086.086h.087l.043-.043s0-.043.043-.043c0 0 0-.043.043-.043 0-.043.043-.043.043-.087.043-.043.043-.043.086-.043h.13c.043 0 .086 0 .13.044l2.371.69h.173s.043 0 .043-.044v-.129c0-.043-.043-.043-.043-.086l-1.725-1.94 2.63-.13c.043 0 .087 0 .087-.043v-.044c0-.043 0-.043-.044-.086.173-.172.173-.172.13-.215zm1.38-6.167a2.754 2.754 0 00-.345-.603 1.916 1.916 0 00-.474-.345 2.142 2.142 0 00-.561-.173H76.7c-.215 0-.431.043-.647.13-.043 0-.086.043-.13.086-.042.043-.085.043-.129.086-.301.172-.474.431-.603.776 0 .043-.043.13-.043.216s-.043.13-.043.216v.215c0 .173.043.302.086.475.043.215.172.388.302.56.215.259.474.431.776.518.043 0 .13.043.172.043.044 0 .13.043.173.043h.216c.258 0 .474-.043.69-.172.043-.044.086-.044.129-.087l.13-.13c.215-.215.388-.43.474-.732 0-.043.043-.13.043-.173 0-.043.043-.13.043-.172v-.216c.043-.259.043-.431-.043-.56zm-.216.647a.728.728 0 01-.13.432c-.085.129-.172.215-.301.345-.13.086-.302.172-.474.215-.13.043-.216.043-.345.043h-.216c-.259-.043-.431-.086-.604-.172-.043 0-.043-.043-.086-.043s-.043-.043-.086-.043c-.13-.087-.216-.173-.26-.302 0-.043-.042-.043-.042-.086 0-.044 0-.044-.043-.087-.043-.086-.043-.13-.043-.215v-.087-.086c.043-.259.129-.431.258-.604.043-.043.043-.086.087-.086.043-.043.086-.043.129-.086.13-.086.302-.173.474-.216.13-.043.216-.043.345-.043h.216c.216 0 .388.086.518.13.129.086.258.172.345.258.086.086.172.216.172.345.043.086.043.173.043.302.043 0 .043.043.043.086zm-2.415-7.633c-.086 0-.172.043-.259.043-.129 0-.215.043-.258.043h-.043-.13l-.043-.086s0-.043-.043-.043h-.043c-.043 0-.087.043-.087.13v.042l.087.388v.303c0 .042 0 .086.043.172 0 0 0 .043.043.086 0 .043.043.043.086.043l.043-.043h-.043.043V21.744l.044-.043c.043 0 .043-.043.086-.043s.086-.043.13-.043c.042 0 .129-.043.215-.043.043 0 .13-.043.215-.043.087 0 .173-.043.26-.043l.301-.044.302 1.553-.302.043c-.086 0-.172.043-.259.043-.086 0-.172.044-.258.044-.13 0-.216.043-.26.043h-.042-.13l-.043-.087c0-.043-.043-.043-.043-.043h-.043a.093.093 0 00-.086.087v.086l.086.388v.172c0 .043 0 .087.043.13 0 .043 0 .086.043.172 0 .043.043.087.086.13h.044l.043-.043V23.944s.043-.043.086-.043h.043c.043 0 .086-.043.13-.043.043 0 .129-.044.215-.044.043 0 .13-.043.216-.043s.172-.043.258-.043l.69-.13.26-.042.258-.043.259-.044h.129c.043 0 .043 0 .086.044l.044.086s0 .043.043.043c0 0 .043.043.086.043a.093.093 0 00.086-.086v-.086l-.086-.389-.086-.43c0-.044 0-.044-.043-.087 0-.043-.044-.043-.087-.043h-.043c-.043 0-.043.043-.086.043V22.866l-.043.043h-.087c-.086 0-.129.043-.215.043l-.216.043c-.086 0-.172.043-.259.043l-.215.043h-.043l-.302-1.552h.043l.345-.087h.172l.346-.086h.086l.043.043.043.087s0 .043.043.043c0 0 .043.043.086.043h.044a.093.093 0 00.086-.086v-.087l-.087-.388-.086-.431c0-.043 0-.043-.043-.086 0-.043-.043-.043-.086-.043s-.043.043-.086.043V20.753h-.043-.087c-.13.043-.259.043-.388.086h-.043c-.13.043-.259.043-.388.086l-.69.13c-.043-.216-.13-.216-.216-.173zm-2.803-5.52c-.086.172-.13.388-.13.56v.13c0 .215.087.474.216.69.13.215.259.388.431.517.173.13.389.259.604.302.13.043.302.043.431.043.173 0 .302-.043.475-.086.043 0 .13-.043.172-.043.044-.043.13-.043.173-.086.302-.173.517-.389.647-.604.043-.043.043-.086.086-.173 0-.043.043-.129.043-.172.043-.13.043-.259.043-.388 0-.173-.043-.345-.086-.518a.327.327 0 00-.086-.172c-.043-.043-.043-.13-.087-.173-.172-.345-.43-.56-.733-.733-.043-.043-.129-.043-.172-.086-.043 0-.13-.043-.173-.043-.129-.043-.215-.043-.345-.043h-.215c-.173.043-.388.086-.56.172-.26.13-.475.345-.648.56-.043.044-.043.087-.086.13.043.13 0 .173 0 .216zm.388.388c.043-.173.172-.302.302-.431.13-.13.302-.26.474-.346.26-.129.475-.215.69-.215h.13c.043 0 .086 0 .13.043.172.043.344.172.474.302.043.043.043.086.086.086.043.043.043.086.086.13.086.129.13.258.13.43v.087c0 .13-.044.259-.087.388a1.235 1.235 0 01-.474.604c-.043.043-.086.086-.13.086-.043.043-.086.043-.172.086-.216.13-.431.173-.604.216H74.07c-.129 0-.258-.043-.388-.086-.043 0-.043-.043-.086-.043l-.043-.043a.596.596 0 00-.173-.13c-.043-.043-.086-.13-.129-.172a.983.983 0 01-.13-.475v-.043c.044-.215.044-.345.13-.474zm-3.45-3.58c0 .043 0 .043 0 0zm-.431-.258l.086.086a70.177 70.177 0 01.172.172c.043.043.087.043.13.043h.086v-.043c0-.043 0-.043-.043-.043l-.086-.13-.044-.042v-.043c0-.044.044-.044.044-.087.043-.043.043-.086.086-.13l.13-.129.172-.172.172-.172.13-.13V12.688c0 .086 0 .13.043.172v.087c0 .086.043.172.086.258 0 0 0 .043.043.043 0 0 0 .044.043.044 0 0 0 .043.043.043l.044.043.086.086.13.13c.042.043.042.043.085.043h.044c.043 0 .043 0 .086-.043 0 0 .043-.044.043-.087v-.043c0-.043-.043-.043-.043-.043l-.043-.043c0-.043-.043-.043-.043-.086s-.044-.087-.044-.173c0-.043 0-.13-.043-.172v-.13-.258-.173-.302-.431-.259-.345h1.467c.043 0 .086 0 .129.043.043 0 .086.043.13.086.043.043.043.043.086.043h.043s.043-.043.043-.086v-.043c0-.043-.043-.043-.043-.043l-.259-.259-.216-.215-.043-.043h-.043c-.043 0-.043 0-.086.043 0 0-.043.043-.043.086v.043h-1.467l.044-.043.172-.173.216-.215c.13-.13.215-.216.258-.216.044-.043.087-.043.087-.043h.043l.086.043.043.043c.043 0 .043 0 .087-.043 0 0 .043-.043.043-.086v-.043c0-.043-.044-.043-.044-.087l-.301-.258-.044-.043-.086-.087-.13-.129-.042-.043-.043-.043c-.044-.043-.044-.043-.087-.043h-.043c-.043 0-.043 0-.086.043 0 0-.043.043-.043.086s0 .043.043.086l.043.043.043.043v.087l-.043.043-.259.259-.215.215-.13.13-.474.474-.259.259-.043.043-.043.043-.173.173c-.043.043-.043.043-.086.043l-.086-.087-.043-.043h-.043s-.044.043-.044.087v.043c0 .043.044.043.044.086l.258.259.087.302zm-4.744-3.45c.043.043.043.086.13.129.042.043.085.086.172.13.086.085.215.129.302.215l.043.043.043.043c.258.173.56.216.82.216h.129c.043 0 .129 0 .172-.043.043 0 .13-.044.172-.044.216-.086.389-.172.561-.301.173-.13.302-.302.431-.518h-.043.043c.13-.216.173-.431.216-.604v-.172c0-.173-.043-.302-.086-.475a2.321 2.321 0 00-.302-.56 1.177 1.177 0 00-.518-.388 1.532 1.532 0 00-.388-.173s-.043 0-.043-.043h-.086c-.043 0-.086 0-.173-.043h-.172c-.043 0-.086 0-.086.043s-.043.086-.087.13v.086c-.043.086-.043.129-.086.172v.173s.043.043.043 0h.086l.044-.044c0-.043.043-.043.043-.086s.043-.043.043-.043l.043-.043c.086-.043.13-.043.216-.043h.086c.086 0 .172.043.302.086 0 0 .043 0 .043.043 0 0 .043 0 .043.043a.847.847 0 01.388.388c0 .044.043.044.043.087s.043.086.043.086c.044.13.044.216.044.345 0 .086 0 .173-.044.302 0 .043-.043.086-.043.13 0 .042 0 .042-.043.086l-.69-.389-.13-.086c-.042 0-.042-.043-.085-.043l-.044-.043s-.043 0-.043-.043c0 0 0-.043-.043-.043 0 0 0-.044-.043-.044h-.043c-.043 0-.043 0-.086.044 0 0 0 .043-.043.043l-.044.043-.086.086c-.043.043-.086.086-.086.13l-.043.043v.129h.129c.043 0 .043 0 .043-.043h.043c.043 0 .043-.043.087-.043.043 0 .086.043.129.043h.043s.043 0 .043.043l.388.216.388.215v.043c-.129.26-.301.475-.474.561-.043.043-.086.043-.086.043-.043 0-.086.043-.13.043-.086.043-.172.043-.301.043-.087 0-.173 0-.302-.043-.043 0-.087-.043-.13-.043-.043 0-.086-.043-.129-.043-.13-.086-.216-.13-.302-.216l-.043-.043-.043-.043a.327.327 0 01-.086-.172v-.087-.129l.043-.13v-.042c0-.044-.043-.087-.043-.087h-.043c-.044 0-.044 0-.087.043l-.043.087-.043.086c-.043.043-.043.086-.086.13l-.043.042v.044c0 .043-.044.086-.044.086.044.13.044.172.087.215 0-.043 0 0 0 0zm-5.607-1.769l.604.086h.043c.043 0 .043 0 .086-.043 0 0 .043 0 .043-.043V6.65h-.043.043c0-.043 0-.043-.043-.086 0 0-.043-.043-.086-.043h-.172s-.044 0-.044-.043c-.043-.044-.043-.087-.086-.13-.043-.043-.043-.13-.086-.215-.043-.173-.086-.302-.13-.475-.043-.13-.086-.302-.129-.431-.043-.216-.13-.431-.172-.69l-.043-.173-.044-.172c-.043-.086-.043-.173-.086-.302-.043-.086-.043-.216-.086-.302 0-.043-.043-.086-.043-.13l-.043-.042-.043-.044h-.044l-.043.044s-.043.043-.043.086v.086L57.165 5.96c-.043.086-.087.13-.087.173v.043c-.043.043-.043.043-.086.043H56.777c-.044 0-.044.043-.044.086s.044.086.044.086c.043 0 .043 0 .086.043h.517l.302.044h.043c.044 0 .044-.044.087-.087 0-.043 0-.043-.043-.086 0 0-.044 0-.087-.043h-.086c0-.043 0-.086.043-.173v-.086l.302-.647.776.087.26.991h-.044l-.043.044c0 .043.043.086.086.086 0 .13 0 .13.043.13zm-.992-1.552l.389-.82.215.863-.604-.043z" fill="#004F9E"></path> <path fill-rule="evenodd" clip-rule="evenodd" d="M35.904 18.682a.554.554 0 01.388.69.554.554 0 01-.69.389.554.554 0 01-.388-.69c.086-.302.388-.432.69-.389z" fill="#004F9E"></path> <path d="M24 58.66v-2.112h.259v.862h1.078v-.862h.302v2.113h-.302v-.992h-1.078v.992H24zM26.027 58.66l.82-2.07h.258l.863 2.07h-.302l-.259-.646h-.862l-.216.647h-.302zm.604-.862h.69l-.216-.56c-.086-.173-.129-.302-.129-.431-.043.129-.043.258-.13.388l-.215.603zM28.355 56.548h.26v1.854h1.12v-1.854h.26v1.854h.172v.82h-.216v-.561h-1.596v-2.113zM30.686 56.548h.258v1.682l1.079-1.682h.301v2.113h-.258v-1.682l-1.122 1.682h-.258v-2.113zM32.842 57.626c0-.345.086-.604.259-.82.172-.215.43-.301.733-.301.172 0 .345.043.517.129.173.086.259.216.345.388.087.173.13.345.13.56 0 .216-.044.389-.13.561a1.017 1.017 0 01-.345.389c-.172.086-.345.129-.517.129-.216 0-.388-.043-.518-.13-.172-.086-.259-.215-.345-.388a1.148 1.148 0 01-.13-.517zm.302 0c0 .259.086.431.215.604.13.129.302.215.518.215a.714.714 0 00.517-.215c.13-.13.216-.345.216-.604 0-.173-.043-.302-.086-.431-.043-.13-.13-.216-.259-.302-.13-.087-.216-.087-.388-.087-.216 0-.345.087-.518.216-.172.086-.215.302-.215.604zM35.385 58.66v-2.112h.259v.862h1.078v-.862h.302v2.113h-.302v-.992h-1.078v.992h-.26zM37.412 58.66l.82-2.07h.301l.863 2.07h-.302l-.259-.646h-.862l-.216.647h-.345zm.604-.862h.69l-.216-.56c-.086-.173-.13-.302-.13-.431-.042.129-.042.258-.129.388l-.215.603zM39.956 56.548h1.294v2.07h-.259v-1.855h-.733v1.079c0 .215 0 .388-.043.474a.237.237 0 01-.13.215c-.086.044-.129.087-.258.087a.47.47 0 01-.216-.043l.044-.26c.043 0 .086.044.129.044.043 0 .13-.043.13-.086.042-.043.042-.173.042-.345v-1.38zM41.898 56.548h.26v.905h.517c.215 0 .388.043.517.087a.52.52 0 01.216.215c.043.087.086.173.086.302a.554.554 0 01-.172.431c-.13.13-.302.173-.604.173h-.776v-2.113h-.044zm.26 1.854h.517c.215 0 .345-.043.388-.13a.613.613 0 00.086-.258.33.33 0 00-.086-.216c-.043-.043-.086-.086-.173-.129-.086 0-.215-.043-.388-.043h-.388v.776h.043zM43.969 58.66v-2.112h.258v.862h1.079v-.862h.302v2.113h-.302v-.992h-1.078v.992h-.26zM46.21 56.548h.303v.905h.517c.345 0 .561.043.647.173.087.13.173.259.173.431a.554.554 0 01-.173.431c-.13.13-.302.173-.603.173h-.777v-2.113h-.086zm.303 1.854h.517a.862.862 0 00.389-.086c.086-.043.129-.173.129-.259a.33.33 0 00-.086-.215c-.044-.044-.13-.087-.173-.13-.086 0-.215-.043-.388-.043h-.388v.733zm1.552-1.854h.26v2.07h-.26v-2.07zM48.97 56.548h.26v1.639l1.12-1.64h.26v2.07h-.26V56.98l-1.12 1.639h-.26v-2.07zm1.036-.475h.172c0 .13-.043.216-.13.259a.623.623 0 01-.301.086.623.623 0 01-.302-.086c-.086-.043-.13-.172-.13-.259h.216c0 .087.044.13.087.13.043.043.086.043.172.043s.13 0 .173-.043c0-.044.043-.087.043-.13zM52.506 56.548h.259v1.682l1.12-1.682h.26v2.113h-.26v-1.682l-1.077 1.682h-.302v-2.113zM56.258 57.928l.259.086a1.036 1.036 0 01-.302.517c-.13.13-.345.173-.561.173-.216 0-.388-.043-.56-.13-.13-.086-.26-.215-.303-.387a1.193 1.193 0 01-.129-.561c0-.216.043-.388.13-.56.086-.173.215-.303.344-.389.13-.086.302-.13.518-.13.216 0 .388.044.517.173a.79.79 0 01.302.431l-.258.044a.68.68 0 00-.216-.345c-.086-.087-.216-.087-.345-.087-.173 0-.302.043-.388.13a.499.499 0 00-.216.302c-.043.129-.086.258-.086.388 0 .172.043.345.086.474.043.13.13.216.259.302.13.086.216.086.345.086.172 0 .302-.043.388-.13a.835.835 0 00.216-.387zM58.545 57.928l.259.086a1.036 1.036 0 01-.302.517c-.13.13-.345.173-.56.173-.217 0-.389-.043-.562-.13-.129-.086-.258-.215-.301-.387a1.193 1.193 0 01-.13-.561c0-.216.043-.388.13-.56.086-.173.215-.303.345-.389.129-.086.301-.13.517-.13.216 0 .388.044.518.173a.79.79 0 01.301.431l-.258.044a.68.68 0 00-.216-.345c-.086-.087-.215-.087-.345-.087-.172 0-.302.043-.388.13a.499.499 0 00-.216.302c-.043.129-.086.258-.086.388 0 .172.043.345.086.474.043.13.13.216.26.302.128.086.215.086.344.086.173 0 .302-.043.388-.13a.835.835 0 00.216-.387zM59.363 56.548h1.293v2.07h-.258v-1.855h-.734v1.079c0 .215 0 .388-.043.474a.237.237 0 01-.129.215c-.086.044-.13.087-.259.087a.47.47 0 01-.215-.043l.043-.26c.043 0 .086.044.13.044.042 0 .128-.043.128-.086.044-.043.044-.173.044-.345v-1.38zM61.305 58.66v-2.112h1.51v.258h-1.252v.647h1.165v.216h-1.165v.733h1.294v.259h-1.552zM63.59 56.548h1.25v1.854h.173v.733h-.259v-.474h-1.38v.474h-.259v-.733h.173c.172-.259.259-.776.259-1.552v-.302h.043zm.992.258h-.734v.087c0 .172 0 .43-.043.733-.043.302-.086.56-.172.776h.949v-1.596zM65.445 57.626c0-.345.087-.604.26-.82.172-.215.43-.301.732-.301.173 0 .345.043.518.129.172.086.258.216.345.388.086.173.13.345.13.56 0 .216-.044.389-.13.561a1.018 1.018 0 01-.345.389c-.173.086-.345.129-.518.129-.215 0-.388-.043-.517-.13-.173-.086-.26-.215-.345-.388a1.148 1.148 0 01-.13-.517zm.302 0c0 .259.087.431.216.604.13.129.302.215.517.215a.714.714 0 00.518-.215c.13-.13.215-.345.215-.604 0-.173-.043-.302-.086-.431-.043-.13-.13-.216-.258-.302-.13-.087-.216-.087-.389-.087-.215 0-.345.087-.517.216-.173.086-.216.302-.216.604zM67.945 58.66v-2.112h.777c.172 0 .302 0 .388.043a.52.52 0 01.215.215c.043.087.087.173.087.26 0 .085-.044.172-.087.258-.043.086-.129.13-.215.172.13.044.215.087.302.173.086.086.086.216.086.302s0 .172-.043.259a.754.754 0 01-.173.215.329.329 0 01-.215.087c-.087.043-.216.043-.345.043h-.777v.086zm.26-1.207h.43c.13 0 .216 0 .26-.043.085 0 .129-.043.172-.086.043-.043.043-.13.043-.173 0-.086 0-.129-.043-.172l-.13-.13c-.043 0-.172-.043-.302-.043h-.43v.647zm0 .95H68.893c.043 0 .13-.044.173-.044.043-.043.086-.086.086-.13.043-.042.043-.129.043-.172 0-.086 0-.13-.043-.215a.595.595 0 00-.173-.13c-.086-.043-.172-.043-.302-.043h-.474v.733zM69.758 58.66l.82-2.07h.301l.863 2.07h-.302l-.259-.646h-.862l-.216.647h-.345zm.604-.862h.69l-.216-.56c-.086-.173-.13-.302-.13-.431-.043.129-.043.258-.129.388l-.215.603zM72.387 58.66v-1.854h-.69v-.258h1.64v.258h-.69v1.855h-.26zM73.81 58.66v-2.112h1.51v.258h-1.25v.647h1.164v.216h-1.165v.733h1.294v.259h-1.552zM76.054 56.548h1.294v2.07h-.259v-1.855h-.733v1.079c0 .215 0 .388-.043.474a.237.237 0 01-.13.215c-.086.044-.129.087-.258.087a.47.47 0 01-.216-.043l.043-.26c.043 0 .086.044.13.044.043 0 .129-.043.129-.086.043-.043.043-.173.043-.345v-1.38zM77.994 56.548h.259v.905h.517c.216 0 .389.043.518.087a.52.52 0 01.216.215c.043.087.086.173.086.302a.554.554 0 01-.173.431c-.13.13-.302.173-.603.173h-.82v-2.113zm.259 1.854h.517c.216 0 .345-.043.389-.13a.613.613 0 00.086-.258.33.33 0 00-.086-.216c-.044-.043-.087-.086-.173-.129-.086 0-.216-.043-.388-.043h-.388v.776h.043zM81.488 57.928l.259.086a1.035 1.035 0 01-.302.517c-.13.13-.345.173-.56.173-.216 0-.389-.043-.561-.13-.13-.086-.259-.215-.302-.387a1.193 1.193 0 01-.13-.561c0-.216.044-.388.13-.56.086-.173.216-.303.345-.389.172-.086.302-.13.517-.13.216 0 .389.044.518.173a.79.79 0 01.302.431l-.259.044a.68.68 0 00-.215-.345c-.087-.087-.216-.087-.346-.087-.172 0-.301.043-.388.13a.499.499 0 00-.215.302c-.043.129-.087.258-.087.388 0 .172.044.345.087.474.043.13.13.216.258.302.13.086.216.086.346.086.172 0 .301-.043.388-.13a.835.835 0 00.215-.387zM82.264 56.548h.258v.905c.13 0 .216-.043.26-.086a1.63 1.63 0 00.215-.345 2.11 2.11 0 01.13-.302.594.594 0 01.172-.13c.086-.042.13-.042.215-.042h.173v.258H83.6c-.087 0-.173 0-.216.044a.7.7 0 00-.13.258c-.086.173-.129.302-.172.345a.594.594 0 01-.172.13c.129.043.258.172.388.388l.431.69h-.345l-.345-.56c-.086-.173-.172-.26-.259-.303-.086-.043-.13-.086-.259-.086v.992h-.258v-2.156zM84.12 56.548h.258v1.682l1.078-1.682h.302v2.113h-.259v-1.682l-1.121 1.682h-.259v-2.113zM86.361 56.548h.26v1.639l1.12-1.64h.26v2.07h-.26V56.98l-1.12 1.639h-.26v-2.07zm1.035-.475h.173c0 .13-.043.216-.13.259a.623.623 0 01-.301.086.623.623 0 01-.302-.086c-.087-.043-.13-.172-.13-.259h.173c0 .087.043.13.086.13.043.043.086.043.173.043.086 0 .129 0 .172-.043.043-.044.086-.087.086-.13zM44.398 60.774h.26l.69 1.294.603-1.294h.259l-.776 1.639c-.087.216-.173.345-.26.388a.462.462 0 01-.258.086c-.086 0-.172 0-.259-.043v-.215c.087.043.173.043.216.043.086 0 .13-.043.172-.087.044-.043.087-.129.173-.302l-.82-1.509zM46.64 62.887v-2.113h.303v.863h1.078v-.863h.258v2.113h-.258v-.992h-1.078v.992h-.302zM48.928 60.774h.259v1.682l1.078-1.682h.301v2.113h-.258v-1.639l-1.121 1.64h-.26v-2.114zM51.17 62.887v-2.07h.776c.173 0 .302 0 .388.043.087.044.173.087.216.216a.613.613 0 01.086.259.613.613 0 01-.086.258c-.043.087-.13.13-.216.173.13.043.216.086.302.172.086.087.086.216.086.302 0 .087 0 .173-.043.26a.758.758 0 01-.172.215.33.33 0 01-.216.086c-.086.043-.215.043-.345.043h-.776v.043zm.259-1.207h.43c.13 0 .217 0 .26-.043.086 0 .13-.044.172-.087.043-.043.043-.129.043-.172 0-.086 0-.13-.043-.173a78.934 78.934 0 00-.13-.129c-.042 0-.172-.043-.301-.043h-.431v.647zm0 .949h.69c.043 0 .13-.044.172-.044.043-.043.087-.086.087-.129.043-.043.043-.13.043-.173 0-.086 0-.129-.044-.215-.043-.043-.086-.086-.172-.13-.086-.043-.172-.043-.302-.043h-.474v.734zM53.283 62.887v-2.113h1.51v.259h-1.251v.647h1.164v.258h-1.164v.69h1.294v.26h-1.553zM55.397 62.887v-2.07h1.078c.086 0 .172.043.258.087.087.043.13.129.173.215.043.086.043.173.043.302 0 .172-.043.345-.172.431-.13.13-.302.173-.604.173h-.518v.862h-.258zm.258-1.121h.56a.861.861 0 00.389-.086.391.391 0 00.13-.302.33.33 0 00-.087-.216c-.043-.043-.086-.086-.172-.13h-.777v.734h-.043zM58.934 62.154l.258.086a1.035 1.035 0 01-.301.518c-.13.13-.346.172-.561.172-.216 0-.388-.043-.56-.129-.13-.086-.26-.216-.303-.388a1.193 1.193 0 01-.13-.56c0-.216.044-.389.13-.561.087-.173.216-.302.345-.389.173-.086.302-.129.518-.129.215 0 .388.043.517.173a.79.79 0 01.302.43l-.258.087a.68.68 0 00-.216-.345c-.086-.086-.216-.086-.345-.086-.173 0-.302.043-.388.13a.5.5 0 00-.216.301 1.26 1.26 0 00-.086.388c0 .173.043.345.086.475.043.129.13.215.259.302.13.086.215.086.345.086.172 0 .302-.043.388-.13.13-.129.172-.258.216-.43zM59.709 60.774h.259v1.682l1.121-1.682h.259v2.113h-.216v-1.639l-1.121 1.64h-.302v-2.114zM62.512 62.887v-1.854h-.69v-.259h1.64v.259h-.69v1.854h-.26zM63.935 62.887v-2.113h1.51v.259h-1.25v.647h1.164v.258h-1.165v.69h1.294v.26h-1.553zM66.565 62.887v-1.854h-.69v-.259h1.639v.259h-.69v1.854h-.259z" fill="#004F9E"></path> <path fill-rule="evenodd" clip-rule="evenodd" d="M55.87 8.03c-9.833 0-17.811 7.979-17.811 17.811 0 9.833 7.978 17.812 17.81 17.812 9.834 0 17.812-7.979 17.812-17.811 0-9.833-7.978-17.812-17.811-17.812zm-1.294 5.693H55.913c2.415 0 3.407.431 4.572 1.294 1.681 1.294 1.94 3.191 1.94 4.14 0 1.164-.345 2.415-1.25 3.45-.647.776-1.812 1.94-4.011 2.2-1.51.172-2.631.129-3.192.043v-1.208a6.53 6.53 0 001.122.086c1.51 0 2.587-.776 3.234-1.595.733-.906.906-1.769.949-2.502h-4.183v-1.164h4.14c-.087-.776-.388-1.38-.906-1.984-.949-1.164-2.286-1.38-3.148-1.38h-5.952l-.69-1.38h6.038zm-5.822 23.806l.733-1.423V16.095h3.235v20.01h2.285v-7.848h3.02v7.805h2.587v-3.536c0-2.156-.13-5.132-2.545-6.685l1.424-.517c2.932 1.078 4.398 3.924 4.398 7.677v3.148l.734 1.423H48.754v-.043z" fill="#004F9E"></path> </svg> 