<svg id="Слой_1" data-name="Слой 1" xmlns="http://www.w3.org/2000/svg" viewBox="0 0 101 101"><title>log_Монтажная область 23</title><circle cx="45" cy="84" r="2"/><path d="M78.5,24.5A17.2,17.2,0,0,0,70,26.75V12.5A4.5,4.5,0,0,0,65.5,8h-40A4.5,4.5,0,0,0,21,12.5v76A4.5,4.5,0,0,0,25.5,93h40A4.5,4.5,0,0,0,70,88.5V63c3.61,5.81,7,10.45,7.29,10.86a1.5,1.5,0,0,0,2.42,0C80.37,73,96,51.58,96,42.23A17.64,17.64,0,0,0,78.5,24.5ZM25.5,11h40A1.5,1.5,0,0,1,67,12.5V19H24V12.5A1.5,1.5,0,0,1,25.5,11Zm40,79h-40A1.5,1.5,0,0,1,24,88.5V79H67v9.5A1.5,1.5,0,0,1,65.5,90ZM67,76H24V22H67v6.9a17.78,17.78,0,0,0-6,13.33c0,3.92,2.76,10,6,15.74Zm11.5-5.57c-2.34-3.31-5.7-8.36-8.59-13.44a1.49,1.49,0,0,0-.25-.44C66.53,51,64,45.51,64,42.23a14.5,14.5,0,1,1,29,0C93,48.61,83.45,63.43,78.5,70.43Z"/><path d="M78.5,34A7.5,7.5,0,1,0,86,41.5,7.51,7.51,0,0,0,78.5,34Zm0,12A4.5,4.5,0,1,1,83,41.5,4.5,4.5,0,0,1,78.5,46Z"/></svg>