<?xml version="1.0" encoding="UTF-8"?> <svg xmlns="http://www.w3.org/2000/svg" width="112" height="64" viewBox="0 0 112 64" fill="none"> <g clip-path="url(#clip0)"> <path d="M7.784 15.043H.002v7.785h7.782v-7.785zM23.35 30.605h-7.782v7.785h7.783v-7.785zM15.568 22.828H7.785v7.785h7.783v-7.785z" fill="#FC0"></path> <path d="M31.132 22.828H23.35v23.355h7.782V22.828z" fill="red"></path> <path d="M31.133 15.043H15.568v7.785h15.565v-7.785zM23.35 26.712a3.893 3.893 0 110-.008M7.785 26.72a3.892 3.892 0 11-7.785 0 3.892 3.892 0 017.785 0z" fill="#FC0"></path> <path d="M7.785 34.519a3.892 3.892 0 107.785-.027 3.892 3.892 0 00-7.785.027z" fill="#000"></path> <path d="M15.568 43.815l2.366 2.368h3.049l2.368-2.368v-3.05l-2.368-2.367h-3.05l-2.365 2.368v3.049z" fill="red"></path> <path d="M15.56 18.892a3.892 3.892 0 11-7.784 0 3.892 3.892 0 017.784 0z" fill="#FC0"></path> <path d="M7.784 43.815l-2.368 2.368H2.367L.002 43.815v-3.05l2.365-2.367h3.05l2.367 2.368v3.049zM7.784 30.613H.002v7.785h7.782v-7.785zM15.568 38.398H7.785v7.785h7.783v-7.785zM47.016 22.7l-2.37-5.689L42.25 22.7h4.765zm3.26 4.568h-1.36l-1.448-3.488h-5.662l-1.466 3.488h-1.367l5.105-12.21h1.08l5.117 12.21zM52.575 22.42h.942c.408.018.811-.092 1.154-.313.266-.225.47-.513.594-.838l.505-1.203c.132-.35.37-.65.681-.857a2.03 2.03 0 011.097-.266h.053l.173.977a1.24 1.24 0 00-.626.156 1.226 1.226 0 00-.454.56L56.24 21.7a1.62 1.62 0 01-.575.798 2.027 2.027 0 01-.859.314v.037c.367.037.711.196.977.452.24.269.42.584.532.926l.558 1.394c.062.23.182.44.349.61.187.134.414.201.644.191h.07l-.174 1.014h-.165a1.679 1.679 0 01-1.237-.42 4.194 4.194 0 01-.593-1.08l-.506-1.31a2.744 2.744 0 00-.532-.907 1.74 1.74 0 00-1.184-.4h-.96v3.95H51.47v-8.145h1.115l-.011 3.297zM64.497 23.152a19.16 19.16 0 00-2.128.157c-.625.088-1.36.266-1.812.767a1.551 1.551 0 00.072 2.078 1.622 1.622 0 001.2.399c.55.019 1.091-.133 1.55-.434a4.152 4.152 0 001.118-1.048v-1.919zm-4.88-3.384c.645-.471 1.533-.835 3.015-.835.732 0 1.759.103 2.395.747.575.578.628 1.31.628 2.006v3.683c-.03.297.038.597.191.854a.72.72 0 00.61.207h.087l-.21 1.014a1.413 1.413 0 01-1.253-.333 1.966 1.966 0 01-.455-.872 3.275 3.275 0 01-1.13.89 4.38 4.38 0 01-1.762.33c-.61 0-1.463-.087-2.091-.696a2.395 2.395 0 01-.663-1.692 2.309 2.309 0 01.732-1.743c.646-.628 1.535-.822 2.214-.926.856-.107 1.718-.16 2.58-.157v-.559c0-.418-.053-1.045-.455-1.428-.401-.384-1.027-.42-1.394-.42a4.693 4.693 0 00-2.509.715l-.53-.785zM73.698 20.031h-2.895v.993a19.38 19.38 0 01-.167 2.81c-.162.879-.45 1.73-.854 2.527h3.921l-.005-6.33zm-4.925 7.237v2.145H67.71V26.36h.958a9.549 9.549 0 00.926-2.634c.117-.896.163-1.8.138-2.703v-1.9h5.082v7.237h1.144v3.052h-1.064v-2.145h-6.12zM83.195 22.402c-.053-.532-.245-1.482-.798-2.022a2.023 2.023 0 00-1.498-.532 2.097 2.097 0 00-1.639.665 3.533 3.533 0 00-.87 1.9l4.805-.011zm.836 3.99c-.334.37-.754.651-1.222.82-.563.18-1.151.27-1.742.267-1.027 0-1.985-.243-2.805-1.065a4.272 4.272 0 01-1.168-3.086 4.824 4.824 0 011.33-3.42 3.276 3.276 0 012.475-.957 3.192 3.192 0 012.395.905c.923.926 1.152 2.426 1.133 3.472h-6.111c-.019 1.064.383 2.06.992 2.615a2.437 2.437 0 001.759.628 3.142 3.142 0 002.197-.87l.767.692zM87.552 20.728v6.593h-1.115v-8.146h1.326l2.543 5.374 2.597-5.425h1.322v8.144H93.11v-6.54l-2.44 5.077h-.731l-2.387-5.077zM97.92 27.268h-1.115v-8.144h1.114v5.912l4.218-5.042v-.87h1.114v8.144h-1.114v-5.912l-4.218 5.04v.872zM109.004 20.031c-.5-.034-.995.122-1.386.437a1.48 1.48 0 00-.436 1.08 1.4 1.4 0 00.559 1.168c.412.238.884.354 1.359.332h1.777v-3.017h-1.873zm.697 3.925a1.912 1.912 0 00-1.285.399c-.257.266-.459.58-.593.926l-.434.96c-.136.292-.315.56-.532.798a1.75 1.75 0 01-1.41.384l-.176-1.011h.035c.272.014.539-.074.75-.245.173-.187.309-.406.399-.644l.314-.665a3.07 3.07 0 01.471-.767c.214-.225.493-.378.799-.436v-.07a2.205 2.205 0 01-1.536-.574 1.954 1.954 0 01-.532-1.45 2.292 2.292 0 01.663-1.708c.697-.697 1.742-.732 2.336-.732H112v8.147h-1.115v-3.312h-1.184zM46.914 34.91H44.96c-.87 0-1.9.072-2.544.734-.399.45-.61 1.037-.593 1.639a2.31 2.31 0 00.612 1.639c.713.697 2.038.769 2.961.769h1.517V34.91zm1.29 11.13h-1.29V40.77H45.5a2.825 2.825 0 00-1.596.418 2.522 2.522 0 00-.94 1.256l-.798 1.99c-.194.518-.49.992-.87 1.394a2.128 2.128 0 01-1.62.47l-.21-1.186h.053a1.224 1.224 0 00.905-.295c.21-.192.383-.49.646-1.118l.625-1.535c.156-.402.38-.773.663-1.099.314-.33.721-.554 1.168-.644V40.3a3.459 3.459 0 01-2.336-.889 2.778 2.778 0 01-.766-2.075 3.322 3.322 0 01.907-2.442c.87-.873 2.176-1.065 3.608-1.065h3.259l.005 12.21zM52.106 46.04h-1.118v-8.148h1.118v3.297h4.076v-3.297h1.117v8.147h-1.117v-3.943h-4.076v3.943zM64.783 38.8h-2.9v.995c.01.938-.048 1.876-.173 2.807a9.48 9.48 0 01-.855 2.53h3.928V38.8zm-4.939 7.24v2.144H58.8v-3.052h.958a9.484 9.484 0 00.923-2.634c.12-.896.167-1.8.14-2.703v-1.903h5.07v7.24h1.133v3.052h-1.046v-2.145h-6.133zM74.273 41.17c-.053-.532-.245-1.482-.798-2.025a2.042 2.042 0 00-1.5-.532 2.088 2.088 0 00-1.637.663 3.547 3.547 0 00-.873 1.902l4.808-.008zm.836 3.991c-.332.371-.75.654-1.219.822a5.72 5.72 0 01-1.743.266c-1.03 0-1.987-.245-2.807-1.064a4.29 4.29 0 01-1.168-3.086 4.831 4.831 0 011.33-3.42 3.28 3.28 0 012.464-.968 3.192 3.192 0 012.395.908c.923.925 1.15 2.423 1.133 3.458h-6.1c-.017 1.065.383 2.057.992 2.616a2.441 2.441 0 001.761.628 3.13 3.13 0 002.195-.873l.767.713zM78.619 41.189h.942c.406.017.808-.093 1.149-.314.266-.223.47-.511.593-.836l.506-1.205c.131-.35.37-.648.681-.854a2.03 2.03 0 011.096-.266h.053l.173.976a1.24 1.24 0 00-.625.157 1.227 1.227 0 00-.455.56l-.452 1.063a1.631 1.631 0 01-.575.799c-.257.168-.55.275-.854.314v.034c.368.037.712.197.977.455.238.268.42.582.532.923l.558 1.397c.063.23.183.439.349.61.188.132.414.2.644.191h.069l-.173 1.011h-.157a1.67 1.67 0 01-1.237-.418 4.194 4.194 0 01-.593-1.08l-.506-1.309a2.695 2.695 0 00-.532-.907 1.743 1.743 0 00-1.184-.402h-.98v3.951h-1.114v-8.147h1.115v3.297zM91.92 45.161c-.555.593-1.359 1.064-2.96 1.064-.942 0-1.953-.157-2.77-1.01-.506-.533-1.118-1.536-1.118-3.09 0-1.969.96-3.051 1.256-3.347.942-.942 2.038-1.083 2.945-1.083.535-.01 1.066.081 1.568.266.37.13.708.338.992.61l-.61.766a3.043 3.043 0 00-2.003-.732 2.53 2.53 0 00-1.969.77c-.532.555-.958 1.463-.958 2.737s.453 2.128.924 2.565a2.528 2.528 0 001.777.644 3.193 3.193 0 002.18-.854l.747.694zM98.548 41.923c-.712.011-1.422.064-2.128.157-.628.085-1.36.28-1.812.766a1.544 1.544 0 00.069 2.076 1.625 1.625 0 001.202.401 2.66 2.66 0 001.552-.436c.432-.278.81-.632 1.114-1.046l.003-1.918zm-4.88-3.384c.644-.471 1.533-.838 3.015-.838.732 0 1.761.103 2.395.75.577.575.627 1.309.627 2.006v3.68c-.029.298.038.599.192.856a.726.726 0 00.609.208h.088l-.207 1.011a1.41 1.41 0 01-1.256-.33 1.976 1.976 0 01-.453-.872 3.3 3.3 0 01-1.133.888 4.372 4.372 0 01-1.761.333c-.61 0-1.464-.088-2.092-.697a2.395 2.395 0 01-.662-1.693 2.317 2.317 0 01.734-1.745c.644-.628 1.533-.82 2.211-.923.856-.108 1.718-.16 2.581-.157v-.559c0-.418-.053-1.046-.452-1.431-.4-.386-1.03-.418-1.397-.418a4.694 4.694 0 00-2.51.716l-.529-.785z" fill="#000"></path> </g> <defs> <clipPath id="clip0"> <path fill="#fff" d="M0 0h112v64H0z"></path> </clipPath> </defs> </svg> 