<?xml version="1.0" encoding="UTF-8"?> <svg xmlns="http://www.w3.org/2000/svg" width="24" height="24" viewBox="0 0 24 24" fill="none"> <g clip-path="url(#clip0_7391_29907)"> <path d="M12 24C18.6274 24 24 18.6274 24 12C24 5.37258 18.6274 0 12 0C5.37258 0 0 5.37258 0 12C0 18.6274 5.37258 24 12 24Z" fill="#404040"></path> <path d="M17.2575 5.30506C17.2575 5.30506 17.1754 4.91431 14.4346 4.91431C11.6938 4.91431 10.0575 6.79996 10.0575 9.31426V12.2286H6.97168V15.5429H10.0575V24H13.8288V15.5429H16.6861L17.0308 13.1429L17.142 12.2286H13.8289V9.77145C13.8289 9.2571 14.1717 8.45715 15.2574 8.22855H17.1432V6.74281L17.2575 5.30506Z" fill="#BFBFBF"></path> </g> <defs> <clipPath id="clip0_7391_29907"> <rect width="24" height="24" fill="white"></rect> </clipPath> </defs> </svg> 