<?xml version="1.0" encoding="UTF-8"?> <svg xmlns="http://www.w3.org/2000/svg" viewBox="0 0 1963.14 500"> <defs> <style>.cls-1{fill:#fff;}.cls-2{fill:#ff4f12;}.cls-3{fill:#70f;}</style> </defs> <g id="Layer_2" data-name="Layer 2"> <g id="content"> <path class="cls-1" d="M1548.4,360l68.29,77.63h-44.36l-52.82-59.83v59.83h-36.77V292.87h36.77V345.4l51.94-52.53h43.49ZM448.13,332c26.85,0,39.1-12.84,39.1-32.1s-12.25-32.1-39.1-32.1H395V332h53.11m1.17-98.64c46.1,0,76.46,23.64,76.46,66.54s-30.36,66.53-76.46,66.53H395v71.2H356.5V233.34h92.8M612.7,407.26c21.6,0,41.73-15.46,41.73-42s-20.13-42-41.73-42S571,338.69,571,365.24s20.14,42,41.73,42m0-118.47c39.69,0,79.08,25.68,79.08,76.45S652.39,441.7,612.7,441.7,533.62,416,533.62,365.24,573,288.79,612.7,288.79m173,118.48c-22.18,0-38.52-16-38.52-42,0-25.68,16.93-42,38.52-42,13.13,0,24.51,6.13,33.56,19.85L850.74,325c-10.51-22.47-33.27-36.18-64.79-36.18-41.15,0-76.16,30.35-76.16,76.45S743.06,441.7,786,441.7c30.93,0,51.65-14,66.25-38.81l-30.36-16.63c-8.75,12.25-18.09,21-36.18,21m391.5-32.39c-1.75,22.17-6.14,27.13-13.72,27.13a37,37,0,0,1-11.17-1.5l.18,37.46s4.57,1.4,13,1.4c31.22,0,42.89-20.14,45.81-63l3.51-50.49h41.43V437.32H1293V292.87H1183.29ZM1109.34,346c-3.5-18.09-17.21-29.18-37.64-29.18-19.26,0-33.85,12.84-39.11,29.18Zm-36.48-57.19c41.44,0,70.63,30.06,70.63,72.37V374H1032c2.33,22.18,18.09,36.18,39.69,36.18,19.55,0,27.72-8.46,36.76-19.84l29.19,14.59c-14.59,24.8-34.73,36.77-66.54,36.77-40.26,0-74.41-30.64-74.41-76.46s34.15-76.45,76.16-76.45M1426.23,346c-3.5-18.09-17.21-29.18-37.64-29.18-19.26,0-33.85,12.84-39.11,29.18Zm-36.47-57.19c41.44,0,70.62,30.06,70.62,72.37V374H1348.9c2.34,22.18,18.1,36.18,39.69,36.18,19.55,0,27.72-8.46,36.77-19.84l29.18,14.59c-14.59,24.8-34.73,36.77-66.53,36.77-40.28,0-74.42-30.64-74.42-76.46s34.14-76.45,76.17-76.45M863.63,325h43.19V437.62h36.77V325h43.19V292.88H863.63Zm826.06,82.3c21.59,0,41.73-15.47,41.73-42s-20.14-42-41.73-42-41.73,15.47-41.73,42,20.13,42,41.73,42m0-118.48c39.68,0,79.08,25.68,79.08,76.46s-39.4,76.45-79.08,76.45-79.08-25.68-79.08-76.45,39.39-76.46,79.08-76.46m225.38,4.06-39.9,101.37-39.91-101.37H1787.2V437.33h35V345.86l38.75,91.47h28.54l38.74-91.47v91.47h35V292.85Z"></path> <path class="cls-2" d="M238.7,500h-204C20,500,11.28,486.83,11.28,475.32a24.64,24.64,0,0,1,7.23-17.45l89-89Z"></path> <path class="cls-3" d="M34.69,500C19.29,500,0,487.68,0,463.19V188.92c0-37.06-1.89-63.13,24.58-89.6L123.92,0,300,176.39,18.51,457.87a24.64,24.64,0,0,0-7.23,17.45C11.28,486.83,20,500,34.69,500Z"></path> </g> </g> </svg> 