<?xml version="1.0" encoding="UTF-8"?> <svg xmlns="http://www.w3.org/2000/svg" id="Layer_1" data-name="Layer 1" viewBox="0 0 286 286"> <defs> <style> .cls-1, .cls-2, .cls-3, .cls-4, .cls-5, .cls-6, .cls-7 { fill: none; stroke-miterlimit: 10; stroke-width: 4px; } .cls-1 { stroke: #7b5ae2; } .cls-2 { stroke: #9176e7; } .cls-3 { stroke: #a791ec; } .cls-4 { stroke: #bdadf1; } .cls-5 { stroke: #d3c8f5; } .cls-6 { stroke: #e9e3fa; } .cls-7 { stroke: #fff; } </style> </defs> <title>sa-icon-Artboard 10 copy 6-</title> <g> <path class="cls-1" d="M180.91,137.49c-7,17.41-57,50.29-57,50.29s-13.06-58.38-6-75.79a34,34,0,0,1,63,25.5Z"></path> <path class="cls-2" d="M105.65,106.89c1.77-4.39,11.31-14.78,14.68-17.65a40.56,40.56,0,0,1,48.48-4.55c6.95,2.81,19,15,21.95,21.34l0,.06a.11.11,0,0,1,0,.06c5.59,9.43,7,20.81,4.29,32-1.77,7.3-6.78,15.32-14.25,22.6C177.59,163.93,167,173.88,163.2,177a87.15,87.15,0,0,1-22.81,14c-11.54,5-20.6,7.94-23.18,5.31,0,0-8.57-15.16-10.34-26a102.75,102.75,0,0,1-6.71-31.8C99.52,125.83,101.12,114.15,105.65,106.89Z"></path> <path class="cls-3" d="M93.43,101.78c1.41-3.51,17.2-19.86,19.89-22.16a48.44,48.44,0,0,1,62.17-3.46c5.56,2.25,23.45,20.37,25.78,25.42,0,0,0,0,0,.06l0,.07c7.43,10.67,10,23.85,8,37.1-1.59,10.25-7.2,20.8-16.34,29.73-2.63,2.54-19.22,18.53-22.29,21-8.8,8.07-19.51,13.1-30,15.95-13.66,3.72-25,4.57-30.2-.68,0,0-14.88-20.29-16.3-28.95A81.8,81.8,0,0,1,84.1,138.74C83.65,124.17,86.65,110.69,93.43,101.78Z"></path> <path class="cls-4" d="M81.2,96.67C82.27,94,104.3,71.73,106.32,70a56.7,56.7,0,0,1,75.84-2.38c4.17,1.69,27.87,25.71,29.62,29.5l.06.06.06.08c9.26,11.9,13.16,26.91,11.64,42.2-1.32,13.21-7.63,26.29-18.43,36.86-2,1.91-24.61,23.94-26.91,25.82a70.94,70.94,0,0,1-37.13,17.91c-15.73,2.63-29.46,1.2-37.21-6.68,0,0-21.21-25.41-22.27-31.9A76.68,76.68,0,0,1,68,139C67.72,122.51,72.18,107.22,81.2,96.67Z"></path> <path class="cls-5" d="M69,91.57c.71-1.76,29-30,30.34-31.18a65.23,65.23,0,0,1,89.52-1.29c2.78,1.13,32.29,31.05,33.45,33.57,0,0,.07.07.08.08s0,.08.06.08a67.08,67.08,0,0,1-5.21,91.29c-1.31,1.27-30,29.35-31.52,30.6a73.25,73.25,0,0,1-44.29,19.87c-17.81,1.64-33.9-2.17-44.23-12.68,0,0-27.53-30.52-28.23-34.85a76.64,76.64,0,0,1-17-47.9C51.82,120.84,57.71,103.76,69,91.57Z"></path> <path class="cls-6" d="M56.76,86.46c.36-.88,34.89-35.11,35.56-35.68a73.84,73.84,0,0,1,103.19-.21c1.39.56,36.71,36.39,37.29,37.65l.09.08.07.09a74.83,74.83,0,0,1-3.62,103.52c-.66.64-35.38,34.75-36.15,35.38a77.21,77.21,0,0,1-51.45,21.83c-19.92.72-38.32-5.54-51.24-18.68,0,0-33.84-35.64-34.2-37.81a78.78,78.78,0,0,1-20.38-53.25C35.92,119.18,43.24,100.3,56.76,86.46Z"></path> <path class="cls-7" d="M85.32,41.16,44.54,81.35a82.54,82.54,0,0,0-.88,116.86L83.82,239a82.58,82.58,0,0,0,116.87.88l40.77-40.15a82.57,82.57,0,0,0,2-115.75l-.08-.11-.1-.08L202.19,42a82.53,82.53,0,0,0-116.87-.88Z"></path> </g> </svg> 