<?xml version="1.0" encoding="UTF-8"?> <svg xmlns="http://www.w3.org/2000/svg" width="1665" height="1269" viewBox="0 0 1665 1269" fill="none"> <path d="M524.532 467.629L501.22 773.021L316.309 773.021L338.032 331.672L524.532 331.672L524.532 467.629Z" fill="#040823"></path> <path d="M540.176 179.208C539.945 216.014 522.258 239.888 487.116 250.832C451.975 261.776 434.288 285.651 434.057 322.456" stroke="#3E50CB" stroke-width="32" stroke-linecap="square"></path> <path d="M525.062 621.165L0.000111427 869.45L1664.73 621.165L748.12 621.165L525.062 621.165Z" fill="#FEA88D"></path> <path d="M278.666 166.64L278.666 221.55L545.576 221.55L545.576 163.515C545.576 88.5162 483.742 27.3562 408.562 29.5883C335.607 31.8204 278.666 93.4268 278.666 166.64Z" fill="#3E50CB"></path> <path d="M409.222 351.808C409.222 363.406 418.624 372.808 430.222 372.808C441.82 372.808 451.222 363.406 451.222 351.808L409.222 351.808ZM409.222 208.752L409.222 351.808L451.222 351.808L451.222 208.752L409.222 208.752Z" fill="#E9EBFA"></path> <path d="M424.3 269.556C478.386 269.556 522.231 225.281 522.231 170.665C522.231 116.049 478.386 71.7744 424.3 71.7744V269.556Z" fill="#D6DAFF"></path> <path d="M352.293 112.774C352.293 90.1308 370.649 71.7744 393.293 71.7744H424.301V269.556V269.556C384.532 269.556 352.293 237.317 352.293 197.548V112.774Z" fill="#D6DAFF"></path> <path d="M427.372 173.327C427.372 164.16 419.115 156.729 408.93 156.729C398.745 156.729 390.488 164.16 390.488 173.327" stroke="black" stroke-width="8"></path> <line x1="408.208" y1="157.16" x2="408.208" y2="145.173" stroke="black" stroke-width="8"></line> <line x1="422.299" y1="161.32" x2="431.012" y2="152.608" stroke="black" stroke-width="8"></line> <line y1="-4" x2="12.3217" y2="-4" transform="matrix(-0.707107 -0.707107 -0.707107 0.707107 392.159 164.149)" stroke="black" stroke-width="8"></line> <path d="M515.863 173.327C515.863 164.16 507.607 156.729 497.421 156.729C487.236 156.729 478.979 164.16 478.979 173.327" stroke="black" stroke-width="8"></path> <line x1="498.278" y1="157.16" x2="498.278" y2="145.173" stroke="black" stroke-width="8"></line> <line x1="510.79" y1="161.32" x2="519.503" y2="152.608" stroke="black" stroke-width="8"></line> <line y1="-4" x2="12.3217" y2="-4" transform="matrix(-0.707107 -0.707107 -0.707107 0.707107 480.65 164.149)" stroke="black" stroke-width="8"></line> <path d="M466.414 188.536C459.898 195.052 449.447 195.165 443.07 188.788" stroke="white" stroke-width="8" stroke-linecap="round"></path> <path d="M426.362 106.285L412.79 102.648L373.905 92.2289L362.856 89.2688C326.332 79.4823 305.242 39.4603 315.816 0.000605158L393.181 20.7303L431.956 31.1198L446.3 34.9635C464.838 39.9307 475.515 60.552 469.565 80.5513C463.775 99.9545 444.458 111.134 426.362 106.285Z" fill="url(#paint0_linear)"></path> <path d="M331.799 425.028L324.451 469.466L275.438 765.916C271.285 791.036 247.693 808.139 222.527 804.274L279.109 462.045L293.831 372.998C318.839 377.133 335.861 400.46 331.799 425.028Z" fill="#FFE9E6"></path> <path d="M570.209 418.034L570.207 486.474L570.207 573.427C570.207 598.889 549.721 619.611 524.261 619.903L524.261 486.55L524.263 372.895C549.61 372.895 570.209 393.132 570.209 418.034Z" fill="#F0D9D5"></path> <path d="M569.673 574.334L614.713 574.335L701.666 574.335C727.128 574.335 747.85 594.821 748.142 620.281L614.788 620.281L524.533 620.28C524.533 594.934 544.77 574.334 569.673 574.334Z" fill="#F0D9D5"></path> <path d="M366.258 144.276C365.212 171.207 351.96 189.096 326.502 197.942C301.044 206.789 287.792 224.677 286.746 251.608" stroke="#4C75F2" stroke-width="30" stroke-linecap="square"></path> <path d="M575.95 371.672C575.95 349.581 558.042 331.672 535.95 331.672L493.381 331.672L493.381 429.603L575.95 429.603L575.95 371.672Z" fill="#040823"></path> <path d="M287.575 364.959C290.848 345.735 307.507 331.672 327.007 331.672L375.811 331.672L375.811 429.603L276.569 429.603L287.575 364.959Z" fill="#040823"></path> <defs> <linearGradient id="paint0_linear" x1="362.461" y1="99.3553" x2="445.571" y2="35.6966" gradientUnits="userSpaceOnUse"> <stop stop-color="#FF7965" stop-opacity="0.15"></stop> <stop offset="1" stop-color="#3E50CB"></stop> </linearGradient> </defs> </svg> 