<?xml version="1.0" encoding="UTF-8"?> <svg xmlns="http://www.w3.org/2000/svg" width="775" height="148" viewBox="0 0 775 148" fill="none"> <path d="M86.8 72.4002C94.4 65.8002 99 56.6002 99 45.0002C99 20.8002 79.2 5.00019 54.8 5.00019H0V145H58.8C83.8 145 104 128.8 104 104C104 89.8002 97.2 79.0002 86.8 72.4002ZM54.8 35.0002C62.2 35.0002 67 40.2002 67 47.4002C67 54.6002 62 59.8002 54.8 59.8002H32V35.0002H54.8ZM58.8 115H32V88.2002H58.8C66.8 88.2002 72 93.8002 72 101.6C72 109.4 66.8 115 58.8 115Z" fill="white"></path> <path d="M185.475 45.0002V99.6002C185.475 113.8 177.875 120.2 166.875 120.2C157.275 120.2 149.475 114.4 149.475 102V45.0002H119.475V106.4C119.475 133.4 136.675 147.8 156.875 147.8C170.075 147.8 180.075 143 185.475 135.6V145H215.475V45.0002H185.475Z" fill="white"></path> <path d="M264.9 74.2002C264.9 70.6002 268.1 68.6002 273.3 68.6002C279.9 68.6002 283.9 72.2002 286.7 77.4002L312.3 63.6002C303.9 49.4002 289.5 42.2002 273.3 42.2002C252.5 42.2002 234.1 53.2002 234.1 75.0002C234.1 109.6 283.3 103.8 283.3 114.8C283.3 118.8 279.7 121 272.5 121C263.7 121 258.1 116.8 255.5 109.2L229.5 124C237.3 140.2 252.5 147.8 272.5 147.8C294.1 147.8 314.1 138 314.1 115C314.1 78.0002 264.9 85.6002 264.9 74.2002Z" fill="white"></path> <path d="M344.078 36.2002C353.878 36.2002 362.078 28.0002 362.078 18.2002C362.078 8.40019 353.878 0.200195 344.078 0.200195C334.278 0.200195 326.078 8.40019 326.078 18.2002C326.078 28.0002 334.278 36.2002 344.078 36.2002ZM329.078 145H359.078V45.0002H329.078V145Z" fill="white"></path> <path d="M439.631 42.2002C426.431 42.2002 416.431 47.0002 411.031 54.4002V45.0002H381.031V145H411.031V90.4002C411.031 76.2002 418.631 69.8002 429.631 69.8002C439.231 69.8002 447.031 75.6002 447.031 88.0002V145H477.031V83.6002C477.031 56.6002 459.831 42.2002 439.631 42.2002Z" fill="white"></path> <path d="M524.433 107H595.433C596.233 103.2 596.633 99.2002 596.633 95.0002C596.633 64.8002 575.033 42.2002 545.833 42.2002C514.233 42.2002 492.633 65.2002 492.633 95.0002C492.633 124.8 513.833 147.8 548.033 147.8C567.033 147.8 581.833 140.8 591.633 127.2L567.633 113.4C563.633 117.8 556.633 121 548.433 121C537.433 121 528.233 117.4 524.433 107ZM523.833 84.6002C526.633 74.4002 534.233 68.8002 545.633 68.8002C554.633 68.8002 563.633 73.0002 566.833 84.6002H523.833Z" fill="white"></path> <path d="M638.142 74.2002C638.142 70.6002 641.342 68.6002 646.542 68.6002C653.142 68.6002 657.142 72.2002 659.942 77.4002L685.542 63.6002C677.142 49.4002 662.742 42.2002 646.542 42.2002C625.742 42.2002 607.342 53.2002 607.342 75.0002C607.342 109.6 656.542 103.8 656.542 114.8C656.542 118.8 652.942 121 645.742 121C636.942 121 631.342 116.8 628.742 109.2L602.742 124C610.542 140.2 625.742 147.8 645.742 147.8C667.342 147.8 687.342 138 687.342 115C687.342 78.0002 638.142 85.6002 638.142 74.2002Z" fill="white"></path> <path d="M725.642 74.2002C725.642 70.6002 728.842 68.6002 734.042 68.6002C740.642 68.6002 744.642 72.2002 747.442 77.4002L773.042 63.6002C764.642 49.4002 750.242 42.2002 734.042 42.2002C713.242 42.2002 694.842 53.2002 694.842 75.0002C694.842 109.6 744.042 103.8 744.042 114.8C744.042 118.8 740.442 121 733.242 121C724.442 121 718.842 116.8 716.242 109.2L690.242 124C698.042 140.2 713.242 147.8 733.242 147.8C754.842 147.8 774.842 138 774.842 115C774.842 78.0002 725.642 85.6002 725.642 74.2002Z" fill="white"></path> </svg> 