<?xml version="1.0" encoding="UTF-8"?> <svg xmlns="http://www.w3.org/2000/svg" width="247" height="40" viewBox="0 0 247 40" fill="none"> <rect x="1" y="1" width="38" height="38" fill="url(#paint0_linear_7697_17320)" stroke="white" stroke-width="2"></rect> <path d="M38.3333 1.66667L38.3333 38.3333L1.66658 38.3333L38.3333 1.66667Z" fill="black"></path> <rect x="23.3333" y="31.6667" width="10" height="1.66667" fill="white"></rect> <mask id="mask0_7697_17320" style="mask-type:alpha" maskUnits="userSpaceOnUse" x="1" y="1" width="38" height="38"> <path d="M1.66675 38.3333V1.66667H38.4277L1.66675 38.3333Z" fill="white"></path> </mask> <g mask="url(#mask0_7697_17320)"> <path d="M20.0471 56.6656L-16.7131 19.9997L20.0471 -16.6663L56.8081 19.9997L20.0471 56.6656Z" fill="url(#paint1_linear_7697_17320)"></path> </g> <path d="M56.58 16.94C58.1 16.94 59.36 16.5 60.22 15.64C61.06 14.8 61.54 13.56 61.54 11.9V2.74H58.38V11.76C58.38 13.38 57.66 14.08 56.5 14.08C55.52 14.08 54.74 13.56 53.94 12.68L52 14.84C52.96 15.98 54.4 16.94 56.58 16.94Z" fill="black"></path> <path d="M69.4491 16.98C71.3891 16.98 72.8291 16.22 73.8291 14.98L72.0891 13.44C71.2491 14.22 70.5091 14.54 69.4891 14.54C68.1291 14.54 67.1691 13.82 66.8691 12.44H74.3291C74.3491 12.16 74.3691 11.88 74.3691 11.64C74.3691 8.6 72.7291 5.82 69.1491 5.82C66.0291 5.82 63.8491 8.34 63.8491 11.4C63.8491 14.72 66.2291 16.98 69.4491 16.98ZM66.8291 10.54C67.0691 9.16 67.8891 8.26 69.1491 8.26C70.4291 8.26 71.2291 9.18 71.4091 10.54H66.8291Z" fill="black"></path> <path d="M80.2547 16.92C81.2747 16.92 82.0147 16.68 82.6547 16.3V13.86C82.2147 14.1 81.7147 14.24 81.1547 14.24C80.4747 14.24 80.1747 13.9 80.1747 13.2V8.62H82.6947V6.02H80.1747V3.28H77.1347V6.02H75.8547V8.62H77.1347V13.7C77.1347 16.18 78.3947 16.92 80.2547 16.92Z" fill="black"></path> <path d="M85.2555 16.74H91.9155C95.0755 16.74 97.1555 15.46 97.1555 12.9C97.1555 10.98 96.1555 10.04 94.5355 9.42C95.5355 8.86 96.3755 7.98 96.3755 6.4C96.3755 5.4 96.0555 4.62 95.4155 3.98C94.6155 3.18 93.3555 2.74 91.7555 2.74H85.2555V16.74ZM88.2555 8.4V5.44H91.2955C92.5955 5.44 93.3155 5.96 93.3155 6.88C93.3155 7.96 92.4555 8.4 91.0955 8.4H88.2555ZM88.2555 14.04V10.96H91.8155C93.3955 10.96 94.0955 11.54 94.0955 12.48C94.0955 13.56 93.2755 14.04 91.9155 14.04H88.2555Z" fill="black"></path> <path d="M99.3691 16.74H102.409V12.78C102.409 10.22 103.649 9 105.669 9H105.829V5.82C104.029 5.74 103.029 6.7 102.409 8.18V6.02H99.3691V16.74Z" fill="black"></path> <path d="M110.261 16.94C111.741 16.94 112.761 16.4 113.501 15.58V16.74H116.441V10.52C116.441 9.08 116.081 7.9 115.281 7.1C114.521 6.34 113.321 5.9 111.661 5.9C109.841 5.9 108.681 6.24 107.501 6.76L108.261 9.08C109.241 8.72 110.061 8.5 111.221 8.5C112.741 8.5 113.521 9.2 113.521 10.46V10.64C112.761 10.38 111.981 10.2 110.901 10.2C108.361 10.2 106.581 11.28 106.581 13.62C106.581 15.78 108.241 16.94 110.261 16.94ZM111.181 14.84C110.201 14.84 109.521 14.36 109.521 13.54C109.521 12.54 110.321 12.02 111.621 12.02C112.361 12.02 113.041 12.18 113.561 12.42V12.96C113.561 14.06 112.601 14.84 111.181 14.84Z" fill="black"></path> <path d="M119.117 4.84H122.317V2.14H119.117V4.84ZM119.197 16.74H122.237V6.02H119.197V16.74Z" fill="black"></path> <path d="M125.092 16.74H128.132V10.76C128.132 9.32 128.872 8.58 130.032 8.58C131.192 8.58 131.872 9.32 131.872 10.76V16.74H134.912V9.8C134.912 7.34 133.572 5.82 131.272 5.82C129.732 5.82 128.832 6.64 128.132 7.54V6.02H125.092V16.74Z" fill="black"></path> <path d="M141.313 16.94C143.633 16.94 145.413 15.86 145.413 13.48C145.413 11.48 143.673 10.76 142.173 10.26C141.013 9.86 139.993 9.58 139.993 8.98C139.993 8.52 140.373 8.2 141.113 8.2C141.893 8.2 142.953 8.58 144.013 9.2L145.173 7.1C144.013 6.32 142.533 5.86 141.173 5.86C139.013 5.86 137.253 7.08 137.253 9.26C137.253 11.38 138.953 12.08 140.453 12.52C141.633 12.88 142.673 13.1 142.673 13.76C142.673 14.28 142.273 14.6 141.393 14.6C140.393 14.6 139.173 14.16 138.013 13.32L136.713 15.32C138.133 16.44 139.813 16.94 141.313 16.94Z" fill="black"></path> <path d="M152.708 16.74H155.848L157.128 13.6H163.048L164.328 16.74H167.548L161.548 2.64H158.708L152.708 16.74ZM158.228 10.88L160.088 6.34L161.948 10.88H158.228Z" fill="black"></path> <path d="M173.941 16.98C176.081 16.98 177.281 16.16 178.321 15.02L176.541 13.22C175.801 13.92 175.101 14.36 174.081 14.36C172.421 14.36 171.361 13.04 171.361 11.4C171.361 9.78 172.441 8.44 173.961 8.44C175.161 8.44 175.801 8.88 176.461 9.5L178.241 7.7C177.241 6.58 176.001 5.82 173.981 5.82C170.701 5.82 168.361 8.34 168.361 11.4C168.361 14.5 170.721 16.98 173.941 16.98Z" fill="black"></path> <path d="M183.347 16.94C184.827 16.94 185.847 16.4 186.587 15.58V16.74H189.527V10.52C189.527 9.08 189.167 7.9 188.367 7.1C187.607 6.34 186.407 5.9 184.747 5.9C182.927 5.9 181.767 6.24 180.587 6.76L181.347 9.08C182.327 8.72 183.147 8.5 184.307 8.5C185.827 8.5 186.607 9.2 186.607 10.46V10.64C185.847 10.38 185.067 10.2 183.987 10.2C181.447 10.2 179.667 11.28 179.667 13.62C179.667 15.78 181.327 16.94 183.347 16.94ZM184.267 14.84C183.287 14.84 182.607 14.36 182.607 13.54C182.607 12.54 183.407 12.02 184.707 12.02C185.447 12.02 186.127 12.18 186.647 12.42V12.96C186.647 14.06 185.687 14.84 184.267 14.84Z" fill="black"></path> <path d="M196.542 16.94C198.122 16.94 199.143 16.2 199.883 15.2V16.74H202.923V2.14H199.883V7.42C199.163 6.56 198.162 5.82 196.542 5.82C194.002 5.82 191.663 7.78 191.663 11.36C191.663 14.98 194.042 16.94 196.542 16.94ZM197.322 14.36C195.902 14.36 194.702 13.18 194.702 11.4C194.702 9.56 195.902 8.4 197.322 8.4C198.742 8.4 199.923 9.58 199.923 11.36C199.923 13.18 198.742 14.36 197.322 14.36Z" fill="black"></path> <path d="M210.719 16.98C212.659 16.98 214.099 16.22 215.099 14.98L213.359 13.44C212.519 14.22 211.779 14.54 210.759 14.54C209.399 14.54 208.439 13.82 208.139 12.44H215.599C215.619 12.16 215.639 11.88 215.639 11.64C215.639 8.6 213.999 5.82 210.419 5.82C207.299 5.82 205.119 8.34 205.119 11.4C205.119 14.72 207.499 16.98 210.719 16.98ZM208.099 10.54C208.339 9.16 209.159 8.26 210.419 8.26C211.699 8.26 212.499 9.18 212.679 10.54H208.099Z" fill="black"></path> <path d="M217.904 16.74H220.944V10.76C220.944 9.32 221.644 8.58 222.784 8.58C223.924 8.58 224.564 9.32 224.564 10.76V16.74H227.604V10.76C227.604 9.32 228.304 8.58 229.444 8.58C230.584 8.58 231.224 9.32 231.224 10.76V16.74H234.264V9.76C234.264 7.18 232.904 5.82 230.644 5.82C229.184 5.82 228.064 6.42 227.124 7.52C226.564 6.44 225.504 5.82 224.104 5.82C222.564 5.82 221.644 6.64 220.944 7.54V6.02H217.904V16.74Z" fill="black"></path> <path d="M239.175 20C240.995 20 241.875 19.18 242.695 17L246.815 6.02H243.655L241.315 13.32L238.875 6.02H235.655L239.855 16.78C239.595 17.32 239.315 17.48 238.795 17.48C238.395 17.48 237.895 17.3 237.495 17.06L236.475 19.26C237.255 19.72 238.075 20 239.175 20Z" fill="black"></path> <path d="M57.168 28.896H54.928V36H53.92V28.896H52.448V28H53.92V26.944C53.92 25.2267 54.7787 24.368 56.496 24.368H57.168V25.264H56.512C55.456 25.264 54.928 25.824 54.928 26.944V28H57.168V28.896ZM62.1102 27.792C63.3049 27.792 64.2436 28.192 64.9263 28.992C65.6196 29.792 65.9663 30.7947 65.9663 32C65.9663 33.2053 65.6196 34.208 64.9263 35.008C64.2436 35.808 63.3049 36.208 62.1102 36.208C60.9049 36.208 59.9609 35.808 59.2783 35.008C58.5956 34.208 58.2543 33.2053 58.2543 32C58.2543 30.7947 58.5956 29.792 59.2783 28.992C59.9609 28.192 60.9049 27.792 62.1102 27.792ZM62.1102 35.312C63.0169 35.312 63.7156 34.9867 64.2063 34.336C64.7076 33.6853 64.9583 32.9067 64.9583 32C64.9583 31.0933 64.7076 30.3147 64.2063 29.664C63.7156 29.0133 63.0169 28.688 62.1102 28.688C61.1823 28.688 60.4729 29.0133 59.9823 29.664C59.5023 30.304 59.2623 31.0827 59.2623 32C59.2623 32.9173 59.5023 33.7013 59.9823 34.352C60.4729 34.992 61.1823 35.312 62.1102 35.312ZM72.3965 28V28.928H71.7885C70.9992 28.928 70.3645 29.1787 69.8845 29.68C69.4152 30.1813 69.1805 30.88 69.1805 31.776V36H68.1725V28H69.1485V28.976H69.4685C70.0125 28.3253 70.8072 28 71.8525 28H72.3965ZM83.4721 24.368C85.1148 24.368 86.3948 24.928 87.3121 26.048C88.2401 27.168 88.7041 28.5813 88.7041 30.288C88.7041 31.9947 88.2401 33.408 87.3121 34.528C86.3948 35.648 85.1148 36.208 83.4721 36.208C81.8188 36.208 80.5335 35.648 79.6161 34.528C78.6988 33.408 78.2401 31.9947 78.2401 30.288C78.2401 28.5813 78.6988 27.168 79.6161 26.048C80.5335 24.928 81.8188 24.368 83.4721 24.368ZM81.0881 34.512C81.7388 35.0027 82.5335 35.248 83.4721 35.248C84.4108 35.248 85.2001 35.0027 85.8401 34.512C86.4908 34.0213 86.9548 33.4133 87.2321 32.688C87.5095 31.9627 87.6481 31.1627 87.6481 30.288C87.6481 29.4133 87.5095 28.6133 87.2321 27.888C86.9548 27.1627 86.4908 26.5547 85.8401 26.064C85.2001 25.5733 84.4108 25.328 83.4721 25.328C82.5335 25.328 81.7388 25.5733 81.0881 26.064C80.4481 26.5547 79.9895 27.1627 79.7121 27.888C79.4348 28.6133 79.2961 29.4133 79.2961 30.288C79.2961 31.1627 79.4348 31.9627 79.7121 32.688C79.9895 33.4133 80.4481 34.0213 81.0881 34.512ZM95.1934 28V28.928H94.5854C93.796 28.928 93.1614 29.1787 92.6814 29.68C92.212 30.1813 91.9774 30.88 91.9774 31.776V36H90.9694V28H91.9454V28.976H92.2654C92.8094 28.3253 93.604 28 94.6494 28H95.1934ZM103 28H103.976V35.6C103.976 36.7307 103.656 37.6267 103.016 38.288C102.387 38.96 101.501 39.296 100.36 39.296C99.3679 39.296 98.5679 39.088 97.9599 38.672C97.3519 38.2667 96.9785 37.6907 96.8399 36.944H97.8319C98.0559 37.9147 98.8932 38.4 100.344 38.4C102.093 38.4 102.968 37.4667 102.968 35.6V34.896H102.648C102.051 35.632 101.203 36 100.104 36C99.0159 36 98.1465 35.616 97.4959 34.848C96.8452 34.08 96.5199 33.0987 96.5199 31.904C96.5199 30.6987 96.8452 29.712 97.4959 28.944C98.1465 28.176 99.0159 27.792 100.104 27.792C101.213 27.792 102.072 28.16 102.68 28.896H103V28ZM100.216 35.104C101.123 35.104 101.805 34.8 102.264 34.192C102.733 33.5733 102.968 32.8107 102.968 31.904C102.968 30.9973 102.733 30.2347 102.264 29.616C101.805 28.9973 101.123 28.688 100.216 28.688C99.3732 28.688 98.7119 28.9813 98.2319 29.568C97.7625 30.144 97.5279 30.9227 97.5279 31.904C97.5279 32.8747 97.7625 33.6533 98.2319 34.24C98.7119 34.816 99.3732 35.104 100.216 35.104ZM111.856 36V35.104H111.536C111.28 35.4347 110.923 35.7013 110.464 35.904C110.016 36.1067 109.509 36.208 108.944 36.208C108.037 36.208 107.328 35.9573 106.816 35.456C106.304 34.9547 106.048 34.3467 106.048 33.632C106.048 32.9067 106.288 32.288 106.768 31.776C107.259 31.264 108.016 31.008 109.04 31.008H111.824V30.512C111.824 29.968 111.648 29.5307 111.296 29.2C110.944 28.8587 110.4 28.688 109.664 28.688C109.013 28.688 108.512 28.8107 108.16 29.056C107.808 29.2907 107.616 29.6267 107.584 30.064H106.576C106.64 29.3493 106.949 28.7947 107.504 28.4C108.059 27.9947 108.779 27.792 109.664 27.792C110.635 27.792 111.403 28.0267 111.968 28.496C112.544 28.9653 112.832 29.616 112.832 30.448V36H111.856ZM109.088 35.312C109.845 35.312 110.491 35.0773 111.024 34.608C111.557 34.128 111.824 33.5253 111.824 32.8V31.856H109.312C108.587 31.856 108.027 32.0107 107.632 32.32C107.248 32.6187 107.056 33.0293 107.056 33.552C107.056 34.1067 107.237 34.5387 107.6 34.848C107.973 35.1573 108.469 35.312 109.088 35.312ZM122.303 36H121.295V31.088C121.295 29.488 120.553 28.688 119.071 28.688C118.303 28.688 117.668 28.976 117.167 29.552C116.676 30.128 116.431 30.816 116.431 31.616V36H115.423V28H116.399V28.896H116.719C116.943 28.576 117.279 28.3147 117.727 28.112C118.185 27.8987 118.681 27.792 119.215 27.792C120.175 27.792 120.927 28.0693 121.471 28.624C122.025 29.168 122.303 29.9093 122.303 30.848V36ZM125.947 28V36H124.939V28H125.947ZM125.995 25.632H124.891V24.368H125.995V25.632ZM134.623 36H128.159V34.784L133.375 29.2V28.896H128.431V28H134.623V29.2L129.407 34.784V35.104H134.623V36ZM141.95 36V35.104H141.63C141.374 35.4347 141.017 35.7013 140.558 35.904C140.11 36.1067 139.603 36.208 139.038 36.208C138.131 36.208 137.422 35.9573 136.91 35.456C136.398 34.9547 136.142 34.3467 136.142 33.632C136.142 32.9067 136.382 32.288 136.862 31.776C137.353 31.264 138.11 31.008 139.134 31.008H141.918V30.512C141.918 29.968 141.742 29.5307 141.39 29.2C141.038 28.8587 140.494 28.688 139.758 28.688C139.107 28.688 138.606 28.8107 138.254 29.056C137.902 29.2907 137.71 29.6267 137.678 30.064H136.67C136.734 29.3493 137.043 28.7947 137.598 28.4C138.153 27.9947 138.873 27.792 139.758 27.792C140.729 27.792 141.497 28.0267 142.062 28.496C142.638 28.9653 142.926 29.616 142.926 30.448V36H141.95ZM139.182 35.312C139.939 35.312 140.585 35.0773 141.118 34.608C141.651 34.128 141.918 33.5253 141.918 32.8V31.856H139.406C138.681 31.856 138.121 32.0107 137.726 32.32C137.342 32.6187 137.15 33.0293 137.15 33.552C137.15 34.1067 137.331 34.5387 137.694 34.848C138.067 35.1573 138.563 35.312 139.182 35.312ZM147.084 28H149.212V28.896H147.084V33.744C147.084 34.2133 147.202 34.56 147.436 34.784C147.671 34.9973 148.082 35.104 148.668 35.104H149.212V36H148.652C147.767 36 147.116 35.8347 146.7 35.504C146.284 35.1733 146.076 34.624 146.076 33.856V28.896H144.604V28H146.076V25.52H147.084V28ZM152.572 28V36H151.564V28H152.572ZM152.62 25.632H151.516V24.368H152.62V25.632ZM158.688 27.792C159.883 27.792 160.822 28.192 161.504 28.992C162.198 29.792 162.544 30.7947 162.544 32C162.544 33.2053 162.198 34.208 161.504 35.008C160.822 35.808 159.883 36.208 158.688 36.208C157.483 36.208 156.539 35.808 155.856 35.008C155.174 34.208 154.832 33.2053 154.832 32C154.832 30.7947 155.174 29.792 155.856 28.992C156.539 28.192 157.483 27.792 158.688 27.792ZM158.688 35.312C159.595 35.312 160.294 34.9867 160.784 34.336C161.286 33.6853 161.536 32.9067 161.536 32C161.536 31.0933 161.286 30.3147 160.784 29.664C160.294 29.0133 159.595 28.688 158.688 28.688C157.76 28.688 157.051 29.0133 156.56 29.664C156.08 30.304 155.84 31.0827 155.84 32C155.84 32.9173 156.08 33.7013 156.56 34.352C157.051 34.992 157.76 35.312 158.688 35.312ZM171.631 36H170.623V31.088C170.623 29.488 169.881 28.688 168.399 28.688C167.631 28.688 166.996 28.976 166.495 29.552C166.004 30.128 165.759 30.816 165.759 31.616V36H164.751V28H165.727V28.896H166.047C166.271 28.576 166.607 28.3147 167.055 28.112C167.513 27.8987 168.009 27.792 168.543 27.792C169.503 27.792 170.255 28.0693 170.799 28.624C171.353 29.168 171.631 29.9093 171.631 30.848V36ZM176.987 36.208C175.931 36.208 175.115 35.9947 174.539 35.568C173.963 35.1413 173.622 34.544 173.515 33.776H174.507C174.699 34.8 175.494 35.312 176.891 35.312C177.606 35.312 178.161 35.184 178.555 34.928C178.961 34.6613 179.163 34.2773 179.163 33.776C179.163 33.3707 179.041 33.0507 178.795 32.816C178.55 32.5813 178.145 32.4213 177.579 32.336C176.822 32.2293 176.187 32.1173 175.675 32C174.449 31.7653 173.835 31.1253 173.835 30.08C173.835 29.408 174.097 28.8587 174.619 28.432C175.153 28.0053 175.915 27.792 176.907 27.792C177.793 27.792 178.502 27.9947 179.035 28.4C179.569 28.7947 179.878 29.3333 179.963 30.016H178.971C178.918 29.5893 178.694 29.264 178.299 29.04C177.905 28.8053 177.419 28.688 176.843 28.688C176.214 28.688 175.723 28.8053 175.371 29.04C175.019 29.264 174.843 29.5787 174.843 29.984C174.843 30.3253 174.95 30.5867 175.163 30.768C175.387 30.9493 175.734 31.088 176.203 31.184C176.278 31.1947 176.406 31.216 176.587 31.248C176.769 31.2693 176.902 31.2907 176.987 31.312L177.979 31.472C179.441 31.7387 180.171 32.496 180.171 33.744C180.171 34.4267 179.883 35.008 179.307 35.488C178.742 35.968 177.969 36.208 176.987 36.208Z" fill="black"></path> <defs> <linearGradient id="paint0_linear_7697_17320" x1="4.28571" y1="3.57143" x2="20.8654" y2="18.8059" gradientUnits="userSpaceOnUse"> <stop stop-color="#B42BF6"></stop> <stop offset="0.555556" stop-color="#6C70B8"></stop> <stop offset="1" stop-color="#15DD69"></stop> </linearGradient> <linearGradient id="paint1_linear_7697_17320" x1="25.5491" y1="25.4746" x2="1.58778" y2="1.50885" gradientUnits="userSpaceOnUse"> <stop stop-color="#15DD69"></stop> <stop offset="0.2334" stop-color="#15DD69"></stop> <stop offset="0.88985" stop-color="#AF1DF5"></stop> <stop offset="1" stop-color="#AF1DF5"></stop> </linearGradient> </defs> </svg> 