<svg id="Layer_1" data-name="Layer 1" xmlns="http://www.w3.org/2000/svg" xmlns:xlink="http://www.w3.org/1999/xlink" viewBox="0 0 300 300"><defs><style>.cls-1{fill:#fff;}.cls-2{opacity:0.4;fill:url(#linear-gradient);}.cls-3{opacity:0.65;fill:url(#linear-gradient-2);}.cls-4{fill:url(#linear-gradient-3);}.cls-5{fill:url(#linear-gradient-4);}</style><linearGradient id="linear-gradient" x1="-1.63" y1="277.72" x2="340.37" y2="113.72" gradientUnits="userSpaceOnUse"><stop offset="0" stop-color="#9de5fe"/><stop offset="1" stop-color="#7881e1"/></linearGradient><linearGradient id="linear-gradient-2" x1="-21.14" y1="237.01" x2="320.86" y2="73.01" xlink:href="#linear-gradient"/><linearGradient id="linear-gradient-3" x1="-40.18" y1="197.32" x2="301.82" y2="33.32" xlink:href="#linear-gradient"/><linearGradient id="linear-gradient-4" x1="-66.26" y1="142.93" x2="275.74" y2="-21.07" xlink:href="#linear-gradient"/></defs><title>Artboard 10 copy 7 копия 3</title><path class="cls-1" d="M272.5,263.91H95.5a12,12,0,0,1-12-12V125.5a12,12,0,0,1,12-12h177a12,12,0,0,1,12,12V251.91A12,12,0,0,1,272.5,263.91Z"/><path class="cls-2" d="M272.5,278.91H95.5a27,27,0,0,1-27-27V125.5a27,27,0,0,1,27-27h177a27,27,0,0,1,27,27V251.91A27,27,0,0,1,272.5,278.91Zm-174-30h171V128.5H98.5Z"/><path class="cls-3" d="M239,244.91H62a27,27,0,0,1-27-27V91.5a27,27,0,0,1,27-27H239a27,27,0,0,1,27,27V217.91A27,27,0,0,1,239,244.91Zm-174-30H236V94.5H65Z"/><path class="cls-1" d="M206,196.91H29a12,12,0,0,1-12-12V58.5a12,12,0,0,1,12-12H206a12,12,0,0,1,12,12V184.91A12,12,0,0,1,206,196.91Z"/><path class="cls-4" d="M206,211.91H29a27,27,0,0,1-27-27V58.5a27,27,0,0,1,27-27H206a27,27,0,0,1,27,27V184.91A27,27,0,0,1,206,211.91Zm-174-30H203V61.5H32Z"/><rect class="cls-5" x="17" y="57.91" width="125.5" height="30"/></svg>