<?xml version="1.0" encoding="UTF-8"?> <!-- Generator: Adobe Illustrator 27.0.0, SVG Export Plug-In . SVG Version: 6.00 Build 0) --> <svg xmlns="http://www.w3.org/2000/svg" xmlns:xlink="http://www.w3.org/1999/xlink" id="Ebene_1" x="0px" y="0px" viewBox="0 0 167.8 57.7" style="enable-background:new 0 0 167.8 57.7;" xml:space="preserve"> <style type="text/css"> .st0{fill:#FFFFFF;} </style> <path class="st0" d="M50.4,23.6c-1.8-2.7-4.8-4.3-8-4.3c-1.6,0-3.2,0.3-4.7,1c-1.4,0.7-2.6,1.6-3.5,2.9c-1,1.3-1.7,2.8-2.2,4.5 c-0.5,1.8-0.8,3.7-0.8,5.6c0,2.1,0.3,4.1,0.9,6.1c0.5,1.6,1.3,3.2,2.4,4.6c1,1.2,2.2,2.2,3.7,2.9c1.5,0.7,3.1,1,4.7,1 c3.3,0,5.9-1.3,7.5-4l0.1,3.3h6.9V10.2h-7.1V23.6z M49,39.9c-1,1.4-2.6,2.2-4.3,2.2c-1.8,0-3.4-0.9-4.4-2.3 c-1.2-1.7-1.8-3.8-1.7-5.9c0-5.6,2-8.4,6.2-8.4c4,0,6,2.9,6,8.8C50.8,36.3,50.1,38.3,49,39.9 M60.5,16.9h7.1v-6.7h-7.1V16.9z M60.5,47.1h7.1V20.1h-7.1V47.1z M96.3,20.1h-7.5L83,38l-5.7-17.9h-7.9l9.7,27.1h7.5L96.3,20.1z M116.9,22.2c-1-1-2.2-1.7-3.6-2 c-1.8-0.5-3.6-0.8-5.4-0.7c-1.8-0.1-3.7,0.2-5.5,0.7c-1.4,0.4-2.6,1-3.7,2c-0.9,0.9-1.6,1.8-2,3c-0.4,1.2-0.7,2.6-0.7,3.9h6.7 c0.1-1.1,0.6-2.1,1.3-2.9c0.7-0.7,1.9-1.1,3.5-1.1c1.2-0.1,2.3,0.2,3.3,0.7c0.8,0.4,1.2,1.2,1.2,2c0.1,0.8-0.3,1.6-0.9,2.1 c-0.7,0.4-1.8,0.8-3.7,1c-1.8,0.2-3.5,0.5-5,0.9c-1.4,0.3-2.7,0.7-3.9,1.4c-1.1,0.7-2,1.6-2.6,2.8c-0.7,1.4-1,3.1-0.9,4.7 c-0.1,2,0.7,4,2.2,5.4c1.4,1.4,3.7,2.1,6.9,2.1c1.6,0,3.3-0.3,4.8-0.9c1.3-0.5,2.4-1.2,3.3-2.3c0.1,0.9,0.2,1.6,0.5,2.4h6.7V30.1 c0-1.5-0.2-3.1-0.6-4.5C118.5,24.2,117.8,23.1,116.9,22.2 M112.3,36.9c0,0.8-0.2,1.6-0.5,2.3c-0.3,0.7-0.8,1.3-1.4,1.9 c-0.6,0.5-1.3,1-2,1.2c-0.8,0.3-1.7,0.5-2.6,0.5c-2.3,0-3.5-1-3.5-3c-0.1-1,0.4-2,1.2-2.7c0.8-0.7,2.2-1.1,4.3-1.5 c1-0.2,2-0.4,3-0.7c0.6-0.2,1.1-0.5,1.6-0.9L112.3,36.9z M134.3,26.1c-0.7,0.4-1.4,0.6-2.2,0.6c-1.2,0.1-2.3-0.5-3.1-1.3 c-0.9-1-1.3-2.2-1.3-3.5h13.5c0-3.9-0.8-6.8-2.4-8.8c-1.6-2-3.8-2.9-6.9-2.9c-1.4,0-2.8,0.2-4,0.7c-1.1,0.5-2.2,1.1-2.9,2 c-0.9,0.9-1.4,2-1.8,3.1c-0.5,1.3-0.7,2.7-0.7,4.1c0,7.1,3.3,10.7,9.8,10.7c2,0.1,3.9-0.5,5.4-1.6c1.6-1.2,2.7-2.8,3.2-4.7h-5.3 C135.3,25.1,134.9,25.7,134.3,26.1 M129.1,15.3c0.7-0.7,1.7-1.1,2.7-1.1c0.5,0,1,0.1,1.5,0.3c0.5,0.2,0.9,0.5,1.2,0.8 c0.4,0.4,0.7,0.9,0.9,1.4c0.3,0.6,0.4,1.2,0.4,1.9h-8C127.8,17.3,128.3,16.2,129.1,15.3"></path> <rect x="122.6" y="33.2" class="st0" width="18.6" height="3.3"></rect> </svg> 