<?xml version="1.0" encoding="UTF-8"?> <svg xmlns="http://www.w3.org/2000/svg" viewBox="0 0 45.09 77.88"> <defs> <style>.cls-1,.cls-2{fill:none;stroke-miterlimit:10;stroke-width:0.5px;}.cls-1{stroke:#fff;}.cls-2{stroke:#6c6;}</style> </defs> <g id="Layer_2" data-name="Layer 2"> <g id="Layer_1-2" data-name="Layer 1"> <path class="cls-1" d="M15.09,77.7A10.54,10.54,0,0,1,30,77.7"></path> <path class="cls-1" d="M26.27,38.82a5.28,5.28,0,0,1-7.46,0"></path> <path class="cls-1" d="M30,42.55a10.54,10.54,0,0,1-14.91,0"></path> <path class="cls-1" d="M33.73,46.28a15.83,15.83,0,0,1-22.37,0"></path> <path class="cls-1" d="M37.45,50A21.09,21.09,0,0,1,7.63,50"></path> <path class="cls-1" d="M41.18,53.73a26.35,26.35,0,0,1-37.28,0"></path> <path class="cls-1" d="M44.91,57.46a31.63,31.63,0,0,1-44.73,0"></path> <line class="cls-1" x1="22.54" y1="29.52" x2="22.54" y2="36.37"></line> <line class="cls-1" x1="22.54" x2="22.54" y2="6.85"></line> <line class="cls-1" x1="22.54" y1="67.48" x2="22.54" y2="74.33"></line> <path class="cls-2" d="M26.27,11.94a5.28,5.28,0,0,1-7.46,0"></path> <path class="cls-2" d="M30,15.66a10.54,10.54,0,0,1-14.91,0"></path> <path class="cls-2" d="M33.73,19.39a15.81,15.81,0,0,1-22.37,0"></path> <path class="cls-2" d="M37.45,23.12a21.09,21.09,0,0,1-29.82,0"></path> </g> </g> </svg> 