<?xml version="1.0" encoding="UTF-8"?> <!-- Generator: Adobe Illustrator 27.0.0, SVG Export Plug-In . SVG Version: 6.00 Build 0) --> <svg xmlns="http://www.w3.org/2000/svg" xmlns:xlink="http://www.w3.org/1999/xlink" id="Layer" x="0px" y="0px" viewBox="0 0 283.5 80" style="enable-background:new 0 0 283.5 80;" xml:space="preserve"> <style type="text/css"> .st0{fill:#FFFFFF;} </style> <g> <g> <g> <path class="st0" d="M81.6,53.9c1,0,1.8-0.1,2.6-0.2c0.7-0.2,1.5-0.5,2.1-0.8v-4.4h-3c-0.2,0-0.5-0.1-0.7-0.2 c-0.1-0.1-0.2-0.3-0.2-0.6v-2.5h7.9v9.7c-0.6,0.5-1.3,0.8-1.8,1.2c-0.7,0.3-1.4,0.6-2.1,0.8C85.8,57,85,57.1,84,57.2 c-0.8,0.1-1.7,0.1-2.8,0.1c-1.7,0-3.3-0.3-4.8-0.9c-1.5-0.6-2.8-1.5-3.8-2.5s-1.8-2.3-2.5-3.8c-0.6-1.5-0.9-3.1-0.9-4.8 c0-1.8,0.3-3.5,0.9-5s1.4-2.8,2.5-3.8c1-1,2.4-2,3.9-2.5c1.5-0.6,3.2-0.9,5.2-0.9s3.6,0.3,5.1,0.9c1.4,0.6,2.6,1.4,3.6,2.3 l-1.3,2c-0.2,0.5-0.6,0.6-1,0.6c-0.2,0-0.6-0.1-0.8-0.2c-0.3-0.2-0.7-0.5-1-0.6c-0.3-0.2-0.8-0.3-1.3-0.6 c-0.5-0.1-0.9-0.2-1.5-0.3s-1.2-0.1-2-0.1c-1.2,0-2.2,0.2-3.2,0.6c-0.9,0.3-1.7,0.9-2.4,1.7c-0.7,0.7-1.2,1.6-1.5,2.6 s-0.6,2.2-0.6,3.5c0,1.4,0.2,2.6,0.6,3.7c0.3,1,0.9,2,1.6,2.6c0.7,0.7,1.5,1.3,2.4,1.7C79.4,53.6,80.5,53.9,81.6,53.9z"></path> <path class="st0" d="M94.1,57.1V40.3h2.4c0.5,0,0.7,0.1,0.9,0.2c0.1,0.1,0.2,0.5,0.3,0.8l0.2,2.1c0.6-1,1.3-1.8,2.1-2.4 c0.8-0.6,1.7-0.9,2.8-0.9c0.8,0,1.5,0.2,2.1,0.6l-0.6,3c0,0.2-0.1,0.3-0.2,0.5c-0.1,0.1-0.2,0.1-0.5,0.1c-0.1,0-0.3,0-0.7-0.1 c-0.3-0.1-0.7-0.1-1.2-0.1c-0.8,0-1.6,0.2-2.2,0.7S98.3,46,98,46.9v10.5h-4L94.1,57.1L94.1,57.1z"></path> <path class="st0" d="M111.7,35.3c0,0.3-0.1,0.7-0.2,1s-0.3,0.6-0.6,0.8c-0.2,0.2-0.6,0.5-0.8,0.6c-0.3,0.1-0.7,0.2-1,0.2 s-0.7-0.1-1-0.2c-0.3-0.1-0.6-0.3-0.8-0.6c-0.2-0.2-0.5-0.5-0.6-0.8s-0.2-0.7-0.2-1s0.1-0.7,0.2-1s0.3-0.6,0.6-0.8 c0.2-0.2,0.5-0.5,0.8-0.6s0.7-0.2,1-0.2s0.7,0.1,1,0.2c0.3,0.1,0.6,0.3,0.8,0.6c0.2,0.2,0.5,0.5,0.6,0.8S111.7,35,111.7,35.3z M111,40.3v16.9h-4V40.3H111z"></path> <path class="st0" d="M127,57.1c-0.6,0-0.9-0.2-1-0.7l-0.3-1.6c-0.3,0.3-0.7,0.8-1.2,1c-0.3,0.3-0.8,0.6-1.3,0.8s-0.9,0.5-1.4,0.6 s-1,0.2-1.6,0.2c-0.9,0-1.7-0.2-2.5-0.6c-0.8-0.3-1.4-0.9-2-1.7c-0.6-0.7-1-1.6-1.3-2.8c-0.3-1-0.5-2.3-0.5-3.7 c0-1.3,0.1-2.4,0.5-3.5s0.8-2,1.5-2.8c0.6-0.8,1.4-1.4,2.3-1.8c0.9-0.5,1.8-0.7,3-0.7c0.9,0,1.7,0.1,2.4,0.5 c0.7,0.3,1.3,0.7,1.8,1.3v-8.9h4v24.4H127L127,57.1z M121.6,54.2c0.8,0,1.6-0.1,2.2-0.6c0.6-0.3,1.2-0.8,1.7-1.5v-7.6 c-0.5-0.6-0.9-0.9-1.5-1.2c-0.6-0.2-1.2-0.3-1.7-0.3c-0.6,0-1.2,0.1-1.6,0.3c-0.5,0.2-0.9,0.6-1.3,1s-0.6,1-0.8,1.7 c-0.2,0.7-0.2,1.6-0.2,2.5c0,1,0.1,1.8,0.2,2.5s0.3,1.3,0.7,1.7c0.3,0.5,0.7,0.8,1,0.9C120.5,54.1,121,54.2,121.6,54.2z"></path> </g> <g> <path class="st0" d="M163.3,45.2c0,1.7-0.3,3.3-0.9,4.8s-1.4,2.8-2.4,3.8s-2.3,1.8-3.8,2.4c-1.5,0.6-3.1,0.9-5,0.9h-9.1V33.4h9.1 c1.8,0,3.5,0.3,5,0.9c1.5,0.6,2.8,1.4,3.8,2.4s1.8,2.3,2.4,3.8C162.9,41.9,163.3,43.5,163.3,45.2z M158.7,45.2 c0-1.3-0.2-2.5-0.6-3.6s-0.8-2-1.5-2.6c-0.7-0.7-1.4-1.3-2.3-1.6c-0.9-0.3-2-0.6-3.1-0.6h-4.6v16.8h4.6c1.2,0,2.2-0.2,3.1-0.6 c0.9-0.3,1.7-0.9,2.3-1.6c0.7-0.7,1.2-1.6,1.5-2.6C158.6,47.8,158.7,46.5,158.7,45.2z"></path> <path class="st0" d="M172.4,61.8c-0.1,0.2-0.2,0.5-0.5,0.7c-0.2,0.1-0.5,0.2-0.9,0.2h-3l3.1-6.8l-6.8-15.7h3.6 c0.3,0,0.6,0.1,0.8,0.2c0.2,0.1,0.3,0.3,0.3,0.6l3.6,8.8c0.1,0.2,0.2,0.6,0.3,0.9c0.1,0.3,0.1,0.6,0.2,0.9 c0.1-0.3,0.2-0.6,0.3-0.9c0.1-0.3,0.2-0.6,0.3-0.9L177,41c0.1-0.2,0.2-0.3,0.5-0.6c0.2-0.1,0.5-0.2,0.7-0.2h3.2L172.4,61.8z"></path> <path class="st0" d="M183.4,57.1V40.3h2.5c0.6,0,0.9,0.2,1,0.7l0.2,1.4c0.3-0.3,0.7-0.7,1-0.9c0.3-0.3,0.8-0.6,1.2-0.7 c0.5-0.2,0.9-0.3,1.4-0.5c0.5-0.1,1-0.1,1.6-0.1c0.9,0,1.7,0.1,2.4,0.5c0.7,0.3,1.3,0.8,1.8,1.3c0.5,0.6,0.8,1.3,1,2.1 s0.3,1.6,0.3,2.6v10.7h-4V46.6c0-1-0.2-1.8-0.7-2.4c-0.5-0.6-1.2-0.8-2.2-0.8c-0.7,0-1.4,0.1-2,0.5c-0.6,0.3-1.2,0.8-1.7,1.3 v12.2h-4v-0.3H183.4z"></path> <path class="st0" d="M214.8,57.1H213c-0.3,0-0.7,0-0.9-0.2c-0.2-0.1-0.3-0.3-0.5-0.7l-0.3-1.2c-0.5,0.3-0.8,0.7-1.3,1 s-0.8,0.6-1.3,0.7c-0.5,0.2-0.9,0.3-1.4,0.5c-0.5,0.1-1,0.1-1.6,0.1c-0.7,0-1.4-0.1-2-0.3s-1.2-0.5-1.6-0.9 c-0.5-0.3-0.8-0.9-1-1.4c-0.2-0.6-0.3-1.3-0.3-2c0-0.6,0.1-1.3,0.5-1.8c0.3-0.6,0.9-1.2,1.7-1.7s1.8-0.9,3.1-1.3 c1.3-0.3,2.9-0.5,4.8-0.5v-1c0-1.2-0.2-2-0.7-2.5c-0.5-0.6-1.2-0.8-2.1-0.8c-0.7,0-1.2,0.1-1.6,0.2c-0.5,0.1-0.8,0.3-1.2,0.5 c-0.3,0.2-0.6,0.3-0.9,0.6c-0.2,0.1-0.6,0.2-0.9,0.2c-0.2,0-0.5-0.1-0.7-0.2c-0.2-0.1-0.3-0.3-0.5-0.6l-0.7-1.3 c2-1.7,4.3-2.6,7-2.6c1,0,1.8,0.1,2.6,0.5c0.8,0.3,1.4,0.8,2,1.4c0.6,0.6,0.9,1.3,1.3,2.1c0.2,0.8,0.5,1.7,0.5,2.6v10.7 L214.8,57.1L214.8,57.1z M206.8,54.5c0.5,0,0.8,0,1.2-0.1c0.3-0.1,0.7-0.2,1-0.3s0.6-0.3,0.9-0.6s0.6-0.5,0.9-0.8v-2.9 c-1.2,0-2.2,0.1-3,0.2c-0.8,0.1-1.4,0.3-2,0.6c-0.5,0.2-0.8,0.5-1,0.8s-0.3,0.7-0.3,1c0,0.7,0.2,1.3,0.6,1.5 C205.7,54.4,206.1,54.5,206.8,54.5z"></path> <path class="st0" d="M218.3,57.1V40.3h2.5c0.6,0,0.9,0.2,1,0.7l0.2,1.3c0.3-0.3,0.6-0.6,0.9-0.9c0.3-0.2,0.7-0.5,1-0.7 s0.8-0.3,1.2-0.5c0.5-0.1,0.9-0.1,1.4-0.1c1,0,2,0.2,2.6,0.8c0.7,0.6,1.2,1.4,1.5,2.3c0.2-0.6,0.6-1,1-1.4c0.3-0.5,0.8-0.7,1.3-1 c0.5-0.2,0.9-0.5,1.5-0.6s1-0.2,1.6-0.2c0.9,0,1.7,0.1,2.5,0.5c0.7,0.2,1.4,0.7,1.8,1.3c0.5,0.6,0.9,1.3,1.2,2 c0.2,0.8,0.3,1.7,0.3,2.8v10.7h-4V46.4c0-1-0.2-1.8-0.7-2.4c-0.5-0.6-1.2-0.8-2.1-0.8c-0.5,0-0.8,0.1-1.2,0.2 c-0.3,0.1-0.7,0.3-0.9,0.6c-0.2,0.2-0.5,0.6-0.6,1c-0.1,0.5-0.2,0.9-0.2,1.4v10.7H228V46.4c0-1.2-0.2-2-0.7-2.4 c-0.5-0.6-1.2-0.8-2.1-0.8c-0.6,0-1.2,0.1-1.6,0.5c-0.5,0.3-1,0.7-1.4,1.2v12.3C222.5,57.1,218.3,57.1,218.3,57.1z"></path> <path class="st0" d="M250.3,35.3c0,0.3-0.1,0.7-0.2,1c-0.1,0.3-0.3,0.6-0.6,0.8c-0.2,0.2-0.5,0.5-0.8,0.6s-0.7,0.2-1,0.2 s-0.7-0.1-1-0.2c-0.3-0.1-0.6-0.3-0.8-0.6c-0.2-0.2-0.5-0.5-0.6-0.8s-0.2-0.6-0.2-1c0-0.3,0.1-0.7,0.2-1c0.1-0.3,0.3-0.6,0.6-0.8 c0.2-0.2,0.5-0.5,0.8-0.6s0.7-0.2,1-0.2s0.7,0.1,1,0.2c0.3,0.1,0.6,0.3,0.8,0.6c0.2,0.2,0.5,0.5,0.6,0.8 C250.2,34.6,250.3,35,250.3,35.3z M249.7,40.3v16.9h-4V40.3H249.7z"></path> <path class="st0" d="M265.5,43.8c-0.1,0.1-0.2,0.2-0.3,0.3c-0.1,0.1-0.2,0.1-0.5,0.1c-0.2,0-0.5-0.1-0.6-0.2 c-0.2-0.1-0.5-0.2-0.7-0.5c-0.2-0.1-0.6-0.3-0.9-0.5c-0.3-0.1-0.8-0.2-1.4-0.2c-0.7,0-1.4,0.1-1.8,0.3c-0.6,0.2-1,0.6-1.4,1.2 c-0.3,0.5-0.6,1-0.8,1.7s-0.2,1.5-0.2,2.3c0,0.9,0.1,1.7,0.3,2.4s0.5,1.3,0.8,1.7c0.3,0.5,0.8,0.8,1.3,1s1.2,0.3,1.7,0.3 c0.7,0,1.2-0.1,1.6-0.2c0.3-0.1,0.7-0.3,1-0.6c0.2-0.2,0.5-0.3,0.7-0.6c0.2-0.1,0.5-0.2,0.7-0.2c0.3,0,0.6,0.1,0.7,0.3l1.2,1.5 c-0.5,0.6-0.9,0.9-1.5,1.4c-0.6,0.3-1,0.7-1.6,0.8c-0.6,0.2-1.2,0.3-1.7,0.5c-0.6,0.1-1.2,0.1-1.8,0.1c-1,0-2.1-0.2-3-0.6 c-0.9-0.3-1.7-0.9-2.4-1.7s-1.3-1.6-1.6-2.8c-0.3-1-0.6-2.3-0.6-3.7c0-1.3,0.2-2.4,0.6-3.5c0.3-1,0.9-2,1.6-2.8 c0.7-0.8,1.5-1.4,2.5-1.8c1-0.5,2.2-0.7,3.6-0.7c1.3,0,2.4,0.2,3.3,0.6c0.9,0.5,1.8,1,2.5,1.7L265.5,43.8z"></path> <path class="st0" d="M279.5,42.5c-0.1,0.2-0.2,0.3-0.3,0.3c-0.1,0.1-0.2,0.1-0.5,0.1c-0.2,0-0.5,0-0.7-0.1s-0.5-0.2-0.8-0.3 s-0.6-0.2-1-0.3c-0.3-0.1-0.8-0.1-1.4-0.1c-0.8,0-1.4,0.1-1.8,0.5c-0.5,0.3-0.7,0.8-0.7,1.4c0,0.3,0.1,0.7,0.3,0.9 c0.2,0.2,0.6,0.5,0.9,0.7s0.8,0.3,1.3,0.5c0.5,0.1,1,0.3,1.5,0.5s1,0.3,1.5,0.6c0.5,0.2,0.9,0.5,1.3,0.8c0.3,0.3,0.7,0.8,0.9,1.3 s0.3,1,0.3,1.7c0,0.8-0.1,1.6-0.5,2.3c-0.3,0.7-0.7,1.3-1.3,1.7s-1.3,0.9-2.1,1.2s-1.8,0.5-2.9,0.5c-0.6,0-1.2,0-1.7-0.1 c-0.6-0.1-1-0.2-1.6-0.5c-0.5-0.2-1-0.5-1.4-0.7c-0.5-0.2-0.8-0.6-1.2-0.8l0.9-1.5c0.1-0.2,0.2-0.3,0.5-0.5 c0.1-0.1,0.3-0.1,0.6-0.1s0.5,0.1,0.7,0.2c0.2,0.1,0.5,0.3,0.8,0.5s0.7,0.3,1,0.5c0.3,0.1,0.9,0.2,1.5,0.2c0.5,0,0.9-0.1,1.3-0.2 c0.3-0.1,0.6-0.2,0.8-0.5c0.2-0.2,0.3-0.3,0.5-0.7c0.1-0.2,0.1-0.5,0.1-0.8s-0.1-0.7-0.3-0.9c-0.2-0.2-0.6-0.5-0.9-0.7 s-0.8-0.3-1.4-0.5c-0.5-0.1-1-0.3-1.5-0.5s-1-0.3-1.5-0.6s-0.9-0.6-1.4-0.9c-0.3-0.3-0.7-0.8-0.9-1.4c-0.2-0.6-0.3-1.2-0.3-2 c0-0.7,0.1-1.4,0.5-2c0.2-0.6,0.7-1.2,1.3-1.6c0.6-0.5,1.2-0.8,2-1.2c0.8-0.2,1.7-0.5,2.8-0.5c1.2,0,2.2,0.2,3.2,0.6 c0.9,0.3,1.7,0.9,2.4,1.5L279.5,42.5z"></path> </g> </g> <g> <path class="st0" d="M53.2,40.8L53.2,40.8c-2.6-12.7-16.8-24.5-26.5-25.7l0,0c-0.8,0.5-1.4,1.2-2,1.8c5.6,0.6,10.6,4.3,16.2,10.4 c4.4,4.7,7.4,12.2,8.1,20.2c0.3,3.1,0.2,6.3-0.2,9.4C53.4,52,54.3,46.4,53.2,40.8z"></path> <path class="st0" d="M49,47.5c0.3,3.1,0.2,6.3-0.2,9.4c-5.2,5.8-22.9,8.6-34.2,7.8l0,0c-1.7-2.4-2.5-5.1-2.8-7.9 C26.1,59.6,41.5,55.2,49,47.5z"></path> <path class="st0" d="M38.3,29.3c3.3,5.3,2.6,14.7-1,20.3l-0.5-0.1c-2.4-1-5-3.5-7.1-6.6c7.4-9,3.3-15.8-1.8-17.2 c-1.5-0.5-3.2-0.3-4.6,0.2C28.1,23.6,34.6,23.9,38.3,29.3z"></path> <path class="st0" d="M23.1,26c1.5-0.7,3.1-0.7,4.6-0.2c-1.3,1.3-2.6,2.6-4,4.1C23.5,28.5,23.2,27.2,23.1,26L23.1,26L23.1,26z"></path> <path class="st0" d="M36.8,49.5c-2.4-1-5-3.5-7.1-6.6c-2.6-3.7-4.8-8.4-5.9-13c-0.3-1.3-0.6-2.6-0.7-3.9l0,0 c-0.3-3.6,0.1-6.8,1.7-9c0.6-0.7,1.2-1.4,2-1.8l0,0c-2.9-0.3-5.4,0.3-7.1,2.3l0,0c-1.3,1.5-2.1,3.7-2.2,6.7 c-0.2,1.5-0.3,3.8-0.3,6.3c0,2.4,0.1,5.3,0.3,8.1c1.2,10.5,5.3,21,16.5,14.4c1.3-0.7,2.4-1.8,3.3-3.2L36.8,49.5z"></path> <path class="st0" d="M11.8,57c-0.5-6,2.1-12.7,5.6-18.5c-0.3-2.8-0.5-5.5-0.3-8.1c-5.9,5.5-13,16-13.8,24.1 c-0.5,4.1,0.8,7.6,4.8,9.2c1.7,0.6,3.9,1,6.6,1.2l0,0C12.9,62.4,12.1,59.7,11.8,57z"></path> </g> </g> </svg> 