<?xml version="1.0" encoding="UTF-8"?> <svg xmlns="http://www.w3.org/2000/svg" width="482" height="252" viewBox="0 0 482 252" fill="none"> <g id="Group 6"> <g id="pro-7"> <rect id="Rectangle Copy 16" width="482" height="252" rx="8" transform="matrix(-1 0 0 1 482 0)" fill="url(#paint0_linear)"></rect> <mask id="mask0" maskUnits="userSpaceOnUse" x="0" y="0" width="482" height="252"> <rect id="Rectangle Copy 16_2" width="482" height="252" rx="8" transform="matrix(-1 0 0 1 482 0)" fill="white"></rect> </mask> <g mask="url(#mask0)"> <path id="Stroke 21 Copy 6" d="M97 -41L13 89.1081" stroke="white" stroke-width="10"></path> <path id="Stroke 21 Copy 14" d="M336 -108V51.8919" stroke="white" stroke-width="20"></path> <path id="Stroke 21 Copy 6_2" d="M55 177L-29 260" stroke="#FFCE6E" stroke-width="9"></path> <path id="Stroke 21 Copy 7" d="M455 118L371 201" stroke="white" stroke-width="2" stroke-linecap="round"></path> <path id="Stroke 21 Copy 8" d="M450.5 -93.9888V62.9889" stroke="#66CC66" stroke-width="11"></path> <path id="Stroke 21 Copy 24" d="M353.277 215.259L431.766 351.206" stroke="#66CC66" stroke-width="11"></path> <path id="Stroke 1 Copy 5" d="M261.721 105.1C282.229 103.771 301.047 92.6064 313.249 76.5202C321.294 65.9144 326.462 53.1691 327.341 39.6922" stroke="#222437" stroke-width="6"></path> <path id="Stroke 21 Copy 7_2" d="M213 208L107 313" stroke="white" stroke-width="4" stroke-linecap="round"></path> <path id="Stroke 21 Copy 17" d="M240.876 181.12C240.876 181.12 241.867 195.456 234.929 202.146C227.991 208.836 213.124 207.881 213.124 207.881C213.124 207.881 212.133 193.544 219.071 186.854C226.009 180.164 240.876 181.12 240.876 181.12Z" fill="#222437"></path> <path id="Stroke 21 Copy 8_2" d="M166 267L208 108" stroke="#66CC66" stroke-width="10"></path> <path id="Stroke 21 Copy 6_3" d="M152 155L179.186 202.308" stroke="#6C7BDF" stroke-width="6"></path> </g> </g> <path id="Title" d="M47.568 203.932C49.044 202.744 49.944 201.052 49.944 198.892C49.944 194.68 46.524 191.8 42.276 191.8H32.34V217H43.032C47.388 217 50.88 214.012 50.88 209.692C50.88 207.064 49.584 205.084 47.568 203.932ZM42.276 196.444C43.86 196.444 44.976 197.632 44.976 199.216C44.976 200.8 43.824 201.988 42.276 201.988H37.308V196.444H42.276ZM43.032 212.356H37.308V206.416H43.032C44.724 206.416 45.948 207.676 45.948 209.368C45.948 211.096 44.724 212.356 43.032 212.356ZM67.8821 199V201.124C66.5861 199.504 64.6421 198.496 62.0141 198.496C57.2261 198.496 53.2661 202.636 53.2661 208C53.2661 213.364 57.2261 217.504 62.0141 217.504C64.6421 217.504 66.5861 216.496 67.8821 214.876V217H72.5261V199H67.8821ZM62.8781 213.076C60.0341 213.076 57.9101 211.024 57.9101 208C57.9101 204.976 60.0341 202.924 62.8781 202.924C65.7581 202.924 67.8821 204.976 67.8821 208C67.8821 211.024 65.7581 213.076 62.8781 213.076ZM80.8807 204.112C80.8807 203.14 81.8167 202.636 82.9687 202.636C84.3007 202.636 85.3087 203.32 85.8487 204.472L89.8087 202.312C88.4047 199.828 85.8847 198.496 82.9687 198.496C79.2607 198.496 76.1287 200.548 76.1287 204.22C76.1287 210.556 85.4167 209.116 85.4167 211.744C85.4167 212.788 84.4087 213.292 82.9327 213.292C81.1327 213.292 79.9087 212.428 79.4047 210.952L75.3727 213.22C76.6687 215.992 79.3327 217.504 82.9327 217.504C86.7847 217.504 90.1687 215.632 90.1687 211.744C90.1687 205.12 80.8807 206.776 80.8807 204.112ZM95.4593 196.84C97.0433 196.84 98.3393 195.544 98.3393 193.996C98.3393 192.448 97.0433 191.116 95.4593 191.116C93.9113 191.116 92.6153 192.448 92.6153 193.996C92.6153 195.544 93.9113 196.84 95.4593 196.84ZM93.1553 217H97.7993V199H93.1553V217ZM110.618 217.504C114.146 217.504 117.206 215.632 118.754 212.824L114.722 210.52C114.002 211.996 112.454 212.896 110.582 212.896C107.81 212.896 105.758 210.844 105.758 208C105.758 205.12 107.81 203.068 110.582 203.068C112.418 203.068 113.966 204.004 114.686 205.48L118.682 203.14C117.206 200.368 114.146 198.496 110.618 198.496C105.146 198.496 101.114 202.636 101.114 208C101.114 213.364 105.146 217.504 110.618 217.504Z" fill="white"></path> <path id="Title Copy" d="M37.128 40.252C40.764 40.252 43.68 37.372 43.68 33.7C43.68 30.01 40.764 27.148 37.128 27.148C33.492 27.148 30.594 30.01 30.594 33.7C30.594 37.372 33.492 40.252 37.128 40.252ZM37.128 37.822C34.842 37.822 33.06 36.112 33.06 33.7C33.06 31.27 34.842 29.56 37.128 29.56C39.414 29.56 41.196 31.27 41.196 33.7C41.196 36.112 39.414 37.822 37.128 37.822ZM52.4099 31H44.4359V33.232H47.2799V40H49.6019V33.232H52.4099V31ZM61.9479 40L58.2219 35.446L61.8399 31H59.0679L55.9719 34.96V31H53.6499V40H55.9719V35.914L59.2479 40H61.9479ZM68.3449 30.748C67.0309 30.748 66.0769 31.234 65.4289 32.062V31H63.1069V43.6H65.4289V38.938C66.0769 39.766 67.0309 40.252 68.3449 40.252C70.7569 40.252 72.7369 38.182 72.7369 35.5C72.7369 32.818 70.7569 30.748 68.3449 30.748ZM67.9129 38.038C66.4909 38.038 65.4289 37.012 65.4289 35.5C65.4289 33.988 66.4909 32.962 67.9129 32.962C69.3529 32.962 70.4149 33.988 70.4149 35.5C70.4149 37.012 69.3529 38.038 67.9129 38.038ZM78.4425 33.88H76.6965V31H74.3745V40H78.4425C80.4945 40 81.8445 38.776 81.8445 36.94C81.8445 35.104 80.4945 33.88 78.4425 33.88ZM82.8345 31V40H85.1565V31H82.8345ZM78.4605 37.948H76.6965V35.914H78.4605C79.1085 35.914 79.5765 36.328 79.5765 36.94C79.5765 37.552 79.1085 37.948 78.4605 37.948ZM94.3688 31H86.3948V33.232H89.2388V40H91.5608V33.232H94.3688V31ZM99.5413 40.252C102.187 40.252 104.311 38.182 104.311 35.5C104.311 32.818 102.187 30.748 99.5413 30.748C96.8953 30.748 94.7893 32.818 94.7893 35.5C94.7893 38.182 96.8953 40.252 99.5413 40.252ZM99.5413 37.984C98.1733 37.984 97.1113 36.958 97.1113 35.5C97.1113 34.042 98.1733 33.016 99.5413 33.016C100.927 33.016 101.989 34.042 101.989 35.5C101.989 36.958 100.927 37.984 99.5413 37.984ZM107.907 36.454H114.693C114.747 36.148 114.783 35.842 114.783 35.5C114.783 32.854 112.893 30.748 110.229 30.748C107.403 30.748 105.477 32.818 105.477 35.5C105.477 38.182 107.385 40.252 110.409 40.252C112.137 40.252 113.487 39.55 114.333 38.326L112.461 37.246C112.065 37.768 111.345 38.146 110.445 38.146C109.221 38.146 108.231 37.642 107.907 36.454ZM107.871 34.654C108.141 33.502 108.987 32.836 110.229 32.836C111.201 32.836 112.173 33.358 112.461 34.654H107.871ZM125.188 40.252C127.834 40.252 129.958 38.182 129.958 35.5C129.958 32.818 127.834 30.748 125.188 30.748C122.542 30.748 120.436 32.818 120.436 35.5C120.436 38.182 122.542 40.252 125.188 40.252ZM125.188 37.984C123.82 37.984 122.758 36.958 122.758 35.5C122.758 34.042 123.82 33.016 125.188 33.016C126.574 33.016 127.636 34.042 127.636 35.5C127.636 36.958 126.574 37.984 125.188 37.984ZM135.857 40.252C138.611 40.252 140.393 38.452 140.393 36.022C140.393 33.502 138.413 32.044 136.559 32.044C135.605 32.044 134.579 32.332 133.859 33.07C134.147 32.278 134.669 31.72 136.289 31.09C138.161 30.37 139.457 29.74 139.799 28.156L137.891 27.058C137.441 28.408 136.469 28.642 134.561 29.578C131.663 31 131.123 32.512 131.123 35.41C131.123 38.182 132.977 40.252 135.857 40.252ZM135.839 38.128C134.561 38.128 133.553 37.228 133.553 35.95C133.553 34.636 134.723 33.898 135.821 33.898C137.153 33.898 138.071 34.798 138.071 36.022C138.071 37.228 137.153 38.128 135.839 38.128ZM147.042 30.748C145.728 30.748 144.774 31.234 144.126 32.062V31H141.804V43.6H144.126V38.938C144.774 39.766 145.728 40.252 147.042 40.252C149.454 40.252 151.434 38.182 151.434 35.5C151.434 32.818 149.454 30.748 147.042 30.748ZM146.61 38.038C145.188 38.038 144.126 37.012 144.126 35.5C144.126 33.988 145.188 32.962 146.61 32.962C148.05 32.962 149.112 33.988 149.112 35.5C149.112 37.012 148.05 38.038 146.61 38.038ZM159.912 31V32.062C159.264 31.252 158.292 30.748 156.978 30.748C154.584 30.748 152.604 32.818 152.604 35.5C152.604 38.182 154.584 40.252 156.978 40.252C158.292 40.252 159.264 39.748 159.912 38.938V40H162.234V31H159.912ZM157.41 38.038C155.988 38.038 154.926 37.012 154.926 35.5C154.926 33.988 155.988 32.962 157.41 32.962C158.85 32.962 159.912 33.988 159.912 35.5C159.912 37.012 158.85 38.038 157.41 38.038ZM169.613 35.41C170.279 34.96 170.603 34.258 170.603 33.43C170.603 32.008 169.379 30.748 167.237 30.748C165.653 30.748 164.411 31.45 163.727 32.818L165.599 33.898C165.941 33.124 166.499 32.764 167.273 32.764C167.957 32.764 168.389 33.106 168.389 33.628C168.389 34.15 168.029 34.456 167.345 34.456H166.373V36.436H167.651C168.353 36.436 168.713 36.76 168.713 37.264C168.713 37.84 168.227 38.2 167.363 38.2C166.373 38.2 165.779 37.732 165.509 36.976L163.619 38.092C164.249 39.478 165.473 40.252 167.345 40.252C169.739 40.252 170.981 39.01 170.981 37.552C170.981 36.616 170.495 35.842 169.613 35.41ZM176.727 40.252C179.373 40.252 181.497 38.182 181.497 35.5C181.497 32.818 179.373 30.748 176.727 30.748C174.081 30.748 171.975 32.818 171.975 35.5C171.975 38.182 174.081 40.252 176.727 40.252ZM176.727 37.984C175.359 37.984 174.297 36.958 174.297 35.5C174.297 34.042 175.359 33.016 176.727 33.016C178.113 33.016 179.175 34.042 179.175 35.5C179.175 36.958 178.113 37.984 176.727 37.984ZM189.61 35.392C190.186 34.96 190.492 34.33 190.492 33.538C190.492 32.062 189.448 31 187.504 31H183.13V40H187.864C189.844 40 190.87 38.902 190.87 37.444C190.87 36.508 190.42 35.788 189.61 35.392ZM187.288 32.908C187.918 32.908 188.278 33.178 188.278 33.718C188.278 34.276 187.918 34.528 187.288 34.528H185.308V32.908H187.288ZM187.594 38.038H185.308V36.364H187.594C188.206 36.364 188.602 36.652 188.602 37.174C188.602 37.732 188.224 38.038 187.594 38.038ZM199.164 31V32.062C198.516 31.252 197.544 30.748 196.23 30.748C193.836 30.748 191.856 32.818 191.856 35.5C191.856 38.182 193.836 40.252 196.23 40.252C197.544 40.252 198.516 39.748 199.164 38.938V40H201.486V31H199.164ZM196.662 38.038C195.24 38.038 194.178 37.012 194.178 35.5C194.178 33.988 195.24 32.962 196.662 32.962C198.102 32.962 199.164 33.988 199.164 35.5C199.164 37.012 198.102 38.038 196.662 38.038ZM209.495 31V34.402H205.913V31H203.591V40H205.913V36.58H209.495V40H211.817V31H209.495ZM220.443 31L216.213 36.112V31H213.945V40H215.673L219.903 34.888V40H222.171V31H220.443ZM226.26 36.454H233.046C233.1 36.148 233.136 35.842 233.136 35.5C233.136 32.854 231.246 30.748 228.582 30.748C225.756 30.748 223.83 32.818 223.83 35.5C223.83 38.182 225.738 40.252 228.762 40.252C230.49 40.252 231.84 39.55 232.686 38.326L230.814 37.246C230.418 37.768 229.698 38.146 228.798 38.146C227.574 38.146 226.584 37.642 226.26 36.454ZM226.224 34.654C226.494 33.502 227.34 32.836 228.582 32.836C229.554 32.836 230.526 33.358 230.814 34.654H226.224Z" fill="#6C7BDF"></path> </g> <defs> <linearGradient id="paint0_linear" x1="572.698" y1="244.38" x2="548.904" y2="-36.1371" gradientUnits="userSpaceOnUse"> <stop stop-color="#A9AEFF"></stop> <stop offset="0.5139" stop-color="#ACECFE"></stop> <stop offset="1" stop-color="white"></stop> </linearGradient> </defs> </svg> 