<?xml version="1.0" encoding="UTF-8"?> <svg xmlns="http://www.w3.org/2000/svg" xmlns:xlink="http://www.w3.org/1999/xlink" width="942px" height="156px" viewBox="0 0 942 156"> <!-- Generator: Sketch 63.1 (92452) - https://sketch.com --> <title>Создавайтекурсыпоплану.СпланамиStepik:</title> <desc>Created with Sketch.</desc> <g id="Page-1" stroke="none" stroke-width="1" fill="none" fill-rule="evenodd"> <path d="M24.792,49.952 C33.496,49.952 41.112,45.668 45.192,38.936 L35.808,33.496 C33.768,37.168 29.62,39.344 24.792,39.344 C16.36,39.344 10.92,33.7 10.92,25.2 C10.92,16.7 16.36,11.056 24.792,11.056 C29.62,11.056 33.7,13.232 35.808,16.904 L45.192,11.464 C41.044,4.732 33.428,0.448 24.792,0.448 C10.444,0.448 0.04,11.192 0.04,25.2 C0.04,39.208 10.444,49.952 24.792,49.952 Z M67.462,49.952 C77.458,49.952 85.482,42.132 85.482,32 C85.482,21.868 77.458,14.048 67.462,14.048 C57.466,14.048 49.442,21.868 49.442,32 C49.442,42.132 57.466,49.952 67.462,49.952 Z M67.462,40.024 C63.042,40.024 59.642,36.828 59.642,32 C59.642,27.172 63.042,23.976 67.462,23.976 C71.882,23.976 75.282,27.172 75.282,32 C75.282,36.828 71.882,40.024 67.462,40.024 Z M102.312,49.952 C111.492,49.952 116.388,45.396 116.388,39.752 C116.388,36.284 114.62,33.428 111.424,31.728 C113.872,30.028 115.028,27.376 115.028,24.248 C115.028,18.876 110.268,14.048 101.972,14.048 C96.124,14.048 91.228,16.496 88.372,22.004 L96.6,26.696 C97.824,23.976 99.592,22.752 102.176,22.752 C104.08,22.752 105.372,23.568 105.372,25.2 C105.372,26.696 104.352,27.512 102.176,27.512 L98.504,27.512 L98.504,36.08 L103.264,36.08 C105.508,36.08 106.46,36.964 106.46,38.46 C106.46,40.16 104.964,41.112 102.448,41.112 C99.32,41.112 97.212,39.616 96.26,36.964 L88.032,41.86 C90.684,47.368 95.512,49.952 102.312,49.952 Z M129.206,58.112 L129.206,49 L148.11,49 L148.11,58.112 L158.038,58.112 L158.038,39.48 L153.618,39.48 L153.618,15 L126.214,15 L126.214,27.716 C126.214,33.564 125.194,36.828 123.494,39.48 L119.278,39.48 L119.278,58.112 L129.206,58.112 Z M143.69,39.48 L134.17,39.48 C135.462,36.42 136.142,32.68 136.142,27.716 L136.142,24.112 L143.69,24.112 L143.69,39.48 Z M177.18,49.952 C181.736,49.952 185.068,48.388 187.312,45.804 L187.312,49 L197.512,49 L197.512,15 L187.312,15 L187.312,18.196 C185.068,15.612 181.736,14.048 177.18,14.048 C168.272,14.048 160.928,21.868 160.928,32 C160.928,42.132 168.272,49.952 177.18,49.952 Z M179.22,40.296 C174.528,40.296 171.128,37.1 171.128,32 C171.128,26.9 174.528,23.704 179.22,23.704 C183.912,23.704 187.312,26.9 187.312,32 C187.312,37.1 183.912,40.296 179.22,40.296 Z M224.202,49 C231.75,49 235.762,44.92 235.762,39.276 C235.762,35.808 234.13,33.156 231.206,31.592 C233.314,30.028 234.402,27.648 234.402,24.724 C234.402,19.08 230.39,15 222.842,15 L205.842,15 L205.842,49 L224.202,49 Z M221.754,27.92 L215.362,27.92 L215.362,23.16 L221.754,23.16 C223.59,23.16 224.746,23.908 224.746,25.608 C224.746,27.24 223.59,27.92 221.754,27.92 Z M222.842,40.568 L215.362,40.568 L215.362,35.672 L222.842,35.672 C224.61,35.672 225.834,36.42 225.834,38.052 C225.834,39.752 224.61,40.568 222.842,40.568 Z M256.264,49.952 C260.82,49.952 264.152,48.388 266.396,45.804 L266.396,49 L276.596,49 L276.596,15 L266.396,15 L266.396,18.196 C264.152,15.612 260.82,14.048 256.264,14.048 C247.356,14.048 240.012,21.868 240.012,32 C240.012,42.132 247.356,49.952 256.264,49.952 Z M258.304,40.296 C253.612,40.296 250.212,37.1 250.212,32 C250.212,26.9 253.612,23.704 258.304,23.704 C262.996,23.704 266.396,26.9 266.396,32 C266.396,37.1 262.996,40.296 258.304,40.296 Z M311.106,10.988 L311.106,2.148 L290.706,2.148 L290.706,10.988 L311.106,10.988 Z M292.406,49 L306.958,32 L306.958,49 L316.886,49 L316.886,15 L309.406,15 L294.854,32 L294.854,15 L284.926,15 L284.926,49 L292.406,49 Z M342.624,49 L342.624,24.792 L352.756,24.792 L352.756,15 L322.156,15 L322.156,24.792 L332.424,24.792 L332.424,49 L342.624,49 Z M373.802,49.952 C380.262,49.952 385.294,47.572 388.626,42.948 L380.466,38.256 C379.106,39.752 376.726,40.84 373.938,40.84 C370.198,40.84 367.07,39.616 365.778,36.08 L389.918,36.08 C390.19,34.788 390.326,33.428 390.326,32 C390.326,21.732 382.982,14.048 373.054,14.048 C362.31,14.048 354.966,21.868 354.966,32 C354.966,42.132 362.174,49.952 373.802,49.952 Z M380.194,28.464 L365.574,28.464 C366.526,24.996 369.11,23.092 372.986,23.092 C376.046,23.092 379.106,24.52 380.194,28.464 Z M425.006,49 L425.006,33.972 L435.886,49 L447.446,49 L434.73,32 L447.106,15 L435.206,15 L425.006,29.892 L425.006,15 L414.806,15 L414.806,49 L425.006,49 Z M472.708,47.98 L484.336,15 L473.456,15 L467.064,35.876 L459.176,15 L448.296,15 L461.624,48.388 C460.06,51.992 457.884,53.08 453.328,53.08 L453.328,62.6 C462.168,63.076 468.9,58.792 472.708,47.98 Z M499.126,62.6 L499.126,45.804 C501.37,48.388 504.702,49.952 509.258,49.952 C518.166,49.952 525.51,42.132 525.51,32 C525.51,21.868 518.166,14.048 509.258,14.048 C504.702,14.048 501.37,15.612 499.126,18.196 L499.126,15 L488.926,15 L488.926,62.6 L499.126,62.6 Z M507.218,40.296 C502.526,40.296 499.126,37.1 499.126,32 C499.126,26.9 502.526,23.704 507.218,23.704 C511.91,23.704 515.31,26.9 515.31,32 C515.31,37.1 511.91,40.296 507.218,40.296 Z M548.46,49.952 C555.124,49.952 560.904,46.484 563.828,41.18 L554.92,36.08 C553.832,38.46 551.316,39.888 548.324,39.888 C543.904,39.888 540.64,36.692 540.64,32 C540.64,27.308 543.904,24.112 548.324,24.112 C551.316,24.112 553.764,25.54 554.92,27.92 L563.828,22.752 C560.904,17.516 555.056,14.048 548.46,14.048 C538.124,14.048 530.44,21.868 530.44,32 C530.44,42.132 538.124,49.952 548.46,49.952 Z M585.01,49 C593.238,49 598.338,44.24 598.338,37.1 C598.338,29.96 593.238,25.2 585.01,25.2 L579.298,25.2 L579.298,15 L569.098,15 L569.098,49 L585.01,49 Z M611.938,49 L611.938,15 L601.738,15 L601.738,49 L611.938,49 Z M585.078,40.16 L579.298,40.16 L579.298,34.04 L585.078,34.04 C587.118,34.04 588.41,35.332 588.41,37.1 C588.41,38.868 587.118,40.16 585.078,40.16 Z M648.318,49 L648.318,24.52 L659.878,24.52 L659.878,49 L670.078,49 L670.078,15 L638.118,15 L638.118,49 L648.318,49 Z M694.728,49.952 C704.724,49.952 712.748,42.132 712.748,32 C712.748,21.868 704.724,14.048 694.728,14.048 C684.732,14.048 676.708,21.868 676.708,32 C676.708,42.132 684.732,49.952 694.728,49.952 Z M694.728,40.024 C690.308,40.024 686.908,36.828 686.908,32 C686.908,27.172 690.308,23.976 694.728,23.976 C699.148,23.976 702.548,27.172 702.548,32 C702.548,36.828 699.148,40.024 694.728,40.024 Z M747.428,49 L747.428,24.52 L758.988,24.52 L758.988,49 L769.188,49 L769.188,15 L737.228,15 L737.228,49 L747.428,49 Z M789.554,34.924 L789.554,24.792 L796.898,24.792 L796.898,49 L807.098,49 L807.098,15 L779.354,15 L779.354,34.244 C779.354,38.46 777.654,40.432 774.458,39.48 L774.458,49 C784.386,50.156 789.554,45.192 789.554,34.924 Z M829.98,49.952 C834.536,49.952 837.868,48.388 840.112,45.804 L840.112,49 L850.312,49 L850.312,15 L840.112,15 L840.112,18.196 C837.868,15.612 834.536,14.048 829.98,14.048 C821.072,14.048 813.728,21.868 813.728,32 C813.728,42.132 821.072,49.952 829.98,49.952 Z M832.02,40.296 C827.328,40.296 823.928,37.1 823.928,32 C823.928,26.9 827.328,23.704 832.02,23.704 C836.712,23.704 840.112,26.9 840.112,32 C840.112,37.1 836.712,40.296 832.02,40.296 Z M868.842,49 L868.842,36.76 L880.402,36.76 L880.402,49 L890.602,49 L890.602,15 L880.402,15 L880.402,27.24 L868.842,27.24 L868.842,15 L858.642,15 L858.642,49 L868.842,49 Z M919.604,47.98 L931.232,15 L920.352,15 L913.96,35.876 L906.072,15 L895.192,15 L908.52,48.388 C906.956,51.992 904.78,53.08 900.224,53.08 L900.224,62.6 C909.064,63.076 915.796,58.792 919.604,47.98 Z M935.482,49.952 C939.018,49.952 941.942,47.028 941.942,43.492 C941.942,39.956 939.018,37.032 935.482,37.032 C931.946,37.032 929.022,39.956 929.022,43.492 C929.022,47.028 931.946,49.952 935.482,49.952 Z M24.792,142.952 C33.496,142.952 41.112,138.668 45.192,131.936 L35.808,126.496 C33.768,130.168 29.62,132.344 24.792,132.344 C16.36,132.344 10.92,126.7 10.92,118.2 C10.92,109.7 16.36,104.056 24.792,104.056 C29.62,104.056 33.7,106.232 35.808,109.904 L45.192,104.464 C41.044,97.732 33.428,93.448 24.792,93.448 C10.444,93.448 0.04,104.192 0.04,118.2 C0.04,132.208 10.444,142.952 24.792,142.952 Z M79.532,142 L79.532,117.52 L91.092,117.52 L91.092,142 L101.292,142 L101.292,108 L69.332,108 L69.332,142 L79.532,142 Z M121.658,127.924 L121.658,117.792 L129.002,117.792 L129.002,142 L139.202,142 L139.202,108 L111.458,108 L111.458,127.244 C111.458,131.46 109.758,133.432 106.562,132.48 L106.562,142 C116.49,143.156 121.658,138.192 121.658,127.924 Z M162.084,142.952 C166.64,142.952 169.972,141.388 172.216,138.804 L172.216,142 L182.416,142 L182.416,108 L172.216,108 L172.216,111.196 C169.972,108.612 166.64,107.048 162.084,107.048 C153.176,107.048 145.832,114.868 145.832,125 C145.832,135.132 153.176,142.952 162.084,142.952 Z M164.124,133.296 C159.432,133.296 156.032,130.1 156.032,125 C156.032,119.9 159.432,116.704 164.124,116.704 C168.816,116.704 172.216,119.9 172.216,125 C172.216,130.1 168.816,133.296 164.124,133.296 Z M200.946,142 L200.946,129.76 L212.506,129.76 L212.506,142 L222.706,142 L222.706,108 L212.506,108 L212.506,120.24 L200.946,120.24 L200.946,108 L190.746,108 L190.746,142 L200.946,142 Z M245.588,142.952 C250.144,142.952 253.476,141.388 255.72,138.804 L255.72,142 L265.92,142 L265.92,108 L255.72,108 L255.72,111.196 C253.476,108.612 250.144,107.048 245.588,107.048 C236.68,107.048 229.336,114.868 229.336,125 C229.336,135.132 236.68,142.952 245.588,142.952 Z M247.628,133.296 C242.936,133.296 239.536,130.1 239.536,125 C239.536,119.9 242.936,116.704 247.628,116.704 C252.32,116.704 255.72,119.9 255.72,125 C255.72,130.1 252.32,133.296 247.628,133.296 Z M284.042,142 L284.042,124.456 L291.658,136.288 L292.882,136.288 L300.498,124.456 L300.498,142 L310.29,142 L310.29,108 L300.498,108 L292.27,120.852 L284.042,108 L274.25,108 L274.25,142 L284.042,142 Z M326.1,142 L340.652,125 L340.652,142 L350.58,142 L350.58,108 L343.1,108 L328.548,125 L328.548,108 L318.62,108 L318.62,142 L326.1,142 Z M393.76,142.952 C404.096,142.952 411.44,137.512 411.44,128.332 C411.44,118.268 403.348,115.752 396.14,113.576 C388.728,111.332 387.572,109.836 387.572,107.66 C387.572,105.756 389.272,104.056 392.672,104.056 C397.024,104.056 399.268,106.164 400.9,109.564 L410.08,104.192 C406.612,97.188 400.492,93.448 392.672,93.448 C384.444,93.448 376.692,98.752 376.692,107.932 C376.692,117.044 383.628,120.444 390.7,122.416 C397.84,124.388 400.56,125.544 400.56,128.468 C400.56,130.304 399.268,132.344 394.1,132.344 C388.728,132.344 385.804,129.692 384.104,125.748 L374.72,131.188 C377.372,138.192 383.764,142.952 393.76,142.952 Z M436.294,142 L436.294,132.752 C431.806,133.024 429.29,132.752 429.29,129.828 L429.29,117.792 L436.294,117.792 L436.294,108 L429.29,108 L429.29,98.48 L419.09,101.54 L419.09,108 L413.65,108 L413.65,117.792 L419.09,117.792 L419.09,129.828 C419.09,139.348 422.966,143.36 436.294,142 Z M459.38,142.952 C465.84,142.952 470.872,140.572 474.204,135.948 L466.044,131.256 C464.684,132.752 462.304,133.84 459.516,133.84 C455.776,133.84 452.648,132.616 451.356,129.08 L475.496,129.08 C475.768,127.788 475.904,126.428 475.904,125 C475.904,114.732 468.56,107.048 458.632,107.048 C447.888,107.048 440.544,114.868 440.544,125 C440.544,135.132 447.752,142.952 459.38,142.952 Z M465.772,121.464 L451.152,121.464 C452.104,117.996 454.688,116.092 458.564,116.092 C461.624,116.092 464.684,117.52 465.772,121.464 Z M492.734,155.6 L492.734,138.804 C494.978,141.388 498.31,142.952 502.866,142.952 C511.774,142.952 519.118,135.132 519.118,125 C519.118,114.868 511.774,107.048 502.866,107.048 C498.31,107.048 494.978,108.612 492.734,111.196 L492.734,108 L482.534,108 L482.534,155.6 L492.734,155.6 Z M500.826,133.296 C496.134,133.296 492.734,130.1 492.734,125 C492.734,119.9 496.134,116.704 500.826,116.704 C505.518,116.704 508.918,119.9 508.918,125 C508.918,130.1 505.518,133.296 500.826,133.296 Z M530.848,105.008 C534.18,105.008 536.968,102.22 536.968,98.888 C536.968,95.556 534.18,92.768 530.848,92.768 C527.516,92.768 524.728,95.556 524.728,98.888 C524.728,102.22 527.516,105.008 530.848,105.008 Z M535.948,142 L535.948,108 L525.748,108 L525.748,142 L535.948,142 Z M554.478,142 L554.478,126.972 L565.358,142 L576.918,142 L564.202,125 L576.578,108 L564.678,108 L554.478,122.892 L554.478,94.4 L544.278,94.4 L544.278,142 L554.478,142 Z M587.288,119.832 C590.824,119.832 593.748,116.908 593.748,113.372 C593.748,109.836 590.824,106.912 587.288,106.912 C583.752,106.912 580.828,109.836 580.828,113.372 C580.828,116.908 583.752,119.832 587.288,119.832 Z M587.288,142.952 C590.824,142.952 593.748,140.028 593.748,136.492 C593.748,132.956 590.824,130.032 587.288,130.032 C583.752,130.032 580.828,132.956 580.828,136.492 C580.828,140.028 583.752,142.952 587.288,142.952 Z" id="Создавайтекурсыпоплану.СпланамиStepik:" fill="#222437" fill-rule="nonzero"></path> </g> </svg> 