<?xml version="1.0" encoding="UTF-8"?> <svg xmlns="http://www.w3.org/2000/svg" width="112" height="64" viewBox="0 0 112 64" fill="none"> <g clip-path="url(#clip0)"> <path d="M9.762 33.827v-15.15h7.454v15.634c0 2.33 1.527 4.72 4.546 4.72 3.018 0 4.51-2.37 4.51-4.72V18.677h7.455v15.11c0 6.042-3.782 11.979-11.965 11.979-8.184 0-12-5.937-12-11.94z" fill="#0072BC"></path> <path d="M41.051 9.517h-3.66l-2.433.672v.872h-7.974v-.925l-2.443-.955h-1.98l-.415-.227a.336.336 0 00.026-.13.436.436 0 00-.261-.385V7h-.306v1.453a.437.437 0 00-.262.383.412.412 0 00.031.127l-.436.218h-2.059l-2.33.99v.873H8.524v-.873l-2.416-.654H2.434L0 10.189v25.047A21.57 21.57 0 0021.544 56.78h.401A21.566 21.566 0 0043.49 35.236V10.202l-2.439-.685zm-.667 25.736a18.456 18.456 0 01-18.439 18.42h-.4a18.456 18.456 0 01-18.44-18.437V14.023h37.279v21.23z" fill="#0072BC"></path> <path d="M48.855 27.44h4.755v.934H51.74v4.798h-1.012v-4.798h-1.871v-.933zM54.962 29.408a1.944 1.944 0 11-2.02 1.945 1.893 1.893 0 012.02-1.945zm0 3.01a1.06 1.06 0 10-1.003-1.065.996.996 0 001.003 1.065zM57.79 29.5h.871l1.261 1.548 1.195-1.548h.825v3.707h-.947v-2.264L59.9 32.326h-.026l-1.13-1.383v2.264h-.946l-.009-3.707zM66.242 32.658a1.81 1.81 0 01-1.475.64 1.947 1.947 0 01-.091-3.89 2.06 2.06 0 011.491.506l-.436.75a1.235 1.235 0 00-.92-.366 1.025 1.025 0 00-1.03 1.055 1.043 1.043 0 001.07 1.065 1.262 1.262 0 00.954-.437l.437.677zM67.002 29.5h.95v3.707h-.95V29.5zm2.085 1.744l1.6 1.946H69.45l-1.466-1.872 1.335-1.836h1.195l-1.426 1.762zM71.246 33.207V29.5h.951v2.364l1.745-2.352h.95v3.708h-.95v-2.36l-1.745 2.347h-.95zM75.93 33.207V29.5h.946v2.365l1.745-2.352h.951v3.708h-.968v-2.36l-1.745 2.347h-.93zm1.413-5.561c0 .305.118.601.436.601.319 0 .393-.296.393-.601h.872a1.19 1.19 0 01-1.26 1.278 1.163 1.163 0 01-1.31-1.278h.869zM49.316 37.792h2.491v.872h-1.544v2.818h-.947v-3.69zM54.089 37.7a1.946 1.946 0 11-2.02 1.946 1.895 1.895 0 012.02-1.946zm0 3.01a1.06 1.06 0 10-1.004-1.064 1.005 1.005 0 001.004 1.064zM60.197 40.946a1.807 1.807 0 01-1.475.645 1.944 1.944 0 01-1.454-3.289 1.945 1.945 0 011.363-.602 2.077 2.077 0 011.492.502l-.437.75a1.248 1.248 0 00-.924-.362 1.03 1.03 0 00-1.03 1.056 1.043 1.043 0 001.073 1.064 1.278 1.278 0 00.956-.436l.436.672zM62.94 41.5c-.545 1.308-.872 1.648-1.435 1.648a1.308 1.308 0 01-.798-.288l.305-.72a.82.82 0 00.388.132c.24 0 .41-.188.567-.576l.083-.197-1.714-3.707h1.138l.873 2.028c.074.179.122.353.183.532.03-.183.073-.364.13-.54l.668-2.02h1.078l-1.466 3.707zM64.217 40.618h.47a4.026 4.026 0 00.52-1.936l.057-.873h2.735v2.827h.62v1.745h-.873v-.873h-2.617v.873h-.873l-.04-1.763zm1.457 0h1.378v-1.936h-.907l-.026.38a3.49 3.49 0 01-.445 1.556zM69.296 38.053c.4-.225.85-.346 1.308-.353 1.095 0 1.484.558 1.484 1.54v2.26h-.825v-.437a1.309 1.309 0 01-1.095.476 1.077 1.077 0 01-1.164-1.134c0-.816.602-1.204 1.352-1.204.298-.005.59.079.842.24.026-.62-.14-.96-.694-.96a2.18 2.18 0 00-.973.257l-.235-.685zm1.902 2.36v-.38a1.034 1.034 0 00-.65-.182c-.314 0-.593.148-.593.462 0 .314.23.436.527.436a.817.817 0 00.716-.336zM73.06 37.792h.946v.353a1.62 1.62 0 011.147-.436c1.02 0 1.68.79 1.68 1.889a1.906 1.906 0 01-1.96 2.002 1.841 1.841 0 01-.872-.183v1.744h-.946l.004-5.37zm.946 1.204v1.496c.231.154.507.23.785.218a1.012 1.012 0 001.038-1.1.929.929 0 00-.973-1.02 1.138 1.138 0 00-.85.406zM80.912 40.946a1.803 1.803 0 01-1.475.645 1.947 1.947 0 01-.091-3.89 2.077 2.077 0 011.491.5l-.436.751a1.247 1.247 0 00-.92-.362 1.025 1.025 0 00-1.03 1.056 1.043 1.043 0 001.069 1.064 1.26 1.26 0 00.955-.436l.437.672zM81.213 37.792h3.376v.946h-1.213V41.5h-.933v-2.76h-1.217l-.013-.947zM85.264 37.792c.323 0 .872-.044 1.461-.044 1.077 0 1.68.297 1.68.973a.824.824 0 01-.694.824c.519.122.794.436.794.873 0 .737-.572 1.12-1.767 1.12-.462 0-1.134-.038-1.474-.038v-3.708zm.946.741v.816h.62c.314 0 .567-.14.567-.436 0-.297-.236-.406-.594-.406-.222.009-.492.018-.593.026zm0 1.392v.824c.14 0 .397.035.628.035.437 0 .668-.174.668-.436s-.258-.436-.703-.436l-.593.013zM92.584 41.129a2.217 2.217 0 01-1.418.462 1.946 1.946 0 01-.035-3.89 1.698 1.698 0 011.745 1.744 1.61 1.61 0 01-.061.51h-2.678a1.025 1.025 0 001.116.873c.375.006.742-.112 1.043-.336l.288.637zm-2.465-1.85h1.82a.776.776 0 00-.847-.807.916.916 0 00-.973.807zM96.228 40.082h-1.623v1.417h-.95v-3.707h.95v1.4h1.623v-1.4h.947v3.707h-.947v-1.417zM100.798 40.082h-1.623v1.417h-.947v-3.707h.947v1.4h1.623v-1.4h.951v3.707h-.951v-1.417zM102.805 37.792h.946v1.012h.463c1.26 0 1.631.628 1.631 1.308s-.436 1.41-1.706 1.41h-1.334v-3.73zm.946 1.77v1.113h.371c.51 0 .715-.214.715-.554 0-.34-.196-.558-.706-.558h-.38zm2.617-1.77h.938v3.707h-.951l.013-3.707zM108.375 41.5v-3.708h.947v2.36l1.744-2.347h.947v3.708h-.947v-2.36l-1.744 2.346h-.947zm1.418-5.562c0 .305.113.602.436.602s.397-.297.397-.602h.872a1.197 1.197 0 01-.339.926 1.196 1.196 0 01-.921.352 1.173 1.173 0 01-1.245-.761 1.165 1.165 0 01-.064-.517h.864zM51.438 49.792c-.546 1.308-.873 1.644-1.435 1.644a1.308 1.308 0 01-.799-.288l.301-.715a.82.82 0 00.389.13c.24 0 .436-.187.571-.575l.079-.196-1.688-3.712h1.134l.872 2.028c.074.183.122.353.179.537.031-.185.075-.367.13-.546l.668-2.02h1.082l-1.483 3.713zM56.035 48.374h-1.623v1.418h-.951V46.08h.95v1.404h1.623V46.08h.947v3.712h-.947v-1.418zM58.037 49.792V46.08h.947v2.36l1.744-2.352h.947v3.704h-.947V47.44l-1.744 2.35h-.947zM62.719 46.08c.322 0 .872-.04 1.457-.04 1.081 0 1.683.297 1.683.973a.824.824 0 01-.693.825.873.873 0 01.79.872c0 .733-.568 1.121-1.745 1.121-.463 0-1.139-.04-1.475-.04l-.017-3.711zm.946.741v.816h.62c.314 0 .567-.14.567-.436 0-.297-.24-.402-.593-.402-.223.01-.493.018-.572.022h-.022zm0 1.396v.824c.14 0 .397.031.628.031.437 0 .668-.17.668-.436s-.257-.436-.702-.436l-.594.017zM70.037 49.42c-.409.303-.909.457-1.417.437a1.944 1.944 0 01-1.464-3.337 1.944 1.944 0 011.429-.55 1.688 1.688 0 011.745 1.72c.008.173-.011.346-.057.514h-2.66a1.02 1.02 0 001.111.872c.377.006.746-.114 1.047-.34l.266.685zm-2.464-1.831h1.819a.776.776 0 00-.846-.807.911.911 0 00-.973.807zM71.102 46.08h.95v.357c.309-.29.72-.447 1.143-.436 1.021 0 1.68.79 1.68 1.885a1.902 1.902 0 01-1.959 2.002c-.3.013-.6-.048-.872-.18v1.746h-.942V46.08zm.95 1.203v1.501c.23.154.505.23.781.214a1.009 1.009 0 001.038-1.095.928.928 0 00-.972-1.02 1.145 1.145 0 00-.842.4h-.005zM78.954 49.238a1.822 1.822 0 01-1.475.64 1.945 1.945 0 11-.091-3.886 2.08 2.08 0 011.492.502l-.437.75a1.24 1.24 0 00-.924-.362 1.02 1.02 0 00-1.03 1.052 1.036 1.036 0 001.073 1.064 1.261 1.261 0 00.956-.436l.436.676zM79.72 49.792V46.08h.947v2.36l1.745-2.352h.947v3.704h-.96V47.44l-1.745 2.35h-.933zM84.014 46.08h3.376v.95h-1.208v2.762h-.947V47.03h-1.221v-.951zM91.131 49.42c-.409.303-.909.457-1.417.437a1.944 1.944 0 11-.03-3.886 1.687 1.687 0 011.744 1.718c.006.174-.013.347-.057.515h-2.678a1.02 1.02 0 001.112.872c.377.006.745-.114 1.047-.34l.28.685zm-2.464-1.831h1.823a.777.777 0 00-.85-.807.92.92 0 00-.973.807zM91.787 46.08h3.376v.95h-1.212v2.762h-.947V47.03h-1.217v-.951zM51.62 15.829h-1.788v1.47h-.392v-3.246h.392v1.405h1.788v-1.405h.393V17.3h-.392v-1.47zM52.847 15.353c.21-.123.45-.188.693-.187.598 0 .803.31.803.872v1.278h-.35v-.283a.8.8 0 01-.67.305.602.602 0 01-.638-.646c0-.436.336-.663.79-.663a.952.952 0 01.519.131c0-.388-.061-.658-.476-.658a1.094 1.094 0 00-.575.157l-.096-.306zm1.147 1.374v-.261a.772.772 0 00-.471-.14c-.223 0-.436.1-.436.34 0 .24.135.332.375.332a.682.682 0 00.532-.27zM54.96 15.21h.372v1.744h1.112V15.21h.37v1.745h.35v.873h-.35v-.528h-1.853v-2.09zM57.578 17.299v-2.09h.37v1.558l1.21-1.558h.37v2.09h-.37v-1.553l-1.21 1.553h-.37zM61.166 15.166a1.09 1.09 0 11-1.113 1.09 1.055 1.055 0 011.113-1.09zm0 1.832a.741.741 0 100-1.482.741.741 0 000 1.482zM64.341 16.418h-1.16v.872h-.366v-2.08h.37v.872h1.16v-.873h.371v2.09h-.37l-.005-.881zM65.395 15.353c.212-.123.453-.188.698-.187.594 0 .803.31.803.872v1.278h-.353v-.283a.792.792 0 01-.668.305.604.604 0 01-.64-.646c0-.436.34-.663.789-.663a.951.951 0 01.519.131c0-.388-.061-.658-.476-.658a1.094 1.094 0 00-.575.157l-.097-.306zm1.148 1.374v-.261a.772.772 0 00-.471-.14c-.223 0-.437.1-.437.34 0 .24.136.332.376.332a.682.682 0 00.532-.27zM68.943 15.585h-.733l-.022.348c-.091 1.191-.41 1.392-.837 1.392l-.03-.358c.156 0 .436-.14.505-1.108l.04-.65h1.448v2.09h-.371v-1.714zM69.98 15.21h.371v.627h.38c.641 0 .829.35.829.72 0 .371-.214.742-.873.742h-.706v-2.09zm.371.976v.764h.306c.37 0 .506-.135.506-.38 0-.244-.14-.384-.498-.384h-.314zM73.583 16.418H72.41v.872h-.37v-2.08h.37v.872h1.16v-.873h.37v2.09h-.37l.013-.881zM74.626 15.21h.37v.627h.345c.641 0 .824.35.824.72 0 .371-.214.742-.872.742h-.672l.005-2.09zm.37.976v.764h.27c.371 0 .507-.135.507-.38 0-.244-.144-.384-.502-.384h-.275zm1.57-.977h.371v2.09h-.37v-2.09zM77.606 17.299v-2.09h.37v1.558l1.204-1.558h.37v2.09h-.37v-1.553l-1.204 1.553h-.37zm.64-3.154c.023.249.136.367.358.367.223 0 .323-.118.34-.367h.35a.643.643 0 01-.69.65.632.632 0 01-.702-.65h.345zM49.291 22.865v-2.09h.37v1.553l1.205-1.553h.37v2.09h-.37v-1.557l-1.204 1.557h-.371zM53.688 22.56a1.017 1.017 0 01-.803.348 1.09 1.09 0 11-.06-2.18 1.13 1.13 0 01.82.274l-.171.292a.873.873 0 00-.602-.218.741.741 0 00.04 1.483.793.793 0 00.597-.266l.179.266zM55.834 22.56a1.017 1.017 0 01-.802.348 1.09 1.09 0 11-.061-2.18 1.117 1.117 0 01.82.274l-.17.292a.846.846 0 00-.598-.218.741.741 0 10.035 1.483.782.782 0 00.597-.266l.18.266zM57.714 21.146h-.733v.354c-.096 1.186-.41 1.391-.842 1.391l-.026-.362c.157 0 .437-.14.506-1.104l.035-.65h1.453v2.09h-.371l-.022-1.719zM60.515 22.634c-.22.183-.498.281-.785.274a1.038 1.038 0 01-1.116-1.09 1.025 1.025 0 011.077-1.09.934.934 0 01.968.955c.001.084-.006.17-.021.253h-1.606a.662.662 0 00.729.623c.233.007.46-.07.641-.218l.113.293zm-1.509-1h1.27a.553.553 0 00-.603-.558.628.628 0 00-.667.559zM60.797 22.516h.27c.207-.363.318-.773.323-1.191l.03-.55h1.427v1.745h.345v.873h-.345v-.528h-1.692v.51h-.345l-.013-.86zm.654 0h1.008v-1.392h-.703l-.026.345a2.383 2.383 0 01-.279 1.047zM64.559 20.727a1.09 1.09 0 11-1.117 1.09 1.055 1.055 0 011.117-1.09zm0 1.832a.741.741 0 10-.72-.741.698.698 0 00.72.741zM66.203 20.775h.755c.584 0 .903.162.903.537a.48.48 0 01-.437.48c.336.06.489.23.489.488 0 .397-.314.611-.964.611h-.763l.017-2.116zm.37.297v.624h.468c.248 0 .436-.122.436-.327 0-.205-.21-.31-.476-.31-.179 0-.336.009-.427.013zm0 .872v.637h.437c.345 0 .532-.117.532-.336 0-.218-.179-.318-.515-.318l-.453.017zM68.505 20.92c.21-.128.452-.194.698-.193.593 0 .803.314.803.873v1.282h-.353v-.27a.802.802 0 01-.668.3.598.598 0 01-.641-.645c0-.436.34-.663.79-.663a.955.955 0 01.519.135c0-.388-.062-.658-.476-.658-.202-.002-.4.051-.576.152l-.096-.314zm1.148 1.373v-.266a.802.802 0 00-.472-.14c-.222 0-.436.105-.436.345s.135.327.375.327a.689.689 0 00.532-.266zM70.36 20.775h1.901v.371h-.763v1.719h-.37v-1.719h-.769v-.37zM74.36 22.634c-.22.183-.5.28-.786.274a1.038 1.038 0 01-1.117-1.09 1.026 1.026 0 011.073-1.09.931.931 0 01.973.955c.002.085-.007.17-.026.253h-1.601a.662.662 0 00.724.623.96.96 0 00.641-.218l.118.293zm-1.514-1h1.264a.553.553 0 00-.602-.558.628.628 0 00-.662.559zM76.357 21.146h-.733l-.026.354c-.091 1.186-.406 1.391-.838 1.391l-.026-.362c.157 0 .437-.14.502-1.104l.04-.65h1.452v2.09h-.37v-1.719zM77.397 20.775h.37v.62h.38c.641 0 .824.344.824.715 0 .37-.214.746-.872.746h-.703v-2.08zm.37.973v.768h.306c.366 0 .506-.135.506-.38 0-.244-.144-.388-.502-.388h-.31zM81.225 22.56a1.017 1.017 0 01-.803.348 1.09 1.09 0 11-.06-2.18 1.117 1.117 0 01.82.274l-.17.292a.842.842 0 00-.599-.218.741.741 0 00.035 1.483.78.78 0 00.598-.266l.179.266zM81.705 20.775h.37v2.09h-.37v-2.09zm.916 1l.999 1.09h-.515l-.942-1.069.873-1.02h.484l-.899.998zM84.014 22.865v-2.09h.37v1.553l1.209-1.553h.37v2.09h-.37v-1.557l-1.209 1.557h-.37zM86.635 22.865v-2.09h.37v1.553l1.209-1.553h.37v2.09h-.37v-1.557l-1.209 1.557h-.37zm.645-3.158c0 .253.136.366.358.366.222 0 .319-.113.336-.366h.349a.641.641 0 01-.685.65.637.637 0 01-.707-.65h.35z" fill="#231F20"></path> <path d="M11.364 43.65l1.422 1.44-.375.366-.51-.52-1.366 1.349-.392-.402 1.365-1.343-.515-.524.371-.366zM14.198 46.062a1.219 1.219 0 01.388 1.745 1.236 1.236 0 01-1.775.345 1.213 1.213 0 01-.393-1.745 1.241 1.241 0 011.78-.345zm-1.112 1.675a.677.677 0 00.994-.231.698.698 0 00-.183-1.008.694.694 0 00-.994.232.72.72 0 00.183 1.007zM15.786 47.061l.532.179.38 1.217 1.003-.746.501.17-.79 2.312-.527-.179.502-1.474-.951.685-.075-.026-.34-1.113-.497 1.466-.528-.183.79-2.308zM18.866 48.653a.727.727 0 01.872-.602.977.977 0 01.68.358l-.352.38a.435.435 0 00-.345-.21c-.153 0-.253.035-.266.148-.052.402.973.437.872 1.222a.759.759 0 01-.92.606.92.92 0 01-.772-.502l.362-.335a.7.7 0 00.488.322c.144 0 .236-.043.253-.161.044-.362-.972-.436-.872-1.226zM21.291 48.234l.558-.013.026 1.065.773-1.082.671-.017-.89 1.147 1.021 1.295-.71.013-.86-1.138.026 1.16-.558.013-.057-2.443zM24.944 49.027l-.909.144.077.483.909-.145-.077-.482zM25.924 47.676l.362-.1.667 2.347-.501.143-.463-1.635-.192.231-.379-.34.506-.646zM27.791 48.98a.641.641 0 01.075-.715.641.641 0 01-.533-.393.729.729 0 01.467-.933.737.737 0 011.02.236.641.641 0 01-.073.667.562.562 0 01.615.345c.196.436-.026.806-.489 1.025-.462.218-.907.14-1.086-.236l.005.004zm.432-1.19a.218.218 0 00.118-.306c-.057-.122-.174-.157-.336-.083-.161.074-.187.205-.14.306a.219.219 0 00.315.1l.043-.018zm.184.492a.27.27 0 00-.166.363c.056.122.192.191.397.095.205-.096.244-.253.187-.37a.257.257 0 00-.38-.105l-.038.017zM29.043 46.333l1.3-.938.21.288.549 2.172-.462.336-.498-2.007-.794.572-.305-.423zM32.056 46.302a.628.628 0 01-.183-.694.619.619 0 01-.772-.43.72.72 0 01.244-.782.727.727 0 011.034-.148.65.65 0 01.174.654.567.567 0 01.698.109.754.754 0 01-.1 1.125c-.354.367-.799.436-1.1.166h.005zm-.005-1.265a.222.222 0 000-.327c-.1-.096-.218-.087-.344.04a.223.223 0 00-.014.322.22.22 0 00.25.048.221.221 0 00.074-.052l.034-.03zm.35.393a.275.275 0 00-.027.401c.096.092.245.109.406-.057.161-.166.14-.318.04-.41a.257.257 0 00-.389.035l-.03.03z" fill="#0072BC"></path> </g> <defs> <clipPath id="clip0"> <path fill="#fff" transform="translate(0 7)" d="M0 0h112v49.78H0z"></path> </clipPath> </defs> </svg> 