<?xml version="1.0" encoding="UTF-8"?> <svg xmlns="http://www.w3.org/2000/svg" width="125" height="120" viewBox="0 0 125 120" fill="none"> <path d="M82.6156 75V75C82.6174 77.5483 84.6828 79.6136 87.231 79.6154V79.6154V79.6154C84.6828 79.6172 82.6174 81.6825 82.6156 84.2308V84.2308V84.2308C82.6138 81.6825 80.5485 79.6172 78.0002 79.6154V79.6154V79.6154C80.5485 79.6136 82.6138 77.5483 82.6156 75V75Z" stroke="url(#paint0_linear_910_311)" stroke-width="3" stroke-linejoin="round"></path> <path d="M28.6156 106V106C28.6174 108.548 30.6828 110.614 33.231 110.615V110.615V110.615C30.6828 110.617 28.6174 112.683 28.6156 115.231V115.231V115.231C28.6138 112.683 26.5485 110.617 24.0002 110.615V110.615V110.615C26.5485 110.614 28.6138 108.548 28.6156 106V106Z" stroke="url(#paint1_linear_910_311)" stroke-linejoin="round"></path> <g opacity="0.65" filter="url(#filter0_f_910_311)"> <rect x="31.5002" y="45.5" width="11" height="24" transform="rotate(-180 31.5002 45.5)" stroke="url(#paint2_linear_910_311)" stroke-width="11"></rect> </g> <path fill-rule="evenodd" clip-rule="evenodd" d="M50.0002 9.00003C50.0002 5.13404 53.1343 2.00003 57.0002 2.00003H65.0002C68.8662 2.00003 72.0002 5.13404 72.0002 9.00003C72.0002 11.3681 70.8244 13.4615 69.0247 14.7282C67.9284 15.4999 67.0002 16.6292 67.0002 17.9699V20C67.0002 20.5523 67.448 21 68.0002 21C68.5525 21 69.0002 21.4477 69.0002 22V25C69.0002 27.2092 67.2094 29 65.0002 29H57.0002C54.7911 29 53.0002 27.2092 53.0002 25V22C53.0002 21.4477 53.448 21 54.0002 21C54.5525 21 55.0002 20.5523 55.0002 20V17.9699C55.0002 16.6292 54.0721 15.4999 52.9758 14.7282C51.1761 13.4615 50.0002 11.3681 50.0002 9.00003Z" fill="url(#paint3_linear_910_311)"></path> <path fill-rule="evenodd" clip-rule="evenodd" d="M114 49C117.866 49 121 52.134 121 56L121 64C121 67.866 117.866 71 114 71C111.632 71 109.539 69.8242 108.272 68.0245C107.5 66.9282 106.371 66 105.03 66L103 66C102.448 66 102 66.4477 102 67C102 67.5523 101.553 68 101 68L98.0002 68C95.7911 68 94.0002 66.2092 94.0002 64L94.0002 56C94.0002 53.7909 95.7911 52 98.0002 52L101 52C101.553 52 102 52.4477 102 53C102 53.5523 102.448 54 103 54L105.03 54C106.371 54 107.5 53.0719 108.272 51.9756C109.539 50.1759 111.632 49 114 49Z" fill="url(#paint4_linear_910_311)"></path> <path d="M26.0002 53V35C26.0002 29.4772 30.4774 25 36.0002 25H88.0002C93.5231 25 98.0002 29.4772 98.0002 35V87C98.0002 92.5229 93.5231 97 88.0002 97H35.0002C30.0297 97 26.0002 92.9706 26.0002 88V88V68" stroke="url(#paint5_linear_910_311)" stroke-width="8" stroke-linecap="round"></path> <path d="M26.0002 53L28.4855 50.5148C30.736 48.2643 33.798 47 36.9806 47V47C42.5034 47 47.0002 51.4772 47.0002 57L47.0002 63C47.0002 68.5229 42.5034 73 36.9806 73V73C33.798 73 30.736 71.7357 28.4855 69.4853L26.0002 67" stroke="url(#paint6_linear_910_311)" stroke-width="8" stroke-linecap="round"></path> <rect x="90.1926" y="41.5771" width="11" height="26" rx="5.5" transform="rotate(-135 90.1926 41.5771)" stroke="url(#paint7_linear_910_311)" stroke-width="2"></rect> <defs> <filter id="filter0_f_910_311" x="0.000244141" y="1.00003" width="52" height="65" filterUnits="userSpaceOnUse" color-interpolation-filters="sRGB"> <feFlood flood-opacity="0" result="BackgroundImageFix"></feFlood> <feBlend mode="normal" in="SourceGraphic" in2="BackgroundImageFix" result="shape"></feBlend> <feGaussianBlur stdDeviation="7.5" result="effect1_foregroundBlur_910_311"></feGaussianBlur> </filter> <linearGradient id="paint0_linear_910_311" x1="80.9574" y1="82.0905" x2="79.9909" y2="76.7693" gradientUnits="userSpaceOnUse"> <stop stop-color="#564DE2"></stop> <stop offset="1" stop-color="#68AEFF"></stop> </linearGradient> <linearGradient id="paint1_linear_910_311" x1="26.5429" y1="104.323" x2="30.8241" y2="114.884" gradientUnits="userSpaceOnUse"> <stop stop-color="#4BFFDF"></stop> <stop offset="1" stop-color="#7AB7FE"></stop> </linearGradient> <linearGradient id="paint2_linear_910_311" x1="43.0601" y1="44.6404" x2="64.2971" y2="77.5718" gradientUnits="userSpaceOnUse"> <stop stop-color="#4BFFDF"></stop> <stop offset="1" stop-color="#7AB7FE"></stop> </linearGradient> <linearGradient id="paint3_linear_910_311" x1="57.0481" y1="22.7397" x2="53.6337" y2="7.42288" gradientUnits="userSpaceOnUse"> <stop stop-color="#564DE2"></stop> <stop offset="1" stop-color="#68AEFF"></stop> </linearGradient> <linearGradient id="paint4_linear_910_311" x1="100.261" y1="56.0479" x2="115.577" y2="52.6335" gradientUnits="userSpaceOnUse"> <stop stop-color="#564DE2"></stop> <stop offset="1" stop-color="#68AEFF"></stop> </linearGradient> <linearGradient id="paint5_linear_910_311" x1="49.0661" y1="80.3059" x2="41.5272" y2="38.8006" gradientUnits="userSpaceOnUse"> <stop stop-color="#564DE2"></stop> <stop offset="1" stop-color="#68AEFF"></stop> </linearGradient> <linearGradient id="paint6_linear_910_311" x1="30.8694" y1="55.3294" x2="43.111" y2="53.5334" gradientUnits="userSpaceOnUse"> <stop stop-color="#564DE2"></stop> <stop offset="1" stop-color="#68AEFF"></stop> </linearGradient> <linearGradient id="paint7_linear_910_311" x1="93.7735" y1="37.9036" x2="112.254" y2="59.0704" gradientUnits="userSpaceOnUse"> <stop stop-color="#4BFFDF"></stop> <stop offset="1" stop-color="#7AB7FE"></stop> </linearGradient> </defs> </svg> 