<?xml version="1.0" encoding="UTF-8"?> <svg xmlns="http://www.w3.org/2000/svg" width="772" height="150" viewBox="0 0 772 150" fill="none"> <path d="M267.555 28.7046V60.1516H231.616V28.7046H214.93V109.568H231.616V75.5542H267.555V109.568H284.241V28.7046H267.555Z" fill="black"></path> <path d="M324.032 132.67L359.33 51.8062H343.286L329.808 82.6114H326.599L311.839 51.8062H295.152L319.54 103.79L307.346 132.67H324.032Z" fill="black"></path> <path d="M398.477 63.3586C408.103 63.3586 412.596 71.06 412.596 80.6866C412.596 90.3132 408.103 98.0146 398.477 98.0146C388.85 98.0146 384.358 89.6715 384.358 80.6866C384.358 71.7017 388.85 63.3586 398.477 63.3586ZM368.955 51.8067V132.67H384.999V104.432H388.208C391.417 108.283 395.91 111.492 404.253 111.492C419.655 111.492 428.64 98.6563 428.64 80.6866C428.64 63.3586 419.655 49.8813 404.253 49.8813C395.91 49.8813 391.417 52.4484 388.208 56.9409H384.999V51.8067H368.955Z" fill="black"></path> <path d="M496.025 77.4777C495.384 61.4333 485.757 49.8813 467.787 49.8813C449.818 49.8813 438.266 61.4333 438.266 80.0448C438.266 98.6563 449.176 110.85 467.787 110.85C483.832 110.85 492.817 103.149 494.742 91.5968H478.698C477.414 95.4474 473.563 98.0146 467.787 98.0146C458.802 98.0146 454.31 92.2386 453.668 82.6119H495.384V77.4777H496.025ZM467.787 62.0751C474.847 62.0751 478.698 65.9257 479.981 72.3435H454.952C456.235 65.9257 460.086 62.0751 467.787 62.0751Z" fill="black"></path> <path d="M548.652 51.8062H543.518C534.533 51.8062 529.399 55.6568 528.115 58.2239H524.906V51.8062H509.504V110.208H525.548V84.5367C525.548 72.9848 531.324 66.567 543.518 66.567H549.294V51.8062H548.652Z" fill="black"></path> <path d="M607.697 67.8489C606.413 57.5805 597.428 50.521 583.309 50.521C565.981 50.521 558.28 58.8641 558.28 68.4907C558.28 78.7591 564.698 82.6098 573.683 84.5351L585.235 86.4605C591.011 87.744 593.578 89.0276 593.578 92.8782C593.578 97.3707 589.727 99.296 583.309 99.296C576.892 99.296 572.399 96.7289 571.757 91.5947H555.713C556.996 103.788 565.34 111.49 583.309 111.49C600.637 111.49 608.98 102.505 608.98 92.8782C608.98 81.3263 601.279 76.192 590.369 74.2667L580.1 72.9832C576.25 72.3414 573.683 71.6996 573.683 68.4907C573.683 65.2818 577.533 63.3565 582.026 63.3565C587.16 63.3565 590.369 64.6401 591.652 68.4907H607.697V67.8489Z" fill="black"></path> <path d="M680.215 109.567L660.32 69.1349L677.006 51.1651H659.037L637.216 73.6273V27.4194H621.172V109.567H637.216V92.8806L646.201 82.6122H649.41L662.887 110.209H680.215V109.567Z" fill="black"></path> <path d="M705.888 41.5385V27.4194H689.844V41.5385H705.888ZM705.888 51.8069H689.844V110.209H705.888V51.8069Z" fill="black"></path> <path d="M722.576 27.4194V109.567H738.621V27.4194H722.576Z" fill="black"></path> <path d="M755.307 27.4194V109.567H771.351V27.4194H755.307Z" fill="black"></path> <path d="M155.625 55.7692L134.425 19.2308C127.359 7.69231 115.153 0 101.02 0H59.2627C45.772 0 32.9237 7.05128 25.8572 19.2308L5.29991 55.7692C-1.76664 67.3077 -1.76664 82.0513 5.29991 94.2308L26.4996 130.769C33.5661 142.308 45.772 150 59.9051 150H101.662C115.153 150 128.001 142.949 135.068 130.769L156.267 94.2308C162.049 82.6923 162.049 67.9487 155.625 55.7692ZM92.0258 78.2051L82.3896 87.8205C81.7472 88.4615 80.4623 89.1026 79.8199 89.1026C79.1775 89.1026 77.8927 88.4615 77.2503 87.8205C75.9654 86.5385 75.9654 83.9744 77.2503 82.0513L79.8199 79.4872H63.7596V90.3846C63.7596 96.1538 59.2627 100 54.1234 100H47.6992C41.9175 100 38.063 95.5128 38.063 90.3846V60.2564C38.063 54.4872 42.5599 50.641 47.6992 50.641H53.4809C59.2627 50.641 63.1172 55.1282 63.1172 60.2564V71.1538H79.1775L76.6078 68.5897C75.323 67.3077 75.323 64.7436 76.6078 62.8205C77.8927 61.5385 80.4623 61.5385 82.3896 62.8205L92.0258 72.4359C92.6682 73.0769 93.3106 74.359 93.3106 75C93.3106 76.282 92.6682 76.9231 92.0258 78.2051ZM122.219 99.359C122.219 105.128 118.365 108.974 113.225 108.974H107.444C101.662 108.974 97.8075 104.487 97.8075 99.359V51.282C97.8075 45.5128 102.304 41.6667 107.444 41.6667H112.583C118.365 41.6667 122.219 46.1538 122.219 51.282V99.359Z" fill="black"></path> </svg> 