<?xml version="1.0" encoding="UTF-8"?> <svg xmlns="http://www.w3.org/2000/svg" width="1640" height="2121" viewBox="0 0 1640 2121" fill="none"> <path fill-rule="evenodd" clip-rule="evenodd" d="M1427 409.429C1427 418.029 1419.8 425.229 1411 425.229C1402.4 425.229 1395.2 418.029 1395.2 409.429C1395.2 400.829 1402.4 393.429 1411 393.429C1419.8 393.429 1427 400.829 1427 409.429ZM803.8 510.829V537.229H717.2V397.229H802.8V423.629H744.8V453.429H797.8V479.429H744.8V510.829H803.8ZM847.8 483.229V537.229H822V437.229H847.8V448.429C853.8 439.429 864.2 434.429 877.6 434.429C898.8 434.429 915.4 449.229 915.4 475.829V537.229H889.6V479.029C889.6 465.429 881.4 458.429 869.8 458.429C857.2 458.429 847.8 465.829 847.8 483.229ZM994.6 537.229V513.829C979.8 514.629 972 514.429 972 503.629V462.029H994.6V437.229H972V409.229L946.2 417.029V437.229H928.8V462.029H946.2V503.629C946.2 530.629 958.4 541.229 994.6 537.229ZM1107.6 518.629C1098.2 532.229 1083.2 540.029 1064 540.029C1030.4 540.029 1009.2 517.029 1009.2 487.229C1009.2 457.429 1030.6 434.429 1062 434.429C1091.6 434.429 1112.6 457.829 1112.6 487.229C1112.6 491.029 1112.2 494.429 1111.6 497.829H1036.2C1039.8 511.029 1050.8 516.629 1064.4 516.629C1074.4 516.629 1082.4 512.429 1086.8 506.629L1107.6 518.629ZM1086.8 477.829H1035.8C1038.8 465.029 1048.2 457.629 1062 457.629C1072.8 457.629 1083.6 463.429 1086.8 477.829ZM1156.4 489.429V537.229H1130.6V437.229H1156.4V454.429C1161.6 440.829 1174.2 435.229 1186.8 435.229V464.029C1173.4 462.429 1156.4 468.429 1156.4 489.429ZM1227.6 577.229V525.429C1234.8 534.629 1245.4 540.029 1260 540.029C1286.8 540.029 1308.8 517.029 1308.8 487.229C1308.8 457.429 1286.8 434.429 1260 434.429C1245.4 434.429 1234.8 439.829 1227.6 449.029V437.229H1201.8V577.229H1227.6ZM1227.6 487.229C1227.6 504.029 1239.4 515.429 1255.2 515.429C1271.2 515.429 1283 504.029 1283 487.229C1283 470.429 1271.2 459.029 1255.2 459.029C1239.4 459.029 1227.6 470.429 1227.6 487.229ZM1352.8 537.229V489.429C1352.8 468.429 1369.8 462.429 1383.2 464.029V435.229C1370.6 435.229 1358 440.829 1352.8 454.429V437.229H1327V537.229H1352.8ZM1424 437.229H1398.2V537.229H1424V437.229ZM1523 508.029C1523 529.629 1504.2 540.029 1482.8 540.029C1462.8 540.029 1448 531.629 1440.8 516.229L1463.2 503.629C1466 511.829 1472.8 516.629 1482.8 516.629C1491 516.629 1496.6 513.829 1496.6 508.029C1496.6 502.309 1488.68 500.058 1479.05 497.319C1464.09 493.067 1445 487.64 1445 466.229C1445 445.829 1462.4 434.429 1483 434.429C1499.2 434.429 1513.2 441.829 1521 455.629L1499 467.629C1496 461.229 1490.4 457.429 1483 457.429C1476.6 457.429 1471.4 460.229 1471.4 465.629C1471.4 471.372 1479.17 473.501 1488.68 476.107C1503.68 480.216 1523 485.51 1523 508.029ZM1590.2 540.029C1609.4 540.029 1624.4 532.229 1633.8 518.629L1613 506.629C1608.6 512.429 1600.6 516.629 1590.6 516.629C1577 516.629 1566 511.029 1562.4 497.829H1637.8C1638.4 494.429 1638.8 491.029 1638.8 487.229C1638.8 457.829 1617.8 434.429 1588.2 434.429C1556.8 434.429 1535.4 457.429 1535.4 487.229C1535.4 517.029 1556.6 540.029 1590.2 540.029ZM1562 477.829H1613C1609.8 463.429 1599 457.629 1588.2 457.629C1574.4 457.629 1565 465.029 1562 477.829Z" fill="#66CC66"></path> <path d="M120 1637.43L120.5 2120.43" stroke="#222437" stroke-width="240"></path> <path d="M639.091 3L427 331.368" stroke="white" stroke-width="8"></path> <mask id="mask0" maskUnits="userSpaceOnUse" x="120" y="478" width="1218" height="1545"> <rect width="1218" height="1544" rx="8" transform="matrix(-1 0 0 1 1338 478.429)" fill="white"></rect> </mask> <g mask="url(#mask0)"> <rect width="1217" height="1565" rx="1" transform="matrix(-1 0 0 1 1337 478.429)" fill="url(#paint0_linear)"></rect> <path opacity="0.0555711" fill-rule="evenodd" clip-rule="evenodd" d="M1082.05 1376.51C1178.29 1368.09 1249.4 1282.41 1240.89 1185.14C1232.39 1087.88 1147.48 1015.85 1051.25 1024.27C955.017 1032.7 883.902 1118.37 892.409 1215.64C900.916 1312.91 985.823 1384.93 1082.05 1376.51Z" fill="#222437"></path> <path d="M1346.7 923.459C1346.7 923.459 1100.89 896.759 953 1193.43" stroke="#F6F6F6" stroke-width="3"></path> <path d="M591 987.429L420 1258.43" stroke="#FFCE6E" stroke-width="2"></path> <path opacity="0.14974" d="M970 1613.43V2116.43" stroke="#E9F9E9" stroke-width="120"></path> <path opacity="0.0994699" d="M876 1798.43V2297.43" stroke="#E9EBFA" stroke-width="200"></path> <path d="M1164 1747.66L896 2277.66" stroke="#222437" stroke-width="79"></path> <path d="M1268 1707.66C1268 1707.66 1181.33 1878.66 1008 2220.66" stroke="#FF7965" stroke-width="68"></path> <path d="M1340 1677.66C1340 1677.66 1253 1848.66 1079 2190.66" stroke="#F6F6F6" stroke-width="39"></path> <path d="M776 1865.43V1927.43" stroke="#FFF6E5" stroke-width="29"></path> <path d="M857 1865.43V1872.43" stroke="#FFF6E5" stroke-width="29"></path> <path d="M925 1912.43V1927.43" stroke="#FFF6E5" stroke-width="29"></path> <path d="M1220 1178.43V1347.43" stroke="#56A4FF" stroke-width="6" stroke-linecap="round"></path> </g> <path d="M803.8 537.229V537.729H804.3V537.229H803.8ZM803.8 510.829H804.3V510.329H803.8V510.829ZM717.2 537.229H716.7V537.729H717.2V537.229ZM717.2 397.229V396.729H716.7V397.229H717.2ZM802.8 397.229H803.3V396.729H802.8V397.229ZM802.8 423.629V424.129H803.3V423.629H802.8ZM744.8 423.629V423.129H744.3V423.629H744.8ZM744.8 453.429H744.3V453.929H744.8V453.429ZM797.8 453.429H798.3V452.929H797.8V453.429ZM797.8 479.429V479.929H798.3V479.429H797.8ZM744.8 479.429V478.929H744.3V479.429H744.8ZM744.8 510.829H744.3V511.329H744.8V510.829ZM847.8 537.229V537.729H848.3V537.229H847.8ZM822 537.229H821.5V537.729H822V537.229ZM822 437.229V436.729H821.5V437.229H822ZM847.8 437.229H848.3V436.729H847.8V437.229ZM847.8 448.429H847.3V450.08L848.216 448.706L847.8 448.429ZM915.4 537.229V537.729H915.9V537.229H915.4ZM889.6 537.229H889.1V537.729H889.6V537.229ZM994.6 513.829H995.1V513.301L994.573 513.329L994.6 513.829ZM994.6 537.229L994.655 537.726L995.1 537.677V537.229H994.6ZM972 462.029V461.529H971.5V462.029H972ZM994.6 462.029V462.529H995.1V462.029H994.6ZM994.6 437.229H995.1V436.729H994.6V437.229ZM972 437.229H971.5V437.729H972V437.229ZM972 409.229H972.5V408.555L971.855 408.75L972 409.229ZM946.2 417.029L946.055 416.55L945.7 416.658V417.029H946.2ZM946.2 437.229V437.729H946.7V437.229H946.2ZM928.8 437.229V436.729H928.3V437.229H928.8ZM928.8 462.029H928.3V462.529H928.8V462.029ZM946.2 462.029H946.7V461.529H946.2V462.029ZM1107.6 518.629L1108.01 518.913L1108.32 518.467L1107.85 518.196L1107.6 518.629ZM1111.6 497.829V498.329H1112.02L1112.09 497.916L1111.6 497.829ZM1036.2 497.829V497.329H1035.55L1035.72 497.96L1036.2 497.829ZM1086.8 506.629L1087.05 506.196L1086.67 505.975L1086.4 506.327L1086.8 506.629ZM1035.8 477.829L1035.31 477.715L1035.17 478.329H1035.8V477.829ZM1086.8 477.829V478.329H1087.42L1087.29 477.72L1086.8 477.829ZM1156.4 537.229V537.729H1156.9V537.229H1156.4ZM1130.6 537.229H1130.1V537.729H1130.6V537.229ZM1130.6 437.229V436.729H1130.1V437.229H1130.6ZM1156.4 437.229H1156.9V436.729H1156.4V437.229ZM1156.4 454.429H1155.9L1156.87 454.607L1156.4 454.429ZM1186.8 435.229H1187.3V434.729H1186.8V435.229ZM1186.8 464.029L1186.74 464.525L1187.3 464.592V464.029H1186.8ZM1227.6 525.429L1227.99 525.121L1227.1 523.979V525.429H1227.6ZM1227.6 577.229V577.729H1228.1V577.229H1227.6ZM1227.6 449.029H1227.1V450.479L1227.99 449.337L1227.6 449.029ZM1227.6 437.229H1228.1V436.729H1227.6V437.229ZM1201.8 437.229V436.729H1201.3V437.229H1201.8ZM1201.8 577.229H1201.3V577.729H1201.8V577.229ZM1352.8 537.229V537.729H1353.3V537.229H1352.8ZM1383.2 464.029L1383.14 464.525L1383.7 464.592V464.029H1383.2ZM1383.2 435.229H1383.7V434.729H1383.2V435.229ZM1352.8 454.429H1352.3L1353.27 454.607L1352.8 454.429ZM1352.8 437.229H1353.3V436.729H1352.8V437.229ZM1327 437.229V436.729H1326.5V437.229H1327ZM1327 537.229H1326.5V537.729H1327V537.229ZM1398.2 437.229V436.729H1397.7V437.229H1398.2ZM1424 437.229H1424.5V436.729H1424V437.229ZM1398.2 537.229H1397.7V537.729H1398.2V537.229ZM1424 537.229V537.729H1424.5V537.229H1424ZM1440.8 516.229L1440.55 515.793L1440.15 516.02L1440.35 516.44L1440.8 516.229ZM1463.2 503.629L1463.67 503.467L1463.48 502.898L1462.95 503.193L1463.2 503.629ZM1479.05 497.319L1479.19 496.839L1479.19 496.839L1479.05 497.319ZM1521 455.629L1521.24 456.068L1521.68 455.825L1521.44 455.383L1521 455.629ZM1499 467.629L1498.55 467.841L1498.77 468.322L1499.24 468.068L1499 467.629ZM1488.68 476.107L1488.81 475.625L1488.81 475.625L1488.68 476.107ZM1633.8 518.629L1634.21 518.913L1634.52 518.467L1634.05 518.196L1633.8 518.629ZM1613 506.629L1613.25 506.196L1612.87 505.975L1612.6 506.327L1613 506.629ZM1562.4 497.829V497.329H1561.75L1561.92 497.96L1562.4 497.829ZM1637.8 497.829V498.329H1638.22L1638.29 497.916L1637.8 497.829ZM1613 477.829V478.329H1613.62L1613.49 477.72L1613 477.829ZM1562 477.829L1561.51 477.715L1561.37 478.329H1562V477.829ZM1411 425.729C1420.07 425.729 1427.5 418.309 1427.5 409.429H1426.5C1426.5 417.748 1419.53 424.729 1411 424.729V425.729ZM1394.7 409.429C1394.7 418.305 1402.12 425.729 1411 425.729V424.729C1402.68 424.729 1395.7 417.753 1395.7 409.429H1394.7ZM1411 392.929C1402.12 392.929 1394.7 400.561 1394.7 409.429H1395.7C1395.7 401.097 1402.68 393.929 1411 393.929V392.929ZM1427.5 409.429C1427.5 400.557 1420.08 392.929 1411 392.929V393.929C1419.52 393.929 1426.5 401.101 1426.5 409.429H1427.5ZM804.3 537.229V510.829H803.3V537.229H804.3ZM717.2 537.729H803.8V536.729H717.2V537.729ZM716.7 397.229V537.229H717.7V397.229H716.7ZM802.8 396.729H717.2V397.729H802.8V396.729ZM803.3 423.629V397.229H802.3V423.629H803.3ZM744.8 424.129H802.8V423.129H744.8V424.129ZM745.3 453.429V423.629H744.3V453.429H745.3ZM797.8 452.929H744.8V453.929H797.8V452.929ZM798.3 479.429V453.429H797.3V479.429H798.3ZM744.8 479.929H797.8V478.929H744.8V479.929ZM745.3 510.829V479.429H744.3V510.829H745.3ZM803.8 510.329H744.8V511.329H803.8V510.329ZM848.3 537.229V483.229H847.3V537.229H848.3ZM822 537.729H847.8V536.729H822V537.729ZM821.5 437.229V537.229H822.5V437.229H821.5ZM847.8 436.729H822V437.729H847.8V436.729ZM848.3 448.429V437.229H847.3V448.429H848.3ZM877.6 433.929C864.072 433.929 853.497 438.982 847.384 448.151L848.216 448.706C854.103 439.875 864.328 434.929 877.6 434.929V433.929ZM915.9 475.829C915.9 462.423 911.715 451.94 904.809 444.806C897.904 437.672 888.319 433.929 877.6 433.929V434.929C888.081 434.929 897.396 438.585 904.091 445.501C910.785 452.417 914.9 462.635 914.9 475.829H915.9ZM915.9 537.229V475.829H914.9V537.229H915.9ZM889.6 537.729H915.4V536.729H889.6V537.729ZM889.1 479.029V537.229H890.1V479.029H889.1ZM869.8 458.929C875.5 458.929 880.313 460.647 883.699 463.985C887.083 467.321 889.1 472.331 889.1 479.029H890.1C890.1 472.127 888.017 466.837 884.401 463.273C880.787 459.71 875.7 457.929 869.8 457.929V458.929ZM848.3 483.229C848.3 474.616 850.625 468.558 854.433 464.653C858.24 460.749 863.596 458.929 869.8 458.929V457.929C863.403 457.929 857.76 459.809 853.717 463.955C849.675 468.1 847.3 474.441 847.3 483.229H848.3ZM994.1 513.829V537.229H995.1V513.829H994.1ZM971.5 503.629C971.5 506.384 971.997 508.525 973.027 510.158C974.064 511.8 975.606 512.874 977.588 513.552C979.559 514.226 981.98 514.516 984.812 514.591C987.647 514.667 990.927 514.528 994.627 514.328L994.573 513.329C990.873 513.529 987.628 513.666 984.838 513.591C982.045 513.517 979.741 513.231 977.912 512.606C976.094 511.984 974.761 511.032 973.873 509.624C972.978 508.207 972.5 506.274 972.5 503.629H971.5ZM971.5 462.029V503.629H972.5V462.029H971.5ZM994.6 461.529H972V462.529H994.6V461.529ZM994.1 437.229V462.029H995.1V437.229H994.1ZM972 437.729H994.6V436.729H972V437.729ZM971.5 409.229V437.229H972.5V409.229H971.5ZM946.345 417.507L972.145 409.707L971.855 408.75L946.055 416.55L946.345 417.507ZM946.7 437.229V417.029H945.7V437.229H946.7ZM928.8 437.729H946.2V436.729H928.8V437.729ZM929.3 462.029V437.229H928.3V462.029H929.3ZM946.2 461.529H928.8V462.529H946.2V461.529ZM946.7 503.629V462.029H945.7V503.629H946.7ZM994.545 536.732C976.467 538.729 964.534 537.057 957.12 531.65C949.739 526.267 946.7 517.072 946.7 503.629H945.7C945.7 517.185 948.761 526.791 956.53 532.458C964.266 538.1 976.533 539.728 994.655 537.726L994.545 536.732ZM1064 540.529C1083.35 540.529 1098.51 532.661 1108.01 518.913L1107.19 518.344C1097.89 531.797 1083.05 539.529 1064 539.529V540.529ZM1008.7 487.229C1008.7 502.249 1014.04 515.581 1023.65 525.158C1033.25 534.736 1047.08 540.529 1064 540.529V539.529C1047.32 539.529 1033.75 533.821 1024.35 524.45C1014.96 515.077 1009.7 502.008 1009.7 487.229H1008.7ZM1062 433.929C1030.31 433.929 1008.7 457.163 1008.7 487.229H1009.7C1009.7 457.695 1030.89 434.929 1062 434.929V433.929ZM1113.1 487.229C1113.1 457.582 1091.9 433.929 1062 433.929V434.929C1091.29 434.929 1112.1 458.075 1112.1 487.229H1113.1ZM1112.09 497.916C1112.7 494.496 1113.1 491.066 1113.1 487.229H1112.1C1112.1 490.992 1111.7 494.362 1111.11 497.742L1112.09 497.916ZM1036.2 498.329H1111.6V497.329H1036.2V498.329ZM1064.4 516.129C1057.66 516.129 1051.61 514.741 1046.81 511.754C1042.03 508.773 1038.45 504.18 1036.68 497.697L1035.72 497.96C1037.55 504.677 1041.27 509.484 1046.29 512.603C1051.29 515.716 1057.54 517.129 1064.4 517.129V516.129ZM1086.4 506.327C1082.11 511.988 1074.26 516.129 1064.4 516.129V517.129C1074.54 517.129 1082.69 512.869 1087.2 506.931L1086.4 506.327ZM1107.85 518.196L1087.05 506.196L1086.55 507.062L1107.35 519.062L1107.85 518.196ZM1035.8 478.329H1086.8V477.329H1035.8V478.329ZM1062 457.129C1055.01 457.129 1049.1 459.004 1044.54 462.534C1039.99 466.064 1036.84 471.22 1035.31 477.715L1036.29 477.943C1037.76 471.638 1040.81 466.694 1045.16 463.324C1049.5 459.953 1055.19 458.129 1062 458.129V457.129ZM1087.29 477.72C1085.66 470.411 1082.1 465.252 1077.54 461.925C1073 458.602 1067.49 457.129 1062 457.129V458.129C1067.31 458.129 1072.6 459.555 1076.96 462.732C1081.3 465.905 1084.74 470.846 1086.31 477.937L1087.29 477.72ZM1156.9 537.229V489.429H1155.9V537.229H1156.9ZM1130.6 537.729H1156.4V536.729H1130.6V537.729ZM1130.1 437.229V537.229H1131.1V437.229H1130.1ZM1156.4 436.729H1130.6V437.729H1156.4V436.729ZM1156.9 454.429V437.229H1155.9V454.429H1156.9ZM1186.8 434.729C1174.06 434.729 1161.23 440.4 1155.93 454.25L1156.87 454.607C1161.97 441.258 1174.34 435.729 1186.8 435.729V434.729ZM1187.3 464.029V435.229H1186.3V464.029H1187.3ZM1156.9 489.429C1156.9 479.084 1161.08 472.496 1166.85 468.671C1172.65 464.827 1180.13 463.735 1186.74 464.525L1186.86 463.532C1180.07 462.722 1172.35 463.83 1166.3 467.837C1160.22 471.861 1155.9 478.773 1155.9 489.429H1156.9ZM1227.1 525.429V577.229H1228.1V525.429H1227.1ZM1260 539.529C1245.54 539.529 1235.09 534.189 1227.99 525.121L1227.21 525.737C1234.51 535.068 1245.26 540.529 1260 540.529V539.529ZM1308.3 487.229C1308.3 516.785 1286.49 539.529 1260 539.529V540.529C1287.11 540.529 1309.3 517.272 1309.3 487.229H1308.3ZM1260 434.929C1286.49 434.929 1308.3 457.672 1308.3 487.229H1309.3C1309.3 457.185 1287.11 433.929 1260 433.929V434.929ZM1227.99 449.337C1235.09 440.268 1245.54 434.929 1260 434.929V433.929C1245.26 433.929 1234.51 439.389 1227.21 448.721L1227.99 449.337ZM1227.1 437.229V449.029H1228.1V437.229H1227.1ZM1201.8 437.729H1227.6V436.729H1201.8V437.729ZM1202.3 577.229V437.229H1201.3V577.229H1202.3ZM1227.6 576.729H1201.8V577.729H1227.6V576.729ZM1255.2 514.929C1239.68 514.929 1228.1 503.755 1228.1 487.229H1227.1C1227.1 504.302 1239.12 515.929 1255.2 515.929V514.929ZM1282.5 487.229C1282.5 495.508 1279.59 502.427 1274.75 507.275C1269.9 512.124 1263.08 514.929 1255.2 514.929V515.929C1263.32 515.929 1270.4 513.034 1275.45 507.982C1280.51 502.93 1283.5 495.749 1283.5 487.229H1282.5ZM1255.2 459.529C1263.08 459.529 1269.9 462.334 1274.75 467.182C1279.59 472.03 1282.5 478.949 1282.5 487.229H1283.5C1283.5 478.708 1280.51 471.527 1275.45 466.475C1270.4 461.424 1263.32 458.529 1255.2 458.529V459.529ZM1228.1 487.229C1228.1 470.702 1239.68 459.529 1255.2 459.529V458.529C1239.12 458.529 1227.1 470.155 1227.1 487.229H1228.1ZM1352.3 489.429V537.229H1353.3V489.429H1352.3ZM1383.26 463.532C1376.47 462.722 1368.75 463.83 1362.7 467.837C1356.62 471.861 1352.3 478.773 1352.3 489.429H1353.3C1353.3 479.084 1357.48 472.496 1363.25 468.671C1369.05 464.827 1376.53 463.735 1383.14 464.525L1383.26 463.532ZM1382.7 435.229V464.029H1383.7V435.229H1382.7ZM1353.27 454.607C1358.37 441.258 1370.74 435.729 1383.2 435.729V434.729C1370.46 434.729 1357.63 440.4 1352.33 454.25L1353.27 454.607ZM1352.3 437.229V454.429H1353.3V437.229H1352.3ZM1327 437.729H1352.8V436.729H1327V437.729ZM1327.5 537.229V437.229H1326.5V537.229H1327.5ZM1352.8 536.729H1327V537.729H1352.8V536.729ZM1398.2 437.729H1424V436.729H1398.2V437.729ZM1398.7 537.229V437.229H1397.7V537.229H1398.7ZM1424 536.729H1398.2V537.729H1424V536.729ZM1423.5 437.229V537.229H1424.5V437.229H1423.5ZM1482.8 540.529C1493.57 540.529 1503.73 537.912 1511.22 532.535C1518.72 527.144 1523.5 518.995 1523.5 508.029H1522.5C1522.5 518.662 1517.88 526.513 1510.63 531.723C1503.37 536.945 1493.43 539.529 1482.8 539.529V540.529ZM1440.35 516.44C1447.65 532.051 1462.65 540.529 1482.8 540.529V539.529C1462.95 539.529 1448.35 531.206 1441.25 516.017L1440.35 516.44ZM1462.95 503.193L1440.55 515.793L1441.05 516.665L1463.45 504.064L1462.95 503.193ZM1482.8 516.129C1477.88 516.129 1473.78 514.949 1470.58 512.789C1467.38 510.631 1465.04 507.475 1463.67 503.467L1462.73 503.79C1464.16 507.983 1466.62 511.326 1470.02 513.618C1473.42 515.909 1477.72 517.129 1482.8 517.129V516.129ZM1496.1 508.029C1496.1 510.733 1494.81 512.728 1492.52 514.073C1490.2 515.434 1486.86 516.129 1482.8 516.129V517.129C1486.94 517.129 1490.5 516.423 1493.03 514.935C1495.59 513.43 1497.1 511.125 1497.1 508.029H1496.1ZM1478.91 497.8C1483.75 499.175 1488.08 500.409 1491.21 502.002C1494.34 503.597 1496.1 505.46 1496.1 508.029H1497.1C1497.1 504.878 1494.9 502.756 1491.66 501.111C1488.43 499.464 1483.98 498.203 1479.19 496.839L1478.91 497.8ZM1444.5 466.229C1444.5 477.12 1449.37 483.975 1456.13 488.621C1462.85 493.24 1471.45 495.679 1478.91 497.8L1479.19 496.839C1471.69 494.707 1463.26 492.306 1456.7 487.796C1450.17 483.312 1445.5 476.748 1445.5 466.229H1444.5ZM1483 433.929C1472.61 433.929 1463 436.802 1455.97 442.284C1448.92 447.776 1444.5 455.87 1444.5 466.229H1445.5C1445.5 456.187 1449.78 448.381 1456.58 443.073C1463.4 437.755 1472.79 434.929 1483 434.929V433.929ZM1521.44 455.383C1513.54 441.409 1499.36 433.929 1483 433.929V434.929C1499.04 434.929 1512.86 442.248 1520.56 455.875L1521.44 455.383ZM1499.24 468.068L1521.24 456.068L1520.76 455.19L1498.76 467.19L1499.24 468.068ZM1483 457.929C1490.2 457.929 1495.63 461.61 1498.55 467.841L1499.45 467.416C1496.37 460.847 1490.6 456.929 1483 456.929V457.929ZM1471.9 465.629C1471.9 463.117 1473.1 461.216 1475.07 459.922C1477.07 458.616 1479.86 457.929 1483 457.929V456.929C1479.74 456.929 1476.73 457.641 1474.53 459.085C1472.3 460.542 1470.9 462.741 1470.9 465.629H1471.9ZM1488.81 475.625C1484.04 474.317 1479.78 473.146 1476.7 471.598C1473.62 470.05 1471.9 468.212 1471.9 465.629H1470.9C1470.9 468.789 1473.06 470.887 1476.25 472.491C1479.44 474.094 1483.81 475.291 1488.55 476.589L1488.81 475.625ZM1523.5 508.029C1523.5 496.591 1518.58 489.49 1511.75 484.753C1504.96 480.044 1496.29 477.674 1488.81 475.625L1488.55 476.589C1496.06 478.648 1504.56 480.98 1511.18 485.575C1517.76 490.142 1522.5 496.948 1522.5 508.029H1523.5ZM1633.39 518.344C1624.09 531.797 1609.25 539.529 1590.2 539.529V540.529C1609.55 540.529 1624.71 532.661 1634.21 518.913L1633.39 518.344ZM1612.75 507.062L1633.55 519.062L1634.05 518.196L1613.25 506.196L1612.75 507.062ZM1590.6 517.129C1600.74 517.129 1608.89 512.869 1613.4 506.931L1612.6 506.327C1608.31 511.988 1600.46 516.129 1590.6 516.129V517.129ZM1561.92 497.96C1563.75 504.677 1567.47 509.484 1572.49 512.603C1577.49 515.716 1583.74 517.129 1590.6 517.129V516.129C1583.86 516.129 1577.81 514.741 1573.01 511.754C1568.23 508.773 1564.65 504.18 1562.88 497.697L1561.92 497.96ZM1637.8 497.329H1562.4V498.329H1637.8V497.329ZM1638.3 487.229C1638.3 490.992 1637.9 494.362 1637.31 497.742L1638.29 497.916C1638.9 494.496 1639.3 491.066 1639.3 487.229H1638.3ZM1588.2 434.929C1617.49 434.929 1638.3 458.075 1638.3 487.229H1639.3C1639.3 457.582 1618.11 433.929 1588.2 433.929V434.929ZM1535.9 487.229C1535.9 457.695 1557.09 434.929 1588.2 434.929V433.929C1556.51 433.929 1534.9 457.163 1534.9 487.229H1535.9ZM1590.2 539.529C1573.52 539.529 1559.95 533.821 1550.55 524.45C1541.16 515.077 1535.9 502.008 1535.9 487.229H1534.9C1534.9 502.249 1540.24 515.581 1549.85 525.158C1559.45 534.736 1573.28 540.529 1590.2 540.529V539.529ZM1613 477.329H1562V478.329H1613V477.329ZM1588.2 458.129C1593.51 458.129 1598.8 459.555 1603.16 462.732C1607.5 465.905 1610.94 470.846 1612.51 477.937L1613.49 477.72C1611.86 470.411 1608.3 465.252 1603.74 461.925C1599.2 458.602 1593.69 457.129 1588.2 457.129V458.129ZM1562.49 477.943C1563.96 471.638 1567.01 466.694 1571.36 463.324C1575.7 459.953 1581.39 458.129 1588.2 458.129V457.129C1581.21 457.129 1575.3 459.004 1570.74 462.534C1566.19 466.064 1563.04 471.22 1561.51 477.715L1562.49 477.943Z" fill="#66CC66"></path> <defs> <linearGradient id="paint0_linear" x1="2092.18" y1="1541.04" x2="195.035" y2="-812.845" gradientUnits="userSpaceOnUse"> <stop stop-color="#2A264D"></stop> <stop offset="1" stop-color="#5F5ACE"></stop> </linearGradient> </defs> </svg> 