<?xml version="1.0" encoding="UTF-8"?> <svg xmlns="http://www.w3.org/2000/svg" width="482" height="252" viewBox="0 0 482 252" fill="none"> <g id="Group 26"> <g id="pro-7"> <rect id="Rectangle Copy 16" width="482" height="252" rx="8" transform="matrix(-1 0 0 1 482 0)" fill="url(#paint0_linear)"></rect> <mask id="mask0" maskUnits="userSpaceOnUse" x="0" y="0" width="482" height="252"> <rect id="Rectangle Copy 16_2" width="482" height="252" rx="8" transform="matrix(-1 0 0 1 482 0)" fill="white"></rect> </mask> <g mask="url(#mask0)"> <path id="Stroke 21 Copy 18" d="M388.503 114L327.997 167.281" stroke="#56A4FF" stroke-opacity="0.4" stroke-width="6"></path> <path id="Stroke 21 Copy 15" d="M383.586 236.226L168 427.059" stroke="#56A4FF" stroke-width="9"></path> <path id="Stroke 1 Copy 6" d="M331.254 95.9998C332.081 116.534 342.781 135.62 358.564 148.212C368.969 156.513 381.584 161.992 395.036 163.2" stroke="#222437" stroke-width="6"></path> <path id="Stroke 1 Copy 7" d="M448.496 -231C410.43 -187.658 395.236 -128.146 402.947 -71.9983C408.031 -34.98 423.07 0.575656 448.075 29.0703" stroke="#56A4FF" stroke-width="6"></path> <path id="Stroke 21 Copy 6" d="M29.9391 126L-11.0098 162.06" stroke="#6C7BDF" stroke-width="6"></path> <path id="Stroke 21 Copy 16" d="M94.6333 54L-5.20466 141.918" stroke="#56A4FF" stroke-width="6"></path> <path id="Stroke 21 Copy 17" d="M381.503 106L320.997 159.281" stroke="#6C7BDF" stroke-width="6"></path> <path id="Stroke 21 Copy 7" d="M450.925 199.006L171 452.409" stroke="white" stroke-width="10"></path> <path id="Stroke 21 Copy 6_2" d="M63.8122 117.741L-51 221.675" stroke="white" stroke-width="14"></path> </g> </g> <path id="Title" d="M41.736 191.8H32.34V217H37.308V208.72H41.736C46.596 208.72 50.34 204.976 50.34 200.26C50.34 195.544 46.596 191.8 41.736 191.8ZM41.736 204.076H37.308V196.444H41.736C43.86 196.444 45.408 198.064 45.408 200.26C45.408 202.42 43.86 204.076 41.736 204.076ZM65.8431 199V201.124C64.5471 199.504 62.6031 198.496 59.9751 198.496C55.1871 198.496 51.2271 202.636 51.2271 208C51.2271 213.364 55.1871 217.504 59.9751 217.504C62.6031 217.504 64.5471 216.496 65.8431 214.876V217H70.4871V199H65.8431ZM60.8391 213.076C57.9951 213.076 55.8711 211.024 55.8711 208C55.8711 204.976 57.9951 202.924 60.8391 202.924C63.7191 202.924 65.8431 204.976 65.8431 208C65.8431 211.024 63.7191 213.076 60.8391 213.076ZM77.0022 196.84C78.5862 196.84 79.8822 195.544 79.8822 193.996C79.8822 192.448 78.5862 191.116 77.0022 191.116C75.4542 191.116 74.1582 192.448 74.1582 193.996C74.1582 195.544 75.4542 196.84 77.0022 196.84ZM74.6982 217H79.3422V199H74.6982V217ZM97.2368 191.8V201.124C95.9408 199.468 94.0328 198.496 91.4048 198.496C86.5808 198.496 82.6208 202.636 82.6208 208C82.6208 213.364 86.5808 217.504 91.4048 217.504C94.0328 217.504 95.9408 216.532 97.2368 214.876V217H101.881V191.8H97.2368ZM92.2688 213.076C89.3888 213.076 87.2648 211.024 87.2648 208C87.2648 204.976 89.3888 202.924 92.2688 202.924C95.1128 202.924 97.2368 204.976 97.2368 208C97.2368 211.024 95.1128 213.076 92.2688 213.076Z" fill="#040823"></path> <path id="Title Copy" d="M40.854 37.624V27.4H32.538V33.358C32.538 35.572 32.088 36.796 31.494 37.624H30.27V42.412H32.754V40H39.72V42.412H42.204V37.624H40.854ZM34.158 37.624C34.626 36.814 35.022 35.554 35.022 33.394V29.722H38.37V37.624H34.158ZM47.6858 40.252C50.3318 40.252 52.4558 38.182 52.4558 35.5C52.4558 32.818 50.3318 30.748 47.6858 30.748C45.0398 30.748 42.9338 32.818 42.9338 35.5C42.9338 38.182 45.0398 40.252 47.6858 40.252ZM47.6858 37.984C46.3178 37.984 45.2558 36.958 45.2558 35.5C45.2558 34.042 46.3178 33.016 47.6858 33.016C49.0718 33.016 50.1338 34.042 50.1338 35.5C50.1338 36.958 49.0718 37.984 47.6858 37.984ZM62.3153 31H54.0893V40H56.4113V33.178H59.9933V40H62.3153V31ZM68.7269 40.252C71.3729 40.252 73.4969 38.182 73.4969 35.5C73.4969 32.818 71.3729 30.748 68.7269 30.748C66.0809 30.748 63.9749 32.818 63.9749 35.5C63.9749 38.182 66.0809 40.252 68.7269 40.252ZM68.7269 37.984C67.3589 37.984 66.2969 36.958 66.2969 35.5C66.2969 34.042 67.3589 33.016 68.7269 33.016C70.1129 33.016 71.1749 34.042 71.1749 35.5C71.1749 36.958 70.1129 37.984 68.7269 37.984ZM82.6238 31H75.4958V36.112C75.4958 37.516 74.9738 38.056 74.0198 37.822V40C76.4498 40.27 77.8178 39.082 77.8178 36.238V33.232H80.3018V40H82.6238V31ZM90.632 31V34.402H87.05V31H84.728V40H87.05V36.58H90.632V40H92.954V31H90.632ZM101.58 31L97.3495 36.112V31H95.0815V40H96.8095L101.04 34.888V40H103.308V31H101.58ZM112.527 31H104.553V33.232H107.397V40H109.719V33.232H112.527V31ZM115.378 36.454H122.164C122.218 36.148 122.254 35.842 122.254 35.5C122.254 32.854 120.364 30.748 117.7 30.748C114.874 30.748 112.948 32.818 112.948 35.5C112.948 38.182 114.856 40.252 117.88 40.252C119.608 40.252 120.958 39.55 121.804 38.326L119.932 37.246C119.536 37.768 118.816 38.146 117.916 38.146C116.692 38.146 115.702 37.642 115.378 36.454ZM115.342 34.654C115.612 33.502 116.458 32.836 117.7 32.836C118.672 32.836 119.644 33.358 119.932 34.654H115.342ZM131.245 31H124.117V36.112C124.117 37.516 123.595 38.056 122.641 37.822V40C125.071 40.27 126.439 39.082 126.439 36.238V33.232H128.923V40H131.245V31ZM137.417 33.88H135.671V31H133.349V40H137.417C139.469 40 140.819 38.776 140.819 36.94C140.819 35.104 139.469 33.88 137.417 33.88ZM137.435 37.948H135.671V35.914H137.435C138.083 35.914 138.551 36.328 138.551 36.94C138.551 37.552 138.083 37.948 137.435 37.948ZM148.183 31V34.402H144.601V31H142.279V40H144.601V36.58H148.183V40H150.505V31H148.183ZM159.472 31V32.062C158.824 31.252 157.852 30.748 156.538 30.748C154.144 30.748 152.164 32.818 152.164 35.5C152.164 38.182 154.144 40.252 156.538 40.252C157.852 40.252 158.824 39.748 159.472 38.938V40H161.794V31H159.472ZM156.97 38.038C155.548 38.038 154.486 37.012 154.486 35.5C154.486 33.988 155.548 32.962 156.97 32.962C158.41 32.962 159.472 33.988 159.472 35.5C159.472 37.012 158.41 38.038 156.97 38.038ZM171.118 31H166.906C164.872 31 163.648 32.494 163.648 34.096C163.648 35.284 164.368 36.436 165.538 36.922L163.288 40H165.97L168.04 37.192H168.85V40H171.118V31ZM167.086 33.07H168.85V35.23H167.086C166.42 35.23 165.916 34.834 165.916 34.168C165.916 33.484 166.42 33.07 167.086 33.07ZM187.094 31H184.808L182.414 34.78L180.02 31H177.734V40H179.966V34.708L182.27 38.344H182.558L184.844 34.744V40H187.094V31ZM193.496 40.252C196.142 40.252 198.266 38.182 198.266 35.5C198.266 32.818 196.142 30.748 193.496 30.748C190.85 30.748 188.744 32.818 188.744 35.5C188.744 38.182 190.85 40.252 193.496 40.252ZM193.496 37.984C192.128 37.984 191.066 36.958 191.066 35.5C191.066 34.042 192.128 33.016 193.496 33.016C194.882 33.016 195.944 34.042 195.944 35.5C195.944 36.958 194.882 37.984 193.496 37.984ZM206.64 31H198.666V33.232H201.51V40H203.832V33.232H206.64V31ZM214.378 31L210.148 36.112V31H207.88V40H209.608L213.838 34.888V40H216.106V31H214.378ZM224.714 35.392C225.29 34.96 225.596 34.33 225.596 33.538C225.596 32.062 224.552 31 222.608 31H218.234V40H222.968C224.948 40 225.974 38.902 225.974 37.444C225.974 36.508 225.524 35.788 224.714 35.392ZM222.392 32.908C223.022 32.908 223.382 33.178 223.382 33.718C223.382 34.276 223.022 34.528 222.392 34.528H220.412V32.908H222.392ZM222.698 38.038H220.412V36.364H222.698C223.31 36.364 223.706 36.652 223.706 37.174C223.706 37.732 223.328 38.038 222.698 38.038ZM234.267 31V32.062C233.619 31.252 232.647 30.748 231.333 30.748C228.939 30.748 226.959 32.818 226.959 35.5C226.959 38.182 228.939 40.252 231.333 40.252C232.647 40.252 233.619 39.748 234.267 38.938V40H236.589V31H234.267ZM231.765 38.038C230.343 38.038 229.281 37.012 229.281 35.5C229.281 33.988 230.343 32.962 231.765 32.962C233.205 32.962 234.267 33.988 234.267 35.5C234.267 37.012 233.205 38.038 231.765 38.038ZM246.615 37.822V31H244.293V37.822H241.017V31H238.695V40H245.859V42.412H248.127V37.822H246.615ZM256.091 31L251.861 36.112V31H249.593V40H251.321L255.551 34.888V40H257.819V31H256.091ZM267.165 31H262.953C260.919 31 259.695 32.494 259.695 34.096C259.695 35.284 260.415 36.436 261.585 36.922L259.335 40H262.017L264.087 37.192H264.897V40H267.165V31ZM263.133 33.07H264.897V35.23H263.133C262.467 35.23 261.963 34.834 261.963 34.168C261.963 33.484 262.467 33.07 263.133 33.07Z" fill="#040823"></path> </g> <defs> <linearGradient id="paint0_linear" x1="572.698" y1="244.38" x2="488.937" y2="-48.9031" gradientUnits="userSpaceOnUse"> <stop stop-color="#C0E1FF"></stop> <stop offset="1" stop-color="white"></stop> </linearGradient> </defs> </svg> 