<?xml version="1.0" encoding="UTF-8"?> <svg xmlns="http://www.w3.org/2000/svg" viewBox="0 0 458 52" width="163" height="18.5"> <g fill="none"> <path fill="#3C9673" d="M450.174.203v21.425l-51.808-.047V50.56h7.647V29.194h44.16V50.56h7.688V.203zM336.13 6.386c-4.573 4.09-6.9 10.561-6.9 19.236-.09 3.904.48 7.795 1.685 11.51a17.691 17.691 0 005.115 7.667 21.581 21.581 0 008.831 4.344 53.481 53.481 0 0012.964 1.344h30.886v-7.52h-30.543c-7.333 0-12.757-1.438-16.113-4.27-3.356-2.834-5.1-7.279-5.1-13.16 0-5.88 1.732-10.287 5.136-13.249 3.404-2.962 8.823-4.484 16.162-4.484h30.5v-7.6h-30.847c-9.857 0-17.188 2.081-21.781 6.183"></path> <g fill="#3C9673"> <path d="M260.011 42.966H319.6v7.566h-59.589zM260.011 21.581H319.6v7.574h-59.589zM277.3.203h42.3v7.574h-42.3z"></path> </g> <path fill="#BECD32" d="M208.163 7.777h25.923v42.759h7.649V7.777h25.923V.203h-59.5z"></path> <path fill="#BECD32" d="M208.17 39.689L164.239.201h-8v50.334h7.647V10.549l44.55 39.983h7.385V17.411h-7.647z"></path> <path fill="#3C9673" d="M117.916.203h-2.82c-9.863 0-17.2 2.081-21.768 6.183-4.568 4.102-6.915 10.561-6.915 19.236a34.845 34.845 0 001.684 11.508c1 2.963 2.765 5.608 5.117 7.668a21.561 21.561 0 008.843 4.358 53.488 53.488 0 0012.966 1.344h2.993a53.711 53.711 0 0012.925-1.344 21.656 21.656 0 008.87-4.344 17.714 17.714 0 005.1-7.682 34.923 34.923 0 001.685-11.522c0-8.675-2.337-15.147-6.943-19.236S127.721.203 117.913.203m15.845 38.54c-3.357 2.8-8.768 4.224-16.115 4.224h-2.3c-7.332 0-12.758-1.437-16.115-4.27-3.357-2.833-5.1-7.272-5.1-13.16s1.726-10.285 5.129-13.274c3.403-2.989 8.823-4.486 16.162-4.486h2.485c7.164.055 12.495 1.612 15.851 4.613 3.356 3.001 5.09 7.473 5.09 13.234.006 5.883-1.713 10.3-5.1 13.12M69.217.201h7.654v50.358h-7.654zM56.139 3.835a12.349 12.349 0 00-4.4-2.646 18.825 18.825 0 00-6.378-.987H0v7.574h45.362a6.637 6.637 0 014.794 1.706 6.843 6.843 0 011.779 5.136 7.148 7.148 0 01-1.766 5.211 6.494 6.494 0 01-4.807 1.8H7.655v-.047H0v28.98h45.362a19.021 19.021 0 006.459-.982 12.479 12.479 0 004.4-2.644 10.183 10.183 0 002.53-3.882c.56-1.563.84-3.213.827-4.874v-4.345c0-5.089-5.99-8.29-8.301-8.29a.175.175 0 01-.167-.176c0-.092.075-.167.167-.168 2.311 0 8.3-3.2 8.3-8.3v-4.317a13.444 13.444 0 00-.865-4.82 10.654 10.654 0 00-2.579-3.928m-4.2 32.29a6.8 6.8 0 01-1.779 5.135 6.646 6.646 0 01-4.794 1.706h-34.7v.041H7.655V29.156h3.008v.041h35.585c3.781.37 5.688 2.7 5.688 6.93"></path> </g> </svg> 