<?xml version="1.0" encoding="UTF-8"?> <!-- Generator: Adobe Illustrator 22.0.1, SVG Export Plug-In . SVG Version: 6.00 Build 0) --> <svg xmlns="http://www.w3.org/2000/svg" xmlns:xlink="http://www.w3.org/1999/xlink" id="Layer_1" x="0px" y="0px" viewBox="0 0 115 120" style="enable-background:new 0 0 115 120;" xml:space="preserve"> <style type="text/css"> .st0{fill:#FFFFFF;} </style> <g> <path class="st0" d="M30,64.4V29.7h17.1v35.8c0,5.3,3.5,10.8,10.4,10.8c6.8,0,10.3-5.5,10.3-10.8V29.7H85v34.6 c0,13.8-8.7,27.5-27.4,27.5C38.8,91.8,30,78.2,30,64.4z"></path> <path class="st0" d="M101.8,8.7h-8.4l-5.6,1.5v2H69.5v-2.1L63.9,8h-4.5l-0.9-0.5c0-0.1,0.1-0.2,0.1-0.3c0-0.4-0.3-0.7-0.6-0.9V2.9 h-0.7v3.3c-0.3,0.1-0.6,0.5-0.6,0.9c0,0.1,0,0.2,0.1,0.3l-1,0.5h-4.8l-5.3,2.2v2H27.2v-2l-5.6-1.5h-8.4l-5.6,1.5v8l0,0v49.4 c0,27.2,22.2,49.4,49.4,49.4H58c27.2,0,49.4-22.2,49.4-49.4V13.3h0v-3L101.8,8.7z M100.2,67.7c0,23.3-19,42.3-42.3,42.3H57 c-23.3,0-42.3-19-42.3-42.3V19h85.5V67.7z"></path> <g> <path class="st0" d="M33.7,87l3.3,3.3l-0.9,0.8l-1.2-1.2L31.8,93l-0.9-0.9L34,89l-1.2-1.2L33.7,87z"></path> <path class="st0" d="M40.2,92.5c1.4,0.9,1.9,2.6,0.9,4.1c-0.9,1.4-2.7,1.7-4.1,0.8c-1.4-0.9-1.9-2.6-0.9-4.1 C37,91.9,38.7,91.5,40.2,92.5z M37.7,96.3c0.9,0.6,1.8,0.3,2.3-0.5c0.6-0.9,0.3-1.8-0.4-2.3c-0.8-0.5-1.7-0.3-2.3,0.5 C36.7,94.8,36.9,95.8,37.7,96.3z"></path> <path class="st0" d="M43.8,94.8l1.2,0.4l0.9,2.8l2.3-1.7l1.1,0.4l-1.8,5.3l-1.2-0.4l1.1-3.4l-2.2,1.6l-0.2-0.1l-0.8-2.5l-1.1,3.4 l-1.2-0.4L43.8,94.8z"></path> <path class="st0" d="M50.9,98.4c0.1-0.9,0.9-1.5,2-1.4c0.7,0.1,1.3,0.4,1.6,0.8l-0.8,0.9c-0.2-0.3-0.4-0.4-0.8-0.5 c-0.3,0-0.6,0.1-0.6,0.3c-0.1,0.9,2.2,1,2,2.8c-0.1,1-1,1.5-2.1,1.4c-0.7-0.1-1.6-0.5-1.8-1.2l0.8-0.8c0.3,0.4,0.7,0.7,1.1,0.7 c0.3,0,0.5-0.1,0.6-0.4C53,100.4,50.7,100.2,50.9,98.4z"></path> <path class="st0" d="M56.5,97.5l1.3,0l0.1,2.4l1.8-2.5l1.5,0l-2,2.6l2.3,3l-1.6,0l-2-2.6l0.1,2.7l-1.3,0L56.5,97.5z"></path> <path class="st0" d="M62.7,99.6l2.1-0.3l0.2,1.1l-2.1,0.3L62.7,99.6z"></path> <path class="st0" d="M67.1,96.2l0.8-0.2l1.5,5.4l-1.2,0.3l-1.1-3.7l-0.4,0.5l-0.9-0.8L67.1,96.2z"></path> <path class="st0" d="M71.4,99.2c-0.3-0.7-0.2-1.3,0.2-1.6l0,0c-0.4,0-0.9-0.3-1.2-0.9c-0.4-0.8,0.1-1.7,1.1-2.1 c0.9-0.4,2-0.3,2.3,0.5c0.2,0.5,0.2,1.1-0.2,1.5l0,0c0.5-0.1,1.1,0.1,1.4,0.8c0.4,1-0.1,1.9-1.1,2.3 C72.8,100.2,71.8,100,71.4,99.2z M72.4,96.5c0.3-0.2,0.4-0.5,0.3-0.7c-0.1-0.3-0.4-0.4-0.8-0.2c-0.4,0.2-0.4,0.5-0.3,0.7 C71.7,96.5,71.9,96.7,72.4,96.5L72.4,96.5z M72.8,97.6c-0.3,0.2-0.6,0.5-0.4,0.8c0.1,0.3,0.4,0.4,0.9,0.2c0.5-0.3,0.6-0.6,0.4-0.8 C73.6,97.4,73.2,97.4,72.8,97.6L72.8,97.6z"></path> <path class="st0" d="M74.2,93.1l3-2.2l0.5,0.7l1.3,5l-1.1,0.8l-1.1-4.6l-1.8,1.3L74.2,93.1z"></path> <path class="st0" d="M81.1,93c-0.5-0.5-0.6-1.1-0.4-1.6l0,0c-0.4,0.1-1,0.1-1.5-0.4c-0.6-0.6-0.5-1.6,0.2-2.4 c0.7-0.8,1.7-0.9,2.4-0.3c0.4,0.4,0.6,1,0.4,1.5l0,0c0.4-0.3,1.1-0.3,1.6,0.2c0.8,0.7,0.6,1.8-0.2,2.6 C82.8,93.5,81.8,93.7,81.1,93z M81.1,90.1c0.3-0.3,0.2-0.6,0-0.8c-0.2-0.2-0.5-0.2-0.8,0.1c-0.3,0.3-0.2,0.6-0.1,0.8 C80.5,90.4,80.8,90.5,81.1,90.1L81.1,90.1z M81.9,91c-0.2,0.3-0.4,0.6-0.1,0.9c0.2,0.2,0.6,0.3,0.9-0.1c0.4-0.4,0.3-0.7,0.1-0.9 C82.6,90.6,82.3,90.7,81.9,91L81.9,91z"></path> </g> </g> </svg> 