<svg id="Layer_1" data-name="Layer 1" xmlns="http://www.w3.org/2000/svg" xmlns:xlink="http://www.w3.org/1999/xlink" viewBox="0 0 560 400"><defs><style>.cls-1{fill:url(#linear-gradient);}.cls-2,.cls-3,.cls-4,.cls-5,.cls-6,.cls-7,.cls-8{fill:none;stroke-miterlimit:10;}.cls-2,.cls-4,.cls-5,.cls-6,.cls-7,.cls-8{stroke-width:30px;}.cls-2{stroke:url(#linear-gradient-2);}.cls-3{stroke-width:10px;stroke:url(#linear-gradient-3);}.cls-4{stroke:url(#linear-gradient-4);}.cls-5{stroke:url(#linear-gradient-5);}.cls-6{stroke:url(#linear-gradient-6);}.cls-7{stroke:url(#linear-gradient-7);}.cls-8{stroke:url(#linear-gradient-8);}</style><linearGradient id="linear-gradient" x1="-93.35" y1="432.95" x2="608.65" y2="-5.05" gradientUnits="userSpaceOnUse"><stop offset="0" stop-color="#535366"/><stop offset="0.1" stop-color="#587366" stop-opacity="0.97"/><stop offset="0.23" stop-color="#5d9366" stop-opacity="0.95"/><stop offset="0.37" stop-color="#61ad66" stop-opacity="0.93"/><stop offset="0.53" stop-color="#64be66" stop-opacity="0.91"/><stop offset="0.71" stop-color="#65c966" stop-opacity="0.9"/><stop offset="1" stop-color="#6c6" stop-opacity="0.9"/></linearGradient><linearGradient id="linear-gradient-2" x1="-26.45" y1="524.13" x2="900.05" y2="524.13" gradientUnits="userSpaceOnUse"><stop offset="0" stop-color="#f2f2f2"/><stop offset="0.08" stop-color="#ececec" stop-opacity="0.85"/><stop offset="0.2" stop-color="#e3e3e3" stop-opacity="0.66"/><stop offset="0.33" stop-color="#dcdcdc" stop-opacity="0.48"/><stop offset="0.46" stop-color="#d6d6d6" stop-opacity="0.35"/><stop offset="0.58" stop-color="#d2d2d2" stop-opacity="0.24"/><stop offset="0.71" stop-color="#cfcfcf" stop-opacity="0.16"/><stop offset="0.85" stop-color="#cdcdcd" stop-opacity="0.12"/><stop offset="0.99" stop-color="#ccc" stop-opacity="0.1"/></linearGradient><linearGradient id="linear-gradient-3" x1="235.12" y1="57.35" x2="641.99" y2="57.35" gradientUnits="userSpaceOnUse"><stop offset="0" stop-color="#fff" stop-opacity="0.1"/><stop offset="1" stop-color="#fff"/></linearGradient><linearGradient id="linear-gradient-4" x1="-38.13" y1="41.54" x2="138.64" y2="41.54" gradientUnits="userSpaceOnUse"><stop offset="0.01" stop-color="#ccc" stop-opacity="0.1"/><stop offset="1" stop-color="#f2f2f2"/></linearGradient><linearGradient id="linear-gradient-5" x1="-4.15" y1="370.19" x2="551.85" y2="370.19" gradientUnits="userSpaceOnUse"><stop offset="0" stop-color="#f1f2f2"/><stop offset="0.11" stop-color="#f1f2f2" stop-opacity="0.97"/><stop offset="0.26" stop-color="#f0f1f1" stop-opacity="0.9"/><stop offset="0.43" stop-color="#eeefef" stop-opacity="0.78"/><stop offset="0.62" stop-color="#eceded" stop-opacity="0.61"/><stop offset="0.83" stop-color="#e9eaeb" stop-opacity="0.4"/><stop offset="1" stop-color="#e6e7e8" stop-opacity="0.2"/></linearGradient><linearGradient id="linear-gradient-6" x1="675.91" y1="220.14" x2="1662.08" y2="220.14" gradientTransform="translate(1175.94 -723.79) rotate(90)" gradientUnits="userSpaceOnUse"><stop offset="0.01" stop-color="#ccc" stop-opacity="0.1"/><stop offset="0.21" stop-color="#cbcdcd" stop-opacity="0.12"/><stop offset="0.41" stop-color="#c8d1d1" stop-opacity="0.17"/><stop offset="0.49" stop-color="#c6d4d4" stop-opacity="0.2"/><stop offset="0.54" stop-color="#c8d5d5" stop-opacity="0.24"/><stop offset="0.63" stop-color="#ced9d9" stop-opacity="0.34"/><stop offset="0.74" stop-color="#d7e0e0" stop-opacity="0.51"/><stop offset="0.87" stop-color="#e4e8e8" stop-opacity="0.74"/><stop offset="1" stop-color="#f2f2f2"/></linearGradient><linearGradient id="linear-gradient-7" x1="1068.34" y1="283.45" x2="1474.68" y2="283.45" gradientTransform="translate(1175.94 -723.79) rotate(90)" xlink:href="#linear-gradient-5"/><linearGradient id="linear-gradient-8" x1="-427.13" y1="271.47" x2="499.37" y2="271.47" gradientUnits="userSpaceOnUse"><stop offset="0.01" stop-color="#ccc" stop-opacity="0.1"/><stop offset="0.15" stop-color="#cdcdcd" stop-opacity="0.12"/><stop offset="0.29" stop-color="#cfcfcf" stop-opacity="0.16"/><stop offset="0.42" stop-color="#d2d2d2" stop-opacity="0.24"/><stop offset="0.54" stop-color="#d6d6d6" stop-opacity="0.35"/><stop offset="0.67" stop-color="#dcdcdc" stop-opacity="0.48"/><stop offset="0.8" stop-color="#e3e3e3" stop-opacity="0.66"/><stop offset="0.92" stop-color="#ececec" stop-opacity="0.85"/><stop offset="1" stop-color="#f2f2f2"/></linearGradient></defs><title>Artboard 1 copy 4</title><rect class="cls-1" width="560" height="400"/><path class="cls-2" d="M889.44,1099.68l-850-850A173.82,173.82,0,0,1,285.29,3.89L627.74,346.34"/><line class="cls-3" x1="238.66" y1="-142.62" x2="638.45" y2="257.32"/><path class="cls-4" d="M-27.53,89A88.55,88.55,0,1,0,97.7-36.24"/><path class="cls-5" d="M541.25-50.19,31.8,459.28A71.57,71.57,0,0,0,133,560.49l50.6-50.59,50.61-50.62A71.57,71.57,0,1,1,335.45,560.49L105.38,790.56"/><path class="cls-6" d="M342.27,927.69,1248.55,21.41c72.38-72.39,189.72-72.39,262.11,0s72.38,189.72,0,262.1L1246.8,547.37"/><path class="cls-7" d="M1248.32,740.29,889.91,381.89A76.31,76.31,0,1,0,782,489.81l53.94,54,54,54A76.31,76.31,0,0,1,782,705.65L536.68,460.34"/><path class="cls-8" d="M488.76,847l-850-850a173.81,173.81,0,0,1,0-245.82,173.82,173.82,0,0,1,245.82,0L97.45-35.93"/></svg>