<?xml version="1.0" encoding="UTF-8"?> <svg xmlns="http://www.w3.org/2000/svg" id="Layer_1" data-name="Layer 1" viewBox="0 0 1600 900"> <defs> <style> .cls-1 { fill: #030206; } .cls-2 { fill: #06050c; } .cls-3 { fill: #090711; } .cls-4 { fill: #0d0917; } .cls-5 { fill: #100c1d; } .cls-6 { fill: #130e23; } .cls-7 { fill: #161029; } .cls-8 { fill: #19122e; } .cls-9 { fill: #1c1534; } .cls-10 { fill: #20173a; } .cls-11 { fill: #231940; } .cls-12 { fill: #261c46; } .cls-13 { fill: #291e4b; } .cls-14 { fill: #2c2051; } .cls-15 { fill: #2f2357; } .cls-16 { fill: #32255d; } .cls-17 { fill: #362763; } .cls-18 { fill: #392a68; } .cls-19 { fill: #3c2c6e; } .cls-20 { fill: #3f2e74; } .cls-21 { fill: #42307a; } .cls-22 { fill: #45337f; } .cls-23 { fill: #493585; } .cls-24 { fill: #4c378b; } .cls-25 { fill: #4f3a91; } .cls-26 { fill: #523c97; } .cls-27 { fill: #553e9c; } .cls-28 { fill: #5841a2; } .cls-29 { fill: #5b43a8; } .cls-30 { fill: #5f45ae; } .cls-31 { fill: #6248b4; } .cls-32 { fill: #654ab9; } .cls-33 { fill: #684cbf; } .cls-34 { fill: #6b4ec5; } .cls-35 { fill: #6e51cb; } .cls-36 { fill: #7253d1; } .cls-37 { fill: #7555d6; } .cls-38 { fill: #7858dc; } .cls-39 { fill: #7b5ae2; } .cls-40 { fill: #7656d9; } .cls-41 { fill: #7152cf; } .cls-42 { fill: #6c4fc6; } .cls-43 { fill: #664bbc; } .cls-44 { fill: #6147b3; } .cls-45 { fill: #5c43a9; } .cls-46 { fill: #5740a0; } .cls-47 { fill: #4d388d; } .cls-48 { fill: #483484; } .cls-49 { fill: #43317a; } .cls-50 { fill: #3d2d71; } .cls-51 { fill: #382968; } .cls-52 { fill: #33265e; } .cls-53 { fill: #2e2255; } .cls-54 { fill: #241a42; } .cls-55 { fill: #1f1739; } .cls-56 { fill: #1a132f; } .cls-57 { fill: #150f26; } .cls-58 { fill: #0f0b1c; } .cls-59 { fill: #0a0813; } .cls-60 { fill: #050409; } .cls-61 { fill: #322082; } .cls-61, .cls-99 { opacity: 0; } .cls-62 { fill: #311f7e; opacity: 0.03; } .cls-63 { fill: #2f1e7b; opacity: 0.05; } .cls-64 { fill: #2e1d77; opacity: 0.08; } .cls-65 { fill: #2d1d74; opacity: 0.11; } .cls-66 { fill: #2b1c70; opacity: 0.14; } .cls-67 { fill: #2a1b6d; opacity: 0.16; } .cls-68 { fill: #291a69; opacity: 0.19; } .cls-69 { fill: #271966; opacity: 0.22; } .cls-70 { fill: #261862; opacity: 0.24; } .cls-71 { fill: #24175f; opacity: 0.27; } .cls-72 { fill: #23165b; opacity: 0.3; } .cls-73 { fill: #221658; opacity: 0.32; } .cls-74 { fill: #201554; opacity: 0.35; } .cls-75 { fill: #1f1451; opacity: 0.38; } .cls-76 { fill: #1e134d; opacity: 0.41; } .cls-77 { fill: #1c124a; opacity: 0.43; } .cls-78 { fill: #1b1146; opacity: 0.46; } .cls-79 { fill: #1a1043; opacity: 0.49; } .cls-80 { fill: #18103f; opacity: 0.51; } .cls-81 { fill: #170f3c; opacity: 0.54; } .cls-82 { fill: #160e38; opacity: 0.57; } .cls-83 { fill: #140d35; opacity: 0.59; } .cls-84 { fill: #130c31; opacity: 0.62; } .cls-85 { fill: #120b2e; opacity: 0.65; } .cls-86 { fill: #100a2a; opacity: 0.68; } .cls-87 { fill: #0f0a27; opacity: 0.7; } .cls-88 { fill: #0e0923; opacity: 0.73; } .cls-89 { fill: #0c0820; opacity: 0.76; } .cls-90 { fill: #0b071c; opacity: 0.78; } .cls-91 { fill: #090619; opacity: 0.81; } .cls-92 { fill: #080515; opacity: 0.84; } .cls-93 { fill: #070412; opacity: 0.86; } .cls-94 { fill: #05030e; opacity: 0.89; } .cls-95 { fill: #04030b; opacity: 0.92; } .cls-96 { fill: #030207; opacity: 0.95; } .cls-97 { fill: #010104; opacity: 0.97; } .cls-98 { opacity: 0.45; } .cls-99 { fill: blue; } .cls-100 { fill: #0000f5; opacity: 0.04; } .cls-101 { fill: #0000eb; opacity: 0.08; } .cls-102 { fill: #0000e2; opacity: 0.12; } .cls-103 { fill: #0000d8; opacity: 0.15; } .cls-104 { fill: #0000ce; opacity: 0.19; } .cls-105 { fill: #0000c4; opacity: 0.23; } .cls-106 { fill: #0000ba; opacity: 0.27; } .cls-107 { fill: #0000b1; opacity: 0.31; } .cls-108 { fill: #0000a7; opacity: 0.35; } .cls-109 { fill: #00009d; opacity: 0.38; } .cls-110 { fill: #000093; opacity: 0.42; } .cls-111 { fill: #000089; opacity: 0.46; } .cls-112 { fill: navy; opacity: 0.5; } .cls-113 { fill: #000076; opacity: 0.54; } .cls-114 { fill: #00006c; opacity: 0.58; } .cls-115 { fill: #000062; opacity: 0.62; } .cls-116 { fill: #000058; opacity: 0.65; } .cls-117 { fill: #00004e; opacity: 0.69; } .cls-118 { fill: #000045; opacity: 0.73; } .cls-119 { fill: #00003b; opacity: 0.77; } .cls-120 { fill: #000031; opacity: 0.81; } .cls-121 { fill: #000027; opacity: 0.85; } .cls-122 { fill: #00001d; opacity: 0.88; } .cls-123 { fill: #000014; opacity: 0.92; } .cls-124 { fill: #00000a; opacity: 0.96; } .cls-125 { opacity: 0.43; } .cls-126 { opacity: 0.9; } .cls-127 { fill: #8061e3; } .cls-128 { fill: #8667e4; } .cls-129 { fill: #8b6ee5; } .cls-130 { fill: #9074e7; } .cls-131 { fill: #957be8; } .cls-132 { fill: #9b82e9; } .cls-133 { fill: #a088ea; } .cls-134 { fill: #a58feb; } .cls-135 { fill: #ab95ec; } .cls-136 { fill: #b09cee; } .cls-137 { fill: #b5a3ef; } .cls-138 { fill: #baa9f0; } .cls-139 { fill: #c0b0f1; } .cls-140 { fill: #c5b6f2; } .cls-141 { fill: #cabdf3; } .cls-142 { fill: #cfc4f5; } .cls-143 { fill: #d5caf6; } .cls-144 { fill: #dad1f7; } .cls-145 { fill: #dfd7f8; } .cls-146 { fill: #e5def9; } .cls-147 { fill: #eae5fa; } .cls-148 { fill: #efebfc; } .cls-149 { fill: #f4f2fd; } .cls-150 { fill: #faf8fe; } .cls-151 { fill: #fff; } </style> </defs> <title>sa-logo-Artboard 9-</title> <g> <rect x="-10.7" y="3.1" width="1172.59" height="895.6"></rect> <path class="cls-1" d="M9.83,7.59c0-.27,237.3-.46,237.56-.37l908.21.92c.16.06.27,298.31.27,298.48V583.45c0,.17-.11,298.48-.27,298.54l-908.21.92c-.26.09-237.56-.1-237.56-.37v-11.1c0-.18.11-156.36.28-156.41h0c.16-.06.27-156.27.27-156.44v-227c0-.18-.11-156.41-.27-156.46h0c-.17-.06-.28-156.26-.28-156.44Z"></path> <path class="cls-2" d="M30.36,12.09c0-.55,231.34-.93,231.85-.76l887.11,1.86c.32.11.54,290.67.54,291v270c0,.34-.22,291-.54,291.06l-887.11,1.86c-.51.17-231.85-.21-231.85-.75V855.53c0-.34.23-152.58.56-152.68h0c.33-.11.55-152.36.55-152.71V328.35c0-.35-.22-152.63-.55-152.73h0c-.33-.11-.56-152.36-.56-152.71Z"></path> <path class="cls-3" d="M50.9,16.58c0-.82,225.36-1.39,226.14-1.13l866,2.78c.48.17.81,283,.81,283.55V565c0,.51-.33,283.43-.81,283.59l-866,2.78c-.77.27-226.13-.31-226.13-1.12V839.63c0-.52.34-148.8.83-149h0c.49-.15.83-148.46.83-149V325.13c0-.52-.34-148.85-.83-149h0c-.49-.16-.83-148.46-.83-149Z"></path> <path class="cls-4" d="M71.43,21.07c0-1.08,219.4-1.85,220.43-1.5l844.9,3.71c.64.22,1.07,275.39,1.07,276.07V555.73c0,.68-.43,275.9-1.07,276.12l-844.9,3.71c-1,.35-220.43-.42-220.43-1.5V823.73c0-.7.45-145,1.11-145.23h0c.66-.21,1.11-144.56,1.11-145.25V321.91c0-.69-.45-145.06-1.11-145.27h0c-.66-.21-1.11-144.56-1.11-145.25Z"></path> <path class="cls-5" d="M92,25.57c0-1.36,213.42-2.32,214.71-1.88l823.8,4.63c.8.28,1.34,267.76,1.34,268.61V546.49c0,.85-.54,268.38-1.34,268.65l-823.8,4.64c-1.29.43-214.71-.52-214.71-1.88V807.82c0-.86.56-141.24,1.38-141.5h0c.83-.26,1.38-140.66,1.38-141.52V318.69c0-.87-.55-141.28-1.38-141.54h0C92.53,176.88,92,36.49,92,35.63Z"></path> <path class="cls-6" d="M112.5,30.06c0-1.63,207.46-2.78,209-2.26l802.7,5.57c1,.32,1.61,260.11,1.61,261.13V537.25c0,1-.65,260.85-1.61,261.18L321.5,804c-1.55.53-209-.62-209-2.25v-9.82c0-1,.68-137.46,1.66-137.78h0c1-.31,1.66-136.75,1.66-137.79V315.47c0-1-.67-137.5-1.66-137.81h0c-1-.32-1.66-136.76-1.66-137.8Z"></path> <path class="cls-7" d="M133,34.55c0-1.9,201.48-3.24,203.28-2.63l781.6,6.49c1.12.38,1.88,252.48,1.88,253.67V528c0,1.19-.76,253.33-1.88,253.71l-781.6,6.49c-1.8.61-203.28-.73-203.28-2.63V776c0-1.21.78-133.68,1.93-134h0c1.16-.37,1.94-132.86,1.94-134.07V312.25c0-1.21-.78-133.72-1.94-134.08h0C133.82,177.8,133,45.31,133,44.1Z"></path> <path class="cls-8" d="M153.57,39.05c0-2.18,195.51-3.71,197.57-3l760.49,7.42c1.29.43,2.16,244.83,2.16,246.19V518.77c0,1.36-.87,245.8-2.16,246.24l-760.49,7.41c-2.06.71-197.57-.83-197.57-3v-9.31c0-1.38.9-129.9,2.22-130.32h0c1.31-.42,2.21-128.95,2.21-130.33V309c0-1.38-.9-129.94-2.21-130.35h0c-1.32-.42-2.22-129-2.22-130.34Z"></path> <path class="cls-9" d="M174.11,43.54c0-2.45,189.54-4.17,191.85-3.38l739.39,8.34c1.45.49,2.43,237.2,2.43,238.73v222.3c0,1.53-1,238.28-2.43,238.77L366,756.64c-2.31.79-191.85-.93-191.85-3.38V744.2c0-1.55,1-126.11,2.49-126.58h0c1.48-.48,2.49-125,2.49-126.61V305.81c0-1.55-1-126.15-2.49-126.62h0c-1.48-.48-2.49-125.06-2.49-126.61Z"></path> <path class="cls-10" d="M194.64,48c0-2.72,183.57-4.63,186.15-3.75l718.28,9.26c1.61.55,2.69,229.56,2.69,231.26V500.29c0,1.7-1.08,230.75-2.69,231.3l-718.28,9.27c-2.58.87-186.15-1-186.15-3.76v-8.8c0-1.73,1.12-122.34,2.77-122.86h0c1.65-.52,2.76-121.15,2.76-122.88v-180c0-1.73-1.11-122.37-2.76-122.9h0c-1.65-.52-2.77-121.14-2.77-122.87Z"></path> <path class="cls-11" d="M215.18,52.53c0-3,177.6-5.1,180.43-4.14l697.18,10.2c1.77.6,3,221.92,3,223.79V491.05c0,1.87-1.19,223.23-3,223.83L395.61,725.07c-2.83,1-180.43-1.14-180.43-4.13V712.4c0-1.9,1.23-118.56,3-119.14h0c1.81-.57,3-117.24,3-119.15V299.37c0-1.9-1.23-118.59-3-119.17h0c-1.81-.57-3-117.24-3-119.14Z"></path> <path class="cls-12" d="M235.71,57c0-3.26,171.63-5.56,174.72-4.51l676.08,11.12c1.93.66,3.23,214.28,3.23,216.32V481.81c0,2-1.3,215.7-3.23,216.36L410.43,709.29c-3.09,1.05-174.72-1.25-174.72-4.51v-8.29c0-2.07,1.34-114.77,3.32-115.4h0c2-.63,3.32-113.35,3.32-115.42V296.15c0-2.07-1.34-114.81-3.32-115.44h0c-2-.62-3.32-113.34-3.32-115.42Z"></path> <path class="cls-13" d="M256.25,61.51c0-3.53,165.65-6,169-4.88l655,12.05c2.09.71,3.5,206.64,3.5,208.85v195c0,2.21-1.41,208.18-3.5,208.89l-655,12c-3.35,1.13-169-1.35-169-4.89v-8c0-2.25,1.45-111,3.59-111.68h0c2.14-.68,3.6-109.44,3.6-111.69V292.93c0-2.24-1.46-111-3.6-111.71h0c-2.14-.68-3.59-109.44-3.59-111.69Z"></path> <path class="cls-14" d="M276.78,66c0-3.81,159.69-6.49,163.29-5.26l633.88,13c2.25.77,3.77,199,3.77,201.38V463.33c0,2.38-1.52,200.65-3.77,201.42l-633.88,13c-3.6,1.23-163.29-1.45-163.29-5.26v-7.78c0-2.42,1.57-107.21,3.87-107.95h0c2.31-.73,3.88-105.54,3.88-108V289.71c0-2.42-1.57-107.24-3.88-108h0c-2.3-.73-3.87-105.54-3.87-108Z"></path> <path class="cls-15" d="M297.32,70.5c0-4.08,153.71-7,157.57-5.64l612.78,13.91c2.41.82,4,191.36,4,193.91V454.09c0,2.55-1.63,193.12-4,193.94L454.89,661.94c-3.86,1.31-157.57-1.56-157.57-5.64v-7.52c0-2.59,1.67-103.44,4.15-104.22h0c2.47-.79,4.14-101.64,4.14-104.24V286.5c0-2.6-1.67-103.47-4.14-104.26h0C299,181.46,297.32,80.6,297.32,78Z"></path> <path class="cls-16" d="M317.85,75c0-4.35,147.75-7.41,151.87-6l591.67,14.83c2.57.88,4.3,183.73,4.3,186.45V444.85c0,2.72-1.73,185.6-4.3,186.47L469.72,646.15c-4.12,1.4-151.87-1.66-151.87-6v-7.26c0-2.77,1.79-99.66,4.43-100.5h0c2.63-.84,4.42-97.74,4.42-100.5V283.28c0-2.77-1.79-99.69-4.42-100.53h0c-2.64-.83-4.43-97.74-4.43-100.5Z"></path> <path class="cls-17" d="M338.39,79.49c0-4.63,141.77-7.88,146.15-6.39l570.57,15.76c2.73.93,4.57,176.08,4.57,179V435.61c0,2.88-1.84,178.07-4.57,179L484.54,630.37c-4.38,1.49-146.15-1.77-146.15-6.39v-7c0-2.94,1.9-95.87,4.7-96.76h0c2.8-.89,4.7-93.84,4.7-96.78V280.06c0-2.94-1.9-95.91-4.7-96.8h0c-2.8-.89-4.7-93.84-4.7-96.77Z"></path> <path class="cls-18" d="M358.92,84c0-4.89,135.81-8.34,140.44-6.76L1048.83,93.9c2.89,1,4.84,168.45,4.84,171.51v161c0,3.05-2,170.55-4.84,171.53L499.36,614.59c-4.64,1.57-140.44-1.87-140.44-6.77v-6.75c0-3.11,2-92.1,5-93h0c3-.94,5-89.94,5-93V276.84c0-3.11-2-92.12-5-93.07h0c-3-.94-5-89.93-5-93.05Z"></path> <path class="cls-19" d="M379.46,88.47c0-5.16,129.83-8.8,134.72-7.14l528.37,17.61c3,1,5.11,160.81,5.11,164V417.13c0,3.22-2.06,163-5.11,164.06L514.18,598.8c-4.89,1.66-134.72-2-134.72-7.14v-6.5c0-3.28,2.12-88.31,5.25-89.31h0c3.13-1,5.26-86,5.26-89.32V273.62c0-3.29-2.13-88.34-5.26-89.34h0c-3.13-1-5.25-86-5.25-89.32Z"></path> <path class="cls-20" d="M400,93c0-5.44,123.86-9.27,129-7.52L1036.27,104c3.21,1.09,5.38,153.17,5.38,156.57V407.89c0,3.39-2.17,155.5-5.38,156.59L529,583c-5.15,1.75-129-2.08-129-7.52v-6.24c0-3.46,2.24-84.53,5.53-85.58h0c3.3-1.05,5.53-82.14,5.53-85.59V270.4c0-3.46-2.23-84.56-5.53-85.61h0c-3.29-1-5.53-82.13-5.53-85.59Z"></path> <path class="cls-21" d="M420.53,97.46c0-5.71,117.89-9.73,123.29-7.89L1030,109c3.38,1.15,5.66,145.53,5.66,149.1V398.65c0,3.56-2.28,148-5.66,149.12L543.82,567.23c-5.4,1.84-123.29-2.18-123.29-7.89v-6c0-3.62,2.34-80.75,5.8-81.85h0c3.46-1.1,5.81-78.23,5.81-81.86V267.18c0-3.63-2.35-80.78-5.81-81.88h0c-3.46-1.1-5.8-78.23-5.8-81.86Z"></path> <path class="cls-22" d="M441.06,102c0-6,111.92-10.19,117.59-8.26l465.05,20.39c3.54,1.2,5.92,137.89,5.92,141.63v133.7c0,3.73-2.38,140.45-5.92,141.65L558.64,551.45c-5.66,1.93-117.58-2.28-117.58-8.27v-5.73c0-3.8,2.46-77,6.08-78.12h0c3.63-1.16,6.09-74.34,6.09-78.14V264c0-3.8-2.46-77-6.09-78.15h0c-3.62-1.15-6.08-74.33-6.08-78.13Z"></path> <path class="cls-23" d="M461.6,106.45c0-6.26,105.95-10.66,111.87-8.65l443.95,21.32c3.7,1.26,6.19,130.25,6.19,134.16V380.17c0,3.9-2.49,132.92-6.19,134.18L573.47,535.67c-5.92,2-111.87-2.39-111.87-8.65v-5.47c0-4,2.57-73.2,6.36-74.4h0c3.78-1.21,6.36-70.43,6.36-74.41v-112c0-4-2.58-73.21-6.36-74.42h0c-3.79-1.2-6.36-70.43-6.36-74.4Z"></path> <path class="cls-24" d="M482.13,110.94c0-6.53,100-11.12,106.16-9l422.85,22.25c3.86,1.31,6.46,122.61,6.46,126.69V370.92c0,4.08-2.6,125.41-6.46,126.72L588.29,519.88c-6.18,2.1-106.16-2.49-106.16-9v-5.22c0-4.15,2.68-69.41,6.64-70.67h0c4-1.25,6.64-66.53,6.64-70.67V257.52c0-4.15-2.69-69.43-6.64-70.69h0c-4-1.26-6.64-66.53-6.64-70.68Z"></path> <path class="cls-25" d="M502.66,115.43c0-6.79,94-11.58,100.45-9.39l401.75,23.17c4,1.37,6.73,115,6.73,119.22V361.68c0,4.25-2.71,117.88-6.73,119.25L603.11,504.1c-6.44,2.19-100.45-2.6-100.45-9.39v-5c0-4.32,2.8-65.63,6.92-66.94h0c4.12-1.31,6.91-62.63,6.91-66.95V254.3c0-4.32-2.79-65.65-6.91-67h0c-4.12-1.31-6.92-62.63-6.92-66.95Z"></path> <path class="cls-26" d="M523.2,119.93c0-7.07,88-12.05,94.73-9.77l380.65,24.1c4.18,1.42,7,107.33,7,111.75V352.44c0,4.42-2.82,110.35-7,111.78L617.93,488.31c-6.69,2.28-94.73-2.7-94.73-9.76v-4.72c0-4.49,2.91-61.85,7.19-63.21h0c4.28-1.36,7.19-58.73,7.19-63.22V251.08c0-4.49-2.91-61.87-7.19-63.23h0c-4.28-1.36-7.19-58.73-7.19-63.22Z"></path> <path class="cls-27" d="M543.73,124.42c0-7.34,82.07-12.51,89-10.15l359.55,25c4.34,1.48,7.27,99.7,7.27,104.28V343.2c0,4.59-2.93,102.83-7.27,104.31l-359.55,25c-7,2.36-89-2.8-89-10.14v-4.46c0-4.67,3-58.07,7.47-59.49h0c4.45-1.41,7.47-54.82,7.47-59.49V247.86c0-4.66-3-58.08-7.47-59.5h0c-4.45-1.41-7.47-54.82-7.47-59.49Z"></path> <path class="cls-28" d="M564.27,128.91c0-7.61,76.1-13,83.3-10.52l338.45,26c4.5,1.53,7.53,92.05,7.53,96.81V334c0,4.76-3,95.3-7.53,96.84L647.57,456.75c-7.2,2.45-83.3-2.91-83.3-10.52V442c0-4.84,3.13-54.29,7.74-55.76h0c4.61-1.47,7.75-50.93,7.75-55.77V244.64c0-4.84-3.14-54.3-7.75-55.77h0c-4.61-1.47-7.74-50.92-7.74-55.76Z"></path> <path class="cls-29" d="M584.8,133.41c0-7.89,70.13-13.44,77.6-10.9l317.34,26.88c4.66,1.59,7.8,84.42,7.8,89.35v86c0,4.93-3.14,87.78-7.8,89.36L662.4,441c-7.47,2.54-77.6-3-77.6-10.89v-3.95c0-5,3.25-50.51,8-52h0c4.78-1.52,8-47,8-52V241.42c0-5-3.24-50.52-8-52h0c-4.77-1.52-8-47-8-52Z"></path> <path class="cls-30" d="M605.34,137.9c0-8.16,64.16-13.9,71.88-11.27l296.24,27.8c4.82,1.65,8.07,76.78,8.07,81.88v79.17c0,5.1-3.25,80.25-8.07,81.89L677.22,425.18c-7.72,2.62-71.88-3.12-71.88-11.27v-3.69c0-5.19,3.35-46.73,8.3-48.3h0c4.94-1.58,8.29-43.13,8.29-48.31V238.2c0-5.18-3.35-46.74-8.29-48.31h0c-4.95-1.57-8.3-43.12-8.3-48.31Z"></path> <path class="cls-31" d="M625.87,142.39c0-8.43,58.19-14.36,66.17-11.65l275.14,28.74c5,1.69,8.34,69.14,8.34,74.41v72.35c0,5.27-3.36,72.73-8.34,74.42L692,409.4c-8,2.71-66.17-3.22-66.17-11.65v-3.44c0-5.35,3.47-42.95,8.58-44.57h0c5.1-1.62,8.57-39.22,8.57-44.58V235c0-5.35-3.47-43-8.57-44.58h0c-5.11-1.62-8.58-39.22-8.58-44.58Z"></path> <path class="cls-32" d="M646.41,146.89c0-8.7,52.21-14.83,60.45-12l254,29.66c5.15,1.75,8.61,61.5,8.61,66.94V297c0,5.44-3.46,65.2-8.61,66.95l-254,29.66c-8.24,2.8-60.45-3.32-60.45-12v-3.18c0-5.53,3.58-39.17,8.85-40.85h0c5.27-1.67,8.85-35.32,8.85-40.85V231.76c0-5.53-3.58-39.17-8.85-40.85h0c-5.27-1.68-8.85-35.32-8.85-40.85Z"></path> <path class="cls-33" d="M666.94,151.38c0-9,46.25-15.29,54.74-12.4l232.94,30.59c5.31,1.8,8.88,53.86,8.88,59.47v58.72c0,5.61-3.57,57.68-8.88,59.48L721.68,377.83c-8.49,2.89-54.74-3.43-54.74-12.4v-2.92c0-5.71,3.69-35.39,9.13-37.12h0c5.44-1.73,9.13-31.42,9.13-37.12V228.55c0-5.71-3.69-35.4-9.13-37.13h0c-5.44-1.73-9.13-31.42-9.13-37.12Z"></path> <path class="cls-34" d="M687.48,155.87c0-9.24,40.27-15.75,49-12.77l211.83,31.51c5.48,1.86,9.15,46.22,9.15,52v51.91c0,5.78-3.67,50.15-9.15,52L736.5,362c-8.75,3-49-3.53-49-12.77V346.6c0-5.88,3.8-31.61,9.4-33.39h0c5.6-1.78,9.4-27.51,9.4-33.39V225.33c0-5.88-3.8-31.62-9.4-33.4h0c-5.6-1.78-9.4-27.52-9.4-33.39Z"></path> <path class="cls-35" d="M708,160.37c0-9.52,34.31-16.22,43.32-13.15l190.72,32.44c5.64,1.91,9.42,38.58,9.42,44.53v45.09c0,6-3.78,42.63-9.42,44.54L751.33,346.26c-9,3.06-43.32-3.64-43.32-13.15V330.7c0-6.05,3.92-27.83,9.68-29.66h0c5.77-1.84,9.68-23.62,9.68-29.67V222.11c0-6.05-3.91-27.84-9.68-29.67h0c-5.76-1.83-9.68-23.61-9.68-29.66Z"></path> <path class="cls-36" d="M728.55,164.86c0-9.79,28.33-16.68,37.6-13.53L935.77,184.7c5.8,2,9.69,30.94,9.69,37.06V260c0,6.12-3.89,35.1-9.69,37.07L766.15,330.48c-9.27,3.15-37.6-3.74-37.6-13.53v-2.16c0-6.22,4-24,10-25.93h0c5.93-1.89,10-19.71,10-25.94v-44c0-6.22-4-24-10-25.94h0c-5.93-1.89-10-19.71-10-25.94Z"></path> <path class="cls-37" d="M749.08,169.35c0-10.06,22.36-17.14,31.89-13.9l148.52,34.3c6,2,10,23.3,10,29.59V250.8c0,6.29-4,27.57-10,29.6L781,314.69c-9.53,3.24-31.89-3.84-31.89-13.9v-1.9c0-6.4,4.14-20.27,10.24-22.21h0c6.09-1.94,10.23-15.81,10.23-22.2V215.67c0-6.4-4.14-20.27-10.23-22.21h0c-6.1-1.94-10.24-15.81-10.24-22.21Z"></path> <path class="cls-38" d="M769.62,173.85c0-10.34,16.39-17.61,26.17-14.28l127.42,35.22c6.12,2.08,10.23,15.67,10.23,22.12v24.65c0,6.46-4.11,20.05-10.23,22.13L795.79,298.91c-9.78,3.32-26.17-4-26.17-14.28V283c0-6.56,4.25-16.48,10.51-18.47h0c6.26-2,10.51-11.91,10.51-18.48V212.45c0-6.57-4.25-16.49-10.51-18.48h0c-6.26-2-10.51-11.91-10.51-18.48Z"></path> <path class="cls-39" d="M811.72,237.58V209.23a15.47,15.47,0,0,0-10.78-14.75h0a15.47,15.47,0,0,1-10.79-14.75v-1.39a15.47,15.47,0,0,1,20.46-14.65l106.32,36.14a15.49,15.49,0,0,1,10.5,14.66v17.83A15.49,15.49,0,0,1,916.93,247L810.61,283.12a15.47,15.47,0,0,1-20.46-14.65v-1.39a15.47,15.47,0,0,1,10.79-14.75h0A15.47,15.47,0,0,0,811.72,237.58Z"></path> </g> <g> <polygon class="cls-39" points="1612.5 3.1 1612.5 450.9 1612.5 898.7 800.9 898.7 -10.71 898.7 -10.71 450.9 -10.71 3.1 800.9 3.1 1612.5 3.1"></polygon> <path class="cls-40" d="M1583.72,9.89c.14.1.14,33.7,0,33.8l-4.16,398.71-4.51,432.4-218.87,1.65-567.1,4.26-485.19,3.65c-.14.1-41.38.1-41.52,0L3,882.41c-.13-.1-.13-33.7,0-33.8L7.21,449.9,11.72,17.5l218.87-1.64,567.09-4.27,485.2-3.65c.13-.09,41.37-.09,41.51,0Z"></path> <path class="cls-41" d="M1554.94,16.69c.28.2.28,32.51,0,32.71l-8.32,384.51-9,417-211.73,3.29-548.59,8.53L307.9,870c-.28.2-40,.2-40.24,0L16.79,866.13c-.27-.2-.27-32.51,0-32.71l8.33-384.51,9-417,211.73-3.29,548.6-8.52,469.37-7.3c.27-.2,40-.2,40.23,0Z"></path> <path class="cls-42" d="M1526.16,23.48c.42.3.42,31.32,0,31.62l-12.48,370.32L1500.14,827,1295.55,832l-530.1,12.79-453.54,11c-.42.3-38.54.3-39,0L30.54,849.84c-.41-.3-.41-31.32,0-31.62L43,447.91,56.57,46.31l204.59-4.94,530.1-12.79L1244.8,17.64c.41-.3,38.54-.3,39,0Z"></path> <path class="cls-43" d="M1497.38,30.28c.55.4.55,30.13,0,30.53l-16.65,356.11-18,386.21-197.45,6.58-511.6,17L315.92,841.35c-.56.4-37.12.4-37.68,0l-233.95-7.8c-.55-.39-.55-30.12,0-30.52L60.94,446.91,79,60.71l197.45-6.58L788,37.07l437.72-14.59c.55-.4,37.12-.4,37.67,0Z"></path> <path class="cls-44" d="M1468.6,37.07c.69.5.69,28.94,0,29.44l-20.81,341.92-22.56,370.8-190.31,8.23-493.1,21.32L319.93,827c-.7.5-35.71.5-36.4,0L58,817.27c-.69-.5-.69-28.94,0-29.44L78.85,445.92,101.41,75.11l190.31-8.23L784.83,45.57l421.89-18.24c.69-.5,35.7-.5,36.39,0Z"></path> <path class="cls-45" d="M1439.82,43.87c.83.6.83,27.75,0,28.34l-25,327.72-27.07,355.41-183.18,9.87L730,790.79,323.93,812.68c-.82.6-34.28.6-35.11,0L71.79,801c-.83-.59-.83-27.74,0-28.34l25-327.72L123.84,89.51,307,79.64l474.6-25.58,406.07-21.89c.83-.6,34.28-.6,35.11,0Z"></path> <path class="cls-46" d="M1411,50.66c1,.7,1,26.56,0,27.26l-29.13,313.52-31.59,340-176,11.51L718.18,772.81,327.94,798.35c-1,.69-32.86.69-33.83,0L85.54,784.7c-1-.7-1-26.56,0-27.26l29.13-313.52,31.59-340,176-11.52L778.4,62.56,1168.64,37c1-.7,32.86-.7,33.83,0Z"></path> <path class="cls-26" d="M1382.26,57.46c1.11.8,1.11,25.36,0,26.16L1349,382.94l-36.1,324.62L1144,720.72l-437.61,34.1L332,784c-1.1.8-31.44.8-32.54,0L99.29,768.41c-1.1-.79-1.1-25.36,0-26.16l33.29-299.32,36.1-324.61,168.9-13.16L775.19,71.05,1149.6,41.86c1.1-.79,31.44-.79,32.55,0Z"></path> <path class="cls-47" d="M1353.48,64.25c1.25.9,1.25,24.18,0,25.08L1316,374.45l-40.62,309.21-161.75,14.81L694.55,736.84,336,769.67c-1.24.9-30,.9-31.26,0L113,752.13c-1.24-.9-1.24-24.18,0-25.07l37.45-285.13,40.62-309.21,161.75-14.81L772,79.54l358.59-32.83c1.24-.9,30-.9,31.27,0Z"></path> <path class="cls-48" d="M1324.7,71.05c1.38,1,1.38,23,0,24L1283.09,366,1238,659.77l-154.61,16.45L682.73,718.86,340,755.34c-1.38,1-28.6,1-30,0l-183.2-19.5c-1.38-1-1.38-23,0-24l41.62-270.92,45.12-293.82,154.62-16.45L768.76,88l342.76-36.49c1.38-1,28.61-1,30,0Z"></path> <path class="cls-49" d="M1295.92,77.84c1.52,1.1,1.52,21.8,0,22.89l-45.78,256.73-49.63,278.42L1053,654,670.92,700.87,344,741c-1.52,1.1-27.19,1.1-28.7,0L140.54,719.56c-1.52-1.1-1.52-21.79,0-22.89l45.78-256.73L236,161.52l147.47-18.09,382.11-46.9L1092.48,56.4c1.52-1.1,27.19-1.1,28.71,0Z"></path> <path class="cls-50" d="M1267.14,84.64c1.66,1.2,1.66,20.6,0,21.8L1217.2,349l-54.15,263-140.33,19.74L659.1,682.89,348,726.67c-1.66,1.19-25.77,1.19-27.42,0l-166.28-23.4c-1.66-1.19-1.66-20.6,0-21.8l49.94-242.53,54.15-263,140.33-19.75L762.33,105l311.11-43.77c1.66-1.2,25.77-1.2,27.43,0Z"></path> <path class="cls-51" d="M1238.36,91.43c1.8,1.3,1.8,19.42,0,20.71l-54.1,228.33L1125.6,588.09,992.4,609.48,647.29,664.9,352,712.33c-1.8,1.3-24.35,1.3-26.14,0L168,687c-1.8-1.3-1.8-19.41,0-20.71L222.14,438,280.8,190.33,414,168.94l345.12-55.42L1054.4,66.09c1.8-1.3,24.35-1.3,26.14,0Z"></path> <path class="cls-52" d="M1209.58,98.23c1.94,1.4,1.94,18.22,0,19.62L1151.32,332,1088.14,564.2l-126.05,23L635.47,646.92,356,698c-1.94,1.4-22.93,1.4-24.86,0L181.79,670.7c-1.94-1.4-1.94-18.22,0-19.61L240.05,437l63.18-232.22,126-23L755.9,122l279.46-51.07c1.94-1.4,22.93-1.4,24.86,0Z"></path> <path class="cls-53" d="M1180.8,105c2.08,1.5,2.08,17,0,18.53l-62.42,199.94-67.69,216.82L931.77,565,623.65,628.93,360,683.66c-2.07,1.5-21.51,1.5-23.58,0l-140.9-29.24c-2.08-1.5-2.08-17,0-18.53L258,436l67.69-216.83,118.92-24.68,308.12-63.94,263.63-54.73c2.07-1.49,21.51-1.49,23.58,0Z"></path> <path class="cls-13" d="M1152,111.82c2.2,1.6,2.2,15.84,0,17.43L1085.44,315l-72.2,201.42L901.46,542.74,611.84,611,364,669.32c-2.21,1.6-20.09,1.6-22.3,0L209.28,638.13c-2.2-1.6-2.2-15.84,0-17.43L275.87,435l72.2-201.42,111.78-26.33L749.47,139,997.28,80.63c2.21-1.6,20.09-1.6,22.3,0Z"></path> <path class="cls-54" d="M1123.25,118.61c2.34,1.7,2.34,14.65,0,16.35L1052.5,306.5l-76.72,186-104.64,28L600,593,368,655c-2.34,1.69-18.67,1.69-21,0L223,621.85c-2.34-1.7-2.34-14.65,0-16.35L293.78,434l76.72-186,104.63-28,271.13-72.48,232-62c2.35-1.69,18.67-1.69,21,0Z"></path> <path class="cls-55" d="M1094.47,125.41c2.48,1.8,2.48,13.46,0,15.25L1019.56,298,938.33,468.63l-97.5,29.61L588.2,575,372,640.65c-2.48,1.8-17.25,1.8-19.73,0L236.78,605.56c-2.48-1.8-2.48-13.46,0-15.25L311.69,433l81.23-170.63,97.5-29.61L743.05,156,959.2,90.32c2.49-1.8,17.26-1.8,19.74,0Z"></path> <path class="cls-56" d="M1065.69,132.2c2.62,1.9,2.62,12.27,0,14.17L986.61,289.51,900.87,444.74,810.52,476,576.39,557,376.05,626.32c-2.62,1.89-15.83,1.89-18.45,0L250.53,589.27c-2.62-1.89-2.62-12.26,0-14.16L329.6,432l85.74-155.23,90.36-31.26,234.13-81L940.17,95.16c2.62-1.89,15.83-1.89,18.45,0Z"></path> <path class="cls-57" d="M1036.91,139c2.76,2,2.76,11.07,0,13.07L953.67,281,863.42,420.84,780.2,453.75,564.57,539,380.06,612c-2.76,2-14.41,2-17.17,0l-98.61-39c-2.76-2-2.76-11.08,0-13.07L347.52,431l90.25-139.83L521,258.24,736.62,173l184.51-73c2.76-2,14.41-2,17.17,0Z"></path> <path class="cls-58" d="M1008.13,145.79c2.9,2.1,2.9,9.89,0,12l-87.4,114.75L826,397,749.89,431.5,552.75,521,384.07,597.64c-2.9,2.1-13,2.1-15.89,0L278,556.7c-2.9-2.09-2.9-9.88,0-12L365.43,430l94.76-124.43L536.27,271,733.4,181.47l168.69-76.62c2.9-2.09,13-2.09,15.89,0Z"></path> <path class="cls-59" d="M979.35,152.59c3,2.19,3,8.69,0,10.89L887.79,264l-99.28,109-68.94,36.2L540.94,503.05,388.08,583.31c-3,2.19-11.57,2.19-14.61,0l-81.69-42.89c-3-2.2-3-8.69,0-10.89L383.34,429l99.28-109,68.94-36.2L730.19,190,883.05,109.7c3-2.19,11.57-2.19,14.61,0Z"></path> <path class="cls-60" d="M950.57,159.39a6.23,6.23,0,0,1,0,9.79l-95.72,86.35L751.06,349.17,689.26,387,529.12,485.06,392.09,569c-3.18,2.3-10.16,2.3-13.33,0l-73.23-44.84a6.22,6.22,0,0,1,0-9.79L401.25,428,505,334.35l61.8-37.84,160.14-98,137-83.91c3.17-2.3,10.15-2.3,13.33,0Z"></path> <path d="M857,119.39l64.77,46.79c3.31,2.39,3.31,6.31,0,8.7L658.94,364.76,396.1,554.64a11,11,0,0,1-12.05,0l-64.77-46.79c-3.31-2.4-3.31-6.31,0-8.71L582.12,309.27,845,119.39A11,11,0,0,1,857,119.39Z"></path> </g> <g> <polygon class="cls-61" points="1164.44 277.01 1164.44 587.85 1164.44 743.27 1164.44 898.7 757.47 898.7 350.49 898.7 350.49 743.27 350.49 587.85 350.49 277.01 757.47 277.01 1164.44 277.01"></polygon> <path class="cls-62" d="M359.92,282.22l81.69-.48c.24-.25,118.92-.25,119.17,0l197.67,1.17,304.2,1.8,94.14.56,1.8,304.24L1159.2,693c.1.1.16,48.53.18,48.66s0,70.38-.18,70.53l-.48,81.71c-.25.25-134.51.25-134.76,0l-263.5-1.38L456.33,891l-93.93-.49-.8-152-.79-152L359.92,417C359.67,416.74,359.67,282.47,359.92,282.22Z"></path> <path class="cls-63" d="M369.36,287.43l79.91-1c.49-.49,116.29-.49,116.78,0l193.39,2.35,297.6,3.6,92.09,1.11,3.6,297.64L1154,692.45c.2.2.32,47.41.36,47.67s-.07,68.83-.36,69.13l-1,79.94c-.49.49-131.44.49-131.94,0l-257.59-2.76-297.32-3.18-91.83-1-1.59-148.61L371.13,585l-1.77-165.66C368.86,418.88,368.86,287.92,369.36,287.43Z"></path> <path class="cls-64" d="M378.79,292.64l78.14-1.45c.74-.74,113.66-.74,114.4,0l189.1,3.51,291,5.4,90,1.68,5.4,291,1.84,99c.3.3.48,46.29.53,46.68.08.58-.09,67.29-.53,67.72l-1.45,78.17c-.74.74-128.38.74-129.12,0L766.46,880.3,476,875.52l-89.72-1.47-2.39-145.21-2.39-145.21-2.66-161.86C378.05,421,378.05,293.38,378.79,292.64Z"></path> <path class="cls-65" d="M388.23,297.85l76.37-1.93c1-1,111-1,112,0l184.81,4.68,284.4,7.2,88,2.23,7.2,284.44,2.45,96.79c.4.4.64,45.18.72,45.71.11.76-.13,65.73-.72,66.31l-1.93,76.4c-1,1-125.31,1-126.29,0l-245.79-5.52-283.7-6.36-87.62-2L395,724l-3.18-141.8-3.55-158.08C387.24,423.17,387.24,298.84,388.23,297.85Z"></path> <path class="cls-66" d="M397.66,303.06l74.6-2.41c1.23-1.24,108.38-1.24,109.62,0L762.4,306.5l277.8,9,86,2.79,9,277.83,3.06,94.55c.5.5.8,44.07.89,44.72.14,1-.16,64.18-.89,64.91l-2.42,74.62c-1.23,1.24-122.24,1.24-123.47,0L772.45,868l-276.88-8-85.52-2.46-4-138.39-4-138.4-4.44-154.28C396.43,425.31,396.43,304.3,397.66,303.06Z"></path> <path class="cls-67" d="M407.1,308.27l72.82-2.9c1.48-1.48,105.75-1.48,107.23,0l176.24,7,271.2,10.79,83.92,3.35,10.8,271.24,3.68,92.3c.6.6,1,42.95,1.07,43.73.16,1.15-.19,62.63-1.07,63.51l-2.9,72.85c-1.48,1.48-119.17,1.48-120.65,0l-234-8.27-270.07-9.55-83.41-3-4.77-135-4.78-135L407.1,428.93C405.62,427.45,405.62,309.75,407.1,308.27Z"></path> <path class="cls-68" d="M416.53,313.48l71.06-3.38c1.72-1.73,103.11-1.73,104.83,0l172,8.19,264.6,12.6,81.89,3.91,12.6,264.63,4.28,90.06c.71.7,1.12,41.83,1.25,42.75.2,1.34-.22,61.07-1.25,62.1l-3.38,71.07c-1.72,1.73-116.1,1.73-117.83,0l-228.08-9.65L515.19,844.62l-81.31-3.44-5.57-131.59L422.74,578l-6.21-146.69C414.81,429.59,414.81,315.21,416.53,313.48Z"></path> <path class="cls-69" d="M426,318.69l69.28-3.86c2-2,100.48-2,102.45,0l167.66,9.36,258,14.4,79.84,4.46,14.4,258,4.9,87.8c.8.81,1.28,40.72,1.43,41.77.22,1.53-.26,59.53-1.43,60.7l-3.86,69.3c-2,2-113,2-115,0l-222.18-11L525,836.9,445.8,833l-6.37-128.18L433.07,576.6,426,433.71C424,431.74,424,320.67,426,318.69Z"></path> <path class="cls-70" d="M435.41,323.9l67.5-4.34c2.22-2.22,97.84-2.22,100.06,0l163.38,10.53,251.39,16.2,77.81,5,16.2,251.43,5.51,85.56c.9.9,1.44,39.6,1.61,40.78.24,1.73-.29,58-1.61,59.3l-4.35,67.52c-2.22,2.22-110,2.22-112.19,0L784.45,843.5,534.81,829.17l-77.1-4.42L450.55,700l-7.16-124.78-8-139.09C433.19,433.88,433.19,326.12,435.41,323.9Z"></path> <path class="cls-71" d="M444.84,329.12l65.74-4.84c2.46-2.46,95.2-2.46,97.67,0L767.33,336l244.8,18,75.76,5.58,18,244.83,6.13,83.32c1,1,1.59,38.49,1.78,39.8.27,1.91-.32,56.42-1.78,57.88l-4.84,65.76c-2.46,2.47-106.9,2.47-109.36,0L787.44,837.36,544.62,821.45l-75-4.92-7.95-121.37-8-121.37-8.87-135.3C442.37,436,442.37,331.58,444.84,329.12Z"></path> <path class="cls-72" d="M454.28,334.33l64-5.32c2.71-2.71,92.57-2.71,95.28,0l154.8,12.88,238.2,19.79,73.72,6.14L1100,606.05l6.73,81.07c1.11,1.1,1.76,37.37,2,38.81.3,2.11-.36,54.87-2,56.48l-5.31,64c-2.72,2.72-103.83,2.72-106.55,0L790.44,831.23l-236-17.51-72.89-5.41-8.75-118-8.76-118-9.75-131.51C451.56,438.16,451.56,337,454.28,334.33Z"></path> <path class="cls-73" d="M463.71,339.54l62.19-5.8c3-3,89.94-3,92.9,0l150.51,14,231.59,21.6,71.68,6.69,21.6,231.63,7.35,78.82c1.2,1.21,1.92,36.26,2.14,37.83.33,2.3-.38,53.32-2.14,55.08l-5.8,62.21c-3,3-100.76,3-103.72,0L793.44,825.1,564.24,806l-70.79-5.91-9.54-114.56L474.36,571,463.71,443.26C460.75,440.3,460.75,342.5,463.71,339.54Z"></path> <path class="cls-74" d="M473.15,344.75l60.42-6.29c3.2-3.2,87.3-3.2,90.5,0l146.22,15.22,225,23.4,69.64,7.25,23.4,225,8,76.57c1.3,1.3,2.07,35.14,2.32,36.85.35,2.48-.42,51.77-2.32,53.67L1090,836.89c-3.21,3.2-97.7,3.2-100.91,0L796.44,819,574.05,798.27l-68.68-6.39L495,680.72,484.68,569.57,473.15,445.65C469.94,442.45,469.94,348,473.15,344.75Z"></path> <path class="cls-75" d="M482.58,350l58.65-6.77c3.45-3.45,84.66-3.45,88.12,0l141.93,16.39,218.4,25.19,67.59,7.82L1082.47,611l8.57,74.33c1.41,1.4,2.24,34,2.5,35.86.39,2.68-.45,50.22-2.5,52.27l-6.76,58.66c-3.45,3.45-94.63,3.45-98.08,0l-186.77-19.3L583.86,790.55l-66.58-6.89L506.14,675.91,495,568.16,482.58,448C479.13,444.59,479.13,353.41,482.58,350Z"></path> <path class="cls-76" d="M492,355.17l56.87-7.25c3.7-3.7,82-3.7,85.73,0l137.65,17.56,211.79,27,65.56,8.37,27,211.82,9.18,72.09c1.51,1.5,2.4,32.91,2.68,34.87.41,2.87-.48,48.67-2.68,50.87l-7.25,56.89c-3.7,3.7-91.56,3.7-95.26,0L802.43,806.7,593.67,782.82l-64.48-7.38L517.26,671.1,505.33,566.75,492,450.43C488.32,446.73,488.32,358.87,492,355.17Z"></path> <path class="cls-77" d="M501.45,360.38l55.1-7.73c4-3.95,79.4-3.95,83.35,0l133.35,18.72,205.2,28.8L1042,409.1l28.8,205.22,9.8,69.83c1.6,1.61,2.55,31.8,2.85,33.9.44,3.06-.51,47.11-2.85,49.46l-7.73,55.11c-3.95,4-88.49,4-92.44,0l-175-22.06L603.49,775.1l-62.38-7.87L528.38,666.29,515.65,565.35l-14.2-112.53C497.51,448.87,497.51,364.32,501.45,360.38Z"></path> <path class="cls-78" d="M510.89,365.59l53.33-8.22c4.19-4.19,76.76-4.19,80.95,0l129.07,19.9,198.59,30.6,61.48,9.48L1064.9,616l10.42,67.59c1.7,1.7,2.71,30.68,3,32.91.47,3.25-.55,45.57-3,48l-8.22,53.35c-4.19,4.19-85.42,4.19-89.61,0L808.43,794.43,613.3,767.37,553,759,539.5,661.48,526,563.94,510.89,455.21C506.7,451,506.7,369.78,510.89,365.59Z"></path> <path class="cls-79" d="M520.33,370.8l51.55-8.7c4.44-4.44,74.13-4.44,78.57,0l124.78,21.07,192,32.39,59.43,10.05,32.4,192,11,65.34c1.81,1.8,2.88,29.56,3.22,31.92.49,3.45-.58,44-3.22,46.65l-8.7,51.57c-4.44,4.44-82.35,4.44-86.79,0L811.43,788.3,623.11,759.65l-58.18-8.86-14.31-94.13-14.33-94.13-16-104.93C515.89,453.16,515.89,375.24,520.33,370.8Z"></path> <path class="cls-80" d="M529.76,376l49.78-9.18c4.69-4.69,71.49-4.69,76.18,0l120.49,22.24,185.4,34.19,57.39,10.6,34.19,185.42,11.64,63.1c1.9,1.9,3,28.45,3.39,30.94.52,3.63-.61,42.46-3.39,45.24l-9.18,49.8c-4.69,4.68-79.29,4.68-84,0l-157.26-26.2-181.5-30.24-56.07-9.34-15.12-90.73-15.11-90.73L529.76,460C525.08,455.3,525.08,380.7,529.76,376Z"></path> <path class="cls-81" d="M539.2,381.22l48-9.66c4.93-4.94,68.85-4.94,73.79,0L777.2,395,956,431l55.35,11.16,36,178.81,12.25,60.85c2,2,3.19,27.34,3.57,30,.54,3.83-.65,40.91-3.57,43.84l-9.67,48c-4.93,4.94-76.22,4.94-81.15,0L817.42,776,642.73,744.2l-54-9.84L572.85,647l-15.91-87.32L539.2,462.37C534.26,457.44,534.26,386.15,539.2,381.22Z"></path> <path class="cls-82" d="M548.63,386.43l46.24-10.15c5.18-5.18,66.22-5.18,71.4,0l111.92,24.58,172.19,37.8,53.31,11.71,37.79,172.22,12.86,58.6c2.11,2.11,3.36,26.22,3.75,29,.58,4-.67,39.36-3.75,42.44l-10.14,46.25c-5.18,5.18-73.15,5.18-78.33,0l-145.45-29L652.54,736.47l-51.86-10.33L584,642.23l-16.71-83.92-18.63-93.55C543.45,459.58,543.45,391.61,548.63,386.43Z"></path> <path class="cls-83" d="M558.07,391.64,602.53,381c5.43-5.43,63.59-5.43,69,0l107.63,25.75,165.6,39.59L996,458.63l39.6,165.61,13.47,56.36c2.21,2.2,3.52,25.1,3.93,28,.6,4.21-.71,37.81-3.93,41l-10.63,44.47c-5.43,5.43-70.08,5.43-75.51,0L823.42,763.76l-161.07-35-49.76-10.82-17.5-80.51L577.58,556.9l-19.51-89.75C552.64,461.72,552.64,397.07,558.07,391.64Z"></path> <path class="cls-84" d="M567.5,396.85l42.7-11.11c5.67-5.68,60.95-5.68,66.62,0l103.34,26.92,159,41.39,49.23,12.83,41.39,159L1043.86,680c2.3,2.3,3.67,24,4.1,27,.63,4.4-.73,36.26-4.1,39.62l-11.12,42.71c-5.67,5.67-67,5.67-72.68,0L826.41,757.63,672.16,721,624.5,709.71l-18.29-77.1-18.3-77.11-20.41-86C561.83,463.87,561.83,402.52,567.5,396.85Z"></path> <path class="cls-85" d="M576.94,402.06l40.92-11.6c5.92-5.92,58.31-5.92,64.23,0l99.06,28.1,152.39,43.19,47.18,13.39,43.2,152.41,14.7,51.86c2.4,2.41,3.83,22.88,4.28,26,.66,4.59-.77,34.71-4.28,38.22L1027,784.58c-5.92,5.92-63.95,5.92-69.87,0L829.41,751.5,682,713.3l-45.55-11.81-19.09-73.7-19.1-73.7-21.29-82.16C571,466,571,408,576.94,402.06Z"></path> <path class="cls-86" d="M586.37,407.27l39.15-12.08c6.17-6.16,55.68-6.16,61.85,0l94.76,29.26,145.8,45,45.14,13.94,45,145.81,15.31,49.62c2.51,2.51,4,21.76,4.46,25,.69,4.78-.8,33.15-4.46,36.81l-12.08,39.16c-6.16,6.17-60.88,6.17-67,0L832.41,745.36,691.78,705.58l-43.45-12.3L628.44,623l-19.89-70.3-22.18-78.36C580.21,468.15,580.21,413.44,586.37,407.27Z"></path> <path class="cls-87" d="M595.81,412.48l37.38-12.56c6.41-6.41,53-6.41,59.45,0l90.48,30.43,139.19,46.79,43.1,14.51,46.8,139.21,15.92,47.37c2.61,2.6,4.15,20.64,4.64,24,.71,5-.83,31.6-4.64,35.41l-12.57,37.39c-6.41,6.41-57.8,6.41-64.22,0L835.41,739.23,701.59,697.85l-41.35-12.79-20.68-66.89-20.69-66.89-23.06-74.57C589.4,470.29,589.4,418.9,595.81,412.48Z"></path> <path class="cls-88" d="M605.25,417.69l35.6-13c6.66-6.66,50.41-6.66,57.07,0l86.19,31.6L916.7,484.84l41.06,15.06,48.59,132.61,16.54,45.13c2.7,2.7,4.31,19.52,4.82,23.06.74,5.17-.87,30.06-4.82,34l-13,35.61c-6.66,6.66-54.74,6.66-61.4,0l-110-37.22-127-43-39.24-13.29-21.48-63.48L629.2,549.87l-24-70.78C598.59,472.44,598.59,424.35,605.25,417.69Z"></path> <path class="cls-89" d="M614.68,422.9l33.83-13.53c6.91-6.9,47.78-6.9,54.68,0l81.9,32.78,126,50.39,39,15.62,50.4,126L1017.64,677c2.81,2.81,4.48,18.42,5,22.09.77,5.35-.9,28.5-5,32.6l-13.53,33.84c-6.9,6.9-51.67,6.9-58.57,0L841.4,727,721.21,682.4l-37.14-13.77L661.8,608.55l-22.28-60.09-24.84-67C607.78,474.58,607.78,429.81,614.68,422.9Z"></path> <path class="cls-90" d="M624.12,428.11l32.06-14c7.15-7.15,45.13-7.15,52.29,0l77.61,33.95,119.39,52.19,37,16.18,52.19,119.4,17.76,40.63c2.91,2.91,4.63,17.3,5.18,21.1.79,5.55-.93,27-5.18,31.2l-14,32.06c-7.16,7.15-48.61,7.15-55.76,0l-98.23-40L731,674.68l-35-14.27-23.07-56.67-23.08-56.68-25.72-63.19C617,476.72,617,435.27,624.12,428.11Z"></path> <path class="cls-91" d="M633.55,433.32l30.29-14.49c7.4-7.4,42.5-7.4,49.9,0l73.33,35.11,112.79,54,34.93,16.74,54,112.8,18.37,38.39c3,3,4.79,16.18,5.35,20.11.82,5.74-1,25.4-5.35,29.79l-14.5,30.3c-7.4,7.4-45.54,7.4-52.93,0L847.4,714.7,740.83,667,707.9,652.19,684,598.92l-23.87-53.27-26.61-59.39C626.15,478.86,626.15,440.72,633.55,433.32Z"></path> <path class="cls-92" d="M643,438.54l28.51-15c7.65-7.64,39.87-7.64,47.52,0l69,36.29,106.19,55.79,32.9,17.3,55.79,106.2,19,36.14c3.11,3.1,5,15.06,5.54,19.13.85,5.93-1,23.84-5.54,28.38l-15,28.52c-7.64,7.65-42.46,7.65-50.11,0L850.4,708.56l-99.76-49.33L719.81,644l-24.66-49.87-24.66-49.87L643,488.65C635.34,481,635.34,446.18,643,438.54Z"></path> <path class="cls-93" d="M652.42,443.75l26.75-15.47c7.89-7.89,37.23-7.89,45.12,0L789,465.74l99.59,57.59,30.85,17.85,57.6,99.6,19.59,33.89c3.21,3.21,5.11,14,5.71,18.15.88,6.12-1,22.3-5.71,27l-15.46,26.75c-7.89,7.89-39.4,7.89-47.29,0l-80.53-44.12L760.45,651.5l-28.72-15.74L706.27,589.3l-25.46-46.46L652.42,491C644.53,483.15,644.53,451.64,652.42,443.75Z"></path> <path class="cls-94" d="M661.86,449l25-15.95c8.14-8.14,34.6-8.14,42.74,0L790,471.64,883,531l28.81,18.42,59.39,93,20.21,31.64c3.31,3.31,5.27,12.84,5.89,17.16.9,6.32-1.06,20.75-5.89,25.58l-15.95,25c-8.14,8.14-36.33,8.14-44.47,0L856.39,696.3l-86.13-52.52-26.62-16.24-26.25-43-26.26-43.06-29.27-48C653.72,485.29,653.72,457.1,661.86,449Z"></path> <path class="cls-95" d="M671.29,454.17l23.2-16.43c8.39-8.39,32-8.39,40.35,0L791,477.53l86.39,61.19,26.77,19,61.19,86.4,20.83,29.4c3.4,3.41,5.43,11.72,6.06,16.17.94,6.51-1.09,19.2-6.06,24.18L969.76,737c-8.39,8.38-33.27,8.38-41.65,0l-68.72-46.88-79.32-54.11-24.52-16.72-27-39.65-27-39.66-30.17-44.2C662.91,487.43,662.91,462.55,671.29,454.17Z"></path> <path class="cls-96" d="M680.73,459.38l21.43-16.92c8.63-8.63,29.32-8.63,38,0l51.88,41,79.79,63L896.52,566l63,79.79,21.43,27.16c3.51,3.5,5.59,10.6,6.25,15.19,1,6.7-1.12,17.64-6.25,22.77L964,732.28c-8.63,8.64-30.19,8.64-38.83,0L862.39,684l-72.51-55.7-22.41-17.22-27.84-36.24-27.85-36.25-31-40.42C672.1,489.57,672.1,468,680.73,459.38Z"></path> <path class="cls-97" d="M690.17,464.59l19.65-17.4c8.88-8.88,26.69-8.88,35.57,0L793,489.33l73.18,64.79,22.69,20.08,64.79,73.2,22.05,24.9c3.61,3.61,5.75,9.49,6.43,14.21,1,6.89-1.16,16.1-6.43,21.37l-17.4,19.65c-8.88,8.88-27.12,8.88-36,0L865.38,677.9l-65.69-57.3-20.31-17.71-28.64-32.84L722.1,537.21l-31.93-36.62C681.29,491.71,681.29,473.47,690.17,464.59Z"></path> <path d="M970.46,704.89l-17.88,17.88a23.53,23.53,0,0,1-33.19,0L809.5,612.88,699.6,503a23.54,23.54,0,0,1,0-33.18l17.88-17.88a23.52,23.52,0,0,1,33.18,0l109.9,109.89,109.9,109.9A23.54,23.54,0,0,1,970.46,704.89Z"></path> </g> <g class="cls-98"> <rect class="cls-99" x="-1.09" y="13.41" width="895.44" height="683.92" rx="60.98"></rect> <path class="cls-100" d="M67.94,24.84l233.46-.62h1c.23-.22,252.35-.34,252.67-.34s258.76.12,259,.36a59.27,59.27,0,0,1,59,59l.22,56.19c.24.23.36,168.64.36,169s-.12,168.77-.36,169l-.6,148.75A59,59,0,0,1,813.77,685c-.19.11-198,.17-198.21.17s-290.89-.12-291.12-.36l-256.5-.6A58.9,58.9,0,0,1,9.16,625.36C9,625.16,9,354.71,9,354.47S9,83.86,9.16,83.66A58.9,58.9,0,0,1,67.94,24.84Z"></path> <path class="cls-101" d="M76,36.26,300.75,35h.92c.46-.44,242.81-.68,243.44-.68s249.08.25,249.54.72c31.09,0,57,25.95,57,57l.45,54.18c.46.46.72,162.45.72,163.11s-.26,162.68-.72,163.15L850.94,616a57,57,0,0,1-56.77,56.66c-.38.23-190.49.35-190.94.35-.65,0-279.91-.26-280.37-.72L76,671a56.85,56.85,0,0,1-56.6-56.67C19.13,614,19,354.1,19,353.61s.14-260.29.41-260.69A56.84,56.84,0,0,1,76,36.26Z"></path> <path class="cls-102" d="M84.05,47.68l216.06-1.84H301c.69-.66,233.27-1,234.22-1s239.38.38,240.08,1.08c29.79,0,55.06,25.27,55.06,55.06l.68,52.17c.7.69,1.08,156.27,1.08,157.25S831.73,467,831,467.65l-1.8,138.1a55,55,0,0,1-54.67,54.51c-.56.33-183,.51-183.65.51-1,0-268.94-.38-269.63-1.08l-237.23-1.8a54.79,54.79,0,0,1-54.41-54.51c-.4-.6-.61-249.9-.61-250.63s.21-250,.61-250.56A54.79,54.79,0,0,1,84.05,47.68Z"></path> <path class="cls-103" d="M92.11,59.11l207.35-2.46h.85c.92-.89,223.72-1.37,225-1.37s229.69.5,230.62,1.44c28.5,0,53.09,24.59,53.09,53.09l.91,50.15c.92.93,1.43,150.09,1.43,151.39s-.51,150.51-1.43,151.44l-2.4,132.77A53,53,0,0,1,755,647.9c-.75.44-175.48.68-176.38.68-1.31,0-258-.51-258.88-1.44l-227.59-2.4a52.72,52.72,0,0,1-52.22-52.35c-.53-.8-.82-239.52-.82-240.5s.29-239.63.82-240.43A52.72,52.72,0,0,1,92.11,59.11Z"></path> <path class="cls-104" d="M100.16,70.53l198.66-3.07h.81c1.15-1.1,214.18-1.71,215.78-1.71s220,.64,221.16,1.8c27.2,0,51.12,23.92,51.12,51.12l1.13,48.14c1.16,1.16,1.8,143.9,1.8,145.54s-.64,144.41-1.8,145.57l-3,127.44a51,51,0,0,1-50.46,50.2c-.94.56-168,.85-169.1.85-1.64,0-247-.63-248.15-1.79l-217.95-3a50.66,50.66,0,0,1-50-50.19c-.66-1-1-229.15-1-230.37s.36-229.31,1-230.3A50.67,50.67,0,0,1,100.16,70.53Z"></path> <path class="cls-105" d="M108.21,82l190-3.68H299c1.38-1.33,204.64-2.06,206.55-2.06s210.31.77,211.71,2.16c25.9,0,49.14,23.24,49.14,49.15l1.36,46.13c1.4,1.39,2.16,137.72,2.16,139.68s-.76,138.32-2.16,139.71l-3.6,122.12a49,49,0,0,1-48.36,48c-1.12.67-160.48,1-161.82,1-2,0-236-.77-237.4-2.16l-208.32-3.6a48.6,48.6,0,0,1-47.83-48c-.8-1.2-1.23-218.77-1.23-220.24s.43-219,1.23-220.18A48.59,48.59,0,0,1,108.21,82Z"></path> <path class="cls-106" d="M116.27,93.38l181.26-4.31h.74c1.61-1.55,195.1-2.4,197.33-2.4s200.62.89,202.25,2.52c24.61,0,47.17,22.56,47.17,47.17l1.59,44.12c1.62,1.62,2.51,131.53,2.51,133.82s-.89,132.24-2.51,133.86l-4.2,116.79a47,47,0,0,1-46.26,45.88c-1.31.78-153,1.2-154.54,1.2-2.29,0-225-.89-226.66-2.52l-198.68-4.2a46.54,46.54,0,0,1-45.65-45.88c-.93-1.4-1.43-208.4-1.43-210.11s.5-208.65,1.43-210A46.54,46.54,0,0,1,116.27,93.38Z"></path> <path class="cls-107" d="M124.32,104.8l172.56-4.92h.71c1.84-1.77,185.56-2.74,188.11-2.74s190.93,1,192.79,2.88c23.31,0,45.2,21.89,45.2,45.2l1.81,42.11c1.86,1.85,2.88,125.35,2.88,128s-1,126.14-2.88,128l-4.8,111.47a45,45,0,0,1-44.15,43.73c-1.5.89-145.48,1.36-147.26,1.36-2.62,0-214.07-1-215.92-2.87l-189-4.81a44.48,44.48,0,0,1-43.46-43.72c-1.06-1.6-1.63-198-1.63-200s.57-198.33,1.63-199.92A44.49,44.49,0,0,1,124.32,104.8Z"></path> <path class="cls-108" d="M132.38,116.22l163.86-5.53h.67c2.07-2,176-3.09,178.88-3.09s181.25,1.15,183.33,3.24c22,0,43.24,21.21,43.24,43.23l2,40.1c2.09,2.08,3.23,119.16,3.23,122.11s-1.14,120.05-3.23,122.14L699,544.54a43,43,0,0,1-42,41.57c-1.68,1-138,1.54-140,1.54-3,0-203.09-1.15-205.17-3.24L132.38,579a42.43,42.43,0,0,1-41.27-41.58c-1.2-1.79-1.84-187.64-1.84-189.84s.64-188,1.84-189.79A42.43,42.43,0,0,1,132.38,116.22Z"></path> <path class="cls-109" d="M140.43,127.65l155.16-6.15h.32l.32,0c2.29-2.2,166.48-3.42,169.66-3.42s171.55,1.27,173.87,3.6c20.73,0,41.26,20.53,41.26,41.26L683.29,201c2.32,2.32,3.59,113,3.59,116.25s-1.27,114-3.59,116.28l-6,100.82a41.06,41.06,0,0,1-39.95,39.41c-1.87,1.12-130.47,1.71-132.7,1.71-3.28,0-192.12-1.28-194.43-3.6l-169.78-6a40.38,40.38,0,0,1-39.08-39.42c-1.33-2-2-177.26-2-179.71s.71-177.67,2-179.67A40.37,40.37,0,0,1,140.43,127.65Z"></path> <path class="cls-110" d="M148.48,139.07,295,132.31l.29,0h.31c2.52-2.43,156.94-3.77,160.44-3.77s161.86,1.4,164.41,4c19.43,0,39.29,19.86,39.29,39.29l2.49,36.07c2.56,2.55,4,106.79,4,110.39s-1.4,107.87-4,110.42l-6.6,95.5a39.07,39.07,0,0,1-37.84,37.25c-2.06,1.23-123,1.88-125.43,1.88-3.6,0-181.14-1.4-183.68-3.95l-160.15-6.61a38.31,38.31,0,0,1-36.88-37.26c-1.47-2.19-2.25-166.89-2.25-169.58s.78-167.35,2.25-169.54A38.31,38.31,0,0,1,148.48,139.07Z"></path> <path class="cls-111" d="M156.54,150.5l137.76-7.38.28,0h.29c2.75-2.65,147.4-4.12,151.22-4.12s152.17,1.53,155,4.32c18.14,0,37.32,19.18,37.32,37.32l2.72,34.06c2.78,2.78,4.31,100.61,4.31,104.54S643.86,421,641.08,423.77l-7.2,90.16A37.11,37.11,0,0,1,598.14,549c-2.25,1.34-115.47,2.05-118.15,2.05-3.93,0-170.16-1.52-172.94-4.31l-150.51-7.21a36.27,36.27,0,0,1-34.7-35.1c-1.6-2.39-2.45-156.52-2.45-159.45s.85-157,2.45-159.41A36.27,36.27,0,0,1,156.54,150.5Z"></path> <path class="cls-112" d="M164.59,161.92l129.07-8,.26,0,.27,0c3-2.87,137.85-4.45,142-4.45s142.48,1.65,145.5,4.68c16.84,0,35.34,18.5,35.34,35.34l3,32c3,3,4.67,94.42,4.67,98.68S623,415.88,620,418.89l-7.8,84.84a35.15,35.15,0,0,1-33.64,32.95c-2.43,1.45-108,2.22-110.87,2.22-4.25,0-159.18-1.66-162.19-4.68l-140.88-7.8a34.24,34.24,0,0,1-32.51-32.95c-1.73-2.59-2.65-146.14-2.65-149.32s.92-146.69,2.65-149.29A34.24,34.24,0,0,1,164.59,161.92Z"></path> <path class="cls-113" d="M172.65,173.34,293,164.74l.25,0,.25,0c3.21-3.09,128.31-4.8,132.77-4.8s132.79,1.78,136,5c15.54,0,33.37,17.83,33.37,33.37l3.18,30c3.25,3.24,5,88.24,5,92.82s-1.78,89.6-5,92.85l-8.41,79.51a33.18,33.18,0,0,1-31.53,30.79c-2.62,1.56-100.46,2.39-103.59,2.39-4.58,0-148.21-1.78-151.45-5l-131.24-8.4a32.19,32.19,0,0,1-30.32-30.79c-1.86-2.79-2.86-135.77-2.86-139.19s1-136.37,2.86-139.16A32.2,32.2,0,0,1,172.65,173.34Z"></path> <path class="cls-114" d="M180.7,184.77l111.67-9.22.22,0h.24c3.44-3.32,118.77-5.15,123.55-5.15s123.1,1.91,126.58,5.4c14.25,0,31.4,17.16,31.4,31.4l3.4,28c3.48,3.47,5.39,82.06,5.39,87s-1.91,83.51-5.39,87l-9,74.19A31.24,31.24,0,0,1,539.33,512c-2.81,1.67-93,2.56-96.31,2.56-4.92,0-137.24-1.91-140.71-5.39l-121.61-9a30.16,30.16,0,0,1-28.13-28.63c-2-3-3.06-125.39-3.06-129.06s1.07-126,3.06-129A30.16,30.16,0,0,1,180.7,184.77Z"></path> <path class="cls-115" d="M188.75,196.19l103-9.83.21,0,.22,0c3.67-3.53,109.23-5.48,114.33-5.48s113.41,2,117.12,5.76c12.95,0,29.43,16.47,29.43,29.43l3.62,26c3.72,3.71,5.75,75.87,5.75,81.11s-2,77.42-5.75,81.12l-9.6,68.87a29.29,29.29,0,0,1-27.33,26.47c-3,1.79-85.46,2.74-89,2.74-5.24,0-126.26-2-130-5.76l-112-9.6a28.14,28.14,0,0,1-25.93-26.48c-2.13-3.19-3.27-115-3.27-118.93s1.14-115.71,3.27-118.9A28.14,28.14,0,0,1,188.75,196.19Z"></path> <path class="cls-116" d="M196.81,207.61l94.27-10.45.19,0,.19,0c3.91-3.76,99.7-5.83,105.11-5.83,5.56,0,103.72,2.17,107.67,6.12,11.65,0,27.45,15.8,27.45,27.46l3.86,24c3.94,3.94,6.11,69.69,6.11,75.25s-2.17,71.33-6.11,75.27l-10.2,63.54a27.37,27.37,0,0,1-25.23,24.31c-3.18,1.9-78,2.91-81.75,2.91-5.57,0-115.29-2.17-119.23-6.12l-102.33-10.2a26.13,26.13,0,0,1-23.75-24.32c-2.26-3.39-3.47-104.64-3.47-108.8s1.21-105.39,3.47-108.78A26.13,26.13,0,0,1,196.81,207.61Z"></path> <path class="cls-117" d="M204.86,219,290.43,208l.17,0,.18,0c4.14-4,90.16-6.17,95.89-6.17,5.89,0,94,2.3,98.21,6.48,10.36,0,25.48,15.13,25.48,25.49l4.08,22c4.18,4.17,6.47,63.5,6.47,69.39s-2.29,65.24-6.47,69.41l-10.8,58.21a25.49,25.49,0,0,1-23.12,22.17c-3.37,2-70.46,3.07-74.48,3.07-5.89,0-104.31-2.29-108.48-6.47l-92.7-10.81a24.14,24.14,0,0,1-21.56-22.16c-2.39-3.59-3.67-94.27-3.67-98.67s1.28-95.06,3.67-98.65A24.14,24.14,0,0,1,204.86,219Z"></path> <path class="cls-118" d="M212.92,230.46l76.86-11.68.16,0,.16,0c4.37-4.2,80.62-6.51,86.67-6.51,6.21,0,84.34,2.42,88.75,6.84,9.06,0,23.51,14.44,23.51,23.51l4.31,20c4.41,4.4,6.83,57.32,6.83,63.53s-2.42,59.15-6.83,63.56l-11.41,52.88a23.6,23.6,0,0,1-21,20c-3.55,2.12-63,3.24-67.19,3.24-6.22,0-93.34-2.42-97.74-6.83l-83.06-11.41a22.15,22.15,0,0,1-19.37-20c-2.53-3.79-3.88-83.89-3.88-88.54s1.35-84.74,3.88-88.52A22.15,22.15,0,0,1,212.92,230.46Z"></path> <path class="cls-119" d="M221,241.88l68.17-12.29.14,0,.14,0c4.6-4.42,71.08-6.86,77.44-6.86,6.55,0,74.65,2.55,79.29,7.2,7.78,0,21.54,13.77,21.54,21.54l4.54,18c4.64,4.63,7.19,51.13,7.19,57.68s-2.55,53.06-7.19,57.69l-12,47.56a21.78,21.78,0,0,1-18.92,17.85c-3.74,2.23-55.45,3.42-59.92,3.42-6.54,0-82.36-2.55-87-7.2l-73.43-12a20.23,20.23,0,0,1-17.18-17.85c-2.66-4-4.09-73.52-4.09-78.42s1.43-74.4,4.09-78.38A20.23,20.23,0,0,1,221,241.88Z"></path> <path class="cls-120" d="M229,253.31l59.47-12.91.12,0,.13,0c4.82-4.64,61.54-7.2,68.22-7.2,6.87,0,65,2.68,69.83,7.56,6.48,0,19.57,13.1,19.57,19.57l4.76,16c4.88,4.86,7.55,44.95,7.55,51.82s-2.67,47-7.55,51.83l-12.6,42.24a20,20,0,0,1-16.81,15.69c-3.94,2.34-47.95,3.59-52.64,3.59-6.88,0-71.39-2.68-76.25-7.55L229,421.24a18.32,18.32,0,0,1-15-15.69c-2.8-4.19-4.3-63.15-4.3-68.29s1.5-64.07,4.3-68.26A18.32,18.32,0,0,1,229,253.31Z"></path> <path class="cls-121" d="M237.08,264.73l50.77-13.52.1,0,.11,0c5.05-4.86,52-7.54,59-7.54,7.2,0,55.27,2.8,60.37,7.92,5.18,0,17.6,12.41,17.6,17.59l5,13.95c5.1,5.1,7.91,38.76,7.91,46s-2.81,40.88-7.91,46l-13.21,36.91a18.38,18.38,0,0,1-14.7,13.53c-4.13,2.46-40.45,3.76-45.36,3.76-7.21,0-60.42-2.8-65.51-7.91l-54.16-13.21a16.51,16.51,0,0,1-12.8-13.54c-2.93-4.38-4.5-52.76-4.5-58.15s1.57-53.75,4.5-58.13A16.52,16.52,0,0,1,237.08,264.73Z"></path> <path class="cls-122" d="M245.13,276.16,287.2,262l.09,0,.09,0c5.28-5.09,42.45-7.89,49.78-7.89,7.52,0,45.57,2.93,50.91,8.28,3.89,0,15.63,11.74,15.63,15.63l5.21,11.93c5.34,5.33,8.27,32.58,8.27,40.11s-2.93,34.78-8.27,40.11l-13.8,31.59c-1.7,5.58-7,9.21-12.61,11.38-4.68,1.8-32.94,3.93-38.08,3.93-7.53,0-49.44-2.94-54.76-8.28L245.13,395a14.87,14.87,0,0,1-10.6-11.39c-3.06-4.58-4.71-42.39-4.71-48s1.65-43.42,4.71-48A14.85,14.85,0,0,1,245.13,276.16Z"></path> <path class="cls-123" d="M253.19,287.58l33.37-14.75.07,0,.07,0c5.51-5.3,32.91-8.23,40.55-8.23,7.85,0,35.89,3.06,41.46,8.64,2.59,0,13.65,11.07,13.65,13.66l5.45,9.92c5.57,5.56,8.62,26.39,8.62,34.25s-3.05,28.69-8.62,34.26L373.4,391.52c-1.77,4.36-6,7.34-10.5,9.22-4.82,2-25.45,4.1-30.8,4.1-7.86,0-38.47-3.06-44-8.63L253.19,381.8c-4-1.4-6.65-5.26-8.42-9.23-2.34-5.25-4.91-32-4.91-37.89s2.57-32.62,4.91-37.87C246.54,292.84,249.19,289,253.19,287.58Z"></path> <path class="cls-124" d="M261.24,299l24.67-15.36,0,0,.06,0c5.74-5.52,23.37-8.57,31.33-8.57,8.18,0,26.2,3.18,32,9,1.3,0,11.68,10.38,11.68,11.68l5.67,7.91c5.8,5.79,9,20.21,9,28.39s-3.19,22.61-9,28.4l-15,20.93c-1.85,3.14-5.06,5.47-8.4,7.07-4.92,2.36-17.95,4.27-23.53,4.27-8.18,0-27.49-3.18-33.27-9l-25.26-15c-2.76-1.46-4.77-4.24-6.23-7.07-2.73-5.33-5.11-21.64-5.11-27.76s2.38-22.42,5.11-27.75C256.47,303.24,258.48,300.46,261.24,299Z"></path> <path d="M269.29,355.5l15.63,15.61a31.83,31.83,0,0,0,45.07,0l15.6-15.61a31.83,31.83,0,0,0,0-45.07L330,294.82a31.85,31.85,0,0,0-44.65-.45l0,0,0,0-16,16a31.83,31.83,0,0,0,0,45.07Z"></path> </g> <g> <path d="M824.24,792.26h23.7v63.09H740.22V830.73h84Z"></path> <path d="M829.48,743.94c0-6.31-2.47-11.7-5.85-14.77l10.62-18.47c10.46,7.54,15.85,18.93,15.85,33.55,0,26.31-17.7,42.62-40.63,42.62s-40.63-16.62-40.63-40.93c0-22.47,17.39-39.09,40.63-39.09a44.38,44.38,0,0,1,9.23.93v54.63C826.71,759.48,829.48,752.4,829.48,743.94Zm-28-14.16c-8.93,2.46-12.16,9.39-12.16,16.31,0,8.78,4.31,14.62,12.16,16.78Z"></path> <path d="M771,615.6h76.94v23.08h-7.23c5.85,5.08,9.39,12.62,9.39,22.93,0,20.16-17.7,36.78-40.63,36.78s-40.63-16.62-40.63-36.78c0-10.31,3.54-17.85,9.39-22.93H771Zm38.47,23.08c-11.54,0-18.77,7.7-18.77,18.32s7.23,18.31,18.77,18.31,18.78-7.7,18.78-18.31S821,638.68,809.47,638.68Z"></path> <path d="M769.46,552.51h26.16c-1.54,9.54,2.31,23.09,17.54,23.09h34.78v23.08H771V575.6h13.69C774.38,572.52,769.46,562.21,769.46,552.51Z"></path> <path d="M800.7,467.87h47.24V491H804.08c-9.54,0-14,6-14,13.39,0,8.46,4.92,14.31,15.85,14.31h42v23.08H771V518.66h7.23c-5.69-4.16-9.39-11.85-9.39-22C768.84,481.11,779.92,467.87,800.7,467.87Z"></path> <path d="M750.38,454.34a13.85,13.85,0,1,1,13.85-13.85A14,14,0,0,1,750.38,454.34ZM771,452V429h76.94V452Z"></path> <path d="M800.7,338.15h47.24v23.09H804.08c-9.54,0-14,6-14,13.39,0,8.46,4.92,14.31,15.85,14.31h42V412H771V388.94h7.23c-5.69-4.16-9.39-11.85-9.39-22C768.84,351.39,779.92,338.15,800.7,338.15Z"></path> <path d="M771,243.36h73.1c25.85,0,36.78,20.16,36.78,40.63,0,16-6,29.39-18.62,36.47l-11.39-19.7c5.38-2.92,9.69-7.38,9.69-17.54,0-10.77-5.54-17.39-16.46-17.39H837c6.31,5.08,10,12.47,10,22.47,0,21.85-17.85,37.86-39.09,37.86s-39.09-16-39.09-37.86c0-10,3.7-17.39,10-22.47H771Zm36.93,22.47c-10.62,0-17.85,7.7-17.85,18.62s7.23,18.62,17.85,18.62,17.85-7.69,17.85-18.62S818.55,265.83,807.93,265.83Z"></path> <path d="M841.79,773.33c22.93,0,40.62,16.62,40.62,36.78,0,10.31-3.54,17.85-9.38,22.93h7.23v23.08H772.53V833h38c-5.85-5.08-9.39-12.62-9.39-22.93C801.16,790,818.86,773.33,841.79,773.33Zm0,23.08c-11.55,0-18.78,7.7-18.78,18.32S830.24,833,841.79,833s18.77-7.69,18.77-18.31S853.33,796.41,841.79,796.41Z"></path> <path d="M803.31,690.23,878,716.55c24.47,8.62,34.16,22.31,33.09,43.86H889.49c0-10.77-3.38-15.85-12.77-19.24L803.31,771.8V746.4l47.09-17.08-47.09-14.46Z"></path> <path d="M825.47,614.06h27.24c6.62,0,7.24-5.69,6.62-15.85h20.93c3.08,30.17-6,38.94-27.55,38.94H825.47v12.31H803.31V637.15H788.69l-6.92-23.09h21.54V598.21h22.16Z"></path> <path d="M861.79,547.59c0-6.31-2.46-11.7-5.85-14.78l10.62-18.46c10.47,7.54,15.85,18.92,15.85,33.55,0,26.31-17.69,42.62-40.62,42.62s-40.63-16.62-40.63-40.93c0-22.47,17.39-39.09,40.63-39.09a45.07,45.07,0,0,1,9.23.92v54.63C859,563.13,861.79,556.05,861.79,547.59Zm-28-14.16c-8.92,2.46-12.15,9.39-12.15,16.31,0,8.77,4.3,14.62,12.15,16.78Z"></path> <path d="M803.31,419.25h77v23.08H873c5.84,5.08,9.38,12.62,9.38,22.93,0,20.16-17.69,36.78-40.62,36.78s-40.63-16.62-40.63-36.78c0-10.31,3.54-17.85,9.39-22.93h-7.24Zm38.48,23.08c-11.55,0-18.78,7.7-18.78,18.31S830.24,479,841.79,479s18.77-7.7,18.77-18.32S853.33,442.33,841.79,442.33Z"></path> <path d="M841.79,406.17c-22.93,0-40.63-17.39-40.63-40.78,0-14.92,7.85-28.16,19.7-34.78l11.69,20.16c-5.38,2.62-8.62,8.16-8.62,14.93,0,10,7.24,17.39,17.86,17.39s17.85-7.39,17.85-17.39c0-6.77-3.23-12.46-8.62-14.93l11.54-20.16c12,6.62,19.85,19.7,19.85,34.78C882.41,388.78,864.72,406.17,841.79,406.17Z"></path> <path d="M833,247.52h47.25V270.6H836.4c-9.54,0-14,6-14,13.39,0,8.46,4.93,14.31,15.86,14.31h42v23.08H772.53V298.3h38c-5.7-4.15-9.39-11.85-9.39-22C801.16,260.75,812.24,247.52,833,247.52Z"></path> <path d="M782.69,234a13.85,13.85,0,1,1,13.85-13.85A14,14,0,0,1,782.69,234Zm20.62-2.31V208.59h77v23.08Z"></path> <path d="M833,117.8h47.25v23.08H836.4c-9.54,0-14,6-14,13.39,0,8.46,4.93,14.31,15.86,14.31h42v23.08h-77V168.58h7.24c-5.7-4.16-9.39-11.85-9.39-22C801.16,131,812.24,117.8,833,117.8Z"></path> <path d="M803.31,23h73.1c25.86,0,36.78,20.16,36.78,40.63,0,16-6,29.4-18.62,36.47L883.18,80.41c5.39-2.93,9.7-7.39,9.7-17.55,0-10.77-5.54-17.39-16.47-17.39h-7.08c6.31,5.08,10,12.47,10,22.47,0,21.85-17.86,37.86-39.09,37.86s-39.09-16-39.09-37.86c0-10,3.69-17.39,10-22.47h-7.85Zm36.94,22.47c-10.62,0-17.86,7.7-17.86,18.62s7.24,18.62,17.86,18.62S858.1,75,858.1,64.09,850.87,45.47,840.25,45.47Z"></path> </g> <g class="cls-125"> <rect class="cls-39" x="-12.5" y="1.3" width="847.89" height="892.53"></rect> <path class="cls-38" d="M-3.24,7.58H7.29c.34,0,148.37.22,148.48.55h0c.1.33,148.15.55,148.5.55H520c.34,0,148.42-.22,148.52-.55h0c.11-.33,148.16-.55,148.5-.55h10.53c.54,0,.92,181,.75,181.47l-1.85,694.66c-.11.32-282.64.54-283,.54H280.89c-.34,0-282.92-.22-283-.54L-4,189.05C-4.17,188.54-3.78,7.58-3.24,7.58Z"></path> <path class="cls-37" d="M6,13.85H16.34c.69,0,145.14.45,145.35,1.11h0c.21.65,144.67,1.1,145.36,1.1H518.56c.69,0,145.19-.45,145.39-1.1h0c.21-.66,144.68-1.11,145.37-1.11h10.32c1.09,0,1.85,176.75,1.5,177.77l-3.69,682c-.22.64-275.62,1.08-276.3,1.08H284.56c-.67,0-276.13-.44-276.35-1.08l-3.69-682C4.17,190.6,4.93,13.85,6,13.85Z"></path> <path class="cls-36" d="M15.27,20.13H25.39c1,0,141.9.67,142.22,1.65h0c.31,1,141.2,1.66,142.23,1.66H517.16c1,0,141.94-.67,142.26-1.66h0c.31-1,141.2-1.65,142.23-1.65h10.12c1.63,0,2.77,172.53,2.25,174.07l-5.55,669.25c-.32,1-268.6,1.61-269.62,1.61H288.24c-1,0-269.34-.64-269.67-1.61L13,194.2C12.5,192.66,13.65,20.13,15.27,20.13Z"></path> <path class="cls-35" d="M24.53,26.4h9.92c1.38,0,138.66.9,139.08,2.21h0c.42,1.31,137.72,2.21,139.1,2.21H515.76c1.38,0,138.7-.9,139.12-2.21h0C655.3,27.3,792.6,26.4,794,26.4h9.92c2.16,0,3.69,168.32,3,170.37L799.5,853.33c-.44,1.28-261.59,2.14-262.94,2.14H291.92c-1.36,0-262.56-.86-263-2.14L21.54,196.77C20.84,194.72,22.36,26.4,24.53,26.4Z"></path> <path class="cls-34" d="M33.79,32.68H43.5c1.73,0,135.43,1.11,136,2.76h0c.52,1.64,134.24,2.75,136,2.75h199c1.72,0,135.46-1.11,136-2.75h0c.52-1.65,134.24-2.76,136-2.76H796c2.71,0,4.62,164.1,3.75,166.66L790.53,843.2c-.55,1.6-254.57,2.68-256.27,2.68H295.6c-1.7,0-255.77-1.08-256.31-2.68L30,199.34C29.17,196.78,31.08,32.68,33.79,32.68Z"></path> <path class="cls-33" d="M43.05,39h9.51c2.06,0,132.18,1.34,132.81,3.31h0c.63,2,130.76,3.31,132.83,3.31H513c2.06,0,132.22-1.34,132.85-3.31h0c.63-2,130.76-3.31,132.83-3.31h9.51c3.25,0,5.54,159.89,4.49,163L781.55,833.07C780.9,835,534,836.29,532,836.29H299.28c-2,0-249-1.29-249.64-3.22L38.55,201.92C37.51,198.84,39.8,39,43.05,39Z"></path> <path class="cls-32" d="M52.31,45.23h9.3c2.41,0,129,1.56,129.68,3.86h0C192,51.39,318.58,53,321,53H511.55c2.42,0,129-1.56,129.72-3.86h0c.73-2.3,127.29-3.86,129.7-3.86h9.3c3.8,0,6.47,155.67,5.25,159.26L772.58,822.94c-.76,2.25-240.54,3.76-242.91,3.76H303c-2.37,0-242.19-1.51-242.95-3.76L47.06,204.49C45.84,200.9,48.51,45.23,52.31,45.23Z"></path> <path class="cls-31" d="M61.56,51.5h9.1c2.76,0,125.71,1.79,126.55,4.42h0c.84,2.62,123.81,4.41,126.56,4.41H510.15c2.76,0,125.75-1.79,126.59-4.41h0c.83-2.63,123.8-4.42,126.56-4.42h9.1c4.34,0,7.39,151.46,6,155.56L763.61,812.81c-.88,2.57-233.52,4.3-236.24,4.3H306.63c-2.71,0-235.4-1.73-236.27-4.3L55.57,207.06C54.17,203,57.23,51.5,61.56,51.5Z"></path> <path class="cls-30" d="M70.82,57.78h8.9c3.1,0,122.47,2,123.41,5h0c.94,3,120.33,5,123.43,5H508.75c3.1,0,122.51-2,123.45-5h0c.94-3,120.33-5,123.43-5h8.89c4.88,0,8.32,147.24,6.75,151.86L754.63,802.69c-1,2.88-226.5,4.83-229.55,4.83H310.31c-3.05,0-228.61-1.95-229.6-4.83L64.08,209.64C62.51,205,65.94,57.78,70.82,57.78Z"></path> <path class="cls-29" d="M80.08,64.05h8.69c3.45,0,119.24,2.24,120.28,5.52h0c1,3.28,116.85,5.51,120.3,5.51h178c3.45,0,119.27-2.23,120.31-5.51h0c1.05-3.28,116.85-5.52,120.3-5.52h8.69c5.42,0,9.24,143,7.49,148.16L745.66,792.56c-1.09,3.21-219.49,5.36-222.88,5.36H314c-3.39,0-221.83-2.15-222.92-5.36L72.59,212.21C70.84,207.08,74.66,64.05,80.08,64.05Z"></path> <path class="cls-28" d="M89.34,70.33h8.49c3.79,0,116,2.45,117.14,6.07h0c1.15,3.61,113.37,6.06,117.16,6.06H506c3.79,0,116-2.45,117.18-6.06h0c1.15-3.62,113.37-6.07,117.16-6.07h8.49c6,0,10.16,138.81,8.24,144.45L736.69,782.43c-1.2,3.53-212.47,5.9-216.2,5.9H317.67c-3.73,0-215-2.37-216.24-5.9L81.1,214.78C79.18,209.14,83.37,70.33,89.34,70.33Z"></path> <path class="cls-27" d="M98.6,76.6h8.28c4.14,0,112.76,2.68,114,6.62h0c1.26,3.94,109.9,6.62,114,6.62H504.55c4.13,0,112.79-2.68,114-6.62h0c1.26-3.94,109.89-6.62,114-6.62h8.28c6.51,0,11.09,134.6,9,140.76L727.71,772.3c-1.31,3.85-205.45,6.44-209.52,6.44H321.34c-4.06,0-208.25-2.59-209.56-6.44L89.61,217.36C87.51,211.2,92.09,76.6,98.6,76.6Z"></path> <path class="cls-26" d="M107.86,82.88h8.07c4.48,0,109.53,2.9,110.88,7.17h0c1.36,4.27,106.42,7.17,110.9,7.17H503.14c4.48,0,109.56-2.9,110.92-7.17h0c1.35-4.27,106.41-7.17,110.89-7.17H733c7.05,0,12,130.38,9.74,137.05l-24,542.24c-1.42,4.17-198.44,7-202.84,7H325c-4.4,0-201.46-2.81-202.88-7l-24-542.24C95.85,213.26,100.81,82.88,107.86,82.88Z"></path> <path class="cls-25" d="M117.11,89.15H125c4.82,0,106.28,3.13,107.74,7.73h0c1.47,4.59,102.94,7.72,107.76,7.72H501.74c4.83,0,106.32-3.13,107.78-7.72h0c1.46-4.6,102.93-7.73,107.76-7.73h7.87c7.59,0,12.94,126.17,10.49,133.35L709.77,752.05c-1.53,4.49-191.42,7.51-196.17,7.51H328.7c-4.75,0-194.67-3-196.2-7.51L106.62,222.5C104.18,215.32,109.52,89.15,117.11,89.15Z"></path> <path class="cls-24" d="M126.37,95.43H134c5.17,0,103.05,3.35,104.62,8.27h0c1.56,4.93,99.45,8.28,104.62,8.28H500.34c5.17,0,103.08-3.35,104.64-8.28h0c1.57-4.92,99.46-8.27,104.63-8.27h7.67c8.13,0,13.86,122,11.24,129.65L700.79,741.92c-1.63,4.81-184.4,8.05-189.48,8.05H332.38c-5.09,0-187.89-3.24-189.52-8.05L115.13,225.07C112.51,217.37,118.24,95.43,126.37,95.43Z"></path> <path class="cls-23" d="M135.63,101.7h7.47c5.51,0,99.8,3.57,101.48,8.83h0c1.67,5.25,96,8.82,101.49,8.82H498.94c5.51,0,99.83-3.57,101.51-8.82h0c1.67-5.26,96-8.83,101.49-8.83h7.46c8.68,0,14.78,117.74,12,126L691.82,731.79c-1.75,5.13-177.39,8.59-182.81,8.59h-173c-5.42,0-181.09-3.46-182.84-8.59L123.64,227.65C120.85,219.43,127,101.7,135.63,101.7Z"></path> <path class="cls-22" d="M144.89,108h7.26c5.86,0,96.57,3.79,98.35,9.38h0c1.77,5.58,92.5,9.37,98.35,9.37H497.54c5.86,0,96.59-3.79,98.37-9.37h0c1.78-5.59,92.5-9.38,98.36-9.38h7.26c9.22,0,15.7,113.52,12.74,122.24L682.85,721.66c-1.86,5.46-170.37,9.12-176.14,9.12h-167c-5.76,0-174.31-3.66-176.16-9.12L132.15,230.22C129.18,221.49,135.67,108,144.89,108Z"></path> <path class="cls-21" d="M154.15,114.25h7c6.21,0,93.34,4,95.22,9.93h0c1.88,5.91,89,9.93,95.22,9.93h144.5c6.2,0,93.35-4,95.23-9.93h0c1.88-5.91,89-9.93,95.23-9.93h7.06c9.75,0,16.62,109.3,13.48,118.54L673.87,711.53c-2,5.78-163.35,9.66-169.45,9.66h-161c-6.1,0-167.52-3.88-169.48-9.66L140.66,232.79C137.52,223.55,144.39,114.25,154.15,114.25Z"></path> <path class="cls-20" d="M163.4,120.53h6.86c6.55,0,90.09,4.24,92.08,10.48h0c2,6.24,85.54,10.48,92.09,10.48h140.3c6.55,0,90.12-4.24,92.11-10.48h0c2-6.24,85.54-10.48,92.09-10.48h6.85c10.3,0,17.55,105.08,14.24,114.84l-35.12,466c-2.07,6.1-156.34,10.2-162.78,10.2h-155c-6.44,0-160.73-4.1-162.81-10.2l-35.11-466C145.85,225.61,153.1,120.53,163.4,120.53Z"></path> <path class="cls-19" d="M172.66,126.81h6.65c6.89,0,86.86,4.46,88.95,11h0c2.09,6.56,82.06,11,88.95,11H493.33c6.9,0,86.88-4.47,89-11h0c2.09-6.57,82.06-11,89-11h6.65c10.84,0,18.47,100.86,15,111.13l-37,453.34C653.74,697.69,506.6,702,499.83,702H350.77c-6.78,0-153.95-4.32-156.13-10.73l-37-453.34C154.19,227.67,161.82,126.81,172.66,126.81Z"></path> <path class="cls-18" d="M181.92,133.08h6.45c7.23,0,83.61,4.68,85.81,11.58h0c2.19,6.9,78.58,11.58,85.82,11.58H491.93c7.24,0,83.64-4.68,85.83-11.58h0c2.2-6.9,78.59-11.58,85.83-11.58H670c11.39,0,19.4,96.65,15.74,107.43L647,681.15c-2.29,6.74-142.3,11.27-149.42,11.27H354.44c-7.11,0-147.15-4.53-149.44-11.27L166.18,240.51C162.52,229.73,170.53,133.08,181.92,133.08Z"></path> <path class="cls-17" d="M191.18,139.36h6.24c7.58,0,80.38,4.9,82.68,12.13h0c2.3,7.22,75.11,12.13,82.69,12.13H490.53c7.58,0,80.4-4.91,82.7-12.13h0c2.3-7.23,75.1-12.13,82.69-12.13h6.24c11.93,0,20.32,92.43,16.48,103.73L638,671c-2.4,7.06-135.29,11.81-142.74,11.81H358.12c-7.45,0-140.37-4.75-142.77-11.81L174.69,243.09C170.85,231.79,179.25,139.36,191.18,139.36Z"></path> <path class="cls-16" d="M200.44,145.63h6c7.93,0,77.15,5.13,79.55,12.69h0c2.4,7.55,71.63,12.68,79.56,12.68H489.13c7.92,0,77.16-5.13,79.56-12.68h0c2.4-7.56,71.63-12.69,79.56-12.69h6c12.47,0,21.25,88.22,17.24,100L629,660.89c-2.51,7.38-128.28,12.35-136.07,12.35H361.8c-7.79,0-133.58-5-136.09-12.35L183.2,245.66C179.19,233.85,188,145.63,200.44,145.63Z"></path> <path class="cls-15" d="M209.69,151.91h5.84c8.27,0,73.9,5.35,76.41,13.23h0c2.51,7.88,68.15,13.24,76.42,13.24H487.72c8.28,0,73.93-5.36,76.44-13.24h0c2.5-7.88,68.14-13.23,76.42-13.23h5.83c13,0,22.17,84,18,96.32L620,650.76c-2.62,7.7-121.25,12.88-129.39,12.88H365.48c-8.14,0-126.79-5.18-129.41-12.88L191.71,248.23C187.52,235.91,196.68,151.91,209.69,151.91Z"></path> <path class="cls-14" d="M219,158.18h5.63c8.62,0,70.67,5.58,73.28,13.79h0c2.61,8.21,64.67,13.79,73.29,13.79H486.32c8.62,0,70.69-5.58,73.3-13.79h0c2.61-8.21,64.67-13.79,73.29-13.79h5.63c13.55,0,23.09,79.79,18.73,92.63L611.06,640.64c-2.73,8-114.24,13.41-122.71,13.41H369.16c-8.48,0-120-5.39-122.73-13.41L200.22,250.81C195.86,238,205.4,158.18,219,158.18Z"></path> <path class="cls-13" d="M228.21,164.46h5.43c9,0,67.43,5.8,70.14,14.33h0c2.72,8.54,61.19,14.34,70.16,14.34h111c9,0,67.45-5.8,70.16-14.34h0c2.72-8.53,61.19-14.33,70.16-14.33h5.42c14.1,0,24,75.57,19.48,88.92l-48,377.13c-2.84,8.34-107.23,14-116,14H372.83c-8.81,0-113.21-5.61-116-14l-48-377.13C204.19,240,214.11,164.46,228.21,164.46Z"></path> <path class="cls-12" d="M237.47,170.73h5.22c9.31,0,64.19,6,67,14.89h0c2.82,8.87,57.72,14.89,67,14.89h106.8c9.31,0,64.21-6,67-14.89h0c2.82-8.87,57.71-14.89,67-14.89h5.22c14.64,0,24.94,71.36,20.23,85.22L593.11,620.38c-2.94,8.66-100.2,14.49-109.35,14.49H376.51c-9.15,0-106.42-5.83-109.37-14.49L217.24,256C212.53,242.09,222.83,170.73,237.47,170.73Z"></path> <path class="cls-11" d="M246.73,177h5c9.65,0,61,6.24,63.88,15.44h0c2.93,9.19,54.24,15.44,63.89,15.44H482.12c9.65,0,61-6.25,63.89-15.44h0c2.93-9.2,54.24-15.44,63.89-15.44h5c15.18,0,25.87,67.14,21,81.52L584.14,610.25c-3.06,9-93.19,15-102.68,15H380.19c-9.49,0-99.64-6-102.69-15L225.75,258.53C220.86,244.15,231.55,177,246.73,177Z"></path> <path class="cls-10" d="M256,183.28h4.82c10,0,57.71,6.47,60.74,16h0c3,9.53,50.76,16,60.76,16h98.42c10,0,57.72-6.47,60.75-16h0c3-9.52,50.76-16,60.76-16H607c15.72,0,26.79,62.93,21.73,77.82l-53.6,339c-3.17,9.31-86.18,15.57-96,15.57h-95.3c-9.83,0-92.85-6.26-96-15.57l-53.59-339C229.19,246.21,240.26,183.28,256,183.28Z"></path> <path class="cls-9" d="M265.24,189.56h4.61c10.34,0,54.48,6.69,57.61,16.54h0c3.14,9.85,47.28,16.55,57.62,16.55h94.23c10.34,0,54.49-6.7,57.63-16.55h0c3.13-9.85,47.28-16.54,57.62-16.54h4.6c16.27,0,27.72,58.71,22.48,74.11L566.19,590c-3.27,9.62-79.15,16.09-89.32,16.09H387.55c-10.17,0-86.07-6.47-89.34-16.09L242.76,263.67C237.53,248.27,249,189.56,265.24,189.56Z"></path> <path class="cls-8" d="M274.5,195.83h4.41c10.68,0,51.24,6.92,54.47,17.1h0c3.24,10.18,43.8,17.09,54.49,17.09h90c10.69,0,51.25-6.91,54.49-17.09h0c3.24-10.18,43.8-17.1,54.49-17.1h4.4c16.81,0,28.64,54.5,23.23,70.42l-57.3,313.62c-3.38,9.94-72.14,16.63-82.65,16.63H391.22c-10.5,0-79.27-6.69-82.65-16.63l-57.3-313.62C245.86,250.33,257.69,195.83,274.5,195.83Z"></path> <path class="cls-7" d="M283.76,202.11H288c11,0,48,7.13,51.35,17.64h0c3.34,10.51,40.32,17.65,51.35,17.65h85.85c11,0,48-7.14,51.36-17.65h0c3.34-10.51,40.32-17.64,51.35-17.64h4.19c17.35,0,29.57,50.28,24,66.71L548.25,569.74c-3.5,10.27-65.13,17.17-76,17.17H394.9c-10.84,0-72.48-6.9-76-17.17L259.78,268.82C254.2,252.39,266.41,202.11,283.76,202.11Z"></path> <path class="cls-6" d="M293,208.38h4c11.38,0,44.77,7.36,48.22,18.2h0c3.44,10.84,36.84,18.2,48.21,18.2h81.67c11.37,0,44.77-7.36,48.22-18.2h0c3.45-10.84,36.84-18.2,48.21-18.2h4c17.89,0,30.49,46.07,24.73,63l-61,288.22c-3.6,10.59-58.1,17.71-69.29,17.71h-71.4c-11.18,0-65.7-7.12-69.3-17.71l-61-288.22C262.53,254.45,275.12,208.38,293,208.38Z"></path> <path class="cls-5" d="M302.27,214.66h3.8c11.72,0,41.52,7.58,45.08,18.75h0c3.55,11.16,33.36,18.75,45.08,18.75h77.48c11.72,0,41.53-7.59,45.08-18.75h0c3.55-11.17,33.37-18.75,45.08-18.75h3.8c18.43,0,31.41,41.85,25.47,59.31L530.3,549.48c-3.71,10.91-51.09,18.25-62.61,18.25H402.26c-11.53,0-58.91-7.34-62.62-18.25L276.8,274C270.87,256.51,283.84,214.66,302.27,214.66Z"></path> <path class="cls-4" d="M311.53,220.93h3.59c12.06,0,38.29,7.81,41.95,19.3h0c3.65,11.5,29.88,19.31,41.95,19.31h73.29c12.06,0,38.29-7.81,41.95-19.31h0c3.65-11.49,29.88-19.3,41.94-19.3h3.59c19,0,32.34,37.64,26.23,55.61L521.33,539.35c-3.82,11.24-44.08,18.79-55.94,18.79H405.93c-11.86,0-52.12-7.56-55.93-18.79L285.31,276.54C279.2,258.57,292.56,220.93,311.53,220.93Z"></path> <path class="cls-3" d="M320.79,227.21h3.38c12.41,0,35.06,8,38.82,19.85h0c3.76,11.82,26.4,19.85,38.81,19.85h69.1c12.41,0,35.06-8,38.82-19.85h0c3.76-11.82,26.41-19.85,38.81-19.85h3.39c19.52,0,33.25,33.42,27,51.9L512.35,529.23c-3.93,11.55-37.05,19.32-49.25,19.32H409.61c-12.2,0-45.33-7.77-49.26-19.32L293.82,279.11C287.53,260.63,301.27,227.21,320.79,227.21Z"></path> <path class="cls-2" d="M330.05,233.48h3.18c12.75,0,31.81,8.25,35.68,20.41h0c3.86,12.15,22.93,20.4,35.68,20.4H469.5c12.75,0,31.82-8.25,35.68-20.4h0c3.87-12.16,22.93-20.41,35.68-20.41H544c20.06,0,34.18,29.21,27.73,48.21L503.38,519.1c-4,11.87-30,19.85-42.58,19.85H413.29c-12.54,0-38.54-8-42.58-19.85L302.33,281.68C295.87,262.69,310,233.48,330.05,233.48Z"></path> <path class="cls-1" d="M339.31,239.76h3c13.1,0,28.58,8.47,32.55,20.95h0c4,12.48,19.45,21,32.55,21H468.1c13.1,0,28.58-8.48,32.55-21h0c4-12.48,19.45-20.95,32.54-20.95h3c20.6,0,35.1,25,28.47,44.5L494.41,509c-4.15,12.19-23,20.39-35.9,20.39H417c-12.88,0-31.76-8.2-35.9-20.39L310.83,284.26C304.2,264.75,318.7,239.76,339.31,239.76Z"></path> <path d="M410.16,289.05H466.7a30.86,30.86,0,0,0,29.41-21.51h0A30.87,30.87,0,0,1,525.52,246h2.77a30.87,30.87,0,0,1,29.23,40.8l-72.09,212a30.85,30.85,0,0,1-29.22,20.93H420.65a30.87,30.87,0,0,1-29.23-20.93l-72.08-212A30.87,30.87,0,0,1,348.57,246h2.77a30.86,30.86,0,0,1,29.41,21.51h0A30.86,30.86,0,0,0,410.16,289.05Z"></path> </g> <g class="cls-126"> <rect class="cls-39" x="99" y="100.41" width="736" height="699.19"></rect> <path class="cls-127" d="M112,113.73l567-2.38c.66-.22,147.94.27,147.94,1v8.58c0,.45-.29,120.86-.71,121h0c-.42.13-.71,120.56-.71,121V538.84c0,.44.29,120.89.71,121h0c.42.13.71,120.56.71,121v8.58c0,.7-147.28,1.19-147.94,1l-567-2.38c-.41-.14-.69-229.83-.69-230.26V344.08C111.34,343.65,111.62,113.87,112,113.73Z"></path> <path class="cls-128" d="M125.06,127.05l550.62-4.75c1.32-.45,143.18.53,143.18,1.93v8.32c0,.89-.58,116.69-1.42,117h0c-.85.27-1.42,116.09-1.42,117V537c0,.88.57,116.72,1.42,117h0c.84.27,1.42,116.09,1.42,117v8.32c0,1.4-141.86,2.38-143.18,1.93l-550.62-4.75c-.83-.28-1.38-220.8-1.38-221.68v-206C123.68,347.94,124.23,127.33,125.06,127.05Z"></path> <path class="cls-129" d="M138.09,140.38l534.28-7.14c2-.67,138.41.8,138.41,2.9v8.06c0,1.33-.86,112.53-2.13,112.93h0c-1.26.4-2.12,111.61-2.12,112.94V535.23c0,1.33.86,112.56,2.12,113h0c1.27.4,2.13,111.61,2.13,112.94v8.07c0,2.09-136.43,3.56-138.41,2.89L138.09,765c-1.24-.42-2.07-211.77-2.07-213.08V353.54C136,352.23,136.85,140.8,138.09,140.38Z"></path> <path class="cls-130" d="M151.12,153.7l517.94-9.51c2.64-.9,133.65,1.06,133.65,3.85v7.8c0,1.78-1.15,108.37-2.84,108.9h0c-1.69.54-2.83,107.15-2.83,108.92V533.43c0,1.77,1.14,108.39,2.83,108.93h0c1.69.54,2.84,107.14,2.84,108.92v7.8c0,2.79-131,4.75-133.65,3.85l-517.94-9.51c-1.66-.56-2.77-202.75-2.77-204.49V358.27C148.35,356.53,149.46,154.26,151.12,153.7Z"></path> <path class="cls-131" d="M164.14,167l501.61-11.89c3.3-1.12,128.89,1.34,128.89,4.82v7.54c0,2.22-1.44,104.2-3.55,104.87h0C789,273,787.54,375,787.54,377.24V531.63c0,2.21,1.44,104.22,3.55,104.9h0c2.11.67,3.55,102.66,3.55,104.88V749c0,3.48-125.59,5.94-128.89,4.82L164.14,741.88c-2.06-.7-3.45-193.73-3.45-195.91V363C160.69,360.82,162.08,167.72,164.14,167Z"></path> <path class="cls-132" d="M177.17,180.35l485.27-14.27c4-1.35,124.13,1.6,124.13,5.78v7.28c0,2.66-1.73,100-4.26,100.84h0c-2.54.8-4.26,98.19-4.26,100.85v149c0,2.66,1.72,100.06,4.26,100.87h0c2.53.81,4.26,98.19,4.26,100.85v7.28c0,4.18-120.17,7.13-124.13,5.78L177.17,730.33C174.7,729.49,173,545.64,173,543V367.73C173,365.11,174.7,181.19,177.17,180.35Z"></path> <path class="cls-133" d="M190.2,193.67,659.13,177c4.62-1.58,119.36,1.86,119.36,6.74v7c0,3.1-2,95.86-5,96.8h0c-3,.94-5,93.72-5,96.82V528c0,3.1,2,95.89,5,96.84h0c3,.94,5,93.71,5,96.82v7c0,4.88-114.74,8.32-119.36,6.74L190.2,718.79c-2.89-1-4.83-175.67-4.83-178.72V372.46C185.37,369.41,187.31,194.65,190.2,193.67Z"></path> <path class="cls-134" d="M203.23,207l452.59-19c5.28-1.79,114.6,2.13,114.6,7.71v6.75c0,3.55-2.29,91.7-5.67,92.78h0c-3.38,1.08-5.68,89.24-5.68,92.79V526.22c0,3.54,2.3,91.72,5.68,92.8h0c3.38,1.07,5.67,89.24,5.67,92.79v6.75c0,5.58-109.32,9.5-114.6,7.71l-452.59-19c-3.3-1.13-5.52-166.65-5.52-170.13V377.19C197.71,373.7,199.93,208.12,203.23,207Z"></path> <path class="cls-135" d="M216.26,220.32l436.25-21.4c5.94-2,109.84,2.4,109.84,8.67v6.49c0,4-2.58,87.54-6.39,88.75h0c-3.8,1.21-6.38,84.76-6.38,88.75V524.41c0,4,2.58,87.56,6.38,88.77h0c3.81,1.21,6.39,84.77,6.39,88.76v6.49c0,6.27-103.9,10.69-109.84,8.67L216.26,695.7c-3.72-1.26-6.21-157.61-6.21-161.54V381.92C210.05,378,212.54,221.58,216.26,220.32Z"></path> <path class="cls-136" d="M229.29,233.64,649.2,209.86c6.6-2.24,105.08,2.67,105.08,9.64v6.23c0,4.43-2.87,83.37-7.1,84.71h0c-4.22,1.35-7.09,80.29-7.09,84.73V522.61c0,4.43,2.87,83.39,7.09,84.74h0c4.23,1.34,7.1,80.29,7.1,84.72v6.23c0,7-98.48,11.88-105.08,9.64L229.29,684.16c-4.13-1.4-6.91-148.59-6.91-152.95V386.65C222.38,382.29,225.16,235,229.29,233.64Z"></path> <path class="cls-137" d="M242.32,247l403.57-26.15c7.27-2.47,100.32,2.93,100.32,10.6v6c0,4.88-3.16,79.21-7.81,80.69h0c-4.65,1.48-7.8,75.82-7.8,80.69V520.81c0,4.87,3.15,79.22,7.8,80.7h0c4.65,1.48,7.81,75.82,7.81,80.7v6c0,7.67-93.06,13.07-100.32,10.6L242.32,672.62c-4.54-1.55-7.6-139.57-7.6-144.36V391.38C234.72,386.58,237.78,248.51,242.32,247Z"></path> <path class="cls-138" d="M255.35,260.29l387.23-28.53c7.93-2.7,95.55,3.19,95.55,11.56V249c0,5.32-3.44,75-8.51,76.66h0c-5.07,1.61-8.51,71.34-8.51,76.66V519c0,5.32,3.44,75.06,8.51,76.68h0c5.07,1.61,8.51,71.34,8.51,76.66V678c0,8.37-87.63,14.26-95.55,11.57L255.35,661.07c-5-1.68-8.29-130.54-8.29-135.77V396.11C247.06,390.87,250.39,262,255.35,260.29Z"></path> <path class="cls-139" d="M268.38,273.61,639.27,242.7c8.59-2.92,90.79,3.46,90.79,12.53v5.44c0,5.76-3.73,70.87-9.22,72.62h0c-5.5,1.75-9.23,66.87-9.23,72.63V517.2c0,5.76,3.73,70.89,9.23,72.64h0c5.49,1.75,9.22,66.87,9.22,72.63v5.44c0,9.07-82.2,15.45-90.79,12.53l-370.9-30.91c-5.36-1.82-9-121.51-9-127.18V400.84C259.4,395.17,263,275.43,268.38,273.61Z"></path> <path class="cls-140" d="M281.4,286.93,636,253.65c9.25-3.15,86,3.73,86,13.49v5.17c0,6.21-4,66.72-9.93,68.6h0c-5.92,1.88-9.94,62.39-9.94,68.6V515.4c0,6.2,4,66.73,9.94,68.61h0c5.91,1.88,9.93,62.39,9.93,68.6v5.17c0,9.76-76.78,16.64-86,13.49L281.4,638c-5.77-2-9.66-112.49-9.66-118.59V405.56C271.74,399.46,275.63,288.9,281.4,286.93Z"></path> <path class="cls-141" d="M294.43,300.26l338.22-35.67c9.91-3.37,81.27,4,81.27,14.46V284c0,6.65-4.31,62.55-10.65,64.56h0c-6.33,2-10.64,57.92-10.64,64.57v100.5c0,6.65,4.31,62.57,10.64,64.58h0c6.34,2,10.65,57.92,10.65,64.57v4.91c0,10.46-71.36,17.83-81.27,14.46L294.43,626.44c-6.19-2.1-10.35-103.46-10.35-110V410.29C284.08,403.75,288.24,302.36,294.43,300.26Z"></path> <path class="cls-142" d="M307.46,313.58l321.88-38c10.57-3.59,76.5,4.26,76.5,15.42v4.65c0,7.09-4.59,58.38-11.35,60.53h0c-6.76,2.15-11.35,53.44-11.35,60.54v95.11c0,7.09,4.59,58.4,11.35,60.55h0c6.76,2.15,11.35,53.44,11.35,60.53v4.65c0,11.16-65.93,19-76.5,15.42l-321.88-38c-6.6-2.25-11-94.43-11-101.41V415C296.42,408.05,300.86,315.82,307.46,313.58Z"></path> <path class="cls-143" d="M320.49,326.9,626,286.48c11.23-3.81,71.74,4.53,71.74,16.39v4.39c0,7.53-4.88,54.21-12.06,56.5h0c-7.18,2.28-12.06,49-12.06,56.5V510c0,7.53,4.88,54.23,12.06,56.51h0c7.18,2.28,12.06,49,12.06,56.51v4.38c0,11.86-60.51,20.2-71.74,16.39L320.49,603.36c-7-2.39-11.74-85.41-11.74-92.82V419.75C308.75,412.34,313.47,329.29,320.49,326.9Z"></path> <path class="cls-144" d="M333.52,340.23l289.2-42.8c11.89-4,67,4.8,67,17.35v4.12c0,8-5.17,50.05-12.77,52.47h0c-7.61,2.42-12.77,44.5-12.77,52.48v84.33c0,8,5.16,50.07,12.77,52.48h0c7.6,2.42,12.77,44.5,12.77,52.48v4.12c0,12.56-55.09,21.39-67,17.35l-289.2-42.8c-7.43-2.52-12.43-76.38-12.43-84.23v-83.1C321.09,416.63,326.09,342.75,333.52,340.23Z"></path> <path class="cls-145" d="M346.55,353.55l272.86-45.17c12.55-4.27,62.22,5.06,62.22,18.31v3.86c0,8.42-5.45,45.89-13.48,48.44h0c-8,2.55-13.48,40-13.48,48.44v78.95c0,8.43,5.45,45.9,13.48,48.45h0c8,2.55,13.48,40,13.48,48.44v3.86c0,13.25-49.67,22.58-62.22,18.32L346.55,580.27c-7.84-2.67-13.12-67.36-13.12-75.64V429.21C333.43,420.93,338.71,356.22,346.55,353.55Z"></path> <path class="cls-146" d="M359.58,366.87,616.1,319.32c13.21-4.49,57.45,5.33,57.45,19.28v3.6c0,8.86-5.73,41.72-14.18,44.41h0c-8.45,2.68-14.19,35.54-14.19,44.41v73.56c0,8.87,5.74,41.73,14.19,44.41h0c8.45,2.69,14.18,35.55,14.18,44.41V597c0,14-44.24,23.77-57.45,19.28L359.58,568.73c-8.26-2.81-13.81-58.33-13.81-67.05V433.94C345.77,425.22,351.32,369.68,359.58,366.87Z"></path> <path class="cls-147" d="M372.61,380.2l240.18-49.93c13.87-4.72,52.69,5.59,52.69,20.24v3.33c0,9.32-6,37.56-14.9,40.38h0c-8.87,2.82-14.89,31.07-14.89,40.38v68.17c0,9.32,6,37.57,14.89,40.39h0c8.88,2.82,14.9,31.07,14.9,40.38v3.33c0,14.65-38.82,25-52.69,20.24L372.61,557.18c-8.67-2.94-14.5-49.3-14.5-58.45V438.67C358.11,429.51,363.94,383.14,372.61,380.2Z"></path> <path class="cls-148" d="M385.63,393.52l223.85-52.31c14.53-4.94,47.93,5.86,47.93,21.21v3.07c0,9.76-6.31,33.39-15.61,36.35h0c-9.29,3-15.61,26.59-15.61,36.35V501c0,9.76,6.32,33.4,15.61,36.35h0c9.3,3,15.61,26.6,15.61,36.35v3.07c0,15.35-33.4,26.15-47.93,21.21L385.63,545.64c-9.08-3.09-15.18-40.28-15.18-49.87V443.4C370.45,433.81,376.55,396.61,385.63,393.52Z"></path> <path class="cls-149" d="M398.66,406.84l207.51-54.68c15.19-5.17,43.17,6.13,43.17,22.17v2.81c0,10.2-6.6,29.22-16.32,32.31h0c-9.72,3.1-16.32,22.12-16.32,32.32v57.4c0,10.2,6.6,29.23,16.32,32.32h0c9.72,3.09,16.32,22.12,16.32,32.31v2.81c0,16-28,27.34-43.17,22.17L398.66,534.1c-9.49-3.23-15.87-31.25-15.87-41.28V448.13C382.79,438.1,389.17,410.07,398.66,406.84Z"></path> <path class="cls-150" d="M411.69,420.17,602.86,363.1c15.85-5.38,38.41,6.4,38.41,23.14v2.55c0,10.64-6.89,25-17,28.28h0c-10.14,3.23-17,17.65-17,28.29v52c0,10.65,6.89,25.07,17,28.29h0c10.14,3.23,17,17.65,17,28.29v2.54c0,16.74-22.56,28.53-38.41,23.14L411.69,522.55c-9.9-3.37-16.57-22.22-16.57-32.68v-37C395.12,442.39,401.79,423.53,411.69,420.17Z"></path> <path class="cls-151" d="M597.72,448.94v46.62a25.45,25.45,0,0,0,17.74,24.26h0a25.45,25.45,0,0,1,17.73,24.25v2.29a25.45,25.45,0,0,1-33.64,24.09L424.72,511a25.46,25.46,0,0,1-17.26-24.1V457.59a25.46,25.46,0,0,1,17.26-24.1l174.83-59.44a25.45,25.45,0,0,1,33.64,24.1v2.28a25.45,25.45,0,0,1-17.73,24.26h0A25.44,25.44,0,0,0,597.72,448.94Z"></path> </g> </svg> 