<?xml version="1.0" encoding="UTF-8"?> <svg xmlns="http://www.w3.org/2000/svg" id="Layer_1" data-name="Layer 1" viewBox="0 0 286 286"> <defs> <style> .cls-1 { fill: #fff; } .cls-2 { fill: #e9e3fa; } .cls-3 { fill: #d3c8f5; } .cls-4 { fill: #bdadf1; } .cls-5 { fill: #a791ec; } .cls-6 { fill: #9176e7; } .cls-7 { fill: #7b5ae2; } </style> </defs> <title>sa-icon-Artboard 10 copy 3-</title> <g> <path class="cls-1" d="M84.58,44.1,44.11,84.6a82.52,82.52,0,0,0,0,116.86l40.47,40.46a82.58,82.58,0,0,0,116.87,0l40.46-40.46A82.57,82.57,0,0,0,243.07,85.7l-.08-.11-.1-.08L201.45,44.1a82.53,82.53,0,0,0-116.87,0Z"></path> <path class="cls-2" d="M91,58.25c0,1.14-33.16,35.89-32.29,36.49a66,66,0,0,0-5.19,6.7,72.76,72.76,0,0,0,1.92,95.94L91.57,231.1c13,13,33.06,20.19,51.45,20.19s38.41-7.15,51.43-20.19l36.15-33.72a72.76,72.76,0,0,0,2-95.89,70.93,70.93,0,0,0-4.38-5.79l-.06-.09-.08-.07c.9-.59-33-36.13-33-37.29A69.27,69.27,0,0,0,91,58.25Z"></path> <path class="cls-3" d="M97.39,72.4c0,2.27-25.83,31.27-24.1,32.48a53.34,53.34,0,0,0-3.55,5.7,63.17,63.17,0,0,0-3,82.73l31.81,27C109,230.71,128.3,236.43,143,236.43s34-5.72,44.44-16.15l31.83-27a63.17,63.17,0,0,0-2.93-82.69,53.08,53.08,0,0,0-3-4.91s-.05-.08,0-.08l-.06-.06c1.8-1.19-24.63-30.85-24.63-33.17a57,57,0,0,0-91.25,0Z"></path> <path class="cls-4" d="M103.8,86.55c0,3.41-18.52,26.66-15.92,28.47A37.78,37.78,0,0,0,86,119.73a53.86,53.86,0,0,0-7.9,69.5l27.48,20.23c7.81,7.82,26.42,12.11,37.45,12.11s29.64-4.29,37.45-12.11L208,189.23a53.87,53.87,0,0,0-7.86-69.47,38.23,38.23,0,0,0-1.6-4.05s0-.06,0-.06,0-.05,0-.05c2.71-1.79-16.22-25.56-16.22-29a45.83,45.83,0,0,0-78.44,0Z"></path> <path class="cls-5" d="M110.21,100.7c0,4.55-11.21,22-7.74,24.45a26.28,26.28,0,0,0-.27,3.72,44.69,44.69,0,0,0-16,23.41,45.28,45.28,0,0,0,3.16,32.87l23.15,13.49c5.2,5.21,23.1,8.08,30.46,8.08s25.24-2.87,30.44-8.08l23.21-13.49a45.1,45.1,0,0,0-12.78-56.26,24.22,24.22,0,0,0-.21-3.17s0,0,0,0,0,0,0,0c3.61-2.38-7.82-20.27-7.82-24.92-5.2-12.58-18.09-21.42-32.81-21.42S115.42,88.12,110.21,100.7Z"></path> <path class="cls-6" d="M116.62,114.85c0,5.68-3.9,17.44.44,20.44a16.89,16.89,0,0,0,1.37,2.72,37,37,0,0,0-15.61,16.59,37.49,37.49,0,0,0-2.12,26.48l18.82,6.74c2.61,2.61,19.79,4,23.47,4s20.85-1.43,23.45-4l18.9-6.74A37.28,37.28,0,0,0,167.63,138a18.44,18.44,0,0,0,1.18-2.3s0,0,0,0,0,0,0,0c4.51-3,.59-15,.59-20.8C166.82,103,155.9,94.14,143,94.14S119.22,103,116.62,114.85Z"></path> <path class="cls-7" d="M151.38,147.15a20,20,0,1,0-16.72,0A31,31,0,0,0,112,177h62A31,31,0,0,0,151.38,147.15Z"></path> </g> </svg> 