<?xml version="1.0" encoding="UTF-8"?> <svg xmlns="http://www.w3.org/2000/svg" width="1584" height="396" viewBox="0 0 1584 396" fill="none"> <g clip-path="url(#clip0_911_575)"> <rect width="1584" height="396" fill="url(#paint0_linear_911_575)"></rect> <rect x="1226" y="422" width="60" height="106" rx="30" transform="rotate(-180 1226 422)" fill="url(#paint1_linear_911_575)"></rect> <path d="M1314 391C1314 407.569 1300.57 421 1284 421V421C1267.43 421 1254 407.569 1254 391L1254 251C1254 234.431 1267.43 221 1284 221V221C1300.57 221 1314 234.431 1314 251L1314 391Z" fill="url(#paint2_linear_911_575)"></path> <path d="M1402 391C1402 407.569 1388.57 421 1372 421V421C1355.43 421 1342 407.569 1342 391L1342 186C1342 169.431 1355.43 156 1372 156V156C1388.57 156 1402 169.431 1402 186L1402 391Z" fill="url(#paint3_linear_911_575)"></path> <rect x="228" y="454" width="96" height="165" rx="46" transform="rotate(-180 228 454)" fill="url(#paint4_linear_911_575)"></rect> <path d="M364 408C364 433.405 343.405 454 318 454L314 454C288.595 454 268 433.405 268 408L268 188C268 162.595 288.595 142 314 142L318 142C343.405 142 364 162.595 364 188L364 408Z" fill="url(#paint5_linear_911_575)"></path> <path d="M500 408C500 433.405 479.405 454 454 454L450 454C424.595 454 404 433.405 404 408L404 80C404 54.5949 424.595 34 450 34L454 34C479.405 34 500 54.5949 500 80L500 408Z" fill="url(#paint6_linear_911_575)"></path> </g> <defs> <linearGradient id="paint0_linear_911_575" x1="1584" y1="596.985" x2="1480.82" y2="-79.1805" gradientUnits="userSpaceOnUse"> <stop stop-color="#73E2CE"></stop> <stop offset="0.382812" stop-color="#6C63FF"></stop> <stop offset="1"></stop> </linearGradient> <linearGradient id="paint1_linear_911_575" x1="1245.22" y1="503.423" x2="1226.86" y2="446.194" gradientUnits="userSpaceOnUse"> <stop stop-color="#564DE2"></stop> <stop offset="1" stop-color="#68AEFF"></stop> </linearGradient> <linearGradient id="paint2_linear_911_575" x1="1294.78" y1="267.373" x2="1347.54" y2="354.522" gradientUnits="userSpaceOnUse"> <stop stop-color="#564DE2"></stop> <stop offset="1" stop-color="#68AEFF"></stop> </linearGradient> <linearGradient id="paint3_linear_911_575" x1="1382.78" y1="217.444" x2="1459.8" y2="313.455" gradientUnits="userSpaceOnUse"> <stop stop-color="#564DE2"></stop> <stop offset="1" stop-color="#68AEFF"></stop> </linearGradient> <linearGradient id="paint4_linear_911_575" x1="238.278" y1="607.211" x2="267.652" y2="418.332" gradientUnits="userSpaceOnUse"> <stop></stop> <stop offset="0.515625" stop-color="#664FED"></stop> <stop offset="1" stop-color="#61F3D9"></stop> </linearGradient> <linearGradient id="paint5_linear_911_575" x1="353.722" y1="164.292" x2="254.715" y2="500.968" gradientUnits="userSpaceOnUse"> <stop></stop> <stop offset="0.515625" stop-color="#664FED"></stop> <stop offset="1" stop-color="#61F3D9"></stop> </linearGradient> <linearGradient id="paint6_linear_911_575" x1="489.723" y1="64.0086" x2="321.201" y2="489.709" gradientUnits="userSpaceOnUse"> <stop></stop> <stop offset="0.515625" stop-color="#664FED"></stop> <stop offset="1" stop-color="#61F3D9"></stop> </linearGradient> <clipPath id="clip0_911_575"> <rect width="1584" height="396" fill="white"></rect> </clipPath> </defs> </svg> 