<svg id="Слой_2" data-name="Слой 2" xmlns="http://www.w3.org/2000/svg" viewBox="0 0 101 101"><title>hhhArtboard 2 copy 10 копия 4</title><path d="M52.32,26.59a1.51,1.51,0,0,0-1.43-.11L24.89,38A1.5,1.5,0,0,0,24,39.4V70a8.49,8.49,0,1,0,3,6.47V40.38L50,30.15V58a8.49,8.49,0,1,0,3,6.47V27.85A1.5,1.5,0,0,0,52.32,26.59ZM18.5,82A5.5,5.5,0,1,1,24,76.5,5.51,5.51,0,0,1,18.5,82Zm26-12A5.5,5.5,0,1,1,50,64.5,5.51,5.51,0,0,1,44.5,70Z"/><circle cx="86.5" cy="58.5" r="2.5"/><path d="M94.17,28.87a8.09,8.09,0,0,0-11.42,0l-3.56,3.56a4.69,4.69,0,1,1-6.64-6.63l2.74-2.74A10.4,10.4,0,1,0,60.58,8.35l-5.2,5.2a1.5,1.5,0,0,0,2.12,2.12l5.2-5.2A7.4,7.4,0,1,1,73.17,20.94l-2.74,2.74A7.69,7.69,0,1,0,81.31,34.55L84.86,31A5.08,5.08,0,0,1,92,38.17a1.5,1.5,0,1,0,2.12,2.12A8.09,8.09,0,0,0,94.17,28.87Z"/><circle cx="32.5" cy="20.5" r="2.5"/><path d="M77.55,66.85a7.39,7.39,0,0,0-5.22,12.61l3.18,3.18a4,4,0,0,1-5.72,5.72l-2.45-2.45a9.48,9.48,0,0,0-13.39,0A1.5,1.5,0,0,0,56.08,88a6.47,6.47,0,0,1,9.14,0l2.45,2.45a7,7,0,0,0,10-10l-3.18-3.18a4.39,4.39,0,1,1,6.21-6.21A1.5,1.5,0,0,0,82.78,69,7.34,7.34,0,0,0,77.55,66.85Z"/><circle cx="20.5" cy="16.5" r="2.5"/></svg>