<?xml version="1.0" encoding="UTF-8"?> <svg xmlns="http://www.w3.org/2000/svg" width="1584" height="584" viewBox="0 0 1584 584" fill="none"> <g clip-path="url(#clip0_1017_369)"> <path d="M1380.72 247.377L1334.55 327.461C1330.98 333.655 1324.37 337.472 1317.22 337.472L1236.45 337.472C1229.3 337.472 1222.7 333.655 1219.13 327.461L1172.96 247.377" stroke="url(#paint0_linear_1017_369)" stroke-width="66" stroke-linecap="round"></path> <rect x="1230.88" y="508.457" width="91.9299" height="233.503" rx="38" fill="url(#paint1_linear_1017_369)"></rect> <path d="M1409.72 225.719C1419.71 242.321 1414.14 263.889 1397.36 273.577V273.577C1381 283.019 1360.1 277.621 1350.36 261.439L1246.18 88.3252C1236.19 71.7236 1241.76 50.1555 1258.54 40.4676V40.4676C1274.9 31.0249 1295.8 36.4237 1305.54 52.605L1409.72 225.719Z" fill="url(#paint2_linear_1017_369)"></path> <rect width="69.2877" height="272.301" rx="34.6438" transform="matrix(-0.866025 -0.5 -0.5 0.866025 1323.16 56.6035)" fill="url(#paint3_linear_1017_369)"></rect> <rect width="68.9477" height="68.9477" rx="34.4739" transform="matrix(-1 8.06241e-08 8.06241e-08 1 1309.94 212.442)" fill="url(#paint4_linear_1017_369)"></rect> <rect x="1369.7" y="394.901" width="91.9299" height="185.699" rx="38" transform="rotate(90 1369.7 394.901)" fill="url(#paint5_linear_1017_369)"></rect> </g> <defs> <linearGradient id="paint0_linear_1017_369" x1="1500.75" y1="263.022" x2="1342.99" y2="455.228" gradientUnits="userSpaceOnUse"> <stop stop-color="#4BFFDF"></stop> <stop offset="1" stop-color="#4D9FFF"></stop> </linearGradient> <linearGradient id="paint1_linear_1017_369" x1="1260.33" y1="687.819" x2="1207.44" y2="573.175" gradientUnits="userSpaceOnUse"> <stop stop-color="#564DE2"></stop> <stop offset="1" stop-color="#68AEFF"></stop> </linearGradient> <linearGradient id="paint2_linear_1017_369" x1="1303.12" y1="87.3605" x2="1423.65" y2="147.229" gradientUnits="userSpaceOnUse"> <stop stop-color="#564DE2"></stop> <stop offset="1" stop-color="#68AEFF"></stop> </linearGradient> <linearGradient id="paint3_linear_1017_369" x1="19.0852" y1="-49.4782" x2="182.432" y2="53.0588" gradientUnits="userSpaceOnUse"> <stop stop-color="#4BFFDF"></stop> <stop offset="1" stop-color="#7AB7FE"></stop> </linearGradient> <linearGradient id="paint4_linear_1017_369" x1="18.9916" y1="-12.5281" x2="50.9699" y2="66.3612" gradientUnits="userSpaceOnUse"> <stop stop-color="#4BFFDF"></stop> <stop offset="1" stop-color="#7AB7FE"></stop> </linearGradient> <linearGradient id="paint5_linear_1017_369" x1="1395.02" y1="361.158" x2="1516.28" y2="509.252" gradientUnits="userSpaceOnUse"> <stop stop-color="#4BFFDF"></stop> <stop offset="1" stop-color="#7AB7FE"></stop> </linearGradient> <clipPath id="clip0_1017_369"> <rect width="1584" height="584" fill="white"></rect> </clipPath> </defs> </svg> 