<?xml version="1.0" encoding="UTF-8"?> <!-- Generator: Adobe Illustrator 16.0.4, SVG Export Plug-In . SVG Version: 6.00 Build 0) --> <svg xmlns="http://www.w3.org/2000/svg" xmlns:xlink="http://www.w3.org/1999/xlink" id="Ebene_1" x="0px" y="0px" width="158.01px" height="59.51px" viewBox="0 0 158.01 59.51" xml:space="preserve"> <g> <path fill="#1A171B" d="M78.679,29.501c-0.266-3.094-2.183-4.603-4.151-4.603c-2.329,0-4.051,2.07-4.175,4.603H78.679z M70.303,31.649c0.154,4.012,2.267,5.697,4.297,5.697c1.63,0,3.075-0.868,4.406-2.979l2.319,1.322 c-1.813,2.729-4.09,4.086-6.652,4.086c-3.765,0-7.231-2.989-7.231-8.613c0-5.335,3.292-8.385,7.024-8.385 c3.322,0,5.866,2.327,6.633,5.831c0.258,1.172,0.317,2.088,0.33,3.04H70.303z"></path> </g> <polygon fill="#1A171B" points="88.281,39.453 82.912,23.1 85.924,23.1 89.762,35.574 93.699,23.1 96.673,23.1 91.25,39.453 "></polygon> <g> <path d="M109.702,31.101c0-3.782-1.726-6.036-4.349-6.036c-2.94,0-4.472,2.563-4.472,6.212c0,3.806,1.724,6.185,4.419,6.185 C107.825,37.461,109.702,35.226,109.702,31.101 M97.982,31.286c0-5.344,3.136-8.539,7.197-8.539c4.367,0,7.422,3.403,7.422,8.592 c0,5.397-3.401,8.438-7.137,8.438C101.221,39.776,97.982,36.497,97.982,31.286"></path> <path d="M116.828,23.1v-5.729h2.837V23.1h3.647v2.326h-3.647v9.624c0,1.395,0.589,2.207,2.039,2.288 c0.521,0.028,1.106-0.035,1.608-0.094v2.462c-0.459,0.038-1.133,0.132-1.76,0.132c-1.064,0-1.972-0.118-2.672-0.44 c-1.332-0.608-2.053-1.993-2.053-4.016v-9.956h-2.725V23.1H116.828z"></path> <path d="M136.351,29.501c-0.269-3.094-2.185-4.603-4.156-4.603c-2.324,0-4.047,2.07-4.17,4.603H136.351z M127.973,31.649 c0.156,4.012,2.267,5.697,4.298,5.697c1.63,0,3.073-0.868,4.405-2.979l2.322,1.322c-1.82,2.729-4.093,4.086-6.656,4.086 c-3.767,0-7.229-2.989-7.229-8.613c0-5.335,3.289-8.385,7.022-8.385c3.322,0,5.863,2.327,6.636,5.831 c0.254,1.172,0.315,2.088,0.325,3.04H127.973z"></path> <path d="M152.998,27.988c-0.984-1.817-2.14-2.895-3.83-2.895c-2.303,0-4.269,2.078-4.269,6.069c0,3.683,1.825,6.151,4.269,6.151 c1.74,0,3.082-1.095,3.985-3.223l2.358,1.257c-1.457,2.867-3.365,4.428-6.324,4.428c-4.114,0-7.248-3.321-7.248-8.49 c0-5.073,3.215-8.498,7.309-8.498c2.776,0,4.743,1.427,6.193,4.181L152.998,27.988z"></path> <path d="M45.909,24.174c0.008,5.562-2.111,11.131-6.356,15.377c-4.24,4.24-9.794,6.358-15.348,6.358s-11.109-2.118-15.349-6.358 c-4.239-4.239-6.358-9.794-6.358-15.35S4.617,13.09,8.856,8.85c4.237-4.236,9.791-6.353,15.346-6.352 c5.555,0.001,11.111,2.119,15.351,6.357C43.782,13.089,45.901,18.631,45.909,24.174"></path> <path d="M57.016,47.244c0,2.5-0.954,5-2.861,6.907c-1.908,1.907-4.407,2.86-6.907,2.86c-2.499,0-4.998-0.953-6.907-2.86 c-1.907-1.907-2.86-4.407-2.86-6.907c0-2.501,0.953-5.003,2.86-6.912c1.906-1.904,4.406-2.855,6.906-2.855 c2.499,0.001,5,0.953,6.908,2.86C56.062,42.245,57.016,44.745,57.016,47.244"></path> </g> </svg> 