<?xml version="1.0" encoding="UTF-8"?> <svg xmlns="http://www.w3.org/2000/svg" width="742" height="278" viewBox="0 0 742 278" fill="none"> <rect width="742" height="213" rx="30" fill="white"></rect> <path d="M0 135L97.4012 175.956L0 278V135Z" fill="white"></path> <path d="M51.88 50.04C53.88 50.92 55.44 52.24 56.56 54C57.68 55.76 58.24 57.84 58.24 60.24C58.24 63.68 57.16 66.48 55 68.64C52.84 70.72 50.08 71.76 46.72 71.76C43.36 71.76 40.56 70.68 38.32 68.52C36.16 66.36 35.08 63.6 35.08 60.24C35.08 58.64 35.28 57.04 35.68 55.44C36.08 53.84 36.96 51.44 38.32 48.24L45.28 30.96H57.16L51.88 50.04ZM80.2 50.04C82.2 50.92 83.76 52.24 84.88 54C86 55.76 86.56 57.84 86.56 60.24C86.56 63.68 85.48 66.48 83.32 68.64C81.16 70.72 78.4 71.76 75.04 71.76C71.68 71.76 68.88 70.68 66.64 68.52C64.48 66.36 63.4 63.6 63.4 60.24C63.4 58.64 63.6 57.04 64 55.44C64.4 53.84 65.28 51.44 66.64 48.24L73.6 30.96H85.48L80.2 50.04Z" fill="#7B5AE2"></path> </svg> 