<?xml version="1.0" encoding="UTF-8"?> <svg xmlns="http://www.w3.org/2000/svg" width="181" height="28" viewBox="0 0 181 28" fill="none"> <g clip-path="url(#clip0_2043_6185)"> <rect x="1" y="1" width="26" height="26" fill="white" stroke="white" stroke-width="2"></rect> <path d="M25.9999 3.00098L25.9999 26.001L2.99988 26.001L25.9999 3.00098Z" fill="black"></path> <rect x="15.9999" y="20.001" width="7" height="2" fill="white"></rect> <path d="M39.36 19.4025C40.41 19.4025 41.295 19.0875 41.91 18.4725C42.525 17.8575 42.885 16.9275 42.885 15.6825V8.7525H40.995V15.6375C40.995 17.0325 40.32 17.6925 39.33 17.6925C38.445 17.6925 37.83 17.2425 37.215 16.4625L36 17.7075C36.69 18.6525 37.74 19.4025 39.36 19.4025Z" fill="#BFBFBF"></path> <path d="M48.8339 19.4325C50.2889 19.4325 51.3239 18.8475 52.0739 17.9475L51.0089 17.0025C50.3789 17.6175 49.7489 17.9475 48.8639 17.9475C47.6939 17.9475 46.7789 17.2275 46.5839 15.9375H52.4039C52.4189 15.8475 52.4339 15.5475 52.4339 15.4275C52.4339 13.1475 51.1589 11.1675 48.6389 11.1675C46.3739 11.1675 44.7689 13.0275 44.7689 15.2925C44.7689 17.7675 46.5389 19.4325 48.8339 19.4325ZM46.5689 14.7375C46.7339 13.5075 47.5139 12.6525 48.6239 12.6525C49.8239 12.6525 50.5139 13.5675 50.6339 14.7375H46.5689Z" fill="#BFBFBF"></path> <path d="M56.9116 19.3875C57.5866 19.3875 58.0966 19.2375 58.5466 18.9825V17.4975C58.1866 17.6775 57.8266 17.7675 57.4216 17.7675C56.8066 17.7675 56.4466 17.4825 56.4466 16.7775V12.8925H58.5766V11.3325H56.4466V9.1575H54.6316V11.3325H53.6266V12.8925H54.6316V17.0625C54.6316 18.8025 55.5766 19.3875 56.9116 19.3875Z" fill="#BFBFBF"></path> <path d="M60.619 19.2525H65.479C67.819 19.2525 69.364 18.2475 69.364 16.3725C69.364 14.9175 68.509 14.2125 67.279 13.7925C68.059 13.3875 68.779 12.7125 68.779 11.4525C68.779 10.7175 68.539 10.1475 68.074 9.6825C67.474 9.0825 66.529 8.7525 65.329 8.7525H60.619V19.2525ZM62.434 13.1775V10.3875H65.089C66.274 10.3875 66.934 10.8975 66.934 11.7225C66.934 12.7125 66.139 13.1775 64.954 13.1775H62.434ZM62.434 17.6175V14.7375H65.359C66.814 14.7375 67.519 15.2625 67.519 16.1475C67.519 17.1225 66.754 17.6175 65.494 17.6175H62.434Z" fill="#BFBFBF"></path> <path d="M71.2342 19.2525H73.0492V16.2375C73.0492 14.1375 74.1592 13.1025 75.7492 13.1025H75.8542V11.1825C74.4592 11.1225 73.5442 11.9325 73.0492 13.1175V11.3325H71.2342V19.2525Z" fill="#BFBFBF"></path> <path d="M83.6946 19.2525V14.5575C83.6946 12.4425 82.5546 11.2125 80.2146 11.2125C78.9246 11.2125 78.0696 11.4825 77.1996 11.8725L77.6946 13.3275C78.4146 13.0275 79.0746 12.8325 79.9596 12.8325C81.2196 12.8325 81.9096 13.4325 81.9096 14.5275V14.6775C81.2946 14.4825 80.6796 14.3475 79.7196 14.3475C77.8746 14.3475 76.5096 15.1875 76.5096 16.9425C76.5096 18.5625 77.8296 19.4175 79.3296 19.4175C80.5296 19.4175 81.3546 18.9225 81.8946 18.2775V19.2525H83.6946ZM81.9396 16.3875C81.9396 17.3775 81.0396 18.0525 79.8396 18.0525C78.9846 18.0525 78.3096 17.6325 78.3096 16.8825C78.3096 16.0875 78.9846 15.6225 80.1246 15.6225C80.8296 15.6225 81.4746 15.7575 81.9396 15.9375V16.3875Z" fill="#BFBFBF"></path> <path d="M85.8833 10.1175H87.8333V8.3925H85.8833V10.1175ZM85.9583 19.2525H87.7733V11.3325H85.9583V19.2525Z" fill="#BFBFBF"></path> <path d="M90.1453 19.2525H91.9603V14.7825C91.9603 13.5525 92.6953 12.8175 93.7453 12.8175C94.8253 12.8175 95.4403 13.5225 95.4403 14.7525V19.2525H97.2553V14.2125C97.2553 12.3675 96.2203 11.1675 94.4353 11.1675C93.2053 11.1675 92.4703 11.8125 91.9603 12.5625V11.3325H90.1453V19.2525Z" fill="#BFBFBF"></path> <path d="M102.162 19.4025C103.812 19.4025 105.102 18.5775 105.102 16.9125C105.102 15.4575 103.797 14.9325 102.642 14.5725C102.597 14.5575 102.537 14.5425 102.492 14.5275C101.622 14.2425 100.857 14.0025 100.857 13.4625C100.857 12.9675 101.262 12.6375 101.967 12.6375C102.627 12.6375 103.437 12.9225 104.202 13.3875L104.922 12.0975C104.082 11.5425 103.002 11.1975 102.012 11.1975C100.437 11.1975 99.1921 12.1125 99.1921 13.6125C99.1921 15.1575 100.497 15.6375 101.667 15.9825C101.712 15.9975 101.757 16.0125 101.802 16.0275C102.672 16.2825 103.437 16.4925 103.437 17.0775C103.437 17.6325 102.987 17.9625 102.207 17.9625C101.397 17.9625 100.467 17.6325 99.6121 16.9875L98.8021 18.2175C99.7921 18.9975 101.037 19.4025 102.162 19.4025Z" fill="#BFBFBF"></path> <path d="M110.754 19.2525H112.644L113.724 16.7175H118.689L119.754 19.2525H121.704L117.084 8.6775H115.374L110.754 19.2525ZM114.399 15.0825L116.199 10.8825L118.014 15.0825H114.399Z" fill="#BFBFBF"></path> <path d="M126.574 19.4325C128.119 19.4325 129.034 18.8175 129.814 17.9475L128.719 16.8675C128.149 17.4525 127.519 17.8575 126.664 17.8575C125.269 17.8575 124.294 16.7175 124.294 15.3075C124.294 13.8975 125.254 12.7575 126.574 12.7575C127.489 12.7575 128.074 13.1625 128.629 13.7475L129.754 12.5325C129.019 11.7225 128.089 11.1675 126.589 11.1675C124.219 11.1675 122.479 13.0575 122.479 15.3075C122.479 17.5875 124.219 19.4325 126.574 19.4325Z" fill="#BFBFBF"></path> <path d="M138.128 19.2525V14.5575C138.128 12.4425 136.988 11.2125 134.648 11.2125C133.358 11.2125 132.503 11.4825 131.633 11.8725L132.128 13.3275C132.848 13.0275 133.508 12.8325 134.393 12.8325C135.653 12.8325 136.343 13.4325 136.343 14.5275V14.6775C135.728 14.4825 135.113 14.3475 134.153 14.3475C132.308 14.3475 130.943 15.1875 130.943 16.9425C130.943 18.5625 132.263 19.4175 133.763 19.4175C134.963 19.4175 135.788 18.9225 136.328 18.2775V19.2525H138.128ZM136.373 16.3875C136.373 17.3775 135.473 18.0525 134.273 18.0525C133.418 18.0525 132.743 17.6325 132.743 16.8825C132.743 16.0875 133.418 15.6225 134.558 15.6225C135.263 15.6225 135.908 15.7575 136.373 15.9375V16.3875Z" fill="#BFBFBF"></path> <path d="M143.557 19.4175C144.847 19.4175 145.672 18.7575 146.257 17.9325V19.2525H148.072V8.3025H146.257V12.5625C145.687 11.8275 144.862 11.1675 143.557 11.1675C141.667 11.1675 139.882 12.6525 139.882 15.2775C139.882 17.9325 141.697 19.4175 143.557 19.4175ZM143.992 17.8425C142.762 17.8425 141.712 16.8375 141.712 15.3075C141.712 13.7025 142.747 12.7425 143.992 12.7425C145.207 12.7425 146.287 13.7475 146.287 15.2775C146.287 16.8225 145.207 17.8425 143.992 17.8425Z" fill="#BFBFBF"></path> <path d="M153.966 19.4325C155.421 19.4325 156.456 18.8475 157.206 17.9475L156.141 17.0025C155.511 17.6175 154.881 17.9475 153.996 17.9475C152.826 17.9475 151.911 17.2275 151.716 15.9375H157.536C157.551 15.8475 157.566 15.5475 157.566 15.4275C157.566 13.1475 156.291 11.1675 153.771 11.1675C151.506 11.1675 149.901 13.0275 149.901 15.2925C149.901 17.7675 151.671 19.4325 153.966 19.4325ZM151.701 14.7375C151.866 13.5075 152.646 12.6525 153.756 12.6525C154.956 12.6525 155.646 13.5675 155.766 14.7375H151.701Z" fill="#BFBFBF"></path> <path d="M159.388 19.2525H161.203V14.7975C161.203 13.5675 161.893 12.8175 162.898 12.8175C163.903 12.8175 164.503 13.5075 164.503 14.7375V19.2525H166.318V14.7825C166.318 13.5075 167.023 12.8175 168.013 12.8175C169.033 12.8175 169.618 13.4925 169.618 14.7525V19.2525H171.433V14.1975C171.433 12.2625 170.383 11.1675 168.658 11.1675C167.458 11.1675 166.618 11.7225 165.973 12.5625C165.553 11.7225 164.758 11.1675 163.618 11.1675C162.403 11.1675 161.713 11.8275 161.203 12.5325V11.3325H159.388V19.2525Z" fill="#BFBFBF"></path> <path d="M175.042 21.6975C176.317 21.6975 177.022 21.0975 177.652 19.4775L180.802 11.3325H178.912L176.857 17.2125L174.607 11.3325H172.672L175.972 19.2525C175.672 19.9425 175.357 20.1675 174.847 20.1675C174.472 20.1675 174.112 20.0475 173.782 19.8675L173.167 21.2175C173.722 21.5175 174.277 21.6975 175.042 21.6975Z" fill="#BFBFBF"></path> </g> <defs> <clipPath id="clip0_2043_6185"> <rect width="180.802" height="28" fill="white"></rect> </clipPath> </defs> </svg> 