<?xml version="1.0" encoding="UTF-8"?> <svg xmlns="http://www.w3.org/2000/svg" id="Layer_1" data-name="Layer 1" viewBox="0 0 286 286"> <defs> <style> .cls-1 { fill: #7b5ae2; } .cls-2 { fill: #bdadf1; } .cls-3 { opacity: 0.14; } .cls-4 { fill: #120d28; } </style> </defs> <title>sa-icon-Artboard 10 copy 7-</title> <path class="cls-1" d="M124.43,109.15a20,20,0,1,0-16.73,0,31.06,31.06,0,0,0-21.08,20.14A7.42,7.42,0,0,0,93.7,139h37a12,12,0,0,0,9.38-19.62A31,31,0,0,0,124.43,109.15Z"></path> <path class="cls-2" d="M190.53,138.66a17.65,17.65,0,1,0-14.75,0,27.44,27.44,0,0,0-18.15,16.48,7.29,7.29,0,0,0,6.85,9.86h46A27.37,27.37,0,0,0,190.53,138.66Z"></path> <g class="cls-3"> <path class="cls-1" d="M111.43,86.12l-22.32,22a45.18,45.18,0,0,0-.48,64l22,22.32a45.22,45.22,0,0,0,64,.48l22.31-22A45.18,45.18,0,0,0,198,109.55l0-.06-.06,0L175.4,86.61a45.17,45.17,0,0,0-64-.49Z"></path> </g> <path class="cls-4" d="M134.56,184.12a16,16,0,1,0-13.38,0A24.81,24.81,0,0,0,103.06,208h40.49a7.45,7.45,0,0,0,6.71-10.68A24.86,24.86,0,0,0,134.56,184.12Z"></path> </svg> 