<?xml version="1.0" encoding="iso-8859-1"?>
<!-- Generator: Adobe Illustrator 22.0.0, SVG Export Plug-In . SVG Version: 6.00 Build 0)  -->
<svg version="1.1" id="Layer_1" xmlns="http://www.w3.org/2000/svg" xmlns:xlink="http://www.w3.org/1999/xlink" x="0px" y="0px"
	 viewBox="0 0 100.25 100.25" style="enable-background:new 0 0 100.25 100.25;" xml:space="preserve">
<path d="M95.513,34.889l-1.88-2.952c-0.445-0.7-1.374-0.901-2.071-0.46c-0.699,0.445-0.904,1.372-0.46,2.071l1.317,2.068
	l-1.489,1.947c-0.503,0.658-0.378,1.6,0.28,2.103c0.271,0.208,0.592,0.309,0.91,0.309c0.451,0,0.897-0.203,1.192-0.589l2.126-2.78
	C95.822,36.106,95.851,35.42,95.513,34.889z"/>
<path d="M80.169,54.112c-0.661-0.504-1.601-0.377-2.103,0.28l-4.288,5.609c-0.503,0.658-0.378,1.6,0.28,2.103
	c0.272,0.208,0.593,0.309,0.91,0.309c0.451,0,0.897-0.203,1.192-0.589l4.288-5.609C80.952,55.556,80.827,54.615,80.169,54.112z"/>
<path d="M63.018,76.549c-0.66-0.505-1.601-0.378-2.103,0.28l-4.288,5.609c-0.503,0.658-0.378,1.6,0.28,2.103
	c0.272,0.208,0.593,0.309,0.91,0.309c0.451,0,0.897-0.203,1.192-0.589l4.288-5.609C63.801,77.993,63.676,77.052,63.018,76.549z"/>
<path d="M71.593,65.33c-0.66-0.504-1.601-0.377-2.103,0.28l-4.287,5.609c-0.504,0.658-0.378,1.6,0.28,2.103
	c0.272,0.208,0.593,0.309,0.91,0.309c0.451,0,0.897-0.203,1.192-0.589l4.287-5.609C72.377,66.775,72.251,65.833,71.593,65.33z"/>
<path d="M88.744,42.893c-0.66-0.504-1.601-0.377-2.103,0.28l-4.288,5.609c-0.503,0.658-0.378,1.6,0.28,2.103
	c0.272,0.208,0.593,0.309,0.91,0.309c0.451,0,0.897-0.203,1.192-0.589l4.288-5.609C89.528,44.337,89.403,43.396,88.744,42.893z"/>
<path d="M54.442,87.768c-0.66-0.505-1.601-0.377-2.103,0.28l-0.972,1.271l-1.012-1.241c-0.522-0.642-1.469-0.739-2.11-0.214
	c-0.642,0.523-0.738,1.468-0.214,2.11l2.212,2.713c0.284,0.35,0.712,0.552,1.162,0.552c0.008,0,0.016,0,0.023,0
	c0.459-0.008,0.89-0.225,1.168-0.589l2.125-2.78C55.226,89.212,55.1,88.271,54.442,87.768z"/>
<path d="M22.87,54.362c-0.524-0.644-1.469-0.739-2.11-0.216c-0.643,0.523-0.739,1.469-0.216,2.11l4.581,5.62
	c0.297,0.364,0.729,0.553,1.164,0.553c0.333,0,0.668-0.11,0.946-0.337c0.643-0.523,0.739-1.469,0.216-2.11L22.87,54.362z"/>
<path d="M41.195,76.84c-0.524-0.643-1.468-0.739-2.11-0.216s-0.739,1.469-0.216,2.11l4.581,5.62
	c0.297,0.364,0.729,0.553,1.164,0.553c0.333,0,0.668-0.11,0.946-0.337c0.643-0.523,0.739-1.469,0.216-2.11L41.195,76.84z"/>
<path d="M13.708,43.122c-0.524-0.644-1.469-0.739-2.11-0.216c-0.643,0.523-0.739,1.469-0.216,2.11l4.581,5.62
	c0.297,0.364,0.729,0.553,1.164,0.553c0.333,0,0.668-0.11,0.946-0.337c0.643-0.523,0.739-1.469,0.216-2.11L13.708,43.122z"/>
<path d="M32.032,65.601c-0.523-0.644-1.469-0.739-2.11-0.216c-0.643,0.523-0.739,1.469-0.216,2.11l4.581,5.62
	c0.297,0.364,0.729,0.553,1.164,0.553c0.333,0,0.668-0.11,0.946-0.337c0.643-0.523,0.739-1.469,0.216-2.11L32.032,65.601z"/>
<path d="M7.602,35.632l1.302-2.033c0.447-0.697,0.244-1.625-0.454-2.071c-0.694-0.448-1.624-0.245-2.071,0.454l-1.888,2.947
	c-0.35,0.545-0.31,1.254,0.1,1.756l2.211,2.713c0.297,0.364,0.729,0.553,1.164,0.553c0.333,0,0.668-0.11,0.946-0.337
	c0.643-0.523,0.739-1.469,0.216-2.11L7.602,35.632z"/>
<path d="M12.102,28.609l3.198-4.991c0.447-0.698,0.244-1.626-0.453-2.072c-0.697-0.447-1.626-0.243-2.072,0.453L9.577,26.99
	c-0.447,0.698-0.244,1.626,0.453,2.072c0.251,0.161,0.531,0.237,0.809,0.237C11.332,29.299,11.816,29.055,12.102,28.609z"/>
<path d="M16.427,19.079c0.251,0.161,0.531,0.237,0.809,0.237c0.493,0,0.978-0.244,1.264-0.69l1.445-2.255l2.679,0.004
	c0.001,0,0.001,0,0.002,0c0.827,0,1.499-0.67,1.5-1.498s-0.67-1.501-1.498-1.502l-3.5-0.005c-0.001,0-0.001,0-0.002,0
	c-0.511,0-0.987,0.26-1.263,0.69l-1.889,2.946C15.527,17.704,15.73,18.632,16.427,19.079z"/>
<path d="M46.16,16.408l7.846,0.011c0.001,0,0.001,0,0.002,0c0.827,0,1.499-0.67,1.5-1.498s-0.67-1.501-1.498-1.502l-7.846-0.011
	c-0.001,0-0.001,0-0.002,0c-0.827,0-1.499,0.67-1.5,1.498S45.332,16.407,46.16,16.408z"/>
<path d="M61.852,16.429l7.846,0.011c0.001,0,0.001,0,0.002,0c0.827,0,1.499-0.67,1.5-1.498s-0.67-1.501-1.498-1.502l-7.846-0.011
	c-0.001,0-0.001,0-0.002,0c-0.827,0-1.499,0.67-1.5,1.498S61.024,16.428,61.852,16.429z"/>
<path d="M30.469,16.386l7.846,0.011c0.001,0,0.001,0,0.002,0c0.827,0,1.499-0.67,1.5-1.498s-0.67-1.501-1.498-1.502l-7.846-0.011
	c-0.001,0-0.001,0-0.002,0c-0.827,0-1.499,0.67-1.5,1.498S29.641,16.385,30.469,16.386z"/>
<path d="M77.543,16.451l2.678,0.004l1.438,2.259c0.286,0.449,0.771,0.694,1.267,0.694c0.276,0,0.555-0.076,0.805-0.234
	c0.699-0.445,0.904-1.372,0.46-2.071l-1.88-2.952c-0.275-0.432-0.752-0.693-1.264-0.694l-3.5-0.005c-0.001,0-0.001,0-0.002,0
	c-0.827,0-1.499,0.67-1.5,1.498S76.715,16.45,77.543,16.451z"/>
<path d="M90.486,26.992l-3.147-4.944c-0.446-0.7-1.374-0.901-2.071-0.46c-0.698,0.445-0.904,1.372-0.46,2.071l3.147,4.944
	c0.286,0.449,0.771,0.694,1.267,0.694c0.276,0,0.555-0.076,0.805-0.234C90.724,28.618,90.93,27.691,90.486,26.992z"/>
<path d="M19.05,34.238h-3.5c-0.828,0-1.5,0.672-1.5,1.5s0.672,1.5,1.5,1.5h3.5c0.828,0,1.5-0.672,1.5-1.5
	S19.878,34.238,19.05,34.238z"/>
<path d="M32.786,34.238h-6.868c-0.828,0-1.5,0.672-1.5,1.5s0.672,1.5,1.5,1.5h6.868c0.828,0,1.5-0.672,1.5-1.5
	S33.615,34.238,32.786,34.238z"/>
<path d="M67.127,37.238h6.868c0.828,0,1.5-0.672,1.5-1.5s-0.672-1.5-1.5-1.5h-6.868c-0.828,0-1.5,0.672-1.5,1.5
	S66.299,37.238,67.127,37.238z"/>
<path d="M61.759,35.738c0-0.828-0.672-1.5-1.5-1.5h-6.868c-0.828,0-1.5,0.672-1.5,1.5s0.672,1.5,1.5,1.5h6.868
	C61.087,37.238,61.759,36.566,61.759,35.738z"/>
<path d="M39.655,34.238c-0.828,0-1.5,0.672-1.5,1.5s0.672,1.5,1.5,1.5h6.868c0.828,0,1.5-0.672,1.5-1.5s-0.672-1.5-1.5-1.5H39.655z"
	/>
<path d="M85.864,35.738c0-0.828-0.672-1.5-1.5-1.5h-3.5c-0.828,0-1.5,0.672-1.5,1.5s0.672,1.5,1.5,1.5h3.5
	C85.192,37.238,85.864,36.566,85.864,35.738z"/>
<path d="M23.263,23.541l1.932,1.588c0.279,0.229,0.616,0.341,0.951,0.341c0.434,0,0.863-0.187,1.16-0.548
	c0.525-0.64,0.434-1.585-0.207-2.111l-1.932-1.588c-0.641-0.526-1.585-0.434-2.111,0.207C22.531,22.07,22.622,23.015,23.263,23.541z
	"/>
<path d="M36.744,27.884c-0.395-0.728-1.307-0.996-2.034-0.603l-1.309,0.711l-1.15-0.946c-0.641-0.528-1.588-0.434-2.111,0.205
	c-0.526,0.64-0.435,1.585,0.205,2.111l1.931,1.588c0.274,0.226,0.613,0.342,0.953,0.342c0.245,0,0.491-0.06,0.716-0.182l2.197-1.192
	C36.869,29.523,37.14,28.613,36.744,27.884z"/>
<path d="M38.708,26.818c0.272,0.501,0.787,0.784,1.319,0.784c0.242,0,0.487-0.059,0.715-0.182l2.875-1.562
	c0.729-0.396,0.998-1.307,0.603-2.034c-0.396-0.729-1.307-0.996-2.034-0.603l-2.875,1.562C38.582,25.179,38.313,26.09,38.708,26.818
	z"/>
<path d="M49.684,22.564l1.451,0.822c0.233,0.132,0.487,0.194,0.738,0.194c0.522,0,1.03-0.273,1.307-0.761
	c0.408-0.722,0.154-1.637-0.566-2.045l-2.176-1.231c-0.45-0.254-1.001-0.259-1.455-0.013l-2.196,1.193
	c-0.729,0.396-0.998,1.307-0.603,2.034c0.396,0.729,1.307,0.996,2.034,0.603L49.684,22.564z"/>
<path d="M54.932,23.811c-0.408,0.721-0.154,1.636,0.567,2.044l2.727,1.543c0.233,0.132,0.486,0.194,0.737,0.194
	c0.522,0,1.03-0.273,1.307-0.762c0.408-0.721,0.154-1.636-0.567-2.044l-2.727-1.543C56.257,22.838,55.341,23.088,54.932,23.811z"/>
<path d="M68.403,29.509c0.666-0.493,0.806-1.433,0.312-2.098c-0.493-0.666-1.433-0.807-2.098-0.312l-1.226,0.908l-1.327-0.752
	c-0.719-0.405-1.636-0.155-2.045,0.566c-0.408,0.722-0.154,1.637,0.566,2.045l2.176,1.231c0.23,0.13,0.485,0.194,0.739,0.194
	c0.315,0,0.629-0.1,0.893-0.295L68.403,29.509z"/>
<path d="M72.8,25.882c0.311,0,0.623-0.096,0.892-0.295l2.009-1.488c0.666-0.493,0.806-1.433,0.312-2.098
	c-0.492-0.667-1.432-0.806-2.098-0.312l-2.009,1.488c-0.666,0.493-0.806,1.433-0.312,2.098C71.888,25.672,72.341,25.882,72.8,25.882
	z"/>
<path d="M38.096,44.508l-1.364-3.224c-0.323-0.761-1.199-1.118-1.967-0.797c-0.763,0.323-1.119,1.203-0.797,1.967l1.364,3.224
	c0.242,0.571,0.798,0.915,1.383,0.915c0.194,0,0.393-0.038,0.584-0.118C38.062,46.152,38.418,45.272,38.096,44.508z"/>
<path d="M48.486,69.059l-2.598-6.138c-0.323-0.761-1.2-1.117-1.967-0.797c-0.763,0.323-1.119,1.203-0.797,1.967l2.598,6.138
	c0.242,0.571,0.798,0.915,1.383,0.915c0.194,0,0.393-0.038,0.584-0.118C48.451,70.702,48.808,69.823,48.486,69.059z"/>
<path d="M41.91,58.868c0.194,0,0.393-0.038,0.584-0.118c0.763-0.323,1.119-1.203,0.797-1.967l-2.598-6.138
	c-0.322-0.761-1.198-1.118-1.967-0.797c-0.763,0.323-1.119,1.203-0.797,1.967l2.598,6.138C40.77,58.525,41.325,58.868,41.91,58.868z
	"/>
<path d="M48.319,76.367l1.364,3.224c0.236,0.556,0.781,0.915,1.382,0.915c0.02,0,0.039,0,0.059-0.001
	c0.624-0.024,1.167-0.433,1.364-1.024l1.107-3.32c0.262-0.786-0.162-1.636-0.948-1.897c-0.67-0.224-1.384,0.052-1.743,0.622
	c-0.403-0.541-1.136-0.757-1.788-0.484C48.353,74.723,47.996,75.603,48.319,76.367z"/>
<path d="M58.891,50.814l-2.035,6.099c-0.263,0.785,0.162,1.635,0.948,1.897c0.157,0.053,0.317,0.077,0.475,0.077
	c0.628,0,1.213-0.396,1.423-1.025l2.035-6.099c0.263-0.785-0.162-1.635-0.948-1.897C60.002,49.601,59.154,50.028,58.891,50.814z"/>
<path d="M56.718,62.064c-0.785-0.264-1.635,0.161-1.897,0.948l-2.035,6.099c-0.263,0.785,0.162,1.635,0.948,1.897
	c0.157,0.053,0.317,0.077,0.475,0.077c0.628,0,1.213-0.396,1.423-1.025l2.035-6.099C57.929,63.176,57.504,62.327,56.718,62.064z"/>
<path d="M63.932,40.447c-0.787-0.266-1.635,0.161-1.897,0.948l-1.108,3.32c-0.263,0.785,0.162,1.635,0.948,1.897
	c0.157,0.053,0.317,0.077,0.475,0.077c0.628,0,1.213-0.396,1.423-1.025l1.108-3.32C65.143,41.559,64.718,40.709,63.932,40.447z"/>
</svg>
