<?xml version="1.0" encoding="iso-8859-1"?>
<!-- Generator: Adobe Illustrator 21.0.0, SVG Export Plug-In . SVG Version: 6.00 Build 0)  -->
<svg version="1.1" id="Layer_1" xmlns="http://www.w3.org/2000/svg" xmlns:xlink="http://www.w3.org/1999/xlink" x="0px" y="0px"
	 viewBox="0 0 100.353 100.353" style="enable-background:new 0 0 100.353 100.353;" xml:space="preserve">
<g>
	<path style="fill:#231F20;" d="M77.484,13.091H22.517c-5.079,0-9.212,4.133-9.212,9.213v37.832c0,5.08,4.133,9.212,9.212,9.212
		h19.25v14.561H26.91c-0.828,0-1.5,0.671-1.5,1.5s0.672,1.5,1.5,1.5h16.357h13.474h16.351c0.828,0,1.5-0.671,1.5-1.5
		s-0.672-1.5-1.5-1.5H58.241V69.348h19.243c5.08,0,9.213-4.132,9.213-9.212V22.304C86.697,17.223,82.564,13.091,77.484,13.091z
		 M22.517,16.091h54.967c3.426,0,6.213,2.787,6.213,6.213v28.404H16.305V22.304C16.305,18.878,19.092,16.091,22.517,16.091z
		 M55.241,83.908H44.767V69.347h10.474V83.908z M77.484,66.347H56.741H43.267h-20.75c-3.425,0-6.212-2.787-6.212-6.212v-6.427
		h67.392v6.427C83.697,63.561,80.909,66.347,77.484,66.347z"/>
	<path style="fill:#231F20;" d="M50,55.443c-2.669,0-4.84,2.168-4.84,4.833c0,2.669,2.171,4.84,4.84,4.84s4.84-2.171,4.84-4.84
		C54.84,57.611,52.669,55.443,50,55.443z M50,62.116c-1.015,0-1.84-0.826-1.84-1.84c0-1.011,0.825-1.833,1.84-1.833
		s1.84,0.822,1.84,1.833C51.84,61.29,51.015,62.116,50,62.116z"/>
</g>
</svg>
