<?xml version="1.0" encoding="UTF-8"?> <svg xmlns="http://www.w3.org/2000/svg" width="1571" height="2013" viewBox="0 0 1571 2013" fill="none"> <path d="M9.99992 1185.13C184.375 1173.29 344.659 1077.87 448.819 940.791C517.493 850.413 561.77 741.922 569.604 627.327" stroke="#222437" stroke-width="20"></path> <rect width="1218" height="1544" rx="8" transform="matrix(-1 0 0 1 1430.18 76.8574)" fill="url(#paint0_linear)"></rect> <mask id="mask0" maskUnits="userSpaceOnUse" x="212" y="76" width="1219" height="1545"> <rect width="1218" height="1544" rx="8" transform="matrix(-1 0 0 1 1430.18 76.8574)" fill="white"></rect> </mask> <g mask="url(#mask0)"> <path fill-rule="evenodd" clip-rule="evenodd" d="M1275 127.097C1350.18 120.518 1405.72 53.404 1399.05 -22.8052C1392.39 -99.0145 1326.04 -155.46 1250.86 -148.881C1175.68 -142.301 1120.13 -75.1872 1126.8 1.02201C1133.47 77.2312 1199.81 133.677 1275 127.097Z" fill="#F3F4F6"></path> <path fill-rule="evenodd" clip-rule="evenodd" d="M734.341 252.551C830.572 244.129 901.687 158.451 893.18 61.184C884.673 -36.0831 799.766 -108.106 703.534 -99.6842C607.303 -91.2622 536.188 -5.58422 544.695 91.6828C553.202 188.95 638.109 260.973 734.341 252.551Z" fill="#F3F4F6"></path> <path fill-rule="evenodd" clip-rule="evenodd" d="M1001.24 346.611C1148.6 333.714 1257.6 203.765 1244.71 56.3599C1231.81 -91.0448 1101.91 -200.085 954.555 -187.189C807.201 -174.293 698.197 -44.3434 711.089 103.061C723.981 250.466 853.886 359.507 1001.24 346.611Z" fill="#F3F4F6"></path> <path d="M1343.88 -26.112C1343.88 -26.112 1269.94 122.223 1122.05 418.893" stroke="#F6F6F6" stroke-width="10"></path> </g> <path d="M1384.18 1501.86L874.181 2006.86" stroke="white" stroke-width="12" stroke-linecap="round"></path> <path d="M1534.82 1353.33C1534.82 1353.33 1539.57 1421.83 1506.36 1453.79C1473.16 1485.76 1402.01 1481.19 1402.01 1481.19C1402.01 1481.19 1397.27 1412.7 1430.47 1380.73C1463.67 1348.77 1534.82 1353.33 1534.82 1353.33Z" fill="#222437"></path> <path d="M1147.18 1784.86L1349.18 1021.86" stroke="#66CC66" stroke-width="24"></path> <path d="M1090.18 1247.86L1220.67 1475.47" stroke="#6C7BDF" stroke-width="12"></path> <path fill-rule="evenodd" clip-rule="evenodd" d="M1235.18 16.0576C1235.18 24.6576 1227.98 31.8576 1219.18 31.8576C1210.58 31.8576 1203.38 24.6576 1203.38 16.0576C1203.38 7.45762 1210.58 0.0576172 1219.18 0.0576172C1227.98 0.0576172 1235.18 7.45762 1235.18 16.0576ZM927.781 143.858C951.981 143.858 971.381 127.258 971.381 103.258C971.381 88.6576 964.181 77.6576 952.981 71.2576C961.181 64.6576 966.181 55.2576 966.181 43.2576C966.181 19.8576 947.181 3.85762 923.581 3.85762H868.381V143.858H927.781ZM923.581 60.4576H895.981V29.6576H923.581C932.381 29.6576 938.581 36.2576 938.581 45.0576C938.581 53.8576 932.181 60.4576 923.581 60.4576ZM895.981 118.058H927.781C937.181 118.058 943.981 111.058 943.981 101.458C943.981 92.0576 937.181 85.0576 927.781 85.0576H895.981V118.058ZM1031.58 146.658C1046.18 146.658 1056.98 141.058 1064.18 132.058V143.858H1089.98V43.8576H1064.18V55.6576C1056.98 46.6576 1046.18 41.0576 1031.58 41.0576C1004.98 41.0576 982.981 64.0576 982.981 93.8576C982.981 123.658 1004.98 146.658 1031.58 146.658ZM1008.78 93.8576C1008.78 110.658 1020.58 122.058 1036.38 122.058C1052.38 122.058 1064.18 110.658 1064.18 93.8576C1064.18 77.0576 1052.38 65.6576 1036.38 65.6576C1020.58 65.6576 1008.78 77.0576 1008.78 93.8576ZM1148.58 146.658C1169.98 146.658 1188.78 136.258 1188.78 114.658C1188.78 92.1386 1169.46 86.8446 1154.46 82.7358C1144.95 80.1301 1137.18 78.001 1137.18 72.2576C1137.18 66.8576 1142.38 64.0576 1148.78 64.0576C1156.18 64.0576 1161.78 67.8576 1164.78 74.2576L1186.78 62.2576C1178.98 48.4576 1164.98 41.0576 1148.78 41.0576C1128.18 41.0576 1110.78 52.4576 1110.78 72.8576C1110.78 94.2684 1129.87 99.696 1144.83 103.948C1154.46 106.687 1162.38 108.938 1162.38 114.658C1162.38 120.458 1156.78 123.258 1148.58 123.258C1138.58 123.258 1131.78 118.458 1128.98 110.258L1106.58 122.858C1113.78 138.258 1128.58 146.658 1148.58 146.658ZM1232.18 43.8576H1206.38V143.858H1232.18V43.8576ZM1348.58 120.658C1339.98 136.258 1322.98 146.658 1303.38 146.658C1272.98 146.658 1250.58 123.658 1250.58 93.8576C1250.58 64.0576 1272.98 41.0576 1303.38 41.0576C1322.98 41.0576 1339.98 51.4576 1348.18 66.8576L1325.98 79.8576C1321.98 71.6576 1313.38 66.4576 1303.18 66.4576C1287.78 66.4576 1276.38 77.8576 1276.38 93.8576C1276.38 109.658 1287.78 121.058 1303.18 121.058C1313.58 121.058 1322.18 116.058 1326.18 107.858L1348.58 120.658Z" fill="#66CC66"></path> <defs> <linearGradient id="paint0_linear" x1="1537.05" y1="1474.52" x2="795.686" y2="-218.414" gradientUnits="userSpaceOnUse"> <stop stop-color="#A9AEFF"></stop> <stop offset="0.436742" stop-color="#BEE5F0"></stop> <stop offset="1" stop-color="white"></stop> </linearGradient> </defs> </svg> 