<?xml version="1.0" encoding="UTF-8"?> <svg xmlns="http://www.w3.org/2000/svg" width="1080" height="1180" viewBox="0 0 1080 1180" fill="none"> <g clip-path="url(#clip0_131_219)"> <rect width="1080" height="1180" rx="36" fill="white"></rect> <path fill-rule="evenodd" clip-rule="evenodd" d="M1323.99 -19.8296C1323.99 291.013 1071.71 543 760.494 543C449.282 543 196.994 291.013 196.994 -19.8296L196.994 -1282L582.258 -1282L582.258 -19.8296C582.258 78.4901 662.057 158.194 760.494 158.194C858.931 158.194 938.73 78.4901 938.73 -19.8296L938.73 -104.465L1323.99 -104.465L1323.99 -19.8296Z" fill="url(#paint0_linear_131_219)"></path> <path d="M674 -22.5C674 -70.8249 712.951 -110 761 -110C809.049 -110 848 -70.8249 848 -22.5C848 25.8249 809.049 65 761 65C712.951 65 674 25.8249 674 -22.5Z" fill="black"></path> <path fill-rule="evenodd" clip-rule="evenodd" d="M177 920L177 390L361 390L361 920L177 920Z" fill="url(#paint1_linear_131_219)"></path> <path fill-rule="evenodd" clip-rule="evenodd" d="M173.183 408.321V390H338V408.321C338 532.408 237.275 633 113.025 633H100V468.4H113.025C146.249 468.4 173.183 441.502 173.183 408.321Z" fill="url(#paint2_linear_131_219)"></path> <path d="M513 626.5C513 500.855 614.184 399 739 399C863.816 399 965 500.855 965 626.5C965 752.145 863.816 854 739 854C614.184 854 513 752.145 513 626.5Z" fill="black"></path> <path fill-rule="evenodd" clip-rule="evenodd" d="M431 576C369.696 576 320 527.619 320 467.939L320 -398L542 -398L542 467.939C542 527.619 492.304 576 431 576Z" fill="url(#paint3_linear_131_219)"></path> <path fill-rule="evenodd" clip-rule="evenodd" d="M735.933 933C566.971 933 430 795.775 430 626.5C430 457.225 566.971 320 735.933 320L1422 320L1422 529.554L735.933 529.554C682.49 529.554 639.166 572.958 639.166 626.5C639.166 680.042 682.49 723.446 735.933 723.446L781.937 723.446L781.937 933L735.933 933Z" fill="url(#paint4_linear_131_219)"></path> <path fill-rule="evenodd" clip-rule="evenodd" d="M-513.002 -134.946C-513.002 -300.109 -378.911 -434 -213.502 -434C-48.0927 -434 85.998 -300.109 85.998 -134.946L85.998 1566H-118.77L-118.77 -134.946C-118.77 -187.187 -161.183 -229.537 -213.502 -229.537C-265.821 -229.537 -308.234 -187.187 -308.234 -134.946V-89.9755H-513.002V-134.946Z" fill="url(#paint5_linear_131_219)"></path> <path d="M-982 586C-982 281.691 -737.995 35 -437 34.9999C-136.005 34.9999 108 281.691 108 586C108 890.309 -136.005 1137 -437 1137C-737.995 1137 -982 890.309 -982 586Z" fill="black"></path> <path fill-rule="evenodd" clip-rule="evenodd" d="M699.998 1017.5C699.998 954.263 752.02 903 816.193 903L1100 903L1100 1132L816.193 1132C752.02 1132 699.998 1080.74 699.998 1017.5Z" fill="url(#paint6_linear_131_219)"></path> <path fill-rule="evenodd" clip-rule="evenodd" d="M706 1309C706 1453.15 587.39 1570 441.076 1570L-206 1570L-206 1048L441.076 1048C587.39 1048 706 1164.85 706 1309Z" fill="url(#paint7_linear_131_219)"></path> <path fill-rule="evenodd" clip-rule="evenodd" d="M452 1255.81C452 1060.96 610.267 903 805.5 903C1000.73 903 1159 1060.96 1159 1255.81L1159 2047H917.313L917.313 1255.81C917.313 1194.18 867.252 1144.22 805.5 1144.22C743.748 1144.22 693.688 1194.18 693.688 1255.81V1308.86H452V1255.81Z" fill="url(#paint8_linear_131_219)"></path> </g> <defs> <linearGradient id="paint0_linear_131_219" x1="1040.18" y1="543" x2="-171.5" y2="-790" gradientUnits="userSpaceOnUse"> <stop offset="0.0841716" stop-color="#6400E2" stop-opacity="0"></stop> <stop offset="0.516943" stop-color="#892DFF"></stop> <stop offset="1" stop-color="white"></stop> </linearGradient> <linearGradient id="paint1_linear_131_219" x1="145.5" y1="447.5" x2="333" y2="862.5" gradientUnits="userSpaceOnUse"> <stop stop-color="#A1FF06" stop-opacity="0"></stop> <stop offset="0.474763" stop-color="#B0FF30"></stop> <stop offset="1" stop-color="white"></stop> </linearGradient> <linearGradient id="paint2_linear_131_219" x1="158" y1="680" x2="389.783" y2="334.98" gradientUnits="userSpaceOnUse"> <stop stop-color="#A1FF06" stop-opacity="0"></stop> <stop offset="0.722356" stop-color="#B0FF30"></stop> <stop offset="1" stop-color="white"></stop> </linearGradient> <linearGradient id="paint3_linear_131_219" x1="512.4" y1="721.841" x2="217.091" y2="-118.032" gradientUnits="userSpaceOnUse"> <stop stop-color="#D0ABFF"></stop> <stop offset="0.378497" stop-color="#892DFF"></stop> <stop offset="0.593605" stop-color="#892DFF" stop-opacity="0"></stop> </linearGradient> <linearGradient id="paint4_linear_131_219" x1="714.5" y1="759.5" x2="891.041" y2="157.305" gradientUnits="userSpaceOnUse"> <stop stop-color="#A1FF06" stop-opacity="0"></stop> <stop offset="0.474763" stop-color="#B0FF30"></stop> <stop offset="1" stop-color="white"></stop> </linearGradient> <linearGradient id="paint5_linear_131_219" x1="-366.502" y1="-790" x2="85.998" y2="420.5" gradientUnits="userSpaceOnUse"> <stop stop-color="#A1FF06" stop-opacity="0"></stop> <stop offset="0.474763" stop-color="#B0FF30"></stop> <stop offset="1" stop-color="white"></stop> </linearGradient> <linearGradient id="paint6_linear_131_219" x1="535.498" y1="1232.5" x2="918.498" y2="872.5" gradientUnits="userSpaceOnUse"> <stop offset="0.373816" stop-color="white" stop-opacity="0"></stop> <stop offset="1" stop-color="#B0FF30"></stop> </linearGradient> <linearGradient id="paint7_linear_131_219" x1="1081.06" y1="818.913" x2="208.009" y2="1639.72" gradientUnits="userSpaceOnUse"> <stop offset="0.373816" stop-color="white" stop-opacity="0"></stop> <stop offset="1" stop-color="#B0FF30"></stop> </linearGradient> <linearGradient id="paint8_linear_131_219" x1="469" y1="1219.5" x2="1627" y2="1475" gradientUnits="userSpaceOnUse"> <stop stop-color="#892DFF" stop-opacity="0"></stop> <stop offset="0.392839" stop-color="#6400E2"></stop> <stop offset="1" stop-color="#892DFF"></stop> </linearGradient> <clipPath id="clip0_131_219"> <rect width="1080" height="1180" rx="36" fill="white"></rect> </clipPath> </defs> </svg> 