<?xml version="1.0" encoding="UTF-8"?> <svg xmlns="http://www.w3.org/2000/svg" xmlns:xlink="http://www.w3.org/1999/xlink" width="793px" height="145px" viewBox="0 0 793 145"> <!-- Generator: Sketch 63.1 (92452) - https://sketch.com --> <title>ПреимуществаплатныхкурсовнаStepik:</title> <desc>Created with Sketch.</desc> <g id="Page-1" stroke="none" stroke-width="1" fill="none" fill-rule="evenodd"> <path d="M11.96,48 L11.96,10.872 L26.24,10.872 L26.24,48 L37.12,48 L37.12,0.4 L1.08,0.4 L1.08,48 L11.96,48 Z M55.99,61.6 L55.99,44.804 C58.234,47.388 61.566,48.952 66.122,48.952 C75.03,48.952 82.374,41.132 82.374,31 C82.374,20.868 75.03,13.048 66.122,13.048 C61.566,13.048 58.234,14.612 55.99,17.196 L55.99,14 L45.79,14 L45.79,61.6 L55.99,61.6 Z M64.082,39.296 C59.39,39.296 55.99,36.1 55.99,31 C55.99,25.9 59.39,22.704 64.082,22.704 C68.774,22.704 72.174,25.9 72.174,31 C72.174,36.1 68.774,39.296 64.082,39.296 Z M106.14,48.952 C112.6,48.952 117.632,46.572 120.964,41.948 L112.804,37.256 C111.444,38.752 109.064,39.84 106.276,39.84 C102.536,39.84 99.408,38.616 98.116,35.08 L122.256,35.08 C122.528,33.788 122.664,32.428 122.664,31 C122.664,20.732 115.32,13.048 105.392,13.048 C94.648,13.048 87.304,20.868 87.304,31 C87.304,41.132 94.512,48.952 106.14,48.952 Z M112.532,27.464 L97.912,27.464 C98.864,23.996 101.448,22.092 105.324,22.092 C108.384,22.092 111.444,23.52 112.532,27.464 Z M136.774,48 L151.326,31 L151.326,48 L161.254,48 L161.254,14 L153.774,14 L139.222,31 L139.222,14 L129.294,14 L129.294,48 L136.774,48 Z M179.376,48 L179.376,30.456 L186.992,42.288 L188.216,42.288 L195.832,30.456 L195.832,48 L205.624,48 L205.624,14 L195.832,14 L187.604,26.852 L179.376,14 L169.584,14 L169.584,48 L179.376,48 Z M234.626,46.98 L246.254,14 L235.374,14 L228.982,34.876 L221.094,14 L210.214,14 L223.542,47.388 C221.978,50.992 219.802,52.08 215.246,52.08 L215.246,61.6 C224.086,62.076 230.818,57.792 234.626,46.98 Z M303.544,57.112 L303.544,38.48 L299.124,38.48 L299.124,14 L288.924,14 L288.924,38.48 L280.084,38.48 L280.084,14 L269.884,14 L269.884,38.48 L261.044,38.48 L261.044,14 L250.844,14 L250.844,48 L293.616,48 L293.616,57.112 L303.544,57.112 Z M325.27,48.952 C331.73,48.952 336.762,46.572 340.094,41.948 L331.934,37.256 C330.574,38.752 328.194,39.84 325.406,39.84 C321.666,39.84 318.538,38.616 317.246,35.08 L341.386,35.08 C341.658,33.788 341.794,32.428 341.794,31 C341.794,20.732 334.45,13.048 324.522,13.048 C313.778,13.048 306.434,20.868 306.434,31 C306.434,41.132 313.642,48.952 325.27,48.952 Z M331.662,27.464 L317.042,27.464 C317.994,23.996 320.578,22.092 324.454,22.092 C327.514,22.092 330.574,23.52 331.662,27.464 Z M364.404,48.952 C371.068,48.952 376.848,45.484 379.772,40.18 L370.864,35.08 C369.776,37.46 367.26,38.888 364.268,38.888 C359.848,38.888 356.584,35.692 356.584,31 C356.584,26.308 359.848,23.112 364.268,23.112 C367.26,23.112 369.708,24.54 370.864,26.92 L379.772,21.752 C376.848,16.516 371,13.048 364.404,13.048 C354.068,13.048 346.384,20.868 346.384,31 C346.384,41.132 354.068,48.952 364.404,48.952 Z M402.11,48 L402.11,23.792 L412.242,23.792 L412.242,14 L381.642,14 L381.642,23.792 L391.91,23.792 L391.91,48 L402.11,48 Z M435.872,48 C443.42,48 447.432,43.92 447.432,38.276 C447.432,34.808 445.8,32.156 442.876,30.592 C444.984,29.028 446.072,26.648 446.072,23.724 C446.072,18.08 442.06,14 434.512,14 L417.512,14 L417.512,48 L435.872,48 Z M433.424,26.92 L427.032,26.92 L427.032,22.16 L433.424,22.16 C435.26,22.16 436.416,22.908 436.416,24.608 C436.416,26.24 435.26,26.92 433.424,26.92 Z M434.512,39.568 L427.032,39.568 L427.032,34.672 L434.512,34.672 C436.28,34.672 437.504,35.42 437.504,37.052 C437.504,38.752 436.28,39.568 434.512,39.568 Z M467.934,48.952 C472.49,48.952 475.822,47.388 478.066,44.804 L478.066,48 L488.266,48 L488.266,14 L478.066,14 L478.066,17.196 C475.822,14.612 472.49,13.048 467.934,13.048 C459.026,13.048 451.682,20.868 451.682,31 C451.682,41.132 459.026,48.952 467.934,48.952 Z M469.974,39.296 C465.282,39.296 461.882,36.1 461.882,31 C461.882,25.9 465.282,22.704 469.974,22.704 C474.666,22.704 478.066,25.9 478.066,31 C478.066,36.1 474.666,39.296 469.974,39.296 Z M524.646,48 L524.646,23.52 L536.206,23.52 L536.206,48 L546.406,48 L546.406,14 L514.446,14 L514.446,48 L524.646,48 Z M566.772,33.924 L566.772,23.792 L574.116,23.792 L574.116,48 L584.316,48 L584.316,14 L556.572,14 L556.572,33.244 C556.572,37.46 554.872,39.432 551.676,38.48 L551.676,48 C561.604,49.156 566.772,44.192 566.772,33.924 Z M607.198,48.952 C611.754,48.952 615.086,47.388 617.33,44.804 L617.33,48 L627.53,48 L627.53,14 L617.33,14 L617.33,17.196 C615.086,14.612 611.754,13.048 607.198,13.048 C598.29,13.048 590.946,20.868 590.946,31 C590.946,41.132 598.29,48.952 607.198,48.952 Z M609.238,39.296 C604.546,39.296 601.146,36.1 601.146,31 C601.146,25.9 604.546,22.704 609.238,22.704 C613.93,22.704 617.33,25.9 617.33,31 C617.33,36.1 613.93,39.296 609.238,39.296 Z M653.268,48 L653.268,23.792 L663.4,23.792 L663.4,14 L632.8,14 L632.8,23.792 L643.068,23.792 L643.068,48 L653.268,48 Z M678.87,48 L678.87,35.76 L690.43,35.76 L690.43,48 L700.63,48 L700.63,14 L690.43,14 L690.43,26.24 L678.87,26.24 L678.87,14 L668.67,14 L668.67,48 L678.87,48 Z M724.872,48 C733.1,48 738.2,43.24 738.2,36.1 C738.2,28.96 733.1,24.2 724.872,24.2 L719.16,24.2 L719.16,14 L708.96,14 L708.96,48 L724.872,48 Z M751.8,48 L751.8,14 L741.6,14 L741.6,48 L751.8,48 Z M724.94,39.16 L719.16,39.16 L719.16,33.04 L724.94,33.04 C726.98,33.04 728.272,34.332 728.272,36.1 C728.272,37.868 726.98,39.16 724.94,39.16 Z M768.086,48 L774.41,39.024 L780.734,48 L792.43,48 L780.258,30.728 L792.022,14 L780.326,14 L774.41,22.432 L768.494,14 L756.798,14 L768.562,30.728 L756.39,48 L768.086,48 Z M10.94,131 L10.94,115.972 L21.82,131 L33.38,131 L20.664,114 L33.04,97 L21.14,97 L10.94,111.892 L10.94,97 L0.74,97 L0.74,131 L10.94,131 Z M58.642,129.98 L70.27,97 L59.39,97 L52.998,117.876 L45.11,97 L34.23,97 L47.558,130.388 C45.994,133.992 43.818,135.08 39.262,135.08 L39.262,144.6 C48.102,145.076 54.834,140.792 58.642,129.98 Z M85.06,144.6 L85.06,127.804 C87.304,130.388 90.636,131.952 95.192,131.952 C104.1,131.952 111.444,124.132 111.444,114 C111.444,103.868 104.1,96.048 95.192,96.048 C90.636,96.048 87.304,97.612 85.06,100.196 L85.06,97 L74.86,97 L74.86,144.6 L85.06,144.6 Z M93.152,122.296 C88.46,122.296 85.06,119.1 85.06,114 C85.06,108.9 88.46,105.704 93.152,105.704 C97.844,105.704 101.244,108.9 101.244,114 C101.244,119.1 97.844,122.296 93.152,122.296 Z M134.394,131.952 C141.058,131.952 146.838,128.484 149.762,123.18 L140.854,118.08 C139.766,120.46 137.25,121.888 134.258,121.888 C129.838,121.888 126.574,118.692 126.574,114 C126.574,109.308 129.838,106.112 134.258,106.112 C137.25,106.112 139.698,107.54 140.854,109.92 L149.762,104.752 C146.838,99.516 140.99,96.048 134.394,96.048 C124.058,96.048 116.374,103.868 116.374,114 C116.374,124.132 124.058,131.952 134.394,131.952 Z M170.332,131.952 C180.328,131.952 188.352,124.132 188.352,114 C188.352,103.868 180.328,96.048 170.332,96.048 C160.336,96.048 152.312,103.868 152.312,114 C152.312,124.132 160.336,131.952 170.332,131.952 Z M170.332,122.024 C165.912,122.024 162.512,118.828 162.512,114 C162.512,109.172 165.912,105.976 170.332,105.976 C174.752,105.976 178.152,109.172 178.152,114 C178.152,118.828 174.752,122.024 170.332,122.024 Z M213.342,131 C220.89,131 224.902,126.92 224.902,121.276 C224.902,117.808 223.27,115.156 220.346,113.592 C222.454,112.028 223.542,109.648 223.542,106.724 C223.542,101.08 219.53,97 211.982,97 L194.982,97 L194.982,131 L213.342,131 Z M210.894,109.92 L204.502,109.92 L204.502,105.16 L210.894,105.16 C212.73,105.16 213.886,105.908 213.886,107.608 C213.886,109.24 212.73,109.92 210.894,109.92 Z M211.982,122.568 L204.502,122.568 L204.502,117.672 L211.982,117.672 C213.75,117.672 214.974,118.42 214.974,120.052 C214.974,121.752 213.75,122.568 211.982,122.568 Z M258.902,131 L258.902,118.76 L270.462,118.76 L270.462,131 L280.662,131 L280.662,97 L270.462,97 L270.462,109.24 L258.902,109.24 L258.902,97 L248.702,97 L248.702,131 L258.902,131 Z M303.544,131.952 C308.1,131.952 311.432,130.388 313.676,127.804 L313.676,131 L323.876,131 L323.876,97 L313.676,97 L313.676,100.196 C311.432,97.612 308.1,96.048 303.544,96.048 C294.636,96.048 287.292,103.868 287.292,114 C287.292,124.132 294.636,131.952 303.544,131.952 Z M305.584,122.296 C300.892,122.296 297.492,119.1 297.492,114 C297.492,108.9 300.892,105.704 305.584,105.704 C310.276,105.704 313.676,108.9 313.676,114 C313.676,119.1 310.276,122.296 305.584,122.296 Z M367.056,131.952 C377.392,131.952 384.736,126.512 384.736,117.332 C384.736,107.268 376.644,104.752 369.436,102.576 C362.024,100.332 360.868,98.836 360.868,96.66 C360.868,94.756 362.568,93.056 365.968,93.056 C370.32,93.056 372.564,95.164 374.196,98.564 L383.376,93.192 C379.908,86.188 373.788,82.448 365.968,82.448 C357.74,82.448 349.988,87.752 349.988,96.932 C349.988,106.044 356.924,109.444 363.996,111.416 C371.136,113.388 373.856,114.544 373.856,117.468 C373.856,119.304 372.564,121.344 367.396,121.344 C362.024,121.344 359.1,118.692 357.4,114.748 L348.016,120.188 C350.668,127.192 357.06,131.952 367.056,131.952 Z M409.59,131 L409.59,121.752 C405.102,122.024 402.586,121.752 402.586,118.828 L402.586,106.792 L409.59,106.792 L409.59,97 L402.586,97 L402.586,87.48 L392.386,90.54 L392.386,97 L386.946,97 L386.946,106.792 L392.386,106.792 L392.386,118.828 C392.386,128.348 396.262,132.36 409.59,131 Z M432.676,131.952 C439.136,131.952 444.168,129.572 447.5,124.948 L439.34,120.256 C437.98,121.752 435.6,122.84 432.812,122.84 C429.072,122.84 425.944,121.616 424.652,118.08 L448.792,118.08 C449.064,116.788 449.2,115.428 449.2,114 C449.2,103.732 441.856,96.048 431.928,96.048 C421.184,96.048 413.84,103.868 413.84,114 C413.84,124.132 421.048,131.952 432.676,131.952 Z M439.068,110.464 L424.448,110.464 C425.4,106.996 427.984,105.092 431.86,105.092 C434.92,105.092 437.98,106.52 439.068,110.464 Z M466.03,144.6 L466.03,127.804 C468.274,130.388 471.606,131.952 476.162,131.952 C485.07,131.952 492.414,124.132 492.414,114 C492.414,103.868 485.07,96.048 476.162,96.048 C471.606,96.048 468.274,97.612 466.03,100.196 L466.03,97 L455.83,97 L455.83,144.6 L466.03,144.6 Z M474.122,122.296 C469.43,122.296 466.03,119.1 466.03,114 C466.03,108.9 469.43,105.704 474.122,105.704 C478.814,105.704 482.214,108.9 482.214,114 C482.214,119.1 478.814,122.296 474.122,122.296 Z M504.144,94.008 C507.476,94.008 510.264,91.22 510.264,87.888 C510.264,84.556 507.476,81.768 504.144,81.768 C500.812,81.768 498.024,84.556 498.024,87.888 C498.024,91.22 500.812,94.008 504.144,94.008 Z M509.244,131 L509.244,97 L499.044,97 L499.044,131 L509.244,131 Z M527.774,131 L527.774,115.972 L538.654,131 L550.214,131 L537.498,114 L549.874,97 L537.974,97 L527.774,111.892 L527.774,83.4 L517.574,83.4 L517.574,131 L527.774,131 Z M560.584,108.832 C564.12,108.832 567.044,105.908 567.044,102.372 C567.044,98.836 564.12,95.912 560.584,95.912 C557.048,95.912 554.124,98.836 554.124,102.372 C554.124,105.908 557.048,108.832 560.584,108.832 Z M560.584,131.952 C564.12,131.952 567.044,129.028 567.044,125.492 C567.044,121.956 564.12,119.032 560.584,119.032 C557.048,119.032 554.124,121.956 554.124,125.492 C554.124,129.028 557.048,131.952 560.584,131.952 Z" id="ПреимуществаплатныхкурсовнаStepik:" fill="#222437" fill-rule="nonzero"></path> </g> </svg> 