<?xml version="1.0" encoding="UTF-8"?> <svg xmlns="http://www.w3.org/2000/svg" viewBox="0 0 1503.96 425.2"> <defs> <style>.cls-1{fill:#fff;}.cls-2{fill:#0af;}.cls-3{fill:#97cf26;}.cls-4{fill:#ff6163;}.cls-5{fill:#a169f7;}</style> </defs> <g id="Layer_2" data-name="Layer 2"> <g id="Layer_1-2" data-name="Layer 1"> <rect class="cls-1" x="1011.31" y="157.74" width="56.09" height="205.42"></rect> <polygon class="cls-1" points="931.86 157.74 876.97 307.19 822.08 157.74 766.02 157.74 841.51 363.16 856.42 363.16 897.49 363.16 912.43 363.16 987.9 157.74 931.86 157.74"></polygon> <path class="cls-1" d="M1265.35,203V157.74h-67.14V101.08h-56v56.66h-44.35V203h44.35v88.37c0,45.6,22.82,76,81,76,22.51,0,42.21-8.2,42.21-8.2l-6.78-44.38a96.53,96.53,0,0,1-24.61,3.27c-16.63,0-35.75-7.13-35.75-30.17V203Z"></path> <path class="cls-1" d="M724.29,363.16H784L673.43,62.27H630.17L519.64,363.16h59.69l21.07-57.41H703.15ZM617.05,260.41l34.78-94.57,34.74,94.57Z"></path> <path class="cls-1" d="M1393.91,152.48c-60.74,0-110,48.23-110,107.62s49.29,107.63,110,107.63,110-48.2,110-107.63-49.34-107.62-110-107.62m0,163.7c-31.22,0-56.56-24.77-56.56-55.31s25.34-55.35,56.56-55.35,56.56,24.78,56.56,55.35-25.29,55.31-56.56,55.31"></path> <path class="cls-1" d="M1075.53,97.57a36.15,36.15,0,1,1-36.13-36.13,36.14,36.14,0,0,1,36.13,36.13"></path> <path class="cls-2" d="M188.89,94.43A94.45,94.45,0,1,1,94.46,0a94.45,94.45,0,0,1,94.43,94.43"></path> <path class="cls-3" d="M425.21,310.31A114.88,114.88,0,1,1,310.29,195.4,114.91,114.91,0,0,1,425.21,310.31"></path> <path class="cls-4" d="M384.27,94.43a74,74,0,1,1-74-73.94,74,74,0,0,1,74,73.94"></path> <path class="cls-5" d="M148,310.31a53.51,53.51,0,1,1-53.5-53.46A53.48,53.48,0,0,1,148,310.31"></path> </g> </g> </svg> 