<?xml version="1.0" encoding="UTF-8"?> <svg xmlns="http://www.w3.org/2000/svg" width="16" height="26" viewBox="0 0 16 26" fill="none"> <path d="M15.3256 8.91714C15.2546 8.76459 15.1015 8.66668 14.933 8.66668H9.79801L14.8658 0.665184C14.9503 0.53173 14.9555 0.36273 14.8793 0.224504C14.803 0.0858203 14.6574 0 14.4996 0H7.56632C7.4021 0 7.25214 0.0927266 7.17851 0.239637L0.678506 13.2396C0.611322 13.3735 0.618686 13.533 0.697549 13.6608C0.776869 13.7886 0.915959 13.8666 1.06632 13.8666H5.52228L0.666775 25.3985C0.584002 25.5957 0.657686 25.8244 0.840092 25.9363C0.910272 25.9792 0.988271 25.9999 1.06587 25.9999C1.19023 25.9999 1.31287 25.9466 1.39782 25.8461L15.2645 9.37945C15.3732 9.25036 15.3966 9.07009 15.3256 8.91714Z" fill="#F0F2F7"></path> </svg> 