<?xml version="1.0" encoding="utf-8"?>
<!-- Generator: Adobe Illustrator 16.0.0, SVG Export Plug-In . SVG Version: 6.00 Build 0)  -->
<!DOCTYPE svg PUBLIC "-//W3C//DTD SVG 1.1//EN" "http://www.w3.org/Graphics/SVG/1.1/DTD/svg11.dtd">
<svg version="1.1" id="Layer_1" xmlns="http://www.w3.org/2000/svg" xmlns:xlink="http://www.w3.org/1999/xlink" x="0px" y="0px"
	 width="500px" height="200px" viewBox="0 0 500 200" enable-background="new 0 0 500 200" xml:space="preserve">
<g>
	<g>
		<path fill="#222222" d="M388.304,124.573c-2.022,0-3.666-1.652-3.666-3.675V75.361c0-2.036,1.644-3.679,3.666-3.679
			c2.04,0,3.691,1.644,3.691,3.679v45.537C391.995,122.921,390.344,124.573,388.304,124.573z"/>
		<path fill="#222222" d="M262.373,114.06c-1.495-1.197-3.65-0.975-4.864,0.512c-3.312,4.096-11.496,3.105-13.635,2.23
			c-3.063-1.247-4.616-3.807-4.616-7.598V84.268h16.27c2.022,0,3.666-1.648,3.666-3.675c0-2.036-1.644-3.684-3.666-3.684h-16.27
			V58.266c0-1.916-1.544-3.456-3.46-3.456c-1.899,0-3.443,1.54-3.443,3.456v50.938c0,6.574,3.245,11.677,8.901,13.981
			c1.801,0.735,4.634,1.305,7.746,1.305c4.906,0,10.473-1.379,13.875-5.574C264.082,117.429,263.852,115.266,262.373,114.06z"/>
		<path fill="#222222" d="M205.82,124.779c-1.124,0-2.264-0.066-3.444-0.214c-12.04-1.537-19.234-7.062-19.234-14.799
			c0-2.023,1.645-3.675,3.685-3.675c2.023,0,3.684,1.651,3.684,3.675c0,3.56,5.021,6.508,12.775,7.482
			c7.828,0.999,13.329-2.874,14.129-5.922c0.455-1.775,0.281-3.443-0.503-4.698c-0.859-1.388-2.444-2.33-4.7-2.792
			c-15.707-2.779-26.12-5.352-27.623-15.27c-0.546-3.617,0.495-7.165,2.939-10.009c3.411-3.98,9.299-6.256,16.17-6.256
			c12.619,0,20.77,5.645,20.77,14.386c0,2.036-1.651,3.688-3.683,3.688c-2.04,0-3.684-1.651-3.684-3.688
			c0-5.182-7.218-7.023-13.403-7.023c-4.642,0-8.597,1.388-10.587,3.688c-1.049,1.23-1.462,2.618-1.238,4.108
			c0.562,3.688,3.947,5.983,21.678,9.121l0.1,0.017c5.4,1.124,8.159,3.952,9.513,6.148c1.875,3.006,2.354,6.706,1.362,10.455
			C222.931,119.262,215.688,124.779,205.82,124.779z"/>
		<path fill="#222222" d="M290.642,124.779c-14.535,0-26.337-11.776-26.337-26.245c0-14.464,11.802-26.232,26.337-26.232
			c13.229,0,24.461,9.873,26.112,22.95c0.215,1.738-0.727,3.105-1.305,3.761c-0.934,1.049-2.114,1.627-3.336,1.627h-40.317
			c1.048,9.423,9.092,16.773,18.846,16.773c6.532,0,13.072-3.353,15.88-8.143c1.033-1.751,3.279-2.346,5.038-1.313
			s2.354,3.279,1.321,5.038C308.752,120.039,299.809,124.779,290.642,124.779z M272.424,93.265h36.419
			c-2.296-7.932-9.671-13.602-18.201-13.602C282.011,79.664,274.72,85.416,272.424,93.265z"/>
		<path fill="#222222" d="M349.886,72.301c-7.407,0-14.104,3.093-18.869,8.04v-4.422c0-2.044-1.66-3.683-3.684-3.683
			c-2.04,0-3.675,1.639-3.675,3.683v63.057c0,2.023,1.635,3.675,3.675,3.675c2.023,0,3.684-1.652,3.684-3.675v-22.24
			c4.765,4.955,11.462,8.043,18.869,8.043c14.478,0,26.238-11.776,26.238-26.245C376.124,84.069,364.363,72.301,349.886,72.301z
			 M349.886,117.413c-10.413,0-18.869-8.473-18.869-18.879c0-10.401,8.456-18.87,18.869-18.87c10.406,0,18.879,8.469,18.879,18.87
			C368.765,108.939,360.292,117.413,349.886,117.413z"/>
		<path fill="#222222" d="M440.819,124.382c-3.626,0-7.177-1.585-10.546-4.715c-2.527-2.362-18.458-18.503-19.144-19.188
			c-0.693-0.702-1.073-1.644-1.057-2.622c0-0.975,0.396-1.908,1.106-2.597l22.001-21.521c1.469-1.437,3.798-1.396,5.219,0.054
			c1.42,1.449,1.396,3.77-0.066,5.211l-19.357,18.928c4.741,4.798,14.502,14.634,16.318,16.352c2.015,1.858,3.947,2.783,5.657,2.733
			c0.512-0.008,1.677-0.008,2.733-0.008c2.031,0,3.667,1.66,3.667,3.691c0,2.031-1.651,3.642-3.691,3.667
			c-0.967,0-2.023-0.017-2.486,0.017C441.051,124.382,440.935,124.382,440.819,124.382z"/>
		<path fill="#222222" d="M405.2,124.548c-2.031,0-3.683-1.636-3.683-3.675V58.246c0-2.027,1.651-3.675,3.683-3.675
			c2.04,0,3.684,1.647,3.684,3.675v62.627C408.884,122.912,407.24,124.548,405.2,124.548z"/>
		<path fill-rule="evenodd" clip-rule="evenodd" fill="#222222" d="M388.403,64.246c2.609,0,4.715-2.102,4.715-4.72
			c0-2.593-2.105-4.711-4.715-4.711c-2.602,0-4.724,2.118-4.724,4.711C383.68,62.144,385.802,64.246,388.403,64.246z"/>
	</g>
	<g>
		<path fill="#66CC66" d="M142.81,76.273l-16.436-16.436C120.027,53.494,111.603,50,102.648,50s-17.38,3.494-23.726,9.838
			L62.488,76.272c-6.345,6.343-9.84,14.77-9.84,23.728c0,8.958,3.494,17.384,9.839,23.727l16.437,16.437
			C85.27,146.506,93.694,150,102.648,150c8.721,0,16.987-3.336,23.277-9.394l0.031-0.03l0.03-0.03l16.82-16.818
			c6.346-6.343,9.841-14.771,9.841-23.728C152.648,91.042,149.154,82.615,142.81,76.273z"/>
		<path fill="#FFFFFF" d="M114.686,128.935c-3.123,3.007-7.369,4.861-12.037,4.861c-4.785,0-9.125-1.95-12.269-5.092l8.102-8.102
			c1.067,1.066,2.541,1.729,4.167,1.729c1.627,0,3.101-0.663,4.167-1.729l16.435-16.435c1.066-1.067,1.729-2.54,1.729-4.167
			c0-1.629-0.661-3.1-1.729-4.167c-1.066-1.065-2.539-1.729-4.166-1.729s-3.101,0.664-4.167,1.729l-16.436,16.436
			c-3.143,3.143-7.482,5.093-12.268,5.093c-4.786,0-9.126-1.951-12.269-5.093c-3.146-3.144-5.093-7.481-5.093-12.269
			c0-4.788,1.947-9.125,5.093-12.269L90.38,71.296c3.144-3.143,7.483-5.093,12.269-5.093s9.125,1.95,12.269,5.093l-8.102,8.102
			c-1.066-1.066-2.54-1.729-4.167-1.729s-3.1,0.664-4.167,1.729L82.047,95.833c-1.066,1.067-1.729,2.54-1.729,4.167
			c0,1.629,0.661,3.1,1.729,4.167c1.066,1.066,2.54,1.729,4.167,1.729c1.626,0,3.1-0.663,4.166-1.729l16.436-16.435
			c3.144-3.143,7.483-5.093,12.269-5.093s9.125,1.95,12.269,5.093c3.145,3.144,5.093,7.48,5.093,12.269
			c0,4.787-1.948,9.125-5.093,12.269L114.686,128.935z"/>
	</g>
</g>
</svg>
