<svg xmlns="http://www.w3.org/2000/svg" xmlns:xlink="http://www.w3.org/1999/xlink" viewBox="0 0 1920 1080"><defs><style>.cls-1{isolation:isolate;}.cls-2{fill:url(#linear-gradient);}.cls-10,.cls-14,.cls-3,.cls-6{mix-blend-mode:screen;}.cls-10,.cls-11,.cls-12,.cls-13,.cls-14,.cls-15,.cls-4,.cls-5,.cls-6,.cls-7,.cls-8,.cls-9{fill:none;stroke-linecap:round;stroke-linejoin:round;}.cls-12,.cls-4,.cls-8{stroke:#fff;}.cls-4,.cls-5,.cls-6,.cls-7{stroke-width:2px;}.cls-10,.cls-13,.cls-14,.cls-5,.cls-6,.cls-9{stroke:#1fcaff;}.cls-11,.cls-15,.cls-7{stroke:#1b1464;}.cls-10,.cls-11,.cls-8,.cls-9{stroke-width:0.5px;}</style><linearGradient id="linear-gradient" x1="960" y1="-27" x2="960" y2="1115.3" gradientUnits="userSpaceOnUse"><stop offset="0" stop-color="#385888"/><stop offset="1" stop-color="#3a81e8"/></linearGradient></defs><title>Artboard 1</title><g class="cls-1"><g id="Layer_1" data-name="Layer 1"><rect class="cls-2" width="1920" height="1080"/><g class="cls-3"><path class="cls-4" d="M79.9-200.79,180-131.56a43.45,43.45,0,0,1,15.3,33.14,43.51,43.51,0,0,1-20.24,36.79l-1.54.92L79.9,4"/></g><g class="cls-3"><path class="cls-5" d="M79.9-116.42,180-47.18A43.45,43.45,0,0,1,195.3-14a43.51,43.51,0,0,1-20.24,36.79l-1.54.92L79.9,88.33"/></g><line class="cls-6" x1="79.9" y1="-200.79" x2="79.9" y2="88.33"/><g class="cls-3"><path class="cls-5" d="M79.9,293.07-20.2,223.84a43.55,43.55,0,0,1,4.94-69.93l1.54-.92L79.9,88.33"/></g><g class="cls-3"><path class="cls-4" d="M79.9,208.7-20.2,139.47a43.55,43.55,0,0,1,4.94-69.93l1.54-.92L79.9,4"/></g><line class="cls-6" x1="79.9" y1="293.07" x2="79.9" y2="3.95"/><path class="cls-7" d="M79.9,786.93,180,856.16a43.55,43.55,0,0,1-4.94,69.93l-1.54.92L79.9,991.67"/><g class="cls-3"><path class="cls-5" d="M79.9,871.3,180,940.53a43.55,43.55,0,0,1-4.94,69.93l-1.54.92L79.9,1076"/></g><line class="cls-6" x1="79.9" y1="786.93" x2="79.9" y2="1076.05"/><g class="cls-3"><path class="cls-5" d="M79.9,1280.79l-100.1-69.23a43.55,43.55,0,0,1,4.94-69.93l1.54-.92L79.9,1076"/></g><path class="cls-7" d="M79.9,1196.41l-100.1-69.23a43.55,43.55,0,0,1,4.94-69.93l1.54-.92L79.9,991.67"/><line class="cls-6" x1="79.9" y1="1280.79" x2="79.9" y2="991.67"/><g class="cls-3"><path class="cls-5" d="M79.9,293.07,180,362.3a43.55,43.55,0,0,1-4.94,69.93l-1.54.92L79.9,497.81"/></g><path class="cls-7" d="M79.9,377.44,180,446.68a43.55,43.55,0,0,1-4.94,69.93l-1.54.92L79.9,582.19"/><line class="cls-6" x1="79.9" y1="293.07" x2="79.9" y2="582.19"/><path class="cls-7" d="M79.9,786.93-20.2,717.7a43.55,43.55,0,0,1,4.94-69.93l1.54-.92L79.9,582.19"/><g class="cls-3"><path class="cls-5" d="M79.9,702.56-20.2,633.32a43.55,43.55,0,0,1,4.94-69.93l1.54-.92L79.9,497.81"/></g><line class="cls-6" x1="79.9" y1="786.93" x2="79.9" y2="497.81"/><g class="cls-3"><path class="cls-5" d="M1470.22-187.6l100.1,69.23a43.45,43.45,0,0,1,15.3,33.14,43.51,43.51,0,0,1-20.24,36.79l-1.54.92-93.63,64.67"/></g><line class="cls-6" x1="1470.22" y1="-271.98" x2="1470.22" y2="17.14"/><g class="cls-3"><path class="cls-5" d="M1470.22,221.88l-100.1-69.23a43.55,43.55,0,0,1,4.94-69.93l1.54-.92,93.63-64.67"/></g><g class="cls-3"><path class="cls-4" d="M1470.22,137.51l-100.1-69.23a43.55,43.55,0,0,1,4.94-69.93l1.54-.92,93.63-64.67"/></g><line class="cls-6" x1="1470.22" y1="221.88" x2="1470.22" y2="-67.23"/><path class="cls-7" d="M1470.22,715.74,1570.33,785a43.55,43.55,0,0,1-4.94,69.93l-1.54.92-93.63,64.66"/><g class="cls-3"><path class="cls-5" d="M1470.22,800.12l100.1,69.23a43.55,43.55,0,0,1-4.94,69.93l-1.54.92-93.63,64.67"/></g><line class="cls-6" x1="1470.22" y1="715.74" x2="1470.22" y2="1004.86"/><g class="cls-3"><path class="cls-5" d="M1470.22,1209.6l-100.1-69.23a43.55,43.55,0,0,1,4.94-69.93l1.54-.92,93.63-64.66"/></g><path class="cls-7" d="M1470.22,1125.23,1370.12,1056a43.55,43.55,0,0,1,4.94-69.93l1.54-.92,93.63-64.67"/><line class="cls-6" x1="1470.22" y1="1209.6" x2="1470.22" y2="920.49"/><g class="cls-3"><path class="cls-5" d="M1470.22,221.88l100.1,69.23a43.55,43.55,0,0,1-4.94,69.93l-1.54.92-93.63,64.66"/></g><path class="cls-7" d="M1470.22,306.26l100.1,69.23a43.55,43.55,0,0,1-4.94,69.93l-1.54.92L1470.22,511"/><line class="cls-6" x1="1470.22" y1="221.88" x2="1470.22" y2="511"/><path class="cls-7" d="M1470.22,715.74l-100.1-69.23a43.55,43.55,0,0,1,4.94-69.93l1.54-.92L1470.22,511"/><g class="cls-3"><path class="cls-5" d="M1470.22,631.37l-100.1-69.23a43.55,43.55,0,0,1,4.94-69.93l1.54-.92,93.63-64.67"/></g><line class="cls-6" x1="1470.22" y1="715.74" x2="1470.22" y2="426.63"/><g class="cls-3"><path class="cls-8" d="M1295.6-67.23,1395.71,2a43.55,43.55,0,0,1-4.94,69.93l-1.54.92-93.63,64.66"/></g><g class="cls-3"><path class="cls-9" d="M1295.6,17.14l100.1,69.23a43.55,43.55,0,0,1-4.94,69.93l-1.54.92-93.63,64.67"/></g><line class="cls-10" x1="1295.6" y1="-67.23" x2="1295.6" y2="221.88"/><g class="cls-3"><path class="cls-9" d="M1295.6,426.63,1195.5,357.4a43.55,43.55,0,0,1,4.94-69.93l1.54-.92,93.63-64.66"/></g><g class="cls-3"><path class="cls-8" d="M1295.6,342.25,1195.5,273a43.55,43.55,0,0,1,4.94-69.93l1.54-.92,93.63-64.67"/></g><line class="cls-10" x1="1295.6" y1="426.63" x2="1295.6" y2="137.51"/><path class="cls-11" d="M1295.6,920.49l100.1,69.23a43.55,43.55,0,0,1-4.94,69.93l-1.54.92-93.63,64.66"/><g class="cls-3"><path class="cls-9" d="M1295.6,1004.86l100.1,69.23a43.55,43.55,0,0,1-4.94,69.93l-1.54.92-93.63,64.67"/></g><line class="cls-10" x1="1295.6" y1="920.49" x2="1295.6" y2="1209.6"/><g class="cls-3"><path class="cls-9" d="M1295.6,426.63l100.1,69.23a43.55,43.55,0,0,1-4.94,69.93l-1.54.92-93.63,64.66"/></g><path class="cls-11" d="M1295.6,511l100.1,69.23a43.55,43.55,0,0,1-4.94,69.93l-1.54.92-93.63,64.67"/><line class="cls-10" x1="1295.6" y1="426.63" x2="1295.6" y2="715.74"/><path class="cls-11" d="M1295.6,920.49l-100.1-69.23a43.55,43.55,0,0,1,4.94-69.93l1.54-.92,93.63-64.67"/><g class="cls-3"><path class="cls-9" d="M1295.6,836.11l-100.1-69.23a43.55,43.55,0,0,1,4.94-69.93L1202,696l93.63-64.67"/></g><line class="cls-10" x1="1295.6" y1="920.49" x2="1295.6" y2="631.37"/><g class="cls-3"><path class="cls-4" d="M773.3,53.36l100.1,69.23a43.55,43.55,0,0,1-4.94,69.93l-1.54.92L773.3,258.1"/></g><g class="cls-3"><path class="cls-5" d="M773.3,137.73,873.41,207a43.55,43.55,0,0,1-4.94,69.93l-1.54.92L773.3,342.47"/></g><line class="cls-6" x1="773.3" y1="53.36" x2="773.3" y2="342.47"/><g class="cls-3"><path class="cls-5" d="M773.3,547.22,673.2,478a43.55,43.55,0,0,1,4.94-69.93l1.54-.92,93.63-64.66"/></g><g class="cls-3"><path class="cls-4" d="M773.3,462.84,673.2,393.61a43.55,43.55,0,0,1,4.94-69.93l1.54-.92L773.3,258.1"/></g><line class="cls-6" x1="773.3" y1="547.22" x2="773.3" y2="258.1"/><path class="cls-7" d="M773.3,1041.08l100.1,69.23a43.55,43.55,0,0,1-4.94,69.93l-1.54.92-93.63,64.66"/><line class="cls-6" x1="773.3" y1="1041.08" x2="773.3" y2="1330.19"/><g class="cls-3"><path class="cls-5" d="M773.3,547.22l100.1,69.23a43.55,43.55,0,0,1-4.94,69.93l-1.54.92L773.3,752"/></g><path class="cls-7" d="M773.3,631.59l100.1,69.23a43.55,43.55,0,0,1-4.94,69.93l-1.54.92L773.3,836.33"/><line class="cls-6" x1="773.3" y1="547.22" x2="773.3" y2="836.33"/><path class="cls-7" d="M773.3,1041.08,673.2,971.85a43.55,43.55,0,0,1,4.94-69.93l1.54-.92,93.63-64.66"/><g class="cls-3"><path class="cls-5" d="M773.3,956.7,673.2,887.47a43.55,43.55,0,0,1,4.94-69.93l1.54-.92L773.3,752"/></g><line class="cls-6" x1="773.3" y1="1041.08" x2="773.3" y2="751.96"/><g class="cls-3"><path class="cls-9" d="M599.2-151.38l100.1,69.23A43.45,43.45,0,0,1,714.6-49a43.51,43.51,0,0,1-20.24,36.79l-1.54.92L599.2,53.36"/></g><line class="cls-10" x1="599.2" y1="-235.76" x2="599.2" y2="53.36"/><g class="cls-3"><path class="cls-9" d="M599.2,258.1,499.1,188.87A43.55,43.55,0,0,1,504,118.94l1.54-.92L599.2,53.36"/></g><g class="cls-3"><path class="cls-8" d="M599.2,173.73,499.1,104.5A43.55,43.55,0,0,1,504,34.57l1.54-.92L599.2-31"/></g><line class="cls-10" x1="599.2" y1="258.1" x2="599.2" y2="-31.02"/><path class="cls-11" d="M599.2,752l100.1,69.23a43.55,43.55,0,0,1-4.94,69.93l-1.54.92L599.2,956.7"/><g class="cls-3"><path class="cls-9" d="M599.2,836.33l100.1,69.23a43.55,43.55,0,0,1-4.94,69.93l-1.54.92-93.63,64.67"/></g><line class="cls-10" x1="599.2" y1="751.96" x2="599.2" y2="1041.08"/><g class="cls-3"><path class="cls-9" d="M599.2,1245.82l-100.1-69.23a43.55,43.55,0,0,1,4.94-69.93l1.54-.92,93.63-64.66"/></g><path class="cls-11" d="M599.2,1161.45l-100.1-69.23a43.55,43.55,0,0,1,4.94-69.93l1.54-.92L599.2,956.7"/><line class="cls-10" x1="599.2" y1="1245.82" x2="599.2" y2="956.7"/><g class="cls-3"><path class="cls-9" d="M599.2,258.1l100.1,69.23a43.55,43.55,0,0,1-4.94,69.93l-1.54.92L599.2,462.84"/></g><path class="cls-11" d="M599.2,342.47l100.1,69.23a43.55,43.55,0,0,1-4.94,69.93l-1.54.92L599.2,547.22"/><line class="cls-10" x1="599.2" y1="258.1" x2="599.2" y2="547.22"/><path class="cls-11" d="M599.2,752,499.1,682.73A43.55,43.55,0,0,1,504,612.8l1.54-.92,93.63-64.67"/><g class="cls-3"><path class="cls-9" d="M599.2,667.59,499.1,598.36A43.55,43.55,0,0,1,504,528.43l1.54-.92,93.63-64.67"/></g><line class="cls-10" x1="599.2" y1="751.96" x2="599.2" y2="462.84"/><g class="cls-3"><path class="cls-12" d="M426.1-116.42l100.1,69.23A43.45,43.45,0,0,1,541.5-14a43.51,43.51,0,0,1-20.24,36.79l-1.54.92L426.1,88.33"/></g><g class="cls-3"><path class="cls-13" d="M426.1-32l100.1,69.23a43.55,43.55,0,0,1-4.94,69.93l-1.54.92L426.1,172.7"/></g><line class="cls-14" x1="426.1" y1="-116.42" x2="426.1" y2="172.7"/><g class="cls-3"><path class="cls-13" d="M426.1,377.44,326,308.21a43.55,43.55,0,0,1,4.94-69.93l1.54-.92L426.1,172.7"/></g><g class="cls-3"><path class="cls-12" d="M426.1,293.07,326,223.84a43.55,43.55,0,0,1,4.94-69.93l1.54-.92L426.1,88.33"/></g><line class="cls-14" x1="426.1" y1="377.44" x2="426.1" y2="88.33"/><path class="cls-15" d="M426.1,871.3l100.1,69.23a43.55,43.55,0,0,1-4.94,69.93l-1.54.92L426.1,1076"/><g class="cls-3"><path class="cls-13" d="M426.1,955.68l100.1,69.23a43.55,43.55,0,0,1-4.94,69.93l-1.54.92-93.63,64.67"/></g><line class="cls-14" x1="426.1" y1="871.3" x2="426.1" y2="1160.42"/><path class="cls-15" d="M426.1,1280.79,326,1211.56a43.55,43.55,0,0,1,4.94-69.93l1.54-.92L426.1,1076"/><line class="cls-14" x1="426.1" y1="1365.16" x2="426.1" y2="1076.05"/><g class="cls-3"><path class="cls-13" d="M426.1,377.44l100.1,69.23a43.55,43.55,0,0,1-4.94,69.93l-1.54.92L426.1,582.19"/></g><path class="cls-15" d="M426.1,461.82,526.21,531A43.55,43.55,0,0,1,521.27,601l-1.54.92L426.1,666.56"/><line class="cls-14" x1="426.1" y1="377.44" x2="426.1" y2="666.56"/><path class="cls-15" d="M426.1,871.3,326,802.07a43.55,43.55,0,0,1,4.94-69.93l1.54-.92,93.63-64.66"/><g class="cls-3"><path class="cls-13" d="M426.1,786.93,326,717.7a43.55,43.55,0,0,1,4.94-69.93l1.54-.92,93.63-64.67"/></g><line class="cls-14" x1="426.1" y1="871.3" x2="426.1" y2="582.19"/><g class="cls-3"><path class="cls-8" d="M253,1076l-100.1-69.23a43.55,43.55,0,0,1,4.94-69.93l1.54-.92L253,871.3"/></g><g class="cls-3"><path class="cls-9" d="M253,991.67,152.9,922.44a43.55,43.55,0,0,1,4.94-69.93l1.54-.92L253,786.93"/></g><line class="cls-10" x1="253" y1="1076.05" x2="253" y2="786.93"/><g class="cls-3"><path class="cls-9" d="M253,582.19l100.1,69.23a43.55,43.55,0,0,1-4.94,69.93l-1.54.92L253,786.93"/></g><g class="cls-3"><path class="cls-8" d="M253,666.56l100.1,69.23a43.55,43.55,0,0,1-4.94,69.93l-1.54.92L253,871.3"/></g><line class="cls-10" x1="253" y1="582.19" x2="253" y2="871.3"/><path class="cls-11" d="M253,88.33,152.9,19.1A43.45,43.45,0,0,1,137.6-14a43.51,43.51,0,0,1,20.24-36.79l1.54-.92L253-116.42"/><g class="cls-3"><path class="cls-9" d="M253,4,152.9-65.28a43.45,43.45,0,0,1-15.3-33.14,43.51,43.51,0,0,1,20.24-36.79l1.54-.92L253-200.79"/></g><line class="cls-10" x1="253" y1="88.33" x2="253" y2="-200.79"/><g class="cls-3"><path class="cls-9" d="M253,582.19,152.9,513A43.55,43.55,0,0,1,157.84,443l1.54-.92L253,377.44"/></g><path class="cls-11" d="M253,497.81,152.9,428.58a43.55,43.55,0,0,1,4.94-69.93l1.54-.92L253,293.07"/><line class="cls-10" x1="253" y1="582.19" x2="253" y2="293.07"/><path class="cls-11" d="M253,88.33l100.1,69.23a43.55,43.55,0,0,1-4.94,69.93l-1.54.92L253,293.07"/><g class="cls-3"><path class="cls-9" d="M253,172.7l100.1,69.23a43.55,43.55,0,0,1-4.94,69.93l-1.54.92L253,377.44"/></g><line class="cls-10" x1="253" y1="88.33" x2="253" y2="377.44"/><g class="cls-3"><path class="cls-8" d="M1645.65,17.14l100.1,69.23a43.55,43.55,0,0,1-4.94,69.93l-1.54.92-93.63,64.66"/></g><g class="cls-3"><path class="cls-9" d="M1645.65,101.51l100.1,69.23a43.55,43.55,0,0,1-4.94,69.93l-1.54.92-93.63,64.67"/></g><line class="cls-10" x1="1645.65" y1="17.14" x2="1645.65" y2="306.26"/><g class="cls-3"><path class="cls-9" d="M1645.65,511l-100.1-69.23a43.55,43.55,0,0,1,4.94-69.93l1.54-.92,93.63-64.66"/></g><g class="cls-3"><path class="cls-8" d="M1645.65,426.63l-100.1-69.23a43.55,43.55,0,0,1,4.94-69.93l1.54-.92,93.63-64.67"/></g><line class="cls-10" x1="1645.65" y1="511" x2="1645.65" y2="221.88"/><path class="cls-11" d="M1645.65,1004.86l100.1,69.23a43.55,43.55,0,0,1-4.94,69.93l-1.54.92-93.63,64.66"/><line class="cls-10" x1="1645.65" y1="1004.86" x2="1645.65" y2="1293.98"/><g class="cls-3"><path class="cls-9" d="M1645.65,511l100.1,69.23a43.55,43.55,0,0,1-4.94,69.93l-1.54.92-93.63,64.66"/></g><path class="cls-11" d="M1645.65,595.37l100.1,69.23a43.55,43.55,0,0,1-4.94,69.93l-1.54.92-93.63,64.67"/><line class="cls-10" x1="1645.65" y1="511" x2="1645.65" y2="800.12"/><path class="cls-11" d="M1645.65,1004.86l-100.1-69.23a43.55,43.55,0,0,1,4.94-69.93l1.54-.92,93.63-64.66"/><g class="cls-3"><path class="cls-9" d="M1645.65,920.49l-100.1-69.23a43.55,43.55,0,0,1,4.94-69.93l1.54-.92,93.63-64.67"/></g><line class="cls-10" x1="1645.65" y1="1004.86" x2="1645.65" y2="715.74"/><g class="cls-3"><path class="cls-13" d="M1819.76,1209.6l-100.1-69.23a43.55,43.55,0,0,1,4.94-69.93l1.54-.92,93.63-64.67"/></g><line class="cls-14" x1="1819.75" y1="1293.98" x2="1819.75" y2="1004.86"/><g class="cls-3"><path class="cls-13" d="M1819.76,800.12l100.1,69.23a43.55,43.55,0,0,1-4.94,69.93l-1.54.92-93.63,64.66"/></g><g class="cls-3"><path class="cls-12" d="M1819.76,884.49l100.1,69.23a43.55,43.55,0,0,1-4.94,69.93l-1.54.92-93.63,64.67"/></g><line class="cls-14" x1="1819.75" y1="800.12" x2="1819.75" y2="1089.23"/><path class="cls-15" d="M1819.76,306.26,1719.65,237a43.55,43.55,0,0,1,4.94-69.93l1.54-.92,93.63-64.66"/><g class="cls-3"><path class="cls-13" d="M1819.76,221.88l-100.1-69.23a43.55,43.55,0,0,1,4.94-69.93l1.54-.92,93.63-64.67"/></g><line class="cls-14" x1="1819.75" y1="306.26" x2="1819.75" y2="17.14"/><g class="cls-3"><path class="cls-13" d="M1819.76-187.6l100.1,69.23a43.45,43.45,0,0,1,15.3,33.14,43.51,43.51,0,0,1-20.24,36.79l-1.54.92-93.63,64.67"/></g><path class="cls-15" d="M1819.76-103.23,1919.86-34a43.45,43.45,0,0,1,15.3,33.14,43.51,43.51,0,0,1-20.24,36.79l-1.54.92-93.63,64.67"/><line class="cls-14" x1="1819.75" y1="-187.6" x2="1819.75" y2="101.51"/><g class="cls-3"><path class="cls-13" d="M1819.76,800.12l-100.1-69.23a43.55,43.55,0,0,1,4.94-69.93l1.54-.92,93.63-64.66"/></g><path class="cls-15" d="M1819.76,715.74l-100.1-69.23a43.55,43.55,0,0,1,4.94-69.93l1.54-.92L1819.76,511"/><line class="cls-14" x1="1819.75" y1="800.12" x2="1819.75" y2="511"/><path class="cls-15" d="M1819.76,306.26l100.1,69.23a43.55,43.55,0,0,1-4.94,69.93l-1.54.92L1819.76,511"/><g class="cls-3"><path class="cls-13" d="M1819.76,390.63l100.1,69.23a43.55,43.55,0,0,1-4.94,69.93l-1.54.92-93.63,64.67"/></g><line class="cls-14" x1="1819.75" y1="306.26" x2="1819.75" y2="595.37"/><g class="cls-3"><path class="cls-8" d="M947.4-151.61l100.1,69.23a43.45,43.45,0,0,1,15.3,33.14,43.51,43.51,0,0,1-20.24,36.79l-1.54.92L947.4,53.14"/></g><g class="cls-3"><path class="cls-9" d="M947.4-67.23,1047.51,2a43.55,43.55,0,0,1-4.94,69.93l-1.54.92L947.4,137.51"/></g><line class="cls-10" x1="947.4" y1="-151.61" x2="947.4" y2="137.51"/><g class="cls-3"><path class="cls-9" d="M947.4,342.25,847.3,273a43.55,43.55,0,0,1,4.94-69.93l1.54-.92,93.63-64.66"/></g><g class="cls-3"><path class="cls-8" d="M947.4,257.88,847.3,188.65a43.55,43.55,0,0,1,4.94-69.93l1.54-.92L947.4,53.14"/></g><line class="cls-10" x1="947.4" y1="342.25" x2="947.4" y2="53.14"/><path class="cls-11" d="M947.4,836.11l100.1,69.23a43.55,43.55,0,0,1-4.94,69.93l-1.54.92-93.63,64.66"/><g class="cls-3"><path class="cls-9" d="M947.4,920.49l100.1,69.23a43.55,43.55,0,0,1-4.94,69.93l-1.54.92-93.63,64.67"/></g><line class="cls-10" x1="947.4" y1="836.11" x2="947.4" y2="1125.23"/><path class="cls-11" d="M947.4,1245.6l-100.1-69.23a43.55,43.55,0,0,1,4.94-69.93l1.54-.92,93.63-64.67"/><line class="cls-10" x1="947.4" y1="1329.97" x2="947.4" y2="1040.86"/><g class="cls-3"><path class="cls-9" d="M947.4,342.25l100.1,69.23a43.55,43.55,0,0,1-4.94,69.93l-1.54.92L947.4,547"/></g><path class="cls-11" d="M947.4,426.63l100.1,69.23a43.55,43.55,0,0,1-4.94,69.93l-1.54.92L947.4,631.37"/><line class="cls-10" x1="947.4" y1="342.25" x2="947.4" y2="631.37"/><path class="cls-11" d="M947.4,836.11,847.3,766.88A43.55,43.55,0,0,1,852.24,697l1.54-.92,93.63-64.66"/><g class="cls-3"><path class="cls-9" d="M947.4,751.74,847.3,682.51a43.55,43.55,0,0,1,4.94-69.93l1.54-.92L947.4,547"/></g><line class="cls-10" x1="947.4" y1="836.11" x2="947.4" y2="547"/><g class="cls-3"><path class="cls-12" d="M1121.5,1125.23,1021.4,1056a43.55,43.55,0,0,1,4.94-69.93l1.54-.92,93.63-64.66"/></g><g class="cls-3"><path class="cls-13" d="M1121.5,1040.86l-100.1-69.23a43.55,43.55,0,0,1,4.94-69.93l1.54-.92,93.63-64.67"/></g><line class="cls-14" x1="1121.5" y1="1125.23" x2="1121.5" y2="836.11"/><g class="cls-3"><path class="cls-13" d="M1121.5,631.37l100.1,69.23a43.55,43.55,0,0,1-4.94,69.93l-1.54.92-93.63,64.66"/></g><g class="cls-3"><path class="cls-12" d="M1121.5,715.74,1221.61,785a43.55,43.55,0,0,1-4.94,69.93l-1.54.92-93.63,64.67"/></g><line class="cls-14" x1="1121.5" y1="631.37" x2="1121.5" y2="920.49"/><path class="cls-15" d="M1121.5,137.51,1021.4,68.28a43.55,43.55,0,0,1,4.94-69.93l1.54-.92,93.63-64.66"/><g class="cls-3"><path class="cls-13" d="M1121.5,53.14,1021.4-16.09a43.45,43.45,0,0,1-15.3-33.14A43.51,43.51,0,0,1,1026.34-86l1.54-.92,93.63-64.67"/></g><line class="cls-14" x1="1121.5" y1="137.51" x2="1121.5" y2="-151.61"/><g class="cls-3"><path class="cls-13" d="M1121.5,631.37l-100.1-69.23a43.55,43.55,0,0,1,4.94-69.93l1.54-.92,93.63-64.66"/></g><path class="cls-15" d="M1121.5,547l-100.1-69.23a43.55,43.55,0,0,1,4.94-69.93l1.54-.92,93.63-64.67"/><line class="cls-14" x1="1121.5" y1="631.37" x2="1121.5" y2="342.25"/><path class="cls-15" d="M1121.5,137.51l100.1,69.23a43.55,43.55,0,0,1-4.94,69.93l-1.54.92-93.63,64.67"/><g class="cls-3"><path class="cls-13" d="M1121.5,221.88l100.1,69.23a43.55,43.55,0,0,1-4.94,69.93l-1.54.92-93.63,64.67"/></g><line class="cls-14" x1="1121.5" y1="137.51" x2="1121.5" y2="426.63"/></g></g></svg>