<?xml version="1.0" encoding="UTF-8"?> <svg xmlns="http://www.w3.org/2000/svg" xmlns:xlink="http://www.w3.org/1999/xlink" width="912px" height="430px" viewBox="0 0 912 430"> <!-- Generator: Sketch 63.1 (92452) - https://sketch.com --> <title>subheader-export-3</title> <desc>Created with Sketch.</desc> <defs> <rect id="path-1" x="1.13686838e-13" y="0" width="912" height="430" rx="1"></rect> </defs> <g id="Page-1" stroke="none" stroke-width="1" fill="none" fill-rule="evenodd"> <g id="subheader-export-3"> <mask id="mask-2" fill="white"> <use xlink:href="#path-1"></use> </mask> <use id="Rectangle-Copy-16" fill="#6C7BDF" transform="translate(456.000000, 215.000000) scale(-1, 1) translate(-456.000000, -215.000000) " xlink:href="#path-1"></use> <line x1="66.5462126" y1="13.3031674" x2="-92.5309243" y2="170.40724" id="Stroke-21-Copy-6" stroke="#FFCE6E" stroke-width="9" mask="url(#mask-2)"></line> <line x1="860.030577" y1="62.7149321" x2="700.95344" y2="219.819005" id="Stroke-21-Copy-7" stroke="#FFFFFF" stroke-width="2" stroke-linecap="round" mask="url(#mask-2)"></line> <line x1="438.57123" y1="-157.104072" x2="228.792217" y2="53.2126697" id="Stroke-21-Copy-8" stroke="#66CC66" stroke-width="11" mask="url(#mask-2)"></line> <line x1="819.469076" y1="75.3846154" x2="609.690063" y2="285.701357" id="Stroke-21-Copy-24" stroke="#66CC66" stroke-width="11" mask="url(#mask-2)"></line> <line x1="221.779013" y1="310" x2="12" y2="520.316742" id="Stroke-21-Copy-37" stroke="#66CC66" stroke-width="11" mask="url(#mask-2)"></line> <path d="M578.83639,73.1256593 C553.176982,43.9103575 542.933679,3.79702703 548.128577,-34.0474605 C551.553603,-58.9985426 561.689366,-82.9633953 578.5422,-102.168532" id="Stroke-1-Copy-5" stroke="#222437" stroke-width="6" mask="url(#mask-2)" transform="translate(562.826907, -14.521436) scale(-1, 1) rotate(-45.000000) translate(-562.826907, 14.521436) "></path> <line x1="468.992356" y1="96.2895928" x2="332.731063" y2="232.488688" id="Stroke-21-Copy-7" stroke="#FFFFFF" stroke-width="5" stroke-linecap="round" mask="url(#mask-2)"></line> <path d="M512.562879,56.5398631 C513.415388,69.3216674 510.85786,78.6949907 504.890294,84.659833 C498.922728,90.6246748 489.545124,93.1810355 476.757483,92.3289152 C475.904973,79.5471109 478.462501,70.1737876 484.430067,64.2089453 C490.397633,58.2441035 499.775237,55.6877428 512.562879,56.5398631 Z" id="Stroke-21-Copy-17" fill="#222437" fill-rule="nonzero" mask="url(#mask-2)"></path> <line x1="444.491883" y1="70.521889" x2="595.548117" y2="-80.7695111" id="Stroke-21-Copy-8" stroke="#66CC66" stroke-width="30" mask="url(#mask-2)"></line> <line x1="399.277276" y1="22.8054299" x2="433.73645" y2="83.8741599" id="Stroke-21-Copy-6" stroke="#6C7BDF" stroke-width="6" mask="url(#mask-2)"></line> <path d="M244.090586,90.2257812 C260.68052,73.9802387 287.377008,73.8177833 304.169073,89.738415 L304.674871,90.2257812 L287.820954,107.421278 C280.500966,100.253245 268.579733,100.181565 261.16772,107.206237 L260.944503,107.421278 L244.090586,90.2257812 Z" id="Stroke-1" fill="#FFFFFF" fill-rule="nonzero" mask="url(#mask-2)"></path> <polygon id="Stroke-19" fill="#FFFFFF" fill-rule="nonzero" mask="url(#mask-2)" points="244.00278 90.3126514 261.032309 107.334407 198.92251 169.415855 181.892981 152.394099"></polygon> <polygon id="Stroke-27" fill="#FFFFFF" fill-rule="nonzero" mask="url(#mask-2)" points="978.546213 -120.995475 995.575742 -103.973719 868.821051 22.7231135 851.791522 5.70135747"></polygon> <polygon id="Stroke-27-Copy" fill="#FFFFFF" fill-rule="nonzero" mask="url(#mask-2)" points="493.754691 322 510.78422 339.021756 384.029529 465.718589 367 448.696833"></polygon> <path d="M272.428571,95.6561086 L255.052638,78.2981648 L303.627337,29.7737557 C313.223824,39.3603074 313.223824,54.9030915 303.627337,64.4896433 L272.428571,95.6561086 Z" id="Fill-45" fill="#E5C859" mask="url(#mask-2)"></path> <path d="M234.508113,116.561086 C222.184344,104.242942 222.184344,84.2716841 234.508113,71.9535401 C246.831882,59.6353961 266.81226,59.6353961 279.136029,71.9535401" id="Fill-47" fill="#66CC66" mask="url(#mask-2)"></path> <path d="M39.96,101.168 C46.136,101.168 50.84,96.304 50.84,89.968 C50.84,83.632 46.136,78.768 39.96,78.768 L31,78.768 L31,101.168 L39.96,101.168 Z M39.96,96.24 L36.12,96.24 L36.12,83.696 L39.96,83.696 C43.48,83.696 45.912,86.128 45.912,89.968 C45.912,93.808 43.48,96.24 39.96,96.24 Z M56.36,83.76 C57.928,83.76 59.24,82.448 59.24,80.88 C59.24,79.312 57.928,78 56.36,78 C54.792,78 53.48,79.312 53.48,80.88 C53.48,82.448 54.792,83.76 56.36,83.76 Z M58.76,101.168 L58.76,85.168 L53.96,85.168 L53.96,101.168 L58.76,101.168 Z M68.28,101.616 C71.736,101.616 74.936,100.048 74.936,96.368 C74.936,90.448 67.064,91.664 67.064,89.84 C67.064,89.264 67.576,88.944 68.408,88.944 C69.464,88.944 70.104,89.52 70.552,90.352 L74.648,88.144 C73.304,85.872 71,84.72 68.408,84.72 C65.08,84.72 62.136,86.48 62.136,89.968 C62.136,95.504 70.008,94.576 70.008,96.336 C70.008,96.976 69.432,97.328 68.28,97.328 C66.872,97.328 65.976,96.656 65.56,95.44 L61.4,97.808 C62.648,100.4 65.08,101.616 68.28,101.616 Z M85.256,101.616 C88.392,101.616 91.112,99.984 92.488,97.488 L88.296,95.088 C87.784,96.208 86.6,96.88 85.192,96.88 C83.112,96.88 81.576,95.376 81.576,93.168 C81.576,90.96 83.112,89.456 85.192,89.456 C86.6,89.456 87.752,90.128 88.296,91.248 L92.488,88.816 C91.112,86.352 88.36,84.72 85.256,84.72 C80.392,84.72 76.776,88.4 76.776,93.168 C76.776,97.936 80.392,101.616 85.256,101.616 Z M102.168,101.616 C106.872,101.616 110.648,97.936 110.648,93.168 C110.648,88.4 106.872,84.72 102.168,84.72 C97.464,84.72 93.688,88.4 93.688,93.168 C93.688,97.936 97.464,101.616 102.168,101.616 Z M102.168,96.944 C100.088,96.944 98.488,95.44 98.488,93.168 C98.488,90.896 100.088,89.392 102.168,89.392 C104.248,89.392 105.848,90.896 105.848,93.168 C105.848,95.44 104.248,96.944 102.168,96.944 Z M119.528,101.616 C121.64,101.616 123.24,100.848 124.104,99.664 L124.104,101.168 L128.904,101.168 L128.904,85.168 L124.104,85.168 L124.104,93.904 C124.104,96.176 122.888,97.2 121.128,97.2 C119.592,97.2 118.344,96.272 118.344,94.288 L118.344,85.168 L113.544,85.168 L113.544,94.992 C113.544,99.312 116.296,101.616 119.528,101.616 Z M137.624,101.168 L137.624,92.432 C137.624,90.16 138.84,89.136 140.6,89.136 C142.136,89.136 143.384,90.064 143.384,92.048 L143.384,101.168 L148.184,101.168 L148.184,91.344 C148.184,87.024 145.432,84.72 142.2,84.72 C140.088,84.72 138.488,85.488 137.624,86.672 L137.624,85.168 L132.824,85.168 L132.824,101.168 L137.624,101.168 Z M161.256,101.168 L161.256,96.816 C159.144,96.944 157.96,96.816 157.96,95.44 L157.96,89.776 L161.256,89.776 L161.256,85.168 L157.96,85.168 L157.96,80.688 L153.16,82.128 L153.16,85.168 L150.6,85.168 L150.6,89.776 L153.16,89.776 L153.16,95.44 C153.16,99.92 154.984,101.808 161.256,101.168 Z" id="Discount" fill="#FFFFFF" fill-rule="nonzero" mask="url(#mask-2)" transform="translate(96.128000, 89.808000) rotate(-45.000000) translate(-96.128000, -89.808000) "></path> <path d="M514.72,281.376 C519.352,281.376 522.88,277.728 522.88,272.976 C522.88,268.224 519.352,264.576 514.72,264.576 L508,264.576 L508,281.376 L514.72,281.376 Z M514.72,277.68 L511.84,277.68 L511.84,268.272 L514.72,268.272 C517.36,268.272 519.184,270.096 519.184,272.976 C519.184,275.856 517.36,277.68 514.72,277.68 Z M527.02,268.32 C528.196,268.32 529.18,267.336 529.18,266.16 C529.18,264.984 528.196,264 527.02,264 C525.844,264 524.86,264.984 524.86,266.16 C524.86,267.336 525.844,268.32 527.02,268.32 Z M528.82,281.376 L528.82,269.376 L525.22,269.376 L525.22,281.376 L528.82,281.376 Z M535.96,281.712 C538.552,281.712 540.952,280.536 540.952,277.776 C540.952,273.336 535.048,274.248 535.048,272.88 C535.048,272.448 535.432,272.208 536.056,272.208 C536.848,272.208 537.328,272.64 537.664,273.264 L540.736,271.608 C539.728,269.904 538,269.04 536.056,269.04 C533.56,269.04 531.352,270.36 531.352,272.976 C531.352,277.128 537.256,276.432 537.256,277.752 C537.256,278.232 536.824,278.496 535.96,278.496 C534.904,278.496 534.232,277.992 533.92,277.08 L530.8,278.856 C531.736,280.8 533.56,281.712 535.96,281.712 Z M548.692,281.712 C551.044,281.712 553.084,280.488 554.116,278.616 L550.972,276.816 C550.588,277.656 549.7,278.16 548.644,278.16 C547.084,278.16 545.932,277.032 545.932,275.376 C545.932,273.72 547.084,272.592 548.644,272.592 C549.7,272.592 550.564,273.096 550.972,273.936 L554.116,272.112 C553.084,270.264 551.02,269.04 548.692,269.04 C545.044,269.04 542.332,271.8 542.332,275.376 C542.332,278.952 545.044,281.712 548.692,281.712 Z M561.376,281.712 C564.904,281.712 567.736,278.952 567.736,275.376 C567.736,271.8 564.904,269.04 561.376,269.04 C557.848,269.04 555.016,271.8 555.016,275.376 C555.016,278.952 557.848,281.712 561.376,281.712 Z M561.376,278.208 C559.816,278.208 558.616,277.08 558.616,275.376 C558.616,273.672 559.816,272.544 561.376,272.544 C562.936,272.544 564.136,273.672 564.136,275.376 C564.136,277.08 562.936,278.208 561.376,278.208 Z M574.396,281.712 C575.98,281.712 577.18,281.136 577.828,280.248 L577.828,281.376 L581.428,281.376 L581.428,269.376 L577.828,269.376 L577.828,275.928 C577.828,277.632 576.916,278.4 575.596,278.4 C574.444,278.4 573.508,277.704 573.508,276.216 L573.508,269.376 L569.908,269.376 L569.908,276.744 C569.908,279.984 571.972,281.712 574.396,281.712 Z M587.968,281.376 L587.968,274.824 C587.968,273.12 588.88,272.352 590.2,272.352 C591.352,272.352 592.288,273.048 592.288,274.536 L592.288,281.376 L595.888,281.376 L595.888,274.008 C595.888,270.768 593.824,269.04 591.4,269.04 C589.816,269.04 588.616,269.616 587.968,270.504 L587.968,269.376 L584.368,269.376 L584.368,281.376 L587.968,281.376 Z M605.692,281.376 L605.692,278.112 C604.108,278.208 603.22,278.112 603.22,277.08 L603.22,272.832 L605.692,272.832 L605.692,269.376 L603.22,269.376 L603.22,266.016 L599.62,267.096 L599.62,269.376 L597.7,269.376 L597.7,272.832 L599.62,272.832 L599.62,277.08 C599.62,280.44 600.988,281.856 605.692,281.376 Z" id="Discount" fill="#222437" fill-rule="nonzero" mask="url(#mask-2)" transform="translate(556.846000, 272.856000) rotate(-45.000000) translate(-556.846000, -272.856000) "></path> <path d="M795.72,116.376 C800.352,116.376 803.88,112.728 803.88,107.976 C803.88,103.224 800.352,99.576 795.72,99.576 L789,99.576 L789,116.376 L795.72,116.376 Z M795.72,112.68 L792.84,112.68 L792.84,103.272 L795.72,103.272 C798.36,103.272 800.184,105.096 800.184,107.976 C800.184,110.856 798.36,112.68 795.72,112.68 Z M808.02,103.32 C809.196,103.32 810.18,102.336 810.18,101.16 C810.18,99.984 809.196,99 808.02,99 C806.844,99 805.86,99.984 805.86,101.16 C805.86,102.336 806.844,103.32 808.02,103.32 Z M809.82,116.376 L809.82,104.376 L806.22,104.376 L806.22,116.376 L809.82,116.376 Z M816.96,116.712 C819.552,116.712 821.952,115.536 821.952,112.776 C821.952,108.336 816.048,109.248 816.048,107.88 C816.048,107.448 816.432,107.208 817.056,107.208 C817.848,107.208 818.328,107.64 818.664,108.264 L821.736,106.608 C820.728,104.904 819,104.04 817.056,104.04 C814.56,104.04 812.352,105.36 812.352,107.976 C812.352,112.128 818.256,111.432 818.256,112.752 C818.256,113.232 817.824,113.496 816.96,113.496 C815.904,113.496 815.232,112.992 814.92,112.08 L811.8,113.856 C812.736,115.8 814.56,116.712 816.96,116.712 Z M829.692,116.712 C832.044,116.712 834.084,115.488 835.116,113.616 L831.972,111.816 C831.588,112.656 830.7,113.16 829.644,113.16 C828.084,113.16 826.932,112.032 826.932,110.376 C826.932,108.72 828.084,107.592 829.644,107.592 C830.7,107.592 831.564,108.096 831.972,108.936 L835.116,107.112 C834.084,105.264 832.02,104.04 829.692,104.04 C826.044,104.04 823.332,106.8 823.332,110.376 C823.332,113.952 826.044,116.712 829.692,116.712 Z M842.376,116.712 C845.904,116.712 848.736,113.952 848.736,110.376 C848.736,106.8 845.904,104.04 842.376,104.04 C838.848,104.04 836.016,106.8 836.016,110.376 C836.016,113.952 838.848,116.712 842.376,116.712 Z M842.376,113.208 C840.816,113.208 839.616,112.08 839.616,110.376 C839.616,108.672 840.816,107.544 842.376,107.544 C843.936,107.544 845.136,108.672 845.136,110.376 C845.136,112.08 843.936,113.208 842.376,113.208 Z M855.396,116.712 C856.98,116.712 858.18,116.136 858.828,115.248 L858.828,116.376 L862.428,116.376 L862.428,104.376 L858.828,104.376 L858.828,110.928 C858.828,112.632 857.916,113.4 856.596,113.4 C855.444,113.4 854.508,112.704 854.508,111.216 L854.508,104.376 L850.908,104.376 L850.908,111.744 C850.908,114.984 852.972,116.712 855.396,116.712 Z M868.968,116.376 L868.968,109.824 C868.968,108.12 869.88,107.352 871.2,107.352 C872.352,107.352 873.288,108.048 873.288,109.536 L873.288,116.376 L876.888,116.376 L876.888,109.008 C876.888,105.768 874.824,104.04 872.4,104.04 C870.816,104.04 869.616,104.616 868.968,105.504 L868.968,104.376 L865.368,104.376 L865.368,116.376 L868.968,116.376 Z M886.692,116.376 L886.692,113.112 C885.108,113.208 884.22,113.112 884.22,112.08 L884.22,107.832 L886.692,107.832 L886.692,104.376 L884.22,104.376 L884.22,101.016 L880.62,102.096 L880.62,104.376 L878.7,104.376 L878.7,107.832 L880.62,107.832 L880.62,112.08 C880.62,115.44 881.988,116.856 886.692,116.376 Z" id="Discount-Copy" fill="#222437" fill-rule="nonzero" mask="url(#mask-2)" transform="translate(837.846000, 107.856000) rotate(-45.000000) translate(-837.846000, -107.856000) "></path> <path d="M542.72,64.376 C547.352,64.376 550.88,60.728 550.88,55.976 C550.88,51.224 547.352,47.576 542.72,47.576 L536,47.576 L536,64.376 L542.72,64.376 Z M542.72,60.68 L539.84,60.68 L539.84,51.272 L542.72,51.272 C545.36,51.272 547.184,53.096 547.184,55.976 C547.184,58.856 545.36,60.68 542.72,60.68 Z M555.02,51.32 C556.196,51.32 557.18,50.336 557.18,49.16 C557.18,47.984 556.196,47 555.02,47 C553.844,47 552.86,47.984 552.86,49.16 C552.86,50.336 553.844,51.32 555.02,51.32 Z M556.82,64.376 L556.82,52.376 L553.22,52.376 L553.22,64.376 L556.82,64.376 Z M563.96,64.712 C566.552,64.712 568.952,63.536 568.952,60.776 C568.952,56.336 563.048,57.248 563.048,55.88 C563.048,55.448 563.432,55.208 564.056,55.208 C564.848,55.208 565.328,55.64 565.664,56.264 L568.736,54.608 C567.728,52.904 566,52.04 564.056,52.04 C561.56,52.04 559.352,53.36 559.352,55.976 C559.352,60.128 565.256,59.432 565.256,60.752 C565.256,61.232 564.824,61.496 563.96,61.496 C562.904,61.496 562.232,60.992 561.92,60.08 L558.8,61.856 C559.736,63.8 561.56,64.712 563.96,64.712 Z M576.692,64.712 C579.044,64.712 581.084,63.488 582.116,61.616 L578.972,59.816 C578.588,60.656 577.7,61.16 576.644,61.16 C575.084,61.16 573.932,60.032 573.932,58.376 C573.932,56.72 575.084,55.592 576.644,55.592 C577.7,55.592 578.564,56.096 578.972,56.936 L582.116,55.112 C581.084,53.264 579.02,52.04 576.692,52.04 C573.044,52.04 570.332,54.8 570.332,58.376 C570.332,61.952 573.044,64.712 576.692,64.712 Z M589.376,64.712 C592.904,64.712 595.736,61.952 595.736,58.376 C595.736,54.8 592.904,52.04 589.376,52.04 C585.848,52.04 583.016,54.8 583.016,58.376 C583.016,61.952 585.848,64.712 589.376,64.712 Z M589.376,61.208 C587.816,61.208 586.616,60.08 586.616,58.376 C586.616,56.672 587.816,55.544 589.376,55.544 C590.936,55.544 592.136,56.672 592.136,58.376 C592.136,60.08 590.936,61.208 589.376,61.208 Z M602.396,64.712 C603.98,64.712 605.18,64.136 605.828,63.248 L605.828,64.376 L609.428,64.376 L609.428,52.376 L605.828,52.376 L605.828,58.928 C605.828,60.632 604.916,61.4 603.596,61.4 C602.444,61.4 601.508,60.704 601.508,59.216 L601.508,52.376 L597.908,52.376 L597.908,59.744 C597.908,62.984 599.972,64.712 602.396,64.712 Z M615.968,64.376 L615.968,57.824 C615.968,56.12 616.88,55.352 618.2,55.352 C619.352,55.352 620.288,56.048 620.288,57.536 L620.288,64.376 L623.888,64.376 L623.888,57.008 C623.888,53.768 621.824,52.04 619.4,52.04 C617.816,52.04 616.616,52.616 615.968,53.504 L615.968,52.376 L612.368,52.376 L612.368,64.376 L615.968,64.376 Z M633.692,64.376 L633.692,61.112 C632.108,61.208 631.22,61.112 631.22,60.08 L631.22,55.832 L633.692,55.832 L633.692,52.376 L631.22,52.376 L631.22,49.016 L627.62,50.096 L627.62,52.376 L625.7,52.376 L625.7,55.832 L627.62,55.832 L627.62,60.08 C627.62,63.44 628.988,64.856 633.692,64.376 Z" id="Discount" fill="#FFFFFF" fill-rule="nonzero" mask="url(#mask-2)" transform="translate(584.846000, 55.856000) rotate(-45.000000) translate(-584.846000, -55.856000) "></path> <circle id="Oval" fill="#FFFFFF" mask="url(#mask-2)" cx="777.5" cy="74.5" r="7.5"></circle> <circle id="Oval-Copy" fill="#FFFFFF" mask="url(#mask-2)" cx="663.5" cy="280.5" r="7.5"></circle> <circle id="Oval-Copy-2" stroke="#FFFFFF" stroke-width="4" mask="url(#mask-2)" cx="410" cy="104" r="14"></circle> <circle id="Oval-Copy-3" stroke="#FFFFFF" stroke-width="4" mask="url(#mask-2)" cx="392" cy="221" r="8"></circle> </g> </g> </svg> 