<?xml version="1.0" encoding="UTF-8"?> <svg xmlns="http://www.w3.org/2000/svg" width="280" height="8" viewBox="0 0 280 8" fill="none"> <mask id="mask0" maskUnits="userSpaceOnUse" x="0" y="0" width="280" height="8"> <rect width="280" height="8" rx="4" fill="#C4C4C4"></rect> </mask> <g mask="url(#mask0)"> <rect width="287" height="107" rx="8" transform="matrix(-1 0 0 1 283 -2)" fill="url(#paint0_linear)"></rect> <mask id="mask1" maskUnits="userSpaceOnUse" x="-4" y="-2" width="287" height="107"> <rect width="287" height="107" rx="8" transform="matrix(-1 0 0 1 283 -2)" fill="white"></rect> </mask> <g mask="url(#mask1)"> <path d="M230 -24L180 53.4453" stroke="#66CC66" stroke-width="2"></path> <path d="M74.1905 -18V80.906" stroke="#66CC66" stroke-width="20"></path> <path d="M258.5 -66.2861V28.8876" stroke="white" stroke-width="20"></path> <path d="M201.381 -11.2344V86.672" stroke="#FF7965" stroke-width="5" stroke-linecap="round"></path> <path d="M230.381 13V26.9961" stroke="#66CC66" stroke-width="20" stroke-linecap="round"></path> <path d="M120.97 8.33502L42 96.5221" stroke="#222437" stroke-width="41"></path> <path d="M141.017 5.45698C141.017 5.45698 115.521 33.9028 64.5297 90.7943" stroke="#FF7965" stroke-width="25"></path> <path d="M156.371 3.40913C156.371 3.40913 130.875 31.8549 79.8834 88.7465" stroke="#F6F6F6" stroke-width="18"></path> <rect x="11.1717" y="-11" width="46.4286" height="9.52381" rx="1" transform="rotate(25.978 11.1717 -11)" fill="#66CC66"></rect> </g> </g> <defs> <linearGradient id="paint0_linear" x1="493.389" y1="105.362" x2="434.568" y2="-146.371" gradientUnits="userSpaceOnUse"> <stop stop-color="#66CC66"></stop> <stop offset="1" stop-color="#66CC66"></stop> </linearGradient> </defs> </svg> 