<?xml version="1.0" encoding="UTF-8"?> <svg xmlns="http://www.w3.org/2000/svg" width="482" height="252" viewBox="0 0 482 252" fill="none"> <g id="Group 23"> <g id="pro-7"> <rect id="Rectangle Copy 16" width="482" height="252" rx="8" transform="matrix(-1 0 0 1 482 0)" fill="url(#paint0_linear)"></rect> <path id="Stroke 21 Copy 18" d="M302.503 87L241.997 140.281" stroke="white" stroke-width="6"></path> <mask id="mask0" maskUnits="userSpaceOnUse" x="0" y="0" width="482" height="252"> <rect id="Rectangle Copy 16_2" width="482" height="252" rx="8" transform="matrix(-1 0 0 1 482 0)" fill="white"></rect> </mask> <g mask="url(#mask0)"> <path id="Stroke 21 Copy 6" d="M39.492 100.648L-48.9313 178.919" stroke="#FFCE6E" stroke-width="9"></path> <path id="Stroke 21 Copy 15" d="M363.586 183.226L148 374.059" stroke="#FFCE6E" stroke-width="9"></path> <path id="Stroke 1 Copy 5" d="M-18.0001 202.514C2.50729 201.185 21.3262 190.02 33.5277 173.934C41.5723 163.328 46.7404 150.583 47.6195 137.106" stroke="#222437" stroke-width="6"></path> <path id="Stroke 1 Copy 6" d="M236.379 92.0001C247.784 109.096 266.862 119.811 286.894 122.335C300.101 123.999 313.723 122.102 325.834 116.125" stroke="#222437" stroke-width="6"></path> <path id="Stroke 1 Copy 7" d="M451.209 56.1891C419.196 8.20208 365.644 -21.8768 309.414 -28.9609C272.341 -33.6315 234.104 -28.3067 200.109 -11.5288" stroke="#56A4FF" stroke-width="6"></path> <path id="Stroke 21 Copy 6_2" d="M70.9391 90L29.9902 126.06" stroke="#6C7BDF" stroke-width="6"></path> <path id="Stroke 21 Copy 16" d="M111.633 12L11.7953 99.9177" stroke="#56A4FF" stroke-width="6"></path> <path id="Stroke 21 Copy 17" d="M295.503 79L234.997 132.281" stroke="#6C7BDF" stroke-width="6"></path> <path id="Stroke 21 Copy 6_3" d="M45.8122 61.7408L-69 165.675" stroke="white" stroke-width="4"></path> <path id="Stroke 21 Copy 7" d="M430.925 146.006L151 399.409" stroke="white" stroke-width="10"></path> </g> </g> <path id="Title" d="M51.168 191.8H32.34V217H37.308V196.552H46.2V217H51.168V191.8ZM71.0875 199H56.8315V209.224C56.8315 212.032 55.7875 213.112 53.8795 212.644V217C58.7395 217.54 61.4755 215.164 61.4755 209.476V203.464H66.4435V217H71.0875V199ZM88.9759 199V201.124C87.6799 199.504 85.7359 198.496 83.1079 198.496C78.3199 198.496 74.3599 202.636 74.3599 208C74.3599 213.364 78.3199 217.504 83.1079 217.504C85.7359 217.504 87.6799 216.496 88.9759 214.876V217H93.6199V199H88.9759ZM83.9719 213.076C81.1279 213.076 79.0039 211.024 79.0039 208C79.0039 204.976 81.1279 202.924 83.9719 202.924C86.8519 202.924 88.9759 204.976 88.9759 208C88.9759 211.024 86.8519 213.076 83.9719 213.076ZM112.015 199H96.067V203.464H101.755V217H106.399V203.464H112.015V199ZM126.303 199V205.804H119.139V199H114.495V217H119.139V210.16H126.303V217H130.947V199H126.303ZM143.338 204.76H139.846V199H135.202V217H143.338C147.442 217 150.142 214.552 150.142 210.88C150.142 207.208 147.442 204.76 143.338 204.76ZM152.122 199V217H156.766V199H152.122ZM143.374 212.896H139.846V208.828H143.374C144.67 208.828 145.606 209.656 145.606 210.88C145.606 212.104 144.67 212.896 143.374 212.896ZM164.931 209.908H178.503C178.611 209.296 178.683 208.684 178.683 208C178.683 202.708 174.903 198.496 169.575 198.496C163.923 198.496 160.071 202.636 160.071 208C160.071 213.364 163.887 217.504 169.935 217.504C173.391 217.504 176.091 216.1 177.783 213.652L174.039 211.492C173.247 212.536 171.807 213.292 170.007 213.292C167.559 213.292 165.579 212.284 164.931 209.908ZM164.859 206.308C165.399 204.004 167.091 202.672 169.575 202.672C171.519 202.672 173.463 203.716 174.039 206.308H164.859ZM207.521 217L200.069 207.892L207.305 199H201.761L195.569 206.92V199H190.925V217H195.569V208.828L202.121 217H207.521ZM221.399 199L217.403 211.096L212.579 199H207.647L214.919 216.784C214.055 219.052 212.759 219.916 210.311 219.88V224.2C214.631 224.452 217.943 222.184 219.815 217L226.367 199H221.399ZM239.053 198.496C236.425 198.496 234.517 199.468 233.221 201.124V199H228.577V224.2H233.221V214.876C234.517 216.532 236.425 217.504 239.053 217.504C243.877 217.504 247.837 213.364 247.837 208C247.837 202.636 243.877 198.496 239.053 198.496ZM238.189 213.076C235.345 213.076 233.221 211.024 233.221 208C233.221 204.976 235.345 202.924 238.189 202.924C241.069 202.924 243.193 204.976 243.193 208C243.193 211.024 241.069 213.076 238.189 213.076ZM259.68 217.504C263.208 217.504 266.268 215.632 267.816 212.824L263.784 210.52C263.064 211.996 261.516 212.896 259.644 212.896C256.872 212.896 254.82 210.844 254.82 208C254.82 205.12 256.872 203.068 259.644 203.068C261.48 203.068 263.028 204.004 263.748 205.48L267.744 203.14C266.268 200.368 263.208 198.496 259.68 198.496C254.208 198.496 250.176 202.636 250.176 208C250.176 213.364 254.208 217.504 259.68 217.504ZM278.549 204.76H275.057V199H270.413V217H278.549C282.653 217 285.353 214.552 285.353 210.88C285.353 207.208 282.653 204.76 278.549 204.76ZM287.333 199V217H291.977V199H287.333ZM278.585 212.896H275.057V208.828H278.585C279.881 208.828 280.817 209.656 280.817 210.88C280.817 212.104 279.881 212.896 278.585 212.896Z" fill="white"></path> <path id="Title Copy" d="M40.854 37.624V27.4H32.538V33.358C32.538 35.572 32.088 36.796 31.494 37.624H30.27V42.412H32.754V40H39.72V42.412H42.204V37.624H40.854ZM34.158 37.624C34.626 36.814 35.022 35.554 35.022 33.394V29.722H38.37V37.624H34.158ZM47.6858 40.252C50.3318 40.252 52.4558 38.182 52.4558 35.5C52.4558 32.818 50.3318 30.748 47.6858 30.748C45.0398 30.748 42.9338 32.818 42.9338 35.5C42.9338 38.182 45.0398 40.252 47.6858 40.252ZM47.6858 37.984C46.3178 37.984 45.2558 36.958 45.2558 35.5C45.2558 34.042 46.3178 33.016 47.6858 33.016C49.0718 33.016 50.1338 34.042 50.1338 35.5C50.1338 36.958 49.0718 37.984 47.6858 37.984ZM62.3153 31H54.0893V40H56.4113V33.178H59.9933V40H62.3153V31ZM68.7269 40.252C71.3729 40.252 73.4969 38.182 73.4969 35.5C73.4969 32.818 71.3729 30.748 68.7269 30.748C66.0809 30.748 63.9749 32.818 63.9749 35.5C63.9749 38.182 66.0809 40.252 68.7269 40.252ZM68.7269 37.984C67.3589 37.984 66.2969 36.958 66.2969 35.5C66.2969 34.042 67.3589 33.016 68.7269 33.016C70.1129 33.016 71.1749 34.042 71.1749 35.5C71.1749 36.958 70.1129 37.984 68.7269 37.984ZM82.6238 31H75.4958V36.112C75.4958 37.516 74.9738 38.056 74.0198 37.822V40C76.4498 40.27 77.8178 39.082 77.8178 36.238V33.232H80.3018V40H82.6238V31ZM90.632 31V34.402H87.05V31H84.728V40H87.05V36.58H90.632V40H92.954V31H90.632ZM101.58 31L97.3495 36.112V31H95.0815V40H96.8095L101.04 34.888V40H103.308V31H101.58ZM112.527 31H104.553V33.232H107.397V40H109.719V33.232H112.527V31ZM115.378 36.454H122.164C122.218 36.148 122.254 35.842 122.254 35.5C122.254 32.854 120.364 30.748 117.7 30.748C114.874 30.748 112.948 32.818 112.948 35.5C112.948 38.182 114.856 40.252 117.88 40.252C119.608 40.252 120.958 39.55 121.804 38.326L119.932 37.246C119.536 37.768 118.816 38.146 117.916 38.146C116.692 38.146 115.702 37.642 115.378 36.454ZM115.342 34.654C115.612 33.502 116.458 32.836 117.7 32.836C118.672 32.836 119.644 33.358 119.932 34.654H115.342ZM131.245 31H124.117V36.112C124.117 37.516 123.595 38.056 122.641 37.822V40C125.071 40.27 126.439 39.082 126.439 36.238V33.232H128.923V40H131.245V31ZM137.417 33.88H135.671V31H133.349V40H137.417C139.469 40 140.819 38.776 140.819 36.94C140.819 35.104 139.469 33.88 137.417 33.88ZM137.435 37.948H135.671V35.914H137.435C138.083 35.914 138.551 36.328 138.551 36.94C138.551 37.552 138.083 37.948 137.435 37.948ZM148.183 31V34.402H144.601V31H142.279V40H144.601V36.58H148.183V40H150.505V31H148.183ZM159.472 31V32.062C158.824 31.252 157.852 30.748 156.538 30.748C154.144 30.748 152.164 32.818 152.164 35.5C152.164 38.182 154.144 40.252 156.538 40.252C157.852 40.252 158.824 39.748 159.472 38.938V40H161.794V31H159.472ZM156.97 38.038C155.548 38.038 154.486 37.012 154.486 35.5C154.486 33.988 155.548 32.962 156.97 32.962C158.41 32.962 159.472 33.988 159.472 35.5C159.472 37.012 158.41 38.038 156.97 38.038ZM171.118 31H166.906C164.872 31 163.648 32.494 163.648 34.096C163.648 35.284 164.368 36.436 165.538 36.922L163.288 40H165.97L168.04 37.192H168.85V40H171.118V31ZM167.086 33.07H168.85V35.23H167.086C166.42 35.23 165.916 34.834 165.916 34.168C165.916 33.484 166.42 33.07 167.086 33.07ZM187.094 31H184.808L182.414 34.78L180.02 31H177.734V40H179.966V34.708L182.27 38.344H182.558L184.844 34.744V40H187.094V31ZM193.496 40.252C196.142 40.252 198.266 38.182 198.266 35.5C198.266 32.818 196.142 30.748 193.496 30.748C190.85 30.748 188.744 32.818 188.744 35.5C188.744 38.182 190.85 40.252 193.496 40.252ZM193.496 37.984C192.128 37.984 191.066 36.958 191.066 35.5C191.066 34.042 192.128 33.016 193.496 33.016C194.882 33.016 195.944 34.042 195.944 35.5C195.944 36.958 194.882 37.984 193.496 37.984ZM206.64 31H198.666V33.232H201.51V40H203.832V33.232H206.64V31ZM214.378 31L210.148 36.112V31H207.88V40H209.608L213.838 34.888V40H216.106V31H214.378ZM224.714 35.392C225.29 34.96 225.596 34.33 225.596 33.538C225.596 32.062 224.552 31 222.608 31H218.234V40H222.968C224.948 40 225.974 38.902 225.974 37.444C225.974 36.508 225.524 35.788 224.714 35.392ZM222.392 32.908C223.022 32.908 223.382 33.178 223.382 33.718C223.382 34.276 223.022 34.528 222.392 34.528H220.412V32.908H222.392ZM222.698 38.038H220.412V36.364H222.698C223.31 36.364 223.706 36.652 223.706 37.174C223.706 37.732 223.328 38.038 222.698 38.038ZM234.267 31V32.062C233.619 31.252 232.647 30.748 231.333 30.748C228.939 30.748 226.959 32.818 226.959 35.5C226.959 38.182 228.939 40.252 231.333 40.252C232.647 40.252 233.619 39.748 234.267 38.938V40H236.589V31H234.267ZM231.765 38.038C230.343 38.038 229.281 37.012 229.281 35.5C229.281 33.988 230.343 32.962 231.765 32.962C233.205 32.962 234.267 33.988 234.267 35.5C234.267 37.012 233.205 38.038 231.765 38.038ZM246.615 37.822V31H244.293V37.822H241.017V31H238.695V40H245.859V42.412H248.127V37.822H246.615ZM256.091 31L251.861 36.112V31H249.593V40H251.321L255.551 34.888V40H257.819V31H256.091ZM267.165 31H262.953C260.919 31 259.695 32.494 259.695 34.096C259.695 35.284 260.415 36.436 261.585 36.922L259.335 40H262.017L264.087 37.192H264.897V40H267.165V31ZM263.133 33.07H264.897V35.23H263.133C262.467 35.23 261.963 34.834 261.963 34.168C261.963 33.484 262.467 33.07 263.133 33.07Z" fill="#040823"></path> </g> <defs> <linearGradient id="paint0_linear" x1="572.698" y1="244.38" x2="519.861" y2="-119.109" gradientUnits="userSpaceOnUse"> <stop offset="0.0584822" stop-color="#826DFE"></stop> <stop offset="0.67824" stop-color="#B8DDFF"></stop> <stop offset="1" stop-color="white"></stop> </linearGradient> </defs> </svg> 