<?xml version="1.0" encoding="UTF-8"?> <svg xmlns="http://www.w3.org/2000/svg" width="166" height="36" viewBox="0 0 166 36" fill="none"> <rect x="26" y="36" width="6" height="36" rx="1.8" transform="rotate(-180 26 36)" fill="white"></rect> <rect x="16" y="16" width="6" height="12" rx="1.8" transform="rotate(-180 16 16)" fill="white"></rect> <rect x="6" y="26" width="6" height="16" rx="1.8" transform="rotate(-180 6 26)" fill="white"></rect> <rect x="16" y="32" width="6" height="12" rx="1.8" transform="rotate(-180 16 32)" fill="white"></rect> <path fill-rule="evenodd" clip-rule="evenodd" d="M133.306 6.64453C132.974 6.64453 132.706 6.91316 132.706 7.24453V27.1005C132.706 27.4319 132.974 27.7005 133.306 27.7005H135.4C135.732 27.7005 136 27.4319 136 27.1005V23.6754L138.199 21.4559L142.812 27.4659C142.926 27.6138 143.102 27.7005 143.288 27.7005H145.791C146.018 27.7005 146.227 27.5714 146.328 27.3673C146.429 27.1631 146.406 26.9192 146.268 26.7377L140.489 19.1258L146.029 13.4575C146.198 13.2849 146.247 13.0279 146.153 12.8054C146.06 12.5828 145.842 12.4381 145.6 12.4381H142.989C142.825 12.4381 142.669 12.5049 142.556 12.6229L136 19.4606V7.24453C136 6.91316 135.732 6.64453 135.4 6.64453H133.306ZM156.127 6.64453C155.796 6.64453 155.527 6.91316 155.527 7.24453V27.1005C155.527 27.4319 155.796 27.7005 156.127 27.7005H158.222C158.553 27.7005 158.822 27.4319 158.822 27.1005V7.24453C158.822 6.91316 158.553 6.64453 158.222 6.64453H156.127ZM163.273 6.64453C162.941 6.64453 162.673 6.91316 162.673 7.24453V27.1005C162.673 27.4319 162.941 27.7005 163.273 27.7005H165.367C165.699 27.7005 165.967 27.4319 165.967 27.1005V7.24453C165.967 6.91316 165.699 6.64453 165.367 6.64453H163.273ZM148.846 7.05253C148.515 7.05253 148.246 7.32116 148.246 7.65253V9.96453C148.246 10.2959 148.515 10.5645 148.846 10.5645H151.24C151.571 10.5645 151.84 10.2959 151.84 9.96453V7.65253C151.84 7.32116 151.571 7.05253 151.24 7.05253H148.846ZM38.1937 7.46053C37.8624 7.46053 37.5938 7.72916 37.5938 8.06053V27.1005C37.5938 27.4319 37.8624 27.7005 38.1937 27.7005H40.3425C40.6739 27.7005 40.9425 27.4319 40.9425 27.1005V19.1325H50.7313V27.1005C50.7313 27.4319 51 27.7005 51.3314 27.7005H53.4802C53.8115 27.7005 54.0802 27.4319 54.0802 27.1005V8.06053C54.0802 7.72916 53.8115 7.46053 53.4802 7.46053H51.3314C51 7.46053 50.7313 7.72916 50.7313 8.06053V15.9197H40.9425V8.06053C40.9425 7.72916 40.6739 7.46053 40.3425 7.46053H38.1937ZM82.0561 12.1389C79.9575 12.1389 78.4179 13.0091 77.2705 14.1769V13.0381C77.2705 12.7068 77.0019 12.4381 76.6705 12.4381H74.5761C74.2447 12.4381 73.9761 12.7068 73.9761 13.0381V31.4525C73.9761 31.7839 74.2447 32.0525 74.5761 32.0525H76.6705C77.0019 32.0525 77.2705 31.7839 77.2705 31.4525V26.0545C78.4068 27.1617 79.9591 27.9997 82.0561 27.9997C85.7875 27.9997 89.3745 25.0111 89.3745 20.0829V20.0285C89.3745 15.067 85.7541 12.1389 82.0561 12.1389ZM98.5138 12.1389C94.2379 12.1389 91.1682 15.7292 91.1682 20.0829C91.1682 24.786 94.5845 28.0269 98.7858 28.0269C101.654 28.0269 103.521 26.8678 105.026 25.1891C105.132 25.0705 105.187 24.9147 105.178 24.7557C105.17 24.5968 105.098 24.4478 104.98 24.3416L103.674 23.172C103.433 22.9559 103.063 22.9703 102.84 23.2046C101.784 24.3108 100.572 25.0045 98.8402 25.0045C96.856 25.0045 95.0866 23.7649 94.5919 21.5261H105.042C105.354 21.5261 105.614 21.2869 105.64 20.976C105.669 20.6247 105.669 20.3874 105.669 20.1926V20.1917C105.669 18.0139 105.039 16.0063 103.813 14.5315C102.578 13.045 100.769 12.1389 98.5138 12.1389ZM116.594 12.1938C114.431 12.1056 112.66 13.0825 111.43 14.5843V13.0381C111.43 12.7068 111.161 12.4381 110.83 12.4381H108.735C108.404 12.4381 108.135 12.7068 108.135 13.0381V27.1005C108.135 27.4319 108.404 27.7005 108.735 27.7005H110.83C111.161 27.7005 111.43 27.4319 111.43 27.1005V21.4973C111.43 19.4942 112.019 18.0402 112.904 17.0925C113.788 16.146 115.016 15.6509 116.406 15.6509H116.569C116.9 15.6509 117.169 15.3823 117.169 15.0509V12.7933C117.169 12.4715 116.915 12.207 116.594 12.1938ZM124.056 12.1933C122.557 12.1933 121.217 12.627 120.24 13.4362C119.254 14.2529 118.669 15.4281 118.669 16.8189V16.8733C118.669 18.4045 119.416 19.4129 120.436 20.0926C121.415 20.745 122.67 21.1133 123.757 21.4217L123.759 21.4224C124.696 21.6841 125.497 21.9315 126.066 22.2636C126.614 22.5838 126.829 22.9096 126.829 23.3197V23.3741C126.829 23.8533 126.622 24.2376 126.246 24.5193C125.857 24.8112 125.266 25.0045 124.519 25.0045C123.018 25.0045 121.455 24.4128 120.01 23.3293C119.881 23.2322 119.717 23.1915 119.557 23.2165C119.397 23.2416 119.254 23.3302 119.161 23.4623L118.1 24.9583C117.917 25.2164 117.966 25.5723 118.212 25.7715C119.896 27.1363 122.259 27.9725 124.41 27.9725C125.916 27.9725 127.308 27.5564 128.338 26.7327C129.381 25.8983 130.015 24.672 130.015 23.1565V23.1021C130.015 21.6076 129.305 20.5953 128.321 19.8964C127.373 19.2233 126.153 18.8262 125.073 18.5021L125.072 18.5018L125.069 18.5009C124.111 18.2093 123.278 17.9557 122.676 17.6256C122.079 17.2985 121.882 16.9945 121.882 16.6557V16.6013C121.882 16.2149 122.051 15.876 122.386 15.6182C122.73 15.3529 123.272 15.1613 124.002 15.1613C125.22 15.1613 126.605 15.6287 127.838 16.4254C127.975 16.5134 128.141 16.5425 128.299 16.5059C128.457 16.4694 128.594 16.3703 128.677 16.2313L129.629 14.6537C129.796 14.3781 129.715 14.0204 129.446 13.8431C127.912 12.8298 125.894 12.1933 124.056 12.1933ZM57.0914 12.4381C56.8872 12.4381 56.6971 12.5419 56.5867 12.7137C56.4763 12.8854 56.4608 13.1015 56.5455 13.2872L62.8264 27.0516C62.4578 27.8729 62.1236 28.368 61.7943 28.6631C61.4627 28.9604 61.103 29.0845 60.6002 29.0845C59.7957 29.0845 59.2655 28.9431 58.6738 28.6354C58.5255 28.5583 58.3518 28.5465 58.1945 28.6029C58.0372 28.6593 57.9105 28.7787 57.845 28.9325L57.1378 30.5917C57.0124 30.8859 57.1399 31.2269 57.4276 31.3666C58.4494 31.8629 59.409 32.1341 60.6818 32.1341C61.8543 32.1341 62.8691 31.8365 63.7519 31.1009C64.6147 30.3819 65.3003 29.2863 65.9151 27.7911L65.916 27.7888L71.8184 13.264C71.8936 13.079 71.8718 12.8688 71.7603 12.7031C71.6488 12.5375 71.4622 12.4381 71.2626 12.4381H69.0322C68.784 12.4381 68.5615 12.5909 68.4723 12.8225L64.4825 23.1815L59.9533 12.7982C59.8579 12.5795 59.642 12.4381 59.4034 12.4381H57.0914ZM148.982 12.4381C148.651 12.4381 148.382 12.7068 148.382 13.0381V27.1005C148.382 27.4319 148.651 27.7005 148.982 27.7005H151.077C151.408 27.7005 151.677 27.4319 151.677 27.1005V13.0381C151.677 12.7068 151.408 12.4381 151.077 12.4381H148.982ZM98.4594 15.1069C96.612 15.1069 95.069 16.5054 94.5957 18.6397H102.256C102.078 17.7211 101.72 16.9122 101.198 16.3063C100.567 15.5746 99.6716 15.1069 98.4594 15.1069ZM77.1889 20.0285C77.1889 17.1462 79.3995 15.2157 81.6753 15.2157C83.9848 15.2157 86.0257 17.0435 86.0257 20.0557V20.1101C86.0257 21.6754 85.5149 22.8723 84.7392 23.6744C83.9624 24.4777 82.8842 24.9229 81.6753 24.9229C79.3995 24.9229 77.1889 23.0196 77.1889 20.0829V20.0285Z" fill="white"></path> </svg> 