<?xml version="1.0" encoding="UTF-8"?> <svg xmlns="http://www.w3.org/2000/svg" width="922" height="184" viewBox="0 0 922 184" fill="none"> <path fill-rule="evenodd" clip-rule="evenodd" d="M709.8 16C709.8 24.6 702.6 31.8 693.8 31.8C685.2 31.8 678 24.6 678 16C678 7.4 685.2 0 693.8 0C702.6 0 709.8 7.4 709.8 16ZM86.6 117.4V143.8H0V3.8H85.6V30.2H27.6V60H80.6V86H27.6V117.4H86.6ZM130.6 89.8V143.8H104.8V43.8H130.6V55C136.6 46 147 41 160.4 41C181.6 41 198.2 55.8 198.2 82.4V143.8H172.4V85.6C172.4 72 164.2 65 152.6 65C140 65 130.6 72.4 130.6 89.8ZM277.4 143.8V120.4C262.6 121.2 254.8 121 254.8 110.2V68.6H277.4V43.8H254.8V15.8L229 23.6V43.8H211.6V68.6H229V110.2C229 137.2 241.2 147.8 277.4 143.8ZM390.4 125.2C381 138.8 366 146.6 346.8 146.6C313.2 146.6 292 123.6 292 93.8C292 64 313.4 41 344.8 41C374.4 41 395.4 64.4 395.4 93.8C395.4 97.6 395 101 394.4 104.4H319C322.6 117.6 333.6 123.2 347.2 123.2C357.2 123.2 365.2 119 369.6 113.2L390.4 125.2ZM369.6 84.4H318.6C321.6 71.6 331 64.2 344.8 64.2C355.6 64.2 366.4 70 369.6 84.4ZM439.2 96V143.8H413.4V43.8H439.2V61C444.4 47.4 457 41.8 469.6 41.8V70.6C456.2 69 439.2 75 439.2 96ZM510.4 183.8V132C517.6 141.2 528.2 146.6 542.8 146.6C569.6 146.6 591.6 123.6 591.6 93.8C591.6 64 569.6 41 542.8 41C528.2 41 517.6 46.4 510.4 55.6V43.8H484.6V183.8H510.4ZM510.4 93.8C510.4 110.6 522.2 122 538 122C554 122 565.8 110.6 565.8 93.8C565.8 77 554 65.6 538 65.6C522.2 65.6 510.4 77 510.4 93.8ZM635.6 143.8V96C635.6 75 652.6 69 666 70.6V41.8C653.4 41.8 640.8 47.4 635.6 61V43.8H609.8V143.8H635.6ZM706.8 43.8H681V143.8H706.8V43.8ZM805.8 114.6C805.8 136.2 787 146.6 765.6 146.6C745.6 146.6 730.8 138.2 723.6 122.8L746 110.2C748.8 118.4 755.6 123.2 765.6 123.2C773.8 123.2 779.4 120.4 779.4 114.6C779.4 108.881 771.482 106.629 761.849 103.891C746.891 99.6384 727.8 94.2108 727.8 72.8C727.8 52.4 745.2 41 765.8 41C782 41 796 48.4 803.8 62.2L781.8 74.2C778.8 67.8 773.2 64 765.8 64C759.4 64 754.2 66.8 754.2 72.2C754.2 77.9434 761.971 80.0725 771.481 82.6782C786.478 86.787 805.8 92.0809 805.8 114.6ZM873 146.6C892.2 146.6 907.2 138.8 916.6 125.2L895.8 113.2C891.4 119 883.4 123.2 873.4 123.2C859.8 123.2 848.8 117.6 845.2 104.4H920.6C921.2 101 921.6 97.6 921.6 93.8C921.6 64.4 900.6 41 871 41C839.6 41 818.2 64 818.2 93.8C818.2 123.6 839.4 146.6 873 146.6ZM844.8 84.4H895.8C892.6 70 881.8 64.2 871 64.2C857.2 64.2 847.8 71.6 844.8 84.4Z" fill="#66CC66"></path> </svg> 