<?xml version="1.0" encoding="UTF-8"?> <svg xmlns="http://www.w3.org/2000/svg" width="924" height="186" viewBox="0 0 924 186" fill="none"> <path d="M87.6 144.8V145.3H88.1V144.8H87.6ZM87.6 118.4H88.1V117.9H87.6V118.4ZM1 144.8H0.5V145.3H1V144.8ZM1 4.8V4.3H0.5V4.8H1ZM86.6 4.8H87.1V4.3H86.6V4.8ZM86.6 31.2V31.7H87.1V31.2H86.6ZM28.6 31.2V30.7H28.1V31.2H28.6ZM28.6 61H28.1V61.5H28.6V61ZM81.6 61H82.1V60.5H81.6V61ZM81.6 87V87.5H82.1V87H81.6ZM28.6 87V86.5H28.1V87H28.6ZM28.6 118.4H28.1V118.9H28.6V118.4ZM131.6 144.8V145.3H132.1V144.8H131.6ZM105.8 144.8H105.3V145.3H105.8V144.8ZM105.8 44.8V44.3H105.3V44.8H105.8ZM131.6 44.8H132.1V44.3H131.6V44.8ZM131.6 56H131.1V57.6514L132.016 56.2774L131.6 56ZM199.2 144.8V145.3H199.7V144.8H199.2ZM173.4 144.8H172.9V145.3H173.4V144.8ZM278.4 121.4H278.9V120.872L278.373 120.901L278.4 121.4ZM278.4 144.8L278.455 145.297L278.9 145.248V144.8H278.4ZM255.8 69.6V69.1H255.3V69.6H255.8ZM278.4 69.6V70.1H278.9V69.6H278.4ZM278.4 44.8H278.9V44.3H278.4V44.8ZM255.8 44.8H255.3V45.3H255.8V44.8ZM255.8 16.8H256.3V16.1265L255.655 16.3214L255.8 16.8ZM230 24.6L229.855 24.1214L229.5 24.2288V24.6H230ZM230 44.8V45.3H230.5V44.8H230ZM212.6 44.8V44.3H212.1V44.8H212.6ZM212.6 69.6H212.1V70.1H212.6V69.6ZM230 69.6H230.5V69.1H230V69.6ZM391.4 126.2L391.811 126.484L392.12 126.038L391.65 125.767L391.4 126.2ZM395.4 105.4V105.9H395.819L395.892 105.487L395.4 105.4ZM320 105.4V104.9H319.345L319.518 105.532L320 105.4ZM370.6 114.2L370.85 113.767L370.468 113.547L370.202 113.898L370.6 114.2ZM319.6 85.4L319.113 85.2859L318.969 85.9H319.6V85.4ZM370.6 85.4V85.9H371.223L371.088 85.2915L370.6 85.4ZM440.2 144.8V145.3H440.7V144.8H440.2ZM414.4 144.8H413.9V145.3H414.4V144.8ZM414.4 44.8V44.3H413.9V44.8H414.4ZM440.2 44.8H440.7V44.3H440.2V44.8ZM440.2 62H439.7L440.667 62.1786L440.2 62ZM470.6 42.8H471.1V42.3H470.6V42.8ZM470.6 71.6L470.541 72.0965L471.1 72.1633V71.6H470.6ZM511.4 133L511.794 132.692L510.9 131.55V133H511.4ZM511.4 184.8V185.3H511.9V184.8H511.4ZM511.4 56.6H510.9V58.0502L511.794 56.9082L511.4 56.6ZM511.4 44.8H511.9V44.3H511.4V44.8ZM485.6 44.8V44.3H485.1V44.8H485.6ZM485.6 184.8H485.1V185.3H485.6V184.8ZM636.6 144.8V145.3H637.1V144.8H636.6ZM667 71.6L666.941 72.0965L667.5 72.1633V71.6H667ZM667 42.8H667.5V42.3H667V42.8ZM636.6 62H636.1L637.067 62.1786L636.6 62ZM636.6 44.8H637.1V44.3H636.6V44.8ZM610.8 44.8V44.3H610.3V44.8H610.8ZM610.8 144.8H610.3V145.3H610.8V144.8ZM682 44.8V44.3H681.5V44.8H682ZM707.8 44.8H708.3V44.3H707.8V44.8ZM682 144.8H681.5V145.3H682V144.8ZM707.8 144.8V145.3H708.3V144.8H707.8ZM724.6 123.8L724.355 123.364L723.951 123.592L724.147 124.012L724.6 123.8ZM747 111.2L747.473 111.038L747.279 110.469L746.755 110.764L747 111.2ZM762.849 104.891L762.985 104.41L762.985 104.41L762.849 104.891ZM804.8 63.2L805.039 63.6389L805.485 63.3959L805.235 62.954L804.8 63.2ZM782.8 75.2L782.347 75.4122L782.573 75.8934L783.039 75.6389L782.8 75.2ZM772.481 83.6782L772.613 83.196L772.613 83.196L772.481 83.6782ZM917.6 126.2L918.011 126.484L918.32 126.038L917.85 125.767L917.6 126.2ZM896.8 114.2L897.05 113.767L896.668 113.547L896.402 113.898L896.8 114.2ZM846.2 105.4V104.9H845.545L845.718 105.532L846.2 105.4ZM921.6 105.4V105.9H922.02L922.092 105.487L921.6 105.4ZM896.8 85.4V85.9H897.423L897.288 85.2915L896.8 85.4ZM845.8 85.4L845.313 85.2859L845.169 85.9H845.8V85.4ZM694.8 33.3C703.872 33.3 711.3 25.8802 711.3 17H710.3C710.3 25.3198 703.328 32.3 694.8 32.3V33.3ZM678.5 17C678.5 25.8761 685.924 33.3 694.8 33.3V32.3C686.476 32.3 679.5 25.3239 679.5 17H678.5ZM694.8 0.5C685.916 0.5 678.5 8.13202 678.5 17H679.5C679.5 8.66798 686.484 1.5 694.8 1.5V0.5ZM711.3 17C711.3 8.12791 703.88 0.5 694.8 0.5V1.5C703.32 1.5 710.3 8.67209 710.3 17H711.3ZM88.1 144.8V118.4H87.1V144.8H88.1ZM1 145.3H87.6V144.3H1V145.3ZM0.5 4.8V144.8H1.5V4.8H0.5ZM86.6 4.3H1V5.3H86.6V4.3ZM87.1 31.2V4.8H86.1V31.2H87.1ZM28.6 31.7H86.6V30.7H28.6V31.7ZM29.1 61V31.2H28.1V61H29.1ZM81.6 60.5H28.6V61.5H81.6V60.5ZM82.1 87V61H81.1V87H82.1ZM28.6 87.5H81.6V86.5H28.6V87.5ZM29.1 118.4V87H28.1V118.4H29.1ZM87.6 117.9H28.6V118.9H87.6V117.9ZM132.1 144.8V90.8H131.1V144.8H132.1ZM105.8 145.3H131.6V144.3H105.8V145.3ZM105.3 44.8V144.8H106.3V44.8H105.3ZM131.6 44.3H105.8V45.3H131.6V44.3ZM132.1 56V44.8H131.1V56H132.1ZM161.4 41.5C147.872 41.5 137.297 46.5536 131.184 55.7226L132.016 56.2774C137.903 47.4464 148.128 42.5 161.4 42.5V41.5ZM199.7 83.4C199.7 69.994 195.515 59.5113 188.609 52.3772C181.704 45.2435 172.119 41.5 161.4 41.5V42.5C171.881 42.5 181.196 46.1565 187.891 53.0728C194.585 59.9887 198.7 70.206 198.7 83.4H199.7ZM199.7 144.8V83.4H198.7V144.8H199.7ZM173.4 145.3H199.2V144.3H173.4V145.3ZM172.9 86.6V144.8H173.9V86.6H172.9ZM153.6 66.5C159.3 66.5 164.113 68.2184 167.499 71.5561C170.883 74.8919 172.9 79.9019 172.9 86.6H173.9C173.9 79.6981 171.817 74.4081 168.201 70.8439C164.587 67.2816 159.5 65.5 153.6 65.5V66.5ZM132.1 90.8C132.1 82.1876 134.425 76.129 138.233 72.2241C142.04 68.3199 147.397 66.5 153.6 66.5V65.5C147.203 65.5 141.56 67.3801 137.517 71.5259C133.475 75.671 131.1 82.0124 131.1 90.8H132.1ZM277.9 121.4V144.8H278.9V121.4H277.9ZM255.3 111.2C255.3 113.955 255.797 116.097 256.827 117.729C257.864 119.372 259.406 120.445 261.388 121.123C263.359 121.797 265.78 122.087 268.612 122.162C271.447 122.238 274.727 122.099 278.427 121.899L278.373 120.901C274.673 121.101 271.428 121.237 268.638 121.163C265.845 121.088 263.541 120.803 261.712 120.177C259.894 119.555 258.561 118.603 257.673 117.196C256.778 115.778 256.3 113.845 256.3 111.2H255.3ZM255.3 69.6V111.2H256.3V69.6H255.3ZM278.4 69.1H255.8V70.1H278.4V69.1ZM277.9 44.8V69.6H278.9V44.8H277.9ZM255.8 45.3H278.4V44.3H255.8V45.3ZM255.3 16.8V44.8H256.3V16.8H255.3ZM230.145 25.0786L255.945 17.2786L255.655 16.3214L229.855 24.1214L230.145 25.0786ZM230.5 44.8V24.6H229.5V44.8H230.5ZM212.6 45.3H230V44.3H212.6V45.3ZM213.1 69.6V44.8H212.1V69.6H213.1ZM230 69.1H212.6V70.1H230V69.1ZM230.5 111.2V69.6H229.5V111.2H230.5ZM278.345 144.303C260.267 146.301 248.334 144.629 240.92 139.221C233.539 133.838 230.5 124.644 230.5 111.2H229.5C229.5 124.756 232.561 134.362 240.33 140.029C248.066 145.671 260.333 147.299 278.455 145.297L278.345 144.303ZM347.8 148.1C367.148 148.1 382.309 140.232 391.811 126.484L390.989 125.916C381.691 139.368 366.852 147.1 347.8 147.1V148.1ZM292.5 94.8C292.5 109.821 297.845 123.152 307.447 132.729C317.05 142.307 330.882 148.1 347.8 148.1V147.1C331.118 147.1 317.55 141.393 308.153 132.021C298.755 122.648 293.5 109.579 293.5 94.8H292.5ZM345.8 41.5C314.114 41.5 292.5 64.734 292.5 94.8H293.5C293.5 65.266 314.686 42.5 345.8 42.5V41.5ZM396.9 94.8C396.9 65.1536 375.705 41.5 345.8 41.5V42.5C375.095 42.5 395.9 65.6464 395.9 94.8H396.9ZM395.892 105.487C396.496 102.067 396.9 98.6368 396.9 94.8H395.9C395.9 98.5632 395.504 101.933 394.908 105.313L395.892 105.487ZM320 105.9H395.4V104.9H320V105.9ZM348.2 123.7C341.464 123.7 335.413 122.313 330.614 119.326C325.825 116.345 322.25 111.751 320.482 105.268L319.518 105.532C321.35 112.249 325.075 117.055 330.086 120.174C335.087 123.287 341.336 124.7 348.2 124.7V123.7ZM370.202 113.898C365.907 119.559 358.062 123.7 348.2 123.7V124.7C358.338 124.7 366.493 120.441 370.998 114.502L370.202 113.898ZM391.65 125.767L370.85 113.767L370.35 114.633L391.15 126.633L391.65 125.767ZM319.6 85.9H370.6V84.9H319.6V85.9ZM345.8 64.7C338.809 64.7 332.896 66.5754 328.344 70.1048C323.79 73.635 320.635 78.7912 319.113 85.2859L320.087 85.5141C321.565 79.2088 324.61 74.265 328.956 70.8952C333.304 67.5246 338.991 65.7 345.8 65.7V64.7ZM371.088 85.2915C369.464 77.9825 365.901 72.8235 361.345 69.4962C356.795 66.1734 351.287 64.7 345.8 64.7V65.7C351.113 65.7 356.405 67.1266 360.755 70.3038C365.099 73.4765 368.536 78.4175 370.112 85.5085L371.088 85.2915ZM440.7 144.8V97H439.7V144.8H440.7ZM414.4 145.3H440.2V144.3H414.4V145.3ZM413.9 44.8V144.8H414.9V44.8H413.9ZM440.2 44.3H414.4V45.3H440.2V44.3ZM440.7 62V44.8H439.7V62H440.7ZM470.6 42.3C457.861 42.3 445.029 47.9712 439.733 61.8214L440.667 62.1786C445.771 48.8288 458.139 43.3 470.6 43.3V42.3ZM471.1 71.6V42.8H470.1V71.6H471.1ZM440.7 97C440.7 86.6554 444.876 80.0676 450.651 76.2418C456.453 72.3985 463.926 71.3066 470.541 72.0965L470.659 71.1035C463.874 70.2934 456.147 71.4015 450.099 75.4082C444.024 79.4324 439.7 86.3446 439.7 97H440.7ZM510.9 133V184.8H511.9V133H510.9ZM543.8 147.1C529.34 147.1 518.891 141.76 511.794 132.692L511.006 133.308C518.309 142.64 529.06 148.1 543.8 148.1V147.1ZM592.1 94.8C592.1 124.357 570.292 147.1 543.8 147.1V148.1C570.908 148.1 593.1 124.843 593.1 94.8H592.1ZM543.8 42.5C570.292 42.5 592.1 65.2435 592.1 94.8H593.1C593.1 64.7565 570.908 41.5 543.8 41.5V42.5ZM511.794 56.9082C518.891 47.8396 529.34 42.5 543.8 42.5V41.5C529.06 41.5 518.309 46.9604 511.006 56.2918L511.794 56.9082ZM510.9 44.8V56.6H511.9V44.8H510.9ZM485.6 45.3H511.4V44.3H485.6V45.3ZM486.1 184.8V44.8H485.1V184.8H486.1ZM511.4 184.3H485.6V185.3H511.4V184.3ZM539 122.5C523.479 122.5 511.9 111.326 511.9 94.8H510.9C510.9 111.874 522.921 123.5 539 123.5V122.5ZM566.3 94.8C566.3 103.079 563.395 109.998 558.546 114.846C553.698 119.695 546.878 122.5 539 122.5V123.5C547.122 123.5 554.202 120.605 559.254 115.554C564.305 110.502 567.3 103.321 567.3 94.8H566.3ZM539 67.1C546.878 67.1 553.698 69.9049 558.546 74.7536C563.395 79.6016 566.3 86.5206 566.3 94.8H567.3C567.3 86.2794 564.305 79.0984 559.254 74.0464C554.202 68.9951 547.122 66.1 539 66.1V67.1ZM511.9 94.8C511.9 78.2738 523.479 67.1 539 67.1V66.1C522.921 66.1 510.9 77.7262 510.9 94.8H511.9ZM636.1 97V144.8H637.1V97H636.1ZM667.059 71.1035C660.274 70.2934 652.547 71.4015 646.499 75.4082C640.424 79.4324 636.1 86.3446 636.1 97H637.1C637.1 86.6554 641.276 80.0676 647.051 76.2418C652.853 72.3985 660.326 71.3066 666.941 72.0965L667.059 71.1035ZM666.5 42.8V71.6H667.5V42.8H666.5ZM637.067 62.1786C642.171 48.8288 654.539 43.3 667 43.3V42.3C654.261 42.3 641.429 47.9712 636.133 61.8214L637.067 62.1786ZM636.1 44.8V62H637.1V44.8H636.1ZM610.8 45.3H636.6V44.3H610.8V45.3ZM611.3 144.8V44.8H610.3V144.8H611.3ZM636.6 144.3H610.8V145.3H636.6V144.3ZM682 45.3H707.8V44.3H682V45.3ZM682.5 144.8V44.8H681.5V144.8H682.5ZM707.8 144.3H682V145.3H707.8V144.3ZM707.3 44.8V144.8H708.3V44.8H707.3ZM766.6 148.1C777.372 148.1 787.534 145.484 795.017 140.106C802.518 134.715 807.3 126.567 807.3 115.6H806.3C806.3 126.233 801.682 134.085 794.433 139.294C787.166 144.516 777.228 147.1 766.6 147.1V148.1ZM724.147 124.012C731.446 139.623 746.448 148.1 766.6 148.1V147.1C746.752 147.1 732.154 138.777 725.053 123.588L724.147 124.012ZM746.755 110.764L724.355 123.364L724.845 124.236L747.245 111.636L746.755 110.764ZM766.6 123.7C761.68 123.7 757.582 122.52 754.38 120.36C751.179 118.202 748.842 115.046 747.473 111.038L746.527 111.362C747.958 115.554 750.421 118.898 753.82 121.19C757.218 123.48 761.52 124.7 766.6 124.7V123.7ZM779.9 115.6C779.9 118.304 778.611 120.299 776.322 121.644C774.004 123.006 770.655 123.7 766.6 123.7V124.7C770.745 124.7 774.296 123.994 776.828 122.506C779.389 121.001 780.9 118.696 780.9 115.6H779.9ZM762.712 105.372C767.546 106.746 771.879 107.98 775.01 109.573C778.144 111.168 779.9 113.031 779.9 115.6H780.9C780.9 112.449 778.697 110.327 775.463 108.682C772.227 107.035 767.784 105.774 762.985 104.41L762.712 105.372ZM728.3 73.8C728.3 84.6916 733.173 91.5467 739.932 96.1919C746.654 100.811 755.25 103.25 762.712 105.372L762.985 104.41C755.489 102.279 747.061 99.8777 740.498 95.3677C733.973 90.8833 729.3 84.3192 729.3 73.8H728.3ZM766.8 41.5C756.414 41.5 746.798 44.3733 739.768 49.8557C732.725 55.3476 728.3 63.4413 728.3 73.8H729.3C729.3 63.7587 733.575 55.9524 740.382 50.6443C747.202 45.3267 756.586 42.5 766.8 42.5V41.5ZM805.235 62.954C797.337 48.9804 783.16 41.5 766.8 41.5V42.5C782.84 42.5 796.663 49.8196 804.365 63.446L805.235 62.954ZM783.039 75.6389L805.039 63.6389L804.561 62.7611L782.561 74.761L783.039 75.6389ZM766.8 65.5C773.999 65.5 779.427 69.1815 782.347 75.4122L783.253 74.9878C780.173 68.4185 774.401 64.5 766.8 64.5V65.5ZM755.7 73.2C755.7 70.688 756.898 68.7871 758.874 67.4933C760.868 66.1874 763.664 65.5 766.8 65.5V64.5C763.536 64.5 760.532 65.2126 758.326 66.6567C756.102 68.1129 754.7 70.312 754.7 73.2H755.7ZM772.613 83.196C767.84 81.8882 763.576 80.7176 760.499 79.1691C757.424 77.6214 755.7 75.7832 755.7 73.2H754.7C754.7 76.3602 756.862 78.4582 760.049 80.0624C763.236 81.6658 767.612 82.8625 772.349 84.1604L772.613 83.196ZM807.3 115.6C807.3 104.162 802.377 97.0612 795.549 92.3245C788.761 87.615 780.094 85.2456 772.613 83.196L772.349 84.1604C779.865 86.2197 788.357 88.5516 794.979 93.1461C801.562 97.7133 806.3 104.519 806.3 115.6H807.3ZM917.189 125.916C907.891 139.368 893.052 147.1 874 147.1V148.1C893.348 148.1 908.509 140.232 918.011 126.484L917.189 125.916ZM896.55 114.633L917.35 126.633L917.85 125.767L897.05 113.767L896.55 114.633ZM874.4 124.7C884.538 124.7 892.693 120.441 897.198 114.502L896.402 113.898C892.107 119.559 884.262 123.7 874.4 123.7V124.7ZM845.718 105.532C847.55 112.249 851.275 117.055 856.286 120.174C861.287 123.287 867.536 124.7 874.4 124.7V123.7C867.664 123.7 861.613 122.313 856.814 119.326C852.025 116.345 848.45 111.751 846.682 105.268L845.718 105.532ZM921.6 104.9H846.2V105.9H921.6V104.9ZM922.1 94.8C922.1 98.5632 921.704 101.933 921.108 105.313L922.092 105.487C922.696 102.067 923.1 98.6368 923.1 94.8H922.1ZM872 42.5C901.295 42.5 922.1 65.6464 922.1 94.8H923.1C923.1 65.1536 901.905 41.5 872 41.5V42.5ZM819.7 94.8C819.7 65.266 840.886 42.5 872 42.5V41.5C840.314 41.5 818.7 64.734 818.7 94.8H819.7ZM874 147.1C857.318 147.1 843.75 141.393 834.353 132.021C824.955 122.648 819.7 109.579 819.7 94.8H818.7C818.7 109.821 824.045 123.152 833.647 132.729C843.25 142.307 857.082 148.1 874 148.1V147.1ZM896.8 84.9H845.8V85.9H896.8V84.9ZM872 65.7C877.313 65.7 882.605 67.1266 886.955 70.3038C891.299 73.4765 894.736 78.4175 896.312 85.5085L897.288 85.2915C895.664 77.9825 892.101 72.8235 887.545 69.4962C882.995 66.1734 877.487 64.7 872 64.7V65.7ZM846.287 85.5141C847.765 79.2088 850.81 74.265 855.156 70.8952C859.504 67.5246 865.191 65.7 872 65.7V64.7C865.009 64.7 859.096 66.5754 854.544 70.1048C849.99 73.635 846.835 78.7912 845.313 85.2859L846.287 85.5141Z" fill="#66CC66"></path> </svg> 