<?xml version="1.0" encoding="UTF-8"?> <svg xmlns="http://www.w3.org/2000/svg" width="1584" height="396" viewBox="0 0 1584 396" fill="none"> <g clip-path="url(#clip0_903_343)"> <rect width="1584" height="396" fill="url(#paint0_linear_903_343)"></rect> <rect x="463.034" y="309.551" width="82.6673" height="156.241" rx="41.3337" transform="rotate(-180 463.034 309.551)" fill="url(#paint1_linear_903_343)"></rect> <path d="M560.986 83.9483C560.986 106.776 542.48 125.282 519.653 125.282C496.825 125.282 478.319 106.776 478.319 83.9483L478.319 10.3744C478.319 -12.4535 496.825 -30.9592 519.653 -30.9592C542.481 -30.9592 560.986 -12.4535 560.986 10.3744L560.986 83.9483Z" fill="url(#paint2_linear_903_343)"></path> <path d="M479.815 -160L312 187.864L421.121 187.864" stroke="url(#paint3_linear_903_343)" stroke-width="83" stroke-linecap="round" stroke-linejoin="round"></path> <path d="M461.785 440L629.6 92.136L520.479 92.136" stroke="url(#paint4_linear_903_343)" stroke-width="83" stroke-linecap="round" stroke-linejoin="round"></path> <path d="M1199.72 240.377L1153.55 320.461C1149.98 326.655 1143.37 330.472 1136.22 330.472L1055.45 330.472C1048.3 330.472 1041.7 326.655 1038.13 320.461L991.956 240.377" stroke="url(#paint5_linear_903_343)" stroke-width="66" stroke-linecap="round"></path> <path d="M1228.72 218.719C1238.71 235.321 1233.14 256.889 1216.36 266.577C1200 276.019 1179.1 270.621 1169.36 254.439L1065.18 81.3252C1055.19 64.7236 1060.76 43.1555 1077.54 33.4676C1093.9 24.0249 1114.8 29.4237 1124.54 45.605L1228.72 218.719Z" fill="url(#paint6_linear_903_343)"></path> <rect width="69.2877" height="272.301" rx="34.6438" transform="matrix(-0.866025 -0.5 -0.5 0.866025 1142.16 49.6035)" fill="url(#paint7_linear_903_343)"></rect> <rect width="68.9477" height="68.9477" rx="34.4739" transform="matrix(-1 8.06241e-08 8.06241e-08 1 1128.94 205.442)" fill="url(#paint8_linear_903_343)"></rect> <rect x="1188.7" y="387.901" width="91.9299" height="185.699" rx="38" transform="rotate(90 1188.7 387.901)" fill="url(#paint9_linear_903_343)"></rect> </g> <defs> <linearGradient id="paint0_linear_903_343" x1="275.066" y1="-228.781" x2="372.048" y2="505.448" gradientUnits="userSpaceOnUse"> <stop stop-color="#4BFFDF"></stop> <stop offset="1" stop-color="#4D9FFF"></stop> </linearGradient> <linearGradient id="paint1_linear_903_343" x1="489.517" y1="429.565" x2="460.945" y2="346.335" gradientUnits="userSpaceOnUse"> <stop stop-color="#564DE2"></stop> <stop offset="1" stop-color="#68AEFF"></stop> </linearGradient> <linearGradient id="paint2_linear_903_343" x1="534.503" y1="5.26735" x2="563.075" y2="88.4972" gradientUnits="userSpaceOnUse"> <stop stop-color="#564DE2"></stop> <stop offset="1" stop-color="#68AEFF"></stop> </linearGradient> <linearGradient id="paint3_linear_903_343" x1="341.141" y1="-360.972" x2="667.905" y2="-62.6163" gradientUnits="userSpaceOnUse"> <stop stop-color="#4BFFDF"></stop> <stop offset="1" stop-color="#4D9FFF"></stop> </linearGradient> <linearGradient id="paint4_linear_903_343" x1="600.459" y1="640.972" x2="273.695" y2="342.616" gradientUnits="userSpaceOnUse"> <stop stop-color="#4BFFDF"></stop> <stop offset="1" stop-color="#4D9FFF"></stop> </linearGradient> <linearGradient id="paint5_linear_903_343" x1="1319.75" y1="256.022" x2="1161.99" y2="448.228" gradientUnits="userSpaceOnUse"> <stop stop-color="#4BFFDF"></stop> <stop offset="1" stop-color="#4D9FFF"></stop> </linearGradient> <linearGradient id="paint6_linear_903_343" x1="1122.12" y1="80.3605" x2="1242.65" y2="140.229" gradientUnits="userSpaceOnUse"> <stop stop-color="#564DE2"></stop> <stop offset="1" stop-color="#68AEFF"></stop> </linearGradient> <linearGradient id="paint7_linear_903_343" x1="19.0852" y1="-49.4782" x2="182.432" y2="53.0588" gradientUnits="userSpaceOnUse"> <stop stop-color="#4BFFDF"></stop> <stop offset="1" stop-color="#7AB7FE"></stop> </linearGradient> <linearGradient id="paint8_linear_903_343" x1="18.9916" y1="-12.5281" x2="50.9699" y2="66.3612" gradientUnits="userSpaceOnUse"> <stop stop-color="#4BFFDF"></stop> <stop offset="1" stop-color="#7AB7FE"></stop> </linearGradient> <linearGradient id="paint9_linear_903_343" x1="1214.02" y1="354.158" x2="1335.28" y2="502.252" gradientUnits="userSpaceOnUse"> <stop stop-color="#4BFFDF"></stop> <stop offset="1" stop-color="#7AB7FE"></stop> </linearGradient> <clipPath id="clip0_903_343"> <rect width="1584" height="396" fill="white"></rect> </clipPath> </defs> </svg> 