<?xml version="1.0" encoding="UTF-8"?> <svg xmlns="http://www.w3.org/2000/svg" width="1640" height="2121" viewBox="0 0 1640 2121" fill="none"> <path fill-rule="evenodd" clip-rule="evenodd" d="M1427 409C1427 417.6 1419.8 424.8 1411 424.8C1402.4 424.8 1395.2 417.6 1395.2 409C1395.2 400.4 1402.4 393 1411 393C1419.8 393 1427 400.4 1427 409ZM803.8 510.4V536.8H717.2V396.8H802.8V423.2H744.8V453H797.8V479H744.8V510.4H803.8ZM847.8 482.8V536.8H822V436.8H847.8V448C853.8 439 864.2 434 877.6 434C898.8 434 915.4 448.8 915.4 475.4V536.8H889.6V478.6C889.6 465 881.4 458 869.8 458C857.2 458 847.8 465.4 847.8 482.8ZM994.6 536.8V513.4C979.8 514.2 972 514 972 503.2V461.6H994.6V436.8H972V408.8L946.2 416.6V436.8H928.8V461.6H946.2V503.2C946.2 530.2 958.4 540.8 994.6 536.8ZM1107.6 518.2C1098.2 531.8 1083.2 539.6 1064 539.6C1030.4 539.6 1009.2 516.6 1009.2 486.8C1009.2 457 1030.6 434 1062 434C1091.6 434 1112.6 457.4 1112.6 486.8C1112.6 490.6 1112.2 494 1111.6 497.4H1036.2C1039.8 510.6 1050.8 516.2 1064.4 516.2C1074.4 516.2 1082.4 512 1086.8 506.2L1107.6 518.2ZM1086.8 477.4H1035.8C1038.8 464.6 1048.2 457.2 1062 457.2C1072.8 457.2 1083.6 463 1086.8 477.4ZM1156.4 489V536.8H1130.6V436.8H1156.4V454C1161.6 440.4 1174.2 434.8 1186.8 434.8V463.6C1173.4 462 1156.4 468 1156.4 489ZM1227.6 576.8V525C1234.8 534.2 1245.4 539.6 1260 539.6C1286.8 539.6 1308.8 516.6 1308.8 486.8C1308.8 457 1286.8 434 1260 434C1245.4 434 1234.8 439.4 1227.6 448.6V436.8H1201.8V576.8H1227.6ZM1227.6 486.8C1227.6 503.6 1239.4 515 1255.2 515C1271.2 515 1283 503.6 1283 486.8C1283 470 1271.2 458.6 1255.2 458.6C1239.4 458.6 1227.6 470 1227.6 486.8ZM1352.8 536.8V489C1352.8 468 1369.8 462 1383.2 463.6V434.8C1370.6 434.8 1358 440.4 1352.8 454V436.8H1327V536.8H1352.8ZM1424 436.8H1398.2V536.8H1424V436.8ZM1523 507.6C1523 529.2 1504.2 539.6 1482.8 539.6C1462.8 539.6 1448 531.2 1440.8 515.8L1463.2 503.2C1466 511.4 1472.8 516.2 1482.8 516.2C1491 516.2 1496.6 513.4 1496.6 507.6C1496.6 501.881 1488.68 499.629 1479.05 496.891C1464.09 492.638 1445 487.211 1445 465.8C1445 445.4 1462.4 434 1483 434C1499.2 434 1513.2 441.4 1521 455.2L1499 467.2C1496 460.8 1490.4 457 1483 457C1476.6 457 1471.4 459.8 1471.4 465.2C1471.4 470.943 1479.17 473.073 1488.68 475.678C1503.68 479.787 1523 485.081 1523 507.6ZM1590.2 539.6C1609.4 539.6 1624.4 531.8 1633.8 518.2L1613 506.2C1608.6 512 1600.6 516.2 1590.6 516.2C1577 516.2 1566 510.6 1562.4 497.4H1637.8C1638.4 494 1638.8 490.6 1638.8 486.8C1638.8 457.4 1617.8 434 1588.2 434C1556.8 434 1535.4 457 1535.4 486.8C1535.4 516.6 1556.6 539.6 1590.2 539.6ZM1562 477.4H1613C1609.8 463 1599 457.2 1588.2 457.2C1574.4 457.2 1565 464.6 1562 477.4Z" fill="#66CC66"></path> <path d="M120 1637L120.5 2120" stroke="#222437" stroke-width="240"></path> <path d="M639.091 2.57129L427 330.939" stroke="white" stroke-width="8"></path> <mask id="mask0" maskUnits="userSpaceOnUse" x="120" y="478" width="1218" height="1544"> <rect width="1218" height="1544" rx="8" transform="matrix(-1 0 0 1 1338 478)" fill="white"></rect> </mask> <g mask="url(#mask0)"> <rect width="1217" height="1565" rx="1" transform="matrix(-1 0 0 1 1337 478)" fill="url(#paint0_linear)"></rect> <path opacity="0.0555711" fill-rule="evenodd" clip-rule="evenodd" d="M1082.05 1376.08C1178.29 1367.66 1249.4 1281.98 1240.89 1184.71C1232.39 1087.45 1147.48 1015.42 1051.25 1023.85C955.017 1032.27 883.902 1117.95 892.409 1215.21C900.916 1312.48 985.823 1384.5 1082.05 1376.08Z" fill="#222437"></path> <path d="M1346.7 923.03C1346.7 923.03 1100.89 896.33 953 1193" stroke="#F6F6F6" stroke-width="3"></path> <path d="M591 987L420 1258" stroke="#FFCE6E" stroke-width="2"></path> <path opacity="0.14974" d="M970 1613V2116" stroke="#E9F9E9" stroke-width="120"></path> <path opacity="0.0994699" d="M876 1798V2297" stroke="#E9EBFA" stroke-width="200"></path> <path d="M1164 1747.23L896 2277.23" stroke="#222437" stroke-width="79"></path> <path d="M1268 1707.23C1268 1707.23 1181.33 1878.23 1008 2220.23" stroke="#FF7965" stroke-width="68"></path> <path d="M1340 1677.23C1340 1677.23 1253 1848.23 1079 2190.23" stroke="#F6F6F6" stroke-width="39"></path> <path d="M776 1865V1927" stroke="#FFF6E5" stroke-width="29"></path> <path d="M857 1865V1872" stroke="#FFF6E5" stroke-width="29"></path> <path d="M925 1912V1927" stroke="#FFF6E5" stroke-width="29"></path> <path d="M1220 1178V1347" stroke="#56A4FF" stroke-width="6" stroke-linecap="round"></path> </g> <path fill-rule="evenodd" clip-rule="evenodd" d="M194.546 706.988V696H226.28V706.988H237.596V685.176H231.446V638.6H193.562V665.742C193.562 675.828 191.512 681.404 188.806 685.176H183.23V706.988H194.546ZM220.13 685.176H200.942C203.074 681.486 204.878 675.746 204.878 665.906V649.178H220.13V685.176ZM282.86 688.374C279.006 693.95 272.856 697.148 264.984 697.148C251.208 697.148 242.516 687.718 242.516 675.5C242.516 663.282 251.29 653.852 264.164 653.852C276.3 653.852 284.91 663.446 284.91 675.5C284.91 677.058 284.746 678.452 284.5 679.846H253.586C255.062 685.258 259.572 687.554 265.148 687.554C269.248 687.554 272.528 685.832 274.332 683.454L282.86 688.374ZM274.332 671.646H253.422C254.652 666.398 258.506 663.364 264.164 663.364C268.592 663.364 273.02 665.742 274.332 671.646ZM311.806 665.168V696H301.228V665.168H288.272V655H324.598V665.168H311.806ZM348.05 697.148C354.036 697.148 358.464 694.852 361.416 691.162V696H371.994V655H361.416V659.838C358.464 656.148 354.036 653.852 348.05 653.852C337.144 653.852 328.124 663.282 328.124 675.5C328.124 687.718 337.144 697.148 348.05 697.148ZM338.702 675.5C338.702 682.388 343.54 687.062 350.018 687.062C356.578 687.062 361.416 682.388 361.416 675.5C361.416 668.612 356.578 663.938 350.018 663.938C343.54 663.938 338.702 668.612 338.702 675.5ZM394.872 678.862V665.168H406.188V696H416.766V655H384.294V678.288C384.294 684.684 381.916 687.144 377.57 686.078V696C388.64 697.23 394.872 691.818 394.872 678.862ZM453.502 672.712L434.232 696H426.36V655H436.692V678.288L455.962 655H463.834V696H453.502V672.712ZM504.588 696V664.922H520.906V696H531.484V655H494.01V696H504.588ZM554.444 665.168V678.862C554.444 691.818 548.212 697.23 537.142 696V686.078C541.488 687.144 543.866 684.684 543.866 678.288V655H576.338V696H565.76V665.168H554.444ZM603.726 697.148C609.712 697.148 614.14 694.852 617.092 691.162V696H627.67V655H617.092V659.838C614.14 656.148 609.712 653.852 603.726 653.852C592.82 653.852 583.8 663.282 583.8 675.5C583.8 687.718 592.82 697.148 603.726 697.148ZM594.378 675.5C594.378 682.388 599.216 687.062 605.694 687.062C612.254 687.062 617.092 682.388 617.092 675.5C617.092 668.612 612.254 663.938 605.694 663.938C599.216 663.938 594.378 668.612 594.378 675.5ZM647.842 696V680.42H664.16V696H674.738V655H664.16V670.498H647.842V655H637.264V696H647.842ZM715.574 691.162C712.622 694.852 708.194 697.148 702.208 697.148C691.302 697.148 682.282 687.718 682.282 675.5C682.282 663.282 691.302 653.852 702.208 653.852C708.194 653.852 712.622 656.148 715.574 659.838V655H726.152V696H715.574V691.162ZM704.176 687.062C697.698 687.062 692.86 682.388 692.86 675.5C692.86 668.612 697.698 663.938 704.176 663.938C710.736 663.938 715.574 668.612 715.574 675.5C715.574 682.388 710.736 687.062 704.176 687.062ZM766.824 664.922V696H756.246V655H793.72V696H783.142V664.922H766.824ZM822.912 697.148C834.966 697.148 844.642 687.718 844.642 675.5C844.642 663.282 834.966 653.852 822.912 653.852C810.858 653.852 801.264 663.282 801.264 675.5C801.264 687.718 810.858 697.148 822.912 697.148ZM811.842 675.5C811.842 682.142 816.68 686.816 822.912 686.816C829.226 686.816 834.064 682.142 834.064 675.5C834.064 668.858 829.226 664.184 822.912 664.184C816.68 664.184 811.842 668.858 811.842 675.5ZM858.664 706.988V696H884.084V706.988H894.416V686.078H889.004V655H856.86V671.564C856.86 678.862 855.548 682.798 853.334 686.078H848.332V706.988H858.664ZM864.65 686.078H878.672V664.512H867.192V671.564C867.192 677.714 866.29 682.306 864.65 686.078ZM911.718 696V664.922H928.036V696H938.614V655H901.14V696H911.718ZM975.432 672.712L956.162 696H948.29V655H958.622V678.288L977.892 655H985.764V696H975.432V672.712ZM1014.96 697.148C1022.99 697.148 1029.96 692.884 1033.49 686.488L1024.3 681.24C1022.66 684.602 1019.14 686.652 1014.87 686.652C1008.56 686.652 1003.89 681.978 1003.89 675.5C1003.89 668.94 1008.56 664.266 1014.87 664.266C1019.06 664.266 1022.58 666.398 1024.22 669.76L1033.32 664.43C1029.96 658.116 1022.99 653.852 1014.96 653.852C1002.49 653.852 993.308 663.282 993.308 675.5C993.308 687.718 1002.49 697.148 1014.96 697.148ZM1049.97 677.386V696H1039.39V655H1049.97V673.04L1064.07 655H1076.7L1060.22 675.254L1077.19 696H1064.89L1049.97 677.386ZM1090.31 696L1109.58 672.712V696H1119.92V655H1112.04L1092.77 678.288V655H1082.44V696H1090.31ZM227.756 779.846C227.756 790.588 219.146 797.148 206.928 797.148C195.202 797.148 187.494 791.49 184.378 782.962L194.054 777.304C196.104 782.634 200.122 786.078 207.256 786.078C214.062 786.078 216.44 783.208 216.44 780.01C216.44 775.746 212.586 774.106 204.058 771.646C195.284 769.104 186.756 765.414 186.756 754.508C186.756 743.684 195.776 737.452 205.616 737.452C215.046 737.452 222.262 742.29 226.116 750.326L216.604 755.82C214.554 751.474 211.438 748.44 205.616 748.44C200.86 748.44 198.072 750.9 198.072 754.18C198.072 757.706 200.286 759.592 208.978 762.216L209.017 762.229C218.108 765.095 227.756 768.137 227.756 779.846ZM258.096 796V786.406C252.028 786.734 248.83 786.652 248.83 782.224V765.168H258.096V755H248.83V743.52L238.252 746.718V755H231.118V765.168H238.252V782.224C238.252 793.294 243.254 797.64 258.096 796ZM304.426 788.374C300.572 793.95 294.422 797.148 286.55 797.148C272.774 797.148 264.082 787.718 264.082 775.5C264.082 763.282 272.856 753.852 285.73 753.852C297.866 753.852 306.476 763.446 306.476 775.5C306.476 777.058 306.312 778.452 306.066 779.846H275.152C276.628 785.258 281.138 787.554 286.714 787.554C290.814 787.554 294.094 785.832 295.898 783.454L304.426 788.374ZM295.898 771.646H274.988C276.218 766.398 280.072 763.364 285.73 763.364C290.158 763.364 294.586 765.742 295.898 771.646ZM324.434 791.162V812.4H313.856V755H324.434V759.838C327.386 756.066 331.732 753.852 337.718 753.852C348.706 753.852 357.726 763.282 357.726 775.5C357.726 787.718 348.706 797.148 337.718 797.148C331.732 797.148 327.386 794.934 324.434 791.162ZM335.75 787.062C329.272 787.062 324.434 782.388 324.434 775.5C324.434 768.612 329.272 763.938 335.75 763.938C342.31 763.938 347.148 768.612 347.148 775.5C347.148 782.388 342.31 787.062 335.75 787.062ZM376.996 743.602C376.996 747.128 374.044 750.08 370.436 750.08C366.91 750.08 363.958 747.128 363.958 743.602C363.958 740.076 366.91 737.042 370.436 737.042C374.044 737.042 376.996 740.076 376.996 743.602ZM375.766 755H365.188V796H375.766V755ZM396.02 777.386V796H385.442V738.6H396.02V773.04L410.124 755H422.752L406.27 775.254L423.244 796H410.944L396.02 777.386ZM484.99 796V785.176H460.8V772.302H482.53V761.642H460.8V749.424H484.58V738.6H449.484V796H484.99ZM503.03 773.86V796H492.452V755H503.03V759.592C505.49 755.902 509.754 753.852 515.248 753.852C523.94 753.852 530.746 759.92 530.746 770.826V796H520.168V772.138C520.168 766.562 516.806 763.692 512.05 763.692C506.884 763.692 503.03 766.726 503.03 773.86ZM563.218 796V786.406C557.15 786.734 553.952 786.652 553.952 782.224V765.168H563.218V755H553.952V743.52L543.374 746.718V755H536.24V765.168H543.374V782.224C543.374 793.294 548.376 797.64 563.218 796ZM609.548 788.374C605.694 793.95 599.544 797.148 591.672 797.148C577.896 797.148 569.204 787.718 569.204 775.5C569.204 763.282 577.978 753.852 590.852 753.852C602.988 753.852 611.598 763.446 611.598 775.5C611.598 777.058 611.434 778.452 611.188 779.846H580.274C581.75 785.258 586.26 787.554 591.836 787.554C595.936 787.554 599.216 785.832 601.02 783.454L609.548 788.374ZM601.02 771.646H580.11C581.34 766.398 585.194 763.364 590.852 763.364C595.28 763.364 599.708 765.742 601.02 771.646ZM629.556 776.402V796H618.978V755H629.556V762.052C631.688 756.476 636.854 754.18 642.02 754.18V765.988C636.526 765.332 629.556 767.792 629.556 776.402ZM658.748 812.4V791.162C661.7 794.934 666.046 797.148 672.032 797.148C683.02 797.148 692.04 787.718 692.04 775.5C692.04 763.282 683.02 753.852 672.032 753.852C666.046 753.852 661.7 756.066 658.748 759.838V755H648.17V812.4H658.748ZM658.748 775.5C658.748 782.388 663.586 787.062 670.064 787.062C676.624 787.062 681.462 782.388 681.462 775.5C681.462 768.612 676.624 763.938 670.064 763.938C663.586 763.938 658.748 768.612 658.748 775.5ZM710.08 796V776.402C710.08 767.792 717.05 765.332 722.544 765.988V754.18C717.378 754.18 712.212 756.476 710.08 762.052V755H699.502V796H710.08ZM740.502 743.602C740.502 747.128 737.55 750.08 733.942 750.08C730.416 750.08 727.464 747.128 727.464 743.602C727.464 740.076 730.416 737.042 733.942 737.042C737.55 737.042 740.502 740.076 740.502 743.602ZM739.272 755H728.694V796H739.272V755ZM779.862 784.028C779.862 792.884 772.154 797.148 763.38 797.148C755.18 797.148 749.112 793.704 746.16 787.39L755.344 782.224C756.492 785.586 759.28 787.554 763.38 787.554C766.742 787.554 769.038 786.406 769.038 784.028C769.038 781.683 765.791 780.76 761.842 779.637C755.709 777.894 747.882 775.669 747.882 766.89C747.882 758.526 755.016 753.852 763.462 753.852C770.104 753.852 775.844 756.886 779.042 762.544L770.022 767.464C768.792 764.84 766.496 763.282 763.462 763.282C760.838 763.282 758.706 764.43 758.706 766.644C758.706 768.999 761.892 769.872 765.791 770.94C771.94 772.625 779.862 774.795 779.862 784.028ZM807.414 797.148C815.286 797.148 821.436 793.95 825.29 788.374L816.762 783.454C814.958 785.832 811.678 787.554 807.578 787.554C802.002 787.554 797.492 785.258 796.016 779.846H826.93C827.176 778.452 827.34 777.058 827.34 775.5C827.34 763.446 818.73 753.852 806.594 753.852C793.72 753.852 784.946 763.282 784.946 775.5C784.946 787.718 793.638 797.148 807.414 797.148ZM795.852 771.646H816.762C815.45 765.742 811.022 763.364 806.594 763.364C800.936 763.364 797.082 766.398 795.852 771.646Z" fill="white"></path> <path fill-rule="evenodd" clip-rule="evenodd" d="M215.74 563.49C221.095 563.49 224.56 559.99 224.56 555.265C224.56 550.365 220.71 547.53 217.105 547.53C215.25 547.53 213.255 548.09 211.855 549.525C212.415 547.985 213.43 546.9 216.58 545.675C220.22 544.275 222.74 543.05 223.405 539.97L219.695 537.835C218.962 540.034 217.517 540.71 214.887 541.941C214.377 542.18 213.823 542.439 213.22 542.735C207.585 545.5 206.535 548.44 206.535 554.075C206.535 559.465 210.14 563.49 215.74 563.49ZM188.79 558.59L187.32 563H182.105L190.68 538.5H196.665L205.275 563H200.025L198.555 558.59H188.79ZM193.69 544.065L190.33 554.075H197.05L193.69 544.065ZM211.26 555.125C211.26 557.61 213.22 559.36 215.705 559.36C218.26 559.36 220.045 557.61 220.045 555.265C220.045 552.885 218.26 551.135 215.67 551.135C213.535 551.135 211.26 552.57 211.26 555.125ZM235.62 563.49C239.05 563.49 242.025 561.67 243.53 558.94L239.61 556.7C238.91 558.135 237.405 559.01 235.585 559.01C232.89 559.01 230.895 557.015 230.895 554.25C230.895 551.45 232.89 549.455 235.585 549.455C237.37 549.455 238.875 550.365 239.575 551.8L243.46 549.525C242.025 546.83 239.05 545.01 235.62 545.01C230.3 545.01 226.38 549.035 226.38 554.25C226.38 559.465 230.3 563.49 235.62 563.49ZM263.655 554.25C263.655 559.465 259.525 563.49 254.38 563.49C249.235 563.49 245.14 559.465 245.14 554.25C245.14 549.035 249.235 545.01 254.38 545.01C259.525 545.01 263.655 549.035 263.655 554.25ZM254.38 559.08C251.72 559.08 249.655 557.085 249.655 554.25C249.655 551.415 251.72 549.42 254.38 549.42C257.075 549.42 259.14 551.415 259.14 554.25C259.14 557.085 257.075 559.08 254.38 559.08ZM272.51 549.84V555.685C272.51 561.215 269.85 563.525 265.125 563V558.765C266.98 559.22 267.995 558.17 267.995 555.44V545.5H281.855V563H277.34V549.84H272.51ZM301.875 563.49C307.02 563.49 311.15 559.465 311.15 554.25C311.15 549.035 307.02 545.01 301.875 545.01C297.5 545.01 293.93 547.985 293.02 552.115H290.465V545.5H285.95V563H290.465V556.35H292.985C293.895 560.515 297.465 563.49 301.875 563.49ZM297.15 554.25C297.15 557.085 299.215 559.08 301.875 559.08C304.57 559.08 306.635 557.085 306.635 554.25C306.635 551.415 304.57 549.42 301.875 549.42C299.215 549.42 297.15 551.415 297.15 554.25ZM322.665 563V549.84H328.125V545.5H312.62V549.84H318.15V563H322.665ZM335.055 556.35V563H330.54V545.5H335.055V552.115H342.02V545.5H346.535V563H342.02V556.35H335.055ZM358.995 563.49C364.14 563.49 368.27 559.465 368.27 554.25C368.27 549.035 364.14 545.01 358.995 545.01C353.85 545.01 349.755 549.035 349.755 554.25C349.755 559.465 353.85 563.49 358.995 563.49ZM354.27 554.25C354.27 557.085 356.335 559.08 358.995 559.08C361.69 559.08 363.755 557.085 363.755 554.25C363.755 551.415 361.69 549.42 358.995 549.42C356.335 549.42 354.27 551.415 354.27 554.25ZM384.72 563V556.35H391.685V563H396.2V545.5H391.685V552.115H384.72V545.5H380.205V563H384.72ZM417.935 554.25C417.935 559.465 413.805 563.49 408.66 563.49C403.515 563.49 399.42 559.465 399.42 554.25C399.42 549.035 403.515 545.01 408.66 545.01C413.805 545.01 417.935 549.035 417.935 554.25ZM408.66 559.08C406 559.08 403.935 557.085 403.935 554.25C403.935 551.415 406 549.42 408.66 549.42C411.355 549.42 413.42 551.415 413.42 554.25C413.42 557.085 411.355 559.08 408.66 559.08ZM436.17 558.03C436.17 560.865 434.175 563 430.325 563H421.12V545.5H429.625C433.405 545.5 435.435 547.565 435.435 550.435C435.435 551.975 434.84 553.2 433.72 554.04C435.295 554.81 436.17 556.21 436.17 558.03ZM429.205 552.36H425.355V549.21H429.205C430.43 549.21 431.13 549.735 431.13 550.785C431.13 551.87 430.43 552.36 429.205 552.36ZM425.355 559.185H429.8C431.025 559.185 431.76 558.59 431.76 557.505C431.76 556.49 430.99 555.93 429.8 555.93H425.355V559.185ZM446.915 563C450.905 563 453.53 560.62 453.53 557.05C453.53 553.48 450.905 551.1 446.915 551.1H443.52V545.5H439.005V563H446.915ZM455.455 545.5H459.97V563H455.455V545.5ZM446.95 559.01H443.52V555.055H446.95C448.21 555.055 449.12 555.86 449.12 557.05C449.12 558.24 448.21 559.01 446.95 559.01ZM477.19 539.34V543.26H467.04V539.34H477.19ZM475.685 563H480.095V545.5H476.735L468.51 555.44V545.5H464.1V563H467.46L475.685 553.06V563ZM504.385 545.5H509.215L502.845 563C501.025 568.04 497.805 570.245 493.605 570V565.8C495.985 565.835 497.245 564.995 498.085 562.79L491.015 545.5H495.81L500.5 557.26L504.385 545.5ZM515.865 570V560.935C517.125 562.545 518.98 563.49 521.535 563.49C526.225 563.49 530.075 559.465 530.075 554.25C530.075 549.035 526.225 545.01 521.535 545.01C518.98 545.01 517.125 545.955 515.865 547.565V545.5H511.35V570H515.865ZM515.865 554.25C515.865 557.19 517.93 559.185 520.695 559.185C523.495 559.185 525.56 557.19 525.56 554.25C525.56 551.31 523.495 549.315 520.695 549.315C517.93 549.315 515.865 551.31 515.865 554.25ZM541.59 563.49C546.735 563.49 550.865 559.465 550.865 554.25C550.865 549.035 546.735 545.01 541.59 545.01C536.445 545.01 532.35 549.035 532.35 554.25C532.35 559.465 536.445 563.49 541.59 563.49ZM536.865 554.25C536.865 557.085 538.93 559.08 541.59 559.08C544.285 559.08 546.35 557.085 546.35 554.25C546.35 551.415 544.285 549.42 541.59 549.42C538.93 549.42 536.865 551.415 536.865 554.25ZM563.255 563C567.105 563 569.1 560.865 569.1 558.03C569.1 556.21 568.225 554.81 566.65 554.04C567.77 553.2 568.365 551.975 568.365 550.435C568.365 547.565 566.335 545.5 562.555 545.5H554.05V563H563.255ZM558.285 552.36H562.135C563.36 552.36 564.06 551.87 564.06 550.785C564.06 549.735 563.36 549.21 562.135 549.21H558.285V552.36ZM562.73 559.185H558.285V555.93H562.73C563.92 555.93 564.69 556.49 564.69 557.505C564.69 558.59 563.955 559.185 562.73 559.185ZM588.245 559.745C586.6 562.125 583.975 563.49 580.615 563.49C574.735 563.49 571.025 559.465 571.025 554.25C571.025 549.035 574.77 545.01 580.265 545.01C585.445 545.01 589.12 549.105 589.12 554.25C589.12 554.915 589.05 555.51 588.945 556.105H575.75C576.38 558.415 578.305 559.395 580.685 559.395C582.435 559.395 583.835 558.66 584.605 557.645L588.245 559.745ZM584.605 552.605H575.68C576.205 550.365 577.85 549.07 580.265 549.07C582.155 549.07 584.045 550.085 584.605 552.605ZM596.785 556.35V563H592.27V545.5H596.785V552.115H603.75V545.5H608.265V563H603.75V556.35H596.785ZM620.305 563C624.295 563 626.92 560.62 626.92 557.05C626.92 553.48 624.295 551.1 620.305 551.1H616.91V545.5H612.395V563H620.305ZM616.91 559.01H620.34C621.6 559.01 622.51 558.24 622.51 557.05C622.51 555.86 621.6 555.055 620.34 555.055H616.91V559.01Z" fill="black"></path> <path d="M803.8 536.8V537.3H804.3V536.8H803.8ZM803.8 510.4H804.3V509.9H803.8V510.4ZM717.2 536.8H716.7V537.3H717.2V536.8ZM717.2 396.8V396.3H716.7V396.8H717.2ZM802.8 396.8H803.3V396.3H802.8V396.8ZM802.8 423.2V423.7H803.3V423.2H802.8ZM744.8 423.2V422.7H744.3V423.2H744.8ZM744.8 453H744.3V453.5H744.8V453ZM797.8 453H798.3V452.5H797.8V453ZM797.8 479V479.5H798.3V479H797.8ZM744.8 479V478.5H744.3V479H744.8ZM744.8 510.4H744.3V510.9H744.8V510.4ZM847.8 536.8V537.3H848.3V536.8H847.8ZM822 536.8H821.5V537.3H822V536.8ZM822 436.8V436.3H821.5V436.8H822ZM847.8 436.8H848.3V436.3H847.8V436.8ZM847.8 448H847.3V449.651L848.216 448.277L847.8 448ZM915.4 536.8V537.3H915.9V536.8H915.4ZM889.6 536.8H889.1V537.3H889.6V536.8ZM994.6 513.4H995.1V512.872L994.573 512.901L994.6 513.4ZM994.6 536.8L994.655 537.297L995.1 537.248V536.8H994.6ZM972 461.6V461.1H971.5V461.6H972ZM994.6 461.6V462.1H995.1V461.6H994.6ZM994.6 436.8H995.1V436.3H994.6V436.8ZM972 436.8H971.5V437.3H972V436.8ZM972 408.8H972.5V408.126L971.855 408.321L972 408.8ZM946.2 416.6L946.055 416.121L945.7 416.229V416.6H946.2ZM946.2 436.8V437.3H946.7V436.8H946.2ZM928.8 436.8V436.3H928.3V436.8H928.8ZM928.8 461.6H928.3V462.1H928.8V461.6ZM946.2 461.6H946.7V461.1H946.2V461.6ZM1107.6 518.2L1108.01 518.484L1108.32 518.038L1107.85 517.767L1107.6 518.2ZM1111.6 497.4V497.9H1112.02L1112.09 497.487L1111.6 497.4ZM1036.2 497.4V496.9H1035.55L1035.72 497.532L1036.2 497.4ZM1086.8 506.2L1087.05 505.767L1086.67 505.547L1086.4 505.898L1086.8 506.2ZM1035.8 477.4L1035.31 477.286L1035.17 477.9H1035.8V477.4ZM1086.8 477.4V477.9H1087.42L1087.29 477.292L1086.8 477.4ZM1156.4 536.8V537.3H1156.9V536.8H1156.4ZM1130.6 536.8H1130.1V537.3H1130.6V536.8ZM1130.6 436.8V436.3H1130.1V436.8H1130.6ZM1156.4 436.8H1156.9V436.3H1156.4V436.8ZM1156.4 454H1155.9L1156.87 454.179L1156.4 454ZM1186.8 434.8H1187.3V434.3H1186.8V434.8ZM1186.8 463.6L1186.74 464.096L1187.3 464.163V463.6H1186.8ZM1227.6 525L1227.99 524.692L1227.1 523.55V525H1227.6ZM1227.6 576.8V577.3H1228.1V576.8H1227.6ZM1227.6 448.6H1227.1V450.05L1227.99 448.908L1227.6 448.6ZM1227.6 436.8H1228.1V436.3H1227.6V436.8ZM1201.8 436.8V436.3H1201.3V436.8H1201.8ZM1201.8 576.8H1201.3V577.3H1201.8V576.8ZM1352.8 536.8V537.3H1353.3V536.8H1352.8ZM1383.2 463.6L1383.14 464.096L1383.7 464.163V463.6H1383.2ZM1383.2 434.8H1383.7V434.3H1383.2V434.8ZM1352.8 454H1352.3L1353.27 454.179L1352.8 454ZM1352.8 436.8H1353.3V436.3H1352.8V436.8ZM1327 436.8V436.3H1326.5V436.8H1327ZM1327 536.8H1326.5V537.3H1327V536.8ZM1398.2 436.8V436.3H1397.7V436.8H1398.2ZM1424 436.8H1424.5V436.3H1424V436.8ZM1398.2 536.8H1397.7V537.3H1398.2V536.8ZM1424 536.8V537.3H1424.5V536.8H1424ZM1440.8 515.8L1440.55 515.364L1440.15 515.592L1440.35 516.012L1440.8 515.8ZM1463.2 503.2L1463.67 503.038L1463.48 502.469L1462.95 502.764L1463.2 503.2ZM1479.05 496.891L1479.19 496.41L1479.19 496.41L1479.05 496.891ZM1521 455.2L1521.24 455.639L1521.68 455.396L1521.44 454.954L1521 455.2ZM1499 467.2L1498.55 467.412L1498.77 467.893L1499.24 467.639L1499 467.2ZM1488.68 475.678L1488.81 475.196L1488.81 475.196L1488.68 475.678ZM1633.8 518.2L1634.21 518.484L1634.52 518.038L1634.05 517.767L1633.8 518.2ZM1613 506.2L1613.25 505.767L1612.87 505.547L1612.6 505.898L1613 506.2ZM1562.4 497.4V496.9H1561.75L1561.92 497.532L1562.4 497.4ZM1637.8 497.4V497.9H1638.22L1638.29 497.487L1637.8 497.4ZM1613 477.4V477.9H1613.62L1613.49 477.292L1613 477.4ZM1562 477.4L1561.51 477.286L1561.37 477.9H1562V477.4ZM1411 425.3C1420.07 425.3 1427.5 417.88 1427.5 409H1426.5C1426.5 417.32 1419.53 424.3 1411 424.3V425.3ZM1394.7 409C1394.7 417.876 1402.12 425.3 1411 425.3V424.3C1402.68 424.3 1395.7 417.324 1395.7 409H1394.7ZM1411 392.5C1402.12 392.5 1394.7 400.132 1394.7 409H1395.7C1395.7 400.668 1402.68 393.5 1411 393.5V392.5ZM1427.5 409C1427.5 400.128 1420.08 392.5 1411 392.5V393.5C1419.52 393.5 1426.5 400.672 1426.5 409H1427.5ZM804.3 536.8V510.4H803.3V536.8H804.3ZM717.2 537.3H803.8V536.3H717.2V537.3ZM716.7 396.8V536.8H717.7V396.8H716.7ZM802.8 396.3H717.2V397.3H802.8V396.3ZM803.3 423.2V396.8H802.3V423.2H803.3ZM744.8 423.7H802.8V422.7H744.8V423.7ZM745.3 453V423.2H744.3V453H745.3ZM797.8 452.5H744.8V453.5H797.8V452.5ZM798.3 479V453H797.3V479H798.3ZM744.8 479.5H797.8V478.5H744.8V479.5ZM745.3 510.4V479H744.3V510.4H745.3ZM803.8 509.9H744.8V510.9H803.8V509.9ZM848.3 536.8V482.8H847.3V536.8H848.3ZM822 537.3H847.8V536.3H822V537.3ZM821.5 436.8V536.8H822.5V436.8H821.5ZM847.8 436.3H822V437.3H847.8V436.3ZM848.3 448V436.8H847.3V448H848.3ZM877.6 433.5C864.072 433.5 853.497 438.554 847.384 447.723L848.216 448.277C854.103 439.446 864.328 434.5 877.6 434.5V433.5ZM915.9 475.4C915.9 461.994 911.715 451.511 904.809 444.377C897.904 437.244 888.319 433.5 877.6 433.5V434.5C888.081 434.5 897.396 438.157 904.091 445.073C910.785 451.989 914.9 462.206 914.9 475.4H915.9ZM915.9 536.8V475.4H914.9V536.8H915.9ZM889.6 537.3H915.4V536.3H889.6V537.3ZM889.1 478.6V536.8H890.1V478.6H889.1ZM869.8 458.5C875.5 458.5 880.313 460.218 883.699 463.556C887.083 466.892 889.1 471.902 889.1 478.6H890.1C890.1 471.698 888.017 466.408 884.401 462.844C880.787 459.282 875.7 457.5 869.8 457.5V458.5ZM848.3 482.8C848.3 474.188 850.625 468.129 854.433 464.224C858.24 460.32 863.596 458.5 869.8 458.5V457.5C863.403 457.5 857.76 459.38 853.717 463.526C849.675 467.671 847.3 474.012 847.3 482.8H848.3ZM994.1 513.4V536.8H995.1V513.4H994.1ZM971.5 503.2C971.5 505.955 971.997 508.097 973.027 509.729C974.064 511.372 975.606 512.445 977.588 513.123C979.559 513.797 981.98 514.087 984.812 514.162C987.647 514.238 990.927 514.099 994.627 513.899L994.573 512.901C990.873 513.101 987.628 513.237 984.838 513.163C982.045 513.088 979.741 512.803 977.912 512.177C976.094 511.555 974.761 510.603 973.873 509.196C972.978 507.778 972.5 505.845 972.5 503.2H971.5ZM971.5 461.6V503.2H972.5V461.6H971.5ZM994.6 461.1H972V462.1H994.6V461.1ZM994.1 436.8V461.6H995.1V436.8H994.1ZM972 437.3H994.6V436.3H972V437.3ZM971.5 408.8V436.8H972.5V408.8H971.5ZM946.345 417.079L972.145 409.279L971.855 408.321L946.055 416.121L946.345 417.079ZM946.7 436.8V416.6H945.7V436.8H946.7ZM928.8 437.3H946.2V436.3H928.8V437.3ZM929.3 461.6V436.8H928.3V461.6H929.3ZM946.2 461.1H928.8V462.1H946.2V461.1ZM946.7 503.2V461.6H945.7V503.2H946.7ZM994.545 536.303C976.467 538.301 964.534 536.629 957.12 531.221C949.739 525.838 946.7 516.644 946.7 503.2H945.7C945.7 516.756 948.761 526.362 956.53 532.029C964.266 537.671 976.533 539.299 994.655 537.297L994.545 536.303ZM1064 540.1C1083.35 540.1 1098.51 532.232 1108.01 518.484L1107.19 517.916C1097.89 531.368 1083.05 539.1 1064 539.1V540.1ZM1008.7 486.8C1008.7 501.821 1014.04 515.152 1023.65 524.729C1033.25 534.307 1047.08 540.1 1064 540.1V539.1C1047.32 539.1 1033.75 533.393 1024.35 524.021C1014.96 514.648 1009.7 501.579 1009.7 486.8H1008.7ZM1062 433.5C1030.31 433.5 1008.7 456.734 1008.7 486.8H1009.7C1009.7 457.266 1030.89 434.5 1062 434.5V433.5ZM1113.1 486.8C1113.1 457.154 1091.9 433.5 1062 433.5V434.5C1091.29 434.5 1112.1 457.646 1112.1 486.8H1113.1ZM1112.09 497.487C1112.7 494.067 1113.1 490.637 1113.1 486.8H1112.1C1112.1 490.563 1111.7 493.933 1111.11 497.313L1112.09 497.487ZM1036.2 497.9H1111.6V496.9H1036.2V497.9ZM1064.4 515.7C1057.66 515.7 1051.61 514.313 1046.81 511.326C1042.03 508.345 1038.45 503.751 1036.68 497.268L1035.72 497.532C1037.55 504.249 1041.27 509.055 1046.29 512.174C1051.29 515.287 1057.54 516.7 1064.4 516.7V515.7ZM1086.4 505.898C1082.11 511.559 1074.26 515.7 1064.4 515.7V516.7C1074.54 516.7 1082.69 512.441 1087.2 506.502L1086.4 505.898ZM1107.85 517.767L1087.05 505.767L1086.55 506.633L1107.35 518.633L1107.85 517.767ZM1035.8 477.9H1086.8V476.9H1035.8V477.9ZM1062 456.7C1055.01 456.7 1049.1 458.575 1044.54 462.105C1039.99 465.635 1036.84 470.791 1035.31 477.286L1036.29 477.514C1037.76 471.209 1040.81 466.265 1045.16 462.895C1049.5 459.525 1055.19 457.7 1062 457.7V456.7ZM1087.29 477.292C1085.66 469.982 1082.1 464.823 1077.54 461.496C1073 458.173 1067.49 456.7 1062 456.7V457.7C1067.31 457.7 1072.6 459.127 1076.96 462.304C1081.3 465.477 1084.74 470.418 1086.31 477.508L1087.29 477.292ZM1156.9 536.8V489H1155.9V536.8H1156.9ZM1130.6 537.3H1156.4V536.3H1130.6V537.3ZM1130.1 436.8V536.8H1131.1V436.8H1130.1ZM1156.4 436.3H1130.6V437.3H1156.4V436.3ZM1156.9 454V436.8H1155.9V454H1156.9ZM1186.8 434.3C1174.06 434.3 1161.23 439.971 1155.93 453.821L1156.87 454.179C1161.97 440.829 1174.34 435.3 1186.8 435.3V434.3ZM1187.3 463.6V434.8H1186.3V463.6H1187.3ZM1156.9 489C1156.9 478.655 1161.08 472.068 1166.85 468.242C1172.65 464.399 1180.13 463.307 1186.74 464.096L1186.86 463.104C1180.07 462.293 1172.35 463.401 1166.3 467.408C1160.22 471.432 1155.9 478.345 1155.9 489H1156.9ZM1227.1 525V576.8H1228.1V525H1227.1ZM1260 539.1C1245.54 539.1 1235.09 533.76 1227.99 524.692L1227.21 525.308C1234.51 534.64 1245.26 540.1 1260 540.1V539.1ZM1308.3 486.8C1308.3 516.357 1286.49 539.1 1260 539.1V540.1C1287.11 540.1 1309.3 516.843 1309.3 486.8H1308.3ZM1260 434.5C1286.49 434.5 1308.3 457.243 1308.3 486.8H1309.3C1309.3 456.757 1287.11 433.5 1260 433.5V434.5ZM1227.99 448.908C1235.09 439.84 1245.54 434.5 1260 434.5V433.5C1245.26 433.5 1234.51 438.96 1227.21 448.292L1227.99 448.908ZM1227.1 436.8V448.6H1228.1V436.8H1227.1ZM1201.8 437.3H1227.6V436.3H1201.8V437.3ZM1202.3 576.8V436.8H1201.3V576.8H1202.3ZM1227.6 576.3H1201.8V577.3H1227.6V576.3ZM1255.2 514.5C1239.68 514.5 1228.1 503.326 1228.1 486.8H1227.1C1227.1 503.874 1239.12 515.5 1255.2 515.5V514.5ZM1282.5 486.8C1282.5 495.079 1279.59 501.998 1274.75 506.846C1269.9 511.695 1263.08 514.5 1255.2 514.5V515.5C1263.32 515.5 1270.4 512.605 1275.45 507.554C1280.51 502.502 1283.5 495.321 1283.5 486.8H1282.5ZM1255.2 459.1C1263.08 459.1 1269.9 461.905 1274.75 466.754C1279.59 471.602 1282.5 478.521 1282.5 486.8H1283.5C1283.5 478.279 1280.51 471.098 1275.45 466.046C1270.4 460.995 1263.32 458.1 1255.2 458.1V459.1ZM1228.1 486.8C1228.1 470.274 1239.68 459.1 1255.2 459.1V458.1C1239.12 458.1 1227.1 469.726 1227.1 486.8H1228.1ZM1352.3 489V536.8H1353.3V489H1352.3ZM1383.26 463.104C1376.47 462.293 1368.75 463.401 1362.7 467.408C1356.62 471.432 1352.3 478.345 1352.3 489H1353.3C1353.3 478.655 1357.48 472.068 1363.25 468.242C1369.05 464.399 1376.53 463.307 1383.14 464.096L1383.26 463.104ZM1382.7 434.8V463.6H1383.7V434.8H1382.7ZM1353.27 454.179C1358.37 440.829 1370.74 435.3 1383.2 435.3V434.3C1370.46 434.3 1357.63 439.971 1352.33 453.821L1353.27 454.179ZM1352.3 436.8V454H1353.3V436.8H1352.3ZM1327 437.3H1352.8V436.3H1327V437.3ZM1327.5 536.8V436.8H1326.5V536.8H1327.5ZM1352.8 536.3H1327V537.3H1352.8V536.3ZM1398.2 437.3H1424V436.3H1398.2V437.3ZM1398.7 536.8V436.8H1397.7V536.8H1398.7ZM1424 536.3H1398.2V537.3H1424V536.3ZM1423.5 436.8V536.8H1424.5V436.8H1423.5ZM1482.8 540.1C1493.57 540.1 1503.73 537.484 1511.22 532.106C1518.72 526.715 1523.5 518.567 1523.5 507.6H1522.5C1522.5 518.233 1517.88 526.085 1510.63 531.294C1503.37 536.516 1493.43 539.1 1482.8 539.1V540.1ZM1440.35 516.012C1447.65 531.623 1462.65 540.1 1482.8 540.1V539.1C1462.95 539.1 1448.35 530.777 1441.25 515.588L1440.35 516.012ZM1462.95 502.764L1440.55 515.364L1441.05 516.236L1463.45 503.636L1462.95 502.764ZM1482.8 515.7C1477.88 515.7 1473.78 514.52 1470.58 512.36C1467.38 510.202 1465.04 507.046 1463.67 503.038L1462.73 503.362C1464.16 507.554 1466.62 510.898 1470.02 513.19C1473.42 515.48 1477.72 516.7 1482.8 516.7V515.7ZM1496.1 507.6C1496.1 510.304 1494.81 512.299 1492.52 513.644C1490.2 515.006 1486.86 515.7 1482.8 515.7V516.7C1486.94 516.7 1490.5 515.994 1493.03 514.506C1495.59 513.001 1497.1 510.696 1497.1 507.6H1496.1ZM1478.91 497.372C1483.75 498.746 1488.08 499.98 1491.21 501.573C1494.34 503.168 1496.1 505.031 1496.1 507.6H1497.1C1497.1 504.449 1494.9 502.327 1491.66 500.682C1488.43 499.035 1483.98 497.774 1479.19 496.41L1478.91 497.372ZM1444.5 465.8C1444.5 476.692 1449.37 483.547 1456.13 488.192C1462.85 492.811 1471.45 495.25 1478.91 497.372L1479.19 496.41C1471.69 494.279 1463.26 491.878 1456.7 487.368C1450.17 482.883 1445.5 476.319 1445.5 465.8H1444.5ZM1483 433.5C1472.61 433.5 1463 436.373 1455.97 441.856C1448.92 447.348 1444.5 455.441 1444.5 465.8H1445.5C1445.5 455.759 1449.78 447.952 1456.58 442.644C1463.4 437.327 1472.79 434.5 1483 434.5V433.5ZM1521.44 454.954C1513.54 440.98 1499.36 433.5 1483 433.5V434.5C1499.04 434.5 1512.86 441.82 1520.56 455.446L1521.44 454.954ZM1499.24 467.639L1521.24 455.639L1520.76 454.761L1498.76 466.761L1499.24 467.639ZM1483 457.5C1490.2 457.5 1495.63 461.181 1498.55 467.412L1499.45 466.988C1496.37 460.419 1490.6 456.5 1483 456.5V457.5ZM1471.9 465.2C1471.9 462.688 1473.1 460.787 1475.07 459.493C1477.07 458.187 1479.86 457.5 1483 457.5V456.5C1479.74 456.5 1476.73 457.213 1474.53 458.657C1472.3 460.113 1470.9 462.312 1470.9 465.2H1471.9ZM1488.81 475.196C1484.04 473.888 1479.78 472.718 1476.7 471.169C1473.62 469.621 1471.9 467.783 1471.9 465.2H1470.9C1470.9 468.36 1473.06 470.458 1476.25 472.062C1479.44 473.666 1483.81 474.862 1488.55 476.16L1488.81 475.196ZM1523.5 507.6C1523.5 496.162 1518.58 489.061 1511.75 484.324C1504.96 479.615 1496.29 477.246 1488.81 475.196L1488.55 476.16C1496.06 478.22 1504.56 480.552 1511.18 485.146C1517.76 489.713 1522.5 496.519 1522.5 507.6H1523.5ZM1633.39 517.916C1624.09 531.368 1609.25 539.1 1590.2 539.1V540.1C1609.55 540.1 1624.71 532.232 1634.21 518.484L1633.39 517.916ZM1612.75 506.633L1633.55 518.633L1634.05 517.767L1613.25 505.767L1612.75 506.633ZM1590.6 516.7C1600.74 516.7 1608.89 512.441 1613.4 506.502L1612.6 505.898C1608.31 511.559 1600.46 515.7 1590.6 515.7V516.7ZM1561.92 497.532C1563.75 504.249 1567.47 509.055 1572.49 512.174C1577.49 515.287 1583.74 516.7 1590.6 516.7V515.7C1583.86 515.7 1577.81 514.313 1573.01 511.326C1568.23 508.345 1564.65 503.751 1562.88 497.268L1561.92 497.532ZM1637.8 496.9H1562.4V497.9H1637.8V496.9ZM1638.3 486.8C1638.3 490.563 1637.9 493.933 1637.31 497.313L1638.29 497.487C1638.9 494.067 1639.3 490.637 1639.3 486.8H1638.3ZM1588.2 434.5C1617.49 434.5 1638.3 457.646 1638.3 486.8H1639.3C1639.3 457.154 1618.11 433.5 1588.2 433.5V434.5ZM1535.9 486.8C1535.9 457.266 1557.09 434.5 1588.2 434.5V433.5C1556.51 433.5 1534.9 456.734 1534.9 486.8H1535.9ZM1590.2 539.1C1573.52 539.1 1559.95 533.393 1550.55 524.021C1541.16 514.648 1535.9 501.579 1535.9 486.8H1534.9C1534.9 501.821 1540.24 515.152 1549.85 524.729C1559.45 534.307 1573.28 540.1 1590.2 540.1V539.1ZM1613 476.9H1562V477.9H1613V476.9ZM1588.2 457.7C1593.51 457.7 1598.8 459.127 1603.16 462.304C1607.5 465.477 1610.94 470.418 1612.51 477.508L1613.49 477.292C1611.86 469.982 1608.3 464.823 1603.74 461.496C1599.2 458.173 1593.69 456.7 1588.2 456.7V457.7ZM1562.49 477.514C1563.96 471.209 1567.01 466.265 1571.36 462.895C1575.7 459.525 1581.39 457.7 1588.2 457.7V456.7C1581.21 456.7 1575.3 458.575 1570.74 462.105C1566.19 465.635 1563.04 470.791 1561.51 477.286L1562.49 477.514Z" fill="#66CC66"></path> <defs> <linearGradient id="paint0_linear" x1="2092.18" y1="1541.04" x2="195.035" y2="-812.845" gradientUnits="userSpaceOnUse"> <stop stop-color="#2A264D"></stop> <stop offset="1" stop-color="#5F5ACE"></stop> </linearGradient> </defs> </svg> 