<?xml version="1.0" encoding="UTF-8"?> <svg xmlns="http://www.w3.org/2000/svg" width="482" height="252" viewBox="0 0 482 252" fill="none"> <g id="Group 12"> <g id="Popup Copy 18"> <g id="pro-7"> <rect id="Rectangle Copy 16" width="482" height="252" rx="8" transform="matrix(-1 0 0 1 482 0)" fill="url(#paint0_linear)"></rect> <mask id="mask0" maskUnits="userSpaceOnUse" x="0" y="0" width="482" height="252"> <rect id="Rectangle Copy 16_2" width="482" height="252" rx="8" transform="matrix(-1 0 0 1 482 0)" fill="white"></rect> </mask> <g mask="url(#mask0)"> <path id="Stroke 21 Copy 6" d="M55 56L-29 186.108" stroke="white" stroke-width="10"></path> <path id="Stroke 21 Copy 25" d="M368 -102L284 28.1081" stroke="#FFCE6E" stroke-width="2"></path> <path id="Stroke 21 Copy 8" d="M461 52V218.162" stroke="#FFCE6E" stroke-width="20"></path> <path id="Stroke 21 Copy 14" d="M441 -108V51.8919" stroke="white" stroke-width="20"></path> <path id="Stroke 21 Copy 7" d="M425 110V274.483" stroke="white" stroke-width="5" stroke-linecap="round"></path> <path id="Stroke 21 Copy 15" d="M418 155.216V178.73" stroke="#FFCE6E" stroke-width="20" stroke-linecap="round"></path> <path id="Stroke 21 Copy 8_2" d="M221.803 205L132 382.443" stroke="#222437" stroke-width="41"></path> <path id="Stroke 21 Copy 14_2" fill-rule="evenodd" clip-rule="evenodd" d="M327.982 96.9691C327.982 96.9691 298.977 154.216 240.968 268.709L327.982 96.9691Z" stroke="#66CC66" stroke-width="25"></path> <path id="Stroke 21 Copy 16" d="M370.007 61.9681C370.007 61.9681 341.002 119.215 282.993 233.708" stroke="#F6F6F6" stroke-width="18"></path> <path id="Stroke 21 Copy 13" d="M425 84V148.27" stroke="#222437" stroke-width="33" stroke-linecap="round"></path> </g> </g> <path id="Title" d="M41.736 191.8H32.34V217H37.308V208.72H41.736C46.596 208.72 50.34 204.976 50.34 200.26C50.34 195.544 46.596 191.8 41.736 191.8ZM41.736 204.076H37.308V196.444H41.736C43.86 196.444 45.408 198.064 45.408 200.26C45.408 202.42 43.86 204.076 41.736 204.076ZM57.6157 202.096V199H52.9717V217H57.6157V208.396C57.6157 204.616 60.6757 203.536 63.0877 203.824V198.64C60.8197 198.64 58.5517 199.648 57.6157 202.096ZM73.7037 217.504C78.9957 217.504 83.2437 213.364 83.2437 208C83.2437 202.636 78.9957 198.496 73.7037 198.496C68.4117 198.496 64.1997 202.636 64.1997 208C64.1997 213.364 68.4117 217.504 73.7037 217.504ZM73.7037 212.968C70.9677 212.968 68.8437 210.916 68.8437 208C68.8437 205.084 70.9677 203.032 73.7037 203.032C76.4757 203.032 78.5997 205.084 78.5997 208C78.5997 210.916 76.4757 212.968 73.7037 212.968Z" fill="white"></path> </g> <g id="pro-3 copy"> <rect id="Rectangle Copy 16_3" x="31" y="157" width="50" height="16" rx="1" fill="url(#paint1_linear)"></rect> <mask id="mask1" maskUnits="userSpaceOnUse" x="31" y="157" width="50" height="16"> <rect id="Rectangle Copy 16_4" x="31" y="157" width="50" height="16" rx="1" fill="white"></rect> </mask> <g mask="url(#mask1)"> <path id="Stroke 21 Copy 8_3" d="M56 148L36 168" stroke="#66CC66" stroke-width="6"></path> <path id="Stroke 21 Copy 6_2" d="M37 159L19 177" stroke="#FFCE6E" stroke-width="3"></path> <path id="Stroke 21 Copy 7_2" d="M51 163L33 181" stroke="#6C7BDF" stroke-width="2" stroke-linecap="round"></path> <path id="Stroke 21 Copy 26" d="M43 166L25 184" stroke="white" stroke-width="2" stroke-linecap="round"></path> <path id="PRO Copy 2" d="M58.25 161H55.6V168H57.2V165.8H58.25C59.63 165.8 60.7 164.73 60.7 163.4C60.7 162.07 59.63 161 58.25 161ZM58.25 164.3H57.2V162.5H58.25C58.74 162.5 59.1 162.89 59.1 163.4C59.1 163.91 58.74 164.3 58.25 164.3ZM65.5118 168H67.2318L65.7418 165.43C66.5118 165.04 67.0318 164.26 67.0318 163.4C67.0318 162.07 65.9618 161 64.6318 161H61.8318V168H63.4318V165.7H64.1918L65.5118 168ZM63.4318 162.5H64.6318C65.0718 162.5 65.4318 162.89 65.4318 163.4C65.4318 163.91 65.0718 164.3 64.6318 164.3H63.4318V162.5ZM71.5598 168.14C73.5698 168.14 75.1998 166.56 75.1998 164.5C75.1998 162.44 73.5698 160.86 71.5598 160.86C69.5498 160.86 67.9198 162.44 67.9198 164.5C67.9198 166.56 69.5498 168.14 71.5598 168.14ZM71.5598 166.58C70.4198 166.58 69.5198 165.75 69.5198 164.5C69.5198 163.25 70.4198 162.42 71.5598 162.42C72.6998 162.42 73.5998 163.25 73.5998 164.5C73.5998 165.75 72.6998 166.58 71.5598 166.58Z" fill="white"></path> </g> </g> </g> <defs> <linearGradient id="paint0_linear" x1="-127.033" y1="-25.9102" x2="-98.3585" y2="369.644" gradientUnits="userSpaceOnUse"> <stop stop-color="#F3F4F6"></stop> <stop offset="0.549394" stop-color="#A597FE"></stop> <stop offset="0.794532" stop-color="#826DFE"></stop> <stop offset="1" stop-color="#4F7CFF"></stop> </linearGradient> <linearGradient id="paint1_linear" x1="114.313" y1="186.13" x2="118.776" y2="147.097" gradientUnits="userSpaceOnUse"> <stop stop-color="#2A264D"></stop> <stop offset="1" stop-color="#5F5ACE"></stop> </linearGradient> </defs> </svg> 