<?xml version="1.0" encoding="UTF-8"?> <svg xmlns="http://www.w3.org/2000/svg" width="112" height="64" viewBox="0 0 112 64" fill="none"> <g clip-path="url(#clip0)" fill-rule="evenodd" clip-rule="evenodd"> <path d="M0 49.816h.455V14H0v35.816zm10.674 0h.506v-6.374l-.506-.253v6.627zm.506-12.8v-9.762l-.253.202-.253.253v8.7l.253.304.253.304zm0-15.529V14h-.506v7.639l.506-.152zm11.787 28.329h.505v-6.273l-.303.101-.152.101v6.07h-.05zm.505-12.394V14h-.505v23.877l.505-.455zm10.22 12.394h.505V14h-.506v35.816z" fill="#858686"></path> <path d="M26.81 23.814v.303l.102.304.05.354.051.405.051.455.05.557.051.505v.607l.05.658v1.366l-.05.708-.05.658-.05.658-.103.607-.151.759-.202.808-.254.71-.252.758-.355.708-.404.708-.455.658-.506.556-.354.354-.355.304-.354.303-.404.253-.405.254-.455.201-.405.203-.456.203-.455.1-.455.152-.96.203-.911.152h-1.872l-.91-.152-.86-.203-.911-.252-.405-.152-.405-.203-.404-.202-.405-.202-.405-.254-.354-.252-.354-.355-.303-.303-.304-.253-.253-.354-.253-.304-.203-.354-.201-.354-.203-.303-.304-.76-.202-.758-.152-.81-.1-.809v-1.264l.05-.456.1-.91.204-.86.151-.405.101-.405.203-.354.152-.354.252-.303.203-.304.252-.253.304-.253.304-.202.303-.152.304-.202.354-.102.354-.1.354-.102.404-.05.406-.051h1.163l.506.101.556.05.506.102.506.101.506.203.202.1.202.102.203.151.152.152.202.203.101.202.152.253.1.303.052.253.05.304.05.607v.607l-.05.607-.101.557-.101.253-.051.252-.05.051-.05.101-.052.152-.05.101-.152.101-.151.152-.203.05-.203.051h-.808l-.456-.05-.202-.05-.152-.052-.101-.05-.05-.05-.102-.152-.05-.152-.051-.203v-.202l.05-.253.101-.405.102-.404v-.506l-.05-.152-.153-.1-.151-.102-.253-.101-.304-.051-.354-.05h-.759l-.354.1-.152.102-.152.05-.151.152-.152.152-.101.152-.101.252-.102.304-.05.354-.101.355-.05.353v.355l.05.354.05.404.101.304.203.354.152.354.202.253.253.253.203.203.252.151.253.152.303.152.355.152.354.1.405.101.404.051.405.051.405.05h.506l.505-.05h.456l.455-.102.455-.1.405-.152.354-.203.354-.202.253-.202.253-.253.202-.253.203-.202.202-.254.101-.252.304-.507.152-.606.151-.607.051-.608.101-.708.051-.556v-1.113l-.102-.506-.1-.556-.152-.456-.203-.506-.253-.505-.252-.405-.304-.455-.354-.405-.405-.303-.455-.355-.455-.303-.557-.253-.506-.253-.91-.303-.86-.203-.911-.1-.91-.102-.911-.05-.86.1-.86.101-.86.254-.405.151-.404.101-.405.203-.354.202-.354.203-.405.252-.354.254-.304.303-.303.253-.304.354-.303.354-.253.354-.253.405-.253.405-.203.455-.201.455-.254.81-.253.86-.151.86-.101.91-.102.86v.91l.05.91.102.861.152.86.253.86.253.86.354.76.354.808.506.709.506.759.607.657.303.303.405.355.354.354.405.253.86.506.86.455.91.404.911.355.96.252.962.152 1.012.101 1.012.102h.96l1.013-.102 1.011-.1.962-.203.91-.253.91-.354.658-.253.607-.304.557-.303.556-.355.506-.353.506-.405.455-.405.455-.455.405-.455.405-.506.354-.506.354-.557.303-.556.254-.607.303-.607.253-.658.203-.708.252-.759.152-.81.152-.707.1-.81.052-.759.1-.809v-2.276l-.05-.658-.05-.658-.051-.607-.05-.657-.152-.557v-.303l-.051-.202-.05-.152-.05-.102-.103-.05-.05-.05-.151-.102-.152-.05-2.176-.456h-.252l-.254.051h-.1l-.102.101-.101.1v.153z" fill="#ECB027"></path> <path d="M48.26 16.175h-2.58v1.568h2.53v.91h-2.53v2.176h2.58v.91H44.67v-6.474h3.591v.91zm2.681-.91v4.451l.051.304.152.253.202.253.101.151.152.051.152.101.152.051.202.05h.455l.202-.05.152-.05.203-.102.151-.05.101-.152.102-.101.1-.152.102-.253.05-.304.052-.303v-4.148h1.011v4.148l-.05.405-.102.455-.05.202-.152.202-.101.203-.152.253-.152.152-.202.1-.152.152-.202.102-.253.1-.253.052-.304.1h-.657l-.253-.1-.304-.051-.202-.101-.253-.102-.152-.151-.152-.101-.151-.152-.203-.253-.1-.203-.102-.202-.05-.202-.102-.455-.05-.405v-4.148h1.011zm6.931 0h.556l.253.05.253.05.202.052.152.1.354.152.253.152.203.253.1.202.102.253.05.253.051.152.051.152v.152l-.05.353-.102.304-.101.303-.152.254-.253.202-.253.202-.303.101-.304.102 2.023 2.782h-1.214l-1.87-2.681h-.153v2.68h-1.012v-6.575h1.164zm-.203 2.984h.456l.151-.05.253-.05.254-.102.201-.152.203-.152.101-.1.05-.152.052-.152v-.304l-.051-.151-.051-.152-.05-.101-.152-.152-.202-.102-.253-.1-.254-.051-.201-.05h-.507v2.073zm10.877.253l-.05.354-.051.355-.051.303-.101.304-.152.303-.152.304-.151.252-.253.253-.254.254-.252.201-.304.152-.303.152-.304.102-.354.1-.354.051h-.709l-.353-.05-.355-.101-.303-.102-.304-.152-.303-.151-.253-.202-.253-.254-.202-.253-.203-.252-.151-.304-.101-.303-.102-.304-.101-.303-.05-.355v-.708l.05-.354.101-.303.102-.304.1-.303.152-.253.203-.254.202-.252.253-.203.253-.202.303-.152.304-.151.303-.102.355-.1.353-.052h.71l.353.051.354.101.304.102.303.152.304.151.252.202.254.203.253.252.151.254.152.253.152.303.1.303.052.304.05.354.05.354zm-1.012 0l-.05-.253-.051-.252-.05-.254-.052-.252-.1-.253-.102-.203-.101-.151-.152-.152-.152-.152-.202-.152-.202-.1-.203-.102-.252-.101-.253-.051-.253-.05-.253-.051-.253.05-.253.05-.253.052-.253.1-.202.102-.203.101-.202.152-.151.152-.152.152-.102.151-.1.203-.102.253-.05.252-.051.254-.05.252-.051.253.05.303.05.254.051.253.051.252.101.254.101.202.102.151.152.152.151.152.202.102.203.1.202.101.253.102.253.05.253.051h.506l.253-.05.253-.05.252-.103.203-.1.203-.101.201-.102.152-.152.152-.152.101-.151.101-.202.101-.254.051-.252.051-.253.05-.254.051-.303zm3.845-3.237h.303l.354.05.354.102.203.1.152.101.151.152.152.152.152.152.1.202.102.253.05.203.052.252v.254l-.051.303-.051.152-.05.202-.102.152-.1.202-.102.203-.202.152-.203.151-.202.101-.202.101-.203.051-.404.101h-.86v2.682H69.76v-6.526h1.619zm-.405 2.933h.455l.303-.05.254-.05.253-.101.151-.102.152-.152.101-.152.05-.201.052-.203-.051-.152-.051-.151-.05-.152-.102-.152-.151-.152-.253-.1-.152-.052-.152-.05h-.151l-.203-.05h-.455v2.023zm7.841-2.023h-2.58v1.568h2.53v.91h-2.53v2.176h2.58v.91h-3.592v-6.474h3.592v.91zm5.514 3.996h-2.732l-.759 1.569h-1.062l3.238-6.88 3.086 6.88h-1.063l-.708-1.569zm-.405-.96l-.961-2.227-1.012 2.227h1.973zm3.136 2.529v-6.93l4.756 4.957v-4.502h.961v6.88l-4.704-4.958v4.553H87.06zm-41.38 7.032v4.502l.101.303.102.253.202.253.101.101.152.152.152.05.202.051.202.05.203.052.202-.051.202-.051.203-.05.101-.051.152-.152.151-.1.101-.102.051-.152.152-.253.05-.303.05-.253v-4.25h1.013v4.2l-.05.404-.052.405-.1.252-.101.203-.152.202-.152.203-.152.151-.151.152-.203.101-.203.152-.252.102-.253.05-.303.05-.304.051-.354-.05-.253-.052-.254-.05-.252-.101-.203-.152-.202-.1-.151-.153-.152-.151-.152-.203-.152-.202-.101-.203-.101-.252-.051-.405-.05-.405v-4.198h1.011zm5.565 6.526v-6.932l4.704 4.908v-4.502h1.013v6.93l-4.705-4.957v4.552h-1.012zm7.639-6.526h1.011v6.526h-1.011v-6.526zm3.288 0l1.82 4.553 1.822-4.553h1.062l-2.883 6.93-2.884-6.93h1.063zm9.51.96h-2.58v1.569h2.479v.91h-2.479v2.176h2.58v.91H68.09v-6.525h3.592v.96zm2.833-.96h.303l.253.05.254.05.252.052.203.05.152.05.353.152.254.203.202.202.101.253.101.253.051.202.05.202.05.152v.102l-.05.353-.1.304-.102.303-.151.254-.254.252-.253.152-.303.152-.304.1 2.024 2.783h-1.214l-1.872-2.68h-.152v2.68h-1.011v-6.626h1.163zm-.203 2.984h.607l.254-.05.253-.102.202-.1.202-.203.102-.101.05-.152.05-.152v-.354l-.05-.152-.05-.1-.051-.102-.152-.152-.203-.152-.252-.1-.253-.052-.203-.05h-.556v2.074h.05zm7.437-1.518l-.152-.202-.152-.202-.202-.152-.101-.05-.202-.051h-.405l-.202.05-.152.101-.152.102-.101.101-.05.152-.051.151v.304l.05.1.05.103.102.1.101.101.152.152.253.051.607.253.455.202.354.203.253.253.203.202.1.253.152.303.051.253v.506l-.05.203-.05.202-.052.202-.202.355-.253.303-.303.253-.355.152-.404.151-.456.051-.252-.05h-.254l-.201-.102-.203-.05-.203-.101-.151-.102-.253-.253-.253-.303-.152-.304-.101-.303-.05-.355.96-.252.051.252.051.203.1.203.102.201.152.152.202.102.203.1.303.052.202-.051.203-.051.202-.101.152-.152.152-.1.1-.203.052-.203.05-.303-.05-.202-.051-.203-.101-.152-.152-.151-.152-.101-.151-.102-.304-.152-.658-.252-.202-.101-.202-.152-.254-.152-.202-.152-.202-.202-.101-.304-.152-.252v-.658l.152-.355.1-.252.203-.253.304-.253.303-.152.405-.101h.203l.252-.051.203.05h.252l.203.052.152.05.202.05.101.102.202.101.102.152.152.152.1.202.101.151-.758.506zm2.378-1.466h1.011v6.526h-1.011v-6.526zm4.755.96v5.566H87.87v-5.566h-1.467v-.96H90.4v.96h-1.517zm4.097 2.732l-2.125-3.692h1.114l1.517 2.63 1.518-2.63h1.113l-2.125 3.692v2.834H92.98v-2.834zm10.016 1.265h-2.781l-.71 1.569h-1.062l3.238-6.88 3.086 6.88h-1.062l-.709-1.569zm-.404-.961l-.962-2.226-1.011 2.226h1.973zm4.755-3.036v5.566h-1.012v-5.566h-1.518v-.96h3.997v.96h-1.467zM47.501 43.745l-.1-.202-.203-.202-.152-.102-.152-.05-.202-.05h-.405l-.202.05-.152.101-.1.05-.153.102-.05.151-.05.152v.355l.05.1.05.101.101.102.102.101.202.101.202.102.658.252.405.203.354.202.253.202.202.253.152.253.101.253.05.253v.506l-.05.203v.252l-.1.203-.153.354-.253.303-.354.254-.303.151-.405.101-.456.051h-.303l-.202-.05-.254-.052-.201-.1-.152-.051-.152-.152-.303-.253-.203-.253-.152-.354-.151-.303v-.355l.96-.202.05.202.052.254.05.202.152.151.101.203.203.1.253.102h.506l.202-.101.202-.05.101-.152.152-.152.102-.203.05-.202.05-.253-.05-.202-.05-.202-.102-.152-.152-.152-.1-.101-.153-.152-.354-.101-.657-.304-.203-.1-.202-.102-.253-.152-.203-.152-.151-.252-.152-.253-.101-.304-.05-.151v-.152l.05-.355.1-.303.103-.304.252-.252.253-.203.354-.202.355-.05.202-.051h.506l.202.05h.202l.203.101.151.051.101.05.203.152.152.152.1.152.152.151.102.203-.81.455zm4.047-.455v5.514h-1.062V43.29h-1.467v-.961h3.997v.961h-1.468zm7.842-.961l.303.05.354.051.354.101.203.101.151.102.152.151.152.152.152.202.1.203.102.202.05.253.051.253v.253l-.05.304-.051.151-.05.152-.102.202-.101.203-.1.151-.204.152-.202.152-.202.152-.203.1-.202.051-.405.051-.404.05h-.455v2.631H57.77V42.38h1.62v-.05zm-.456 2.934h.456l.303-.051.253-.05.253-.102.151-.1.152-.152.102-.152.05-.203.05-.253-.05-.151-.05-.152-.051-.152-.101-.151-.152-.152-.253-.152-.152-.05-.152-.05-.151-.052h-.658v2.125zm7.69-1.973h-2.58v1.518h2.529v.961h-2.53v2.125h2.58v.91h-3.591V42.33h3.591v.961zm3.44 0v5.514h-.962V43.29h-1.517v-.961h3.996v.961h-1.518zm6.373 0h-2.58v1.518h2.53v.961h-2.53v2.125h2.58v.91h-3.591V42.33h3.591v.961zm2.833-.961h.304l.253.05.252.051.254.05.202.051.151.051.355.152.252.202.203.202.1.253.103.253.05.202.05.203.051.151v.101l-.05.355-.051.303-.152.304-.152.253-.202.253-.253.152-.304.151h-.404l2.024 2.782h-1.214l-1.872-2.68h-.152v2.68h-1.012V42.33h1.214zm-.202 2.985h.607l.253-.051.253-.101.202-.102.203-.202.1-.101.051-.152.051-.152v-.404l-.05-.152-.052-.1-.05-.103-.151-.151-.203-.152-.253-.101-.202-.05-.253-.05h-.557v2.124h.05zm7.234-1.569l-.101-.202-.203-.202-.152-.102-.151-.05-.202-.05h-.405l-.202.05-.152.101-.102.05-.1.102-.102.151-.05.152v.355l.05.1.101.101.051.102.101.101.203.101.202.102.657.252.405.203.354.202.253.202.202.253.152.253.101.253.051.253.05.303-.05.203-.05.203v.252l-.102.203-.152.354-.252.303-.355.254-.303.151-.405.101-.455.051h-.303l-.203-.05-.253-.052-.202-.1-.152-.051-.152-.152-.253-.253-.253-.253-.152-.354-.151-.303v-.355l.961-.202.05.202.05.254.052.202.151.151.152.203.152.1.253.102h.506l.202-.101.202-.05.102-.152.152-.152.1-.203.051-.202.05-.253-.05-.202-.05-.202-.101-.152-.152-.152-.102-.101-.151-.152-.354-.101-.658-.304-.152-.1-.252-.102-.254-.152-.202-.152-.151-.252-.152-.253-.102-.304-.05-.151v-.152l.05-.355.102-.303.151-.304.202-.252.254-.203.353-.202.355-.05.202-.051h.506l.202.05h.203l.202.101.152.051.151.05.152.152.152.152.102.152.151.151.101.203-.81.455zm3.39-1.416h.303l.252.05.254.051.202.05.151.051.152.051.304.152.101.1.152.102.101.101.101.152.102.202.1.253.051.253v.556l-.101.304-.05.151-.102.152-.101.152-.152.152.253.102.253.1.202.152.152.203.102.202.1.253.052.253.05.252v.152l-.05.152-.051.203-.051.202-.101.253-.101.202-.152.253-.202.152-.203.152-.202.1-.203.102-.252.05-.455.051H88.68V42.38h1.011v-.05zm0 2.782h.404l.151-.05.203-.05.152-.052.151-.1.152-.152.051-.102.05-.1.051-.153.05-.151-.05-.152v-.152l-.1-.203-.103-.151-.151-.101-.152-.101-.152-.051-.353-.05h-.304v1.871h-.05zm0 2.783h.809l.152-.051.303-.101.253-.102.151-.151.101-.152.102-.152.05-.152.051-.152-.05-.151-.05-.152-.103-.152-.1-.152-.152-.151-.253-.101-.303-.051-.152-.05h-.81v1.973zm5.31-5.565v4.199l.052.303.05.253.101.303.202.253.152.102.152.1.101.052.202.1.203.051h.404l.203-.05.203-.101.151-.051.152-.101.101-.102.1-.151.103-.101.1-.304.101-.253.051-.303v-4.2h.962v4.2l-.051.404-.051.405-.1.253-.102.202-.152.203-.151.202-.152.152-.152.152-.203.1-.202.102-.253.101-.252.101-.254.051h-.657l-.304-.05-.253-.102-.253-.102-.202-.1-.202-.101-.152-.152-.102-.152-.201-.202-.152-.203-.102-.202-.05-.253-.102-.405V42.33h.962zm6.931 0h.304l.253.05.253.051.252.05.203.051.152.051.354.152.253.202.202.202.101.253.101.253.051.202.051.203.05.151v.101l-.05.355-.102.303-.101.304-.152.253-.252.253-.254.152-.303.151-.304.101 2.024 2.783h-1.214l-1.872-2.682h-.152v2.682h-1.011V42.43h1.163v-.101zm-.152 2.985h.607l.254-.051.252-.101.203-.102.202-.202.102-.101.05-.152.05-.152v-.404l-.05-.152-.05-.1-.051-.103-.152-.151-.203-.152-.252-.101-.203-.05-.253-.05h-.556v2.124h.05zm7.538.151H112v.911l-.051.304-.101.252-.101.304-.151.253-.152.303-.152.152-.152.202-.253.203-.304.202-.303.151-.405.102-.404.152h-.861l-.353-.05-.304-.102-.354-.102-.253-.151-.253-.152-.253-.152-.202-.202-.253-.253-.203-.303-.151-.304-.152-.253-.101-.354-.101-.354v-.303l-.051-.355.051-.252v-.304l.101-.303.051-.304.151-.253.101-.354.203-.303.253-.304.354-.253.304-.253.303-.152.304-.152.353-.05.304-.05.303-.051h.557l.354.05.253.05.253.051.203.101.252.102.405.253.202.151.152.152.354.405-.708.657-.152-.202-.202-.202-.203-.203-.303-.151-.253-.152-.253-.1-.304-.052h-.809l-.253.051-.202.101-.202.1-.203.153-.202.101-.152.152-.202.202-.101.203-.152.202-.051.202-.101.253-.051.202-.05.254v.556l.05.253.051.202.101.253.051.203.152.202.101.202.151.152.203.151.152.152.202.152.253.05.202.102.203.05.252.051h.607l.355-.151.303-.102.304-.202.202-.303.202-.254.152-.303.051-.354h-1.619v-.91zm-55.798 2.277l.152.05h.102l.1.05.101.102.051.101.101.05v.507l-.1.1-.052.102-.1.101-.101.051h-.507l-.1-.05-.051-.102-.101-.102-.051-.1-.051-.101v-.254l.05-.151.052-.05.1-.102.051-.101.101-.051h.101l.152-.05z" fill="#858686"></path> </g> <defs> <clipPath id="clip0"> <path fill="#fff" d="M0 0h112v64H0z"></path> </clipPath> </defs> </svg> 