<?xml version="1.0" encoding="iso-8859-1"?>
<!-- Generator: Adobe Illustrator 21.0.0, SVG Export Plug-In . SVG Version: 6.00 Build 0)  -->
<svg version="1.1" id="Layer_1" xmlns="http://www.w3.org/2000/svg" xmlns:xlink="http://www.w3.org/1999/xlink" x="0px" y="0px"
	 viewBox="0 0 100.354 100.352" style="enable-background:new 0 0 100.354 100.352;" xml:space="preserve">
<g>
	<path d="M49.001,10.408C27.17,10.408,9.409,28.169,9.409,50c0,21.831,17.761,39.591,39.592,39.591S88.592,71.83,88.592,50
		C88.592,28.168,70.832,10.408,49.001,10.408z M49.001,86.591c-20.177,0-36.592-16.415-36.592-36.591
		c0-20.177,16.415-36.592,36.592-36.592S85.592,29.823,85.592,50C85.592,70.176,69.178,86.591,49.001,86.591z"/>
	<path d="M65.209,56.228H32.796c-0.829,0-1.5,0.671-1.5,1.5c0,9.763,7.942,17.706,17.705,17.706c9.764,0,17.708-7.943,17.708-17.706
		C66.709,56.899,66.038,56.228,65.209,56.228z M49.001,72.434c-7.602,0-13.875-5.799-14.629-13.206h29.261
		C62.879,66.635,56.605,72.434,49.001,72.434z"/>
	<path d="M39.595,38.176c0-3.67-2.986-6.655-6.657-6.655c-3.669,0-6.654,2.985-6.654,6.655c0,3.671,2.985,6.657,6.654,6.657
		C36.608,44.833,39.595,41.847,39.595,38.176z M29.284,38.176c0-2.016,1.639-3.655,3.654-3.655c2.017,0,3.657,1.64,3.657,3.655
		c0,2.017-1.641,3.657-3.657,3.657C30.923,41.833,29.284,40.193,29.284,38.176z"/>
	<path d="M64.328,31.521c-3.671,0-6.657,2.985-6.657,6.655c0,3.671,2.986,6.657,6.657,6.657s6.657-2.986,6.657-6.657
		C70.985,34.506,67.999,31.521,64.328,31.521z M64.328,41.833c-2.017,0-3.657-1.641-3.657-3.657c0-2.016,1.641-3.655,3.657-3.655
		s3.657,1.64,3.657,3.655C67.985,40.193,66.344,41.833,64.328,41.833z"/>
</g>
</svg>
