<?xml version="1.0" encoding="UTF-8"?> <svg xmlns="http://www.w3.org/2000/svg" width="130" height="128" viewBox="0 0 130 128" fill="none"> <path d="M119.615 102V102C119.617 104.548 121.683 106.614 124.231 106.615V106.615V106.615C121.683 106.617 119.617 108.683 119.615 111.231V111.231V111.231C119.614 108.683 117.548 106.617 115 106.615V106.615V106.615C117.548 106.614 119.614 104.548 119.615 102V102Z" stroke="url(#paint0_linear_910_310)" stroke-width="3" stroke-linejoin="round"></path> <path d="M98.3875 56.3874L86.2782 68.4966L81.0473 63.2657" stroke="url(#paint1_linear_910_310)" stroke-width="6" stroke-linejoin="round"></path> <path d="M68 37.4999C68 23.0002 55.8082 11.9999 41.1534 11.9999H37.7461C37.334 11.9999 37 12.3304 37 12.7381V76.5666C37 76.9743 37.334 77.3048 37.7461 77.3048H42.8926C56.3706 77.3048 67.3023 87.8832 68 101" stroke="url(#paint2_linear_910_310)" stroke-width="8" stroke-linejoin="round"></path> <line x1="68" y1="27.9999" x2="68" y2="98.7978" stroke="url(#paint3_linear_910_310)" stroke-width="8"></line> <g opacity="0.65" filter="url(#filter0_f_910_310)"> <rect x="31.5" y="107.5" width="11" height="25" transform="rotate(-180 31.5 107.5)" stroke="url(#paint4_linear_910_310)" stroke-width="11"></rect> </g> <rect x="24" y="31" width="86" height="67" rx="10" stroke="url(#paint5_linear_910_310)" stroke-width="8"></rect> <rect x="120" y="52.0001" width="20" height="46" rx="9" transform="rotate(-180 120 52.0001)" stroke="url(#paint6_linear_910_310)" stroke-width="2"></rect> <defs> <filter id="filter0_f_910_310" x="0" y="62.0001" width="52" height="66" filterUnits="userSpaceOnUse" color-interpolation-filters="sRGB"> <feFlood flood-opacity="0" result="BackgroundImageFix"></feFlood> <feBlend mode="normal" in="SourceGraphic" in2="BackgroundImageFix" result="shape"></feBlend> <feGaussianBlur stdDeviation="7.5" result="effect1_foregroundBlur_910_310"></feGaussianBlur> </filter> <linearGradient id="paint0_linear_910_310" x1="117.957" y1="109.091" x2="116.991" y2="103.769" gradientUnits="userSpaceOnUse"> <stop stop-color="#564DE2"></stop> <stop offset="1" stop-color="#68AEFF"></stop> </linearGradient> <linearGradient id="paint1_linear_910_310" x1="78.3925" y1="60.6108" x2="89.1913" y2="66.9031" gradientUnits="userSpaceOnUse"> <stop stop-color="#6C63FF"></stop> <stop offset="1" stop-color="#7AB7FE"></stop> </linearGradient> <linearGradient id="paint2_linear_910_310" x1="42.3832" y1="-39.4181" x2="119.537" y2="11.4454" gradientUnits="userSpaceOnUse"> <stop stop-color="#4BFFDF"></stop> <stop offset="1" stop-color="#4D9FFF"></stop> </linearGradient> <linearGradient id="paint3_linear_910_310" x1="63.2319" y1="50.6807" x2="63.8273" y2="50.6792" gradientUnits="userSpaceOnUse"> <stop stop-color="#564DE2"></stop> <stop offset="1" stop-color="#68AEFF"></stop> </linearGradient> <linearGradient id="paint4_linear_910_310" x1="59" y1="167.271" x2="27.5496" y2="135.783" gradientUnits="userSpaceOnUse"> <stop stop-color="#6C63FF"></stop> <stop offset="1" stop-color="#7AB7FE"></stop> </linearGradient> <linearGradient id="paint5_linear_910_310" x1="51.5509" y1="82.4652" x2="46.0159" y2="43.3512" gradientUnits="userSpaceOnUse"> <stop stop-color="#564DE2"></stop> <stop offset="1" stop-color="#68AEFF"></stop> </linearGradient> <linearGradient id="paint6_linear_910_310" x1="128.048" y1="89.8706" x2="118.258" y2="65.1673" gradientUnits="userSpaceOnUse"> <stop stop-color="#564DE2"></stop> <stop offset="1" stop-color="#68AEFF"></stop> </linearGradient> </defs> </svg> 