<?xml version="1.0" encoding="UTF-8"?> <svg xmlns="http://www.w3.org/2000/svg" xmlns:xlink="http://www.w3.org/1999/xlink" width="1083px" height="69px" viewBox="0 0 1083 69"> <!-- Generator: Sketch 63.1 (92452) - https://sketch.com --> <title>Менятьтарифныепланылегко;)</title> <desc>Created with Sketch.</desc> <g id="Page-1" stroke="none" stroke-width="1" fill="none" fill-rule="evenodd"> <path d="M10.96,55 L10.96,27.324 L23.268,47.52 L24.492,47.52 L36.8,27.324 L36.8,55 L47.68,55 L47.68,7.4 L36.8,7.4 L23.88,28.548 L10.96,7.4 L0.08,7.4 L0.08,55 L10.96,55 Z M73.486,55.952 C79.946,55.952 84.978,53.572 88.31,48.948 L80.15,44.256 C78.79,45.752 76.41,46.84 73.622,46.84 C69.882,46.84 66.754,45.616 65.462,42.08 L89.602,42.08 C89.874,40.788 90.01,39.428 90.01,38 C90.01,27.732 82.666,20.048 72.738,20.048 C61.994,20.048 54.65,27.868 54.65,38 C54.65,48.132 61.858,55.952 73.486,55.952 Z M79.878,34.464 L65.258,34.464 C66.21,30.996 68.794,29.092 72.67,29.092 C75.73,29.092 78.79,30.52 79.878,34.464 Z M106.84,55 L106.84,42.76 L118.4,42.76 L118.4,55 L128.6,55 L128.6,21 L118.4,21 L118.4,33.24 L106.84,33.24 L106.84,21 L96.64,21 L96.64,55 L106.84,55 Z M146.11,55 L153.114,45.208 L155.222,45.208 L155.222,55 L165.15,55 L165.15,21 L148.558,21 C140.33,21 135.91,27.12 135.91,33.104 C135.91,37.32 138.29,41.672 142.506,43.78 L134.55,55 L146.11,55 Z M155.222,36.776 L149.442,36.776 C147.266,36.776 145.838,35.552 145.838,33.444 C145.838,31.268 147.266,29.976 149.442,29.976 L155.222,29.976 L155.222,36.776 Z M190.888,55 L190.888,30.792 L201.02,30.792 L201.02,21 L170.42,21 L170.42,30.792 L180.688,30.792 L180.688,55 L190.888,55 Z M222.202,55 C230.43,55 235.53,50.24 235.53,43.1 C235.53,35.96 230.43,31.2 222.202,31.2 L216.49,31.2 L216.49,21 L206.29,21 L206.29,55 L222.202,55 Z M222.27,46.16 L216.49,46.16 L216.49,40.04 L222.27,40.04 C224.31,40.04 225.602,41.332 225.602,43.1 C225.602,44.868 224.31,46.16 222.27,46.16 Z M276.738,55 L276.738,30.792 L286.87,30.792 L286.87,21 L256.27,21 L256.27,30.792 L266.538,30.792 L266.538,55 L276.738,55 Z M305.332,55.952 C309.888,55.952 313.22,54.388 315.464,51.804 L315.464,55 L325.664,55 L325.664,21 L315.464,21 L315.464,24.196 C313.22,21.612 309.888,20.048 305.332,20.048 C296.424,20.048 289.08,27.868 289.08,38 C289.08,48.132 296.424,55.952 305.332,55.952 Z M307.372,46.296 C302.68,46.296 299.28,43.1 299.28,38 C299.28,32.9 302.68,29.704 307.372,29.704 C312.064,29.704 315.464,32.9 315.464,38 C315.464,43.1 312.064,46.296 307.372,46.296 Z M344.194,68.6 L344.194,51.804 C346.438,54.388 349.77,55.952 354.326,55.952 C363.234,55.952 370.578,48.132 370.578,38 C370.578,27.868 363.234,20.048 354.326,20.048 C349.77,20.048 346.438,21.612 344.194,24.196 L344.194,21 L333.994,21 L333.994,68.6 L344.194,68.6 Z M352.286,46.296 C347.594,46.296 344.194,43.1 344.194,38 C344.194,32.9 347.594,29.704 352.286,29.704 C356.978,29.704 360.378,32.9 360.378,38 C360.378,43.1 356.978,46.296 352.286,46.296 Z M384.688,55 L399.24,38 L399.24,55 L409.168,55 L409.168,21 L401.688,21 L387.136,38 L387.136,21 L377.208,21 L377.208,55 L384.688,55 Z M442.182,68.6 L442.182,55.408 C452.586,53.776 458.638,46.772 458.638,38 C458.638,29.228 452.586,22.224 442.182,20.592 L442.182,7.4 L432.254,7.4 L432.254,20.592 C421.85,22.224 415.798,29.228 415.798,38 C415.798,46.772 421.85,53.776 432.254,55.408 L432.254,68.6 L442.182,68.6 Z M432.254,45.684 C428.038,44.528 425.862,41.74 425.862,38 C425.862,34.26 428.038,31.472 432.254,30.316 L432.254,45.684 Z M442.182,45.684 L442.182,30.316 C446.398,31.472 448.574,34.26 448.574,38 C448.574,41.74 446.398,44.528 442.182,45.684 Z M475.468,55 L475.468,42.76 L487.028,42.76 L487.028,55 L497.228,55 L497.228,21 L487.028,21 L487.028,33.24 L475.468,33.24 L475.468,21 L465.268,21 L465.268,55 L475.468,55 Z M521.47,55 C529.698,55 534.798,50.24 534.798,43.1 C534.798,35.96 529.698,31.2 521.47,31.2 L515.758,31.2 L515.758,21 L505.558,21 L505.558,55 L521.47,55 Z M548.398,55 L548.398,21 L538.198,21 L538.198,55 L548.398,55 Z M521.538,46.16 L515.758,46.16 L515.758,40.04 L521.538,40.04 C523.578,40.04 524.87,41.332 524.87,43.1 C524.87,44.868 523.578,46.16 521.538,46.16 Z M573.864,55.952 C580.324,55.952 585.356,53.572 588.688,48.948 L580.528,44.256 C579.168,45.752 576.788,46.84 574,46.84 C570.26,46.84 567.132,45.616 565.84,42.08 L589.98,42.08 C590.252,40.788 590.388,39.428 590.388,38 C590.388,27.732 583.044,20.048 573.116,20.048 C562.372,20.048 555.028,27.868 555.028,38 C555.028,48.132 562.236,55.952 573.864,55.952 Z M580.256,34.464 L565.636,34.464 C566.588,30.996 569.172,29.092 573.048,29.092 C576.108,29.092 579.168,30.52 580.256,34.464 Z M625.068,55 L625.068,30.52 L636.628,30.52 L636.628,55 L646.828,55 L646.828,21 L614.868,21 L614.868,55 L625.068,55 Z M667.194,40.924 L667.194,30.792 L674.538,30.792 L674.538,55 L684.738,55 L684.738,21 L656.994,21 L656.994,40.244 C656.994,44.46 655.294,46.432 652.098,45.48 L652.098,55 C662.026,56.156 667.194,51.192 667.194,40.924 Z M707.62,55.952 C712.176,55.952 715.508,54.388 717.752,51.804 L717.752,55 L727.952,55 L727.952,21 L717.752,21 L717.752,24.196 C715.508,21.612 712.176,20.048 707.62,20.048 C698.712,20.048 691.368,27.868 691.368,38 C691.368,48.132 698.712,55.952 707.62,55.952 Z M709.66,46.296 C704.968,46.296 701.568,43.1 701.568,38 C701.568,32.9 704.968,29.704 709.66,29.704 C714.352,29.704 717.752,32.9 717.752,38 C717.752,43.1 714.352,46.296 709.66,46.296 Z M746.482,55 L746.482,42.76 L758.042,42.76 L758.042,55 L768.242,55 L768.242,21 L758.042,21 L758.042,33.24 L746.482,33.24 L746.482,21 L736.282,21 L736.282,55 L746.482,55 Z M792.484,55 C800.712,55 805.812,50.24 805.812,43.1 C805.812,35.96 800.712,31.2 792.484,31.2 L786.772,31.2 L786.772,21 L776.572,21 L776.572,55 L792.484,55 Z M819.412,55 L819.412,21 L809.212,21 L809.212,55 L819.412,55 Z M792.552,46.16 L786.772,46.16 L786.772,40.04 L792.552,40.04 C794.592,40.04 795.884,41.332 795.884,43.1 C795.884,44.868 794.592,46.16 792.552,46.16 Z M857.628,40.924 L857.628,30.792 L864.972,30.792 L864.972,55 L875.172,55 L875.172,21 L847.428,21 L847.428,40.244 C847.428,44.46 845.728,46.432 842.532,45.48 L842.532,55 C852.46,56.156 857.628,51.192 857.628,40.924 Z M900.638,55.952 C907.098,55.952 912.13,53.572 915.462,48.948 L907.302,44.256 C905.942,45.752 903.562,46.84 900.774,46.84 C897.034,46.84 893.906,45.616 892.614,42.08 L916.754,42.08 C917.026,40.788 917.162,39.428 917.162,38 C917.162,27.732 909.818,20.048 899.89,20.048 C889.146,20.048 881.802,27.868 881.802,38 C881.802,48.132 889.01,55.952 900.638,55.952 Z M907.03,34.464 L892.41,34.464 C893.362,30.996 895.946,29.092 899.822,29.092 C902.882,29.092 905.942,30.52 907.03,34.464 Z M933.992,55 L933.992,30.792 L947.592,30.792 L947.592,21 L923.792,21 L923.792,55 L933.992,55 Z M963.062,55 L963.062,39.972 L973.942,55 L985.502,55 L972.786,38 L985.162,21 L973.262,21 L963.062,35.892 L963.062,21 L952.862,21 L952.862,55 L963.062,55 Z M1004.372,55.952 C1014.368,55.952 1022.392,48.132 1022.392,38 C1022.392,27.868 1014.368,20.048 1004.372,20.048 C994.376,20.048 986.352,27.868 986.352,38 C986.352,48.132 994.376,55.952 1004.372,55.952 Z M1004.372,46.024 C999.952,46.024 996.552,42.828 996.552,38 C996.552,33.172 999.952,29.976 1004.372,29.976 C1008.792,29.976 1012.192,33.172 1012.192,38 C1012.192,42.828 1008.792,46.024 1004.372,46.024 Z M1053.332,32.832 C1056.868,32.832 1059.792,29.908 1059.792,26.372 C1059.792,22.836 1056.868,19.912 1053.332,19.912 C1049.796,19.912 1046.872,22.836 1046.872,26.372 C1046.872,29.908 1049.796,32.832 1053.332,32.832 Z M1054.352,64.52 L1059.792,44.46 L1048.912,44.46 L1046.192,64.52 L1054.352,64.52 Z M1074.582,61.8 C1079.342,52.28 1082.062,42.08 1082.062,31.2 C1082.062,20.32 1079.342,10.12 1074.582,0.6 L1064.382,0.6 C1069.142,10.12 1071.862,20.32 1071.862,31.2 C1071.862,42.08 1069.142,52.28 1064.382,61.8 L1074.582,61.8 Z" id="Менятьтарифныепланылегко;)" fill="#6C7BDF" fill-rule="nonzero"></path> </g> </svg> 