<?xml version="1.0" encoding="UTF-8"?> <svg xmlns="http://www.w3.org/2000/svg" width="248" height="40" viewBox="0 0 248 40" fill="none"> <path d="M39.1484 1.66668L39.1484 38.3333L2.48177 38.3333L39.1484 1.66668Z" fill="black"></path> <rect x="24.1484" y="31.6667" width="10" height="1.66667" fill="white"></rect> <mask id="mask0_7697_17320" style="mask-type:alpha" maskUnits="userSpaceOnUse" x="2" y="1" width="38" height="38"> <path d="M2.48193 38.3333V1.66666H39.2429L2.48193 38.3333Z" fill="white"></path> </mask> <g mask="url(#mask0_7697_17320)"> <path d="M20.8623 56.6656L-15.8979 19.9996L20.8623 -16.6663L57.6232 19.9996L20.8623 56.6656Z" fill="url(#paint0_linear_7697_17320)"></path> </g> <path d="M57.3952 16.94C58.9152 16.94 60.1752 16.5 61.0352 15.64C61.8752 14.8 62.3552 13.56 62.3552 11.9V2.74001H59.1952V11.76C59.1952 13.38 58.4752 14.08 57.3152 14.08C56.3352 14.08 55.5552 13.56 54.7552 12.68L52.8152 14.84C53.7752 15.98 55.2152 16.94 57.3952 16.94Z" fill="black"></path> <path d="M70.2642 16.98C72.2042 16.98 73.6442 16.22 74.6442 14.98L72.9042 13.44C72.0642 14.22 71.3242 14.54 70.3042 14.54C68.9442 14.54 67.9842 13.82 67.6842 12.44H75.1442C75.1642 12.16 75.1842 11.88 75.1842 11.64C75.1842 8.60002 73.5442 5.82001 69.9642 5.82001C66.8442 5.82001 64.6642 8.34001 64.6642 11.4C64.6642 14.72 67.0442 16.98 70.2642 16.98ZM67.6442 10.54C67.8842 9.16002 68.7042 8.26001 69.9642 8.26001C71.2442 8.26001 72.0442 9.18001 72.2242 10.54H67.6442Z" fill="black"></path> <path d="M81.0699 16.92C82.0899 16.92 82.8299 16.68 83.4699 16.3V13.86C83.0299 14.1 82.5299 14.24 81.9699 14.24C81.2899 14.24 80.9899 13.9 80.9899 13.2V8.62001H83.5099V6.02001H80.9899V3.28001H77.9499V6.02001H76.6699V8.62001H77.9499V13.7C77.9499 16.18 79.2099 16.92 81.0699 16.92Z" fill="black"></path> <path d="M86.0707 16.74H92.7307C95.8907 16.74 97.9707 15.46 97.9707 12.9C97.9707 10.98 96.9707 10.04 95.3507 9.42001C96.3507 8.86001 97.1907 7.98001 97.1907 6.40001C97.1907 5.40001 96.8707 4.62001 96.2307 3.98001C95.4307 3.18001 94.1707 2.74001 92.5707 2.74001H86.0707V16.74ZM89.0707 8.40001V5.44002H92.1107C93.4107 5.44002 94.1307 5.96001 94.1307 6.88001C94.1307 7.96001 93.2707 8.40001 91.9107 8.40001H89.0707ZM89.0707 14.04V10.96H92.6307C94.2107 10.96 94.9107 11.54 94.9107 12.48C94.9107 13.56 94.0907 14.04 92.7307 14.04H89.0707Z" fill="black"></path> <path d="M100.184 16.74H103.224V12.78C103.224 10.22 104.464 9.00001 106.484 9.00001H106.644V5.82001C104.844 5.74001 103.844 6.70001 103.224 8.18001V6.02001H100.184V16.74Z" fill="black"></path> <path d="M111.076 16.94C112.556 16.94 113.576 16.4 114.316 15.58V16.74H117.256V10.52C117.256 9.08001 116.896 7.90001 116.096 7.10001C115.336 6.34001 114.136 5.90001 112.476 5.90001C110.656 5.90001 109.496 6.24001 108.316 6.76001L109.076 9.08001C110.056 8.72001 110.876 8.50001 112.036 8.50001C113.556 8.50001 114.336 9.20001 114.336 10.46V10.64C113.576 10.38 112.796 10.2 111.716 10.2C109.176 10.2 107.396 11.28 107.396 13.62C107.396 15.78 109.056 16.94 111.076 16.94ZM111.996 14.84C111.016 14.84 110.336 14.36 110.336 13.54C110.336 12.54 111.136 12.02 112.436 12.02C113.176 12.02 113.856 12.18 114.376 12.42V12.96C114.376 14.06 113.416 14.84 111.996 14.84Z" fill="black"></path> <path d="M119.932 4.84001H123.132V2.14001H119.932V4.84001ZM120.012 16.74H123.052V6.02001H120.012V16.74Z" fill="black"></path> <path d="M125.907 16.74H128.947V10.76C128.947 9.32001 129.687 8.58001 130.847 8.58001C132.007 8.58001 132.687 9.32001 132.687 10.76V16.74H135.727V9.80001C135.727 7.34001 134.387 5.82001 132.087 5.82001C130.547 5.82001 129.647 6.64002 128.947 7.54001V6.02001H125.907V16.74Z" fill="black"></path> <path d="M142.128 16.94C144.448 16.94 146.228 15.86 146.228 13.48C146.228 11.48 144.488 10.76 142.988 10.26C141.828 9.86002 140.808 9.58001 140.808 8.98001C140.808 8.52001 141.188 8.20001 141.928 8.20001C142.708 8.20001 143.768 8.58001 144.828 9.20002L145.988 7.10001C144.828 6.32001 143.348 5.86001 141.988 5.86001C139.828 5.86001 138.068 7.08001 138.068 9.26001C138.068 11.38 139.768 12.08 141.268 12.52C142.448 12.88 143.488 13.1 143.488 13.76C143.488 14.28 143.088 14.6 142.208 14.6C141.208 14.6 139.988 14.16 138.828 13.32L137.528 15.32C138.948 16.44 140.628 16.94 142.128 16.94Z" fill="black"></path> <path d="M153.523 16.74H156.663L157.943 13.6H163.863L165.143 16.74H168.363L162.363 2.64001H159.523L153.523 16.74ZM159.043 10.88L160.903 6.34001L162.763 10.88H159.043Z" fill="black"></path> <path d="M174.756 16.98C176.896 16.98 178.096 16.16 179.136 15.02L177.356 13.22C176.616 13.92 175.916 14.36 174.896 14.36C173.236 14.36 172.176 13.04 172.176 11.4C172.176 9.78001 173.256 8.44001 174.776 8.44001C175.976 8.44001 176.616 8.88001 177.276 9.50001L179.056 7.70001C178.056 6.58001 176.816 5.82001 174.796 5.82001C171.516 5.82001 169.176 8.34001 169.176 11.4C169.176 14.5 171.536 16.98 174.756 16.98Z" fill="black"></path> <path d="M184.162 16.94C185.642 16.94 186.662 16.4 187.402 15.58V16.74H190.342V10.52C190.342 9.08001 189.982 7.90001 189.182 7.10001C188.422 6.34001 187.222 5.90001 185.562 5.90001C183.742 5.90001 182.582 6.24001 181.402 6.76001L182.162 9.08001C183.142 8.72001 183.962 8.50001 185.122 8.50001C186.642 8.50001 187.422 9.20001 187.422 10.46V10.64C186.662 10.38 185.882 10.2 184.802 10.2C182.262 10.2 180.482 11.28 180.482 13.62C180.482 15.78 182.142 16.94 184.162 16.94ZM185.082 14.84C184.102 14.84 183.422 14.36 183.422 13.54C183.422 12.54 184.222 12.02 185.522 12.02C186.262 12.02 186.942 12.18 187.462 12.42V12.96C187.462 14.06 186.502 14.84 185.082 14.84Z" fill="black"></path> <path d="M197.358 16.94C198.938 16.94 199.958 16.2 200.698 15.2V16.74H203.738V2.14001H200.698V7.42001C199.978 6.56001 198.978 5.82001 197.358 5.82001C194.818 5.82001 192.478 7.78001 192.478 11.36C192.478 14.98 194.858 16.94 197.358 16.94ZM198.138 14.36C196.718 14.36 195.518 13.18 195.518 11.4C195.518 9.56001 196.718 8.40001 198.138 8.40001C199.558 8.40001 200.738 9.58002 200.738 11.36C200.738 13.18 199.558 14.36 198.138 14.36Z" fill="black"></path> <path d="M211.534 16.98C213.474 16.98 214.914 16.22 215.914 14.98L214.174 13.44C213.334 14.22 212.594 14.54 211.574 14.54C210.214 14.54 209.254 13.82 208.954 12.44H216.414C216.434 12.16 216.454 11.88 216.454 11.64C216.454 8.60002 214.814 5.82001 211.234 5.82001C208.114 5.82001 205.934 8.34001 205.934 11.4C205.934 14.72 208.314 16.98 211.534 16.98ZM208.914 10.54C209.154 9.16002 209.974 8.26001 211.234 8.26001C212.514 8.26001 213.314 9.18001 213.494 10.54H208.914Z" fill="black"></path> <path d="M218.719 16.74H221.759V10.76C221.759 9.32001 222.459 8.58001 223.599 8.58001C224.739 8.58001 225.379 9.32001 225.379 10.76V16.74H228.419V10.76C228.419 9.32001 229.119 8.58001 230.259 8.58001C231.399 8.58001 232.039 9.32001 232.039 10.76V16.74H235.079V9.76002C235.079 7.18001 233.719 5.82001 231.459 5.82001C229.999 5.82001 228.879 6.42001 227.939 7.52001C227.379 6.44001 226.319 5.82001 224.919 5.82001C223.379 5.82001 222.459 6.64002 221.759 7.54001V6.02001H218.719V16.74Z" fill="black"></path> <path d="M239.99 20C241.81 20 242.69 19.18 243.51 17L247.63 6.02001H244.47L242.13 13.32L239.69 6.02001H236.47L240.67 16.78C240.41 17.32 240.13 17.48 239.61 17.48C239.21 17.48 238.71 17.3 238.31 17.06L237.29 19.26C238.07 19.72 238.89 20 239.99 20Z" fill="black"></path> <path d="M57.9832 28.896H55.7432V36H54.7352V28.896H53.2632V28H54.7352V26.944C54.7352 25.2267 55.5939 24.368 57.3112 24.368H57.9832V25.264H57.3272C56.2712 25.264 55.7432 25.824 55.7432 26.944V28H57.9832V28.896ZM62.9254 27.792C64.1201 27.792 65.0588 28.192 65.7414 28.992C66.4348 29.792 66.7814 30.7947 66.7814 32C66.7814 33.2053 66.4348 34.208 65.7414 35.008C65.0588 35.808 64.1201 36.208 62.9254 36.208C61.7201 36.208 60.7761 35.808 60.0934 35.008C59.4108 34.208 59.0694 33.2053 59.0694 32C59.0694 30.7947 59.4108 29.792 60.0934 28.992C60.7761 28.192 61.7201 27.792 62.9254 27.792ZM62.9254 35.312C63.8321 35.312 64.5308 34.9867 65.0214 34.336C65.5228 33.6853 65.7734 32.9067 65.7734 32C65.7734 31.0933 65.5228 30.3147 65.0214 29.664C64.5308 29.0133 63.8321 28.688 62.9254 28.688C61.9974 28.688 61.2881 29.0133 60.7974 29.664C60.3174 30.304 60.0774 31.0827 60.0774 32C60.0774 32.9173 60.3174 33.7013 60.7974 34.352C61.2881 34.992 61.9974 35.312 62.9254 35.312ZM73.2117 28V28.928H72.6037C71.8144 28.928 71.1797 29.1787 70.6997 29.68C70.2304 30.1813 69.9957 30.88 69.9957 31.776V36H68.9877V28H69.9637V28.976H70.2837C70.8277 28.3253 71.6224 28 72.6677 28H73.2117ZM84.2873 24.368C85.93 24.368 87.21 24.928 88.1273 26.048C89.0553 27.168 89.5193 28.5813 89.5193 30.288C89.5193 31.9947 89.0553 33.408 88.1273 34.528C87.21 35.648 85.93 36.208 84.2873 36.208C82.634 36.208 81.3486 35.648 80.4313 34.528C79.514 33.408 79.0553 31.9947 79.0553 30.288C79.0553 28.5813 79.514 27.168 80.4313 26.048C81.3486 24.928 82.634 24.368 84.2873 24.368ZM81.9033 34.512C82.554 35.0027 83.3486 35.248 84.2873 35.248C85.226 35.248 86.0153 35.0027 86.6553 34.512C87.306 34.0213 87.77 33.4133 88.0473 32.688C88.3246 31.9627 88.4633 31.1627 88.4633 30.288C88.4633 29.4133 88.3246 28.6133 88.0473 27.888C87.77 27.1627 87.306 26.5547 86.6553 26.064C86.0153 25.5733 85.226 25.328 84.2873 25.328C83.3486 25.328 82.554 25.5733 81.9033 26.064C81.2633 26.5547 80.8046 27.1627 80.5273 27.888C80.25 28.6133 80.1113 29.4133 80.1113 30.288C80.1113 31.1627 80.25 31.9627 80.5273 32.688C80.8046 33.4133 81.2633 34.0213 81.9033 34.512ZM96.0086 28V28.928H95.4006C94.6112 28.928 93.9766 29.1787 93.4966 29.68C93.0272 30.1813 92.7926 30.88 92.7926 31.776V36H91.7846V28H92.7606V28.976H93.0806C93.6246 28.3253 94.4192 28 95.4646 28H96.0086ZM103.815 28H104.791V35.6C104.791 36.7307 104.471 37.6267 103.831 38.288C103.202 38.96 102.316 39.296 101.175 39.296C100.183 39.296 99.3831 39.088 98.7751 38.672C98.1671 38.2667 97.7937 37.6907 97.6551 36.944H98.6471C98.8711 37.9147 99.7084 38.4 101.159 38.4C102.908 38.4 103.783 37.4667 103.783 35.6V34.896H103.463C102.866 35.632 102.018 36 100.919 36C99.8311 36 98.9617 35.616 98.3111 34.848C97.6604 34.08 97.3351 33.0987 97.3351 31.904C97.3351 30.6987 97.6604 29.712 98.3111 28.944C98.9617 28.176 99.8311 27.792 100.919 27.792C102.028 27.792 102.887 28.16 103.495 28.896H103.815V28ZM101.031 35.104C101.938 35.104 102.62 34.8 103.079 34.192C103.548 33.5733 103.783 32.8107 103.783 31.904C103.783 30.9973 103.548 30.2347 103.079 29.616C102.62 28.9973 101.938 28.688 101.031 28.688C100.188 28.688 99.5271 28.9813 99.0471 29.568C98.5777 30.144 98.3431 30.9227 98.3431 31.904C98.3431 32.8747 98.5777 33.6533 99.0471 34.24C99.5271 34.816 100.188 35.104 101.031 35.104ZM112.671 36V35.104H112.351C112.095 35.4347 111.738 35.7013 111.279 35.904C110.831 36.1067 110.325 36.208 109.759 36.208C108.853 36.208 108.143 35.9573 107.631 35.456C107.119 34.9547 106.863 34.3467 106.863 33.632C106.863 32.9067 107.103 32.288 107.583 31.776C108.074 31.264 108.831 31.008 109.855 31.008H112.639V30.512C112.639 29.968 112.463 29.5307 112.111 29.2C111.759 28.8587 111.215 28.688 110.479 28.688C109.829 28.688 109.327 28.8107 108.975 29.056C108.623 29.2907 108.431 29.6267 108.399 30.064H107.391C107.455 29.3493 107.765 28.7947 108.319 28.4C108.874 27.9947 109.594 27.792 110.479 27.792C111.45 27.792 112.218 28.0267 112.783 28.496C113.359 28.9653 113.647 29.616 113.647 30.448V36H112.671ZM109.903 35.312C110.661 35.312 111.306 35.0773 111.839 34.608C112.373 34.128 112.639 33.5253 112.639 32.8V31.856H110.127C109.402 31.856 108.842 32.0107 108.447 32.32C108.063 32.6187 107.871 33.0293 107.871 33.552C107.871 34.1067 108.053 34.5387 108.415 34.848C108.789 35.1573 109.285 35.312 109.903 35.312ZM123.118 36H122.11V31.088C122.11 29.488 121.368 28.688 119.886 28.688C119.118 28.688 118.483 28.976 117.982 29.552C117.491 30.128 117.246 30.816 117.246 31.616V36H116.238V28H117.214V28.896H117.534C117.758 28.576 118.094 28.3147 118.542 28.112C119 27.8987 119.496 27.792 120.03 27.792C120.99 27.792 121.742 28.0693 122.286 28.624C122.84 29.168 123.118 29.9093 123.118 30.848V36ZM126.762 28V36H125.754V28H126.762ZM126.81 25.632H125.706V24.368H126.81V25.632ZM135.439 36H128.975V34.784L134.191 29.2V28.896H129.247V28H135.439V29.2L130.223 34.784V35.104H135.439V36ZM142.765 36V35.104H142.445C142.189 35.4347 141.832 35.7013 141.373 35.904C140.925 36.1067 140.418 36.208 139.853 36.208C138.946 36.208 138.237 35.9573 137.725 35.456C137.213 34.9547 136.957 34.3467 136.957 33.632C136.957 32.9067 137.197 32.288 137.677 31.776C138.168 31.264 138.925 31.008 139.949 31.008H142.733V30.512C142.733 29.968 142.557 29.5307 142.205 29.2C141.853 28.8587 141.309 28.688 140.573 28.688C139.922 28.688 139.421 28.8107 139.069 29.056C138.717 29.2907 138.525 29.6267 138.493 30.064H137.485C137.549 29.3493 137.858 28.7947 138.413 28.4C138.968 27.9947 139.688 27.792 140.573 27.792C141.544 27.792 142.312 28.0267 142.877 28.496C143.453 28.9653 143.741 29.616 143.741 30.448V36H142.765ZM139.997 35.312C140.754 35.312 141.4 35.0773 141.933 34.608C142.466 34.128 142.733 33.5253 142.733 32.8V31.856H140.221C139.496 31.856 138.936 32.0107 138.541 32.32C138.157 32.6187 137.965 33.0293 137.965 33.552C137.965 34.1067 138.146 34.5387 138.509 34.848C138.882 35.1573 139.378 35.312 139.997 35.312ZM147.899 28H150.027V28.896H147.899V33.744C147.899 34.2133 148.017 34.56 148.251 34.784C148.486 34.9973 148.897 35.104 149.483 35.104H150.027V36H149.467C148.582 36 147.931 35.8347 147.515 35.504C147.099 35.1733 146.891 34.624 146.891 33.856V28.896H145.419V28H146.891V25.52H147.899V28ZM153.387 28V36H152.379V28H153.387ZM153.435 25.632H152.331V24.368H153.435V25.632ZM159.504 27.792C160.698 27.792 161.637 28.192 162.32 28.992C163.013 29.792 163.36 30.7947 163.36 32C163.36 33.2053 163.013 34.208 162.32 35.008C161.637 35.808 160.698 36.208 159.504 36.208C158.298 36.208 157.354 35.808 156.672 35.008C155.989 34.208 155.648 33.2053 155.648 32C155.648 30.7947 155.989 29.792 156.672 28.992C157.354 28.192 158.298 27.792 159.504 27.792ZM159.504 35.312C160.41 35.312 161.109 34.9867 161.6 34.336C162.101 33.6853 162.352 32.9067 162.352 32C162.352 31.0933 162.101 30.3147 161.6 29.664C161.109 29.0133 160.41 28.688 159.504 28.688C158.576 28.688 157.866 29.0133 157.376 29.664C156.896 30.304 156.656 31.0827 156.656 32C156.656 32.9173 156.896 33.7013 157.376 34.352C157.866 34.992 158.576 35.312 159.504 35.312ZM172.446 36H171.438V31.088C171.438 29.488 170.696 28.688 169.214 28.688C168.446 28.688 167.811 28.976 167.31 29.552C166.819 30.128 166.574 30.816 166.574 31.616V36H165.566V28H166.542V28.896H166.862C167.086 28.576 167.422 28.3147 167.87 28.112C168.328 27.8987 168.824 27.792 169.358 27.792C170.318 27.792 171.07 28.0693 171.614 28.624C172.168 29.168 172.446 29.9093 172.446 30.848V36ZM177.803 36.208C176.747 36.208 175.931 35.9947 175.355 35.568C174.779 35.1413 174.437 34.544 174.331 33.776H175.323C175.515 34.8 176.309 35.312 177.707 35.312C178.421 35.312 178.976 35.184 179.371 34.928C179.776 34.6613 179.979 34.2773 179.979 33.776C179.979 33.3707 179.856 33.0507 179.611 32.816C179.365 32.5813 178.96 32.4213 178.395 32.336C177.637 32.2293 177.003 32.1173 176.491 32C175.264 31.7653 174.651 31.1253 174.651 30.08C174.651 29.408 174.912 28.8587 175.435 28.432C175.968 28.0053 176.731 27.792 177.723 27.792C178.608 27.792 179.317 27.9947 179.851 28.4C180.384 28.7947 180.693 29.3333 180.779 30.016H179.787C179.733 29.5893 179.509 29.264 179.115 29.04C178.72 28.8053 178.235 28.688 177.659 28.688C177.029 28.688 176.539 28.8053 176.187 29.04C175.835 29.264 175.659 29.5787 175.659 29.984C175.659 30.3253 175.765 30.5867 175.979 30.768C176.203 30.9493 176.549 31.088 177.019 31.184C177.093 31.1947 177.221 31.216 177.403 31.248C177.584 31.2693 177.717 31.2907 177.803 31.312L178.795 31.472C180.256 31.7387 180.987 32.496 180.987 33.744C180.987 34.4267 180.699 35.008 180.123 35.488C179.557 35.968 178.784 36.208 177.803 36.208Z" fill="black"></path> <defs> <linearGradient id="paint0_linear_7697_17320" x1="26.3642" y1="25.4746" x2="2.40296" y2="1.50883" gradientUnits="userSpaceOnUse"> <stop stop-color="#15DD69"></stop> <stop offset="0.2334" stop-color="#15DD69"></stop> <stop offset="0.88985" stop-color="#AF1DF5"></stop> <stop offset="1" stop-color="#AF1DF5"></stop> </linearGradient> </defs> </svg> 