<?xml version="1.0" encoding="UTF-8" standalone="no"?>
<svg width="49px" height="49px" viewBox="0 0 49 49" version="1.1" xmlns="http://www.w3.org/2000/svg" xmlns:xlink="http://www.w3.org/1999/xlink">
    <!-- Generator: Sketch 40.2 (33826) - http://www.bohemiancoding.com/sketch -->
    <title>Group 60</title>
    <desc>Created with Sketch.</desc>
    <defs></defs>
    <g id="Welcome" stroke="none" stroke-width="1" fill="none" fill-rule="evenodd">
        <g id="Group-60">
            <rect id="Rectangle-2-Copy-2" fill="#FFFFFF" x="0" y="0" width="49" height="49" rx="24.5"></rect>
            <path d="M12.4010117,12.000424 C12.3820354,12.0012996 12.3631244,12.0032558 12.3443707,12.006283 C12.1302085,12.0764471 11.9894426,12.2811975 12.0006207,12.506283 L12.0006207,35.506283 C12.0006483,35.782414 12.2244898,36.0062554 12.5006207,36.006283 L35.5006207,36.006283 C35.7767517,36.0062554 36.0005931,35.782414 36.0006207,35.506283 L36.0006207,18.006283 L36.0006207,12.506283 C36.0005931,12.2301521 35.7767517,12.0063106 35.5006207,12.006283 L12.5006207,12.006283 C12.4676961,12.0010139 12.434327,11.9990512 12.4010117,12.000424 L12.4010117,12.000424 L12.4010117,12.000424 Z M13.0006207,13.006283 L35.0006207,13.006283 L35.0006207,16.006283 L13.0006207,16.006283 L13.0006207,13.006283 L13.0006207,13.006283 L13.0006207,13.006283 Z M14.5006207,14.006283 C14.2244717,14.006283 14.0006207,14.230083 14.0006207,14.506283 C14.0006207,14.782383 14.2244717,15.006283 14.5006207,15.006283 C14.7767687,15.006283 15.0006207,14.782383 15.0006207,14.506283 C15.0006207,14.230083 14.7767687,14.006283 14.5006207,14.006283 L14.5006207,14.006283 L14.5006207,14.006283 Z M16.5006207,14.006283 C16.2244777,14.006283 16.0006207,14.230083 16.0006207,14.506283 C16.0006207,14.782383 16.2244777,15.006283 16.5006207,15.006283 C16.7767627,15.006283 17.0006207,14.782383 17.0006207,14.506283 C17.0006207,14.230083 16.7767627,14.006283 16.5006207,14.006283 L16.5006207,14.006283 L16.5006207,14.006283 Z M18.5006207,14.006283 C18.2244787,14.006283 18.0006207,14.230083 18.0006207,14.506283 C18.0006207,14.782383 18.2244787,15.006283 18.5006207,15.006283 C18.7767627,15.006283 19.0006207,14.782383 19.0006207,14.506283 C19.0006207,14.230083 18.7767627,14.006283 18.5006207,14.006283 L18.5006207,14.006283 L18.5006207,14.006283 Z M13.0006207,17.006283 L35.0006207,17.006283 L35.0006207,18.006283 L35.0006207,35.006283 L13.0006207,35.006283 L13.0006207,17.006283 L13.0006207,17.006283 L13.0006207,17.006283 Z M23.9459327,18.988705 C23.9115636,18.9910504 23.8775289,18.996941 23.8443707,19.006283 C23.8335404,19.0155979 23.8231141,19.0253725 23.8131207,19.03558 C22.4171937,19.56988 20.2720757,20.44183 18.5006207,20.44183 C18.2244898,20.4418576 18.0006483,20.6656991 18.0006207,20.94183 C18.0006207,27.90213 20.8955407,31.14348 23.7506207,32.91058 C23.905324,32.9998861 24.0959174,32.9998861 24.2506207,32.91058 C27.0754177,31.16218 30.0006207,27.88403 30.0006207,20.94183 C30.0005931,20.6656991 29.7767517,20.4418576 29.5006207,20.44183 C27.1317207,20.44183 25.4424197,19.53348 24.1881207,19.03558 C24.1125726,18.9999752 24.0293098,18.9838599 23.9459327,18.988705 L23.9459327,18.988705 L23.9459327,18.988705 Z M24.0318707,20.037533 C25.0902357,20.477833 26.7690387,21.216833 28.9693707,21.350033 C28.8537637,27.479933 26.4768627,30.271883 24.0006207,31.881283 C21.4936187,30.254883 19.1453127,27.502033 19.0318707,21.350033 C20.8947627,21.213533 22.7823357,20.521233 24.0318707,20.037533 L24.0318707,20.037533 L24.0318707,20.037533 Z M25.2818707,24.287533 L23.4693707,26.037533 L22.7193707,25.318783 L22.0318707,26.037533 L23.0943707,27.100033 L23.4693707,27.443783 L23.8131207,27.100033 L25.9693707,24.975033 L25.2818707,24.287533 L25.2818707,24.287533 L25.2818707,24.287533 Z" id="Shape" fill="#222222"></path>
        </g>
    </g>
</svg>