<?xml version="1.0" encoding="UTF-8"?> <svg xmlns="http://www.w3.org/2000/svg" width="120" height="120" viewBox="0 0 120 120" fill="none"> <path d="M32.271 16.3536C32.4662 16.1583 32.7828 16.1583 32.9781 16.3536C33.1733 16.5488 33.1733 16.8654 32.9781 17.0607L16.0605 33.9782C15.8653 34.1734 15.5487 34.1734 15.3534 33.9782C15.1582 33.7829 15.1582 33.4663 15.3534 33.2711L32.271 16.3536Z" fill="url(#paint0_linear_910_314)"></path> <path d="M32.728 1.35355C32.9233 1.15829 33.2398 1.15829 33.4351 1.35355C33.6304 1.54882 33.6304 1.8654 33.4351 2.06066L24.0608 11.4349C23.8656 11.6302 23.549 11.6302 23.3537 11.4349C23.1585 11.2397 23.1585 10.9231 23.3537 10.7278L32.728 1.35355Z" fill="url(#paint1_linear_910_314)"></path> <g opacity="0.65" filter="url(#filter0_f_910_314)"> <rect x="93.75" y="59.75" width="14.5" height="21.5" transform="rotate(-180 93.75 59.75)" stroke="url(#paint2_linear_910_314)" stroke-width="14.5"></rect> </g> <path d="M18 46V46C18.0027 49.8649 21.1351 52.9973 25 53V53V53C21.1351 53.0027 18.0027 56.1351 18 60V60V60C17.9973 56.1351 14.8649 53.0027 11 53V53V53C14.8649 52.9973 17.9973 49.8649 18 46V46Z" stroke="url(#paint3_linear_910_314)" stroke-width="2" stroke-linejoin="round"></path> <path d="M11 65V65C11.0012 66.6564 12.3436 67.9988 14 68V68V68C12.3436 68.0012 11.0012 69.3436 11 71V71V71C10.9988 69.3436 9.65637 68.0012 8 68V68V68C9.65637 67.9988 10.9988 66.6564 11 65V65Z" stroke="url(#paint4_linear_910_314)" stroke-linejoin="round"></path> <circle cx="61" cy="39" r="17" stroke="url(#paint5_linear_910_314)" stroke-width="7"></circle> <path d="M60.8994 48.5C60.8994 48.2239 61.1233 48 61.3994 48C61.6756 48 61.8994 48.2239 61.8994 48.5V81.5C61.8994 81.7761 61.6756 82 61.3994 82C61.1233 82 60.8994 81.7761 60.8994 81.5V48.5Z" fill="url(#paint6_linear_910_314)"></path> <path d="M102 43.5C102 42.6716 102.672 42 103.5 42C104.328 42 105 42.6716 105 43.5V65.5C105 66.3284 104.328 67 103.5 67C102.672 67 102 66.3284 102 65.5V43.5Z" fill="url(#paint7_linear_910_314)"></path> <path d="M114.5 53C115.328 53 116 53.6716 116 54.5C116 55.3284 115.328 56 114.5 56L92.5 56C91.6716 56 91 55.3284 91 54.5C91 53.6716 91.6716 53 92.5 53L114.5 53Z" fill="url(#paint8_linear_910_314)"></path> <path d="M98 101C98 80.5655 81.6584 64 61.5 64C41.3416 64 25 80.5655 25 101" stroke="url(#paint9_linear_910_314)" stroke-width="8" stroke-linecap="round"></path> <rect x="104.5" y="95.5" width="11" height="29" rx="5.5" transform="rotate(90 104.5 95.5)" stroke="url(#paint10_linear_910_314)"></rect> <path d="M72.6029 10.6729C73.9899 10.3013 75.4155 11.1244 75.7872 12.5114V12.5114C77.2738 18.0595 73.9813 23.7622 68.4333 25.2488L59.6434 27.604C56.1758 28.5331 52.6116 26.4753 51.6825 23.0078V23.0078C50.7534 19.5403 52.8112 15.9761 56.2787 15.047L72.6029 10.6729Z" stroke="url(#paint11_linear_910_314)" stroke-width="6"></path> <path d="M78 65.136C78 64.8599 78.2239 64.636 78.5 64.636C78.7761 64.636 79 64.8599 79 65.136V80.136C79 80.4122 78.7761 80.636 78.5 80.636C78.2239 80.636 78 80.4122 78 80.136V65.136Z" fill="url(#paint12_linear_910_314)"></path> <path d="M44 65.136C44 64.8599 44.2239 64.636 44.5 64.636C44.7761 64.636 45 64.8599 45 65.136V80.136C45 80.4122 44.7761 80.636 44.5 80.636C44.2239 80.636 44 80.4122 44 80.136V65.136Z" fill="url(#paint13_linear_910_314)"></path> <defs> <filter id="filter0_f_910_314" x="54" y="13" width="65" height="72" filterUnits="userSpaceOnUse" color-interpolation-filters="sRGB"> <feFlood flood-opacity="0" result="BackgroundImageFix"></feFlood> <feBlend mode="normal" in="SourceGraphic" in2="BackgroundImageFix" result="shape"></feBlend> <feGaussianBlur stdDeviation="9" result="effect1_foregroundBlur_910_314"></feGaussianBlur> </filter> <linearGradient id="paint0_linear_910_314" x1="42.9296" y1="5.94051" x2="45.2492" y2="8.64137" gradientUnits="userSpaceOnUse"> <stop stop-color="#4BFFDF"></stop> <stop offset="1" stop-color="#4D9FFF"></stop> </linearGradient> <linearGradient id="paint1_linear_910_314" x1="39.0286" y1="-4.70152" x2="41.1803" y2="-1.89116" gradientUnits="userSpaceOnUse"> <stop stop-color="#4BFFDF"></stop> <stop offset="1" stop-color="#4D9FFF"></stop> </linearGradient> <linearGradient id="paint2_linear_910_314" x1="108.988" y1="60.4586" x2="128.245" y2="98.7276" gradientUnits="userSpaceOnUse"> <stop stop-color="#4BFFDF"></stop> <stop offset="1" stop-color="#7AB7FE"></stop> </linearGradient> <linearGradient id="paint3_linear_910_314" x1="14.8563" y1="43.4561" x2="21.3496" y2="59.4748" gradientUnits="userSpaceOnUse"> <stop stop-color="#4BFFDF"></stop> <stop offset="1" stop-color="#7AB7FE"></stop> </linearGradient> <linearGradient id="paint4_linear_910_314" x1="14" y1="74.0452" x2="9.33799" y2="66.4073" gradientUnits="userSpaceOnUse"> <stop stop-color="#6C63FF"></stop> <stop offset="1" stop-color="#7AB7FE"></stop> </linearGradient> <linearGradient id="paint5_linear_910_314" x1="49.9042" y1="2.35717" x2="76.3969" y2="52.4996" gradientUnits="userSpaceOnUse"> <stop stop-color="#4BFFDF"></stop> <stop offset="1" stop-color="#4D9FFF"></stop> </linearGradient> <linearGradient id="paint6_linear_910_314" x1="61.0731" y1="28.3572" x2="64.6325" y2="28.5553" gradientUnits="userSpaceOnUse"> <stop stop-color="#4BFFDF"></stop> <stop offset="1" stop-color="#4D9FFF"></stop> </linearGradient> <linearGradient id="paint7_linear_910_314" x1="105" y1="79.6884" x2="96.7319" y2="78.0629" gradientUnits="userSpaceOnUse"> <stop stop-color="#6C63FF"></stop> <stop offset="1" stop-color="#7AB7FE"></stop> </linearGradient> <linearGradient id="paint8_linear_910_314" x1="78.3116" y1="56" x2="79.9371" y2="47.7319" gradientUnits="userSpaceOnUse"> <stop stop-color="#6C63FF"></stop> <stop offset="1" stop-color="#7AB7FE"></stop> </linearGradient> <linearGradient id="paint9_linear_910_314" x1="37.6766" y1="42.624" x2="55.1176" y2="107.753" gradientUnits="userSpaceOnUse"> <stop stop-color="#4BFFDF"></stop> <stop offset="1" stop-color="#4D9FFF"></stop> </linearGradient> <linearGradient id="paint10_linear_910_314" x1="117" y1="140.226" x2="92.9694" y2="124.478" gradientUnits="userSpaceOnUse"> <stop stop-color="#6C63FF"></stop> <stop offset="1" stop-color="#7AB7FE"></stop> </linearGradient> <linearGradient id="paint11_linear_910_314" x1="40.6185" y1="32.7017" x2="52.4756" y2="6.46929" gradientUnits="userSpaceOnUse"> <stop stop-color="#6C63FF"></stop> <stop offset="1" stop-color="#7AB7FE"></stop> </linearGradient> <linearGradient id="paint12_linear_910_314" x1="78.1737" y1="55.3924" x2="81.6949" y2="55.8089" gradientUnits="userSpaceOnUse"> <stop stop-color="#4BFFDF"></stop> <stop offset="1" stop-color="#4D9FFF"></stop> </linearGradient> <linearGradient id="paint13_linear_910_314" x1="44.1737" y1="55.3924" x2="47.6949" y2="55.8089" gradientUnits="userSpaceOnUse"> <stop stop-color="#4BFFDF"></stop> <stop offset="1" stop-color="#4D9FFF"></stop> </linearGradient> </defs> </svg> 