<?xml version="1.0" encoding="UTF-8"?> <svg xmlns="http://www.w3.org/2000/svg" id="Layer_1" data-name="Layer 1" viewBox="0 0 286 286"> <defs> <style> .cls-1 { fill: #7b5ae2; } .cls-2 { fill: #694dc3; } .cls-3 { fill: #5840a4; } .cls-4 { fill: #473485; } .cls-5 { fill: #352766; } .cls-6 { fill: #241a47; } .cls-7 { fill: #120d28; } </style> </defs> <title>sa-icon-Artboard 10 copy 5-</title> <g> <path class="cls-1" d="M84.58,43.69,44.11,84.19a82.52,82.52,0,0,0,0,116.86l40.47,40.46a82.58,82.58,0,0,0,116.87,0l40.46-40.46a82.57,82.57,0,0,0,1.16-115.76l-.08-.1-.1-.08L201.45,43.69a82.53,82.53,0,0,0-116.87,0Z"></path> <path class="cls-2" d="M195.76,48.72A39.92,39.92,0,0,0,188.91,43c-12.49-8.86-28.18-11.11-43.72-11.11-18.38,0-37.32,11.28-50.33,24.32L64.43,88.56a51.83,51.83,0,0,1-3.82,3.63l-1.17,1c-11.52,11.48-21.37,24.94-23.54,40.84a47.32,47.32,0,0,0-.64,6.66c.06,18.37,8.25,49,21.29,62,0,.27,7.77,7.69,7.87,7.44l27.27,24.05c13,13,31.65,16.83,50,16.83s37-10.5,50-23.54l20.07-21.09c.06-.13,4.5-4.5,4.64-4.44l10.89-9.68C238.54,181.17,247.7,168,250,152.63a53.35,53.35,0,0,0,.79-8.12c0-17.89-7.41-41.79-19.82-54.69l-.07-.09-.09-.08Z"></path> <path class="cls-3" d="M190.06,53.76c-1.66-2.16-4.23-3.55-6.08-4.66-10.49-6.33-24.19-4.74-36.62-4.74-14.7,0-31.81,14-42.23,24.38L79.29,98.38c-.1.27-3.19,3.19-3.45,3.08l-1.06.76c-9.22,9.19-20.58,18.38-23.19,30.95a24.83,24.83,0,0,0-.94,5.64c.11,14.7,7.91,55.23,18.35,65.66,0,.54,6.68,6.54,6.88,6L98.8,227c10.42,10.43,26.92,9.44,41.63,9.44s31.21-12.42,41.62-22.85l16.87-18.91c.1-.27,3.84-3.83,4.1-3.73l9.77-7.32c9-8.93,19-18.25,21.55-30.4a31.9,31.9,0,0,0,1.06-6.81c-.09-14.3-6.61-41.73-16.54-52.05l-.05-.08-.07-.07Z"></path> <path class="cls-4" d="M184.36,58.79a8.55,8.55,0,0,0-5.3-3.6c-7.23-5.67-20.21,1.63-29.52,1.63-11,0-26.32,16.63-34.13,24.45L94.16,108.21c-.16.39-2.7,2.68-3.1,2.52l-1,.51c-6.91,6.89-22,11.46-22.84,21A9,9,0,0,0,66,136.9c.14,11,7.57,61.45,15.4,69.27.07.82,5.61,5.4,5.91,4.64l18.56,8.9c7.82,7.82,22.2,2,33.23,2s25.4-14.34,33.21-22.16L186,182.87c.16-.4,3.19-3.17,3.58-3l8.64-5c6.71-6.7,19.41-11.85,20.45-21.09a11.92,11.92,0,0,0,1.33-5.5c-.12-10.73-5.81-41.68-13.26-49.42l0-.07-.05-.06Z"></path> <path class="cls-5" d="M178.67,63.83a4.6,4.6,0,0,0-4.53-2.56c-4.82-3.78-16.22,8-22.43,8-7.36,0-20.81,19.31-26,24.53L109,118c-.21.53-2.21,2.18-2.74,2l-.85.26c-4.6,4.59-21.9,4.75-22.48,11.14a4.52,4.52,0,0,0-1.53,3.6c.14,7.35,7.24,67.66,12.45,72.88.09,1.09,4.54,4.25,4.94,3.24L113,212.44c5.2,5.22,17.46-5.34,24.81-5.34s19.6-16.26,24.81-21.47l10.45-14.55c.21-.53,2.53-2.5,3.06-2.29l7.51-2.62c4.47-4.47,18.66-5.62,19.36-11.79a5.78,5.78,0,0,0,1.58-4.18c-.12-7.16-5-41.63-10-46.79l0-.06,0,0Z"></path> <path class="cls-6" d="M173,68.86c-.51-1.76-2.81-2.42-3.75-1.5-2.41-1.89-12.24,14.37-15.34,14.37-3.68,0-15.31,22-17.91,24.6l-12.08,21.52c-.26.66-1.71,1.69-2.37,1.42h-.74c-2.31,2.3-21.84-2-22.13,1.25a2.41,2.41,0,0,0-1.83,2.58c.11,3.67,6.9,73.88,9.51,76.48.11,1.36,3.45,3.12,4,1.85l9.85-6.25c2.6,2.6,12.73-12.74,16.41-12.74s13.79-18.18,16.39-20.78l7.25-12.36c.27-.67,1.88-1.85,2.54-1.59l6.38-.26c2.23-2.23,17.91.6,18.26-2.48a2.78,2.78,0,0,0,1.85-2.88c-.09-3.57-4.2-41.57-6.68-44.15l0,0,0,0Z"></path> <path class="cls-7" d="M173.83,154l-6.55-80.1a1.55,1.55,0,0,0-3-.44l-25.53,64.23a1.55,1.55,0,0,1-2,.86l-22.42-8.91a1.54,1.54,0,0,0-2.11,1.57l6.55,80.09a1.55,1.55,0,0,0,3,.45l25.54-64.23a1.54,1.54,0,0,1,2-.87l22.41,8.91A1.55,1.55,0,0,0,173.83,154Z"></path> </g> </svg> 