<svg id="Layer_1" data-name="Layer 1" xmlns="http://www.w3.org/2000/svg" xmlns:xlink="http://www.w3.org/1999/xlink" viewBox="0 0 300 300"><defs><style>.cls-1{fill:url(#linear-gradient);}.cls-2{fill:url(#linear-gradient-2);}.cls-3{fill:url(#linear-gradient-3);}.cls-4{fill:url(#linear-gradient-4);}.cls-5{fill:url(#linear-gradient-5);}.cls-6{fill:url(#linear-gradient-6);}.cls-7{fill:url(#linear-gradient-7);}.cls-8{fill:url(#linear-gradient-8);}</style><linearGradient id="linear-gradient" x1="408.5" y1="18.32" x2="-78.81" y2="106.11" gradientUnits="userSpaceOnUse"><stop offset="0" stop-color="#9de5fe"/><stop offset="1" stop-color="#7881e1"/></linearGradient><linearGradient id="linear-gradient-2" x1="463.5" y1="35.52" x2="-85.09" y2="134.34" xlink:href="#linear-gradient"/><linearGradient id="linear-gradient-3" x1="378.27" y1="162.46" x2="-313.22" y2="287.03" xlink:href="#linear-gradient"/><linearGradient id="linear-gradient-4" x1="201.56" y1="221.1" x2="-234.11" y2="299.58" xlink:href="#linear-gradient"/><linearGradient id="linear-gradient-5" x1="418.85" y1="78.72" x2="-68.46" y2="166.51" xlink:href="#linear-gradient"/><linearGradient id="linear-gradient-6" x1="451.55" y1="96.38" x2="-35.76" y2="184.16" xlink:href="#linear-gradient"/><linearGradient id="linear-gradient-7" x1="200.21" y1="256.82" x2="-287.1" y2="344.6" xlink:href="#linear-gradient"/><linearGradient id="linear-gradient-8" x1="313.65" y1="256.82" x2="-173.66" y2="344.6" xlink:href="#linear-gradient"/></defs><title>Artboard 10 copy 7 копия</title><path class="cls-1" d="M94.49,25.67H12.85v.1H2V135.63H28.87V52.54H48.35a1.13,1.13,0,0,1,1.13,1.12v82H76.35v-82c0-.38,0-.75,0-1.12H94.48a1.13,1.13,0,0,1,1.13,1.12v82h26.87v-82A28,28,0,0,0,94.49,25.67Z"/><path class="cls-2" d="M235.25,135.63H190.7a24.21,24.21,0,0,1-24.19-24.19V49.85A24.21,24.21,0,0,1,190.7,25.67h44.55a24.21,24.21,0,0,1,24.19,24.19v61.59A24.21,24.21,0,0,1,235.25,135.63Zm-41.87-26.87h39.18V52.54H193.39Z"/><path class="cls-3" d="M98.42,274.33H26.56A24.21,24.21,0,0,1,2.38,250.15V188.56a24.21,24.21,0,0,1,24.19-24.19H98.42a24.21,24.21,0,0,1,24.19,24.19v61.59A24.21,24.21,0,0,1,98.42,274.33ZM29.25,247.46H95.73V191.24H29.25Z"/><path class="cls-4" d="M234,274.33H190.7a24.21,24.21,0,0,1-24.19-24.19V188.56a24.21,24.21,0,0,1,24.19-24.19H234v26.87H193.39v56.22H234Z"/><rect class="cls-5" x="132.86" y="122.49" width="13.14" height="13.14"/><rect class="cls-6" x="269.1" y="121.49" width="13.14" height="13.14"/><rect class="cls-7" x="132.86" y="261.2" width="13.14" height="13.14"/><rect class="cls-8" x="246.3" y="261.2" width="13.14" height="13.14"/></svg>