<?xml version="1.0" encoding="utf-8"?>
<!-- Generator: Adobe Illustrator 21.1.0, SVG Export Plug-In . SVG Version: 6.00 Build 0)  -->
<svg version="1.1" xmlns="http://www.w3.org/2000/svg" xmlns:xlink="http://www.w3.org/1999/xlink" x="0px" y="0px"
	 viewBox="0 0 537.3 308.8" style="enable-background:new 0 0 537.3 308.8;" xml:space="preserve">
<style type="text/css">
	.st0{fill:none;}
	.st1{fill:#FFFFFF;}
</style>
<g id="SAFE_ZONE">
	<path id="XMLID_43_" class="st0" d="M0,0v308.8h537.3V0H0z M441.5,213H95.8V95.8h345.7V213z"/>
</g>
<g id="LOGO">
	<g id="XMLID_2_">
		<path id="XMLID_3_" class="st1" d="M130.4,168.1l-20,44.9H95.8l22-48c-10.3-5.2-17.2-14.8-17.2-32.3c0-24.6,15.6-36.9,34.1-36.9
			h18.9V213h-12.6v-44.9H130.4z M140.9,106.4h-6.7c-10.2,0-20,6.7-20,26.2c0,18.9,9,24.9,20,24.9h6.7V106.4z"/>
		<path id="XMLID_6_" class="st1" d="M214.3,130.4V213h-12.6v-37.1h-19V213h-12.8v-82.6h12.8v35.1h19v-35.1H214.3z M280.1,229.2
			h-11.5V213h-35.4v16.2h-11.5v-26.7h5.1c7.5-17.5,8.4-43.1,8.4-65.1v-7.1h38.4v72.1h6.6V229.2z M260.9,140.7h-14.3v1.5
			c0,17.4-0.8,42.8-7.7,60.3h22V140.7z M315.3,214.1c-17.1,0-27.5-13.6-27.5-39c0-26.6,7.4-45.9,24.9-45.9
			c13.8,0,22.8,10.3,22.8,38.4v7.1h-34.4c0,18.7,5.2,28.5,15.4,28.5c7.2,0,13-3.3,16.2-5.6l3,9.8
			C330.4,211.5,323.5,214.1,315.3,214.1z M301.2,164.1h21.2c0-14.1-2.3-24.4-9.7-24.4C304.8,139.7,302,149.4,301.2,164.1z
			 M361.4,171.8V213h-12.8v-82.6h12.8v38.2l19.8-38.2h13l-20.5,38.9l23.4,43.8h-13.9L361.4,171.8z M398.8,171.7
			c0-25.9,10-42.5,29.4-42.5c7.4,0,11.6,2,15.2,4.3l-1.8,12.1c-3.4-3-8.4-5.7-13.6-5.7c-9.2,0-15.7,10.3-15.7,31.2
			c0,20.7,4.9,32.5,15.2,32.5c6.2,0,11-2.5,13.9-5.1l3,9.5c-4.4,3.8-9.7,6.2-17.2,6.2C409.4,214.1,398.8,199.9,398.8,171.7z"/>
	</g>
</g>
</svg>
