<?xml version="1.0" encoding="UTF-8"?> <svg xmlns="http://www.w3.org/2000/svg" width="174" height="242" viewBox="0 0 174 242" fill="none"> <rect x="84" y="142" width="48" height="12" rx="2" fill="url(#paint0_linear_1312_320)"></rect> <rect x="133" y="142" width="12" height="12" rx="2" fill="#E9EBFA"></rect> <rect x="142" y="129" width="12" height="12" rx="2" fill="#6C7BDF"></rect> <rect x="149" y="116" width="12" height="12" rx="2" fill="#040823"></rect> <rect x="92" y="129" width="49" height="12" rx="2" fill="#3E50CB"></rect> <rect x="100" y="116" width="48" height="12" rx="2" fill="#040823"></rect> <path d="M0.000492246 55.4403L0.0004921 67.6309L0.000489115 80.1872L7.15091e-07 94.1646C3.23888e-07 126.97 26.594 154.131 59.3175 154.131L59.3178 84.1417L59.318 67.6309L59.318 54.7465C59.318 38.096 45.5761 24.5179 28.8684 25.0134C12.6549 25.509 0.00049244 39.1862 0.000492246 55.4403Z" fill="black"></path> <path d="M49.813 144.819C49.813 149.79 53.8424 153.819 58.813 153.819C63.7836 153.819 67.813 149.79 67.813 144.819L49.813 144.819ZM49.813 110.318L49.813 144.819L67.813 144.819L67.813 110.318L49.813 110.318Z" fill="#6C7BDF"></path> <path d="M145.378 198.949L151.115 198.949L151.442 227.26L145.378 227.26L112.355 227.26L56.3984 227.26C56.3984 211.642 68.9454 198.949 84.3842 198.949L112.308 198.949L145.378 198.949Z" fill="#DEE2FF"></path> <path d="M38.3455 209L44.0908 209L65.2995 209L93.2637 209C108.725 209 121.29 221.39 121.29 236.637L65.2528 236.637L44.0908 236.637L38.0185 236.637C30.1713 236.637 23.772 230.234 24.0056 222.45C24.2391 214.896 30.6851 209 38.3455 209Z" fill="#BFC7FF"></path> <path d="M59.0947 49.9801C41.2255 49.9801 26.7396 64.466 26.7396 82.3353C26.7396 100.205 41.2255 114.69 59.0947 114.69L59.0947 49.9801Z" fill="#3E50CB"></path> <path d="M36.1757 68.1807C36.1757 71.5312 39.0427 74.2473 42.5793 74.2473C46.1159 74.2473 48.9829 71.5312 48.9829 68.1807" stroke="white" stroke-width="3"></path> <path d="M11.2354 162.652L11.2354 168.361L11.2354 197.546L11.2354 209.419C11.2354 224.784 23.6258 237.271 38.8719 237.271L38.8719 197.5L38.8719 168.361L38.8719 162.327C38.8719 154.528 32.4695 148.168 24.6852 148.4C17.1312 148.632 11.2353 155.039 11.2354 162.652Z" fill="black"></path> <path d="M84.4323 171.742L88.4846 175.794L111.843 199.153L131.567 218.877C142.472 229.782 160.181 229.799 171.066 218.914L131.541 179.389L108.215 156.063L103.932 151.78C98.3974 146.245 89.3128 146.303 83.9201 152.025C78.6918 157.583 79.0291 166.339 84.4323 171.742Z" fill="#6C7BDF"></path> <path d="M118.411 166.487L118.411 154.296L118.411 119.37L118.412 109.447C118.412 76.6412 91.8176 49.9805 59.0941 49.9805L59.0938 119.47L59.0938 154.296L59.0938 167.181C59.0938 183.831 72.8357 197.409 89.5434 196.914C105.757 196.418 118.411 182.741 118.411 166.487Z" fill="url(#paint1_linear_1312_320)"></path> <line x1="42.4995" y1="75" x2="42.4995" y2="79.0444" stroke="white" stroke-width="3"></line> <line x1="48.0602" y1="72.9393" x2="51.1251" y2="76.0043" stroke="white" stroke-width="3"></line> <line x1="37.1251" y1="73.0607" x2="34.0602" y2="76.1256" stroke="white" stroke-width="3"></line> <circle cx="46.5" cy="4.5" r="4.5" fill="black"></circle> <circle cx="135.5" cy="93.5" r="2.5" fill="black"></circle> <circle cx="135.5" cy="102.5" r="2.5" fill="#66CC66"></circle> <path d="M63.3534 5.00008C102.966 5.00008 135.079 36.7061 135.079 75.8174" stroke="#56A4FF" stroke-width="4" stroke-linecap="round"></path> <path d="M8.8777 76.725C8.8777 48.6451 31.2345 25.8818 58.813 25.8818" stroke="#66CC66" stroke-width="6" stroke-linecap="round"></path> <path d="M50.8562 60.0917H47.557L38.1046 60.0917L35.4188 60.0918C26.5402 60.0918 19.3247 52.5367 19.3247 43.2402L38.1314 43.2401L47.557 43.2401H51.044C55.5504 43.2401 59.2252 47.1441 59.091 51.8906C58.9569 56.4967 55.2553 60.0917 50.8562 60.0917Z" fill="url(#paint2_linear_1312_320)"></path> <defs> <linearGradient id="paint0_linear_1312_320" x1="129.5" y1="139.5" x2="94.5" y2="157.5" gradientUnits="userSpaceOnUse"> <stop stop-color="#3E50CB"></stop> <stop offset="1" stop-color="white" stop-opacity="0.15"></stop> </linearGradient> <linearGradient id="paint1_linear_1312_320" x1="35.5" y1="70.5" x2="142" y2="174.5" gradientUnits="userSpaceOnUse"> <stop stop-color="#8595FF"></stop> <stop offset="1" stop-color="white" stop-opacity="0.85"></stop> </linearGradient> <linearGradient id="paint2_linear_1312_320" x1="52.5" y1="63.0002" x2="24" y2="39.0002" gradientUnits="userSpaceOnUse"> <stop stop-color="#8090FF"></stop> <stop offset="1" stop-color="#3E50CB" stop-opacity="0.42"></stop> </linearGradient> </defs> </svg> 