<?xml version="1.0" encoding="UTF-8"?> <svg xmlns="http://www.w3.org/2000/svg" width="1407" height="2361" viewBox="0 0 1407 2361" fill="none"> <path d="M120.5 1929V2304.6V2355" stroke="#3E50CB" stroke-width="12" stroke-linecap="round"></path> <path d="M120.5 1929V2075" stroke="#222437" stroke-width="240" stroke-linecap="round"></path> <path d="M943.162 2.57129L731.071 330.939" stroke="#FFCE6E" stroke-width="8"></path> <path d="M1116.48 24.4282V427.965" stroke="white" stroke-width="36"></path> <path d="M1076 537.619V952.742" stroke="#FF7965" stroke-width="5" stroke-linecap="round"></path> <path d="M1076.41 627.736V687.079" stroke="#FFCE6E" stroke-width="45" stroke-linecap="round"></path> <path d="M1105 519V604.206" stroke="#222437" stroke-width="68" stroke-linecap="round"></path> <path d="M798.744 621.399L572 1069.23" stroke="#222437" stroke-width="68"></path> <path d="M892.724 587.618C892.724 587.618 819.49 732.097 673.023 1021.06" stroke="#FF7965" stroke-width="68"></path> <path d="M953.384 562.377C953.384 562.377 880.151 706.856 733.683 995.815" stroke="#F6F6F6" stroke-width="39"></path> <path d="M1393.7 589.03C1393.7 589.03 1319.76 737.365 1171.87 1034.04" stroke="#F6F6F6" stroke-width="10"></path> <path d="M447 442L276 713" stroke="#FFCE6E" stroke-width="2"></path> <path opacity="0.16297" d="M182.639 307C182.639 307 187.128 329.025 176.809 340.775C166.489 352.525 141.361 354 141.361 354C141.361 354 136.872 331.974 147.191 320.224C157.511 308.474 182.639 307 182.639 307Z" fill="white"></path> <path opacity="0.519043" d="M529.206 347C529.206 347 535.124 377.929 521.521 394.429C507.918 410.929 474.794 413 474.794 413C474.794 413 468.876 382.07 482.479 365.57C496.082 349.07 529.206 347 529.206 347Z" fill="white"></path> <path d="M1070 783V1286" stroke="#E9F9E9" stroke-width="120"></path> <path opacity="0.610049" d="M976 968V1467" stroke="#E9EBFA" stroke-width="200"></path> <path d="M963.625 714L961.875 1087.18" stroke="#FF7965" stroke-width="3" stroke-linecap="round"></path> <path d="M193 632V654" stroke="#6C7BDF" stroke-width="14" stroke-linecap="round"></path> <rect width="1218" height="1544" rx="8" transform="matrix(-1 0 0 1 1338 478)" fill="url(#paint0_linear)"></rect> <mask id="mask0" maskUnits="userSpaceOnUse" x="120" y="478" width="1218" height="1544"> <rect width="1218" height="1544" rx="8" transform="matrix(-1 0 0 1 1338 478)" fill="white"></rect> </mask> <g mask="url(#mask0)"> <path fill-rule="evenodd" clip-rule="evenodd" d="M1182.81 528.239C1258 521.66 1313.54 454.546 1306.87 378.337C1300.21 302.128 1233.86 245.682 1158.68 252.261C1083.5 258.841 1027.95 325.955 1034.62 402.164C1041.28 478.373 1107.63 534.819 1182.81 528.239Z" fill="#F3F4F6"></path> <path fill-rule="evenodd" clip-rule="evenodd" d="M642.16 653.693C738.391 645.271 809.506 559.593 800.999 462.326C792.492 365.059 707.585 293.036 611.354 301.458C515.122 309.88 444.007 395.558 452.514 492.825C461.021 590.092 545.928 662.115 642.16 653.693Z" fill="#F3F4F6"></path> <path fill-rule="evenodd" clip-rule="evenodd" d="M909.06 747.754C1056.41 734.857 1165.42 604.908 1152.53 457.503C1139.63 310.098 1009.73 201.058 862.374 213.954C715.02 226.85 606.016 356.8 618.908 504.204C631.8 651.609 761.705 760.65 909.06 747.754Z" fill="#F3F4F6"></path> <path opacity="0.170364" fill-rule="evenodd" clip-rule="evenodd" d="M1207.84 2021.23C1528.61 1993.16 1765.9 1710.27 1737.84 1389.39C1709.77 1068.51 1426.99 831.144 1106.21 859.218C785.443 887.291 548.156 1170.17 576.22 1491.06C604.284 1811.94 887.071 2049.3 1207.84 2021.23Z" fill="#222437" fill-opacity="0.23"></path> <path d="M1251.7 375.03C1251.7 375.03 1177.76 523.365 1029.87 820.035" stroke="#F6F6F6" stroke-width="10"></path> <path d="M1176 1001V1504" stroke="#E9F9E9" stroke-width="120"></path> <path opacity="0.610049" d="M1082 1186V1685" stroke="#E9EBFA" stroke-width="200"></path> <path d="M1069.62 932L1067.88 1305.18" stroke="#FF7965" stroke-width="3" stroke-linecap="round"></path> <path d="M1272 737V799" stroke="#FFF6E5" stroke-width="20" stroke-linecap="round"></path> </g> <path fill-rule="evenodd" clip-rule="evenodd" d="M194.546 696V706.988H183.23V685.176H188.806C191.512 681.404 193.562 675.828 193.562 665.742V638.6H231.446V685.176H237.596V706.988H226.28V696H194.546ZM200.942 685.176H220.13V649.178H204.878V665.906C204.878 675.746 203.074 681.486 200.942 685.176ZM264.984 697.148C272.856 697.148 279.006 693.95 282.86 688.374L274.332 683.454C272.528 685.832 269.248 687.554 265.148 687.554C259.572 687.554 255.062 685.258 253.586 679.846H284.5C284.746 678.452 284.91 677.058 284.91 675.5C284.91 663.446 276.3 653.852 264.164 653.852C251.29 653.852 242.516 663.282 242.516 675.5C242.516 687.718 251.208 697.148 264.984 697.148ZM253.422 671.646H274.332C273.02 665.742 268.592 663.364 264.164 663.364C258.506 663.364 254.652 666.398 253.422 671.646ZM311.806 696V665.168H324.598V655H288.272V665.168H301.228V696H311.806ZM361.416 691.162C358.464 694.852 354.036 697.148 348.05 697.148C337.144 697.148 328.124 687.718 328.124 675.5C328.124 663.282 337.144 653.852 348.05 653.852C354.036 653.852 358.464 656.148 361.416 659.838V655H371.994V696H361.416V691.162ZM350.018 687.062C343.54 687.062 338.702 682.388 338.702 675.5C338.702 668.612 343.54 663.938 350.018 663.938C356.578 663.938 361.416 668.612 361.416 675.5C361.416 682.388 356.578 687.062 350.018 687.062ZM394.872 665.168V678.862C394.872 691.818 388.64 697.23 377.57 696V686.078C381.916 687.144 384.294 684.684 384.294 678.288V655H416.766V696H406.188V665.168H394.872ZM434.232 696L453.502 672.712V696H463.834V655H455.962L436.692 678.288V655H426.36V696H434.232ZM504.588 664.922V696H494.01V655H531.484V696H520.906V664.922H504.588ZM554.444 678.862V665.168H565.76V696H576.338V655H543.866V678.288C543.866 684.684 541.488 687.144 537.142 686.078V696C548.212 697.23 554.444 691.818 554.444 678.862ZM617.092 691.162C614.14 694.852 609.712 697.148 603.726 697.148C592.82 697.148 583.8 687.718 583.8 675.5C583.8 663.282 592.82 653.852 603.726 653.852C609.712 653.852 614.14 656.148 617.092 659.838V655H627.67V696H617.092V691.162ZM605.694 687.062C599.216 687.062 594.378 682.388 594.378 675.5C594.378 668.612 599.216 663.938 605.694 663.938C612.254 663.938 617.092 668.612 617.092 675.5C617.092 682.388 612.254 687.062 605.694 687.062ZM647.842 680.42V696H637.264V655H647.842V670.498H664.16V655H674.738V696H664.16V680.42H647.842ZM702.208 697.148C708.194 697.148 712.622 694.852 715.574 691.162V696H726.152V655H715.574V659.838C712.622 656.148 708.194 653.852 702.208 653.852C691.302 653.852 682.282 663.282 682.282 675.5C682.282 687.718 691.302 697.148 702.208 697.148ZM692.86 675.5C692.86 682.388 697.698 687.062 704.176 687.062C710.736 687.062 715.574 682.388 715.574 675.5C715.574 668.612 710.736 663.938 704.176 663.938C697.698 663.938 692.86 668.612 692.86 675.5ZM766.824 696V664.922H783.142V696H793.72V655H756.246V696H766.824ZM844.642 675.5C844.642 687.718 834.966 697.148 822.912 697.148C810.858 697.148 801.264 687.718 801.264 675.5C801.264 663.282 810.858 653.852 822.912 653.852C834.966 653.852 844.642 663.282 844.642 675.5ZM822.912 686.816C816.68 686.816 811.842 682.142 811.842 675.5C811.842 668.858 816.68 664.184 822.912 664.184C829.226 664.184 834.064 668.858 834.064 675.5C834.064 682.142 829.226 686.816 822.912 686.816ZM858.664 696V706.988H848.332V686.078H853.334C855.548 682.798 856.86 678.862 856.86 671.564V655H889.004V686.078H894.416V706.988H884.084V696H858.664ZM878.672 686.078H864.65C866.29 682.306 867.192 677.714 867.192 671.564V664.512H878.672V686.078ZM911.718 664.922V696H901.14V655H938.614V696H928.036V664.922H911.718ZM956.162 696L975.432 672.712V696H985.764V655H977.892L958.622 678.288V655H948.29V696H956.162ZM1033.49 686.488C1029.96 692.884 1022.99 697.148 1014.96 697.148C1002.49 697.148 993.308 687.718 993.308 675.5C993.308 663.282 1002.49 653.852 1014.96 653.852C1022.99 653.852 1029.96 658.116 1033.32 664.43L1024.22 669.76C1022.58 666.398 1019.06 664.266 1014.87 664.266C1008.56 664.266 1003.89 668.94 1003.89 675.5C1003.89 681.978 1008.56 686.652 1014.87 686.652C1019.14 686.652 1022.66 684.602 1024.3 681.24L1033.49 686.488ZM1049.97 696V677.386L1064.89 696H1077.19L1060.22 675.254L1076.7 655H1064.07L1049.97 673.04V655H1039.39V696H1049.97ZM1109.58 672.712L1090.31 696H1082.44V655H1092.77V678.288L1112.04 655H1119.92V696H1109.58V672.712ZM206.928 797.148C219.146 797.148 227.756 790.588 227.756 779.846C227.756 768.137 218.108 765.095 209.017 762.229L208.978 762.216C200.286 759.592 198.072 757.706 198.072 754.18C198.072 750.9 200.86 748.44 205.616 748.44C211.438 748.44 214.554 751.474 216.604 755.82L226.116 750.326C222.262 742.29 215.046 737.452 205.616 737.452C195.776 737.452 186.756 743.684 186.756 754.508C186.756 765.414 195.284 769.104 204.058 771.646C212.586 774.106 216.44 775.746 216.44 780.01C216.44 783.208 214.062 786.078 207.256 786.078C200.122 786.078 196.104 782.634 194.054 777.304L184.378 782.962C187.494 791.49 195.202 797.148 206.928 797.148ZM258.096 786.406V796C243.254 797.64 238.252 793.294 238.252 782.224V765.168H231.118V755H238.252V746.718L248.83 743.52V755H258.096V765.168H248.83V782.224C248.83 786.652 252.028 786.734 258.096 786.406ZM286.55 797.148C294.422 797.148 300.572 793.95 304.426 788.374L295.898 783.454C294.094 785.832 290.814 787.554 286.714 787.554C281.138 787.554 276.628 785.258 275.152 779.846H306.066C306.312 778.452 306.476 777.058 306.476 775.5C306.476 763.446 297.866 753.852 285.73 753.852C272.856 753.852 264.082 763.282 264.082 775.5C264.082 787.718 272.774 797.148 286.55 797.148ZM274.988 771.646H295.898C294.586 765.742 290.158 763.364 285.73 763.364C280.072 763.364 276.218 766.398 274.988 771.646ZM324.434 812.4V791.162C327.386 794.934 331.732 797.148 337.718 797.148C348.706 797.148 357.726 787.718 357.726 775.5C357.726 763.282 348.706 753.852 337.718 753.852C331.732 753.852 327.386 756.066 324.434 759.838V755H313.856V812.4H324.434ZM324.434 775.5C324.434 782.388 329.272 787.062 335.75 787.062C342.31 787.062 347.148 782.388 347.148 775.5C347.148 768.612 342.31 763.938 335.75 763.938C329.272 763.938 324.434 768.612 324.434 775.5ZM370.436 750.08C374.044 750.08 376.996 747.128 376.996 743.602C376.996 740.076 374.044 737.042 370.436 737.042C366.91 737.042 363.958 740.076 363.958 743.602C363.958 747.128 366.91 750.08 370.436 750.08ZM365.188 755H375.766V796H365.188V755ZM396.02 796V777.386L410.944 796H423.244L406.27 775.254L422.752 755H410.124L396.02 773.04V738.6H385.442V796H396.02ZM460.8 777.14V796H449.484V738.6H470.886C481.956 738.6 490.484 747.128 490.484 757.87C490.484 768.612 481.956 777.14 470.886 777.14H460.8ZM470.886 766.562H460.8V749.178H470.886C475.724 749.178 479.25 752.868 479.25 757.87C479.25 762.79 475.724 766.562 470.886 766.562ZM507.95 776.402V796H497.372V755H507.95V762.052C510.082 756.476 515.248 754.18 520.414 754.18V765.988C514.92 765.332 507.95 767.792 507.95 776.402ZM546.08 797.148C558.134 797.148 567.81 787.718 567.81 775.5C567.81 763.282 558.134 753.852 546.08 753.852C534.026 753.852 524.432 763.282 524.432 775.5C524.432 787.718 534.026 797.148 546.08 797.148ZM535.01 775.5C535.01 782.142 539.848 786.816 546.08 786.816C552.394 786.816 557.232 782.142 557.232 775.5C557.232 768.858 552.394 764.184 546.08 764.184C539.848 764.184 535.01 768.858 535.01 775.5Z" fill="#222437"></path> <path fill-rule="evenodd" clip-rule="evenodd" d="M447.65 555.265C447.65 559.99 444.185 563.49 438.83 563.49C433.23 563.49 429.625 559.465 429.625 554.075C429.625 548.44 430.675 545.5 436.31 542.735C436.913 542.439 437.467 542.18 437.977 541.941L437.977 541.941C440.607 540.71 442.052 540.034 442.785 537.835L446.495 539.97C445.83 543.05 443.31 544.275 439.67 545.675C436.52 546.9 435.505 547.985 434.945 549.525C436.345 548.09 438.34 547.53 440.195 547.53C443.8 547.53 447.65 550.365 447.65 555.265ZM189.105 563V543.12H197.75V563H202.58V538.5H184.275V563H189.105ZM215.6 563.49C218.96 563.49 221.585 562.125 223.23 559.745L219.59 557.645C218.82 558.66 217.42 559.395 215.67 559.395C213.29 559.395 211.365 558.415 210.735 556.105H223.93C224.035 555.51 224.105 554.915 224.105 554.25C224.105 549.105 220.43 545.01 215.25 545.01C209.755 545.01 206.01 549.035 206.01 554.25C206.01 559.465 209.72 563.49 215.6 563.49ZM210.665 552.605H219.59C219.03 550.085 217.14 549.07 215.25 549.07C212.835 549.07 211.19 550.365 210.665 552.605ZM231.77 570V560.935C233.03 562.545 234.885 563.49 237.44 563.49C242.13 563.49 245.98 559.465 245.98 554.25C245.98 549.035 242.13 545.01 237.44 545.01C234.885 545.01 233.03 545.955 231.77 547.565V545.5H227.255V570H231.77ZM231.77 554.25C231.77 557.19 233.835 559.185 236.6 559.185C239.4 559.185 241.465 557.19 241.465 554.25C241.465 551.31 239.4 549.315 236.6 549.315C233.835 549.315 231.77 551.31 231.77 554.25ZM258.37 563C262.22 563 264.215 560.865 264.215 558.03C264.215 556.21 263.34 554.81 261.765 554.04C262.885 553.2 263.48 551.975 263.48 550.435C263.48 547.565 261.45 545.5 257.67 545.5H249.165V563H258.37ZM253.4 552.36H257.25C258.475 552.36 259.175 551.87 259.175 550.785C259.175 549.735 258.475 549.21 257.25 549.21H253.4V552.36ZM257.845 559.185H253.4V555.93H257.845C259.035 555.93 259.805 556.49 259.805 557.505C259.805 558.59 259.07 559.185 257.845 559.185ZM281.575 557.05C281.575 560.62 278.95 563 274.96 563H267.05V545.5H271.565V551.1H274.96C278.95 551.1 281.575 553.48 281.575 557.05ZM288.015 545.5H283.5V563H288.015V545.5ZM271.565 559.01H274.995C276.255 559.01 277.165 558.24 277.165 557.05C277.165 555.86 276.255 555.055 274.995 555.055H271.565V559.01ZM305.235 543.26V539.34H295.085V543.26H305.235ZM308.14 563H303.73V553.06L295.505 563H292.145V545.5H296.555V555.44L304.78 545.5H308.14V563ZM325.36 563V552.71L329.84 559.78H330.4L334.845 552.78V563H339.22V545.5H334.775L330.12 552.85L325.465 545.5H321.02V563H325.36ZM359.66 559.745C358.015 562.125 355.39 563.49 352.03 563.49C346.15 563.49 342.44 559.465 342.44 554.25C342.44 549.035 346.185 545.01 351.68 545.01C356.86 545.01 360.535 549.105 360.535 554.25C360.535 554.915 360.465 555.51 360.36 556.105H347.165C347.795 558.415 349.72 559.395 352.1 559.395C353.85 559.395 355.25 558.66 356.02 557.645L359.66 559.745ZM356.02 552.605H347.095C347.62 550.365 349.265 549.07 351.68 549.07C353.57 549.07 355.46 550.085 356.02 552.605ZM379.925 558.94C378.42 561.67 375.445 563.49 372.015 563.49C366.695 563.49 362.775 559.465 362.775 554.25C362.775 549.035 366.695 545.01 372.015 545.01C375.445 545.01 378.42 546.83 379.855 549.525L375.97 551.8C375.27 550.365 373.765 549.455 371.98 549.455C369.285 549.455 367.29 551.45 367.29 554.25C367.29 557.015 369.285 559.01 371.98 559.01C373.8 559.01 375.305 558.135 376.005 556.7L379.925 558.94ZM386.47 563L390.495 557.54H392.07V563H396.48V545.5H388.29C384.335 545.5 381.955 548.405 381.955 551.52C381.955 553.83 383.355 556.07 385.63 557.015L381.255 563H386.47ZM388.64 553.725H392.07V549.525H388.64C387.345 549.525 386.365 550.33 386.365 551.66C386.365 552.955 387.345 553.725 388.64 553.725ZM418.95 567.69V558.765H416.01V545.5H411.495V558.765H405.125V545.5H400.61V563H414.54V567.69H418.95ZM438.795 559.36C436.31 559.36 434.35 557.61 434.35 555.125C434.35 552.57 436.625 551.135 438.76 551.135C441.35 551.135 443.135 552.885 443.135 555.265C443.135 557.61 441.35 559.36 438.795 559.36ZM466.69 559.745C465.045 562.125 462.42 563.49 459.06 563.49C453.18 563.49 449.47 559.465 449.47 554.25C449.47 549.035 453.215 545.01 458.71 545.01C463.89 545.01 467.565 549.105 467.565 554.25C467.565 554.915 467.495 555.51 467.39 556.105H454.195C454.825 558.415 456.75 559.395 459.13 559.395C460.88 559.395 462.28 558.66 463.05 557.645L466.69 559.745ZM463.05 552.605H454.125C454.65 550.365 456.295 549.07 458.71 549.07C460.6 549.07 462.49 550.085 463.05 552.605ZM486.955 558.94C485.45 561.67 482.475 563.49 479.045 563.49C473.725 563.49 469.805 559.465 469.805 554.25C469.805 549.035 473.725 545.01 479.045 545.01C482.475 545.01 485.45 546.83 486.885 549.525L483 551.8C482.3 550.365 480.795 549.455 479.01 549.455C476.315 549.455 474.32 551.45 474.32 554.25C474.32 557.015 476.315 559.01 479.01 559.01C480.83 559.01 482.335 558.135 483.035 556.7L486.955 558.94ZM493.99 563V549.735H500.955V563H505.47V545.5H489.475V563H493.99ZM515.27 549.84V555.685C515.27 561.215 512.61 563.525 507.885 563V558.765C509.74 559.22 510.755 558.17 510.755 555.44V545.5H524.615V563H520.1V549.84H515.27ZM536.305 563.49C538.86 563.49 540.75 562.51 542.01 560.935V563H546.525V545.5H542.01V547.565C540.75 545.99 538.86 545.01 536.305 545.01C531.65 545.01 527.8 549.035 527.8 554.25C527.8 559.465 531.65 563.49 536.305 563.49ZM532.315 554.25C532.315 557.19 534.38 559.185 537.145 559.185C539.945 559.185 542.01 557.19 542.01 554.25C542.01 551.31 539.945 549.315 537.145 549.315C534.38 549.315 532.315 551.31 532.315 554.25ZM558.95 563V549.84H564.41V545.5H548.905V549.84H554.435V563H558.95ZM571.34 556.35V563H566.825V545.5H571.34V552.115H578.305V545.5H582.82V563H578.305V556.35H571.34ZM595.28 563.49C600.425 563.49 604.555 559.465 604.555 554.25C604.555 549.035 600.425 545.01 595.28 545.01C590.135 545.01 586.04 549.035 586.04 554.25C586.04 559.465 590.135 563.49 595.28 563.49ZM590.555 554.25C590.555 557.085 592.62 559.08 595.28 559.08C597.975 559.08 600.04 557.085 600.04 554.25C600.04 551.415 597.975 549.42 595.28 549.42C592.62 549.42 590.555 551.415 590.555 554.25Z" fill="#66CC66"></path> <path fill-rule="evenodd" clip-rule="evenodd" d="M991.6 545V499H1016.2C1043.2 499 1064 478.2 1064 452C1064 425.8 1043.2 405 1016.2 405H964V545H991.6ZM1016.2 473.2H991.6V430.8H1016.2C1028 430.8 1036.6 439.8 1036.6 452C1036.6 464 1028 473.2 1016.2 473.2ZM1106.6 497.2V545H1080.8V445H1106.6V462.2C1111.8 448.6 1124.4 443 1137 443V471.8C1123.6 470.2 1106.6 476.2 1106.6 497.2ZM1199.6 547.8C1229 547.8 1252.6 524.8 1252.6 495C1252.6 465.2 1229 442.2 1199.6 442.2C1170.2 442.2 1146.8 465.2 1146.8 495C1146.8 524.8 1170.2 547.8 1199.6 547.8ZM1172.6 495C1172.6 511.2 1184.4 522.6 1199.6 522.6C1215 522.6 1226.8 511.2 1226.8 495C1226.8 478.8 1215 467.4 1199.6 467.4C1184.4 467.4 1172.6 478.8 1172.6 495Z" fill="#222437"></path> <defs> <linearGradient id="paint0_linear" x1="238.549" y1="319.499" x2="546.004" y2="1861.79" gradientUnits="userSpaceOnUse"> <stop stop-color="#F3F4F6"></stop> <stop offset="0.590456" stop-color="#A597FE"></stop> <stop offset="0.853727" stop-color="#826DFE"></stop> <stop offset="1" stop-color="#4F7CFF"></stop> </linearGradient> </defs> </svg> 