<?xml version="1.0" encoding="UTF-8"?> <svg xmlns="http://www.w3.org/2000/svg" width="1499" height="1007" viewBox="0 0 1499 1007" fill="none"> <g opacity="0.1"> <path opacity="0.75" d="M191.591 81.7735C197.779 78.2009 205.403 78.2008 211.591 81.7735L256.182 107.518C262.37 111.091 266.182 117.693 266.182 124.839V176.328C266.182 183.474 262.371 190.076 256.182 193.649L211.591 219.394C205.403 222.966 197.779 222.966 191.591 219.394L147 193.649C140.812 190.076 137 183.474 137 176.328V124.839C137 117.693 140.812 111.091 147 107.518L191.591 81.7735Z" stroke="#6C63FF"></path> <path opacity="0.15" d="M256.669 193.193C262.857 189.621 270.481 189.621 276.669 193.193L321.261 218.938C327.449 222.511 331.261 229.113 331.261 236.259V287.748C331.261 294.894 327.449 301.496 321.261 305.069L276.669 330.814C270.481 334.386 262.857 334.386 256.669 330.814L212.078 305.069C205.89 301.496 202.078 294.894 202.078 287.748V236.259C202.078 229.113 205.89 222.511 212.078 218.938L256.669 193.193Z" stroke="#6C63FF"></path> <path opacity="0.25" d="M321.259 81.7735C327.447 78.2009 335.071 78.2008 341.259 81.7735L385.85 107.518C392.038 111.091 395.85 117.693 395.85 124.839V176.328C395.85 183.474 392.038 190.076 385.85 193.649L341.259 219.394C335.071 222.966 327.447 222.966 321.259 219.394L276.668 193.649C270.48 190.076 266.668 183.474 266.668 176.328V124.839C266.668 117.693 270.48 111.091 276.668 107.518L321.259 81.7735Z" stroke="#6C63FF"></path> <path opacity="0.45" d="M386.337 193.193C392.525 189.621 400.149 189.621 406.337 193.193L450.929 218.938C457.117 222.511 460.929 229.113 460.929 236.259V287.748C460.929 294.894 457.117 301.496 450.929 305.069L406.337 330.814C400.149 334.386 392.525 334.386 386.337 330.814L341.746 305.069C335.558 301.496 331.746 294.894 331.746 287.748V236.259C331.746 229.113 335.558 222.511 341.746 218.938L386.337 193.193Z" stroke="#6C63FF"></path> </g> <g opacity="0.25"> <path opacity="0.75" d="M450.927 81.7735C457.115 78.2009 464.739 78.2008 470.927 81.7735L515.518 107.518C521.706 111.091 525.518 117.693 525.518 124.839V176.328C525.518 183.474 521.706 190.076 515.518 193.649L470.927 219.394C464.739 222.966 457.115 222.966 450.927 219.394L406.336 193.649C400.148 190.076 396.336 183.474 396.336 176.328V124.839C396.336 117.693 400.148 111.091 406.336 107.518L450.927 81.7735Z" stroke="#6C63FF"></path> <path opacity="0.15" d="M516.005 193.193C522.193 189.621 529.817 189.621 536.005 193.193L580.597 218.938C586.785 222.511 590.597 229.113 590.597 236.259V287.748C590.597 294.894 586.785 301.496 580.597 305.069L536.005 330.814C529.817 334.386 522.193 334.386 516.005 330.814L471.414 305.069C465.226 301.496 461.414 294.894 461.414 287.748V236.259C461.414 229.113 465.226 222.511 471.414 218.938L516.005 193.193Z" stroke="#6C63FF"></path> <path opacity="0.25" d="M580.595 81.7735C586.783 78.2009 594.407 78.2008 600.595 81.7735L645.186 107.518C651.374 111.091 655.186 117.693 655.186 124.839V176.328C655.186 183.474 651.374 190.076 645.186 193.649L600.595 219.394C594.407 222.966 586.783 222.966 580.595 219.394L536.004 193.649C529.816 190.076 526.004 183.474 526.004 176.328V124.839C526.004 117.693 529.816 111.091 536.004 107.518L580.595 81.7735Z" stroke="#6C63FF"></path> <path opacity="0.45" d="M645.673 193.193C651.861 189.621 659.485 189.621 665.673 193.193L710.265 218.938C716.453 222.511 720.265 229.113 720.265 236.259V287.748C720.265 294.894 716.453 301.496 710.265 305.069L665.673 330.814C659.485 334.386 651.861 334.386 645.673 330.814L601.082 305.069C594.894 301.496 591.082 294.894 591.082 287.748V236.259C591.082 229.113 594.894 222.511 601.082 218.938L645.673 193.193Z" stroke="#6C63FF"></path> </g> <g opacity="0.45"> <path opacity="0.75" d="M710.263 81.7735C716.451 78.2009 724.075 78.2008 730.263 81.7735L774.854 107.518C781.042 111.091 784.854 117.693 784.854 124.839V176.328C784.854 183.474 781.042 190.076 774.854 193.649L730.263 219.394C724.075 222.966 716.451 222.966 710.263 219.394L665.672 193.649C659.484 190.076 655.672 183.474 655.672 176.328V124.839C655.672 117.693 659.484 111.091 665.672 107.518L710.263 81.7735Z" stroke="#6C63FF"></path> <path opacity="0.15" d="M775.341 193.193C781.529 189.621 789.153 189.621 795.341 193.193L839.932 218.938C846.12 222.511 849.932 229.113 849.932 236.259V287.748C849.932 294.894 846.121 301.496 839.932 305.069L795.341 330.814C789.153 334.386 781.529 334.386 775.341 330.814L730.75 305.069C724.562 301.496 720.75 294.894 720.75 287.748V236.259C720.75 229.113 724.562 222.511 730.75 218.938L775.341 193.193Z" stroke="#6C63FF"></path> <path opacity="0.25" d="M839.931 81.7735C846.119 78.2009 853.743 78.2008 859.931 81.7735L904.522 107.518C910.71 111.091 914.522 117.693 914.522 124.839V176.328C914.522 183.474 910.71 190.076 904.522 193.649L859.931 219.394C853.743 222.966 846.119 222.966 839.931 219.394L795.34 193.649C789.152 190.076 785.34 183.474 785.34 176.328V124.839C785.34 117.693 789.152 111.091 795.34 107.518L839.931 81.7735Z" stroke="#6C63FF"></path> <path opacity="0.45" d="M905.009 193.193C911.197 189.621 918.821 189.621 925.009 193.193L969.6 218.938C975.788 222.511 979.6 229.113 979.6 236.259V287.748C979.6 294.894 975.788 301.496 969.6 305.069L925.009 330.814C918.821 334.386 911.197 334.386 905.009 330.814L860.418 305.069C854.23 301.496 850.418 294.894 850.418 287.748V236.259C850.418 229.113 854.23 222.511 860.418 218.938L905.009 193.193Z" stroke="#6C63FF"></path> </g> <g opacity="0.75"> <path opacity="0.75" d="M969.603 81.7735C975.791 78.2009 983.415 78.2008 989.603 81.7735L1034.19 107.518C1040.38 111.091 1044.19 117.693 1044.19 124.839V176.328C1044.19 183.474 1040.38 190.076 1034.19 193.649L989.603 219.394C983.415 222.966 975.791 222.966 969.603 219.394L925.012 193.649C918.824 190.076 915.012 183.474 915.012 176.328V124.839C915.012 117.693 918.824 111.091 925.012 107.518L969.603 81.7735Z" stroke="#6C63FF"></path> <path opacity="0.15" d="M1034.68 193.193C1040.87 189.621 1048.49 189.621 1054.68 193.193L1099.27 218.938C1105.46 222.511 1109.27 229.113 1109.27 236.259V287.748C1109.27 294.894 1105.46 301.496 1099.27 305.069L1054.68 330.814C1048.49 334.386 1040.87 334.386 1034.68 330.814L990.09 305.069C983.902 301.496 980.09 294.894 980.09 287.748V236.259C980.09 229.113 983.902 222.511 990.09 218.938L1034.68 193.193Z" stroke="#6C63FF"></path> <path opacity="0.25" d="M1099.27 81.7735C1105.46 78.2009 1113.08 78.2008 1119.27 81.7735L1163.86 107.518C1170.05 111.091 1173.86 117.693 1173.86 124.839V176.328C1173.86 183.474 1170.05 190.076 1163.86 193.649L1119.27 219.394C1113.08 222.966 1105.46 222.966 1099.27 219.394L1054.68 193.649C1048.49 190.076 1044.68 183.474 1044.68 176.328V124.839C1044.68 117.693 1048.49 111.091 1054.68 107.518L1099.27 81.7735Z" stroke="#6C63FF"></path> <path opacity="0.45" d="M1164.35 193.193C1170.54 189.621 1178.16 189.621 1184.35 193.193L1228.94 218.938C1235.13 222.511 1238.94 229.113 1238.94 236.259V287.748C1238.94 294.894 1235.13 301.496 1228.94 305.069L1184.35 330.814C1178.16 334.386 1170.54 334.386 1164.35 330.814L1119.76 305.069C1113.57 301.496 1109.76 294.894 1109.76 287.748V236.259C1109.76 229.113 1113.57 222.511 1119.76 218.938L1164.35 193.193Z" stroke="#6C63FF"></path> </g> <path opacity="0.75" d="M1228.93 81.7735C1235.12 78.2009 1242.75 78.2008 1248.93 81.7735L1293.53 107.518C1299.71 111.091 1303.53 117.693 1303.53 124.839V176.328C1303.53 183.474 1299.71 190.076 1293.53 193.649L1248.93 219.394C1242.75 222.966 1235.12 222.966 1228.93 219.394L1184.34 193.649C1178.16 190.076 1174.34 183.474 1174.34 176.328V124.839C1174.34 117.693 1178.16 111.091 1184.34 107.518L1228.93 81.7735Z" stroke="#6C63FF"></path> <path opacity="0.15" d="M1294.01 193.193C1300.2 189.621 1307.83 189.621 1314.01 193.193L1358.6 218.938C1364.79 222.511 1368.6 229.113 1368.6 236.259V287.748C1368.6 294.894 1364.79 301.496 1358.6 305.069L1314.01 330.814C1307.83 334.386 1300.2 334.386 1294.01 330.814L1249.42 305.069C1243.23 301.496 1239.42 294.894 1239.42 287.748V236.259C1239.42 229.113 1243.23 222.511 1249.42 218.938L1294.01 193.193Z" stroke="#6C63FF"></path> <path opacity="0.25" d="M1358.6 81.7735C1364.79 78.2009 1372.41 78.2008 1378.6 81.7735L1423.19 107.518C1429.38 111.091 1433.19 117.693 1433.19 124.839V176.328C1433.19 183.474 1429.38 190.076 1423.19 193.649L1378.6 219.394C1372.41 222.966 1364.79 222.966 1358.6 219.394L1314.01 193.649C1307.82 190.076 1304.01 183.474 1304.01 176.328V124.839C1304.01 117.693 1307.82 111.091 1314.01 107.518L1358.6 81.7735Z" stroke="#6C63FF"></path> <path opacity="0.45" d="M1423.68 193.193C1429.87 189.621 1437.49 189.621 1443.68 193.193L1488.27 218.938C1494.46 222.511 1498.27 229.113 1498.27 236.259V287.748C1498.27 294.894 1494.46 301.496 1488.27 305.069L1443.68 330.814C1437.49 334.386 1429.87 334.386 1423.68 330.814L1379.09 305.069C1372.9 301.496 1369.09 294.894 1369.09 287.748V236.259C1369.09 229.113 1372.9 222.511 1379.09 218.938L1423.68 193.193Z" stroke="#6C63FF"></path> <g opacity="0.1"> <path opacity="0.75" d="M191.591 305.221C197.779 301.648 205.403 301.648 211.591 305.221L256.182 330.966C262.37 334.538 266.182 341.141 266.182 348.286V399.776C266.182 406.921 262.371 413.523 256.182 417.096L211.591 442.841C205.403 446.413 197.779 446.414 191.591 442.841L147 417.096C140.812 413.523 137 406.921 137 399.776V348.286C137 341.141 140.812 334.538 147 330.966L191.591 305.221Z" stroke="#6C63FF"></path> <path opacity="0.15" d="M256.669 416.641C262.857 413.068 270.481 413.068 276.669 416.641L321.261 442.385C327.449 445.958 331.261 452.561 331.261 459.706V511.195C331.261 518.341 327.449 524.943 321.261 528.516L276.669 554.261C270.481 557.833 262.857 557.833 256.669 554.261L212.078 528.516C205.89 524.943 202.078 518.341 202.078 511.195V459.706C202.078 452.561 205.89 445.958 212.078 442.385L256.669 416.641Z" stroke="#6C63FF"></path> <path opacity="0.25" d="M321.259 305.221C327.447 301.648 335.071 301.648 341.259 305.221L385.85 330.966C392.038 334.538 395.85 341.141 395.85 348.286V399.776C395.85 406.921 392.038 413.523 385.85 417.096L341.259 442.841C335.071 446.413 327.447 446.414 321.259 442.841L276.668 417.096C270.48 413.523 266.668 406.921 266.668 399.776V348.286C266.668 341.141 270.48 334.538 276.668 330.966L321.259 305.221Z" stroke="#6C63FF"></path> <path opacity="0.45" d="M386.337 416.641C392.525 413.068 400.149 413.068 406.337 416.641L450.929 442.385C457.117 445.958 460.929 452.561 460.929 459.706V511.195C460.929 518.341 457.117 524.943 450.929 528.516L406.337 554.261C400.149 557.833 392.525 557.833 386.337 554.261L341.746 528.516C335.558 524.943 331.746 518.341 331.746 511.195V459.706C331.746 452.561 335.558 445.958 341.746 442.385L386.337 416.641Z" stroke="#6C63FF"></path> </g> <g opacity="0.25"> <path opacity="0.75" d="M450.927 305.221C457.115 301.648 464.739 301.648 470.927 305.221L515.518 330.966C521.706 334.538 525.518 341.141 525.518 348.286V399.776C525.518 406.921 521.706 413.523 515.518 417.096L470.927 442.841C464.739 446.413 457.115 446.414 450.927 442.841L406.336 417.096C400.148 413.523 396.336 406.921 396.336 399.776V348.286C396.336 341.141 400.148 334.538 406.336 330.966L450.927 305.221Z" stroke="#6C63FF"></path> <path opacity="0.15" d="M516.005 416.641C522.193 413.068 529.817 413.068 536.005 416.641L580.597 442.385C586.785 445.958 590.597 452.561 590.597 459.706V511.195C590.597 518.341 586.785 524.943 580.597 528.516L536.005 554.261C529.817 557.833 522.193 557.833 516.005 554.261L471.414 528.516C465.226 524.943 461.414 518.341 461.414 511.195V459.706C461.414 452.561 465.226 445.958 471.414 442.385L516.005 416.641Z" stroke="#6C63FF"></path> <path opacity="0.25" d="M580.595 305.221C586.783 301.648 594.407 301.648 600.595 305.221L645.186 330.966C651.374 334.538 655.186 341.141 655.186 348.286V399.776C655.186 406.921 651.374 413.523 645.186 417.096L600.595 442.841C594.407 446.413 586.783 446.414 580.595 442.841L536.004 417.096C529.816 413.523 526.004 406.921 526.004 399.776V348.286C526.004 341.141 529.816 334.538 536.004 330.966L580.595 305.221Z" stroke="#6C63FF"></path> <path opacity="0.45" d="M645.673 416.641C651.861 413.068 659.485 413.068 665.673 416.641L710.265 442.385C716.453 445.958 720.265 452.561 720.265 459.706V511.195C720.265 518.341 716.453 524.943 710.265 528.516L665.673 554.261C659.485 557.833 651.861 557.833 645.673 554.261L601.082 528.516C594.894 524.943 591.082 518.341 591.082 511.195V459.706C591.082 452.561 594.894 445.958 601.082 442.385L645.673 416.641Z" stroke="#6C63FF"></path> </g> <g opacity="0.45"> <path opacity="0.75" d="M710.263 305.221C716.451 301.648 724.075 301.648 730.263 305.221L774.854 330.966C781.042 334.538 784.854 341.141 784.854 348.286V399.776C784.854 406.921 781.042 413.523 774.854 417.096L730.263 442.841C724.075 446.413 716.451 446.414 710.263 442.841L665.672 417.096C659.484 413.523 655.672 406.921 655.672 399.776V348.286C655.672 341.141 659.484 334.538 665.672 330.966L710.263 305.221Z" stroke="#6C63FF"></path> <path opacity="0.15" d="M775.341 416.641C781.529 413.068 789.153 413.068 795.341 416.641L839.932 442.385C846.12 445.958 849.932 452.561 849.932 459.706V511.195C849.932 518.341 846.121 524.943 839.932 528.516L795.341 554.261C789.153 557.833 781.529 557.833 775.341 554.261L730.75 528.516C724.562 524.943 720.75 518.341 720.75 511.195V459.706C720.75 452.561 724.562 445.958 730.75 442.385L775.341 416.641Z" stroke="#6C63FF"></path> <path opacity="0.25" d="M839.931 305.221C846.119 301.648 853.743 301.648 859.931 305.221L904.522 330.966C910.71 334.538 914.522 341.141 914.522 348.286V399.776C914.522 406.921 910.71 413.523 904.522 417.096L859.931 442.841C853.743 446.413 846.119 446.414 839.931 442.841L795.34 417.096C789.152 413.523 785.34 406.921 785.34 399.776V348.286C785.34 341.141 789.152 334.538 795.34 330.966L839.931 305.221Z" stroke="#6C63FF"></path> <path opacity="0.45" d="M905.009 416.641C911.197 413.068 918.821 413.068 925.009 416.641L969.6 442.385C975.788 445.958 979.6 452.561 979.6 459.706V511.195C979.6 518.341 975.788 524.943 969.6 528.516L925.009 554.261C918.821 557.833 911.197 557.833 905.009 554.261L860.418 528.516C854.23 524.943 850.418 518.341 850.418 511.195V459.706C850.418 452.561 854.23 445.958 860.418 442.385L905.009 416.641Z" stroke="#6C63FF"></path> </g> <g opacity="0.75"> <path opacity="0.75" d="M969.603 305.221C975.791 301.648 983.415 301.648 989.603 305.221L1034.19 330.966C1040.38 334.538 1044.19 341.141 1044.19 348.286V399.776C1044.19 406.921 1040.38 413.523 1034.19 417.096L989.603 442.841C983.415 446.413 975.791 446.414 969.603 442.841L925.012 417.096C918.824 413.523 915.012 406.921 915.012 399.776V348.286C915.012 341.141 918.824 334.538 925.012 330.966L969.603 305.221Z" stroke="#6C63FF"></path> <path opacity="0.15" d="M1034.68 416.641C1040.87 413.068 1048.49 413.068 1054.68 416.641L1099.27 442.385C1105.46 445.958 1109.27 452.561 1109.27 459.706V511.195C1109.27 518.341 1105.46 524.943 1099.27 528.516L1054.68 554.261C1048.49 557.833 1040.87 557.833 1034.68 554.261L990.09 528.516C983.902 524.943 980.09 518.341 980.09 511.195V459.706C980.09 452.561 983.902 445.958 990.09 442.385L1034.68 416.641Z" stroke="#6C63FF"></path> <path opacity="0.25" d="M1099.27 305.221C1105.46 301.648 1113.08 301.648 1119.27 305.221L1163.86 330.966C1170.05 334.538 1173.86 341.141 1173.86 348.286V399.776C1173.86 406.921 1170.05 413.523 1163.86 417.096L1119.27 442.841C1113.08 446.413 1105.46 446.414 1099.27 442.841L1054.68 417.096C1048.49 413.523 1044.68 406.921 1044.68 399.776V348.286C1044.68 341.141 1048.49 334.538 1054.68 330.966L1099.27 305.221Z" stroke="#6C63FF"></path> <path opacity="0.45" d="M1164.35 416.641C1170.54 413.068 1178.16 413.068 1184.35 416.641L1228.94 442.385C1235.13 445.958 1238.94 452.561 1238.94 459.706V511.195C1238.94 518.341 1235.13 524.943 1228.94 528.516L1184.35 554.261C1178.16 557.833 1170.54 557.833 1164.35 554.261L1119.76 528.516C1113.57 524.943 1109.76 518.341 1109.76 511.195V459.706C1109.76 452.561 1113.57 445.958 1119.76 442.385L1164.35 416.641Z" stroke="#6C63FF"></path> </g> <path opacity="0.75" d="M1228.93 305.221C1235.12 301.648 1242.75 301.648 1248.93 305.221L1293.53 330.966C1299.71 334.538 1303.53 341.141 1303.53 348.286V399.776C1303.53 406.921 1299.71 413.523 1293.53 417.096L1248.93 442.841C1242.75 446.413 1235.12 446.414 1228.93 442.841L1184.34 417.096C1178.16 413.523 1174.34 406.921 1174.34 399.776V348.286C1174.34 341.141 1178.16 334.538 1184.34 330.966L1228.93 305.221Z" stroke="#6C63FF"></path> <path opacity="0.15" d="M1294.01 416.641C1300.2 413.068 1307.83 413.068 1314.01 416.641L1358.6 442.385C1364.79 445.958 1368.6 452.561 1368.6 459.706V511.195C1368.6 518.341 1364.79 524.943 1358.6 528.516L1314.01 554.261C1307.83 557.833 1300.2 557.833 1294.01 554.261L1249.42 528.516C1243.23 524.943 1239.42 518.341 1239.42 511.195V459.706C1239.42 452.561 1243.23 445.958 1249.42 442.385L1294.01 416.641Z" stroke="#6C63FF"></path> <path opacity="0.25" d="M1358.6 305.221C1364.79 301.648 1372.41 301.648 1378.6 305.221L1423.19 330.966C1429.38 334.538 1433.19 341.141 1433.19 348.286V399.776C1433.19 406.921 1429.38 413.523 1423.19 417.096L1378.6 442.841C1372.41 446.413 1364.79 446.414 1358.6 442.841L1314.01 417.096C1307.82 413.523 1304.01 406.921 1304.01 399.776V348.286C1304.01 341.141 1307.82 334.538 1314.01 330.966L1358.6 305.221Z" stroke="#6C63FF"></path> <path opacity="0.45" d="M1423.68 416.641C1429.87 413.068 1437.49 413.068 1443.68 416.641L1488.27 442.385C1494.46 445.958 1498.27 452.561 1498.27 459.706V511.195C1498.27 518.341 1494.46 524.943 1488.27 528.516L1443.68 554.261C1437.49 557.833 1429.87 557.833 1423.68 554.261L1379.09 528.516C1372.9 524.943 1369.09 518.341 1369.09 511.195V459.706C1369.09 452.561 1372.9 445.958 1379.09 442.385L1423.68 416.641Z" stroke="#6C63FF"></path> <g opacity="0.1"> <path opacity="0.75" d="M191.591 528.668C197.779 525.095 205.403 525.095 211.591 528.668L256.182 554.412C262.37 557.985 266.182 564.588 266.182 571.733V623.222C266.182 630.368 262.371 636.97 256.182 640.543L211.591 666.288C205.403 669.86 197.779 669.86 191.591 666.288L147 640.543C140.812 636.97 137 630.368 137 623.222V571.733C137 564.588 140.812 557.985 147 554.412L191.591 528.668Z" stroke="#6C63FF"></path> <path opacity="0.15" d="M256.669 640.087C262.857 636.515 270.481 636.515 276.669 640.087L321.261 665.832C327.449 669.405 331.261 676.007 331.261 683.153V734.642C331.261 741.788 327.449 748.39 321.261 751.963L276.669 777.708C270.481 781.28 262.857 781.28 256.669 777.708L212.078 751.963C205.89 748.39 202.078 741.788 202.078 734.642V683.153C202.078 676.007 205.89 669.405 212.078 665.832L256.669 640.087Z" stroke="#6C63FF"></path> <path opacity="0.25" d="M321.259 528.668C327.447 525.095 335.071 525.095 341.259 528.668L385.85 554.412C392.038 557.985 395.85 564.588 395.85 571.733V623.222C395.85 630.368 392.038 636.97 385.85 640.543L341.259 666.288C335.071 669.86 327.447 669.86 321.259 666.288L276.668 640.543C270.48 636.97 266.668 630.368 266.668 623.222V571.733C266.668 564.588 270.48 557.985 276.668 554.412L321.259 528.668Z" stroke="#6C63FF"></path> <path opacity="0.45" d="M386.337 640.087C392.525 636.515 400.149 636.515 406.337 640.087L450.929 665.832C457.117 669.405 460.929 676.007 460.929 683.153V734.642C460.929 741.788 457.117 748.39 450.929 751.963L406.337 777.708C400.149 781.28 392.525 781.28 386.337 777.708L341.746 751.963C335.558 748.39 331.746 741.788 331.746 734.642V683.153C331.746 676.007 335.558 669.405 341.746 665.832L386.337 640.087Z" stroke="#6C63FF"></path> </g> <g opacity="0.25"> <path opacity="0.75" d="M450.927 528.668C457.115 525.095 464.739 525.095 470.927 528.668L515.518 554.412C521.706 557.985 525.518 564.588 525.518 571.733V623.222C525.518 630.368 521.706 636.97 515.518 640.543L470.927 666.288C464.739 669.86 457.115 669.86 450.927 666.288L406.336 640.543C400.148 636.97 396.336 630.368 396.336 623.222V571.733C396.336 564.588 400.148 557.985 406.336 554.412L450.927 528.668Z" stroke="#6C63FF"></path> <path opacity="0.15" d="M516.005 640.087C522.193 636.515 529.817 636.515 536.005 640.087L580.597 665.832C586.785 669.405 590.597 676.007 590.597 683.153V734.642C590.597 741.788 586.785 748.39 580.597 751.963L536.005 777.708C529.817 781.28 522.193 781.28 516.005 777.708L471.414 751.963C465.226 748.39 461.414 741.788 461.414 734.642V683.153C461.414 676.007 465.226 669.405 471.414 665.832L516.005 640.087Z" stroke="#6C63FF"></path> <path opacity="0.25" d="M580.595 528.668C586.783 525.095 594.407 525.095 600.595 528.668L645.186 554.412C651.374 557.985 655.186 564.588 655.186 571.733V623.222C655.186 630.368 651.374 636.97 645.186 640.543L600.595 666.288C594.407 669.86 586.783 669.86 580.595 666.288L536.004 640.543C529.816 636.97 526.004 630.368 526.004 623.222V571.733C526.004 564.588 529.816 557.985 536.004 554.412L580.595 528.668Z" stroke="#6C63FF"></path> <path opacity="0.45" d="M645.673 640.087C651.861 636.515 659.485 636.515 665.673 640.087L710.265 665.832C716.453 669.405 720.265 676.007 720.265 683.153V734.642C720.265 741.788 716.453 748.39 710.265 751.963L665.673 777.708C659.485 781.28 651.861 781.28 645.673 777.708L601.082 751.963C594.894 748.39 591.082 741.788 591.082 734.642V683.153C591.082 676.007 594.894 669.405 601.082 665.832L645.673 640.087Z" stroke="#6C63FF"></path> </g> <g opacity="0.45"> <path opacity="0.75" d="M710.263 528.668C716.451 525.095 724.075 525.095 730.263 528.668L774.854 554.412C781.042 557.985 784.854 564.588 784.854 571.733V623.222C784.854 630.368 781.042 636.97 774.854 640.543L730.263 666.288C724.075 669.86 716.451 669.86 710.263 666.288L665.672 640.543C659.484 636.97 655.672 630.368 655.672 623.222V571.733C655.672 564.588 659.484 557.985 665.672 554.412L710.263 528.668Z" stroke="#6C63FF"></path> <path opacity="0.15" d="M775.341 640.087C781.529 636.515 789.153 636.515 795.341 640.087L839.932 665.832C846.12 669.405 849.932 676.007 849.932 683.153V734.642C849.932 741.788 846.121 748.39 839.932 751.963L795.341 777.708C789.153 781.28 781.529 781.28 775.341 777.708L730.75 751.963C724.562 748.39 720.75 741.788 720.75 734.642V683.153C720.75 676.007 724.562 669.405 730.75 665.832L775.341 640.087Z" stroke="#6C63FF"></path> <path opacity="0.25" d="M839.931 528.668C846.119 525.095 853.743 525.095 859.931 528.668L904.522 554.412C910.71 557.985 914.522 564.588 914.522 571.733V623.222C914.522 630.368 910.71 636.97 904.522 640.543L859.931 666.288C853.743 669.86 846.119 669.86 839.931 666.288L795.34 640.543C789.152 636.97 785.34 630.368 785.34 623.222V571.733C785.34 564.588 789.152 557.985 795.34 554.412L839.931 528.668Z" stroke="#6C63FF"></path> <path opacity="0.45" d="M905.009 640.087C911.197 636.515 918.821 636.515 925.009 640.087L969.6 665.832C975.788 669.405 979.6 676.007 979.6 683.153V734.642C979.6 741.788 975.788 748.39 969.6 751.963L925.009 777.708C918.821 781.28 911.197 781.28 905.009 777.708L860.418 751.963C854.23 748.39 850.418 741.788 850.418 734.642V683.153C850.418 676.007 854.23 669.405 860.418 665.832L905.009 640.087Z" stroke="#6C63FF"></path> </g> <g opacity="0.75"> <path opacity="0.75" d="M969.603 528.668C975.791 525.095 983.415 525.095 989.603 528.668L1034.19 554.412C1040.38 557.985 1044.19 564.588 1044.19 571.733V623.222C1044.19 630.368 1040.38 636.97 1034.19 640.543L989.603 666.288C983.415 669.86 975.791 669.86 969.603 666.288L925.012 640.543C918.824 636.97 915.012 630.368 915.012 623.222V571.733C915.012 564.588 918.824 557.985 925.012 554.412L969.603 528.668Z" stroke="#6C63FF"></path> <path opacity="0.15" d="M1034.68 640.087C1040.87 636.515 1048.49 636.515 1054.68 640.087L1099.27 665.832C1105.46 669.405 1109.27 676.007 1109.27 683.153V734.642C1109.27 741.788 1105.46 748.39 1099.27 751.963L1054.68 777.708C1048.49 781.28 1040.87 781.28 1034.68 777.708L990.09 751.963C983.902 748.39 980.09 741.788 980.09 734.642V683.153C980.09 676.007 983.902 669.405 990.09 665.832L1034.68 640.087Z" stroke="#6C63FF"></path> <path opacity="0.25" d="M1099.27 528.668C1105.46 525.095 1113.08 525.095 1119.27 528.668L1163.86 554.412C1170.05 557.985 1173.86 564.588 1173.86 571.733V623.222C1173.86 630.368 1170.05 636.97 1163.86 640.543L1119.27 666.288C1113.08 669.86 1105.46 669.86 1099.27 666.288L1054.68 640.543C1048.49 636.97 1044.68 630.368 1044.68 623.222V571.733C1044.68 564.588 1048.49 557.985 1054.68 554.412L1099.27 528.668Z" stroke="#6C63FF"></path> <path opacity="0.45" d="M1164.35 640.087C1170.54 636.515 1178.16 636.515 1184.35 640.087L1228.94 665.832C1235.13 669.405 1238.94 676.007 1238.94 683.153V734.642C1238.94 741.788 1235.13 748.39 1228.94 751.963L1184.35 777.708C1178.16 781.28 1170.54 781.28 1164.35 777.708L1119.76 751.963C1113.57 748.39 1109.76 741.788 1109.76 734.642V683.153C1109.76 676.007 1113.57 669.405 1119.76 665.832L1164.35 640.087Z" stroke="#6C63FF"></path> </g> <g opacity="0.1"> <path opacity="0.75" d="M191.591 752.114C197.779 748.542 205.403 748.542 211.591 752.114L256.182 777.859C262.37 781.432 266.182 788.034 266.182 795.18V846.669C266.182 853.814 262.371 860.417 256.182 863.99L211.591 889.734C205.403 893.307 197.779 893.307 191.591 889.734L147 863.99C140.812 860.417 137 853.814 137 846.669V795.18C137 788.034 140.812 781.432 147 777.859L191.591 752.114Z" stroke="#6C63FF"></path> <path opacity="0.15" d="M256.669 863.534C262.857 859.962 270.481 859.962 276.669 863.534L321.261 889.279C327.449 892.852 331.261 899.454 331.261 906.6V958.089C331.261 965.234 327.449 971.837 321.261 975.41L276.669 1001.15C270.481 1004.73 262.857 1004.73 256.669 1001.15L212.078 975.41C205.89 971.837 202.078 965.234 202.078 958.089V906.6C202.078 899.454 205.89 892.852 212.078 889.279L256.669 863.534Z" stroke="#6C63FF"></path> <path opacity="0.25" d="M321.259 752.114C327.447 748.542 335.071 748.542 341.259 752.114L385.85 777.859C392.038 781.432 395.85 788.034 395.85 795.18V846.669C395.85 853.814 392.038 860.417 385.85 863.99L341.259 889.734C335.071 893.307 327.447 893.307 321.259 889.734L276.668 863.99C270.48 860.417 266.668 853.814 266.668 846.669V795.18C266.668 788.034 270.48 781.432 276.668 777.859L321.259 752.114Z" stroke="#6C63FF"></path> <path opacity="0.45" d="M386.337 863.534C392.525 859.962 400.149 859.962 406.337 863.534L450.929 889.279C457.117 892.852 460.929 899.454 460.929 906.6V958.089C460.929 965.234 457.117 971.837 450.929 975.41L406.337 1001.15C400.149 1004.73 392.525 1004.73 386.337 1001.15L341.746 975.41C335.558 971.837 331.746 965.234 331.746 958.089V906.6C331.746 899.454 335.558 892.852 341.746 889.279L386.337 863.534Z" stroke="#6C63FF"></path> </g> <g opacity="0.25"> <path opacity="0.75" d="M450.927 752.114C457.115 748.542 464.739 748.542 470.927 752.114L515.518 777.859C521.706 781.432 525.518 788.034 525.518 795.18V846.669C525.518 853.814 521.706 860.417 515.518 863.99L470.927 889.734C464.739 893.307 457.115 893.307 450.927 889.734L406.336 863.99C400.148 860.417 396.336 853.814 396.336 846.669V795.18C396.336 788.034 400.148 781.432 406.336 777.859L450.927 752.114Z" stroke="#6C63FF"></path> <path opacity="0.15" d="M516.005 863.534C522.193 859.962 529.817 859.962 536.005 863.534L580.597 889.279C586.785 892.852 590.597 899.454 590.597 906.6V958.089C590.597 965.234 586.785 971.837 580.597 975.41L536.005 1001.15C529.817 1004.73 522.193 1004.73 516.005 1001.15L471.414 975.41C465.226 971.837 461.414 965.234 461.414 958.089V906.6C461.414 899.454 465.226 892.852 471.414 889.279L516.005 863.534Z" stroke="#6C63FF"></path> <path opacity="0.25" d="M580.595 752.114C586.783 748.542 594.407 748.542 600.595 752.114L645.186 777.859C651.374 781.432 655.186 788.034 655.186 795.18V846.669C655.186 853.814 651.374 860.417 645.186 863.99L600.595 889.734C594.407 893.307 586.783 893.307 580.595 889.734L536.004 863.99C529.816 860.417 526.004 853.814 526.004 846.669V795.18C526.004 788.034 529.816 781.432 536.004 777.859L580.595 752.114Z" stroke="#6C63FF"></path> <path opacity="0.45" d="M645.673 863.534C651.861 859.962 659.485 859.962 665.673 863.534L710.265 889.279C716.453 892.852 720.265 899.454 720.265 906.6V958.089C720.265 965.234 716.453 971.837 710.265 975.41L665.673 1001.15C659.485 1004.73 651.861 1004.73 645.673 1001.15L601.082 975.41C594.894 971.837 591.082 965.234 591.082 958.089V906.6C591.082 899.454 594.894 892.852 601.082 889.279L645.673 863.534Z" stroke="#6C63FF"></path> </g> <g opacity="0.25"> <path opacity="0.75" d="M321.927 18.7735C328.115 15.2009 335.739 15.2008 341.927 18.7735L386.518 44.5183C392.706 48.0909 396.518 54.6935 396.518 61.8388V113.328C396.518 120.474 392.706 127.076 386.518 130.649L341.927 156.394C335.739 159.966 328.115 159.966 321.927 156.394L277.336 130.649C271.148 127.076 267.336 120.474 267.336 113.328V61.8388C267.336 54.6935 271.148 48.0909 277.336 44.5183L321.927 18.7735Z" stroke="url(#paint0_linear_1622_330)" stroke-width="20"></path> <path opacity="0.15" d="M387.005 130.193C393.193 126.621 400.817 126.621 407.005 130.193L451.597 155.938C457.785 159.511 461.597 166.113 461.597 173.259V224.748C461.597 231.894 457.785 238.496 451.597 242.069L407.005 267.814C400.817 271.386 393.193 271.386 387.005 267.814L342.414 242.069C336.226 238.496 332.414 231.894 332.414 224.748V173.259C332.414 166.113 336.226 159.511 342.414 155.938L387.005 130.193Z" stroke="url(#paint1_linear_1622_330)" stroke-width="20"></path> <path opacity="0.25" d="M451.595 18.7735C457.783 15.2009 465.407 15.2008 471.595 18.7735L516.186 44.5183C522.374 48.0909 526.186 54.6935 526.186 61.8388V113.328C526.186 120.474 522.374 127.076 516.186 130.649L471.595 156.394C465.407 159.966 457.783 159.966 451.595 156.394L407.004 130.649C400.816 127.076 397.004 120.474 397.004 113.328V61.8388C397.004 54.6935 400.816 48.0909 407.004 44.5183L451.595 18.7735Z" stroke="url(#paint2_linear_1622_330)" stroke-width="20"></path> <path opacity="0.45" d="M516.673 130.193C522.861 126.621 530.485 126.621 536.673 130.193L581.265 155.938C587.453 159.511 591.265 166.113 591.265 173.259V224.748C591.265 231.894 587.453 238.496 581.265 242.069L536.673 267.814C530.485 271.386 522.861 271.386 516.673 267.814L472.082 242.069C465.894 238.496 462.082 231.894 462.082 224.748V173.259C462.082 166.113 465.894 159.511 472.082 155.938L516.673 130.193Z" stroke="url(#paint3_linear_1622_330)" stroke-width="20"></path> </g> <g opacity="0.75"> <path opacity="0.75" d="M840.603 18.7735C846.791 15.2009 854.415 15.2008 860.603 18.7735L905.194 44.5183C911.382 48.0909 915.194 54.6935 915.194 61.8388V113.328C915.194 120.474 911.382 127.076 905.194 130.649L860.603 156.394C854.415 159.966 846.791 159.966 840.603 156.394L796.012 130.649C789.824 127.076 786.012 120.474 786.012 113.328V61.8388C786.012 54.6935 789.824 48.0909 796.012 44.5183L840.603 18.7735Z" stroke="url(#paint4_linear_1622_330)" stroke-width="32"></path> <path opacity="0.15" d="M905.681 130.193C911.869 126.621 919.493 126.621 925.681 130.193L970.272 155.938C976.46 159.511 980.272 166.113 980.272 173.259V224.748C980.272 231.894 976.46 238.496 970.272 242.069L925.681 267.814C919.493 271.386 911.869 271.386 905.681 267.814L861.09 242.069C854.902 238.496 851.09 231.894 851.09 224.748V173.259C851.09 166.113 854.902 159.511 861.09 155.938L905.681 130.193Z" stroke="url(#paint5_linear_1622_330)" stroke-width="32"></path> <path opacity="0.25" d="M970.271 18.7735C976.459 15.2009 984.083 15.2008 990.271 18.7735L1034.86 44.5183C1041.05 48.0909 1044.86 54.6935 1044.86 61.8388V113.328C1044.86 120.474 1041.05 127.076 1034.86 130.649L990.271 156.394C984.083 159.966 976.459 159.966 970.271 156.394L925.68 130.649C919.492 127.076 915.68 120.474 915.68 113.328V61.8388C915.68 54.6935 919.492 48.0909 925.68 44.5183L970.271 18.7735Z" stroke="url(#paint6_linear_1622_330)" stroke-width="32"></path> <path opacity="0.45" d="M1035.35 130.193C1041.54 126.621 1049.16 126.621 1055.35 130.193L1099.94 155.938C1106.13 159.511 1109.94 166.113 1109.94 173.259V224.748C1109.94 231.894 1106.13 238.496 1099.94 242.069L1055.35 267.814C1049.16 271.386 1041.54 271.386 1035.35 267.814L990.758 242.069C984.57 238.496 980.758 231.894 980.758 224.748V173.259C980.758 166.113 984.57 159.511 990.758 155.938L1035.35 130.193Z" stroke="url(#paint7_linear_1622_330)" stroke-width="32"></path> </g> <g opacity="0.1"> <path opacity="0.75" d="M62.5912 242.221C68.7793 238.648 76.4032 238.648 82.5912 242.221L127.182 267.966C133.37 271.538 137.182 278.141 137.182 285.286V336.776C137.182 343.921 133.371 350.523 127.182 354.096L82.5912 379.841C76.4032 383.413 68.7793 383.414 62.5912 379.841L18 354.096C11.812 350.523 8 343.921 8 336.776V285.286C8 278.141 11.812 271.538 18 267.966L62.5912 242.221Z" stroke="url(#paint8_linear_1622_330)" stroke-width="16"></path> <path opacity="0.15" d="M127.669 353.641C133.857 350.068 141.481 350.068 147.669 353.641L192.261 379.385C198.449 382.958 202.261 389.561 202.261 396.706V448.195C202.261 455.341 198.449 461.943 192.261 465.516L147.669 491.261C141.481 494.833 133.857 494.833 127.669 491.261L83.0781 465.516C76.8901 461.943 73.0781 455.341 73.0781 448.195V396.706C73.0781 389.561 76.8901 382.958 83.0781 379.385L127.669 353.641Z" stroke="url(#paint9_linear_1622_330)" stroke-width="16"></path> <path opacity="0.25" d="M192.259 242.221C198.447 238.648 206.071 238.648 212.259 242.221L256.85 267.966C263.038 271.538 266.85 278.141 266.85 285.286V336.776C266.85 343.921 263.038 350.523 256.85 354.096L212.259 379.841C206.071 383.413 198.447 383.414 192.259 379.841L147.668 354.096C141.48 350.523 137.668 343.921 137.668 336.776V285.286C137.668 278.141 141.48 271.538 147.668 267.966L192.259 242.221Z" stroke="url(#paint10_linear_1622_330)" stroke-width="16"></path> <path opacity="0.45" d="M257.337 353.641C263.525 350.068 271.149 350.068 277.337 353.641L321.929 379.385C328.117 382.958 331.929 389.561 331.929 396.706V448.195C331.929 455.341 328.117 461.943 321.929 465.516L277.337 491.261C271.149 494.833 263.525 494.833 257.337 491.261L212.746 465.516C206.558 461.943 202.746 455.341 202.746 448.195V396.706C202.746 389.561 206.558 382.958 212.746 379.385L257.337 353.641Z" stroke="url(#paint11_linear_1622_330)" stroke-width="16"></path> </g> <g opacity="0.45"> <path opacity="0.75" d="M581.263 242.221C587.451 238.648 595.075 238.648 601.263 242.221L645.854 267.966C652.042 271.538 655.854 278.141 655.854 285.286V336.776C655.854 343.921 652.042 350.523 645.854 354.096L601.263 379.841C595.075 383.413 587.451 383.414 581.263 379.841L536.672 354.096C530.484 350.523 526.672 343.921 526.672 336.776V285.286C526.672 278.141 530.484 271.538 536.672 267.966L581.263 242.221Z" stroke="url(#paint12_linear_1622_330)" stroke-width="28"></path> <path opacity="0.15" d="M646.341 353.641C652.529 350.068 660.153 350.068 666.341 353.641L710.932 379.385C717.12 382.958 720.932 389.561 720.932 396.706V448.195C720.932 455.341 717.121 461.943 710.932 465.516L666.341 491.261C660.153 494.833 652.529 494.833 646.341 491.261L601.75 465.516C595.562 461.943 591.75 455.341 591.75 448.195V396.706C591.75 389.561 595.562 382.958 601.75 379.385L646.341 353.641Z" stroke="url(#paint13_linear_1622_330)" stroke-width="28"></path> <path opacity="0.25" d="M710.931 242.221C717.119 238.648 724.743 238.648 730.931 242.221L775.522 267.966C781.71 271.538 785.522 278.141 785.522 285.286V336.776C785.522 343.921 781.71 350.523 775.522 354.096L730.931 379.841C724.743 383.413 717.119 383.414 710.931 379.841L666.34 354.096C660.152 350.523 656.34 343.921 656.34 336.776V285.286C656.34 278.141 660.152 271.538 666.34 267.966L710.931 242.221Z" stroke="url(#paint14_linear_1622_330)" stroke-width="28"></path> <path opacity="0.45" d="M776.009 353.641C782.197 350.068 789.821 350.068 796.009 353.641L840.6 379.385C846.788 382.958 850.6 389.561 850.6 396.706V448.195C850.6 455.341 846.788 461.943 840.6 465.516L796.009 491.261C789.821 494.833 782.197 494.833 776.009 491.261L731.418 465.516C725.23 461.943 721.418 455.341 721.418 448.195V396.706C721.418 389.561 725.23 382.958 731.418 379.385L776.009 353.641Z" stroke="url(#paint15_linear_1622_330)" stroke-width="28"></path> </g> <g opacity="0.75"> <path opacity="0.75" d="M840.603 242.221C846.791 238.648 854.415 238.648 860.603 242.221L905.194 267.966C911.382 271.538 915.194 278.141 915.194 285.286V336.776C915.194 343.921 911.382 350.523 905.194 354.096L860.603 379.841C854.415 383.413 846.791 383.414 840.603 379.841L796.012 354.096C789.824 350.523 786.012 343.921 786.012 336.776V285.286C786.012 278.141 789.824 271.538 796.012 267.966L840.603 242.221Z" stroke="url(#paint16_linear_1622_330)" stroke-width="32"></path> <path opacity="0.15" d="M905.681 353.641C911.869 350.068 919.493 350.068 925.681 353.641L970.272 379.385C976.46 382.958 980.272 389.561 980.272 396.706V448.195C980.272 455.341 976.46 461.943 970.272 465.516L925.681 491.261C919.493 494.833 911.869 494.833 905.681 491.261L861.09 465.516C854.902 461.943 851.09 455.341 851.09 448.195V396.706C851.09 389.561 854.902 382.958 861.09 379.385L905.681 353.641Z" stroke="url(#paint17_linear_1622_330)" stroke-width="32"></path> <path opacity="0.25" d="M970.271 242.221C976.459 238.648 984.083 238.648 990.271 242.221L1034.86 267.966C1041.05 271.538 1044.86 278.141 1044.86 285.286V336.776C1044.86 343.921 1041.05 350.523 1034.86 354.096L990.271 379.841C984.083 383.413 976.459 383.414 970.271 379.841L925.68 354.096C919.492 350.523 915.68 343.921 915.68 336.776V285.286C915.68 278.141 919.492 271.538 925.68 267.966L970.271 242.221Z" stroke="url(#paint18_linear_1622_330)" stroke-width="32"></path> <path opacity="0.45" d="M1035.35 353.641C1041.54 350.068 1049.16 350.068 1055.35 353.641L1099.94 379.385C1106.13 382.958 1109.94 389.561 1109.94 396.706V448.195C1109.94 455.341 1106.13 461.943 1099.94 465.516L1055.35 491.261C1049.16 494.833 1041.54 494.833 1035.35 491.261L990.758 465.516C984.57 461.943 980.758 455.341 980.758 448.195V396.706C980.758 389.561 984.57 382.958 990.758 379.385L1035.35 353.641Z" stroke="url(#paint19_linear_1622_330)" stroke-width="32"></path> </g> <path opacity="0.75" d="M1099.93 242.221C1106.12 238.648 1113.75 238.648 1119.93 242.221L1164.53 267.966C1170.71 271.538 1174.53 278.141 1174.53 285.286V336.776C1174.53 343.921 1170.71 350.523 1164.53 354.096L1119.93 379.841C1113.75 383.413 1106.12 383.414 1099.93 379.841L1055.34 354.096C1049.16 350.523 1045.34 343.921 1045.34 336.776V285.286C1045.34 278.141 1049.16 271.538 1055.34 267.966L1099.93 242.221Z" stroke="url(#paint20_linear_1622_330)" stroke-width="36"></path> <path opacity="0.15" d="M1165.01 353.641C1171.2 350.068 1178.83 350.068 1185.01 353.641L1229.6 379.385C1235.79 382.958 1239.6 389.561 1239.6 396.706V448.195C1239.6 455.341 1235.79 461.943 1229.6 465.516L1185.01 491.261C1178.83 494.833 1171.2 494.833 1165.01 491.261L1120.42 465.516C1114.23 461.943 1110.42 455.341 1110.42 448.195V396.706C1110.42 389.561 1114.23 382.958 1120.42 379.385L1165.01 353.641Z" stroke="url(#paint21_linear_1622_330)" stroke-width="36"></path> <path opacity="0.25" d="M1229.6 242.221C1235.79 238.648 1243.41 238.648 1249.6 242.221L1294.19 267.966C1300.38 271.538 1304.19 278.141 1304.19 285.286V336.776C1304.19 343.921 1300.38 350.523 1294.19 354.096L1249.6 379.841C1243.41 383.413 1235.79 383.414 1229.6 379.841L1185.01 354.096C1178.82 350.523 1175.01 343.921 1175.01 336.776V285.286C1175.01 278.141 1178.82 271.538 1185.01 267.966L1229.6 242.221Z" stroke="url(#paint22_linear_1622_330)" stroke-width="36"></path> <path opacity="0.45" d="M1294.68 353.641C1300.87 350.068 1308.49 350.068 1314.68 353.641L1359.27 379.385C1365.46 382.958 1369.27 389.561 1369.27 396.706V448.195C1369.27 455.341 1365.46 461.943 1359.27 465.516L1314.68 491.261C1308.49 494.833 1300.87 494.833 1294.68 491.261L1250.09 465.516C1243.9 461.943 1240.09 455.341 1240.09 448.195V396.706C1240.09 389.561 1243.9 382.958 1250.09 379.385L1294.68 353.641Z" stroke="url(#paint23_linear_1622_330)" stroke-width="36"></path> <g opacity="0.25"> <path opacity="0.75" d="M321.927 465.668C328.115 462.095 335.739 462.095 341.927 465.668L386.518 491.412C392.706 494.985 396.518 501.588 396.518 508.733V560.222C396.518 567.368 392.706 573.97 386.518 577.543L341.927 603.288C335.739 606.86 328.115 606.86 321.927 603.288L277.336 577.543C271.148 573.97 267.336 567.368 267.336 560.222V508.733C267.336 501.588 271.148 494.985 277.336 491.412L321.927 465.668Z" stroke="url(#paint24_linear_1622_330)" stroke-width="20"></path> <path opacity="0.15" d="M387.005 577.087C393.193 573.515 400.817 573.515 407.005 577.087L451.597 602.832C457.785 606.405 461.597 613.007 461.597 620.153V671.642C461.597 678.788 457.785 685.39 451.597 688.963L407.005 714.708C400.817 718.28 393.193 718.28 387.005 714.708L342.414 688.963C336.226 685.39 332.414 678.788 332.414 671.642V620.153C332.414 613.007 336.226 606.405 342.414 602.832L387.005 577.087Z" stroke="url(#paint25_linear_1622_330)" stroke-width="20"></path> <path opacity="0.25" d="M451.595 465.668C457.783 462.095 465.407 462.095 471.595 465.668L516.186 491.412C522.374 494.985 526.186 501.588 526.186 508.733V560.222C526.186 567.368 522.374 573.97 516.186 577.543L471.595 603.288C465.407 606.86 457.783 606.86 451.595 603.288L407.004 577.543C400.816 573.97 397.004 567.368 397.004 560.222V508.733C397.004 501.588 400.816 494.985 407.004 491.412L451.595 465.668Z" stroke="url(#paint26_linear_1622_330)" stroke-width="20"></path> <path opacity="0.45" d="M516.673 577.087C522.861 573.515 530.485 573.515 536.673 577.087L581.265 602.832C587.453 606.405 591.265 613.007 591.265 620.153V671.642C591.265 678.788 587.453 685.39 581.265 688.963L536.673 714.708C530.485 718.28 522.861 718.28 516.673 714.708L472.082 688.963C465.894 685.39 462.082 678.788 462.082 671.642V620.153C462.082 613.007 465.894 606.405 472.082 602.832L516.673 577.087Z" stroke="url(#paint27_linear_1622_330)" stroke-width="20"></path> </g> <g opacity="0.75"> <path opacity="0.75" d="M840.603 465.668C846.791 462.095 854.415 462.095 860.603 465.668L905.194 491.412C911.382 494.985 915.194 501.588 915.194 508.733V560.222C915.194 567.368 911.382 573.97 905.194 577.543L860.603 603.288C854.415 606.86 846.791 606.86 840.603 603.288L796.012 577.543C789.824 573.97 786.012 567.368 786.012 560.222V508.733C786.012 501.588 789.824 494.985 796.012 491.412L840.603 465.668Z" stroke="url(#paint28_linear_1622_330)" stroke-width="32"></path> <path opacity="0.15" d="M905.681 577.087C911.869 573.515 919.493 573.515 925.681 577.087L970.272 602.832C976.46 606.405 980.272 613.007 980.272 620.153V671.642C980.272 678.788 976.46 685.39 970.272 688.963L925.681 714.708C919.493 718.28 911.869 718.28 905.681 714.708L861.09 688.963C854.902 685.39 851.09 678.788 851.09 671.642V620.153C851.09 613.007 854.902 606.405 861.09 602.832L905.681 577.087Z" stroke="url(#paint29_linear_1622_330)" stroke-width="32"></path> <path opacity="0.25" d="M970.271 465.668C976.459 462.095 984.083 462.095 990.271 465.668L1034.86 491.412C1041.05 494.985 1044.86 501.588 1044.86 508.733V560.222C1044.86 567.368 1041.05 573.97 1034.86 577.543L990.271 603.288C984.083 606.86 976.459 606.86 970.271 603.288L925.68 577.543C919.492 573.97 915.68 567.368 915.68 560.222V508.733C915.68 501.588 919.492 494.985 925.68 491.412L970.271 465.668Z" stroke="url(#paint30_linear_1622_330)" stroke-width="32"></path> <path opacity="0.45" d="M1035.35 577.087C1041.54 573.515 1049.16 573.515 1055.35 577.087L1099.94 602.832C1106.13 606.405 1109.94 613.007 1109.94 620.153V671.642C1109.94 678.788 1106.13 685.39 1099.94 688.963L1055.35 714.708C1049.16 718.28 1041.54 718.28 1035.35 714.708L990.758 688.963C984.57 685.39 980.758 678.788 980.758 671.642V620.153C980.758 613.007 984.57 606.405 990.758 602.832L1035.35 577.087Z" stroke="url(#paint31_linear_1622_330)" stroke-width="32"></path> </g> <defs> <linearGradient id="paint0_linear_1622_330" x1="301.762" y1="12.5981" x2="372.209" y2="173.106" gradientUnits="userSpaceOnUse"> <stop stop-color="#6C63FF"></stop> <stop offset="1" stop-color="#B1D5FF"></stop> </linearGradient> <linearGradient id="paint1_linear_1622_330" x1="366.84" y1="124.018" x2="437.287" y2="284.526" gradientUnits="userSpaceOnUse"> <stop stop-color="#6C63FF"></stop> <stop offset="1" stop-color="#B1D5FF"></stop> </linearGradient> <linearGradient id="paint2_linear_1622_330" x1="431.43" y1="12.5981" x2="501.877" y2="173.106" gradientUnits="userSpaceOnUse"> <stop stop-color="#6C63FF"></stop> <stop offset="1" stop-color="#B1D5FF"></stop> </linearGradient> <linearGradient id="paint3_linear_1622_330" x1="496.508" y1="124.018" x2="566.955" y2="284.526" gradientUnits="userSpaceOnUse"> <stop stop-color="#6C63FF"></stop> <stop offset="1" stop-color="#B1D5FF"></stop> </linearGradient> <linearGradient id="paint4_linear_1622_330" x1="820.438" y1="12.5981" x2="890.885" y2="173.106" gradientUnits="userSpaceOnUse"> <stop stop-color="#6C63FF"></stop> <stop offset="1" stop-color="#B1D5FF"></stop> </linearGradient> <linearGradient id="paint5_linear_1622_330" x1="885.516" y1="124.018" x2="955.963" y2="284.526" gradientUnits="userSpaceOnUse"> <stop stop-color="#6C63FF"></stop> <stop offset="1" stop-color="#B1D5FF"></stop> </linearGradient> <linearGradient id="paint6_linear_1622_330" x1="950.106" y1="12.5981" x2="1020.55" y2="173.106" gradientUnits="userSpaceOnUse"> <stop stop-color="#6C63FF"></stop> <stop offset="1" stop-color="#B1D5FF"></stop> </linearGradient> <linearGradient id="paint7_linear_1622_330" x1="1015.18" y1="124.018" x2="1085.63" y2="284.526" gradientUnits="userSpaceOnUse"> <stop stop-color="#6C63FF"></stop> <stop offset="1" stop-color="#B1D5FF"></stop> </linearGradient> <linearGradient id="paint8_linear_1622_330" x1="42.4264" y1="236.045" x2="112.873" y2="396.553" gradientUnits="userSpaceOnUse"> <stop stop-color="#6C63FF"></stop> <stop offset="1" stop-color="#B1D5FF"></stop> </linearGradient> <linearGradient id="paint9_linear_1622_330" x1="107.504" y1="347.465" x2="177.951" y2="507.973" gradientUnits="userSpaceOnUse"> <stop stop-color="#6C63FF"></stop> <stop offset="1" stop-color="#B1D5FF"></stop> </linearGradient> <linearGradient id="paint10_linear_1622_330" x1="172.094" y1="236.045" x2="242.541" y2="396.553" gradientUnits="userSpaceOnUse"> <stop stop-color="#6C63FF"></stop> <stop offset="1" stop-color="#B1D5FF"></stop> </linearGradient> <linearGradient id="paint11_linear_1622_330" x1="237.172" y1="347.465" x2="307.619" y2="507.973" gradientUnits="userSpaceOnUse"> <stop stop-color="#6C63FF"></stop> <stop offset="1" stop-color="#B1D5FF"></stop> </linearGradient> <linearGradient id="paint12_linear_1622_330" x1="561.098" y1="236.045" x2="631.545" y2="396.553" gradientUnits="userSpaceOnUse"> <stop stop-color="#6C63FF"></stop> <stop offset="1" stop-color="#4A9EFF"></stop> </linearGradient> <linearGradient id="paint13_linear_1622_330" x1="626.176" y1="347.465" x2="696.623" y2="507.973" gradientUnits="userSpaceOnUse"> <stop stop-color="#6C63FF"></stop> <stop offset="1" stop-color="#B1D5FF"></stop> </linearGradient> <linearGradient id="paint14_linear_1622_330" x1="690.766" y1="236.045" x2="761.213" y2="396.553" gradientUnits="userSpaceOnUse"> <stop stop-color="#6C63FF"></stop> <stop offset="1" stop-color="#B1D5FF"></stop> </linearGradient> <linearGradient id="paint15_linear_1622_330" x1="755.844" y1="347.465" x2="826.291" y2="507.973" gradientUnits="userSpaceOnUse"> <stop stop-color="#6C63FF"></stop> <stop offset="1" stop-color="#B1D5FF"></stop> </linearGradient> <linearGradient id="paint16_linear_1622_330" x1="820.438" y1="236.045" x2="890.885" y2="396.553" gradientUnits="userSpaceOnUse"> <stop stop-color="#6C63FF"></stop> <stop offset="1" stop-color="#B1D5FF"></stop> </linearGradient> <linearGradient id="paint17_linear_1622_330" x1="885.516" y1="347.465" x2="955.963" y2="507.973" gradientUnits="userSpaceOnUse"> <stop stop-color="#6C63FF"></stop> <stop offset="1" stop-color="#B1D5FF"></stop> </linearGradient> <linearGradient id="paint18_linear_1622_330" x1="950.106" y1="236.045" x2="1020.55" y2="396.553" gradientUnits="userSpaceOnUse"> <stop stop-color="#6C63FF"></stop> <stop offset="1" stop-color="#B1D5FF"></stop> </linearGradient> <linearGradient id="paint19_linear_1622_330" x1="1015.18" y1="347.465" x2="1085.63" y2="507.973" gradientUnits="userSpaceOnUse"> <stop stop-color="#6C63FF"></stop> <stop offset="1" stop-color="#B1D5FF"></stop> </linearGradient> <linearGradient id="paint20_linear_1622_330" x1="1079.77" y1="236.045" x2="1150.22" y2="396.553" gradientUnits="userSpaceOnUse"> <stop stop-color="#5C52FF"></stop> <stop offset="1" stop-color="#DDEDFF"></stop> </linearGradient> <linearGradient id="paint21_linear_1622_330" x1="1144.85" y1="347.465" x2="1215.29" y2="507.973" gradientUnits="userSpaceOnUse"> <stop stop-color="#6C63FF"></stop> <stop offset="1" stop-color="#B1D5FF"></stop> </linearGradient> <linearGradient id="paint22_linear_1622_330" x1="1209.44" y1="236.045" x2="1279.88" y2="396.553" gradientUnits="userSpaceOnUse"> <stop stop-color="#6C63FF"></stop> <stop offset="1" stop-color="#B1D5FF"></stop> </linearGradient> <linearGradient id="paint23_linear_1622_330" x1="1274.52" y1="347.465" x2="1344.96" y2="507.973" gradientUnits="userSpaceOnUse"> <stop stop-color="#6C63FF"></stop> <stop offset="1" stop-color="#B1D5FF"></stop> </linearGradient> <linearGradient id="paint24_linear_1622_330" x1="301.762" y1="459.492" x2="372.209" y2="620" gradientUnits="userSpaceOnUse"> <stop stop-color="#6C63FF"></stop> <stop offset="1" stop-color="#B1D5FF"></stop> </linearGradient> <linearGradient id="paint25_linear_1622_330" x1="366.84" y1="570.912" x2="437.287" y2="731.42" gradientUnits="userSpaceOnUse"> <stop stop-color="#6C63FF"></stop> <stop offset="1" stop-color="#B1D5FF"></stop> </linearGradient> <linearGradient id="paint26_linear_1622_330" x1="431.43" y1="459.492" x2="501.877" y2="620" gradientUnits="userSpaceOnUse"> <stop stop-color="#6C63FF"></stop> <stop offset="1" stop-color="#B1D5FF"></stop> </linearGradient> <linearGradient id="paint27_linear_1622_330" x1="496.508" y1="570.912" x2="566.955" y2="731.42" gradientUnits="userSpaceOnUse"> <stop stop-color="#6C63FF"></stop> <stop offset="1" stop-color="#B1D5FF"></stop> </linearGradient> <linearGradient id="paint28_linear_1622_330" x1="820.438" y1="459.492" x2="890.885" y2="620" gradientUnits="userSpaceOnUse"> <stop stop-color="#6C63FF"></stop> <stop offset="1" stop-color="#B1D5FF"></stop> </linearGradient> <linearGradient id="paint29_linear_1622_330" x1="885.516" y1="570.912" x2="955.963" y2="731.42" gradientUnits="userSpaceOnUse"> <stop stop-color="#6C63FF"></stop> <stop offset="1" stop-color="#B1D5FF"></stop> </linearGradient> <linearGradient id="paint30_linear_1622_330" x1="950.106" y1="459.492" x2="1020.55" y2="620" gradientUnits="userSpaceOnUse"> <stop stop-color="#6C63FF"></stop> <stop offset="1" stop-color="#B1D5FF"></stop> </linearGradient> <linearGradient id="paint31_linear_1622_330" x1="1015.18" y1="570.912" x2="1085.63" y2="731.42" gradientUnits="userSpaceOnUse"> <stop stop-color="#6C63FF"></stop> <stop offset="1" stop-color="#B1D5FF"></stop> </linearGradient> </defs> </svg> 