<?xml version="1.0" encoding="UTF-8"?> <svg xmlns="http://www.w3.org/2000/svg" width="456" height="716" viewBox="0 0 456 716" fill="none"> <path d="M2.23313e-05 331.321L1.81901e-05 236.581C1.26686e-05 110.265 97.2801 3.9533 221.92 0.102163C350.36 -3.74898 456 101.792 456 231.189L456 331.321L456 715L60.1013 715.669C26.9247 715.725 1.56396e-06 688.846 3.49107e-06 655.669L2.23313e-05 331.321Z" fill="#CDA1A1"></path> <mask id="mask0" mask-type="alpha" maskUnits="userSpaceOnUse" x="0" y="0" width="457" height="716"> <mask id="mask1" maskUnits="userSpaceOnUse" x="0" y="0" width="457" height="716"> <path d="M2.23313e-05 331.321L1.81901e-05 236.581C1.26686e-05 110.265 97.2801 3.9533 221.92 0.102163C350.36 -3.74898 456 101.792 456 231.189L456 331.321L456 715L60.1013 715.669C26.9247 715.725 1.56396e-06 688.846 3.49107e-06 655.669L2.23313e-05 331.321Z" fill="#CDA1A1"></path> </mask> <g mask="url(#mask1)"> <path d="M2.23313e-05 331.321L1.81901e-05 236.581C1.26686e-05 110.265 97.2801 3.9533 221.92 0.102163C350.36 -3.74898 456 101.792 456 231.189L456 331.321L456 715L60.1013 715.669C26.9247 715.725 1.56396e-06 688.846 3.49107e-06 655.669L2.23313e-05 331.321Z" fill="#CDA1A1"></path> </g> </mask> <g mask="url(#mask0)"> <circle cx="285.909" cy="357.027" r="4.86145" transform="rotate(-70.1572 285.909 357.027)" fill="white"></circle> <circle cx="55.3241" cy="671.634" r="4.86145" transform="rotate(-70.1572 55.3241 671.634)" fill="white"></circle> <circle cx="280.332" cy="194.648" r="3.40302" transform="rotate(-70.1572 280.332 194.648)" fill="white"></circle> <circle cx="158.223" cy="251.85" r="3.40302" transform="rotate(-70.1572 158.223 251.85)" fill="white"></circle> <circle cx="441.37" cy="228.782" r="3.40302" transform="rotate(-70.1572 441.37 228.782)" fill="white"></circle> <circle cx="424.229" cy="141.862" r="3.40302" transform="rotate(-70.1572 424.229 141.862)" fill="white"></circle> <circle cx="384.113" cy="322.387" r="3.40302" transform="rotate(-70.1572 384.113 322.387)" fill="white"></circle> <circle cx="166.377" cy="387.954" r="3.40302" transform="rotate(-70.1572 166.377 387.954)" fill="white"></circle> <circle cx="326.766" cy="198.557" r="3.40302" transform="rotate(-70.1572 326.766 198.557)" fill="white"></circle> <circle cx="302.634" cy="179.843" r="3.40302" transform="rotate(-70.1572 302.634 179.843)" fill="white"></circle> <circle opacity="0.75" cx="361.907" cy="61.0474" r="3.40302" transform="rotate(-70.1572 361.907 61.0474)" fill="white"></circle> <circle opacity="0.5" cx="394.967" cy="451.378" r="3.40302" transform="rotate(-70.1572 394.967 451.378)" fill="white"></circle> <circle opacity="0.5" cx="201.77" cy="718.813" r="3.40302" transform="rotate(-70.1572 201.77 718.813)" fill="white"></circle> <circle cx="380.998" cy="155.819" r="4.86145" transform="rotate(-70.1572 380.998 155.819)" fill="white"></circle> <circle cx="325.532" cy="60.6629" r="4.86145" transform="rotate(90.0443 325.532 60.6629)" fill="white"></circle> <circle cx="389.956" cy="415.185" r="3.40302" transform="rotate(90.0443 389.956 415.185)" fill="white"></circle> <circle opacity="0.75" cx="318.775" cy="564.302" r="3.40302" transform="rotate(90.0443 318.775 564.302)" fill="white"></circle> <circle opacity="0.5" cx="144.059" cy="242.827" r="3.40302" transform="rotate(90.0443 144.059 242.827)" fill="white"></circle> <circle opacity="0.5" cx="199.416" cy="144.263" r="3.40302" transform="rotate(90.0443 199.416 144.263)" fill="white"></circle> <circle cx="412.28" cy="29.6194" r="4.86145" transform="rotate(90.0443 412.28 29.6194)" fill="white"></circle> <circle cx="148.83" cy="56.5784" r="4.86145" transform="rotate(90.0443 148.83 56.5784)" fill="white"></circle> <mask id="mask2" mask-type="alpha" maskUnits="userSpaceOnUse" x="-51" y="15" width="466" height="733"> <path d="M-51 354.585L-51 257.768C-51 128.682 48.4134 20.0388 175.787 16.1032C307.043 12.1676 415 120.023 415 252.258L415 354.585L415 746.678L9.10133 747.364C-24.0753 747.42 -51 720.541 -51 687.364L-51 354.585Z" fill="#CDA1A1"></path> </mask> <g mask="url(#mask2)"> <path d="M-54.063 254.089L-54.063 351.075L-54.063 628.941L-54.0655 707.893C-54.0654 968.89 158.98 1181 421.129 1181L421.132 628.152L421.132 351.075L421.132 248.569C421.132 116.1 311.045 8.07384 177.199 12.0164C47.3121 15.959 -54.063 124.773 -54.063 254.089Z" fill="url(#paint0_linear)"></path> <path d="M970.084 236.359L240.249 18.0439L425.389 619.96L2014.32 236.359H970.084Z" fill="#6C7BDF"></path> </g> </g> <defs> <linearGradient id="paint0_linear" x1="-208.888" y1="273.526" x2="470.5" y2="644.419" gradientUnits="userSpaceOnUse"> <stop stop-color="#3E50CB" stop-opacity="0.42"></stop> <stop offset="1" stop-color="#FEA88D"></stop> </linearGradient> </defs> </svg> 