<?xml version="1.0" encoding="UTF-8"?> <svg xmlns="http://www.w3.org/2000/svg" width="574" height="167" viewBox="0 0 574 167" fill="none"> <path d="M25.0809 166.04C14.4409 166.04 6.84086 160.68 3.88086 152.28L10.2809 148.6C12.2809 154.76 17.0809 158.76 25.2409 158.76C33.1609 158.76 37.0809 155.16 37.0809 150.12C37.0809 144.36 32.1209 142.44 23.8809 139.88C14.9209 137 6.28086 134.2 6.28086 123.8C6.28086 113.72 14.5209 107.96 23.8809 107.96C33.0809 107.96 39.7209 113.16 42.8409 120.2L36.6009 123.8C34.6009 119 30.6809 115.16 23.8809 115.16C17.8809 115.16 13.7209 118.36 13.7209 123.48C13.7209 128.68 17.6409 130.6 25.4809 133.08C35.2409 136.28 44.4409 139.16 44.4409 149.96C44.4409 159.8 36.5209 166.04 25.0809 166.04Z" fill="url(#paint0_linear_109_984)"></path> <path d="M93.5802 165H84.4602L60.3002 138.12V165H52.8602L52.8602 109H60.3002L60.3002 134.28L83.6602 109H92.7802L68.0602 136.2L93.5802 165Z" fill="url(#paint1_linear_109_984)"></path> <path d="M132.204 135.96C137.244 138.36 140.604 143.08 140.604 149.16C140.604 158.12 133.404 165 124.364 165L100.204 165L100.204 109H122.604C131.324 109 138.284 115.64 138.284 124.28C138.284 129.32 135.884 133.4 132.204 135.96ZM122.604 115.96H107.644V133.08H122.604C127.244 133.08 130.924 129.32 130.924 124.52C130.924 119.8 127.244 115.96 122.604 115.96ZM124.364 158.04C129.324 158.04 133.244 154.04 133.244 148.92C133.244 143.88 129.324 139.88 124.364 139.88H107.644L107.644 158.04L124.364 158.04Z" fill="url(#paint2_linear_109_984)"></path> <path d="M175.423 166.04C159.183 166.04 146.463 153.08 146.463 137C146.463 120.84 159.183 107.96 175.423 107.96C191.663 107.96 204.463 120.84 204.463 137C204.463 153.08 191.663 166.04 175.423 166.04ZM175.423 158.76C187.663 158.76 197.023 149.24 197.023 137C197.023 124.68 187.663 115.16 175.423 115.16C163.183 115.16 153.823 124.68 153.823 137C153.823 149.24 163.183 158.76 175.423 158.76Z" fill="url(#paint3_linear_109_984)"></path> <path d="M238.576 136.04C244.336 138.44 247.696 143.32 247.696 149.72C247.696 159.16 240.016 166.04 228.016 166.04C216.496 166.04 210.496 159.96 208.096 153.16L214.416 149.56C215.616 154.2 219.136 159 228.016 159C236.016 159 240.256 155.08 240.256 149.48C240.256 143.88 236.256 139.88 228.896 139.88H222.336V133.08H227.056C234.016 133.08 238.256 129.32 238.256 123.96C238.256 118.76 234.416 114.92 227.536 114.92C220.256 114.92 216.736 118.92 215.136 123.16L208.896 119.56C211.696 113.16 217.376 107.96 227.536 107.96C238.416 107.96 245.616 114.68 245.616 123.8C245.616 129.16 242.976 133.4 238.576 136.04Z" fill="url(#paint4_linear_109_984)"></path> <path d="M276.852 129C287.172 129 294.932 136.84 294.932 147C294.932 157.24 287.172 165 276.852 165H256.532V109H263.972V129H276.852ZM276.852 158.04C283.012 158.04 287.572 153.4 287.572 147C287.572 140.68 283.012 135.96 276.852 135.96H263.972V158.04H276.852Z" fill="url(#paint5_linear_109_984)"></path> <path d="M355.72 135.96C360.76 138.36 364.12 143.08 364.12 149.16C364.12 158.12 356.92 165 347.88 165H323.72V109H346.12C354.84 109 361.8 115.64 361.8 124.28C361.8 129.32 359.4 133.4 355.72 135.96ZM346.12 115.96H331.16V133.08H346.12C350.76 133.08 354.44 129.32 354.44 124.52C354.44 119.8 350.76 115.96 346.12 115.96ZM347.88 158.04C352.84 158.04 356.76 154.04 356.76 148.92C356.76 143.88 352.84 139.88 347.88 139.88H331.16V158.04H347.88Z" fill="url(#paint6_linear_109_984)"></path> <path d="M393.258 109C403.578 109 411.338 116.76 411.338 127C411.338 137.16 403.578 145 393.258 145H380.378V165H372.938V109H393.258ZM393.258 138.04C399.418 138.04 403.978 133.32 403.978 127C403.978 120.6 399.418 115.96 393.258 115.96H380.378V138.04H393.258Z" fill="url(#paint7_linear_109_984)"></path> <path d="M427.566 157.96H453.566V165H420.126V109H453.166V116.04H427.566V133.24H451.166V140.2H427.566V157.96Z" fill="url(#paint8_linear_109_984)"></path> <path d="M514.948 109V165H507.588V121.24L489.268 151.72H488.308L469.988 121.32V165L462.548 165V109H470.948L488.788 138.6L506.548 109H514.948Z" fill="url(#paint9_linear_109_984)"></path> <path d="M564.603 109V165H557.243V143.56H546.123L531.643 165H523.243L538.123 143.08C530.523 141.24 524.843 134.36 524.843 126.36C524.843 116.76 532.603 109 542.203 109H564.603ZM542.203 136.84H557.243V115.96H542.203C536.763 115.96 532.203 120.6 532.203 126.36C532.203 132.12 536.763 136.84 542.203 136.84Z" fill="url(#paint10_linear_109_984)"></path> <path d="M29.3191 59.04C12.1991 59.04 0.0390625 46.08 0.0390625 30C0.0390625 13.84 12.1991 0.959991 29.3191 0.959991C39.6391 0.959991 48.7591 6.31999 53.4791 14.56L46.9991 18.32C43.7991 12.16 36.9991 8.15999 29.3191 8.15999C16.1991 8.15999 7.39906 17.68 7.39906 30C7.39906 42.24 16.1991 51.76 29.3191 51.76C36.9991 51.76 43.7991 47.76 46.9991 41.68L53.4791 45.36C48.8391 53.6 39.7191 59.04 29.3191 59.04Z" fill="url(#paint11_linear_109_984)"></path> <path d="M102.625 58H93.5053L69.3453 31.12L69.3453 58L61.9053 58L61.9053 1.99999L69.3453 1.99999V27.28L92.7053 1.99999L101.825 1.99999L77.1053 29.2L102.625 58Z" fill="url(#paint12_linear_109_984)"></path> <path d="M141.249 28.96C146.289 31.36 149.649 36.08 149.649 42.16C149.649 51.12 142.449 58 133.409 58L109.249 58L109.249 1.99999L131.649 1.99999C140.369 1.99999 147.329 8.63999 147.329 17.28C147.329 22.32 144.929 26.4 141.249 28.96ZM131.649 8.95999L116.689 8.95999V26.08L131.649 26.08C136.289 26.08 139.969 22.32 139.969 17.52C139.969 12.8 136.289 8.95999 131.649 8.95999ZM133.409 51.04C138.369 51.04 142.289 47.04 142.289 41.92C142.289 36.88 138.369 32.88 133.409 32.88L116.689 32.88L116.689 51.04H133.409Z" fill="url(#paint13_linear_109_984)"></path> <path d="M184.468 59.04C168.228 59.04 155.508 46.08 155.508 30C155.508 13.84 168.228 0.959991 184.468 0.959991C200.708 0.959991 213.508 13.84 213.508 30C213.508 46.08 200.708 59.04 184.468 59.04ZM184.468 51.76C196.708 51.76 206.068 42.24 206.068 30C206.068 17.68 196.708 8.15999 184.468 8.15999C172.228 8.15999 162.868 17.68 162.868 30C162.868 42.24 172.228 51.76 184.468 51.76Z" fill="url(#paint14_linear_109_984)"></path> <path d="M247.621 29.04C253.381 31.44 256.741 36.32 256.741 42.72C256.741 52.16 249.061 59.04 237.061 59.04C225.541 59.04 219.541 52.96 217.141 46.16L223.461 42.56C224.661 47.2 228.181 52 237.061 52C245.061 52 249.301 48.08 249.301 42.48C249.301 36.88 245.301 32.88 237.941 32.88L231.381 32.88V26.08L236.101 26.08C243.061 26.08 247.301 22.32 247.301 16.96C247.301 11.76 243.461 7.91999 236.581 7.91999C229.301 7.91999 225.781 11.92 224.181 16.16L217.941 12.56C220.741 6.16 226.421 0.959991 236.581 0.959991C247.461 0.959991 254.661 7.67999 254.661 16.8C254.661 22.16 252.021 26.4 247.621 29.04Z" fill="url(#paint15_linear_109_984)"></path> <path d="M285.897 22C296.217 22 303.977 29.84 303.977 40C303.977 50.24 296.217 58 285.897 58H265.577V1.99999L273.017 1.99999V22L285.897 22ZM285.897 51.04C292.057 51.04 296.617 46.4 296.617 40C296.617 33.68 292.057 28.96 285.897 28.96L273.017 28.96V51.04H285.897Z" fill="url(#paint16_linear_109_984)"></path> <path d="M364.765 28.96C369.805 31.36 373.165 36.08 373.165 42.16C373.165 51.12 365.965 58 356.925 58H332.765V1.99999L355.165 1.99999C363.885 1.99999 370.845 8.63999 370.845 17.28C370.845 22.32 368.445 26.4 364.765 28.96ZM355.165 8.95999L340.205 8.95999V26.08L355.165 26.08C359.805 26.08 363.485 22.32 363.485 17.52C363.485 12.8 359.805 8.95999 355.165 8.95999ZM356.925 51.04C361.885 51.04 365.805 47.04 365.805 41.92C365.805 36.88 361.885 32.88 356.925 32.88H340.205V51.04H356.925Z" fill="url(#paint17_linear_109_984)"></path> <path d="M402.303 1.99999C412.623 1.99999 420.383 9.75999 420.383 20C420.383 30.16 412.623 38 402.303 38H389.423V58H381.983V1.99999L402.303 1.99999ZM402.303 31.04C408.463 31.04 413.023 26.32 413.023 20C413.023 13.6 408.463 8.95999 402.303 8.95999L389.423 8.95999V31.04H402.303Z" fill="url(#paint18_linear_109_984)"></path> <path d="M436.611 50.96H462.611V58H429.171V1.99999L462.211 1.99999V9.03999L436.611 9.03999V26.24L460.211 26.24V33.2H436.611V50.96Z" fill="url(#paint19_linear_109_984)"></path> <path d="M523.993 1.99999V58H516.633V14.24L498.313 44.72H497.353L479.033 14.32V58H471.593V1.99999L479.993 1.99999L497.833 31.6L515.593 1.99999L523.993 1.99999Z" fill="url(#paint20_linear_109_984)"></path> <path d="M573.648 1.99999V58H566.288V36.56H555.168L540.688 58H532.288L547.168 36.08C539.568 34.24 533.888 27.36 533.888 19.36C533.888 9.75999 541.648 1.99999 551.248 1.99999L573.648 1.99999ZM551.248 29.84L566.288 29.84V8.95999L551.248 8.95999C545.808 8.95999 541.248 13.6 541.248 19.36C541.248 25.12 545.808 29.84 551.248 29.84Z" fill="url(#paint21_linear_109_984)"></path> <defs> <linearGradient id="paint0_linear_109_984" x1="202.439" y1="122.389" x2="528.316" y2="258.565" gradientUnits="userSpaceOnUse"> <stop stop-color="white" stop-opacity="0"></stop> <stop offset="0.475231" stop-color="white"></stop> <stop offset="1" stop-color="#892DFF"></stop> </linearGradient> <linearGradient id="paint1_linear_109_984" x1="202.439" y1="122.389" x2="528.316" y2="258.565" gradientUnits="userSpaceOnUse"> <stop stop-color="white" stop-opacity="0"></stop> <stop offset="0.475231" stop-color="white"></stop> <stop offset="1" stop-color="#892DFF"></stop> </linearGradient> <linearGradient id="paint2_linear_109_984" x1="202.439" y1="122.389" x2="528.316" y2="258.565" gradientUnits="userSpaceOnUse"> <stop stop-color="white" stop-opacity="0"></stop> <stop offset="0.475231" stop-color="white"></stop> <stop offset="1" stop-color="#892DFF"></stop> </linearGradient> <linearGradient id="paint3_linear_109_984" x1="202.439" y1="122.389" x2="528.316" y2="258.565" gradientUnits="userSpaceOnUse"> <stop stop-color="white" stop-opacity="0"></stop> <stop offset="0.475231" stop-color="white"></stop> <stop offset="1" stop-color="#892DFF"></stop> </linearGradient> <linearGradient id="paint4_linear_109_984" x1="202.439" y1="122.389" x2="528.316" y2="258.565" gradientUnits="userSpaceOnUse"> <stop stop-color="white" stop-opacity="0"></stop> <stop offset="0.475231" stop-color="white"></stop> <stop offset="1" stop-color="#892DFF"></stop> </linearGradient> <linearGradient id="paint5_linear_109_984" x1="202.439" y1="122.389" x2="528.316" y2="258.565" gradientUnits="userSpaceOnUse"> <stop stop-color="white" stop-opacity="0"></stop> <stop offset="0.475231" stop-color="white"></stop> <stop offset="1" stop-color="#892DFF"></stop> </linearGradient> <linearGradient id="paint6_linear_109_984" x1="202.439" y1="122.389" x2="528.316" y2="258.565" gradientUnits="userSpaceOnUse"> <stop stop-color="white" stop-opacity="0"></stop> <stop offset="0.475231" stop-color="white"></stop> <stop offset="1" stop-color="#892DFF"></stop> </linearGradient> <linearGradient id="paint7_linear_109_984" x1="202.439" y1="122.389" x2="528.316" y2="258.565" gradientUnits="userSpaceOnUse"> <stop stop-color="white" stop-opacity="0"></stop> <stop offset="0.475231" stop-color="white"></stop> <stop offset="1" stop-color="#892DFF"></stop> </linearGradient> <linearGradient id="paint8_linear_109_984" x1="202.439" y1="122.389" x2="528.316" y2="258.565" gradientUnits="userSpaceOnUse"> <stop stop-color="white" stop-opacity="0"></stop> <stop offset="0.475231" stop-color="white"></stop> <stop offset="1" stop-color="#892DFF"></stop> </linearGradient> <linearGradient id="paint9_linear_109_984" x1="202.439" y1="122.389" x2="528.316" y2="258.565" gradientUnits="userSpaceOnUse"> <stop stop-color="white" stop-opacity="0"></stop> <stop offset="0.475231" stop-color="white"></stop> <stop offset="1" stop-color="#892DFF"></stop> </linearGradient> <linearGradient id="paint10_linear_109_984" x1="202.439" y1="122.389" x2="528.316" y2="258.565" gradientUnits="userSpaceOnUse"> <stop stop-color="white" stop-opacity="0"></stop> <stop offset="0.475231" stop-color="white"></stop> <stop offset="1" stop-color="#892DFF"></stop> </linearGradient> <linearGradient id="paint11_linear_109_984" x1="93.9232" y1="-29.9321" x2="311.565" y2="106.553" gradientUnits="userSpaceOnUse"> <stop stop-color="#B0FF30"></stop> <stop offset="0.46875" stop-color="#9BFFB7"></stop> <stop offset="1" stop-color="#94FFB2" stop-opacity="0"></stop> </linearGradient> <linearGradient id="paint12_linear_109_984" x1="93.9232" y1="-29.9321" x2="311.565" y2="106.553" gradientUnits="userSpaceOnUse"> <stop stop-color="#B0FF30"></stop> <stop offset="0.46875" stop-color="#9BFFB7"></stop> <stop offset="1" stop-color="#94FFB2" stop-opacity="0"></stop> </linearGradient> <linearGradient id="paint13_linear_109_984" x1="93.9232" y1="-29.9321" x2="311.565" y2="106.553" gradientUnits="userSpaceOnUse"> <stop stop-color="#B0FF30"></stop> <stop offset="0.46875" stop-color="#9BFFB7"></stop> <stop offset="1" stop-color="#94FFB2" stop-opacity="0"></stop> </linearGradient> <linearGradient id="paint14_linear_109_984" x1="93.9232" y1="-29.9321" x2="311.565" y2="106.553" gradientUnits="userSpaceOnUse"> <stop stop-color="#B0FF30"></stop> <stop offset="0.46875" stop-color="#9BFFB7"></stop> <stop offset="1" stop-color="#94FFB2" stop-opacity="0"></stop> </linearGradient> <linearGradient id="paint15_linear_109_984" x1="93.9232" y1="-29.9321" x2="311.565" y2="106.553" gradientUnits="userSpaceOnUse"> <stop stop-color="#B0FF30"></stop> <stop offset="0.46875" stop-color="#9BFFB7"></stop> <stop offset="1" stop-color="#94FFB2" stop-opacity="0"></stop> </linearGradient> <linearGradient id="paint16_linear_109_984" x1="93.9232" y1="-29.9321" x2="311.565" y2="106.553" gradientUnits="userSpaceOnUse"> <stop stop-color="#B0FF30"></stop> <stop offset="0.46875" stop-color="#9BFFB7"></stop> <stop offset="1" stop-color="#94FFB2" stop-opacity="0"></stop> </linearGradient> <linearGradient id="paint17_linear_109_984" x1="93.9232" y1="-29.9321" x2="311.565" y2="106.553" gradientUnits="userSpaceOnUse"> <stop stop-color="#B0FF30"></stop> <stop offset="0.46875" stop-color="#9BFFB7"></stop> <stop offset="1" stop-color="#94FFB2" stop-opacity="0"></stop> </linearGradient> <linearGradient id="paint18_linear_109_984" x1="93.9232" y1="-29.9321" x2="311.565" y2="106.553" gradientUnits="userSpaceOnUse"> <stop stop-color="#B0FF30"></stop> <stop offset="0.46875" stop-color="#9BFFB7"></stop> <stop offset="1" stop-color="#94FFB2" stop-opacity="0"></stop> </linearGradient> <linearGradient id="paint19_linear_109_984" x1="93.9232" y1="-29.9321" x2="311.565" y2="106.553" gradientUnits="userSpaceOnUse"> <stop stop-color="#B0FF30"></stop> <stop offset="0.46875" stop-color="#9BFFB7"></stop> <stop offset="1" stop-color="#94FFB2" stop-opacity="0"></stop> </linearGradient> <linearGradient id="paint20_linear_109_984" x1="93.9232" y1="-29.9321" x2="311.565" y2="106.553" gradientUnits="userSpaceOnUse"> <stop stop-color="#B0FF30"></stop> <stop offset="0.46875" stop-color="#9BFFB7"></stop> <stop offset="1" stop-color="#94FFB2" stop-opacity="0"></stop> </linearGradient> <linearGradient id="paint21_linear_109_984" x1="93.9232" y1="-29.9321" x2="311.565" y2="106.553" gradientUnits="userSpaceOnUse"> <stop stop-color="#B0FF30"></stop> <stop offset="0.46875" stop-color="#9BFFB7"></stop> <stop offset="1" stop-color="#94FFB2" stop-opacity="0"></stop> </linearGradient> </defs> </svg> 