<?xml version="1.0" encoding="UTF-8"?> <svg xmlns="http://www.w3.org/2000/svg" width="108" height="16" viewBox="0 0 108 16" fill="none"> <rect width="108" height="16" rx="1" fill="#FFCE6E"></rect> <path d="M29.03 9.68V8.11H31.68V6.81H29.03V5.32H31.93V4H27.65V11H31.98V9.68H29.03ZM36.0061 5.86C35.3361 5.86 34.8161 6.11 34.5161 6.56V6H33.2261V11H34.5161V8.3C34.5161 7.43 34.9861 7.06 35.6161 7.06C36.1961 7.06 36.6061 7.41 36.6061 8.09V11H37.8961V7.93C37.8961 6.6 37.0661 5.86 36.0061 5.86ZM42.1909 7.24V6H41.0609V4.6L39.7709 4.99V6H38.9009V7.24H39.7709V9.32C39.7709 10.67 40.3809 11.2 42.1909 11V9.83C41.4509 9.87 41.0609 9.86 41.0609 9.32V7.24H42.1909ZM44.3675 9.03H48.1375C48.1675 8.86 48.1875 8.69 48.1875 8.5C48.1875 7.03 47.1375 5.86 45.6575 5.86C44.0875 5.86 43.0175 7.01 43.0175 8.5C43.0175 9.99 44.0775 11.14 45.7575 11.14C46.7175 11.14 47.4675 10.75 47.9375 10.07L46.8975 9.47C46.6775 9.76 46.2775 9.97 45.7775 9.97C45.0975 9.97 44.5475 9.69 44.3675 9.03ZM44.3475 8.03C44.4975 7.39 44.9675 7.02 45.6575 7.02C46.1975 7.02 46.7375 7.31 46.8975 8.03H44.3475ZM50.7114 6.86V6H49.4214V11H50.7114V8.61C50.7114 7.56 51.5614 7.26 52.2314 7.34V5.9C51.6014 5.9 50.9714 6.18 50.7114 6.86ZM56.2292 5.86C55.4992 5.86 54.9692 6.13 54.6092 6.59V6H53.3192V13H54.6092V10.41C54.9692 10.87 55.4992 11.14 56.2292 11.14C57.5692 11.14 58.6692 9.99 58.6692 8.5C58.6692 7.01 57.5692 5.86 56.2292 5.86ZM55.9892 9.91C55.1992 9.91 54.6092 9.34 54.6092 8.5C54.6092 7.66 55.1992 7.09 55.9892 7.09C56.7892 7.09 57.3792 7.66 57.3792 8.5C57.3792 9.34 56.7892 9.91 55.9892 9.91ZM61.2023 6.86V6H59.9123V11H61.2023V8.61C61.2023 7.56 62.0523 7.26 62.7223 7.34V5.9C62.0923 5.9 61.4623 6.18 61.2023 6.86ZM64.4501 5.4C64.8901 5.4 65.2501 5.04 65.2501 4.61C65.2501 4.18 64.8901 3.81 64.4501 3.81C64.0201 3.81 63.6601 4.18 63.6601 4.61C63.6601 5.04 64.0201 5.4 64.4501 5.4ZM63.8101 11H65.1001V6H63.8101V11ZM67.765 7.42C67.765 7.15 68.025 7.01 68.345 7.01C68.715 7.01 68.995 7.2 69.145 7.52L70.245 6.92C69.855 6.23 69.155 5.86 68.345 5.86C67.315 5.86 66.445 6.43 66.445 7.45C66.445 9.21 69.025 8.81 69.025 9.54C69.025 9.83 68.745 9.97 68.335 9.97C67.835 9.97 67.495 9.73 67.355 9.32L66.235 9.95C66.595 10.72 67.335 11.14 68.335 11.14C69.405 11.14 70.345 10.62 70.345 9.54C70.345 7.7 67.765 8.16 67.765 7.42ZM72.5296 9.03H76.2996C76.3296 8.86 76.3496 8.69 76.3496 8.5C76.3496 7.03 75.2996 5.86 73.8196 5.86C72.2496 5.86 71.1796 7.01 71.1796 8.5C71.1796 9.99 72.2396 11.14 73.9196 11.14C74.8796 11.14 75.6296 10.75 76.0996 10.07L75.0596 9.47C74.8396 9.76 74.4396 9.97 73.9396 9.97C73.2596 9.97 72.7096 9.69 72.5296 9.03ZM72.5096 8.03C72.6596 7.39 73.1296 7.02 73.8196 7.02C74.3596 7.02 74.8996 7.31 75.0596 8.03H72.5096ZM82.7968 11.14C84.2668 11.14 85.4468 9.99 85.4468 8.5C85.4468 7.01 84.2668 5.86 82.7968 5.86C81.3268 5.86 80.1568 7.01 80.1568 8.5C80.1568 9.99 81.3268 11.14 82.7968 11.14ZM82.7968 9.88C82.0368 9.88 81.4468 9.31 81.4468 8.5C81.4468 7.69 82.0368 7.12 82.7968 7.12C83.5668 7.12 84.1568 7.69 84.1568 8.5C84.1568 9.31 83.5668 9.88 82.7968 9.88ZM89.4677 5.86C88.7977 5.86 88.2777 6.11 87.9777 6.56V6H86.6877V11H87.9777V8.3C87.9777 7.43 88.4477 7.06 89.0777 7.06C89.6577 7.06 90.0677 7.41 90.0677 8.09V11H91.3577V7.93C91.3577 6.6 90.5277 5.86 89.4677 5.86ZM92.7925 11H94.0825V3.7H92.7925V11ZM98.8565 6L97.7465 9.36L96.4465 6H95.0365L97.0865 10.84C96.8465 11.51 96.4865 11.81 95.7765 11.8V13C97.0465 13.07 97.8965 12.44 98.4165 11L100.237 6H98.8565Z" fill="#222437"></path> <mask id="mask0" maskUnits="userSpaceOnUse" x="0" y="0" width="104" height="16"> <rect width="104" height="16" rx="1" fill="white"></rect> </mask> <g mask="url(#mask0)"> <path d="M8.32051 7L1 34.3205" stroke="#222437" stroke-width="8"></path> <path d="M14.0617 4C14.0617 4 11.7078 12.7849 7 30.3546" stroke="#FF7965" stroke-width="5"></path> <path d="M19.0617 2C19.0617 2 16.7078 10.7849 12 28.3546" stroke="#F6F6F6" stroke-width="4"></path> </g> </svg> 