<?xml version="1.0" encoding="UTF-8"?> <svg xmlns="http://www.w3.org/2000/svg" width="715" height="181" viewBox="0 0 715 181" fill="none"> <path d="M21.7629 180.956C20.4916 180.956 19.2722 180.452 18.3723 179.554C17.4724 178.656 16.9656 177.437 16.9629 176.166V153.706C16.9629 152.546 16.8729 138.706 16.9629 137.526C12.9629 131.866 12.4229 131.726 9.69291 127.016C4.07291 117.336 0.382908 107.416 0.0629078 95.836C-0.357092 81.246 1.1729 67.306 9.3329 54.746C9.5129 54.476 12.9229 48.566 17.0229 42.906C17.0229 36.036 17.1729 15.826 17.0929 4.90601C17.0863 4.2741 17.2051 3.64716 17.4423 3.06144C17.6796 2.47572 18.0306 1.94286 18.4751 1.49369C18.9197 1.04451 19.4488 0.687937 20.0321 0.444599C20.6153 0.201261 21.241 0.0759888 21.8729 0.0760234C37.1829 0.0760234 84.9229 -0.0539797 109.103 0.0260203C141.453 0.14602 163.003 28.776 155.793 60.886C153.303 72.398 146.468 82.5061 136.713 89.106C136.158 89.5649 135.566 89.9764 134.943 90.336C143.053 95.956 149.743 103.466 153.323 112.516C166.503 145.876 144.833 180.856 109.883 180.906C81.0229 180.906 22.2829 180.956 21.7629 180.956ZM30.5129 146.576V162.476C30.5102 163.742 31.0099 164.957 31.9023 165.855C32.7947 166.753 34.0069 167.261 35.2729 167.266C52.0229 167.346 72.5329 167.476 88.4629 167.356C91.7829 167.356 104.463 167.356 107.523 167.276C112.383 167.096 117.523 166.646 121.983 164.796C136.113 158.906 142.623 148.036 143.283 132.506C143.479 127.879 142.716 123.261 141.042 118.943C139.368 114.624 136.82 110.698 133.557 107.412C130.294 104.125 126.386 101.549 122.08 99.844C117.774 98.1394 113.161 97.3434 108.533 97.506C95.2629 97.796 71.4429 97.636 61.3429 97.556C60.0803 97.5429 58.8737 97.0327 57.9846 96.1361C57.0955 95.2396 56.5955 94.0287 56.5929 92.766V88.106C56.5929 86.8374 57.0962 85.6205 57.9923 84.7225C58.8885 83.8245 60.1042 83.3187 61.3729 83.316C71.7729 83.316 96.5929 83.316 109.673 83.406C117.961 83.6445 126.021 80.6748 132.173 75.116C141.833 66.586 143.833 55.586 143.013 43.356C142.013 29.616 129.423 15.076 115.693 14.656C93.2029 13.976 49.7829 14.426 35.4429 14.596C34.1829 14.6118 32.9799 15.1234 32.0946 16.02C31.2092 16.9166 30.7128 18.126 30.7129 19.386V34.696C38.8929 29.566 51.5029 27.896 60.2229 27.946C76.5529 28.046 92.8829 27.876 109.223 27.946C116.003 27.946 127.703 28.726 127.843 46.826C127.953 61.296 118.583 67.336 107.233 67.426C92.5529 67.546 77.8729 67.426 63.2329 67.426C50.8229 67.426 40.2329 78.296 40.0329 90.216C39.8329 104.006 53.3229 113.296 63.2429 113.576C79.3129 114.036 91.9629 113.576 106.323 113.576C118.623 113.576 127.913 120.136 128.153 133.116C128.403 146.386 122.223 153.376 108.813 153.746C102.033 153.936 90.9529 154.446 83.3429 154.476C65.5529 154.566 47.8329 157.266 30.5129 146.576ZM107.033 141.126C111.963 141.126 114.513 138.526 114.393 133.916C114.273 129.306 111.963 127.256 107.093 127.246C93.9029 127.246 80.7029 127.156 67.5129 127.246C59.6005 127.331 51.7962 125.404 44.8329 121.646C29.1229 113.276 21.9029 92.646 29.2629 76.756C36.4629 61.206 49.3129 54.356 65.8229 53.916C79.6729 53.546 93.5329 53.866 107.383 53.816C112.143 53.816 114.513 51.376 114.443 46.946C114.373 42.516 111.923 39.946 107.393 39.946C91.3929 39.896 75.3929 39.366 59.3929 40.106C40.1029 40.996 26.0529 50.646 17.9129 68.346C12.2029 80.746 12.7429 93.656 15.4229 106.606C18.4229 121.146 35.0329 138.536 49.7529 140.606C60.5729 142.156 98.8329 141.186 107.033 141.126V141.126Z" fill="url(#paint0_linear)"></path> <path d="M221.546 75.6698H200.391V26.5933H220.676C230.95 26.5933 236.615 31.94 236.615 39.2428C236.687 41.7874 235.899 44.282 234.38 46.3244C232.861 48.3669 230.698 49.8382 228.24 50.5012C230.962 51.0597 233.401 52.5541 235.135 54.7248C236.869 56.8955 237.788 59.6052 237.731 62.3828C237.716 70.1783 231.747 75.6698 221.546 75.6698ZM219.227 34.5336H210.229V46.8354H219.227C223.864 46.8354 226.545 44.7344 226.545 40.7207C226.545 36.7071 223.908 34.5336 219.227 34.5336ZM219.937 54.4424H210.229V67.657H220.14C224.922 67.657 227.733 65.3387 227.733 61.1801C227.733 57.0216 224.719 54.4424 219.937 54.4424Z" fill="white"></path> <path d="M244.541 26.3175C244.489 25.1092 244.8 23.9131 245.433 22.883C246.067 21.8529 246.995 21.0361 248.097 20.5379C249.199 20.0396 250.424 19.8827 251.616 20.0873C252.808 20.2919 253.912 20.8486 254.785 21.6858C255.657 22.523 256.259 23.6023 256.513 24.7847C256.767 25.9671 256.662 27.1985 256.21 28.3203C255.758 29.442 254.98 30.4028 253.977 31.0788C252.975 31.7548 251.792 32.1151 250.583 32.1134C249.801 32.1466 249.021 32.0213 248.289 31.7449C247.557 31.4686 246.889 31.0469 246.325 30.5054C245.76 29.9638 245.311 29.3136 245.004 28.5939C244.698 27.8741 244.54 27.0998 244.541 26.3175ZM245.599 36.7211H255.437V75.6694H245.642L245.599 36.7211Z" fill="white"></path> <path d="M282.431 76.3071C271.187 76.3071 262.682 68.4247 262.682 56.1954C262.682 43.9661 271.477 36.0837 282.721 36.0837C293.965 36.0837 302.76 43.8937 302.76 56.1954C302.76 68.4972 293.762 76.3071 282.431 76.3071ZM282.431 67.7293C287.648 67.7293 292.574 63.933 292.574 56.1375C292.574 48.3421 287.72 44.5458 282.518 44.5458C277.316 44.5458 272.607 48.2696 272.607 56.1375C272.607 64.0054 277.172 67.7293 282.431 67.7293V67.7293Z" fill="white"></path> <path d="M308.948 26.3176C308.899 25.1132 309.211 23.9217 309.844 22.8962C310.477 21.8707 311.403 21.0581 312.502 20.5628C313.601 20.0675 314.823 19.9122 316.01 20.1167C317.198 20.3213 318.298 20.8764 319.168 21.7108C320.037 22.5452 320.638 23.6206 320.892 24.7989C321.145 25.9772 321.041 27.2045 320.592 28.323C320.143 29.4415 319.369 30.4001 318.371 31.0755C317.373 31.751 316.195 32.1124 314.99 32.1134C314.208 32.1467 313.428 32.0213 312.696 31.745C311.964 31.4687 311.296 31.047 310.731 30.5055C310.167 29.9639 309.718 29.3137 309.411 28.594C309.105 27.8742 308.947 27.0999 308.948 26.3176V26.3176ZM310.005 36.7211H319.844V75.6694H310.005V36.7211Z" fill="white"></path> <path d="M356.822 54.1525C356.822 47.8929 353.373 44.5169 348.128 44.5169C342.883 44.5169 339.347 47.8929 339.347 54.1525V75.6697H329.509V36.7214H339.347V41.5755C340.754 39.8295 342.545 38.4321 344.581 37.4921C346.617 36.5522 348.842 36.095 351.084 36.1563C360.154 36.1563 366.631 42.0681 366.631 52.8195V75.6697H356.778L356.822 54.1525Z" fill="white"></path> <path d="M377.078 44.8064H372.644V36.7212H377.078V34.7506C377.078 25.1874 382.483 20.7536 393.452 21.0434V29.3315C388.67 29.201 387.062 30.7804 387.062 35.1273V36.7502H393.872V44.8354H387.062V75.6985H377.078V44.8064Z" fill="white"></path> <path d="M417.577 76.3071C406.318 76.3071 397.813 68.4247 397.813 56.1954C397.813 43.9661 406.608 36.0837 417.852 36.0837C429.096 36.0837 437.891 43.8937 437.891 56.1954C437.891 68.4972 428.893 76.3071 417.577 76.3071ZM417.577 67.7293C422.779 67.7293 427.719 63.933 427.719 56.1375C427.719 48.3421 422.865 44.5458 417.664 44.5458C412.462 44.5458 407.753 48.2696 407.753 56.1375C407.753 64.0054 412.273 67.7293 417.577 67.7293V67.7293Z" fill="white"></path> <path d="M454.975 75.6698H445.136V36.7215H454.975V42.7637C456.201 40.7003 457.955 39.0006 460.056 37.8394C462.157 36.6782 464.529 36.0973 466.929 36.1564V46.4876H464.321C458.525 46.4876 454.975 48.748 454.975 56.2681V75.6698Z" fill="white"></path> <path d="M528.032 54.1521C528.032 47.965 524.583 44.7338 519.338 44.7338C514.093 44.7338 510.644 47.965 510.644 54.1521V75.6693H500.806V54.1521C500.806 47.965 497.357 44.7338 492.112 44.7338C486.867 44.7338 483.317 47.965 483.317 54.1521V75.6693H473.478V36.721H483.317V41.4012C484.692 39.6991 486.442 38.3376 488.43 37.4227C490.418 36.5079 492.59 36.0644 494.778 36.1269C500.835 36.1269 505.819 38.7351 508.5 43.5746C509.884 41.2794 511.843 39.3851 514.183 38.0789C516.524 36.7728 519.164 36.0999 521.845 36.1269C531.205 36.1269 537.783 42.0387 537.783 52.79V75.6403H527.945L528.032 54.1521Z" fill="white"></path> <path d="M562.474 36.0839C564.958 36.0002 567.427 36.5192 569.667 37.5967C571.908 38.6741 573.854 40.2779 575.34 42.2711V36.7215H585.251V75.6698H575.34V69.9753C573.866 72.0082 571.915 73.6485 569.659 74.7524C567.403 75.8563 564.911 76.3902 562.401 76.3073C552.563 76.3073 544.695 68.2221 544.695 56.0218C544.695 43.8214 552.563 36.0839 562.474 36.0839ZM565.009 44.7777C559.735 44.7777 554.751 48.719 554.751 56.0942C554.751 63.4695 559.735 67.686 565.009 67.686C570.284 67.686 575.34 63.5999 575.34 56.2246C575.34 48.8494 570.428 44.7343 565.009 44.7343V44.7777Z" fill="white"></path> <path d="M596.437 44.8066H591.801V36.7213H596.437V27.0857H606.348V36.7213H615.042V44.8066H606.348V63.6432C606.348 66.2513 607.406 67.3671 610.492 67.3671H615.129V75.6696H608.942C601.494 75.6696 596.495 72.5109 596.495 63.5707L596.437 44.8066Z" fill="white"></path> <path d="M621.113 26.3175C621.061 25.1092 621.372 23.9131 622.006 22.883C622.64 21.8529 623.567 21.0361 624.669 20.5379C625.771 20.0396 626.997 19.8827 628.189 20.0873C629.381 20.2919 630.484 20.8486 631.357 21.6858C632.23 22.523 632.832 23.6023 633.086 24.7847C633.34 25.9671 633.234 27.1985 632.782 28.3203C632.33 29.442 631.553 30.4028 630.55 31.0788C629.547 31.7548 628.365 32.1151 627.155 32.1134C626.374 32.1466 625.594 32.0213 624.862 31.7449C624.13 31.4686 623.462 31.0469 622.897 30.5054C622.332 29.9638 621.883 29.3136 621.577 28.5939C621.27 27.8741 621.113 27.0998 621.113 26.3175ZM622.171 36.7211H632.01V75.6694H622.171V36.7211Z" fill="white"></path> <path d="M658.453 36.0837C668.147 36.0837 674.696 41.1407 676.797 49.8634H666.176C665.677 48.2156 664.635 46.785 663.22 45.8039C661.805 44.8228 660.099 44.3487 658.381 44.4588C652.889 44.4588 649.238 48.6028 649.238 56.1954C649.238 63.788 652.889 67.8597 658.381 67.8597C662.453 67.8597 664.988 66.0339 666.176 62.5274H676.797C674.696 70.8155 668.104 76.3071 658.453 76.3071C647.195 76.3071 639.182 68.4247 639.182 56.1954C639.182 43.9661 647.195 36.0837 658.453 36.0837Z" fill="white"></path> <path d="M698.952 76.3071C689.171 76.3071 682.361 70.6127 681.927 63.3679H691.924C692.272 66.2658 695.011 68.5696 698.952 68.5696C702.893 68.5696 704.922 66.8164 704.922 64.556C704.922 57.601 682.912 62.0348 682.912 47.7625C682.912 41.2856 688.708 36.0837 698.314 36.0837C707.921 36.0837 713.427 41.2131 713.992 48.9506H704.574C704.299 45.9222 701.908 43.8937 698.039 43.8937C694.17 43.8937 692.475 45.3427 692.475 47.6176C692.475 54.7175 714.065 50.2837 714.34 64.556C714.267 71.2358 708.443 76.3071 698.952 76.3071Z" fill="white"></path> <path d="M222.879 110.329C233.79 110.329 242.643 116.124 245.946 126.267H234.63C233.578 124.059 231.894 122.212 229.792 120.961C227.69 119.71 225.264 119.111 222.821 119.24C214.243 119.24 208.128 125.485 208.128 135.483C208.128 145.481 214.243 151.711 222.821 151.711C225.273 151.84 227.707 151.232 229.811 149.967C231.915 148.702 233.593 146.837 234.63 144.611H245.946C242.643 154.754 233.79 160.55 222.879 160.55C208.751 160.55 198 150.219 198 135.526C198 120.834 208.751 110.329 222.879 110.329Z" fill="white"></path> <path d="M271.724 160.666C260.48 160.666 251.974 152.798 251.974 140.569C251.974 128.339 260.755 120.457 271.999 120.457C283.243 120.457 292.009 128.339 292.009 140.569C292.009 152.798 282.997 160.666 271.724 160.666ZM271.724 152.088C276.925 152.088 281.866 148.292 281.866 140.569C281.866 132.846 277.012 128.977 271.811 128.977C266.609 128.977 261.9 132.701 261.9 140.569C261.9 148.437 266.406 152.088 271.724 152.088Z" fill="white"></path> <path d="M326.524 138.482C326.524 132.223 323.075 128.847 317.83 128.847C312.584 128.847 309.034 132.223 309.034 138.482V159.999H299.254V121.095H309.092V125.934C310.499 124.185 312.292 122.786 314.331 121.848C316.371 120.91 318.6 120.459 320.844 120.529C329.914 120.529 336.376 126.427 336.376 137.193V160.043H326.538L326.524 138.482Z" fill="white"></path> <path d="M347.258 129.18H342.622V121.095H347.258V111.459H357.213V121.095H365.907V129.18H357.213V148.016C357.213 150.625 358.256 151.74 361.357 151.74H365.907V160.043H359.719C352.272 160.043 347.273 156.87 347.273 147.944L347.258 129.18Z" fill="white"></path> <path d="M390.003 160.666C378.686 160.666 370.471 152.798 370.471 140.569C370.471 128.339 378.484 120.457 390.003 120.457C401.261 120.457 409.202 128.122 409.202 139.714C409.211 140.985 409.119 142.254 408.926 143.51H380.396C380.889 149.306 384.743 152.523 389.742 152.523C391.369 152.62 392.987 152.22 394.382 151.376C395.777 150.533 396.882 149.285 397.552 147.799H408.158C406.115 154.971 399.638 160.666 390.003 160.666ZM380.512 136.903H399.015C398.871 131.773 394.784 128.542 389.728 128.542C385.018 128.542 381.294 131.571 380.512 136.903Z" fill="white"></path> <path d="M431.284 160.666C421.504 160.666 414.693 154.971 414.273 147.741H424.184C424.532 150.639 427.27 152.943 431.212 152.943C435.153 152.943 437.181 151.175 437.181 148.929C437.181 141.974 415.186 146.394 415.186 132.121C415.186 125.659 420.982 120.457 430.574 120.457C440.166 120.457 445.701 125.586 446.252 133.324H436.906C436.631 130.296 434.24 128.267 430.371 128.267C426.72 128.267 424.822 129.716 424.822 131.991C424.822 139.091 446.397 134.657 446.687 148.929C446.614 155.609 440.775 160.666 431.284 160.666Z" fill="white"></path> <path d="M456.235 129.18H451.599V121.095H456.235V111.459H466.161V121.095H474.855V129.18H466.161V148.016C466.161 150.625 467.204 151.74 470.305 151.74H474.869V160.043H468.682C461.234 160.043 456.235 156.87 456.235 147.944V129.18Z" fill="white"></path> <defs> <linearGradient id="paint0_linear" x1="-0.00709226" y1="90.456" x2="157.223" y2="90.456" gradientUnits="userSpaceOnUse"> <stop stop-color="#FF57BA"></stop> <stop offset="1" stop-color="#44BAD3"></stop> </linearGradient> </defs> </svg> 