<?xml version="1.0" encoding="UTF-8"?> <svg xmlns="http://www.w3.org/2000/svg" id="Layer_1" data-name="Layer 1" viewBox="0 0 900 300"> <defs> <style> .cls-1 { fill: #7b5ae2; } .cls-2 { fill: #120d20; } .cls-3 { fill: #231a41; } .cls-4 { fill: #352761; } .cls-5 { fill: #463381; } .cls-6 { fill: #5840a1; } .cls-7 { fill: #694dc2; } </style> </defs> <title>sa-logo-Artboard 7-</title> <g> <path class="cls-1" d="M303.05,106.15l16.32-9.46c2.95,6.85,8,11.47,17.38,11.47,9,0,11.23-3.55,11.23-6.74,0-5.09-4.73-7.1-17.14-10.53s-24.36-9.34-24.36-25.18S320,40.53,334.26,40.53c13.6,0,24.24,6.5,30.27,18.68l-16,9.34c-2.84-5.91-6.74-9.58-14.31-9.58-5.91,0-8.86,3-8.86,6.27,0,3.78,2,6.38,14.89,10.29,12.54,3.78,26.6,8.15,26.6,25.65,0,16-12.76,25.42-30.73,25.42C318.78,126.6,307.66,118.32,303.05,106.15Z"></path> <path class="cls-1" d="M396.45,82.86v20.92c0,5.08,4.37,5.56,12.18,5.08v16.08c-23.18,2.37-29.92-4.61-29.92-21.16V82.86h-9.45v-17h9.45V54.6l17.74-5.32V65.83h12.18v17Z"></path> <path class="cls-1" d="M447.52,110.76a15.43,15.43,0,0,0,11.35-4.5l14.19,8.16c-5.8,8-14.54,12.18-25.78,12.18-20.21,0-32.74-13.6-32.74-31.21S427.3,64.18,446,64.18c17.26,0,30,13.36,30,31.21a33.89,33.89,0,0,1-.71,7.09h-42C435.58,108.63,441,110.76,447.52,110.76ZM458.4,89.24c-1.89-6.86-7.21-9.34-12.53-9.34-6.74,0-11.24,3.31-12.89,9.34Z"></path> <path class="cls-1" d="M549.66,95.39c0,17.61-12.76,31.21-28.25,31.21-7.92,0-13.72-2.72-17.62-7.21v29.2H486.06V65.83h17.73v5.56c3.9-4.5,9.7-7.21,17.62-7.21C536.9,64.18,549.66,77.77,549.66,95.39Zm-17.73,0C531.93,86.52,526,81,517.86,81s-14.07,5.56-14.07,14.43,5.91,14.42,14.07,14.42S531.93,104.25,531.93,95.39Z"></path> <path class="cls-1" d="M557.94,50a10.64,10.64,0,1,1,10.64,10.64A10.75,10.75,0,0,1,557.94,50Zm1.77,15.84h17.73v59.11H559.71Z"></path> <path class="cls-1" d="M627.1,124.94,608.18,98.82v26.12H590.45V42.19h17.73V91.72l17.74-25.89H646.6L625.09,95.39l22.11,29.55Z"></path> <path class="cls-1" d="M355.66,234.31H324.92l-4.13,13H300.1l28.13-82.76h24.12l28.14,82.76H359.8ZM350,216.57l-9.7-30.38-9.69,30.38Z"></path> <path class="cls-1" d="M382.26,217.75c0-17.61,13.36-31.21,31.33-31.21,11.47,0,21.64,6,26.72,15.14l-15.49,9c-2-4.14-6.26-6.62-11.47-6.62-7.68,0-13.35,5.56-13.35,13.71s5.67,13.72,13.35,13.72c5.21,0,9.58-2.48,11.47-6.62l15.49,8.86A30.16,30.16,0,0,1,413.59,249C395.62,249,382.26,235.37,382.26,217.75Z"></path> <path class="cls-1" d="M506.87,188.2v59.11H489.13v-5.56c-3.9,4.5-9.69,7.22-17.61,7.22-15.49,0-28.26-13.6-28.26-31.22s12.77-31.21,28.26-31.21c7.92,0,13.71,2.72,17.61,7.21V188.2Zm-17.74,29.55c0-8.86-5.91-14.42-14.06-14.42S461,208.89,461,217.75s5.91,14.43,14.07,14.43S489.13,226.62,489.13,217.75Z"></path> <path class="cls-1" d="M580.52,164.55v82.76H562.79v-5.56c-3.91,4.5-9.7,7.22-17.62,7.22-15.49,0-28.25-13.6-28.25-31.22s12.76-31.21,28.25-31.21c7.92,0,13.71,2.72,17.62,7.21v-29.2Zm-17.73,53.2c0-8.86-5.91-14.42-14.07-14.42s-14.07,5.56-14.07,14.42,5.91,14.43,14.07,14.43S562.79,226.62,562.79,217.75Z"></path> <path class="cls-1" d="M623.55,233.12a15.43,15.43,0,0,0,11.35-4.49l14.19,8.16c-5.8,8-14.54,12.18-25.78,12.18-20.21,0-32.74-13.6-32.74-31.22s12.76-31.21,31.44-31.21c17.26,0,30,13.36,30,31.21a33.92,33.92,0,0,1-.71,7.1h-42C611.61,231,617.05,233.12,623.55,233.12Zm10.88-21.51c-1.89-6.86-7.21-9.34-12.53-9.34-6.74,0-11.24,3.31-12.89,9.34Z"></path> <path class="cls-1" d="M750.76,211v36.29H733V212.55c0-5.91-2.83-9.69-8.51-9.69-5.91,0-9.22,4.14-9.22,11.11v33.34H697.56V212.55c0-5.91-2.84-9.69-8.51-9.69-5.92,0-9.23,4.14-9.23,11.11v33.34H662.09V188.2h17.73v5.44c2.72-4,7.92-7.1,15.85-7.1,7,0,12.17,2.84,15.48,7.81,3.31-4.73,8.75-7.81,17.15-7.81C741.89,186.54,750.76,196.24,750.76,211Z"></path> <path class="cls-1" d="M817.91,188.2l-20.22,57.34C791.07,264.33,780.55,271.78,764,271V254.4c8.27,0,12.18-2.6,14.78-9.81L755.25,188.2h19.51l13.12,36.18L799,188.2Z"></path> </g> <g> <path d="M87.6,50.28,47.13,90.78a82.54,82.54,0,0,0,0,116.86L87.6,248.1a82.59,82.59,0,0,0,116.88,0l40.46-40.46A82.57,82.57,0,0,0,246.1,91.88l-.08-.1-.11-.08L204.48,50.28a82.54,82.54,0,0,0-116.88,0Z"></path> <path class="cls-2" d="M94,59.39a68.85,68.85,0,0,1,25.2-16.72,81,81,0,0,1,27.69-5,71.18,71.18,0,0,1,51.34,21.69L235,98.5l.09.07.07.1c12.76,13.26,21.14,34.65,21.14,53.05,0,7.6-.81,16.59-2.94,23.67a65.27,65.27,0,0,1-18.58,29.8l-2.63,2.51c-.53,0-33.16,31.86-33.37,31.4-1.26,1.18-2.56,2.29-3.87,3.38h0c-12.87,10.81-29.8,16.3-47.55,16.3-14.69,0-31-4.64-42.95-12.71a93.29,93.29,0,0,1-10.26-7.88c-.28.17-12.63-11.7-12.73-11.38h0c-.17.55-21.77-20.15-22.35-20.15l-1.59-1.47A65.21,65.21,0,0,1,38.9,175.38C36.77,168.3,36,159.32,36,151.72,36,132.8,44.69,111,58.11,97.63Z"></path> <path class="cls-3" d="M100.39,68.49a56.16,56.16,0,0,1,22.48-15c6.9-2.56,17.28-4.15,24.86-4.15A60.45,60.45,0,0,1,192,68.49l32.06,36.82.07.06.06.08c10.64,11.06,19.17,33.45,19.17,48.78,0,6.34-.2,15.67-1.81,21.62-2.79,10.3-8.43,20.2-16.95,26.88l-2.34,2.1c-1,0-28.78,26.19-29.21,25.26-1.08.93-2.21,1.76-3.3,2.63h0c-10.74,8.62-25.63,12.5-41.1,12.5-12.25,0-28.57-4.06-38.65-10.59-3.24-2.1-6.45-4.09-9.34-6.35-.55.33-11.09-9.26-11.29-8.62h0c-.36,1.11-19-15.7-20.11-15.7l-1.47-1.23c-8.51-6.68-14.14-16.59-16.94-26.89-1.61-6-1.8-15.28-1.8-21.61,0-15.77,8.86-38.6,20-49.75Z"></path> <path class="cls-4" d="M106.78,77.6a44.63,44.63,0,0,1,19.75-13.26c5.56-2,16-3.31,22-3.31A49.69,49.69,0,0,1,185.75,77.6l27.37,34.52.06,0,0,.06c8.51,8.85,17.21,32.26,17.21,44.52,0,5.07.44,14.75-.68,19.55-2.21,9.4-7.24,18.63-15.33,24l-2,1.68c-1.56,0-24.41,20.53-25.06,19.14-.89.66-1.85,1.22-2.72,1.88h0c-8.66,6.44-21.48,8.69-34.67,8.69-9.79,0-26.14-3.46-34.33-8.47-2.89-1.77-5.83-3.18-8.43-4.82-.82.49-9.55-6.81-9.86-5.85h0c-.53,1.66-16.12-11.27-17.86-11.27l-1.35-1c-8.08-5.34-13.11-14.58-15.31-24-1.13-4.8-.68-14.48-.68-19.55,0-12.61,9-36.49,17.94-45.41Z"></path> <path class="cls-5" d="M113.18,86.7c4.2-5.64,10.42-9.36,17-11.52,4.19-1.38,14.67-2.49,19.21-2.49a39.09,39.09,0,0,1,30.09,14l22.68,32.23,0,0,0,0c6.38,6.63,15.23,31.05,15.23,40.24,0,3.81,1.14,13.86.45,17.49-1.63,8.54-6,17.06-13.7,21.06l-1.74,1.26c-2.09,0-20,14.87-20.91,13-.71.41-1.48.69-2.15,1.13h0c-6.61,4.31-17.32,4.9-28.23,4.9-7.34,0-23.74-2.81-30-6.36a81.24,81.24,0,0,0-7.5-3.29c-1.1.66-8-4.37-8.44-3.09h0c-.7,2.22-13.29-6.82-15.62-6.82l-1.21-.74c-7.67-4-12.07-12.52-13.7-21.07-.69-3.63.46-13.69.46-17.49,0-9.46,9.13-34.38,15.84-41.06Z"></path> <path class="cls-6" d="M119.57,95.8c3.23-5,8.61-8.1,14.29-9.79,2.82-.83,13.36-1.65,16.4-1.65a28.68,28.68,0,0,1,23,11.44l18,29.93,0,0,0,0c4.25,4.42,13.26,29.85,13.26,36,0,2.53,2.35,13.08,1.58,15.42a19,19,0,0,1-12.08,18.16l-1.43.83c-2.61,0-15.68,9.21-16.76,6.89-.53.15-1.06.27-1.58.37h0c-5.17,1-13.15,1.1-21.78,1.1-4.9,0-21.42-2.07-25.71-4.24a24.72,24.72,0,0,0-6.59-1.76c-1.38.82-6.49-1.92-7-.32h0c-.88,2.76-10.48-2.38-13.38-2.38l-1.09-.49A19,19,0,0,1,86.68,177.2c-.77-2.34,1.58-12.9,1.58-15.44,0-6.3,9.27-32.26,13.74-36.72Z"></path> <path class="cls-7" d="M126,104.91c2.26-4.4,6.78-6.84,11.56-8.06C139,96.49,149.58,96,151.1,96A18.62,18.62,0,0,1,167,104.91l13.3,27.63,0,0v0c2.13,2.21,11.3,28.64,11.3,31.7,0,1.27,3.09,12.19,2.71,13.36A13.5,13.5,0,0,1,183.9,192.9l-1.14.42c-3.13,0-11.3,3.53-12.6.75a6.78,6.78,0,0,1-1-.38h0c-3.2-1.46-9-2.7-15.34-2.7-2.44,0-19.43-.74-21.4-2.12a18.32,18.32,0,0,0-5.66-.23c-1.66,1-5,.52-5.58,2.44h0c-1,3.32-7.65,2.06-11.13,2.06l-1-.24a13.49,13.49,0,0,1-10.45-15.25c-.38-1.17,2.72-12.11,2.72-13.37,0-3.16,9.4-30.16,11.63-32.39Z"></path> <path class="cls-1" d="M155.11,177.44H138a9.32,9.32,0,0,0-8.89,6.5h0a9.34,9.34,0,0,1-8.9,6.5h-.83a9.33,9.33,0,0,1-8.84-12.33L132.35,114a9.34,9.34,0,0,1,8.84-6.32h10.75a9.32,9.32,0,0,1,8.83,6.32l21.79,64.1a9.33,9.33,0,0,1-8.83,12.33h-.84a9.33,9.33,0,0,1-8.89-6.5h0A9.33,9.33,0,0,0,155.11,177.44Z"></path> </g> </svg> 