<?xml version="1.0" encoding="UTF-8"?> <svg xmlns="http://www.w3.org/2000/svg" width="122" height="122" viewBox="0 0 122 122" fill="none"> <rect x="25" y="26" width="78" height="78" rx="24" fill="url(#paint0_linear_9740_210766)"></rect> <rect x="20.5" y="21.5" width="77" height="77" rx="23.5" stroke="black"></rect> <path d="M21 18.241L22.4214 20.8772L22.4817 20.9892L22.5883 21.0587L25.0849 22.6875L22.5883 24.3163L22.4817 24.3858L22.4214 24.4978L21 27.134L19.5786 24.4978L19.5183 24.3858L19.4117 24.3163L16.9151 22.6875L19.4117 21.0587L19.5183 20.9892L19.5786 20.8772L21 18.241Z" stroke="black"></path> <path d="M101.534 20.0526L103.527 23.7482L103.587 23.8602L103.694 23.9297L107.154 26.1869L103.694 28.4441L103.587 28.5136L103.527 28.6256L101.534 32.3212L99.5418 28.6256L99.4815 28.5136L99.3749 28.4441L95.9151 26.1869L99.3749 23.9297L99.4815 23.8602L99.5418 23.7482L101.534 20.0526Z" stroke="black"></path> <path d="M101.604 95.5145L102.706 97.5583L102.766 97.6702L102.873 97.7397L104.831 99.0173L102.873 100.295L102.766 100.364L102.706 100.476L101.604 102.52L100.502 100.476L100.441 100.364L100.335 100.295L98.3766 99.0173L100.335 97.7397L100.441 97.6702L100.502 97.5583L101.604 95.5145Z" stroke="black"></path> <path d="M59.5828 89.6702V34.8223M56.8942 37.981L59.5828 34.8223M59.5828 34.8223C59.5828 34.8223 61.1048 36.6353 62.2714 37.981" stroke="black" stroke-linecap="round" stroke-linejoin="round"></path> <path d="M67.1804 89.671L67.1804 64.5797L83.8553 38.9924M79.9536 40.2488L83.8553 38.9924M83.8553 38.9924C83.8553 38.9924 84.1015 41.3192 84.3143 43.0656" stroke="black" stroke-linecap="round" stroke-linejoin="round"></path> <path d="M51.5626 89.671L51.5626 64.5797L34.8878 38.9924M38.7895 40.2488L34.8878 38.9924M34.8878 38.9924C34.8878 38.9924 34.6415 41.3192 34.4288 43.0656" stroke="black" stroke-linecap="round" stroke-linejoin="round"></path> <defs> <linearGradient id="paint0_linear_9740_210766" x1="64" y1="26" x2="89.6548" y2="94.374" gradientUnits="userSpaceOnUse"> <stop stop-color="#ADB9FD"></stop> <stop offset="1" stop-color="#C5ACFF"></stop> </linearGradient> </defs> </svg> 