<?xml version="1.0" encoding="UTF-8"?> <svg xmlns="http://www.w3.org/2000/svg" width="456" height="737" viewBox="0 0 456 737" fill="none"> <path d="M2.23313e-05 352.226L1.81901e-05 257.487C1.26686e-05 131.17 97.2801 24.8586 221.92 21.0074C350.36 17.1563 456 122.697 456 252.094L456 352.226L456 735.905L60.1013 736.574C26.9247 736.63 1.56396e-06 709.751 3.49107e-06 676.574L2.23313e-05 352.226Z" fill="#F4E3E3"></path> <mask id="mask0" mask-type="alpha" maskUnits="userSpaceOnUse" x="0" y="20" width="457" height="717"> <path d="M2.23313e-05 352.226L1.81901e-05 257.487C1.26686e-05 131.17 97.2801 24.8586 221.92 21.0074C350.36 17.1563 456 122.697 456 252.094L456 352.226L456 735.905L60.1013 736.574C26.9247 736.63 1.56396e-06 709.751 3.49107e-06 676.574L2.23313e-05 352.226Z" fill="#F4E3E3"></path> </mask> <g mask="url(#mask0)"> <path d="M326.47 82.3315C326.721 231.392 257.494 333.218 118.789 387.809C-19.9159 442.4 -89.1428 544.226 -88.8914 693.287" stroke="#040823" stroke-width="180" stroke-linecap="square"></path> </g> <circle cx="284.627" cy="268.532" r="2.56712" transform="rotate(-47.6937 284.627 268.532)" fill="white"></circle> <circle cx="108.627" cy="375.532" r="2.56712" transform="rotate(-47.6937 108.627 375.532)" fill="white"></circle> <circle cx="314.668" cy="188.168" r="1.79698" transform="rotate(-47.6937 314.668 188.168)" fill="white"></circle> <circle cx="243.539" cy="191.444" r="1.79698" transform="rotate(-47.6937 243.539 191.444)" fill="white"></circle> <circle cx="386.365" cy="237.317" r="1.79698" transform="rotate(-47.6937 386.365 237.317)" fill="white"></circle> <circle cx="395.539" cy="191.443" r="1.79698" transform="rotate(-47.6937 395.539 191.443)" fill="white"></circle> <circle cx="339.539" cy="271.443" r="1.79698" transform="rotate(-47.6937 339.539 271.443)" fill="white"></circle> <circle cx="220.056" cy="259.506" r="1.79698" transform="rotate(-47.6937 220.056 259.506)" fill="white"></circle> <circle cx="336.539" cy="199.444" r="1.79698" transform="rotate(-47.6937 336.539 199.444)" fill="white"></circle> <circle cx="328.539" cy="185.443" r="1.79698" transform="rotate(-47.6937 328.539 185.443)" fill="white"></circle> <circle opacity="0.75" cx="381.432" cy="139.431" r="1.79698" transform="rotate(-47.6937 381.432 139.431)" fill="white"></circle> <circle opacity="0.5" cx="318.809" cy="336.579" r="1.79698" transform="rotate(-47.6937 318.809 336.579)" fill="white"></circle> <circle opacity="0.5" cx="170.571" cy="428.103" r="1.79698" transform="rotate(-47.6937 170.571 428.103)" fill="white"></circle> <circle opacity="0.5" cx="14.5388" cy="426.444" r="1.79698" transform="rotate(-47.6937 14.5388 426.444)" fill="white"></circle> <circle cx="371.627" cy="189.531" r="2.56712" transform="rotate(-47.6937 371.627 189.531)" fill="white"></circle> <circle cx="356.627" cy="81.5301" r="2.56712" transform="rotate(-47.6937 356.627 81.5301)" fill="white"></circle> <circle cx="311.627" cy="44.5315" r="2.56712" transform="rotate(-47.6937 311.627 44.5315)" fill="white"></circle> <circle cx="363.759" cy="131.904" r="2.56712" transform="rotate(112.508 363.759 131.904)" fill="white"></circle> <circle cx="323.666" cy="317.905" r="1.79698" transform="rotate(112.508 323.666 317.905)" fill="white"></circle> <circle opacity="0.75" cx="258.844" cy="376.311" r="1.79698" transform="rotate(112.508 258.844 376.311)" fill="white"></circle> <circle opacity="0.5" cx="238.448" cy="184.183" r="1.79698" transform="rotate(112.508 238.448 184.183)" fill="white"></circle> <circle opacity="0.5" cx="285.348" cy="147.254" r="1.79698" transform="rotate(112.508 285.348 147.254)" fill="white"></circle> <circle cx="412.354" cy="134.258" r="2.56712" transform="rotate(112.508 412.354 134.258)" fill="white"></circle> <circle cx="278.354" cy="94.2585" r="2.56712" transform="rotate(112.508 278.354 94.2585)" fill="white"></circle> </svg> 