<?xml version="1.0" encoding="UTF-8"?> <!-- Generator: Adobe Illustrator 21.1.0, SVG Export Plug-In . SVG Version: 6.00 Build 0) --> <svg xmlns="http://www.w3.org/2000/svg" xmlns:xlink="http://www.w3.org/1999/xlink" id="Слой_1" x="0px" y="0px" viewBox="0 0 260 64" style="enable-background:new 0 0 260 64;" xml:space="preserve"> <style type="text/css"> .st0{fill:#FFFFFF;} </style> <title>hs-blue-Artboard 1 copy 15 копия 6</title> <g> <g id="Layer_1"> <path class="st0" d="M253.2,20.9c1.4,1.4,1.9,3.6,1.1,5.5c-0.3,0.6-0.6,1.1-1.1,1.6c-0.5,0.5-1,0.8-1.6,1.1 c-0.6,0.3-1.3,0.4-1.9,0.4c-1,0-2-0.3-2.8-0.9v4.7c0,0.1,0,0.3-0.1,0.4c-0.1,0.1-0.1,0.2-0.2,0.3c-0.1,0.1-0.2,0.2-0.3,0.2 c-0.1,0.1-0.3,0.1-0.4,0.1c-0.3,0-0.6-0.1-0.8-0.3c-0.2-0.2-0.3-0.5-0.3-0.8V17.4c0-0.6,0.1-1.1,0.3-1.6c0.4-1,1.2-1.8,2.2-2.3 c0.5-0.2,1.1-0.3,1.6-0.3c0.6,0,1.1,0.1,1.6,0.3c0.5,0.2,1,0.5,1.3,0.9c0.4,0.4,0.7,0.8,0.9,1.3c0.6,1.4,0.4,3.1-0.6,4.3 C252.5,20.2,252.9,20.5,253.2,20.9z M246.9,24.4c0,0.4,0.1,0.7,0.2,1.1c0.4,1,1.5,1.7,2.6,1.7c0.4,0,0.8-0.1,1.1-0.2 c0.3-0.1,0.6-0.4,0.9-0.6c0.3-0.3,0.5-0.6,0.6-0.9c0.3-0.7,0.3-1.5,0-2.2c-0.1-0.3-0.3-0.6-0.6-0.9c-0.3-0.3-0.6-0.5-0.9-0.6 c-0.3-0.2-0.7-0.2-1.1-0.2h-0.8c-0.3,0-0.6-0.1-0.8-0.3c-0.2-0.2-0.3-0.5-0.3-0.8c0-0.3,0.1-0.6,0.3-0.8c0.2-0.2,0.5-0.3,0.8-0.3 c0.3,0,0.5-0.1,0.8-0.2c0.2-0.1,0.5-0.3,0.6-0.4c0.2-0.2,0.3-0.4,0.4-0.6c0.2-0.5,0.2-1.1,0-1.6c-0.1-0.2-0.3-0.5-0.4-0.7 c-0.2-0.2-0.4-0.3-0.6-0.4c-0.2-0.1-0.5-0.2-0.8-0.2c-0.3,0-0.5,0.1-0.8,0.2c-0.2,0.1-0.5,0.3-0.6,0.4c-0.2,0.2-0.3,0.4-0.4,0.7 c-0.1,0.3-0.2,0.5-0.2,0.8L246.9,24.4z"></path> <path class="st0" d="M84.9,39.3c0,1-0.8,1.8-1.8,1.8c0,0,0,0,0,0c-0.5,0-0.9-0.2-1.3-0.5c-0.3-0.3-0.5-0.8-0.5-1.3V15.6 c0-0.5,0.2-0.9,0.5-1.3c0.7-0.7,1.8-0.7,2.5,0c0,0,0,0,0,0c0.3,0.3,0.5,0.8,0.5,1.3v8.2c2.5-1.9,5.9-2.3,8.8-1.1 c1.1,0.5,2,1.1,2.8,1.9c0.8,0.8,1.5,1.8,1.9,2.8c0.5,1.1,0.7,2.3,0.7,3.5v8.4c0,0.5-0.2,0.9-0.5,1.3c-0.7,0.7-1.8,0.7-2.5,0 c0,0,0,0,0,0c-0.3-0.3-0.5-0.8-0.5-1.3v-8.4c0-0.7-0.1-1.4-0.4-2.1c-0.6-1.3-1.6-2.3-2.9-2.9c-0.7-0.3-1.4-0.4-2.1-0.4 c-0.7,0-1.4,0.1-2.1,0.4c-1.3,0.6-2.3,1.6-2.8,2.9c-0.3,0.7-0.4,1.4-0.4,2.1L84.9,39.3z"></path> <path class="st0" d="M107.4,39.3l-6.2-14.8c-0.1-0.3-0.2-0.5-0.2-0.8c0-0.2,0-0.5,0.1-0.7c0.1-0.2,0.2-0.4,0.4-0.6 c0.2-0.2,0.3-0.3,0.6-0.4c0.6-0.2,1.2-0.2,1.7,0.2c0.3,0.2,0.6,0.5,0.7,0.9l4.8,11.5l4.8-11.5c0.1-0.3,0.3-0.6,0.6-0.8 c0.3-0.2,0.7-0.3,1.1-0.3c0.2,0,0.5,0,0.7,0.1c0.2,0.1,0.4,0.2,0.6,0.4c0.2,0.2,0.3,0.4,0.4,0.6c0.1,0.2,0.1,0.4,0.1,0.7 c0,0.3-0.1,0.5-0.2,0.8l-9.8,23.6c-0.1,0.3-0.4,0.6-0.7,0.9c-0.3,0.2-0.6,0.3-1,0.3c-0.5,0-0.9-0.2-1.3-0.5 c-0.3-0.3-0.5-0.8-0.5-1.3c0-0.3,0.1-0.5,0.2-0.8L107.4,39.3z"></path> <path class="st0" d="M129.8,41.1c-2.2,0-4.3-0.7-6-2.1v8.5c0,0.5-0.2,0.9-0.5,1.3c-0.3,0.3-0.8,0.5-1.3,0.5 c-0.9,0-1.7-0.7-1.8-1.7c0,0,0-0.1,0-0.1v-16c0.1-5.3,4.4-9.6,9.7-9.5c3.8,0,7.2,2.3,8.7,5.8c0.5,1.2,0.7,2.4,0.7,3.7 c0.1,2.5-1,5-2.8,6.8c-0.9,0.9-2,1.6-3.1,2.1C132.3,40.9,131,41.1,129.8,41.1z M123.8,31.5c0,0.8,0.2,1.6,0.5,2.3 c0.3,0.7,0.7,1.4,1.3,1.9c0.5,0.5,1.2,1,1.9,1.3c1.5,0.6,3.2,0.6,4.7,0c0.7-0.3,1.4-0.7,1.9-1.3c0.5-0.6,1-1.2,1.3-1.9 c0.6-1.5,0.6-3.1,0-4.6c-0.3-0.7-0.8-1.4-1.3-1.9c-0.5-0.6-1.2-1-1.9-1.3c-1.5-0.6-3.2-0.6-4.7,0c-1.4,0.6-2.6,1.8-3.2,3.2 C123.9,29.9,123.8,30.7,123.8,31.5z"></path> <path class="st0" d="M156.7,35.7c0.9,0,1.7,0.7,1.8,1.7c0,0,0,0.1,0,0.1c0,0.5-0.2,0.9-0.5,1.3c-4,3.5-10,3-13.5-1 c-1.5-1.7-2.3-4-2.3-6.3c0.1-5.3,4.4-9.6,9.7-9.5c3.8,0,7.2,2.3,8.7,5.8c0.5,1.2,0.7,2.4,0.7,3.7c0,0.5-0.2,0.9-0.5,1.3 c-0.3,0.3-0.8,0.5-1.3,0.5h-13.5c0.2,0.6,0.5,1.2,0.9,1.7c0.4,0.5,0.8,1,1.3,1.3c0.5,0.4,1.1,0.7,1.7,0.9c0.6,0.2,1.3,0.3,1.9,0.3 c0.7,0,1.4-0.1,2.1-0.3c0.6-0.2,1.2-0.6,1.7-1C155.8,35.9,156.2,35.7,156.7,35.7z M157.4,29.7c-0.2-0.6-0.5-1.2-0.9-1.7 c-0.7-1-1.8-1.8-3-2.2c-0.6-0.2-1.2-0.3-1.9-0.3c-0.6,0-1.3,0.1-1.9,0.3c-0.6,0.2-1.2,0.5-1.7,0.9c-0.5,0.4-1,0.8-1.4,1.3 c-0.4,0.5-0.7,1.1-0.8,1.7L157.4,29.7z"></path> <path class="st0" d="M167.5,23.7v0.3c0.8-0.7,1.8-1.2,2.8-1.6c1-0.4,2.1-0.6,3.2-0.5c0.5,0,1.1,0,1.6,0.1c0.5,0.1,1.1,0.2,1.6,0.4 c0.5,0.2,0.9,0.4,1.2,0.7c0.3,0.3,0.5,0.8,0.5,1.2c0,0.2-0.1,0.5-0.1,0.7c-0.1,0.2-0.2,0.4-0.4,0.6c-0.2,0.2-0.3,0.3-0.6,0.4 c-0.2,0.1-0.5,0.1-0.7,0.1c-0.3,0-0.5-0.1-0.8-0.2c-0.7-0.3-1.5-0.4-2.3-0.4c-0.8,0-1.6,0.2-2.3,0.5c-1.4,0.6-2.6,1.8-3.2,3.2 c-0.3,0.7-0.5,1.5-0.5,2.3v7.8c0,1-0.8,1.8-1.8,1.8c-0.5,0-0.9-0.2-1.3-0.5c-0.3-0.3-0.5-0.8-0.5-1.3V23.7c0-0.5,0.2-0.9,0.5-1.3 c0.3-0.3,0.8-0.5,1.3-0.5C166.7,22,167.5,22.8,167.5,23.7L167.5,23.7z"></path> <path class="st0" d="M183.9,32c-0.8-0.3-1.6-0.7-2.3-1.3l0,0c-0.8-0.8-1.3-1.9-1.3-3.1c0-0.8,0.2-1.7,0.7-2.4 c0.5-0.7,1.1-1.3,1.8-1.8c0.8-0.5,1.6-0.9,2.5-1.1c0.9-0.3,1.8-0.4,2.8-0.4c2.8,0,5.5,1.3,7.3,3.4c0.2,0.3,0.4,0.7,0.4,1.1 c0,0.9-0.7,1.7-1.7,1.8c0,0-0.1,0-0.1,0c-0.3,0-0.7-0.1-0.9-0.3c-0.3-0.2-0.5-0.4-0.7-0.7c-1.1-1.1-2.6-1.8-4.2-1.7 c-1.5-0.1-2.9,0.5-3.9,1.5c-0.2,0.2-0.3,0.5-0.3,0.8c0,0.3,0.2,0.6,0.4,0.6l8,2.6c0.8,0.3,1.6,0.7,2.3,1.3l0,0 c0.8,0.8,1.3,1.9,1.3,3.1c0,0.8-0.2,1.7-0.7,2.4c-0.5,0.7-1.1,1.3-1.8,1.8c-0.8,0.5-1.6,0.9-2.5,1.1c-0.9,0.3-1.8,0.4-2.8,0.4 c-2.8,0-5.5-1.2-7.3-3.4c-0.2-0.3-0.4-0.7-0.4-1.1c0-0.9,0.7-1.7,1.7-1.8c0,0,0.1,0,0.1,0c0.4,0,0.7,0.1,1,0.3 c0.3,0.2,0.5,0.4,0.7,0.6c1.1,1.1,2.7,1.8,4.3,1.7c1.5,0.1,2.9-0.5,3.9-1.5c0.2-0.2,0.3-0.4,0.3-0.7c0-0.3-0.2-0.6-0.5-0.7 L183.9,32z"></path> <path class="st0" d="M198.5,39.3V15.6c0-1,0.8-1.8,1.8-1.8c0,0,0,0,0,0c0.5,0,0.9,0.2,1.3,0.5c0.3,0.3,0.5,0.8,0.5,1.3v13.3 l10.2-6.6c0.3-0.2,0.6-0.3,1-0.3c0.2,0,0.5,0,0.7,0.1c0.2,0.1,0.4,0.2,0.6,0.4c0.2,0.2,0.3,0.4,0.4,0.6c0.1,0.2,0.1,0.4,0.1,0.7 c0,0.6-0.2,1.1-0.7,1.4l-7.2,4.6l7.4,8.3c0.3,0.3,0.5,0.8,0.5,1.3c0,0.2,0,0.5-0.1,0.7c-0.1,0.2-0.2,0.4-0.4,0.6 c-0.2,0.2-0.3,0.3-0.6,0.4c-0.2,0.1-0.5,0.1-0.7,0.1c-0.4,0-0.9-0.2-1.2-0.5l-7.9-8.9l-2.2,1.4v6.2c0,0.5-0.2,0.9-0.5,1.3 c-0.3,0.3-0.8,0.5-1.3,0.5c-0.5,0-0.9-0.2-1.3-0.5C198.6,40.2,198.4,39.8,198.5,39.3z"></path> <path class="st0" d="M222.5,18.6c0,1.2-1,2.1-2.1,2.1c-1.2,0-2.1-1-2.1-2.1s1-2.1,2.1-2.1c0.6,0,1.1,0.2,1.5,0.6 C222.3,17.5,222.5,18,222.5,18.6z M218.6,39.3V23.8c0-0.5,0.2-0.9,0.5-1.3c0.7-0.7,1.8-0.7,2.5,0c0,0,0,0,0,0 c0.3,0.3,0.5,0.8,0.5,1.3v15.6c0,0.5-0.2,0.9-0.5,1.3c-0.7,0.7-1.8,0.7-2.5,0c0,0,0,0,0,0C218.8,40.2,218.6,39.8,218.6,39.3z"></path> <path class="st0" d="M225.7,39.3V15.6c0-0.5,0.2-0.9,0.5-1.3c0.7-0.7,1.8-0.7,2.6,0c0.3,0.3,0.5,0.8,0.5,1.3v22h0.8 c0.5,0,0.9,0.2,1.3,0.5c0.3,0.3,0.5,0.8,0.5,1.3c0,1-0.8,1.8-1.8,1.8h-2.6c-0.5,0-0.9-0.2-1.3-0.5 C225.8,40.3,225.7,39.8,225.7,39.3z"></path> <path class="st0" d="M233.9,39.3V15.6c0-0.5,0.2-0.9,0.5-1.3c0.7-0.7,1.8-0.7,2.6,0c0.3,0.3,0.5,0.8,0.5,1.3v22h0.8 c0.5,0,0.9,0.2,1.3,0.5c0.3,0.3,0.5,0.8,0.5,1.3c0,1-0.8,1.8-1.8,1.8h-2.6c-0.5,0-0.9-0.2-1.3-0.5C234,40.3,233.9,39.8,233.9,39.3 z"></path> <path class="st0" d="M66.4,24L57.6,8.8c-2.9-4.9-8.1-8-13.8-8H26.2c-5.7,0-11,3.1-13.8,8L3.6,24c-2.9,5-2.9,11,0,16l8.8,15.2 c2.9,4.9,8.1,8,13.8,8h17.6c5.7,0,11-3.1,13.8-8L66.4,40C69.3,35,69.3,29,66.4,24z M63.5,38.3l-8.8,15.2 c-2.3,3.9-6.4,6.3-10.9,6.3H26.2c-4.5,0-8.6-2.4-10.9-6.3L6.6,38.3c-2.2-3.9-2.2-8.7,0-12.6l8.8-15.2c2.3-3.9,6.4-6.3,10.9-6.3 h17.6c4.5,0,8.6,2.4,10.9,6.3l8.8,15.2C65.7,29.6,65.7,34.4,63.5,38.3z"></path> <path class="st0" d="M49.5,17.8h-2.3c-2.3,0-4.1,1.9-4.1,4.1v20.1c0,2.3,1.9,4.1,4.1,4.1h2.3c2.3,0,4.1-1.9,4.1-4.1V21.9 C53.7,19.7,51.8,17.8,49.5,17.8L49.5,17.8z M50.3,42.1c0,0.4-0.3,0.7-0.7,0.7h-2.3c-0.4,0-0.7-0.3-0.7-0.7V21.9 c0-0.4,0.3-0.7,0.7-0.7h2.3c0.4,0,0.7,0.3,0.7,0.7V42.1z"></path> <path class="st0" d="M38,26.9c-0.7-0.7-1.7-0.7-2.4,0s-0.7,1.7,0,2.4l0,0l1,1h-9.7v-4.6c0-2.3-1.9-4.1-4.1-4.1h-2.3 c-2.3,0-4.1,1.9-4.1,4.1v12.7c0,2.3,1.9,4.1,4.1,4.1h2.3c2.3,0,4.1-1.9,4.1-4.1v-4.6h9.7l-1,1c-0.7,0.7-0.7,1.8,0,2.4 c0.7,0.7,1.8,0.7,2.4,0l0,0l3.9-4c0.7-0.7,0.7-1.7,0-2.4c0,0,0,0,0,0L38,26.9z M23.5,38.3c0,0.4-0.3,0.7-0.7,0.7h-2.3 c-0.4,0-0.7-0.3-0.7-0.7V25.7c0-0.4,0.3-0.7,0.7-0.7h2.3c0.4,0,0.7,0.3,0.7,0.7L23.5,38.3z"></path> </g> </g> </svg> 