<?xml version="1.0" encoding="UTF-8"?> <svg xmlns="http://www.w3.org/2000/svg" width="112" height="64" viewBox="0 0 112 64" fill="none"> <path d="M33.121 21.183h1.935c.25.002.498.028.743.079.24.045.47.135.679.264.2.128.367.303.485.51.133.247.198.526.187.807.006.326-.105.642-.313.893-.213.258-.51.434-.838.499v.017c.396.038.766.212 1.049.492a1.537 1.537 0 01.414 1.13 1.58 1.58 0 01-.17.74 1.625 1.625 0 01-.478.567c-.23.166-.487.29-.76.363-.332.09-.675.134-1.019.129h-1.914v-6.49zm.679 2.841h1.327c.162 0 .324-.018.482-.054.159-.035.31-.1.444-.19.139-.085.255-.201.34-.34.086-.166.128-.352.122-.54a1.049 1.049 0 00-.122-.525 1.076 1.076 0 00-.34-.34 1.442 1.442 0 00-.495-.197 2.851 2.851 0 00-.604-.06h-1.171l.017 2.246zm0 3.078h1.225c.228 0 .455-.022.679-.067.2-.041.392-.116.567-.221a1.17 1.17 0 00.383-.394c.1-.177.15-.377.146-.58a1.113 1.113 0 00-.434-.96 2.08 2.08 0 00-1.232-.316h-1.358l.024 2.538zM39.611 27.673h-.662v-6.49h.662v6.49zM47.745 24.428c.005.465-.082.926-.254 1.358a3.256 3.256 0 01-1.782 1.788c-.863.34-1.822.34-2.685 0a3.251 3.251 0 01-1.785-1.768 3.563 3.563 0 01-.255-1.358 3.595 3.595 0 01.255-1.357 3.232 3.232 0 011.785-1.785 3.62 3.62 0 012.685 0 3.238 3.238 0 011.782 1.785c.169.425.255.88.254 1.337zm-.695 0a3.188 3.188 0 00-.184-1.08 2.68 2.68 0 00-.533-.902 2.49 2.49 0 00-.855-.61 2.853 2.853 0 00-2.247 0c-.322.142-.61.351-.845.613-.235.263-.416.57-.533.903a3.268 3.268 0 000 2.159 2.59 2.59 0 001.378 1.51 2.888 2.888 0 002.247 0 2.591 2.591 0 001.378-1.51c.125-.34.19-.7.194-1.063v-.02zM49.782 27.673h-.678v-6.49h.678v6.49zM56.106 26.709h.017v-5.526h.662v6.49h-.825l-3.777-5.583h-.017v5.583h-.662v-6.49h.825l3.777 5.526zM59.162 27.673h-.658v-6.49h3.913v.588h-3.255v2.243h3.024v.587h-3.024v3.072zM70.067 24.428c.005.465-.081.926-.254 1.358a3.232 3.232 0 01-1.782 1.788c-.863.34-1.822.34-2.684 0a3.252 3.252 0 01-1.786-1.768 3.563 3.563 0 01-.254-1.358 3.593 3.593 0 01.254-1.357 3.23 3.23 0 011.785-1.785 3.62 3.62 0 012.685 0c.401.163.766.404 1.073.709a3.3 3.3 0 01.709 1.076c.17.425.256.88.254 1.337zm-.678 0a3.19 3.19 0 00-.183-1.08 2.715 2.715 0 00-.53-.902 2.536 2.536 0 00-.849-.614 2.85 2.85 0 00-2.246 0 2.49 2.49 0 00-.845.614c-.236.263-.417.57-.533.903a3.27 3.27 0 000 2.158 2.588 2.588 0 001.378 1.51 2.888 2.888 0 002.246 0c.322-.144.611-.353.849-.614.234-.26.414-.565.53-.896.115-.34.171-.699.166-1.059l.017-.02zM72.105 27.673h-.662v-6.49h1.908c.297-.002.595.029.886.092.252.053.492.154.706.299.196.137.355.321.461.536a1.8 1.8 0 01.163.804 1.595 1.595 0 01-.998 1.504c-.21.087-.432.143-.658.166l1.897 3.089h-.801l-1.795-3.034h-1.1l-.007 3.034zm0-3.605h1.144c.429.027.856-.073 1.229-.288a.964.964 0 00.43-.866 1.134 1.134 0 00-.118-.54.974.974 0 00-.34-.356 1.56 1.56 0 00-.512-.203 3.421 3.421 0 00-.679-.065h-1.17l.016 2.318zM80.142 26.553l2.172-5.37h1.018v6.49h-.658v-5.638h-.017l-2.352 5.638h-.34l-2.345-5.638h-.02v5.638h-.659v-6.49h1.019l2.182 5.37zM85.004 27.673h-.723l2.804-6.49h.641l2.787 6.49h-.734l-.712-1.697H85.71l-.706 1.697zm.954-2.312h2.86l-1.431-3.444-1.43 3.444zM92.995 27.673h-.662V21.77h-2.169v-.588h5.003v.588h-2.172v5.902zM96.8 27.673h-.66v-6.49h.66v6.49zM103.984 26.617a2.606 2.606 0 01-.94.855 2.962 2.962 0 01-.679.265c-.264.068-.535.1-.808.099a3.548 3.548 0 01-1.357-.255 3.221 3.221 0 01-1.775-1.775 3.565 3.565 0 01-.255-1.357 3.533 3.533 0 01.258-1.358 3.211 3.211 0 011.782-1.785 3.484 3.484 0 011.357-.258c.235 0 .47.026.7.074.221.047.438.118.644.21.197.09.382.204.55.34.149.107.282.235.394.38l-.55.404a1.676 1.676 0 00-.271-.312 1.972 1.972 0 00-.397-.275 2.503 2.503 0 00-.499-.19 2.157 2.157 0 00-.584-.075 2.711 2.711 0 00-1.13.228 2.552 2.552 0 00-.849.617 2.715 2.715 0 00-.533.9 3.19 3.19 0 00-.183 1.08 3.08 3.08 0 00.19 1.075c.119.332.301.637.536.9.235.263.523.473.845.617.354.156.737.233 1.124.227a2.53 2.53 0 001.062-.227 2.03 2.03 0 00.845-.733l.523.33zM108.267 22.229a1.61 1.61 0 00-.54-.472 1.662 1.662 0 00-.798-.18c-.164 0-.328.025-.485.075a1.354 1.354 0 00-.451.224c-.14.1-.255.23-.34.38a1.147 1.147 0 00-.122.54c-.006.178.035.355.119.512.08.134.187.25.316.34.137.097.288.175.448.23l.526.184c.224.074.451.152.678.24.222.083.43.198.618.34.185.14.338.319.448.523.124.248.184.523.173.8a1.713 1.713 0 01-.679 1.423c-.203.154-.433.27-.678.339a2.832 2.832 0 01-1.911-.129 2.272 2.272 0 01-.9-.723l.567-.424c.16.244.378.445.635.584.269.16.579.242.893.234.17-.002.339-.028.502-.078.167-.052.325-.132.465-.238.136-.11.251-.245.339-.397.092-.166.137-.353.133-.543a1.096 1.096 0 00-.133-.563 1.24 1.24 0 00-.339-.377 2.195 2.195 0 00-.506-.251l-.594-.204a7.18 7.18 0 01-.635-.227 2.04 2.04 0 01-.556-.34 1.55 1.55 0 01-.401-.505 1.655 1.655 0 01-.149-.744c-.008-.28.056-.558.187-.807.111-.215.266-.403.455-.553.203-.155.433-.27.678-.34.236-.067.479-.1.723-.102.389-.01.775.07 1.127.234.276.128.517.319.706.557l-.519.438zM33.784 41.927h-.678v-6.489h.678v6.49zM40.106 40.963v-5.525h.658v6.49h-.824l-3.757-5.584v5.583h-.68v-6.489h.812l3.791 5.525zM45.649 36.483a1.545 1.545 0 00-.54-.471 1.66 1.66 0 00-.797-.18c-.165 0-.328.025-.486.074a1.359 1.359 0 00-.451.224c-.14.1-.257.23-.34.38-.087.167-.13.352-.125.54-.006.178.035.355.119.513.08.134.187.25.315.339.139.097.29.175.448.23l.526.184c.224.075.452.153.68.241.22.083.429.197.617.34.185.14.337.318.448.522.124.248.183.524.173.801a1.718 1.718 0 01-.679 1.422c-.203.155-.433.27-.678.34a2.83 2.83 0 01-1.911-.13 2.257 2.257 0 01-.9-.722l.57-.425a1.697 1.697 0 001.484.818c.17 0 .34-.027.502-.078.168-.051.325-.132.465-.237a1.36 1.36 0 00.34-.397c.09-.166.136-.354.132-.543a1.09 1.09 0 00-.082-.547 1.206 1.206 0 00-.34-.377 2.131 2.131 0 00-.505-.25l-.594-.204a7.481 7.481 0 01-.634-.228 2.035 2.035 0 01-.557-.34 1.548 1.548 0 01-.424-.518 1.697 1.697 0 01-.15-.744c-.008-.28.057-.559.187-.807.121-.22.289-.41.492-.557a2 2 0 01.679-.34c.235-.066.478-.1.723-.101a2.49 2.49 0 011.127.234c.266.137.497.333.675.574l-.509.42zM49.588 41.927h-.658v-5.902h-2.172v-.587h5.002v.587h-2.172v5.902zM53.394 41.927h-.662v-6.489h.662v6.49zM57.196 41.927h-.659v-5.902h-2.172v-.587h5.003v.587h-2.172v5.902zM62.73 42.097a2.545 2.545 0 01-1.201-.251 2.145 2.145 0 01-.744-.638 2.344 2.344 0 01-.373-.845 3.924 3.924 0 01-.105-.856v-4.072h.678v3.998c0 .258.03.516.092.767.057.235.157.459.295.658.143.197.33.358.547.469.26.125.546.186.835.176.287.01.573-.05.831-.176.218-.11.405-.27.547-.469.14-.198.242-.422.298-.658.062-.251.093-.509.092-.767v-3.995h.641v4.073a3.73 3.73 0 01-.105.855 2.288 2.288 0 01-.38.838 2.127 2.127 0 01-.747.638 2.546 2.546 0 01-1.201.255zM68.924 41.927h-.658v-5.902h-2.172v-.587h5.002v.587h-2.172v5.902zM72.725 41.34H76.2v.587h-4.134v-6.489h4.022v.587h-3.363v2.227h3.146v.587h-3.146v2.501z" fill="#3C3C50"></path> <path d="M3.133 24.241a3.16 3.16 0 116.32-.006 3.16 3.16 0 01-6.32.006zM17.87 24.241a3.156 3.156 0 116.312 0 3.156 3.156 0 01-6.313 0zM3.133 38.974a3.16 3.16 0 116.32 0 3.16 3.16 0 01-6.32 0zM17.87 38.974a3.156 3.156 0 116.311.008 3.156 3.156 0 01-6.312-.008z" fill="#3A80E7"></path> <path d="M9.972 22.202a10.066 10.066 0 017.371 0 4.33 4.33 0 01.228-.364 10.494 10.494 0 00-7.827 0c.083.117.159.238.228.364zM23.078 27.924a10.056 10.056 0 010 7.385c.126.07.249.148.367.23a10.549 10.549 0 000-7.829c-.119.078-.241.149-.367.214zM17.343 41.014a10.066 10.066 0 01-7.371 0 3.63 3.63 0 01-.228.363 10.494 10.494 0 007.827 0 4.33 4.33 0 01-.228-.363zM4.253 35.31c-.932-2.369-.932-5.002 0-7.37a4.138 4.138 0 01-.367-.23 10.548 10.548 0 000 7.83c.118-.083.24-.16.367-.23z" fill="#3C3C50"></path> </svg> 