<?xml version="1.0" encoding="UTF-8"?> <svg xmlns="http://www.w3.org/2000/svg" width="111" height="24" viewBox="0 0 111 24" fill="none"> <rect x="17.8667" y="24" width="4" height="24" rx="2" transform="rotate(-180 17.8667 24)" fill="url(#paint0_linear_7391_29723)"></rect> <rect x="10.9333" y="10.5333" width="4" height="7.2" rx="2" transform="rotate(-180 10.9333 10.5333)" fill="url(#paint1_linear_7391_29723)"></rect> <rect x="4" y="16.9333" width="4" height="9.86667" rx="2" transform="rotate(-180 4 16.9333)" fill="url(#paint2_linear_7391_29723)"></rect> <rect x="10.9333" y="20.6667" width="4" height="7.2" rx="2" transform="rotate(-180 10.9333 20.6667)" fill="url(#paint3_linear_7391_29723)"></rect> <path fill-rule="evenodd" clip-rule="evenodd" d="M89.1366 4.42941C88.9157 4.42941 88.7366 4.6085 88.7366 4.82941V18.0667C88.7366 18.2877 88.9157 18.4667 89.1366 18.4667H90.5329C90.7538 18.4667 90.9329 18.2877 90.9329 18.0667V15.7833L92.3986 14.3036L95.4743 18.3103C95.55 18.4089 95.6672 18.4667 95.7916 18.4667H97.4598C97.6118 18.4667 97.7506 18.3807 97.8181 18.2446C97.8857 18.1085 97.8703 17.9459 97.7784 17.8248L93.9252 12.7503L97.6189 8.97142C97.7315 8.85631 97.764 8.68499 97.7016 8.53664C97.6391 8.38829 97.4939 8.29181 97.3329 8.29181H95.5921C95.4831 8.29181 95.3788 8.3363 95.3034 8.41499L90.9329 12.9734V4.82941C90.9329 4.6085 90.7538 4.42941 90.5329 4.42941H89.1366ZM104.351 4.42941C104.13 4.42941 103.951 4.6085 103.951 4.82941V18.0667C103.951 18.2877 104.13 18.4667 104.351 18.4667H105.747C105.968 18.4667 106.147 18.2877 106.147 18.0667V4.82941C106.147 4.6085 105.968 4.42941 105.747 4.42941H104.351ZM109.115 4.42941C108.894 4.42941 108.715 4.6085 108.715 4.82941V18.0667C108.715 18.2877 108.894 18.4667 109.115 18.4667H110.511C110.732 18.4667 110.911 18.2877 110.911 18.0667V4.82941C110.911 4.6085 110.732 4.42941 110.511 4.42941H109.115ZM99.4969 4.70141C99.2759 4.70141 99.0969 4.8805 99.0969 5.10141V6.64275C99.0969 6.86366 99.2759 7.04275 99.4969 7.04275H101.093C101.314 7.04275 101.493 6.86366 101.493 6.64275V5.10141C101.493 4.8805 101.314 4.70141 101.093 4.70141H99.4969ZM25.7286 4.97341C25.5077 4.97341 25.3286 5.1525 25.3286 5.37341V18.0667C25.3286 18.2877 25.5077 18.4667 25.7286 18.4667H27.1611C27.3821 18.4667 27.5611 18.2877 27.5611 18.0667V12.7547H34.087V18.0667C34.087 18.2877 34.2661 18.4667 34.487 18.4667H35.9195C36.1405 18.4667 36.3195 18.2877 36.3195 18.0667V5.37341C36.3195 5.1525 36.1405 4.97341 35.9195 4.97341H34.487C34.2661 4.97341 34.087 5.1525 34.087 5.37341V10.6129H27.5611V5.37341C27.5611 5.1525 27.3821 4.97341 27.1611 4.97341H25.7286ZM54.9702 8.09235C53.5711 8.09235 52.5447 8.67245 51.7798 9.45098V8.69181C51.7798 8.4709 51.6007 8.29181 51.3798 8.29181H49.9835C49.7626 8.29181 49.5835 8.4709 49.5835 8.69181V20.9681C49.5835 21.189 49.7626 21.3681 49.9835 21.3681H51.3798C51.6007 21.3681 51.7798 21.189 51.7798 20.9681V17.3694C52.5373 18.1076 53.5722 18.6662 54.9702 18.6662C57.4578 18.6662 59.8491 16.6738 59.8491 13.3883V13.3521C59.8491 10.0444 57.4355 8.09235 54.9702 8.09235ZM65.942 8.09235C63.0914 8.09235 61.0449 10.4859 61.0449 13.3883C61.0449 16.5237 63.3225 18.6843 66.1233 18.6843C68.0352 18.6843 69.2801 17.9116 70.2835 16.7924C70.3544 16.7134 70.3909 16.6095 70.3851 16.5035C70.3793 16.3976 70.3316 16.2983 70.2526 16.2275L69.3822 15.4477C69.2213 15.3036 68.9751 15.3133 68.826 15.4695C68.1221 16.2069 67.3144 16.6694 66.1596 16.6694C64.8368 16.6694 63.6572 15.843 63.3274 14.3505H70.294C70.502 14.3505 70.6753 14.191 70.6926 13.9837C70.7121 13.7496 70.7121 13.5913 70.7121 13.4614V13.4609C70.7121 12.009 70.2919 10.6706 69.4751 9.6874C68.6518 8.69638 67.4455 8.09235 65.942 8.09235ZM77.9951 8.12895C76.5535 8.0701 75.373 8.72137 74.5527 9.72257V8.69181C74.5527 8.4709 74.3736 8.29181 74.1527 8.29181H72.7564C72.5355 8.29181 72.3564 8.4709 72.3564 8.69181V18.0667C72.3564 18.2877 72.5355 18.4667 72.7564 18.4667H74.1527C74.3736 18.4667 74.5527 18.2877 74.5527 18.0667V14.3313C74.5527 12.9958 74.9452 12.0265 75.5353 11.3947C76.1246 10.7638 76.9436 10.4337 77.87 10.4337H77.9788C78.1997 10.4337 78.3788 10.2546 78.3788 10.0337V8.52861C78.3788 8.31404 78.2095 8.1377 77.9951 8.12895ZM82.9705 8.12861C81.971 8.12861 81.0775 8.41775 80.426 8.95718C79.7685 9.50163 79.379 10.2851 79.379 11.2123V11.2486C79.379 12.2694 79.8771 12.9417 80.5567 13.3948C81.2091 13.8297 82.0464 14.0752 82.7705 14.2809L82.7721 14.2813C83.3965 14.4558 83.931 14.6207 84.31 14.8421C84.6754 15.0556 84.819 15.2728 84.819 15.5462V15.5825C84.819 15.9019 84.6808 16.1582 84.4305 16.3459C84.171 16.5405 83.7765 16.6694 83.2787 16.6694C82.2781 16.6694 81.236 16.275 80.2729 15.5526C80.1865 15.4878 80.0776 15.4607 79.971 15.4774C79.8644 15.4941 79.769 15.5532 79.7066 15.6412L78.9994 16.6386C78.8773 16.8107 78.9099 17.0479 79.0738 17.1807C80.1966 18.0906 81.7724 18.6481 83.2062 18.6481C84.2098 18.6481 85.1383 18.3707 85.8247 17.8215C86.5201 17.2652 86.9427 16.4477 86.9427 15.4374V15.4011C86.9427 14.4048 86.4693 13.73 85.8133 13.264C85.1815 12.8152 84.3684 12.5506 83.648 12.3344L83.6475 12.3343L83.6456 12.3337C83.0068 12.1393 82.4512 11.9702 82.0498 11.7501C81.652 11.532 81.5209 11.3294 81.5209 11.1035V11.0673C81.5209 10.8097 81.6334 10.5837 81.8567 10.4118C82.0864 10.235 82.4478 10.1073 82.9342 10.1073C83.7463 10.1073 84.6693 10.4189 85.4916 10.95C85.5825 11.0087 85.6933 11.028 85.7987 11.0037C85.9041 10.9793 85.9952 10.9133 86.0511 10.8206L86.6857 9.76888C86.7966 9.58515 86.7427 9.34668 86.5637 9.22843C85.5407 8.5529 84.1954 8.12861 82.9705 8.12861ZM38.327 8.29181C38.1909 8.29181 38.0642 8.36102 37.9906 8.4755C37.917 8.58999 37.9066 8.73404 37.9631 8.85787L42.1504 18.0342C41.9047 18.5817 41.6818 18.9117 41.4623 19.1085C41.2412 19.3066 41.0015 19.3894 40.6662 19.3894C40.1299 19.3894 39.7764 19.2951 39.382 19.09C39.2831 19.0386 39.1673 19.0307 39.0625 19.0683C38.9576 19.1059 38.8731 19.1856 38.8295 19.288L38.358 20.3942C38.2744 20.5904 38.3594 20.8176 38.5512 20.9108C39.2324 21.2417 39.8721 21.4225 40.7206 21.4225C41.5023 21.4225 42.1789 21.2241 42.7674 20.7336C43.3426 20.2543 43.7996 19.5239 44.2095 18.5271L44.2101 18.5256L48.1451 8.8424C48.1952 8.71908 48.1807 8.5789 48.1063 8.46847C48.032 8.35804 47.9076 8.29181 47.7745 8.29181H46.2876C46.1221 8.29181 45.9738 8.39366 45.9143 8.54805L43.2544 15.4541L40.235 8.53189C40.1714 8.38608 40.0274 8.29181 39.8684 8.29181H38.327ZM99.5875 8.29181C99.3666 8.29181 99.1875 8.4709 99.1875 8.69181V18.0667C99.1875 18.2877 99.3666 18.4667 99.5875 18.4667H100.984C101.205 18.4667 101.384 18.2877 101.384 18.0667V8.69181C101.384 8.4709 101.205 8.29181 100.984 8.29181H99.5875ZM65.9057 10.071C64.6741 10.071 63.6454 11.0033 63.3299 12.4262H68.4367C68.3184 11.8138 68.0794 11.2745 67.7312 10.8706C67.3105 10.3828 66.7138 10.071 65.9057 10.071ZM51.7254 13.3521C51.7254 11.4306 53.1991 10.1435 54.7163 10.1435C56.256 10.1435 57.6166 11.362 57.6166 13.3702V13.4065C57.6166 14.45 57.276 15.2479 56.7589 15.7827C56.241 16.3182 55.5222 16.615 54.7163 16.615C53.1991 16.615 51.7254 15.3461 51.7254 13.3883V13.3521Z" fill="white"></path> <defs> <linearGradient id="paint0_linear_7391_29723" x1="19.1481" y1="42.4353" x2="12.0287" y2="35.9027" gradientUnits="userSpaceOnUse"> <stop stop-color="#564DE2"></stop> <stop offset="1" stop-color="#68AEFF"></stop> </linearGradient> <linearGradient id="paint1_linear_7391_29723" x1="14.9333" y1="21.3876" x2="8.67101" y2="15.6877" gradientUnits="userSpaceOnUse"> <stop stop-color="#6C63FF"></stop> <stop offset="1" stop-color="#7AB7FE"></stop> </linearGradient> <linearGradient id="paint2_linear_7391_29723" x1="5.1018" y1="15.1405" x2="11.674" y2="21.7135" gradientUnits="userSpaceOnUse"> <stop stop-color="#4BFFDF"></stop> <stop offset="1" stop-color="#7AB7FE"></stop> </linearGradient> <linearGradient id="paint3_linear_7391_29723" x1="11.628" y1="16.507" x2="18.4107" y2="23.639" gradientUnits="userSpaceOnUse"> <stop stop-color="#4BFFDF"></stop> <stop offset="1" stop-color="#4D9FFF"></stop> </linearGradient> </defs> </svg> 