<?xml version="1.0" encoding="UTF-8"?> <svg xmlns="http://www.w3.org/2000/svg" width="4350" height="950" viewBox="0 0 4350 950" fill="none"> <path d="M0.753126 345.215C0.753129 308.03 25.823 283.241 59.2496 283.241L97.8229 283.241C135.428 283.241 160.498 312.162 160.498 345.215L160.553 604.785C160.553 641.97 131.304 666.76 97.8779 666.76L63.4829 666.76C25.878 666.76 0.808154 637.838 0.808157 604.785L0.753126 345.215Z" fill="url(#paint0_linear_489_3789)"></path> <path d="M494.68 62.465C494.68 25.2522 519.932 0.443775 553.601 0.443778L591.251 0.443781C629.128 0.443784 654.38 29.387 654.38 62.465L654.48 887.535C654.48 924.748 625.02 949.557 591.351 949.557L557.91 949.557C520.032 949.557 494.781 920.613 494.781 887.535L494.68 62.465Z" fill="url(#paint1_linear_489_3789)"></path> <path d="M247.716 206.852C247.716 169.604 273.101 144.773 306.946 144.773L344.055 144.773C382.131 144.773 407.516 173.743 407.516 206.852L407.515 369.364C407.515 406.612 377.9 431.443 344.054 431.443L311.177 431.443C273.1 431.443 247.716 402.473 247.716 369.364L247.716 206.852Z" fill="url(#paint2_linear_489_3789)"></path> <path d="M248.685 580.686C248.685 543.438 274.069 518.607 307.915 518.607L345.023 518.607C383.1 518.607 408.484 547.577 408.484 580.686L408.484 743.198C408.484 780.446 378.869 805.277 345.023 805.277L312.146 805.277C274.069 805.277 248.685 776.307 248.685 743.198L248.685 580.686Z" fill="url(#paint3_linear_489_3789)"></path> <path fill-rule="evenodd" clip-rule="evenodd" d="M3487.91 175.605C3479.17 175.605 3472.09 182.688 3472.09 191.424V714.912C3472.09 723.649 3479.17 730.731 3487.91 730.731H3543.13C3551.86 730.731 3558.94 723.649 3558.94 714.912V624.611L3616.91 566.096L3738.54 724.545C3741.53 728.445 3746.17 730.731 3751.09 730.731H3817.06C3823.07 730.731 3828.56 727.327 3831.23 721.945C3833.9 716.562 3833.29 710.132 3829.66 705.346L3677.28 504.666L3823.35 355.225C3827.8 350.673 3829.09 343.898 3826.62 338.031C3824.15 332.165 3818.41 328.349 3812.04 328.349H3743.2C3738.89 328.349 3734.76 330.109 3731.78 333.22L3558.94 513.49V191.424C3558.94 182.688 3551.86 175.605 3543.13 175.605H3487.91ZM4089.58 175.605C4080.85 175.605 4073.77 182.688 4073.77 191.424V714.912C4073.77 723.649 4080.85 730.731 4089.58 730.731H4144.8C4153.54 730.731 4160.62 723.649 4160.62 714.912V191.424C4160.62 182.688 4153.54 175.605 4144.8 175.605H4089.58ZM4277.97 175.605C4269.23 175.605 4262.15 182.688 4262.15 191.424V714.912C4262.15 723.649 4269.23 730.731 4277.97 730.731H4333.18C4341.92 730.731 4349 723.649 4349 714.912V191.424C4349 182.688 4341.92 175.605 4333.18 175.605H4277.97ZM3897.62 186.362C3888.88 186.362 3881.8 193.444 3881.8 202.181V263.135C3881.8 271.871 3888.88 278.953 3897.62 278.953H3960.72C3969.46 278.953 3976.54 271.871 3976.54 263.135V202.181C3976.54 193.444 3969.46 186.362 3960.72 186.362H3897.62ZM980.352 197.119C971.615 197.119 964.533 204.201 964.533 212.937V714.912C964.533 723.649 971.615 730.731 980.352 730.731H1037C1045.74 730.731 1052.82 723.649 1052.82 714.912V504.842H1310.9V714.912C1310.9 723.649 1317.98 730.731 1326.71 730.731H1383.37C1392.1 730.731 1399.18 723.649 1399.18 714.912V212.937C1399.18 204.201 1392.1 197.119 1383.37 197.119H1326.71C1317.98 197.119 1310.9 204.201 1310.9 212.937V420.139H1052.82V212.937C1052.82 204.201 1045.74 197.119 1037 197.119H980.352ZM2136.75 320.461C2081.42 320.461 2040.83 343.402 2010.58 374.19V344.168C2010.58 335.432 2003.5 328.349 1994.76 328.349H1939.54C1930.81 328.349 1923.73 335.432 1923.73 344.168V829.65C1923.73 838.386 1930.81 845.468 1939.54 845.468H1994.76C2003.5 845.468 2010.58 838.386 2010.58 829.65V687.336C2040.54 716.526 2081.46 738.619 2136.75 738.619C2235.12 738.619 2329.69 659.826 2329.69 529.899V528.465C2329.69 397.658 2234.24 320.461 2136.75 320.461ZM2570.64 320.461C2457.91 320.461 2376.98 415.117 2376.98 529.899C2376.98 653.891 2467.05 739.336 2577.82 739.336C2653.42 739.336 2702.66 708.778 2742.34 664.518C2745.14 661.393 2746.58 657.284 2746.35 653.094C2746.12 648.904 2744.24 644.976 2741.11 642.176L2706.69 611.341C2700.33 605.641 2690.59 606.022 2684.7 612.2C2656.86 641.362 2624.92 659.653 2579.25 659.653C2526.94 659.653 2480.29 626.971 2467.25 567.948H2742.75C2750.98 567.948 2757.83 561.641 2758.51 553.443C2759.29 544.183 2759.29 537.926 2759.29 532.79V532.767C2759.29 475.349 2742.67 422.42 2710.37 383.54C2677.81 344.349 2630.1 320.461 2570.64 320.461ZM3047.3 321.909C2990.29 319.582 2943.61 345.337 2911.17 384.93V344.168C2911.17 335.432 2904.08 328.349 2895.35 328.349H2840.13C2831.39 328.349 2824.31 335.432 2824.31 344.168V714.912C2824.31 723.649 2831.39 730.731 2840.13 730.731H2895.35C2904.08 730.731 2911.17 723.649 2911.17 714.912V567.188C2911.17 514.377 2926.69 476.044 2950.02 451.057C2973.33 426.106 3005.72 413.052 3042.36 413.052H3046.66C3055.39 413.052 3062.48 405.97 3062.48 397.234V337.714C3062.48 329.229 3055.78 322.255 3047.3 321.909ZM3244.06 321.895C3204.54 321.895 3169.2 333.33 3143.44 354.662C3117.43 376.193 3102.03 407.176 3102.03 443.846V445.28C3102.03 485.649 3121.73 512.235 3148.6 530.153C3174.4 547.353 3207.51 557.063 3236.15 565.195L3236.22 565.213C3260.91 572.112 3282.05 578.635 3297.03 587.39C3311.48 595.831 3317.16 604.422 3317.16 615.235V616.669C3317.16 629.301 3311.7 639.435 3301.8 646.861C3291.54 654.555 3275.93 659.653 3256.25 659.653C3216.68 659.653 3175.47 644.053 3137.38 615.488C3133.96 612.926 3129.66 611.854 3125.44 612.514C3121.22 613.174 3117.45 615.511 3114.98 618.993L3087.02 658.433C3082.19 665.238 3083.48 674.621 3089.96 679.873C3134.36 715.855 3196.68 737.902 3253.38 737.902C3293.07 737.902 3329.79 726.931 3356.93 705.214C3384.43 683.215 3401.15 650.887 3401.15 610.932V609.498C3401.15 570.097 3382.43 543.408 3356.48 524.98C3331.5 507.234 3299.34 496.767 3270.85 488.22L3270.83 488.214L3270.76 488.191C3245.5 480.502 3223.52 473.815 3207.65 465.113C3191.92 456.489 3186.73 448.474 3186.73 439.543V438.109C3186.73 427.921 3191.18 418.987 3200.01 412.189C3209.1 405.195 3223.39 400.144 3242.62 400.144C3274.74 400.144 3311.24 412.467 3343.76 433.469C3347.35 435.791 3351.74 436.557 3355.9 435.593C3360.07 434.629 3363.67 432.018 3365.89 428.354L3390.98 386.762C3395.37 379.496 3393.24 370.065 3386.16 365.389C3345.7 338.675 3292.5 321.895 3244.06 321.895ZM1478.57 328.349C1473.19 328.349 1468.18 331.086 1465.27 335.614C1462.36 340.141 1461.95 345.838 1464.18 350.735L1629.77 713.624C1620.06 735.277 1611.24 748.329 1602.56 756.109C1593.82 763.945 1584.34 767.219 1571.08 767.219C1549.87 767.219 1535.89 763.49 1520.29 755.378C1516.38 753.346 1511.8 753.035 1507.66 754.522C1503.51 756.008 1500.17 759.157 1498.44 763.21L1479.8 806.954C1476.49 814.712 1479.85 823.7 1487.44 827.385C1514.38 840.47 1539.68 847.62 1573.23 847.62C1604.14 847.62 1630.9 839.773 1654.17 820.378C1676.92 801.423 1694.99 772.537 1711.2 733.119L1711.23 733.059L1866.84 350.123C1868.82 345.246 1868.25 339.703 1865.31 335.335C1862.37 330.968 1857.45 328.349 1852.19 328.349H1793.38C1786.84 328.349 1780.97 332.377 1778.62 338.482L1673.43 611.591L1554.03 337.843C1551.51 332.077 1545.82 328.349 1539.53 328.349H1478.57ZM3901.2 328.349C3892.47 328.349 3885.39 335.432 3885.39 344.168V714.912C3885.39 723.649 3892.47 730.731 3901.2 730.731H3956.42C3965.16 730.731 3972.24 723.649 3972.24 714.912V344.168C3972.24 335.432 3965.16 328.349 3956.42 328.349H3901.2ZM2569.21 398.71C2520.5 398.71 2479.82 435.58 2467.35 491.85H2669.3C2664.62 467.632 2655.17 446.304 2641.4 430.331C2624.77 411.039 2601.17 398.71 2569.21 398.71ZM2008.43 528.465C2008.43 452.475 2066.71 401.579 2126.71 401.579C2187.6 401.579 2241.4 449.766 2241.4 529.182V530.616C2241.4 571.882 2227.94 603.438 2207.49 624.586C2187.01 645.764 2158.58 657.502 2126.71 657.502C2066.71 657.502 2008.43 607.322 2008.43 529.899V528.465Z" fill="black"></path> <defs> <linearGradient id="paint0_linear_489_3789" x1="116.536" y1="736.447" x2="-138.829" y2="473.957" gradientUnits="userSpaceOnUse"> <stop stop-color="#4BFFDF"></stop> <stop offset="1" stop-color="#7AB7FE"></stop> </linearGradient> <linearGradient id="paint1_linear_489_3789" x1="603.287" y1="220.508" x2="885.065" y2="481.699" gradientUnits="userSpaceOnUse"> <stop stop-color="#564DE2"></stop> <stop offset="1" stop-color="#68AEFF"></stop> </linearGradient> <linearGradient id="paint2_linear_489_3789" x1="247.716" y1="-0.723498" x2="497.131" y2="227.056" gradientUnits="userSpaceOnUse"> <stop stop-color="#6C63FF"></stop> <stop offset="1" stop-color="#7AB7FE"></stop> </linearGradient> <linearGradient id="paint3_linear_489_3789" x1="380.735" y1="970.896" x2="110.725" y2="686.023" gradientUnits="userSpaceOnUse"> <stop stop-color="#4BFFDF"></stop> <stop offset="1" stop-color="#4D9FFF"></stop> </linearGradient> </defs> </svg> 