<?xml version="1.0" encoding="UTF-8"?> <svg xmlns="http://www.w3.org/2000/svg" viewBox="0 0 27.18 41.81"> <defs> <style>.cls-1,.cls-2{fill:none;stroke-miterlimit:10;stroke-width:0.5px;}.cls-1{stroke:#fff;}.cls-2{stroke:#6c6;}</style> </defs> <g id="Layer_2" data-name="Layer 2"> <g id="Layer_1-2" data-name="Layer 1"> <path class="cls-1" d="M22.41,11.34a5.19,5.19,0,0,1-3.7-1.54"></path> <path class="cls-1" d="M22.41,16.58A10.44,10.44,0,0,1,15,13.51"></path> <path class="cls-2" d="M22.41,21.82A15.67,15.67,0,0,1,11.3,17.21"></path> <path class="cls-1" d="M22.41,27.06A20.91,20.91,0,0,1,7.59,20.92"></path> <path class="cls-2" d="M22.41,32.3A26.16,26.16,0,0,1,3.88,24.63"></path> <path class="cls-1" d="M22.41,37.54A31.35,31.35,0,0,1,.18,28.33"></path> <line class="cls-1" x1="10.24" y1="35.39" x2="7.59" y2="41.71"></line> <circle class="cls-1" cx="23.71" cy="3.47" r="3.22"></circle> </g> </g> </svg> 