<?xml version="1.0" encoding="UTF-8"?> <!-- Generator: Adobe Illustrator 23.0.6, SVG Export Plug-In . SVG Version: 6.00 Build 0) --> <svg xmlns="http://www.w3.org/2000/svg" xmlns:xlink="http://www.w3.org/1999/xlink" id="Layer_1" x="0px" y="0px" viewBox="0 0 1600 900" style="enable-background:new 0 0 1600 900;" xml:space="preserve"> <style type="text/css"> .st0{fill:#030206;} .st1{fill:#06050C;} .st2{fill:#090711;} .st3{fill:#0D0917;} .st4{fill:#100C1D;} .st5{fill:#130E23;} .st6{fill:#161029;} .st7{fill:#19122E;} .st8{fill:#1C1534;} .st9{fill:#20173A;} .st10{fill:#231940;} .st11{fill:#261C46;} .st12{fill:#291E4B;} .st13{fill:#2C2051;} .st14{fill:#2F2357;} .st15{fill:#32255D;} .st16{fill:#362763;} .st17{fill:#392A68;} .st18{fill:#3C2C6E;} .st19{fill:#3F2E74;} .st20{fill:#42307A;} .st21{fill:#45337F;} .st22{fill:#493585;} .st23{fill:#4C378B;} .st24{fill:#4F3A91;} .st25{fill:#523C97;} .st26{fill:#553E9C;} .st27{fill:#5841A2;} .st28{fill:#5B43A8;} .st29{fill:#5F45AE;} .st30{fill:#6248B4;} .st31{fill:#654AB9;} .st32{fill:#684CBF;} .st33{fill:#6B4EC5;} .st34{fill:#6E51CB;} .st35{fill:#7253D1;} .st36{fill:#7555D6;} .st37{fill:#7858DC;} .st38{fill:#7B5AE2;} .st39{fill:#7656D9;} .st40{fill:#7152CF;} .st41{fill:#6C4FC6;} .st42{fill:#664BBC;} .st43{fill:#6147B3;} .st44{fill:#5C43A9;} .st45{fill:#5740A0;} .st46{fill:#4D388D;} .st47{fill:#483484;} .st48{fill:#43317A;} .st49{fill:#3D2D71;} .st50{fill:#382968;} .st51{fill:#33265E;} .st52{fill:#2E2255;} .st53{fill:#241A42;} .st54{fill:#1F1739;} .st55{fill:#1A132F;} .st56{fill:#150F26;} .st57{fill:#0F0B1C;} .st58{fill:#0A0813;} .st59{fill:#050409;} .st60{fill:#322082;fill-opacity:0;} .st61{opacity:3.000000e-02;fill:#311F7E;enable-background:new ;} .st62{opacity:5.000000e-02;fill:#2F1E7B;enable-background:new ;} .st63{opacity:8.000000e-02;fill:#2E1D77;enable-background:new ;} .st64{opacity:0.11;fill:#2D1D74;enable-background:new ;} .st65{opacity:0.14;fill:#2B1C70;enable-background:new ;} .st66{opacity:0.16;fill:#2A1B6D;enable-background:new ;} .st67{opacity:0.19;fill:#291A69;enable-background:new ;} .st68{opacity:0.22;fill:#271966;enable-background:new ;} .st69{opacity:0.24;fill:#261862;enable-background:new ;} .st70{opacity:0.27;fill:#24175F;enable-background:new ;} .st71{opacity:0.3;fill:#23165B;enable-background:new ;} .st72{opacity:0.32;fill:#221658;enable-background:new ;} .st73{opacity:0.35;fill:#201554;enable-background:new ;} .st74{opacity:0.38;fill:#1F1451;enable-background:new ;} .st75{opacity:0.41;fill:#1E134D;enable-background:new ;} .st76{opacity:0.43;fill:#1C124A;enable-background:new ;} .st77{opacity:0.46;fill:#1B1146;enable-background:new ;} .st78{opacity:0.49;fill:#1A1043;enable-background:new ;} .st79{opacity:0.51;fill:#18103F;enable-background:new ;} .st80{opacity:0.54;fill:#170F3C;enable-background:new ;} .st81{opacity:0.57;fill:#160E38;enable-background:new ;} .st82{opacity:0.59;fill:#140D35;enable-background:new ;} .st83{opacity:0.62;fill:#130C31;enable-background:new ;} .st84{opacity:0.65;fill:#120B2E;enable-background:new ;} .st85{opacity:0.68;fill:#100A2A;enable-background:new ;} .st86{opacity:0.7;fill:#0F0A27;enable-background:new ;} .st87{opacity:0.73;fill:#0E0923;enable-background:new ;} .st88{opacity:0.76;fill:#0C0820;enable-background:new ;} .st89{opacity:0.78;fill:#0B071C;enable-background:new ;} .st90{opacity:0.81;fill:#090619;enable-background:new ;} .st91{opacity:0.84;fill:#080515;enable-background:new ;} .st92{opacity:0.86;fill:#070412;enable-background:new ;} .st93{opacity:0.89;fill:#05030E;enable-background:new ;} .st94{opacity:0.92;fill:#04030B;enable-background:new ;} .st95{opacity:0.95;fill:#030207;enable-background:new ;} .st96{opacity:0.97;fill:#010104;enable-background:new ;} .st97{opacity:0.45;} .st98{fill:#0000FF;fill-opacity:0;} .st99{opacity:4.000000e-02;fill:#0000F5;enable-background:new ;} .st100{opacity:8.000000e-02;fill:#0000EB;enable-background:new ;} .st101{opacity:0.12;fill:#0000E2;enable-background:new ;} .st102{opacity:0.15;fill:#0000D8;enable-background:new ;} .st103{opacity:0.19;fill:#0000CE;enable-background:new ;} .st104{opacity:0.23;fill:#0000C4;enable-background:new ;} .st105{opacity:0.27;fill:#0000BA;enable-background:new ;} .st106{opacity:0.31;fill:#0000B1;enable-background:new ;} .st107{opacity:0.35;fill:#0000A7;enable-background:new ;} .st108{opacity:0.38;fill:#00009D;enable-background:new ;} .st109{opacity:0.42;fill:#000093;enable-background:new ;} .st110{opacity:0.46;fill:#000089;enable-background:new ;} .st111{opacity:0.5;fill:#000080;enable-background:new ;} .st112{opacity:0.54;fill:#000076;enable-background:new ;} .st113{opacity:0.58;fill:#00006C;enable-background:new ;} .st114{opacity:0.62;fill:#000062;enable-background:new ;} .st115{opacity:0.65;fill:#000058;enable-background:new ;} .st116{opacity:0.69;fill:#00004E;enable-background:new ;} .st117{opacity:0.73;fill:#000045;enable-background:new ;} .st118{opacity:0.77;fill:#00003B;enable-background:new ;} .st119{opacity:0.81;fill:#000031;enable-background:new ;} .st120{opacity:0.85;fill:#000027;enable-background:new ;} .st121{opacity:0.88;fill:#00001D;enable-background:new ;} .st122{opacity:0.92;fill:#000014;enable-background:new ;} .st123{opacity:0.96;fill:#00000A;enable-background:new ;} .st124{opacity:0.43;} .st125{opacity:0.9;} .st126{fill:#8061E3;} .st127{fill:#8667E4;} .st128{fill:#8B6EE5;} .st129{fill:#9074E7;} .st130{fill:#957BE8;} .st131{fill:#9B82E9;} .st132{fill:#A088EA;} .st133{fill:#A58FEB;} .st134{fill:#AB95EC;} .st135{fill:#B09CEE;} .st136{fill:#B5A3EF;} .st137{fill:#BAA9F0;} .st138{fill:#C0B0F1;} .st139{fill:#C5B6F2;} .st140{fill:#CABDF3;} .st141{fill:#CFC4F5;} .st142{fill:#D5CAF6;} .st143{fill:#DAD1F7;} .st144{fill:#DFD7F8;} .st145{fill:#E5DEF9;} .st146{fill:#EAE5FA;} .st147{fill:#EFEBFC;} .st148{fill:#F4F2FD;} .st149{fill:#FAF8FE;} .st150{fill:#FFFFFF;} </style> <title>sa-logo-Artboard 9-</title> <g> <rect x="-20.2" y="-2.1" width="1186.3" height="906.1"></rect> <path class="st0" d="M0.6,2.4C0.6,2.1,240.7,2,240.9,2L1159.8,3c0.2,0.1,0.3,301.8,0.3,302V585c0,0.2-0.1,302-0.3,302L240.9,888 c-0.3,0.1-240.3-0.1-240.3-0.4v-11.2c0-0.2,0.1-158.2,0.3-158.2l0,0C1,718.1,1.1,560,1.1,559.9V330.2C1.1,330,1,172,0.9,171.9l0,0 C0.7,171.9,0.6,13.8,0.6,13.6L0.6,2.4z"></path> <path class="st1" d="M21.4,7c0-0.6,234-0.9,234.6-0.8l897.5,1.9c0.3,0.1,0.5,294.1,0.5,294.4v273.2c0,0.3-0.2,294.4-0.5,294.5 L255.9,872c-0.5,0.2-234.6-0.2-234.6-0.8v-11c0-0.3,0.2-154.4,0.6-154.5l0,0c0.3-0.1,0.6-154.1,0.6-154.5V326.9 c0-0.4-0.2-154.4-0.6-154.5l0,0c-0.3-0.1-0.6-154.1-0.6-154.5L21.4,7z"></path> <path class="st2" d="M42.1,11.5c0-0.8,228-1.4,228.8-1.1l876.1,2.8c0.5,0.2,0.8,286.3,0.8,286.9v266.3c0,0.5-0.3,286.7-0.8,286.9 l-876.1,2.8c-0.8,0.3-228.8-0.3-228.8-1.1v-10.7c0-0.5,0.3-150.5,0.8-150.7l0,0c0.5-0.2,0.8-150.2,0.8-150.7v-219 c0-0.5-0.3-150.6-0.8-150.7l0,0c-0.5-0.2-0.8-150.2-0.8-150.7L42.1,11.5z"></path> <path class="st3" d="M62.9,16.1c0-1.1,222-1.9,223-1.5l854.8,3.8c0.6,0.2,1.1,278.6,1.1,279.3V557c0,0.7-0.4,279.1-1.1,279.3 l-854.8,3.8c-1,0.4-223-0.4-223-1.5v-10.5c0-0.7,0.5-146.7,1.1-146.9l0,0c0.7-0.2,1.1-146.3,1.1-146.9V320.4 c0-0.7-0.5-146.8-1.1-147l0,0c-0.7-0.2-1.1-146.3-1.1-146.9L62.9,16.1z"></path> <path class="st4" d="M83.7,20.6c0-1.4,215.9-2.3,217.2-1.9l833.4,4.7c0.8,0.3,1.4,270.9,1.4,271.8v252.5c0,0.9-0.5,271.5-1.4,271.8 l-833.4,4.7c-1.3,0.4-217.2-0.5-217.2-1.9V812c0-0.9,0.6-142.9,1.4-143.2l0,0c0.8-0.3,1.4-142.3,1.4-143.2V317.2 c0-0.9-0.6-142.9-1.4-143.2l0,0c-0.9-0.3-1.4-142.3-1.4-143.2V20.6z"></path> <path class="st5" d="M104.5,25.1c0-1.6,209.9-2.8,211.4-2.3l812.1,5.6c1,0.3,1.6,263.2,1.6,264.2v245.6c0,1-0.7,263.9-1.6,264.2 l-812.1,5.6c-1.6,0.5-211.4-0.6-211.4-2.3v-9.9c0-1,0.7-139.1,1.7-139.4l0,0c1-0.3,1.7-138.3,1.7-139.4V313.9 c0-1-0.7-139.1-1.7-139.4l0,0c-1-0.3-1.7-138.4-1.7-139.4V25.1z"></path> <path class="st6" d="M125.2,29.7c0-1.9,203.8-3.3,205.7-2.7l790.7,6.6c1.1,0.4,1.9,255.4,1.9,256.6v238.7 c0,1.2-0.8,256.3-1.9,256.7l-790.7,6.6c-1.8,0.6-205.7-0.7-205.7-2.7v-9.7c0-1.2,0.8-135.2,2-135.6l0,0c1.2-0.4,2-134.4,2-135.6 v-198c0-1.2-0.8-135.3-2-135.6l0,0c-1.1-0.4-2-134.4-2-135.6V29.7z"></path> <path class="st7" d="M146,34.2c0-2.2,197.8-3.8,199.9-3l769.4,7.5c1.3,0.4,2.2,247.7,2.2,249.1v231.8c0,1.4-0.9,248.7-2.2,249.1 l-769.4,7.5c-2.1,0.7-199.9-0.8-199.9-3v-9.4c0-1.4,0.9-131.4,2.2-131.8l0,0c1.3-0.4,2.2-130.5,2.2-131.9V307.4 c0-1.4-0.9-131.5-2.2-131.9l0,0C146.9,175.1,146,45,146,43.6V34.2z"></path> <path class="st8" d="M166.8,38.8c0-2.5,191.8-4.2,194.1-3.4l748,8.4c1.5,0.5,2.5,240,2.5,241.5v224.9c0,1.5-1,241.1-2.5,241.6 l-748,8.4c-2.3,0.8-194.1-0.9-194.1-3.4v-9.2c0-1.6,1-127.6,2.5-128.1l0,0c1.5-0.5,2.5-126.5,2.5-128.1V304.1 c0-1.6-1-127.6-2.5-128.1l0,0c-1.5-0.5-2.5-126.5-2.5-128.1L166.8,38.8z"></path> <path class="st9" d="M187.6,43.3c0-2.8,185.7-4.7,188.3-3.8l726.7,9.4c1.6,0.6,2.7,232.2,2.7,234v218c0,1.7-1.1,233.4-2.7,234 l-726.7,9.4c-2.6,0.9-188.3-1-188.3-3.8v-8.9c0-1.8,1.1-123.8,2.8-124.3l0,0c1.7-0.5,2.8-122.6,2.8-124.3V300.8 c0-1.8-1.1-123.8-2.8-124.3l0,0c-1.7-0.5-2.8-122.6-2.8-124.3L187.6,43.3z"></path> <path class="st10" d="M208.3,47.9c0-3,179.7-5.2,182.5-4.2L1096.2,54c1.8,0.6,3,224.5,3,226.4v211.1c0,1.9-1.2,225.8-3,226.4 l-705.3,10.3c-2.9,1-182.5-1.2-182.5-4.2v-8.6c0-1.9,1.2-119.9,3-120.5l0,0c1.8-0.6,3-118.6,3-120.5V297.6c0-1.9-1.2-120-3-120.6 l0,0c-1.8-0.6-3-118.6-3-120.5V47.9z"></path> <path class="st11" d="M229.1,52.4c0-3.3,173.6-5.6,176.8-4.6l684,11.3c2,0.7,3.3,216.8,3.3,218.8v204.2c0,2-1.3,218.2-3.3,218.9 l-684,11.2c-3.1,1.1-176.8-1.3-176.8-4.6v-8.4c0-2.1,1.4-116.1,3.4-116.7l0,0c2-0.6,3.4-114.7,3.4-116.8V294.4 c0-2.1-1.4-116.2-3.4-116.8l0,0c-2-0.6-3.4-114.7-3.4-116.8L229.1,52.4z"></path> <path class="st12" d="M249.9,57c0-3.6,167.6-6.1,171-4.9l662.7,12.2c2.1,0.7,3.5,209.1,3.5,211.3v197.3c0,2.2-1.4,210.6-3.5,211.3 l-662.7,12.1c-3.4,1.1-171-1.4-171-4.9v-8.1c0-2.3,1.5-112.3,3.6-113l0,0c2.2-0.7,3.6-110.7,3.6-113V291.1c0-2.3-1.5-112.3-3.6-113 l0,0c-2.2-0.7-3.6-110.7-3.6-113V57z"></path> <path class="st13" d="M270.7,61.5c0-3.9,161.6-6.6,165.2-5.3l641.3,13.2c2.3,0.8,3.8,201.3,3.8,203.7v190.4 c0,2.4-1.5,203-3.8,203.8l-641.3,13.2c-3.6,1.2-165.2-1.5-165.2-5.3v-7.9c0-2.4,1.6-108.5,3.9-109.2l0,0 c2.3-0.7,3.9-106.8,3.9-109.3V287.8c0-2.4-1.6-108.5-3.9-109.3l0,0c-2.3-0.7-3.9-106.8-3.9-109.3L270.7,61.5z"></path> <path class="st14" d="M291.4,66.1c0-4.1,155.5-7.1,159.4-5.7l619.9,14.1c2.4,0.8,4,193.6,4,196.2v183.5c0,2.6-1.6,195.4-4,196.2 l-619.9,14.1c-3.9,1.3-159.4-1.6-159.4-5.7v-7.6c0-2.6,1.7-104.6,4.2-105.4l0,0c2.5-0.8,4.2-102.8,4.2-105.5V284.6 c0-2.6-1.7-104.7-4.2-105.5l0,0c-2.5-0.8-4.2-102.8-4.2-105.5V66.1z"></path> <path class="st15" d="M312.2,70.6c0-4.4,149.5-7.5,153.6-6.1l598.6,15c2.6,0.9,4.4,185.9,4.4,188.6v176.6 c0,2.8-1.8,187.8-4.4,188.7l-598.6,15c-4.2,1.4-153.6-1.7-153.6-6.1V635c0-2.8,1.8-100.8,4.5-101.7l0,0c2.7-0.8,4.5-98.9,4.5-101.7 V281.3c0-2.8-1.8-100.9-4.5-101.7l0,0c-2.7-0.8-4.5-98.9-4.5-101.7V70.6z"></path> <path class="st16" d="M333,75.2c0-4.7,143.4-8,147.9-6.5l577.2,15.9c2.8,0.9,4.6,178.1,4.6,181.1v169.7c0,2.9-1.9,180.2-4.6,181.1 l-577.2,15.9C476.4,634,333,630.7,333,626v-7.1c0-3,1.9-97,4.8-97.9l0,0c2.8-0.9,4.8-94.9,4.8-97.9V278.1c0-3-1.9-97-4.8-97.9l0,0 c-2.8-0.9-4.8-94.9-4.8-97.9V75.2z"></path> <path class="st17" d="M353.8,79.7c0-4.9,137.4-8.4,142.1-6.8l555.9,16.9c2.9,1,4.9,170.4,4.9,173.5v162.9c0,3.1-2,172.5-4.9,173.5 l-555.9,16.8c-4.7,1.6-142.1-1.9-142.1-6.8v-6.8c0-3.1,2-93.2,5.1-94.1l0,0c3-1,5.1-91,5.1-94.1V274.8c0-3.1-2-93.2-5.1-94.2l0,0 c-3-1-5.1-91-5.1-94.1L353.8,79.7z"></path> <path class="st18" d="M374.5,84.2c0-5.2,131.3-8.9,136.3-7.2l534.5,17.8c3,1,5.2,162.7,5.2,165.9v156c0,3.3-2.1,164.9-5.2,166 l-534.5,17.8c-4.9,1.7-136.3-2-136.3-7.2v-6.6c0-3.3,2.1-89.3,5.3-90.4l0,0c3.2-1,5.3-87,5.3-90.4V271.6c0-3.3-2.2-89.4-5.3-90.4 l0,0c-3.2-1-5.3-87-5.3-90.4V84.2z"></path> <path class="st19" d="M395.3,88.8c0-5.5,125.3-9.4,130.5-7.6L1039,100c3.2,1.1,5.4,155,5.4,158.4v149c0,3.4-2.2,157.3-5.4,158.4 l-513.2,18.7c-5.2,1.8-130.5-2.1-130.5-7.6v-6.3c0-3.5,2.3-85.5,5.6-86.6l0,0c3.3-1.1,5.6-83.1,5.6-86.6V268.3 c0-3.5-2.3-85.5-5.6-86.6l0,0c-3.3-1-5.6-83.1-5.6-86.6V88.8z"></path> <path class="st20" d="M416.1,93.3c0-5.8,119.3-9.8,124.7-8l491.9,19.7c3.4,1.2,5.7,147.2,5.7,150.8V398c0,3.6-2.3,149.7-5.7,150.9 l-491.9,19.7c-5.5,1.9-124.7-2.2-124.7-8v-6.1c0-3.7,2.4-81.7,5.9-82.8l0,0c3.5-1.1,5.9-79.1,5.9-82.8V265c0-3.7-2.4-81.7-5.9-82.8 l0,0c-3.5-1.1-5.9-79.1-5.9-82.8V93.3z"></path> <path class="st21" d="M436.9,97.9c0-6.1,113.2-10.3,119-8.4l470.5,20.6c3.6,1.2,6,139.5,6,143.3v135.3c0,3.8-2.4,142.1-6,143.3 l-470.5,20.6c-5.7,2-119-2.3-119-8.4v-5.8c0-3.8,2.5-77.9,6.2-79l0,0c3.7-1.2,6.2-75.2,6.2-79.1V261.8c0-3.8-2.5-77.9-6.2-79.1l0,0 c-3.7-1.2-6.2-75.2-6.2-79V97.9z"></path> <path class="st22" d="M457.6,102.4c0-6.3,107.2-10.8,113.2-8.8l449.1,21.6c3.7,1.3,6.3,131.8,6.3,135.7v128.4 c0,3.9-2.5,134.5-6.3,135.7l-449.1,21.6c-6,2-113.2-2.4-113.2-8.8v-5.5c0-4,2.6-74.1,6.4-75.3l0,0c3.8-1.2,6.4-71.3,6.4-75.3V258.5 c0-4-2.6-74.1-6.4-75.3l0,0c-3.8-1.2-6.4-71.3-6.4-75.3L457.6,102.4z"></path> <path class="st23" d="M478.4,107c0-6.6,101.2-11.3,107.4-9.1l427.8,22.5c3.9,1.3,6.5,124,6.5,128.2V370c0,4.1-2.6,126.9-6.5,128.2 l-427.8,22.5c-6.3,2.1-107.4-2.5-107.4-9.1v-5.3c0-4.2,2.7-70.2,6.7-71.5l0,0c4-1.3,6.7-67.3,6.7-71.5v-108 c0-4.2-2.7-70.2-6.7-71.5l0,0c-4-1.3-6.7-67.3-6.7-71.5L478.4,107z"></path> <path class="st24" d="M499.2,111.5c0-6.9,95.1-11.7,101.6-9.5l406.4,23.4c4,1.4,6.8,116.3,6.8,120.6v114.6 c0,4.3-2.7,119.3-6.8,120.6l-406.4,23.4c-6.5,2.2-101.6-2.6-101.6-9.5v-5.1c0-4.4,2.8-66.4,7-67.7l0,0c4.2-1.3,7-63.4,7-67.7V252 c0-4.4-2.8-66.4-7-67.8l0,0c-4.2-1.3-7-63.4-7-67.7L499.2,111.5z"></path> <path class="st25" d="M520,116.1c0-7.2,89-12.2,95.8-9.9l385.1,24.4c4.2,1.4,7.1,108.6,7.1,113.1v107.7c0,4.5-2.9,111.6-7.1,113.1 l-385.1,24.4c-6.8,2.3-95.8-2.7-95.8-9.9v-4.8c0-4.5,2.9-62.6,7.3-63.9l0,0c4.3-1.4,7.3-59.4,7.3-64v-97.4c0-4.5-2.9-62.6-7.3-64 l0,0c-4.3-1.4-7.3-59.4-7.3-64V116.1z"></path> <path class="st26" d="M540.7,120.6c0-7.4,83-12.7,90-10.3l363.8,25.3c4.4,1.5,7.4,100.9,7.4,105.5V342c0,4.6-3,104-7.4,105.5 l-363.8,25.3c-7.1,2.4-90-2.8-90-10.3V458c0-4.7,3-58.7,7.6-60.2l0,0c4.5-1.4,7.6-55.5,7.6-60.2v-92.1c0-4.7-3-58.8-7.6-60.2l0,0 c-4.5-1.4-7.6-55.5-7.6-60.2V120.6z"></path> <path class="st27" d="M561.5,125.2c0-7.7,77-13.2,84.3-10.6l342.4,26.3c4.6,1.5,7.6,93.1,7.6,97.9v93.9c0,4.8-3,96.4-7.6,98 l-342.4,26.2c-7.3,2.5-84.3-2.9-84.3-10.6v-4.3c0-4.9,3.2-54.9,7.8-56.4l0,0c4.7-1.5,7.8-51.5,7.8-56.4v-86.8 c0-4.9-3.2-54.9-7.8-56.4l0,0c-4.7-1.5-7.8-51.5-7.8-56.4V125.2z"></path> <path class="st28" d="M582.3,129.7c0-8,70.9-13.6,78.5-11l321.1,27.2c4.7,1.6,7.9,85.4,7.9,90.4v87c0,5-3.2,88.8-7.9,90.4 l-321.1,27.2c-7.6,2.6-78.5-3-78.5-11v-4c0-5.1,3.3-51.1,8.1-52.6l0,0c4.8-1.5,8.1-47.5,8.1-52.6V239c0-5.1-3.3-51.1-8.1-52.6l0,0 c-4.8-1.5-8.1-47.5-8.1-52.6L582.3,129.7z"></path> <path class="st29" d="M603.1,134.3c0-8.3,64.9-14.1,72.7-11.4L975.5,151c4.9,1.7,8.2,77.7,8.2,82.8v80.1c0,5.2-3.3,81.2-8.2,82.8 l-299.7,28.1c-7.8,2.7-72.7-3.2-72.7-11.4v-3.7c0-5.3,3.4-47.3,8.4-48.9l0,0c5-1.6,8.4-43.6,8.4-48.9v-76.3 c0-5.2-3.4-47.3-8.4-48.9l0,0c-5-1.6-8.4-43.6-8.4-48.9L603.1,134.3z"></path> <path class="st30" d="M623.8,138.8c0-8.5,58.9-14.5,66.9-11.8l278.4,29.1c5.1,1.7,8.4,69.9,8.4,75.3v73.2c0,5.3-3.4,73.6-8.4,75.3 l-278.4,29.1c-8.1,2.7-66.9-3.3-66.9-11.8v-3.5c0-5.4,3.5-43.5,8.7-45.1l0,0c5.2-1.6,8.7-39.7,8.7-45.1v-71 c0-5.4-3.5-43.5-8.7-45.1l0,0c-5.2-1.6-8.7-39.7-8.7-45.1L623.8,138.8z"></path> <path class="st31" d="M644.6,143.3c0-8.8,52.8-15,61.2-12.1l257,30c5.2,1.8,8.7,62.2,8.7,67.7v66.3c0,5.5-3.5,66-8.7,67.7l-257,30 c-8.3,2.8-61.2-3.4-61.2-12.1v-3.2c0-5.6,3.6-39.6,9-41.3l0,0c5.3-1.7,9-35.7,9-41.3v-65.7c0-5.6-3.6-39.6-9-41.3l0,0 c-5.3-1.7-9-35.7-9-41.3V143.3z"></path> <path class="st32" d="M665.4,147.9c0-9.1,46.8-15.5,55.4-12.5l235.7,30.9c5.4,1.8,9,54.5,9,60.2v59.4c0,5.7-3.6,58.4-9,60.2 L720.8,377c-8.6,2.9-55.4-3.5-55.4-12.5v-3c0-5.8,3.7-35.8,9.2-37.6l0,0c5.5-1.8,9.2-31.8,9.2-37.6V226c0-5.8-3.7-35.8-9.2-37.6 l0,0c-5.5-1.8-9.2-31.8-9.2-37.6V147.9z"></path> <path class="st33" d="M686.2,152.4c0-9.3,40.7-15.9,49.6-12.9L950,171.4c5.5,1.9,9.3,46.8,9.3,52.6v52.5c0,5.8-3.7,50.7-9.3,52.6 L735.8,361c-8.9,3-49.6-3.6-49.6-12.9v-2.7c0-5.9,3.8-32,9.5-33.8l0,0c5.7-1.8,9.5-27.8,9.5-33.8v-55.1c0-5.9-3.8-32-9.5-33.8l0,0 c-5.7-1.8-9.5-27.8-9.5-33.8L686.2,152.4z"></path> <path class="st34" d="M706.9,157c0-9.6,34.7-16.4,43.8-13.3l192.9,32.8c5.7,1.9,9.5,39,9.5,45.1v45.6c0,6.1-3.8,43.1-9.5,45.1 L750.8,345c-9.1,3.1-43.8-3.7-43.8-13.3v-2.4c0-6.1,4-28.2,9.8-30l0,0c5.8-1.9,9.8-23.9,9.8-30v-49.8c0-6.1-4-28.2-9.8-30l0,0 c-5.8-1.9-9.8-23.9-9.8-30L706.9,157z"></path> <path class="st35" d="M727.7,161.5c0-9.9,28.7-16.9,38-13.7l171.6,33.8c5.9,2,9.8,31.3,9.8,37.5v38.7c0,6.2-3.9,35.5-9.8,37.5 l-171.6,33.8c-9.4,3.2-38-3.8-38-13.7v-2.2c0-6.3,4-24.3,10.1-26.2l0,0c6-1.9,10.1-19.9,10.1-26.2v-44.5c0-6.3-4-24.3-10.1-26.2 l0,0c-6-1.9-10.1-19.9-10.1-26.2L727.7,161.5z"></path> <path class="st36" d="M748.5,166.1c0-10.2,22.6-17.3,32.3-14.1L931,186.7c6.1,2,10.1,23.6,10.1,29.9v31.8c0,6.4-4,27.9-10.1,29.9 l-150.2,34.7c-9.6,3.3-32.3-3.9-32.3-14.1v-1.9c0-6.5,4.2-20.5,10.4-22.5l0,0c6.2-2,10.3-16,10.3-22.5v-39.3 c0-6.5-4.2-20.5-10.3-22.5l0,0c-6.2-2-10.4-16-10.4-22.5L748.5,166.1z"></path> <path class="st37" d="M769.3,170.6c0-10.5,16.6-17.8,26.5-14.4l128.9,35.6c6.2,2.1,10.3,15.9,10.3,22.4v24.9 c0,6.5-4.2,20.3-10.3,22.4l-128.9,35.6c-9.9,3.4-26.5-4-26.5-14.4V281c0-6.6,4.3-16.7,10.6-18.7l0,0c6.3-2,10.6-12,10.6-18.7v-34 c0-6.6-4.3-16.7-10.6-18.7l0,0c-6.3-2-10.6-12-10.6-18.7V170.6z"></path> <path class="st38" d="M811.9,235.1v-28.7c0-6.8-4.4-12.9-10.9-14.9l0,0c-6.5-2.1-10.9-8.1-10.9-14.9v-1.4c0-8.6,7-15.7,15.6-15.7 c1.7,0,3.4,0.3,5.1,0.8l107.6,36.6c6.4,2.2,10.6,8.1,10.6,14.8v18c0,6.7-4.3,12.7-10.6,14.9l-107.6,36.5 c-8.2,2.8-17.1-1.6-19.9-9.8c-0.6-1.6-0.8-3.3-0.8-5.1v-1.4c0-6.8,4.4-12.9,10.9-14.9l0,0C807.4,248,811.9,241.9,811.9,235.1z"></path> </g> <g> <polygon class="st38" points="1622,-2.1 1622,450.9 1622,903.9 800.9,903.9 -20.2,903.9 -20.2,450.9 -20.2,-2.1 800.9,-2.1 "></polygon> <path class="st39" d="M1592.9,4.7c0.1,0.1,0.1,34.1,0,34.2l-4.2,403.4l-4.6,437.5l-221.4,1.7L789,885.7l-490.9,3.7 c-0.1,0.1-41.9,0.1-42,0l-262.4-2c-0.1-0.1-0.1-34.1,0-34.2l4.3-403.4L2.5,12.4l221.4-1.7l573.7-4.3l490.9-3.7 c0.1-0.1,41.9-0.1,42,0L1592.9,4.7z"></path> <path class="st40" d="M1563.8,11.6c0.3,0.2,0.3,32.9,0,33.1l-8.4,389l-9.1,421.9l-214.2,3.3l-555,8.6l-474.9,7.4 c-0.3,0.2-40.5,0.2-40.7,0L7.6,871c-0.3-0.2-0.3-32.9,0-33.1l8.4-389L25.2,27l214.2-3.3l555-8.6l474.9-7.4c0.3-0.2,40.5-0.2,40.7,0 L1563.8,11.6z"></path> <path class="st41" d="M1534.7,18.5c0.4,0.3,0.4,31.7,0,32L1522,425.1l-13.7,406.3l-207,5.1L765,849.4l-458.8,11.1 c-0.4,0.3-39,0.3-39.5,0l-245.2-6c-0.4-0.3-0.4-31.7,0-32l12.6-374.6L47.9,41.6l207-5l536.3-12.9L1250,12.6c0.4-0.3,39-0.3,39.5,0 L1534.7,18.5z"></path> <path class="st42" d="M1505.5,25.4c0.6,0.4,0.6,30.5,0,30.9l-16.8,360.3l-18.2,390.7l-199.8,6.7l-517.6,17.2l-442.9,14.8 c-0.6,0.4-37.6,0.4-38.1,0L35.5,838c-0.6-0.4-0.6-30.5,0-30.9l16.8-360.3L70.6,56.2l199.8-6.7l517.5-17.3l442.8-14.8 c0.6-0.4,37.6-0.4,38.1,0L1505.5,25.4z"></path> <path class="st43" d="M1476.4,32.2c0.7,0.5,0.7,29.3,0,29.8l-21.1,345.9l-22.8,375.1l-192.5,8.3L741.1,813l-426.8,18.4 c-0.7,0.5-36.1,0.5-36.8,0l-228.2-9.8c-0.7-0.5-0.7-29.3,0-29.8l21.1-345.9L93.2,70.7l192.5-8.3l498.9-21.6l426.8-18.5 c0.7-0.5,36.1-0.5,36.8,0L1476.4,32.2z"></path> <path class="st44" d="M1447.3,39.1c0.8,0.6,0.8,28.1,0,28.7L1422,399.3l-27.4,359.6l-185.3,10l-480.1,25.9l-410.8,22.1 c-0.8,0.6-34.7,0.6-35.5,0L63.3,805.1c-0.8-0.6-0.8-28.1,0-28.7l25.3-331.6l27.4-359.6l185.3-10l480.1-25.9l410.8-22.1 c0.8-0.6,34.7-0.6,35.5,0L1447.3,39.1z"></path> <path class="st45" d="M1418.1,46c1,0.7,1,26.9,0,27.6l-29.5,317.2l-32,344l-178.1,11.6l-461.4,30.2l-394.8,25.8 c-1,0.7-33.2,0.7-34.2,0l-211-13.8c-1-0.7-1-26.9,0-27.6l29.5-317.2l32-344l178.1-11.7L778.1,58L1173,32.2c1-0.7,33.2-0.7,34.2,0 L1418.1,46z"></path> <path class="st25" d="M1389.1,52.9c1.1,0.8,1.1,25.7,0,26.5l-33.6,302.8l-36.5,328.4L1148,723.9l-442.7,34.5l-378.8,29.5 c-1.1,0.8-31.8,0.8-32.9,0L91.1,772.1c-1.1-0.8-1.1-25.7,0-26.5l33.7-302.8l36.5-328.4l170.9-13.3l442.7-34.5l378.8-29.5 c1.1-0.8,31.8-0.8,32.9,0L1389.1,52.9z"></path> <path class="st46" d="M1360,59.7c1.3,0.9,1.3,24.5,0,25.4L1322,373.6l-41.1,312.8l-163.6,15l-424,38.8l-362.7,33.2 c-1.3,0.9-30.4,0.9-31.6,0l-194-17.7c-1.3-0.9-1.3-24.5,0-25.4l37.9-288.5L184,129l163.6-15l424.1-38.8L1134.5,42 c1.3-0.9,30.4-0.9,31.6,0L1360,59.7z"></path> <path class="st47" d="M1330.8,66.6c1.4,1,1.4,23.3,0,24.3L1288.7,365l-45.6,297.2l-156.4,16.6L681.4,722l-346.7,36.9 c-1.4,1-28.9,1-30.4,0l-185.3-19.7c-1.4-1-1.4-23.3,0-24.3L161,440.8l45.6-297.3l156.4-16.6l405.3-43.1l346.8-36.9 c1.4-1,28.9-1,30.4,0L1330.8,66.6z"></path> <path class="st48" d="M1301.7,73.5c1.5,1.1,1.5,22.1,0,23.2l-46.3,259.7l-50.2,281.7L1056,656.4l-386.5,47.4l-330.7,40.6 c-1.5,1.1-27.5,1.1-29,0l-176.8-21.7c-1.5-1.1-1.5-22,0-23.2l46.3-259.7l50.3-281.7l149.2-18.3l386.6-47.4l330.7-40.6 c1.5-1.1,27.5-1.1,29,0L1301.7,73.5z"></path> <path class="st49" d="M1272.6,80.4c1.7,1.2,1.7,20.8,0,22.1l-50.5,245.4l-54.8,266.1l-142,20l-367.9,51.7l-314.7,44.3 c-1.7,1.2-26.1,1.2-27.7,0l-168.2-23.7c-1.7-1.2-1.7-20.8,0-22.1l50.5-245.4l54.8-266.1l142-20L761.9,101l314.7-44.3 c1.7-1.2,26.1-1.2,27.8,0L1272.6,80.4z"></path> <path class="st50" d="M1243.5,87.2c1.8,1.3,1.8,19.6,0,21l-54.7,231l-59.3,250.5l-134.8,21.6l-349.1,56.1l-298.7,48 c-1.8,1.3-24.6,1.3-26.4,0l-159.7-25.6c-1.8-1.3-1.8-19.6,0-21l54.8-231l59.3-250.6l134.8-21.6l349.2-56.1l298.7-48 c1.8-1.3,24.6-1.3,26.4,0L1243.5,87.2z"></path> <path class="st51" d="M1214.4,94.1c2,1.4,2,18.4,0,19.8l-58.9,216.7l-63.9,234.9L964,588.8l-330.4,60.4l-282.7,51.7 c-2,1.4-23.2,1.4-25.2,0l-151.1-27.6c-2-1.4-2-18.4,0-19.8l58.9-216.6l63.9-234.9l127.5-23.3l330.5-60.5l282.7-51.7 c2-1.4,23.2-1.4,25.2,0L1214.4,94.1z"></path> <path class="st52" d="M1185.3,101c2.1,1.5,2.1,17.2,0,18.7L1122.1,322l-68.5,219.4l-120.3,25L621.6,631l-266.7,55.4 c-2.1,1.5-21.8,1.5-23.9,0l-142.5-29.6c-2.1-1.5-2.1-17.2,0-18.7l63.2-202.2l68.5-219.4l120.3-25l311.7-64.7l266.7-55.4 c2.1-1.5,21.8-1.5,23.9,0L1185.3,101z"></path> <path class="st12" d="M1156.1,107.9c2.2,1.6,2.2,16,0,17.6l-67.3,187.9l-73,203.8l-113.1,26.6l-293,69.1l-250.7,59 c-2.2,1.6-20.3,1.6-22.6,0l-134-31.6c-2.2-1.6-2.2-16,0-17.6l67.4-187.9l73-203.8l113.1-26.6l293-69l250.7-59.1 c2.2-1.6,20.3-1.6,22.6,0L1156.1,107.9z"></path> <path class="st53" d="M1127,114.7c2.4,1.7,2.4,14.8,0,16.5l-71.6,173.5L977.8,493L872,521.3l-274.3,73.3l-234.7,62.7 c-2.4,1.7-18.9,1.7-21.2,0l-125.4-33.5c-2.4-1.7-2.4-14.8,0-16.5l71.6-173.5l77.6-188.2l105.9-28.3L745.6,144l234.7-62.7 c2.4-1.7,18.9-1.7,21.2,0L1127,114.7z"></path> <path class="st54" d="M1097.9,121.6c2.5,1.8,2.5,13.6,0,15.4l-75.8,159.2l-82.2,172.6l-98.6,30l-255.6,77.7L367,642.9 c-2.5,1.8-17.5,1.8-20,0l-116.8-35.5c-2.5-1.8-2.5-13.6,0-15.4L306,432.8l82.2-172.6l98.6-30l255.6-77.7l218.7-66.4 c2.5-1.8,17.5-1.8,20,0L1097.9,121.6z"></path> <path class="st55" d="M1068.8,128.5c2.7,1.9,2.7,12.4,0,14.3l-80,144.8l-86.7,157l-91.4,31.6l-236.9,81.9l-202.7,70.1 c-2.7,1.9-16,1.9-18.7,0l-108.3-37.5c-2.7-1.9-2.7-12.4,0-14.3l80-144.8l86.7-157l91.4-31.6l236.9-81.9L941.8,91 c2.7-1.9,16-1.9,18.7,0L1068.8,128.5z"></path> <path class="st56" d="M1039.7,135.4c2.8,2,2.8,11.2,0,13.2L955.5,279l-91.3,141.5L780,453.8L561.8,540l-186.7,73.9 c-2.8,2-14.6,2-17.4,0L258,574.4c-2.8-2-2.8-11.2,0-13.2l84.2-130.4l91.3-141.5l84.2-33.3l218.1-86.2l186.7-73.9 c2.8-2,14.6-2,17.4,0L1039.7,135.4z"></path> <path class="st57" d="M1010.6,142.2c2.9,2.1,2.9,10,0,12.1l-88.4,116.1l-95.8,125.9l-77,34.9l-199.4,90.5l-170.7,77.5 c-2.9,2.1-13.2,2.1-16.1,0l-91.2-41.4c-2.9-2.1-2.9-10,0-12.1l88.5-116l95.9-125.9l77-35l199.4-90.6l170.7-77.5 c2.9-2.1,13.2-2.1,16.1,0L1010.6,142.2z"></path> <path class="st58" d="M981.4,149.1c3,2.2,3,8.8,0,11l-92.6,101.7L788.4,372.1l-69.7,36.6l-180.7,94.9l-154.6,81.2 c-3,2.2-11.7,2.2-14.8,0l-82.6-43.4c-3-2.2-3-8.8,0-11l92.6-101.7l100.4-110.3l69.7-36.6L729.4,187L884,105.7 c3-2.2,11.7-2.2,14.8,0L981.4,149.1z"></path> <path class="st59" d="M952.3,156c2.7,2.2,3.2,6.1,1.1,8.9c-0.3,0.4-0.7,0.7-1.1,1.1l-96.8,87.4l-105,94.7L688,386.3l-162,99.2 l-138.6,84.9c-3.2,2.3-10.3,2.3-13.5,0L299.7,525c-2.7-2.1-3.2-6.1-1.1-8.8c0.3-0.4,0.7-0.8,1.1-1.1l96.8-87.4l105-94.7l62.5-38.3 l162-99.1l138.6-84.9c3.2-2.3,10.3-2.3,13.5,0L952.3,156z"></path> <path d="M857.7,115.5l65.5,47.3c3.3,2.4,3.3,6.4,0,8.8L657.3,363.8L391.4,555.9c-3.7,2.4-8.5,2.4-12.2,0l-65.5-47.3 c-3.3-2.4-3.3-6.4,0-8.8l265.9-192.1l266-192.1C849.2,113.1,854,113.1,857.7,115.5z"></path> </g> <g> <polygon class="st60" points="1168.7,275 1168.7,589.5 1168.7,746.7 1168.7,903.9 757,903.9 345.2,903.9 345.2,746.7 345.2,589.5 345.2,275 757,275 "></polygon> <path class="st61" d="M354.8,280.3l82.6-0.5c0.2-0.3,120.3-0.3,120.6,0l200,1.2l307.8,1.8l95.2,0.6l1.8,307.8l0.6,104.7 c0.1,0.1,0.2,49.1,0.2,49.2s0,71.2-0.2,71.4l-0.5,82.7c-0.3,0.3-136.1,0.3-136.3,0L760,897.7l-307.7-1.5l-95-0.5l-0.8-153.8 l-0.8-153.8l-0.9-171.5C354.5,416.4,354.5,280.5,354.8,280.3z"></path> <path class="st62" d="M364.3,285.5l80.8-1c0.5-0.5,117.6-0.5,118.1,0l195.7,2.4l301.1,3.6l93.2,1.1l3.6,301.1l1.3,102.5 c0.2,0.2,0.3,48,0.4,48.2c0,0.3-0.1,69.6-0.4,69.9l-1,80.9c-0.5,0.5-133,0.5-133.5,0L763,891.5l-300.8-3.2l-92.9-1L367.7,737 l-1.6-150.4L364.3,419C363.8,418.5,363.8,286,364.3,285.5z"></path> <path class="st63" d="M373.9,290.8l79.1-1.5c0.7-0.7,115-0.7,115.7,0l191.3,3.6l294.4,5.5l91.1,1.7l5.5,294.4l1.9,100.2 c0.3,0.3,0.5,46.8,0.5,47.2c0.1,0.6-0.1,68.1-0.5,68.5l-1.5,79.1c-0.7,0.7-129.9,0.7-130.6,0l-254.6-4.1l-293.9-4.8l-90.8-1.5 L379,732.1l-2.4-146.9l-2.7-163.8C373.1,420.7,373.1,291.5,373.9,290.8z"></path> <path class="st64" d="M383.4,296.1l77.3-2c1-1,112.3-1,113.3,0l187,4.7l287.7,7.3l89,2.3l7.3,287.8l2.5,97.9 c0.4,0.4,0.6,45.7,0.7,46.2c0.1,0.8-0.1,66.5-0.7,67.1l-2,77.3c-1,1-126.8,1-127.8,0l-248.7-5.6l-287-6.4l-88.6-2l-3.2-143.5 L387,583.7l-3.6-159.9C382.4,422.9,382.4,297.1,383.4,296.1z"></path> <path class="st65" d="M393,301.3l75.5-2.4c1.2-1.3,109.6-1.3,110.9,0l182.6,5.9l281,9.1l87,2.8l9.1,281.1l3.1,95.7 c0.5,0.5,0.8,44.6,0.9,45.2c0.1,1-0.2,64.9-0.9,65.7l-2.4,75.5c-1.2,1.3-123.7,1.3-124.9,0l-242.7-7L492,864.8l-86.5-2.5l-4-140 l-4-140l-4.5-156.1C391.7,425,391.7,302.6,393,301.3z"></path> <path class="st66" d="M402.5,306.6l73.7-2.9c1.5-1.5,107-1.5,108.5,0l178.3,7.1l274.4,10.9l84.9,3.4l10.9,274.4l3.7,93.4 c0.6,0.6,1,43.5,1.1,44.2c0.2,1.2-0.2,63.4-1.1,64.3l-2.9,73.7c-1.5,1.5-120.6,1.5-122.1,0l-236.7-8.4L501.9,857l-84.4-3 l-4.8-136.6l-4.8-136.6l-5.4-152.1C401,427.2,401,308.1,402.5,306.6z"></path> <path class="st67" d="M412,311.9l71.9-3.4c1.7-1.8,104.3-1.8,106.1,0l174,8.3l267.7,12.7l82.8,4l12.7,267.7l4.3,91.1 c0.7,0.7,1.1,42.3,1.3,43.2c0.2,1.4-0.2,61.8-1.3,62.8l-3.4,71.9c-1.7,1.8-117.5,1.8-119.2,0l-230.7-9.8l-266.4-11.3l-82.3-3.5 L424,712.6l-5.6-133.1L412,431.1C410.3,429.4,410.3,313.6,412,311.9z"></path> <path class="st68" d="M421.6,317.2l70.1-3.9c2-2,101.7-2,103.6,0l169.6,9.5l261,14.6l80.8,4.5l14.6,261l5,88.8 c0.8,0.8,1.3,41.2,1.4,42.3c0.2,1.5-0.3,60.2-1.4,61.4l-3.9,70.1c-2,2-114.3,2-116.3,0l-224.8-11.1l-259.5-12.9l-80.1-3.9 l-6.4-129.7l-6.4-129.7l-7.2-144.6C419.6,431.5,419.6,319.2,421.6,317.2z"></path> <path class="st69" d="M431.1,322.4l68.3-4.4c2.2-2.2,99-2.2,101.2,0L766,328.7l254.3,16.4l78.7,5.1l16.4,254.4l5.6,86.6 c0.9,0.9,1.5,40.1,1.6,41.3c0.2,1.8-0.3,58.7-1.6,60l-4.4,68.3c-2.2,2.2-111.3,2.2-113.5,0l-218.8-12.5l-252.6-14.5l-78-4.5 l-7.2-126.2l-7.2-126.2L431.1,436C428.9,433.7,428.9,324.7,431.1,322.4z"></path> <path class="st70" d="M440.7,327.7l66.5-4.9c2.5-2.5,96.3-2.5,98.8,0l160.9,11.9l247.7,18.2l76.6,5.6l18.2,247.7l6.2,84.3 c1,1,1.6,38.9,1.8,40.3c0.3,1.9-0.3,57.1-1.8,58.6l-4.9,66.5c-2.5,2.5-108.1,2.5-110.6,0l-212.8-14l-245.7-16.1l-75.9-5l-8-122.8 l-8.1-122.8l-9-136.9C438.2,435.8,438.2,330.2,440.7,327.7z"></path> <path class="st71" d="M450.2,333l64.7-5.4c2.7-2.7,93.7-2.7,96.4,0l156.6,13l241,20l74.6,6.2l20,241l6.8,82 c1.1,1.1,1.8,37.8,2,39.3c0.3,2.1-0.4,55.5-2,57.1l-5.4,64.7c-2.8,2.8-105,2.8-107.8,0l-206.8-15.4L551.6,818l-73.7-5.5L469,693.1 l-8.9-119.4l-9.9-133C447.5,438,447.5,335.7,450.2,333z"></path> <path class="st72" d="M459.8,338.2l62.9-5.9c3-3,91-3,94,0L769,346.5l234.3,21.9l72.5,6.8l21.9,234.3l7.4,79.7 c1.2,1.2,1.9,36.7,2.2,38.3c0.3,2.3-0.4,53.9-2.2,55.7l-5.9,62.9c-3,3-101.9,3-104.9,0l-200.9-16.7l-231.9-19.3l-71.6-6l-9.7-115.9 l-9.7-115.9l-10.8-129.2C456.8,440.2,456.8,341.2,459.8,338.2z"></path> <path class="st73" d="M469.3,343.5l61.1-6.4c3.2-3.2,88.3-3.2,91.6,0l147.9,15.4l227.6,23.7l70.5,7.3l23.7,227.6l8.1,77.5 c1.3,1.3,2.1,35.6,2.3,37.3c0.4,2.5-0.4,52.4-2.3,54.3l-6.4,61.2c-3.2,3.2-98.8,3.2-102.1,0l-194.9-18.1l-225-21l-69.5-6.5 l-10.5-112.5L481,571l-11.7-125.4C466.1,442.4,466.1,346.8,469.3,343.5z"></path> <path class="st74" d="M478.9,348.8l59.3-6.8c3.5-3.5,85.6-3.5,89.2,0l143.6,16.6l221,25.5l68.4,7.9l25.5,220.9l8.7,75.2 c1.4,1.4,2.3,34.4,2.5,36.3c0.4,2.7-0.5,50.8-2.5,52.9l-6.8,59.3c-3.5,3.5-95.7,3.5-99.2,0l-189-19.5l-218.1-22.5l-67.4-7 l-11.3-109l-11.3-109L478.9,448C475.4,444.5,475.4,352.3,478.9,348.8z"></path> <path class="st75" d="M488.4,354.1l57.5-7.3c3.7-3.7,83-3.7,86.7,0l139.3,17.8l214.3,27.3l66.3,8.5l27.3,214.3l9.3,72.9 c1.5,1.5,2.4,33.3,2.7,35.3c0.4,2.9-0.5,49.2-2.7,51.5l-7.3,57.6c-3.7,3.7-92.6,3.7-96.4,0l-183-20.9l-211.2-24.2l-65.2-7.5 L514,673.7l-12.1-105.6l-13.5-117.7C484.7,446.7,484.7,357.8,488.4,354.1z"></path> <path class="st76" d="M498,359.3l55.7-7.8c4-4,80.3-4,84.3,0l134.9,18.9l207.6,29.1l64.3,9l29.1,207.6l9.9,70.6 c1.6,1.6,2.6,32.2,2.9,34.3c0.4,3.1-0.5,47.7-2.9,50l-7.8,55.8c-4,4-89.5,4-93.5,0l-177-22.3l-204.3-25.8l-63.1-8l-12.9-102.1 l-12.9-102.1L498,452.9C494,448.9,494,363.3,498,359.3z"></path> <path class="st77" d="M507.5,364.6l54-8.3c4.2-4.2,77.7-4.2,81.9,0l130.6,20.1l200.9,31l62.2,9.6l30.9,201l10.5,68.4 c1.7,1.7,2.7,31,3,33.3c0.5,3.3-0.6,46.1-3,48.6l-8.3,54c-4.2,4.2-86.4,4.2-90.7,0l-171-23.7l-197.4-27.4l-61-8.5L536.5,664 l-13.7-98.7l-15.3-110C503.3,451,503.3,368.8,507.5,364.6z"></path> <path class="st78" d="M517.1,369.9l52.2-8.8c4.5-4.5,75-4.5,79.5,0l126.2,21.3l194.2,32.8l60.1,10.2l32.8,194.2l11.1,66.1 c1.8,1.8,2.9,29.9,3.3,32.3c0.5,3.5-0.6,44.5-3.3,47.2l-8.8,52.2c-4.5,4.5-83.3,4.5-87.8,0l-165-25.1l-190.5-29l-58.9-9l-14.5-95.2 l-14.5-95.2L517,457.7C512.6,453.2,512.6,374.4,517.1,369.9z"></path> <path class="st79" d="M526.6,375.1l50.4-9.3c4.7-4.7,72.3-4.7,77.1,0l121.9,22.5l187.6,34.6l58.1,10.7l34.6,187.6l11.8,63.8 c1.9,1.9,3,28.8,3.4,31.3c0.5,3.7-0.6,43-3.4,45.8l-9.3,50.4c-4.7,4.7-80.2,4.7-85,0L814.6,786l-183.6-30.6l-56.7-9.4l-15.3-91.8 l-15.3-91.8l-17-102.3C521.9,455.4,521.9,379.9,526.6,375.1z"></path> <path class="st80" d="M536.2,380.4l48.6-9.8c5-5,69.7-5,74.7,0l117.6,23.7l180.9,36.4l56,11.3l36.4,180.9l12.4,61.6 c2,2,3.2,27.7,3.6,30.4c0.5,3.9-0.7,41.4-3.6,44.4l-9.8,48.6c-5,5-77.1,5-82.1,0l-153.1-28l-176.7-32.2l-54.6-10l-16.1-88.4 L554.1,561l-17.9-98.4C531.2,457.5,531.2,385.4,536.2,380.4z"></path> <path class="st81" d="M545.7,385.7l46.8-10.3c5.2-5.2,67-5.2,72.2,0l113.2,24.9l174.2,38.2l53.9,11.8l38.2,174.2l13,59.3 c2.1,2.1,3.4,26.5,3.8,29.3c0.6,4-0.7,39.8-3.8,42.9l-10.3,46.8c-5.2,5.2-74,5.2-79.2,0l-147.2-29.3l-169.8-33.8l-52.5-10.5 l-16.9-84.9l-16.9-84.9l-18.8-94.6C540.5,459.7,540.5,390.9,545.7,385.7z"></path> <path class="st82" d="M555.2,391l45-10.8c5.5-5.5,64.3-5.5,69.8,0l108.9,26.1l167.5,40.1l51.8,12.4l40.1,167.5l13.6,57 c2.2,2.2,3.6,25.4,4,28.3c0.6,4.3-0.7,38.3-4,41.5l-10.8,45c-5.5,5.5-70.9,5.5-76.4,0l-141.1-30.7l-163-35.4l-50.3-10.9l-17.7-81.5 L575,558.1l-19.7-90.8C549.7,461.9,549.7,396.5,555.2,391z"></path> <path class="st83" d="M564.8,396.2L608,385c5.7-5.7,61.7-5.7,67.4,0l104.5,27.2l160.9,41.9l49.8,13l41.9,160.9l14.2,54.8 c2.3,2.3,3.7,24.3,4.1,27.3c0.6,4.5-0.7,36.7-4.1,40.1l-11.2,43.2c-5.7,5.7-67.8,5.7-73.5,0l-135.2-32.1l-156.1-37.1l-48.2-11.4 l-18.5-78l-18.5-78l-20.6-87C559,464,559,402,564.8,396.2z"></path> <path class="st84" d="M574.3,401.5l41.4-11.7c6-6,59-6,65,0l100.2,28.4l154.2,43.7l47.7,13.5l43.7,154.2l14.9,52.5 c2.4,2.4,3.9,23.1,4.3,26.3c0.7,4.6-0.8,35.1-4.3,38.7l-11.8,41.4c-6,6-64.7,6-70.7,0L829.8,755l-149.1-38.6l-46.1-11.9l-19.3-74.6 l-19.3-74.6l-21.5-83.1C568.3,466.2,568.3,407.5,574.3,401.5z"></path> <path class="st85" d="M583.9,406.8l39.6-12.2c6.2-6.2,56.3-6.2,62.6,0l95.9,29.6l147.5,45.5l45.7,14.1l45.5,147.5l15.5,50.2 c2.5,2.5,4,22,4.5,25.3c0.7,4.8-0.8,33.5-4.5,37.2l-12.2,39.6c-6.2,6.2-61.6,6.2-67.8,0l-123.3-34.8l-142.3-40.2l-44-12.4 L626.4,625l-20.1-71.1l-22.4-79.3C577.6,468.4,577.6,413,583.9,406.8z"></path> <path class="st86" d="M593.4,412l37.8-12.7c6.5-6.5,53.6-6.5,60.1,0l91.5,30.8l140.8,47.3l43.6,14.7l47.3,140.8l16.1,47.9 c2.6,2.6,4.2,20.9,4.7,24.3c0.7,5.1-0.8,32-4.7,35.8l-12.7,37.8c-6.5,6.5-58.5,6.5-65,0l-117.3-36.2l-135.4-41.9l-41.8-12.9 l-20.9-67.7l-20.9-67.7L593.4,477C586.9,470.5,586.9,418.5,593.4,412z"></path> <path class="st87" d="M603,417.3l36-13.2c6.7-6.7,51-6.7,57.7,0l87.2,32l134.1,49.1l41.5,15.2l49.2,134.2l16.7,45.7 c2.7,2.7,4.4,19.7,4.9,23.3c0.7,5.2-0.9,30.4-4.9,34.4l-13.2,36c-6.7,6.7-55.4,6.7-62.1,0l-111.3-37.7l-128.5-43.5l-39.7-13.4 L649,615.2L627.2,551l-24.3-71.6C596.2,472.7,596.2,424.1,603,417.3z"></path> <path class="st88" d="M612.5,422.6l34.2-13.7c7-7,48.3-7,55.3,0l82.9,33.2l127.5,51l39.5,15.8l51,127.5l17.4,43.3 c2.8,2.8,4.5,18.6,5.1,22.3c0.8,5.4-0.9,28.8-5.1,33l-13.7,34.2c-7,7-52.3,7-59.3,0l-105.4-39l-121.6-45.1l-37.6-13.9l-22.5-60.8 l-22.5-60.8l-25.1-67.8C605.5,474.9,605.5,429.6,612.5,422.6z"></path> <path class="st89" d="M622.1,427.9l32.4-14.2c7.2-7.2,45.7-7.2,52.9,0l78.5,34.3l120.8,52.8l37.4,16.4L996.9,638l18,41.1 c2.9,2.9,4.7,17.5,5.2,21.3c0.8,5.6-0.9,27.3-5.2,31.6l-14.2,32.4c-7.2,7.2-49.2,7.2-56.4,0L844.9,724l-114.8-46.7l-35.4-14.4 l-23.3-57.3l-23.3-57.3l-26-63.9C614.9,477,614.9,435.1,622.1,427.9z"></path> <path class="st90" d="M631.6,433.1l30.6-14.7c7.5-7.5,43-7.5,50.5,0l74.2,35.5L901,508.6l35.3,16.9L991,639.7l18.6,38.8 c3,3,4.8,16.4,5.4,20.3c0.8,5.8-1,25.7-5.4,30.1l-14.7,30.7c-7.5,7.5-46.1,7.5-53.5,0L848,717.8l-107.8-48.3l-33.3-15l-24.2-53.9 l-24.1-53.9l-26.9-60.1C624.1,479.2,624.1,440.6,631.6,433.1z"></path> <path class="st91" d="M641.2,438.4l28.8-15.2c7.7-7.7,40.3-7.7,48.1,0l69.8,36.7l107.4,56.4l33.3,17.5L985,641.3l19.2,36.6 c3.1,3.1,5.1,15.2,5.6,19.4c0.9,6-1,24.1-5.6,28.7l-15.2,28.9c-7.7,7.7-43,7.7-50.7,0L851,711.6l-100.9-49.9l-31.2-15.4l-24.9-50.5 L669,545.4l-27.8-56.3C633.4,481.4,633.4,446.1,641.2,438.4z"></path> <path class="st92" d="M650.7,443.7l27.1-15.7c8-8,37.7-8,45.6,0l65.5,37.9l100.8,58.3l31.2,18.1L979.1,643l19.8,34.3 c3.2,3.2,5.2,14.2,5.8,18.4c0.9,6.2-1,22.6-5.8,27.3L983.3,750c-8,8-39.9,8-47.8,0L854,705.4l-94-51.5l-29.1-15.9l-25.8-47 l-25.8-47l-28.7-52.4C642.7,483.5,642.7,451.7,650.7,443.7z"></path> <path class="st93" d="M660.2,449l25.3-16.1c8.2-8.2,35-8.2,43.2,0l61.1,39l94.1,60.1l29.1,18.6l60.1,94.1l20.4,32 c3.3,3.3,5.3,13,6,17.4c0.9,6.4-1.1,21-6,25.9l-16.1,25.3c-8.2,8.2-36.8,8.2-45,0l-75.5-46L769.9,646L743,629.6l-26.6-43.5 l-26.6-43.6L660.2,494C652,485.7,652,457.2,660.2,449z"></path> <path class="st94" d="M669.8,454.2l23.5-16.6c8.5-8.5,32.4-8.5,40.8,0l56.8,40.3l87.4,61.9l27.1,19.2l61.9,87.4l21.1,29.7 c3.4,3.4,5.5,11.9,6.1,16.4c1,6.6-1.1,19.4-6.1,24.5l-16.6,23.4c-8.5,8.5-33.7,8.5-42.1,0l-69.5-47.4l-80.2-54.7L755,621.3 l-27.3-40.1L700.4,541l-30.5-44.7C661.3,487.9,661.3,462.7,669.8,454.2z"></path> <path class="st95" d="M679.3,459.5l21.7-17.1c8.7-8.7,29.7-8.7,38.4,0l52.5,41.5l80.7,63.7l25,19.8l63.7,80.7l21.7,27.5 c3.6,3.5,5.7,10.7,6.3,15.4c1,6.8-1.1,17.8-6.3,23l-17.1,21.6c-8.7,8.7-30.5,8.7-39.3,0l-63.5-48.8l-73.4-56.4L767.1,613 l-28.2-36.7l-28.2-36.7l-31.4-40.9C670.6,490,670.6,468.2,679.3,459.5z"></path> <path class="st96" d="M688.9,464.8l19.9-17.6c9-9,27-9,36,0l48.2,42.6l74,65.5l23,20.3l65.5,74.1l22.3,25.2 c3.7,3.7,5.8,9.6,6.5,14.4c1,7-1.2,16.3-6.5,21.6l-17.6,19.9c-9,9-27.4,9-36.4,0l-57.6-50.2l-66.5-58l-20.5-17.9l-29-33.2l-29-33.2 l-32.3-37C679.9,492.2,679.9,473.7,688.9,464.8z"></path> <path d="M972.5,707.9L954.4,726c-9.3,9.2-24.3,9.2-33.6,0L809.6,614.8L698.4,503.6c-9.2-9.3-9.2-24.3,0-33.6l18.1-18.1 c9.3-9.2,24.3-9.2,33.6,0l111.2,111.2l111.2,111.2C981.7,683.6,981.7,698.6,972.5,707.9z"></path> </g> <g class="st97"> <path class="st98" d="M51.2,8.3h782.5c34.1,0,61.7,27.6,61.7,61.7v568.5c0,34.1-27.6,61.7-61.7,61.7H51.2 c-34.1,0-61.7-27.6-61.7-61.7V70C-10.5,35.9,17.2,8.3,51.2,8.3z"></path> <path class="st99" d="M59.4,19.9l236.2-0.6h1c0.2-0.2,255.3-0.3,255.6-0.3c0.3,0,261.8,0.1,262,0.4c32.9,0.1,59.5,26.8,59.7,59.7 l0.2,56.8c0.2,0.2,0.4,170.6,0.4,171s-0.1,170.7-0.4,171l-0.6,150.5c-0.1,32.9-26.7,59.5-59.6,59.5c-0.2,0.1-200.3,0.2-200.5,0.2 c-0.2,0-294.3-0.1-294.5-0.4l-259.5-0.6c-32.8-0.1-59.4-26.7-59.5-59.5c-0.2-0.2-0.2-273.8-0.2-274.1s0-273.8,0.2-274 C0,46.5,26.5,19.9,59.4,19.9z"></path> <path class="st100" d="M67.5,31.4l227.4-1.3h0.9c0.5-0.4,245.6-0.7,246.3-0.7c0.6,0,252,0.3,252.5,0.7c31.5,0,57.7,26.3,57.7,57.7 l0.5,54.8c0.5,0.5,0.7,164.3,0.7,165c0,0.7-0.3,164.6-0.7,165.1l-1.2,145.2c-0.2,31.6-25.8,57.2-57.4,57.3 c-0.4,0.2-192.7,0.4-193.2,0.4c-0.7,0-283.2-0.3-283.6-0.7l-249.7-1.3c-31.6-0.1-57.2-25.7-57.3-57.3C10,615.9,9.9,353,9.9,352.5 c0-0.5,0.1-263.3,0.4-263.7C10.4,57.2,35.9,31.6,67.5,31.4z"></path> <path class="st101" d="M75.7,43l218.6-1.9h0.9c0.7-0.7,236-1,237-1s242.2,0.4,242.9,1.1c30.1,0,55.7,25.6,55.7,55.7l0.7,52.8 c0.7,0.7,1.1,158.1,1.1,159.1c0,1-0.4,158.4-1.1,159.1l-1.8,139.7c-0.3,30.4-24.9,55-55.3,55.1c-0.6,0.3-185.1,0.5-185.8,0.5 c-1,0-272.1-0.4-272.8-1.1l-240-1.8c-30.4-0.2-54.9-24.8-55-55.1c-0.4-0.6-0.6-252.8-0.6-253.6c0-0.7,0.2-252.9,0.6-253.5 C20.8,67.8,45.3,43.2,75.7,43z"></path> <path class="st102" d="M83.8,54.5l209.8-2.5h0.9c0.9-0.9,226.3-1.4,227.6-1.4c1.3,0,232.4,0.5,233.3,1.5 c28.8,0,53.7,24.9,53.7,53.7l0.9,50.7c0.9,0.9,1.4,151.8,1.4,153.2c0,1.3-0.5,152.3-1.4,153.2l-2.4,134.3 c-0.4,29.2-24,52.7-53.1,53c-0.8,0.4-177.5,0.7-178.4,0.7c-1.3,0-261-0.5-261.9-1.5L83.9,647c-29.1-0.3-52.6-23.8-52.8-53 c-0.5-0.8-0.8-242.3-0.8-243.3c0-1,0.3-242.4,0.8-243.2C31.2,78.4,54.7,54.8,83.8,54.5z"></path> <path class="st103" d="M92,66.1L293,63h0.8c1.2-1.1,216.7-1.7,218.3-1.7c1.6,0,222.6,0.6,223.7,1.8c27.5,0,51.7,24.2,51.7,51.7 l1.1,48.7c1.2,1.2,1.8,145.6,1.8,147.2c0,1.7-0.6,146.1-1.8,147.3l-3,128.9c-0.4,28-23.1,50.5-51.1,50.8c-1,0.6-170,0.9-171.1,0.9 c-1.7,0-249.9-0.6-251.1-1.8l-220.5-3c-27.9-0.4-50.3-22.9-50.6-50.8c-0.7-1-1-231.8-1-233.1c0-1.2,0.4-232,1-233 C41.6,89,64.1,66.5,92,66.1z"></path> <path class="st104" d="M100.1,77.7L292.3,74h0.8c1.4-1.3,207-2.1,209-2.1c1.9,0,212.8,0.8,214.2,2.2c26.2,0,49.7,23.5,49.7,49.7 l1.4,46.7c1.4,1.4,2.2,139.3,2.2,141.3s-0.8,139.9-2.2,141.3l-3.6,123.5c-0.5,26.7-22.2,48.2-48.9,48.6c-1.1,0.7-162.4,1-163.7,1 c-2,0-238.8-0.8-240.2-2.2l-210.8-3.6c-26.6-0.4-48.1-21.9-48.4-48.6c-0.8-1.2-1.2-221.3-1.2-222.8s0.4-221.6,1.2-222.8 C52.1,99.7,73.5,78.1,100.1,77.7z"></path> <path class="st105" d="M108.3,89.2l183.4-4.4h0.7c1.6-1.6,197.4-2.4,199.6-2.4c2.3,0,203,0.9,204.6,2.5c24.9,0,47.7,22.8,47.7,47.7 l1.6,44.6c1.6,1.6,2.5,133.1,2.5,135.4c0,2.3-0.9,133.8-2.5,135.4l-4.2,118.2c-0.6,25.5-21.3,46-46.8,46.4 c-1.3,0.8-154.8,1.2-156.3,1.2c-2.3,0-227.6-0.9-229.3-2.5l-201-4.2c-25.4-0.5-45.8-21-46.2-46.4c-0.9-1.4-1.4-210.8-1.4-212.6 s0.5-211.1,1.4-212.5C62.4,110.3,82.9,89.7,108.3,89.2z"></path> <path class="st106" d="M116.4,100.8l174.6-5h0.7C293.6,94,479.4,93,482,93s193.2,1,195,2.9c23.6,0,45.7,22.1,45.7,45.7l1.8,42.6 c1.9,1.9,2.9,126.8,2.9,129.5c0,2.7-1,127.6-2.9,129.5L719.8,556c-0.7,24.3-20.4,43.8-44.7,44.2c-1.5,0.9-147.2,1.4-149,1.4 c-2.7,0-216.6-1-218.4-2.9l-191.2-4.9c-24.2-0.6-43.6-20.1-44-44.2c-1.1-1.6-1.6-200.3-1.6-202.3s0.6-200.6,1.6-202.3 C72.9,120.9,92.3,101.3,116.4,100.8z"></path> <path class="st107" d="M124.6,112.3l165.8-5.6h0.7c2.1-2,178.1-3.1,181-3.1c2.9,0,183.4,1.2,185.5,3.3c22.3,0,43.7,21.5,43.7,43.7 l2,40.6c2.1,2.1,3.3,120.6,3.3,123.5c0,3-1.2,121.5-3.3,123.6l-5.4,107.4c-0.8,23.1-19.4,41.5-42.5,42.1 c-1.7,1-139.6,1.6-141.6,1.6c-3,0-205.5-1.2-207.6-3.3l-181.5-5.5c-22.9-0.6-41.3-19.1-41.8-42.1c-1.2-1.8-1.9-189.8-1.9-192.1 c0-2.2,0.6-190.2,1.9-192C83.3,131.5,101.7,112.9,124.6,112.3z"></path> <path class="st108" d="M132.7,123.9l157-6.2h0.3h0.3c2.3-2.2,168.4-3.5,171.6-3.5c3.2,0,173.6,1.3,175.9,3.6 c21,0,41.7,20.8,41.7,41.7l2.3,38.5c2.3,2.3,3.6,114.3,3.6,117.6s-1.3,115.3-3.6,117.6l-6.1,102c-0.9,21.9-18.5,39.3-40.4,39.9 c-1.9,1.1-132,1.7-134.3,1.7c-3.3,0-194.4-1.3-196.7-3.6l-171.8-6.1c-21.7-0.7-39-18.2-39.5-39.9c-1.3-2-2-179.3-2-181.8 c0-2.5,0.7-179.7,2-181.8C93.7,142.1,111,124.6,132.7,123.9z"></path> <path class="st109" d="M140.9,135.4l148.2-6.8h0.3h0.3c2.5-2.5,158.8-3.8,162.3-3.8s163.8,1.4,166.3,4c19.7,0,39.7,20.1,39.7,39.7 l2.5,36.5c2.6,2.6,4,108,4,111.7c0,3.6-1.4,109.1-4,111.7l-6.7,96.6c-1,20.6-17.6,37.1-38.3,37.7c-2.1,1.2-124.4,1.9-126.9,1.9 c-3.6,0-183.3-1.4-185.8-4l-162-6.7c-20.4-0.8-36.8-17.3-37.3-37.7c-1.5-2.2-2.3-168.8-2.3-171.6s0.8-169.3,2.3-171.5 C104.1,152.8,120.4,136.2,140.9,135.4z"></path> <path class="st110" d="M149,147l139.4-7.5h0.3h0.3c2.8-2.7,149.1-4.2,153-4.2c3.9,0,153.9,1.5,156.8,4.4 c18.4,0,37.8,19.4,37.8,37.8l2.8,34.5c2.8,2.8,4.4,101.8,4.4,105.8c0,4-1.6,102.9-4.4,105.8l-7.3,91.2 c-1.1,19.4-16.7,34.8-36.2,35.5c-2.3,1.4-116.8,2.1-119.5,2.1c-4,0-172.1-1.5-175-4.4L149,540.6c-19.2-0.8-34.5-16.3-35.1-35.5 c-1.6-2.4-2.5-158.4-2.5-161.3c0-3,0.9-158.8,2.5-161.3C114.5,163.3,129.8,147.8,149,147z"></path> <path class="st111" d="M157.2,158.6l130.6-8.1h0.3h0.3c3-2.9,139.5-4.5,143.7-4.5s144.1,1.7,147.2,4.7c17,0,35.8,18.7,35.8,35.8 l3,32.4c3,3,4.7,95.5,4.7,99.8s-1.7,96.8-4.8,99.9l-7.9,85.8c-1.1,18.2-15.8,32.6-34,33.3c-2.5,1.5-109.3,2.2-112.2,2.2 c-4.3,0-161-1.7-164.1-4.7l-142.5-7.9c-18-0.9-32.2-15.4-32.9-33.3c-1.8-2.6-2.7-147.8-2.7-151.1c0-3.2,0.9-148.4,2.7-151 C125,173.9,139.2,159.5,157.2,158.6z"></path> <path class="st112" d="M165.3,170.1l121.8-8.7h0.3h0.3c3.2-3.1,129.8-4.9,134.3-4.9c4.5,0,134.3,1.8,137.6,5.1 c15.7,0,33.8,18,33.8,33.8l3.2,30.4c3.3,3.3,5.1,89.3,5.1,93.9c0,4.6-1.8,90.6-5.1,93.9L588,494c-1.2,17-14.9,30.3-31.9,31.2 c-2.7,1.6-101.6,2.4-104.8,2.4c-4.6,0-149.9-1.8-153.2-5.1L165.3,514c-16.7-1-30-14.4-30.7-31.1c-1.9-2.8-2.9-137.4-2.9-140.8 c0-3.5,1-138,2.9-140.8C135.3,184.5,148.6,171,165.3,170.1z"></path> <path class="st113" d="M173.5,181.7l113-9.3h0.2h0.2c3.5-3.4,120.2-5.2,125-5.2c4.8,0,124.5,1.9,128.1,5.5 c14.4,0,31.8,17.4,31.8,31.8l3.4,28.3c3.5,3.5,5.5,83,5.5,88c0,5-1.9,84.5-5.5,88l-9.1,75.1c-1.3,15.7-14,28.1-29.8,28.9 c-2.8,1.7-94.1,2.6-97.4,2.6c-5,0-138.8-1.9-142.4-5.5l-123-9.1c-15.5-1-27.7-13.5-28.5-29c-2-3-3.1-126.9-3.1-130.6 c0-3.7,1.1-127.5,3.1-130.5C145.7,195.2,158,182.7,173.5,181.7z"></path> <path class="st114" d="M181.6,193.2l104.2-9.9h0.2h0.2c3.7-3.6,110.5-5.5,115.7-5.5s114.7,2,118.5,5.8c13.1,0,29.8,16.7,29.8,29.8 l3.7,26.3c3.8,3.8,5.8,76.8,5.8,82.1s-2,78.3-5.8,82.1l-9.7,69.7c-1.4,14.5-13.1,25.9-27.6,26.8c-3,1.8-86.5,2.8-90,2.8 c-5.3,0-127.7-2-131.5-5.8l-113.3-9.7c-14.2-1.1-25.4-12.5-26.2-26.8c-2.2-3.2-3.3-116.3-3.3-120.3s1.2-117.1,3.3-120.3 C156.1,205.8,167.4,194.3,181.6,193.2z"></path> <path class="st115" d="M189.8,204.8l95.4-10.6h0.2h0.2c4-3.8,100.9-5.9,106.3-5.9c5.6,0,104.9,2.2,108.9,6.2 c11.8,0,27.8,16,27.8,27.8l3.9,24.3c4,4,6.2,70.5,6.2,76.1c0,5.6-2.2,72.2-6.2,76.2l-10.3,64.3c-1.5,13.3-12.2,23.6-25.5,24.6 c-3.2,1.9-78.9,2.9-82.7,2.9c-5.6,0-116.6-2.2-120.6-6.2l-103.5-10.3c-13-1.2-23.2-11.6-24-24.6c-2.3-3.4-3.5-105.9-3.5-110.1 c0-4.2,1.2-106.6,3.5-110.1C166.6,216.4,176.8,205.9,189.8,204.8z"></path> <path class="st116" d="M197.9,216.3l86.6-11.1h0.2h0.2c4.2-4,91.2-6.2,97-6.2c6,0,95.1,2.3,99.4,6.6c10.5,0,25.8,15.3,25.8,25.8 l4.1,22.3c4.2,4.2,6.5,64.2,6.5,70.2s-2.3,66-6.5,70.2l-10.9,58.9c-1.5,12.1-11.3,21.4-23.4,22.4c-3.4,2-71.3,3.1-75.4,3.1 c-6,0-105.5-2.3-109.7-6.5l-93.8-10.9c-11.7-1.2-20.9-10.7-21.8-22.4c-2.4-3.6-3.7-95.4-3.7-99.8c0-4.5,1.3-96.2,3.7-99.8 C176.9,227,186.1,217.5,197.9,216.3z"></path> <path class="st117" d="M206.1,227.9l77.8-11.8h0.2h0.2c4.4-4.2,81.6-6.6,87.7-6.6c6.3,0,85.3,2.4,89.8,6.9 c9.2,0,23.8,14.6,23.8,23.8l4.4,20.2c4.5,4.5,6.9,58,6.9,64.3s-2.4,59.8-6.9,64.3l-11.5,53.5c-1.6,10.8-10.4,19.1-21.2,20.2 c-3.6,2.1-63.7,3.3-68,3.3c-6.3,0-94.4-2.4-98.9-6.9l-84-11.5c-10.5-1.3-18.6-9.7-19.6-20.2c-2.6-3.8-3.9-84.9-3.9-89.6 c0-4.7,1.4-85.7,3.9-89.6C187.4,237.7,195.6,229.2,206.1,227.9z"></path> <path class="st118" d="M214.2,239.4l69-12.4h0.1h0.1c4.7-4.5,71.9-6.9,78.3-6.9c6.6,0,75.5,2.6,80.2,7.3c7.9,0,21.8,13.9,21.8,21.8 l4.6,18.2c4.7,4.7,7.3,51.7,7.3,58.4c0,6.6-2.6,53.7-7.3,58.4l-12.1,48.1c-1.7,9.6-9.5,16.9-19.1,18.1c-3.8,2.3-56.1,3.5-60.6,3.5 c-6.6,0-83.3-2.6-88-7.3l-74.3-12.1c-9.2-1.4-16.4-8.8-17.4-18.1c-2.7-4-4.1-74.4-4.1-79.3c0-5,1.4-75.3,4.1-79.3 C197.8,248.3,205,240.8,214.2,239.4z"></path> <path class="st119" d="M222.3,251l60.2-13.1h0.1h0.1c4.9-4.7,62.3-7.3,69-7.3c7,0,65.8,2.7,70.6,7.6c6.6,0,19.8,13.3,19.8,19.8 l4.8,16.2c4.9,4.9,7.6,45.5,7.6,52.4s-2.7,47.5-7.6,52.4l-12.7,42.7c-1.8,8.3-8.6,14.7-17,15.9c-4,2.4-48.5,3.6-53.3,3.6 c-7,0-72.2-2.7-77.1-7.6l-64.5-12.9c-8-1.4-14.1-7.8-15.2-15.9c-2.8-4.2-4.4-63.9-4.4-69.1c0-5.2,1.5-64.8,4.4-69.1 C208.2,258.8,214.3,252.4,222.3,251z"></path> <path class="st120" d="M230.5,262.6l51.4-13.7h0.1h0.1c5.1-4.9,52.6-7.6,59.7-7.6c7.3,0,55.9,2.8,61.1,8c5.2,0,17.8,12.6,17.8,17.8 l5.1,14.1c5.2,5.2,8,39.2,8,46.5s-2.8,41.4-8,46.5l-13.4,37.3c-1.8,7.1-7.7,12.5-14.9,13.7c-4.2,2.5-40.9,3.8-45.9,3.8 c-7.3,0-61.1-2.8-66.3-8l-54.8-13.4c-6.7-1.5-11.9-6.9-12.9-13.7c-3-4.4-4.6-53.4-4.6-58.8s1.6-54.4,4.6-58.8 C218.6,269.5,223.7,264,230.5,262.6z"></path> <path class="st121" d="M238.6,274.1l42.6-14.3h0.1h0.1c5.3-5.1,42.9-8,50.4-8c7.6,0,46.1,3,51.5,8.4c3.9,0,15.8,11.9,15.8,15.8 l5.3,12.1c5.4,5.4,8.4,33,8.4,40.6s-3,35.2-8.4,40.6l-14,32c-1.7,5.6-7.1,9.3-12.8,11.5c-4.7,1.8-33.3,4-38.5,4 c-7.6,0-50-3-55.4-8.4l-45.1-14c-5.5-1.5-9.6-6-10.7-11.5c-3.1-4.6-4.8-42.9-4.8-48.6c0-5.7,1.7-43.9,4.8-48.6 C229,280.1,233.2,275.6,238.6,274.1z"></path> <path class="st122" d="M246.8,285.7l33.8-14.9h0.1h0.1c5.6-5.4,33.3-8.3,41-8.3c7.9,0,36.3,3.1,41.9,8.7c2.6,0,13.8,11.2,13.8,13.8 l5.5,10c5.6,5.6,8.7,26.7,8.7,34.7s-3.1,29-8.7,34.7l-14.6,26.5c-1.8,4.4-6.1,7.4-10.6,9.3c-4.9,2-25.7,4.1-31.2,4.1 c-8,0-38.9-3.1-44.5-8.7L246.8,381c-4-1.4-6.7-5.3-8.5-9.3c-2.4-5.3-5-32.4-5-38.3s2.6-33,5-38.3 C240.1,291,242.7,287.1,246.8,285.7z"></path> <path class="st123" d="M254.9,297.2l25-15.5l0,0h0.1c5.8-5.6,23.6-8.7,31.7-8.7c8.3,0,26.5,3.2,32.4,9.1c1.3,0,11.8,10.5,11.8,11.8 l5.7,8c5.9,5.9,9.1,20.4,9.1,28.7s-3.2,22.9-9.1,28.7l-15.2,21.2c-1.9,3.2-5.1,5.5-8.5,7.2c-5,2.4-18.2,4.3-23.8,4.3 c-8.3,0-27.8-3.2-33.7-9.1l-25.6-15.2c-2.8-1.5-4.8-4.3-6.3-7.2c-2.8-5.4-5.2-21.9-5.2-28.1c0-6.2,2.4-22.7,5.2-28.1 C250.1,301.5,252.1,298.7,254.9,297.2z"></path> <path d="M263.1,354.4l15.8,15.8c12.6,12.6,32.9,12.6,45.5,0.1c0,0,0,0,0.1-0.1l15.8-15.8c12.6-12.6,12.6-32.9,0.1-45.5 c0,0,0,0-0.1-0.1L324.5,293c-12.4-12.4-32.5-12.7-45.2-0.5l0,0l0,0l-16.2,16.2c-12.6,12.6-12.6,32.9-0.1,45.5 C263.1,354.3,263.1,354.3,263.1,354.4L263.1,354.4z"></path> </g> <g> <path d="M824.5,796.3h24v63.8h-109v-24.9h85L824.5,796.3z"></path> <path d="M829.8,747.4c0-6.4-2.5-11.8-5.9-14.9l10.7-18.7c10.6,7.6,16,19.2,16,33.9c0,26.6-17.9,43.1-41.1,43.1 c-23.2,0-41.1-16.8-41.1-41.4c0-22.7,17.6-39.5,41.1-39.5c3.1,0,6.3,0.3,9.3,0.9v55.3C827,763.1,829.8,755.9,829.8,747.4z M801.5,733.1c-9,2.5-12.3,9.5-12.3,16.5c0,8.9,4.4,14.8,12.3,17V733.1z"></path> <path d="M770.7,617.5h77.8v23.3h-7.3c5.9,5.1,9.5,12.8,9.5,23.2c0,20.4-17.9,37.2-41.1,37.2c-23.2,0-41.1-16.8-41.1-37.2 c0-10.4,3.6-18.1,9.5-23.2h-7.3V617.5z M809.6,640.9c-11.7,0-19,7.8-19,18.5c0,10.7,7.3,18.5,19,18.5s19-7.8,19-18.5 C828.6,648.7,821.2,640.9,809.6,640.9z"></path> <path d="M769.1,553.7h26.5c-1.6,9.7,2.3,23.4,17.7,23.4h35.2v23.3h-77.8v-23.3h13.9C774.1,574,769.1,563.5,769.1,553.7z"></path> <path d="M800.7,468.1h47.8v23.4h-44.4c-9.7,0-14.2,6.1-14.2,13.5c0,8.6,5,14.5,16,14.5h42.5v23.3h-77.8v-23.4h7.3 c-5.8-4.2-9.5-12-9.5-22.3C768.5,481.5,779.7,468.1,800.7,468.1z"></path> <path d="M749.8,454.4c-7.7,0-14-6.3-14-14c0-7.7,6.3-14,14-14c7.7,0,14,6.3,14,14c0,0,0,0,0,0C763.7,448.1,757.5,454.3,749.8,454.4 z M770.7,452v-23.3h77.8V452H770.7z"></path> <path d="M800.7,336.8h47.8v23.4h-44.4c-9.7,0-14.2,6.1-14.2,13.5c0,8.6,5,14.5,16,14.5h42.5v23.3h-77.8v-23.3h7.3 c-5.8-4.2-9.5-12-9.5-22.3C768.5,350.2,779.7,336.8,800.7,336.8z"></path> <path d="M770.7,240.9h74c26.2,0,37.2,20.4,37.2,41.1c0,16.2-6.1,29.7-18.8,36.9L851.5,299c5.4-3,9.8-7.5,9.8-17.7 c0-10.9-5.6-17.6-16.7-17.6h-7.2c6.4,5.1,10.1,12.6,10.1,22.7c0,22.1-18.1,38.3-39.5,38.3s-39.5-16.2-39.5-38.3 c0-10.1,3.7-17.6,10.1-22.7h-7.9V240.9z M808,263.7c-10.7,0-18.1,7.8-18.1,18.8s7.3,18.8,18.1,18.8c10.7,0,18.1-7.8,18.1-18.8 C826.1,271.5,818.8,263.7,808,263.7z"></path> <path d="M842.3,777.1c23.2,0,41.1,16.8,41.1,37.2c0,10.4-3.6,18.1-9.5,23.2h7.3v23.3h-109v-23.4h38.4c-5.9-5.1-9.5-12.8-9.5-23.2 C801.2,794,819.1,777.1,842.3,777.1z M842.3,800.5c-11.7,0-19,7.8-19,18.5c0,10.7,7.3,18.5,19,18.5c11.7,0,19-7.8,19-18.5 C861.3,808.2,854,800.5,842.3,800.5L842.3,800.5z"></path> <path d="M803.3,693l75.6,26.6c24.8,8.7,34.6,22.6,33.5,44.4h-21.9c0-10.9-3.4-16-12.9-19.5l-74.3,31v-25.7l47.6-17.3L803.3,718V693 z"></path> <path d="M825.8,616h27.6c6.7,0,7.3-5.8,6.7-16h21.2c3.1,30.5-6.1,39.4-27.9,39.4h-27.6v12.5h-22.4v-12.5h-14.8l-7-23.4h21.8v-16 h22.4V616z"></path> <path d="M862.5,548.7c0-6.4-2.5-11.8-5.9-15l10.7-18.7c10.6,7.6,16,19.1,16,33.9c0,26.6-17.9,43.1-41.1,43.1 c-23.2,0-41.1-16.8-41.1-41.4c0-22.7,17.6-39.5,41.1-39.5c3.1,0,6.3,0.3,9.3,0.9v55.3C859.7,564.5,862.5,557.3,862.5,548.7z M834.2,534.4c-9,2.5-12.3,9.5-12.3,16.5c0,8.9,4.4,14.8,12.3,17V534.4z"></path> <path d="M803.3,418.9h77.9v23.3h-7.4c5.9,5.1,9.5,12.8,9.5,23.2c0,20.4-17.9,37.2-41.1,37.2c-23.2,0-41.1-16.8-41.1-37.2 c0-10.4,3.6-18.1,9.5-23.2h-7.3L803.3,418.9z M842.3,442.2c-11.7,0-19,7.8-19,18.5c0,10.7,7.3,18.6,19,18.6c11.7,0,19-7.8,19-18.5 S854,442.2,842.3,442.2z"></path> <path d="M842.3,405.7c-23.2,0-41.1-17.6-41.1-41.3c0-15.1,7.9-28.5,19.9-35.2l11.8,20.4c-5.4,2.7-8.7,8.3-8.7,15.1 c0,10.1,7.3,17.6,18.1,17.6c10.7,0,18.1-7.5,18.1-17.6c0-6.8-3.3-12.6-8.7-15.1l11.7-20.4c12.1,6.7,20.1,19.9,20.1,35.2 C883.4,388.1,865.5,405.7,842.3,405.7z"></path> <path d="M833.4,245.2h47.8v23.3h-44.4c-9.7,0-14.2,6.1-14.2,13.5c0,8.6,5,14.5,16,14.5h42.5v23.3h-109v-23.3h38.4 c-5.8-4.2-9.5-12-9.5-22.3C801.2,258.5,812.4,245.2,833.4,245.2z"></path> <path d="M782.5,231.5c-7.7,0-14-6.3-14-14c0-7.7,6.3-14,14-14c7.7,0,14,6.3,14,14v0C796.4,225.2,790.2,231.4,782.5,231.5z M803.3,229.1v-23.4h77.9v23.3L803.3,229.1z"></path> <path d="M833.4,113.9h47.8v23.3h-44.4c-9.7,0-14.2,6.1-14.2,13.5c0,8.6,5,14.5,16,14.5h42.5v23.3h-77.9v-23.3h7.3 c-5.8-4.2-9.5-12-9.5-22.3C801.2,127.3,812.4,113.9,833.4,113.9z"></path> <path d="M803.3,18h74c26.2,0,37.2,20.4,37.2,41.1c0,16.2-6.1,29.7-18.8,36.9l-11.5-19.9c5.5-3,9.8-7.5,9.8-17.8 c0-10.9-5.6-17.6-16.7-17.6h-7.2c6.4,5.1,10.1,12.6,10.1,22.7c0,22.1-18.1,38.3-39.5,38.3s-39.5-16.2-39.5-38.3 c0-10.1,3.7-17.6,10.1-22.7h-7.9L803.3,18z M840.7,40.7c-10.7,0-18.1,7.8-18.1,18.8s7.3,18.8,18.1,18.8c10.7,0,18.1-7.8,18.1-18.8 S851.5,40.7,840.7,40.7z"></path> </g> <g class="st124"> <rect x="-22" y="-3.9" class="st38" width="857.8" height="903"></rect> <path class="st37" d="M-12.6,2.4H-2c0.3,0,150.1,0.2,150.2,0.6l0,0c0.1,0.3,149.9,0.6,150.2,0.6h218.3c0.3,0,150.2-0.2,150.3-0.6 l0,0c0.1-0.3,149.9-0.6,150.2-0.6h10.7c0.5,0,0.9,183.1,0.8,183.6l-1.9,702.8c-0.1,0.3-285.9,0.5-286.3,0.5H274.8 c-0.3,0-286.2-0.2-286.3-0.5L-13.4,186C-13.6,185.5-13.2,2.4-12.6,2.4z"></path> <path class="st36" d="M-3.3,8.8H7.2c0.7,0,146.8,0.5,147,1.1l0,0c0.2,0.7,146.4,1.1,147.1,1.1h214c0.7,0,146.9-0.5,147.1-1.1l0,0 c0.2-0.7,146.4-1.1,147.1-1.1h10.4c1.1,0,1.9,178.8,1.5,179.8l-3.7,690c-0.2,0.6-278.8,1.1-279.5,1.1H278.5 c-0.7,0-279.4-0.4-279.6-1.1l-3.7-690C-5.1,187.6-4.4,8.8-3.3,8.8z"></path> <path class="st35" d="M6.1,15.1h10.2c1,0,143.6,0.7,143.9,1.7l0,0c0.3,1,142.9,1.7,143.9,1.7h209.7c1,0,143.6-0.7,143.9-1.7l0,0 c0.3-1,142.9-1.7,143.9-1.7h10.2c1.6,0,2.8,174.5,2.3,176.1l-5.6,677.1c-0.3,1-271.7,1.6-272.8,1.6H282.3c-1,0-272.5-0.6-272.8-1.6 L3.8,191.2C3.3,189.7,4.5,15.1,6.1,15.1z"></path> <path class="st34" d="M15.5,21.4h10c1.4,0,140.3,0.9,140.7,2.2l0,0c0.4,1.3,139.3,2.2,140.7,2.2h205.5c1.4,0,140.3-0.9,140.7-2.2 l0,0c0.4-1.3,139.3-2.2,140.7-2.2h10c2.2,0,3.7,170.3,3,172.4L799.5,858c-0.4,1.3-264.6,2.2-266,2.2H286 c-1.4,0-265.6-0.9-266.1-2.2l-7.5-664.2C11.7,191.7,13.3,21.4,15.5,21.4z"></path> <path class="st33" d="M24.8,27.8h9.8c1.8,0,137,1.1,137.6,2.8l0,0c0.5,1.7,135.8,2.8,137.6,2.8h201.3c1.7,0,137-1.1,137.6-2.8l0,0 c0.5-1.7,135.8-2.8,137.6-2.8h9.6c2.7,0,4.7,166,3.8,168.6l-9.3,651.4c-0.6,1.6-257.5,2.7-259.3,2.7H289.7 c-1.7,0-258.8-1.1-259.3-2.7L21,196.4C20.2,193.8,22.1,27.8,24.8,27.8z"></path> <path class="st32" d="M34.2,34.2h9.6c2.1,0,133.7,1.4,134.4,3.3l0,0c0.6,2,132.3,3.3,134.4,3.3h197.1c2.1,0,133.8-1.4,134.4-3.3 l0,0c0.6-2,132.3-3.3,134.4-3.3h9.6c3.3,0,5.6,161.8,4.5,164.9l-11.3,638.4c-0.7,2-250.4,3.3-252.5,3.3H293.4 c-2,0-251.9-1.3-252.6-3.3L29.6,199C28.6,195.9,30.9,34.2,34.2,34.2z"></path> <path class="st31" d="M43.6,40.5H53c2.4,0,130.5,1.6,131.2,3.9l0,0c0.7,2.3,128.8,4,131.2,4h192.8c2.4,0,130.5-1.6,131.2-3.9l0,0 c0.7-2.3,128.8-3.9,131.2-3.9h9.4c3.8,0,6.5,157.5,5.3,161.1l-13.1,625.6c-0.8,2.3-243.4,3.8-245.8,3.8H297.2 c-2.4,0-245-1.5-245.8-3.8L38.3,201.6C37,198,39.7,40.5,43.6,40.5z"></path> <path class="st30" d="M52.9,46.8h9.2c2.8,0,127.2,1.8,128,4.5l0,0c0.8,2.7,125.3,4.5,128,4.5h188.6c2.8,0,127.2-1.8,128.1-4.5l0,0 c0.8-2.7,125.2-4.5,128-4.5h9.2c4.4,0,7.5,153.2,6.1,157.4l-15,612.8c-0.9,2.6-236.3,4.4-239,4.4H300.9c-2.7,0-238.2-1.8-239-4.4 l-15-612.8C45.4,200.1,48.5,46.8,52.9,46.8z"></path> <path class="st29" d="M62.3,53.2h9c3.1,0,123.9,2,124.9,5.1l0,0c1,3,121.7,5.1,124.9,5.1h184.3c3.1,0,123.9-2,124.9-5.1l0,0 c1-3,121.7-5.1,124.9-5.1h9c4.9,0,8.4,149,6.8,153.6l-16.8,600c-1,2.9-229.1,4.9-232.2,4.9H304.6c-3.1,0-231.3-2-232.3-4.9 l-16.8-600C53.9,202.1,57.4,53.2,62.3,53.2z"></path> <path class="st28" d="M71.7,59.5h8.8c3.5,0,120.6,2.3,121.7,5.6l0,0c1,3.3,118.2,5.6,121.7,5.6h180.1c3.5,0,120.7-2.3,121.7-5.6 l0,0c1.1-3.3,118.2-5.6,121.7-5.6h8.8c5.5,0,9.3,144.7,7.6,149.9L745,796.6c-1.1,3.2-222.1,5.4-225.5,5.4H308.3 c-3.4,0-224.4-2.2-225.5-5.4L64.1,209.4C62.3,204.2,66.2,59.5,71.7,59.5z"></path> <path class="st27" d="M81,65.9h8.6c3.8,0,117.4,2.5,118.5,6.1l0,0c1.2,3.7,114.7,6.1,118.5,6.1h175.9c3.8,0,117.4-2.5,118.6-6.1 l0,0c1.2-3.7,114.7-6.1,118.5-6.1h8.6c6.1,0,10.3,140.4,8.3,146.1l-20.6,574.3c-1.2,3.6-215,6-218.7,6H312 c-3.8,0-217.5-2.4-218.8-6L72.7,212C70.8,206.3,75,65.9,81,65.9z"></path> <path class="st26" d="M90.4,72.2h8.4c4.2,0,114.1,2.7,115.3,6.7l0,0c1.3,4,111.2,6.7,115.3,6.7h171.7c4.2,0,114.1-2.7,115.3-6.7 l0,0c1.3-4,111.2-6.7,115.3-6.7h8.4c6.6,0,11.2,136.2,9.1,142.4l-22.4,561.4c-1.3,3.9-207.9,6.5-212,6.5H315.7 c-4.1,0-210.7-2.6-212-6.5L81.3,214.6C79.2,208.4,83.8,72.2,90.4,72.2z"></path> <path class="st25" d="M99.8,78.6h8.2c4.5,0,110.8,2.9,112.2,7.3l0,0c1.4,4.3,107.7,7.3,112.2,7.3h167.4c4.5,0,110.8-2.9,112.2-7.3 l0,0c1.4-4.3,107.7-7.3,112.2-7.3h8.1c7.1,0,12.1,131.9,9.9,138.7l-24.3,548.6c-1.4,4.2-200.8,7.1-205.2,7.1H319.4 c-4.5,0-203.8-2.8-205.3-7.1L89.9,217.2C87.6,210.5,92.6,78.6,99.8,78.6z"></path> <path class="st24" d="M109.1,84.9h8c4.9,0,107.5,3.2,109,7.8l0,0c1.5,4.6,104.1,7.8,109,7.8h163.1c4.9,0,107.6-3.2,109-7.8l0,0 c1.5-4.7,104.1-7.8,109-7.8h8c7.7,0,13.1,127.6,10.6,134.9l-26.2,535.7c-1.5,4.5-193.7,7.6-198.5,7.6H323.2 c-4.8,0-196.9-3-198.5-7.6L98.5,219.8C96,212.6,101.4,84.9,109.1,84.9z"></path> <path class="st23" d="M118.5,91.3h7.7c5.2,0,104.3,3.4,105.8,8.4l0,0c1.6,5,100.6,8.4,105.8,8.4h158.9c5.2,0,104.3-3.4,105.9-8.4 l0,0c1.6-5,100.6-8.4,105.9-8.4h7.8c8.2,0,14,123.4,11.4,131.2l-28.1,522.9c-1.6,4.9-186.6,8.1-191.7,8.1h-181 c-5.1,0-190.1-3.3-191.7-8.1l-28.1-522.9C104.5,214.7,110.3,91.3,118.5,91.3z"></path> <path class="st22" d="M127.9,97.6h7.6c5.6,0,101,3.6,102.7,8.9l0,0c1.7,5.3,97.1,8.9,102.7,8.9h154.7c5.6,0,101-3.6,102.7-8.9l0,0 c1.7-5.3,97.1-8.9,102.7-8.9h7.5c8.8,0,15,119.1,12.1,127.5l-29.9,510c-1.8,5.2-179.5,8.7-184.9,8.7h-175c-5.5,0-183.2-3.5-185-8.7 l-29.9-510C112.9,216.7,119.1,97.6,127.9,97.6z"></path> <path class="st21" d="M137.2,104h7.3c5.9,0,97.7,3.8,99.5,9.5l0,0c1.8,5.6,93.6,9.5,99.5,9.5H494c5.9,0,97.7-3.8,99.5-9.5l0,0 c1.8-5.7,93.6-9.5,99.5-9.5h7.3c9.3,0,15.9,114.8,12.9,123.7l-31.8,497.2c-1.9,5.5-172.4,9.2-178.2,9.2h-169 c-5.8,0-176.3-3.7-178.2-9.2l-31.8-497.2C121.3,218.8,127.9,104,137.2,104z"></path> <path class="st20" d="M146.6,110.3h7.1c6.3,0,94.4,4,96.3,10l0,0c1.9,6,90,10,96.3,10h146.2c6.3,0,94.4-4,96.3-10l0,0 c1.9-6,90-10,96.3-10h7.1c9.9,0,16.8,110.6,13.6,119.9l-33.6,484.3c-2,5.8-165.3,9.8-171.4,9.8H338.1c-6.2,0-169.5-3.9-171.5-9.8 L133,230.3C129.8,220.9,136.7,110.3,146.6,110.3z"></path> <path class="st19" d="M156,116.7h6.9c6.6,0,91.1,4.3,93.2,10.6l0,0c2,6.3,86.5,10.6,93.2,10.6h141.9c6.6,0,91.2-4.3,93.2-10.6l0,0 c2-6.3,86.5-10.6,93.2-10.6h6.9c10.4,0,17.8,106.3,14.4,116.2l-35.5,471.4c-2.1,6.2-158.2,10.3-164.7,10.3H341.8 c-6.5,0-162.6-4.1-164.7-10.3l-35.5-471.4C138.2,223,145.5,116.7,156,116.7z"></path> <path class="st18" d="M165.3,123h6.7c7,0,87.9,4.5,90,11.1l0,0c2.1,6.6,83,11.1,90,11.1h137.7c7,0,87.9-4.5,90-11.1l0,0 c2.1-6.6,83-11.1,90-11.1h6.7c11,0,18.7,102,15.2,112.4l-37.4,458.6c-2.3,6.5-151.1,10.8-158,10.8H345.5c-6.9,0-155.8-4.4-158-10.9 l-37.4-458.6C146.6,225.1,154.4,123,165.3,123z"></path> <path class="st17" d="M174.7,129.4h6.5c7.3,0,84.6,4.7,86.8,11.7l0,0c2.2,7,79.5,11.7,86.8,11.7h133.5c7.3,0,84.6-4.7,86.8-11.7 l0,0c2.2-7,79.5-11.7,86.8-11.7h6.5c11.5,0,19.6,97.8,15.9,108.7l-39.2,445.8c-2.3,6.8-144,11.4-151.2,11.4H349.2 c-7.2,0-148.9-4.6-151.2-11.4l-39.3-445.8C155.1,227.2,163.2,129.4,174.7,129.4z"></path> <path class="st16" d="M184.1,135.7h6.3c7.7,0,81.3,5,83.6,12.3l0,0c2.3,7.3,76,12.3,83.7,12.3h129.2c7.7,0,81.3-5,83.7-12.3l0,0 c2.3-7.3,76-12.3,83.7-12.3h6.3c12.1,0,20.6,93.5,16.7,104.9l-41.1,432.9c-2.4,7.1-136.9,11.9-144.4,11.9H353 c-7.5,0-142-4.8-144.4-11.9l-41.1-432.9C163.5,229.2,172,135.7,184.1,135.7z"></path> <path class="st15" d="M193.4,142.1h6.1c8,0,78.1,5.2,80.5,12.8l0,0c2.4,7.6,72.5,12.8,80.5,12.8h125c8,0,78.1-5.2,80.5-12.8l0,0 c2.4-7.6,72.5-12.8,80.5-12.8h6.1c12.6,0,21.5,89.3,17.4,101.2l-43,420.1c-2.5,7.5-129.8,12.5-137.7,12.5H356.7 c-7.9,0-135.1-5.1-137.7-12.5l-43-420.1C171.9,231.3,180.8,142.1,193.4,142.1z"></path> <path class="st14" d="M202.8,148.4h5.9c8.4,0,74.8,5.4,77.3,13.4l0,0c2.5,8,68.9,13.4,77.3,13.4h120.8c8.4,0,74.8-5.4,77.3-13.4 l0,0c2.5-8,68.9-13.4,77.3-13.4h5.9c13.2,0,22.4,85,18.2,97.4l-44.9,407.2c-2.7,7.8-122.7,13-130.9,13H360.4 c-8.2,0-128.3-5.2-130.9-13l-44.9-407.2C180.4,233.4,189.6,148.4,202.8,148.4z"></path> <path class="st13" d="M212.2,154.8h5.7c8.7,0,71.5,5.6,74.1,14l0,0c2.6,8.3,65.4,14,74.1,14h116.5c8.7,0,71.5-5.6,74.2-14l0,0 c2.6-8.3,65.4-14,74.1-14h5.7c13.7,0,23.4,80.7,18.9,93.7l-46.8,394.4c-2.8,8.1-115.6,13.6-124.1,13.6H364.1 c-8.6,0-121.4-5.5-124.2-13.6l-46.8-394.4C188.8,235.5,198.4,154.8,212.2,154.8z"></path> <path class="st12" d="M221.5,161.1h5.5c9.1,0,68.2,5.9,71,14.5l0,0c2.8,8.6,61.9,14.5,71,14.5h112.3c9.1,0,68.2-5.9,71-14.5l0,0 c2.8-8.6,61.9-14.5,71-14.5h5.5c14.3,0,24.3,76.5,19.7,90l-48.6,381.5c-2.9,8.4-108.5,14.2-117.4,14.2H367.8 c-8.9,0-114.5-5.7-117.4-14.2l-48.6-381.5C197.2,237.5,207.3,161.1,221.5,161.1z"></path> <path class="st11" d="M230.9,167.5h5.3c9.4,0,64.9,6.1,67.8,15.1l0,0c2.9,9,58.4,15.1,67.8,15.1h108c9.4,0,65-6.1,67.8-15.1l0,0 c2.9-9,58.4-15.1,67.8-15.1h5.3c14.8,0,25.2,72.2,20.5,86.2l-50.4,368.7c-3,8.8-101.4,14.7-110.6,14.7H371.6 c-9.3,0-107.7-5.9-110.6-14.7l-50.5-368.6C205.7,239.7,216.1,167.5,230.9,167.5z"></path> <path class="st10" d="M240.3,173.8h5.1c9.8,0,61.7,6.3,64.6,15.6l0,0c3,9.3,54.9,15.6,64.6,15.6h103.8c9.8,0,61.7-6.3,64.6-15.6 l0,0c3-9.3,54.9-15.6,64.6-15.6h5.1c15.4,0,26.2,67.9,21.2,82.5l-52.4,355.8c-3.1,9.1-94.3,15.2-103.9,15.2H375.3 c-9.6,0-100.8-6.1-103.9-15.2L219,256.3C214.1,241.7,224.9,173.8,240.3,173.8z"></path> <path class="st9" d="M249.6,180.2h4.9c10.1,0,58.4,6.5,61.5,16.2l0,0c3,9.6,51.4,16.2,61.5,16.2H477c10.1,0,58.4-6.5,61.5-16.2l0,0 c3-9.6,51.4-16.2,61.5-16.2h4.8c15.9,0,27.1,63.7,22,78.7l-54.2,343c-3.2,9.4-87.2,15.8-97.1,15.8H379c-9.9,0-93.9-6.3-97.1-15.8 l-54.2-343C222.5,243.8,233.7,180.2,249.6,180.2z"></path> <path class="st8" d="M259,186.5h4.7c10.5,0,55.1,6.8,58.3,16.7l0,0c3.2,10,47.8,16.7,58.3,16.7h95.3c10.5,0,55.1-6.8,58.3-16.7l0,0 c3.2-10,47.8-16.7,58.3-16.7h4.7c16.5,0,28,59.4,22.7,75l-56.1,330.1c-3.3,9.7-80.1,16.3-90.4,16.3h-90.4 c-10.3,0-87.1-6.5-90.4-16.3l-56.1-330.1C231,245.9,242.6,186.5,259,186.5z"></path> <path class="st7" d="M268.4,192.9h4.5c10.8,0,51.8,7,55.1,17.3l0,0c3.3,10.3,44.3,17.3,55.1,17.3h91.1c10.8,0,51.8-7,55.1-17.3l0,0 c3.3-10.3,44.3-17.3,55.1-17.3h4.5c17,0,29,55.1,23.5,71.2l-58,317.3c-3.4,10.1-73,16.8-83.6,16.8h-84.3 c-10.6,0-80.2-6.8-83.6-16.8l-58-317.3C239.4,248,251.3,192.9,268.4,192.9z"></path> <path class="st6" d="M277.7,199.2h4.3c11.1,0,48.6,7.2,52,17.8l0,0c3.4,10.6,40.8,17.9,52,17.9h86.9c11.1,0,48.6-7.2,52-17.9l0,0 c3.4-10.6,40.8-17.8,52-17.8h4.2c17.6,0,29.9,50.9,24.3,67.5l-59.9,304.4c-3.5,10.4-65.9,17.4-76.9,17.4h-78.3 c-11,0-73.3-7-76.9-17.4l-59.8-304.4C247.8,250.1,260.2,199.2,277.7,199.2z"></path> <path class="st5" d="M287.1,205.6h4c11.5,0,45.3,7.4,48.8,18.4l0,0c3.5,11,37.3,18.4,48.8,18.4h82.6c11.5,0,45.3-7.4,48.8-18.4l0,0 c3.5-11,37.3-18.4,48.8-18.4h4c18.1,0,30.8,46.6,25,63.7l-61.7,291.6c-3.6,10.7-58.8,17.9-70.1,17.9h-72.2 c-11.3,0-66.5-7.2-70.1-17.9l-61.7-291.6C256.2,252.2,269,205.6,287.1,205.6z"></path> <path class="st4" d="M296.5,211.9h3.8c11.9,0,42,7.7,45.6,19l0,0c3.6,11.3,33.8,19,45.6,19h78.4c11.9,0,42-7.7,45.6-19l0,0 c3.6-11.3,33.8-19,45.6-19h3.8c18.6,0,31.8,42.3,25.8,60l-63.6,278.7c-3.8,11-51.7,18.5-63.3,18.5h-66.2 c-11.7,0-59.6-7.4-63.4-18.5l-63.6-278.7C264.7,254.2,277.8,211.9,296.5,211.9z"></path> <path class="st3" d="M305.8,218.3h3.6c12.2,0,38.7,7.9,42.4,19.5l0,0c3.7,11.6,30.2,19.5,42.4,19.5h74.1c12.2,0,38.7-7.9,42.4-19.5 l0,0c3.7-11.6,30.2-19.5,42.4-19.5h3.6c19.2,0,32.7,38.1,26.5,56.3l-65.4,265.9c-3.9,11.4-44.6,19-56.6,19h-60.2 c-12,0-52.7-7.6-56.6-19l-65.4-265.9C273.1,256.3,286.6,218.3,305.8,218.3z"></path> <path class="st2" d="M315.2,224.6h3.4c12.6,0,35.5,8.1,39.3,20.1l0,0c3.8,12,26.7,20.1,39.3,20.1h69.9c12.6,0,35.5-8.1,39.3-20.1 l0,0c3.8-12,26.7-20.1,39.3-20.1h3.4c19.7,0,33.6,33.8,27.3,52.5l-67.3,253c-4,11.7-37.5,19.5-49.8,19.5H405 c-12.3,0-45.9-7.9-49.8-19.5l-67.3-253C281.5,258.4,295.4,224.6,315.2,224.6z"></path> <path class="st1" d="M324.6,230.9h3.2c12.9,0,32.2,8.3,36.1,20.6l0,0c3.9,12.3,23.2,20.6,36.1,20.6h65.7c12.9,0,32.2-8.3,36.1-20.6 l0,0c3.9-12.3,23.2-20.6,36.1-20.6h3.2c20.3,0,34.6,29.6,28.1,48.8l-69.1,240.2c-4,12-30.4,20.1-43.1,20.1h-48.1 c-12.7,0-39-8.1-43.1-20.1l-69.2-240.2C290,260.5,304.3,230.9,324.6,230.9z"></path> <path class="st0" d="M333.9,237.3h3c13.3,0,28.9,8.6,32.9,21.2l0,0c4,12.6,19.7,21.2,32.9,21.2h61.4c13.3,0,28.9-8.6,32.9-21.2l0,0 c4-12.6,19.7-21.2,32.9-21.2h3c20.8,0,35.5,25.3,28.8,45l-71.1,227.4c-4.2,12.3-23.3,20.6-36.3,20.6h-42c-13,0-32.1-8.3-36.3-20.6 l-71.1-227.4C298.4,262.6,313.1,237.3,333.9,237.3z"></path> <path d="M405.6,287.2h57.2c13.6,0,25.6-8.8,29.8-21.8l0,0c4.1-13,16.1-21.8,29.8-21.8h2.8c17.2,0,31.2,14,31.2,31.2 c0,3.4-0.6,6.8-1.7,10l-72.9,214.5c-4.3,12.7-16.2,21.2-29.6,21.2h-36c-13.4,0-25.3-8.5-29.6-21.2l-72.9-214.5 c-5.5-16.3,3.2-34.1,19.5-39.6c3.2-1.1,6.6-1.7,10-1.7h2.8c13.6,0,25.6,8.8,29.8,21.8l0,0C380,278.3,392,287.2,405.6,287.2z"></path> </g> <g class="st125"> <rect x="90.8" y="96.3" class="st38" width="744.6" height="707.4"></rect> <path class="st126" d="M104,109.8l573.6-2.4c0.7-0.2,149.7,0.3,149.7,1v8.7c0,0.5-0.3,122.3-0.7,122.4l0,0 c-0.4,0.1-0.7,122-0.7,122.4v178c0,0.4,0.3,122.3,0.7,122.4l0,0c0.4,0.1,0.7,122,0.7,122.4v8.7c0,0.7-149,1.2-149.7,1L104,792 c-0.4-0.1-0.7-232.5-0.7-233V342.8C103.3,342.4,103.6,109.9,104,109.8z"></path> <path class="st127" d="M117.2,123.3l557.1-4.8c1.3-0.5,144.9,0.5,144.9,2v8.4c0,0.9-0.6,118.1-1.4,118.4l0,0 c-0.9,0.3-1.4,117.4-1.4,118.4V538c0,0.9,0.6,118.1,1.4,118.4l0,0c0.8,0.3,1.4,117.4,1.4,118.4v8.4c0,1.4-143.5,2.4-144.9,2 l-557.1-4.8c-0.8-0.3-1.4-223.4-1.4-224.3V347.6C115.8,346.7,116.3,123.6,117.2,123.3z"></path> <path class="st128" d="M130.4,136.8l540.5-7.2c2-0.7,140,0.8,140,2.9v8.2c0,1.3-0.9,113.8-2.2,114.3l0,0 c-1.3,0.4-2.1,112.9-2.1,114.3v167.1c0,1.3,0.9,113.9,2.1,114.3l0,0c1.3,0.4,2.2,112.9,2.2,114.3v8.2c0,2.1-138,3.6-140,2.9 l-540.5-7.2c-1.3-0.4-2.1-214.2-2.1-215.6V352.4C128.2,351.1,129.1,137.2,130.4,136.8z"></path> <path class="st129" d="M143.5,150.2l524-9.6c2.7-0.9,135.2,1.1,135.2,3.9v7.9c0,1.8-1.2,109.6-2.9,110.2l0,0 c-1.7,0.5-2.9,108.4-2.9,110.2v161.6c0,1.8,1.2,109.7,2.9,110.2l0,0c1.7,0.5,2.9,108.4,2.9,110.2v7.9c0,2.8-132.5,4.8-135.2,3.9 l-524-9.6c-1.7-0.6-2.8-205.1-2.8-206.9V357.2C140.7,355.4,141.9,150.8,143.5,150.2z"></path> <path class="st130" d="M156.7,163.7l507.5-12c3.3-1.1,130.4,1.4,130.4,4.9v7.6c0,2.2-1.5,105.4-3.6,106.1l0,0 c-2.1,0.7-3.6,103.9-3.6,106.1v156.2c0,2.2,1.5,105.4,3.6,106.1l0,0c2.1,0.7,3.6,103.9,3.6,106.1v7.7c0,3.5-127.1,6-130.4,4.9 l-507.5-12.1c-2.1-0.7-3.5-196-3.5-198.2V362C153.2,359.8,154.6,164.4,156.7,163.7z"></path> <path class="st131" d="M169.9,177.2l490.9-14.4c4-1.4,125.6,1.6,125.6,5.8v7.4c0,2.7-1.8,101.2-4.3,102l0,0 c-2.6,0.8-4.3,99.3-4.3,102v150.7c0,2.7,1.7,101.2,4.3,102l0,0c2.6,0.8,4.3,99.3,4.3,102v7.4c0,4.2-121.6,7.2-125.6,5.8 l-490.9-14.4c-2.5-0.8-4.2-186.8-4.2-189.5V366.8C165.7,364.1,167.4,178,169.9,177.2z"></path> <path class="st132" d="M183.1,190.7l474.4-16.9c4.7-1.6,120.8,1.9,120.8,6.8v7.1c0,3.1-2,97-5.1,97.9l0,0c-3,1-5.1,94.8-5.1,98 v145.3c0,3.1,2,97,5.1,98l0,0c3,1,5.1,94.8,5.1,98v7.1c0,4.9-116.1,8.4-120.8,6.8l-474.4-16.8c-2.9-1-4.9-177.7-4.9-180.8V371.6 C178.2,368.5,180.1,191.7,183.1,190.7z"></path> <path class="st133" d="M196.3,204.2l457.9-19.2c5.3-1.8,115.9,2.2,115.9,7.8v6.8c0,3.6-2.3,92.8-5.7,93.9l0,0 c-3.4,1.1-5.7,90.3-5.7,93.9v139.8c0,3.6,2.3,92.8,5.7,93.9l0,0c3.4,1.1,5.7,90.3,5.7,93.9v6.8c0,5.6-110.6,9.6-115.9,7.8 l-457.9-19.2c-3.3-1.1-5.6-168.6-5.6-172.1V376.3C190.7,372.8,192.9,205.3,196.3,204.2z"></path> <path class="st134" d="M209.4,217.6L650.8,196c6-2,111.1,2.4,111.1,8.8v6.6c0,4-2.6,88.6-6.5,89.8l0,0c-3.8,1.2-6.5,85.8-6.5,89.8 v134.4c0,4,2.6,88.6,6.5,89.8l0,0c3.9,1.2,6.5,85.8,6.5,89.8v6.6c0,6.3-105.1,10.8-111.1,8.8l-441.4-21.7 c-3.8-1.3-6.3-159.5-6.3-163.4v-154C203.2,377.2,205.7,218.9,209.4,217.6z"></path> <path class="st135" d="M222.6,231.1l424.8-24.1c6.7-2.3,106.3,2.7,106.3,9.8v6.3c0,4.5-2.9,84.3-7.2,85.7l0,0 c-4.3,1.4-7.2,81.2-7.2,85.7v128.9c0,4.5,2.9,84.4,7.2,85.7l0,0c4.3,1.4,7.2,81.2,7.2,85.7v6.3c0,7.1-99.6,12-106.3,9.8 l-424.8-24.1c-4.2-1.4-7-150.3-7-154.7V385.9C215.6,381.5,218.4,232.5,222.6,231.1z"></path> <path class="st136" d="M235.8,244.6l408.3-26.5c7.4-2.5,101.5,3,101.5,10.7v6.1c0,4.9-3.2,80.1-7.9,81.6l0,0 c-4.7,1.5-7.9,76.7-7.9,81.6v123.4c0,4.9,3.2,80.1,7.9,81.6l0,0c4.7,1.5,7.9,76.7,7.9,81.6v6.1c0,7.8-94.1,13.2-101.5,10.7 l-408.3-26.5c-4.6-1.6-7.7-141.2-7.7-146V390.7C228.1,385.8,231.2,246.2,235.8,244.6z"></path> <path class="st137" d="M249,258.1l391.8-28.9c8-2.7,96.7,3.2,96.7,11.7v5.7c0,5.4-3.5,75.9-8.6,77.6l0,0 c-5.1,1.6-8.6,72.2-8.6,77.6v118c0,5.4,3.5,75.9,8.6,77.6l0,0c5.1,1.6,8.6,72.2,8.6,77.6v5.7c0,8.5-88.7,14.4-96.7,11.7L249,663.5 c-5.1-1.7-8.4-132.1-8.4-137.4V395.5C240.6,390.2,244,259.8,249,258.1z"></path> <path class="st138" d="M262.2,271.5l375.2-31.3c8.7-3,91.9,3.5,91.9,12.7v5.5c0,5.8-3.8,71.7-9.3,73.5l0,0 c-5.6,1.8-9.3,67.7-9.3,73.5V518c0,5.8,3.8,71.7,9.3,73.5l0,0c5.6,1.8,9.3,67.7,9.3,73.5v5.5c0,9.2-83.2,15.6-91.9,12.7 l-375.2-31.3c-5.4-1.8-9.1-122.9-9.1-128.7V400.3C253.1,394.5,256.7,273.4,262.2,271.5z"></path> <path class="st139" d="M275.3,285l358.7-33.7c9.4-3.2,87,3.8,87,13.6v5.2c0,6.3-4,67.5-10,69.4l0,0c-6,1.9-10.1,63.1-10.1,69.4 v107.1c0,6.3,4,67.5,10.1,69.4l0,0c6,1.9,10,63.1,10,69.4v5.2c0,9.9-77.7,16.8-87,13.6l-358.7-33.7c-5.8-2-9.8-113.8-9.8-120V405 C265.6,398.9,269.5,287,275.3,285z"></path> <path class="st140" d="M288.5,298.5l342.2-36.1c10-3.4,82.2,4,82.2,14.6v5c0,6.7-4.4,63.3-10.8,65.3l0,0 c-6.4,2-10.8,58.6-10.8,65.3v101.7c0,6.7,4.4,63.3,10.8,65.3l0,0c6.4,2,10.8,58.6,10.8,65.3v5c0,10.6-72.2,18-82.2,14.6 l-342.2-36.1c-6.3-2.1-10.5-104.7-10.5-111.3V409.8C278,403.2,282.3,300.6,288.5,298.5z"></path> <path class="st141" d="M301.7,312l325.6-38.4c10.7-3.6,77.4,4.3,77.4,15.6v4.7c0,7.2-4.6,59.1-11.5,61.2l0,0 c-6.8,2.2-11.5,54.1-11.5,61.2v96.2c0,7.2,4.6,59.1,11.5,61.3l0,0c6.8,2.2,11.5,54.1,11.5,61.2v4.7c0,11.3-66.7,19.2-77.4,15.6 l-325.6-38.4c-6.7-2.3-11.1-95.5-11.1-102.6v-99.7C290.5,407.6,295,314.3,301.7,312z"></path> <path class="st142" d="M314.9,325.5L624,284.6c11.4-3.9,72.6,4.6,72.6,16.6v4.4c0,7.6-4.9,54.8-12.2,57.2l0,0 c-7.3,2.3-12.2,49.6-12.2,57.2v90.8c0,7.6,4.9,54.9,12.2,57.2l0,0c7.3,2.3,12.2,49.6,12.2,57.2v4.4c0,12-61.2,20.4-72.6,16.6 l-309.1-40.9c-7.1-2.4-11.9-86.4-11.9-93.9v-91.9C303,411.9,307.8,327.9,314.9,325.5z"></path> <path class="st143" d="M328.1,338.9l292.6-43.3c12-4,67.8,4.9,67.8,17.6v4.2c0,8.1-5.2,50.6-12.9,53.1l0,0 c-7.7,2.4-12.9,45-12.9,53.1v85.3c0,8.1,5.2,50.7,12.9,53.1l0,0c7.7,2.4,12.9,45,12.9,53.1v4.2c0,12.7-55.7,21.6-67.8,17.6 l-292.6-43.3c-7.5-2.5-12.6-77.3-12.6-85.2v-84.1C315.5,416.2,320.5,341.5,328.1,338.9z"></path> <path class="st144" d="M341.2,352.4l276.1-45.7c12.7-4.3,62.9,5.1,62.9,18.5v3.9c0,8.5-5.5,46.4-13.6,49l0,0 c-8.1,2.6-13.6,40.5-13.6,49V507c0,8.5,5.5,46.4,13.6,49l0,0c8.1,2.6,13.6,40.5,13.6,49v3.9c0,13.4-50.3,22.8-62.9,18.5 l-276.1-45.7c-7.9-2.7-13.3-68.1-13.3-76.5V429C328,420.6,333.3,355.1,341.2,352.4z"></path> <path class="st145" d="M354.4,365.9l259.5-48.1c13.4-4.5,58.1,5.4,58.1,19.5v3.6c0,9-5.8,42.2-14.3,44.9l0,0 c-8.5,2.7-14.4,36-14.4,44.9v74.4c0,9,5.8,42.2,14.4,44.9l0,0c8.5,2.7,14.3,36,14.3,44.9v3.6c0,14.2-44.8,24-58.1,19.5l-259.5-48.1 c-8.4-2.8-14-59-14-67.8v-68.5C340.5,424.9,346.1,368.7,354.4,365.9z"></path> <path class="st146" d="M367.6,379.4l243-50.5c14-4.8,53.3,5.7,53.3,20.5v3.4c0,9.4-6.1,38-15.1,40.9l0,0 c-9,2.9-15.1,31.4-15.1,40.9v69c0,9.4,6.1,38,15.1,40.9l0,0c9,2.9,15.1,31.4,15.1,40.9v3.4c0,14.8-39.3,25.3-53.3,20.5l-243-50.5 c-8.8-3-14.7-49.9-14.7-59.1v-60.8C352.9,429.3,358.8,382.4,367.6,379.4z"></path> <path class="st147" d="M380.8,392.9l226.5-52.9c14.7-5,48.5,5.9,48.5,21.5v3.1c0,9.9-6.4,33.8-15.8,36.8l0,0 c-9.4,3-15.8,26.9-15.8,36.8v63.5c0,9.9,6.4,33.8,15.8,36.8l0,0c9.4,3,15.8,26.9,15.8,36.8v3.1c0,15.5-33.8,26.5-48.5,21.5 l-226.5-53c-9.2-3.1-15.4-40.8-15.4-50.5v-53C365.4,433.6,371.6,396,380.8,392.9z"></path> <path class="st148" d="M394,406.3L603.9,351c15.4-5.2,43.7,6.2,43.7,22.4v2.8c0,10.3-6.7,29.6-16.5,32.7l0,0 c-9.8,3.1-16.5,22.4-16.5,32.7v58.1c0,10.3,6.7,29.6,16.5,32.7l0,0c9.8,3.1,16.5,22.4,16.5,32.7v2.8c0,16.2-28.3,27.7-43.7,22.4 L394,535.1c-9.6-3.3-16.1-31.6-16.1-41.8v-45.2C377.9,438,384.4,409.6,394,406.3z"></path> <path class="st149" d="M407.1,419.8l193.4-57.7c16-5.4,38.9,6.5,38.9,23.4v2.6c0,10.8-7,25.3-17.2,28.6l0,0 C612,420,605,434.5,605,445.3v52.6c0,10.8,7,25.4,17.2,28.6l0,0c10.3,3.3,17.2,17.9,17.2,28.6v2.6c0,16.9-22.8,28.9-38.9,23.4 l-193.4-57.7c-10-3.4-16.8-22.5-16.8-33.1v-37.4C390.4,442.3,397.1,423.2,407.1,419.8z"></path> <path class="st150" d="M595.4,448.9v47.2c0,11.2,7.3,21.1,17.9,24.5l0,0c10.7,3.4,17.9,13.3,17.9,24.5v2.3 c0,14.2-11.5,25.7-25.8,25.7c-2.8,0-5.6-0.5-8.3-1.4l-176.9-60.1c-10.4-3.6-17.5-13.4-17.5-24.4v-29.7c0-11,7-20.8,17.5-24.4 l176.9-60.1c13.5-4.6,28.1,2.6,32.7,16.1c0.9,2.7,1.4,5.5,1.4,8.3v2.3c0,11.2-7.3,21.1-17.9,24.5l0,0 C602.6,427.8,595.4,437.7,595.4,448.9z"></path> </g> </svg> 