<?xml version="1.0" encoding="utf-8"?>
<!-- Generator: Adobe Illustrator 16.0.0, SVG Export Plug-In . SVG Version: 6.00 Build 0)  -->
<!DOCTYPE svg PUBLIC "-//W3C//DTD SVG 1.1//EN" "http://www.w3.org/Graphics/SVG/1.1/DTD/svg11.dtd">
<svg version="1.1" id="Layer_1" xmlns="http://www.w3.org/2000/svg" xmlns:xlink="http://www.w3.org/1999/xlink" x="0px" y="0px"
	 width="1680px" height="900px" viewBox="0 0 1680 900" enable-background="new 0 0 1680 900" xml:space="preserve">
<rect x="0" fill="#FFFFFF" width="1680" height="900"/>
<g opacity="0.3">
	
		<image overflow="visible" opacity="0.8" enable-background="new    " width="1146" height="1142" xlink:href="7280598129B7E14D.png"  transform="matrix(0.239 0 0 0.2392 882.385 214.6406)">
	</image>
	<g>
		<path fill="#FFFFFF" d="M1060.3,308c27,25.7,30.5,65.9,7.899,89.7c-22.699,23.8-62.899,22.2-89.899-3.5s-30.5-65.9-7.9-89.7
			C993,280.7,1033.3,282.3,1060.3,308z"/>
	</g>
</g>
<g opacity="0.6">
	
		<image overflow="visible" opacity="0.8" enable-background="new    " width="871" height="854" xlink:href="7280598129B7E14F.png"  transform="matrix(0.2381 0 0 0.2392 963.5432 204.4053)">
	</image>
	<g>
		<path fill="#FFFFFF" d="M1080.5,292.4c22.5,21.4,34.8,45.1,27.399,52.8c-7.399,7.7-31.5-3.4-54-24.8s-34.8-45.1-27.399-52.8
			C1033.8,259.9,1058,271,1080.5,292.4z"/>
	</g>
</g>
<g>
	<path fill="#FFFFFF" d="M1119.5,286l-35.9-35.9c-13.9-13.9-32.3-21.5-51.9-21.5c-19.6,0-38,7.6-51.899,21.5L943.9,286
		c-13.899,13.9-21.5,32.3-21.5,51.9s7.601,38,21.5,51.9l35.9,35.9c13.899,13.899,32.3,21.5,51.899,21.5
		c19.101,0,37.101-7.3,50.9-20.5l0.1-0.101l0.101-0.1l36.8-36.8c13.9-13.9,21.5-32.3,21.5-51.9C1141,318.3,1133.4,299.9,1119.5,286z
		"/>
</g>
<g opacity="0.6">
	
		<image overflow="visible" opacity="0.8" enable-background="new    " width="738" height="729" xlink:href="7280598129B7E14A.png"  transform="matrix(0.2384 0 0 0.2377 102.0276 106.9199)">
	</image>
	<g>
		<path fill="#FFFFFF" d="M201.3,181.7c19.1,18.2,29.5,38.2,23.3,44.8s-26.8-2.9-45.899-21.1c-19.101-18.2-29.5-38.2-23.301-44.8
			C161.7,154,182.2,163.5,201.3,181.7z"/>
	</g>
</g>
<g opacity="0.6">
	
		<image overflow="visible" opacity="0.8" enable-background="new    " width="738" height="725" xlink:href="7280598129B7E14B.png"  transform="matrix(0.2384 0 0 0.239 166.6721 47.4395)">
	</image>
	<g>
		<path fill="#FFFFFF" d="M265.9,122.2C285,140.4,295.4,160.4,289.2,167c-6.2,6.6-26.801-2.9-45.9-21.1
			c-19.1-18.2-29.5-38.2-23.3-44.8C226.3,94.6,246.9,104,265.9,122.2z"/>
	</g>
</g>
<g opacity="0.6">
	
		<image overflow="visible" opacity="0.8" enable-background="new    " width="1442" height="1408" xlink:href="7280598129B7E155.png"  transform="matrix(0.2393 0 0 0.2397 489.2278 -93.7686)">
	</image>
	<g>
		<path fill="#FFFFFF" d="M679.8,55.8c48.5,46.2,79.7,92.2,69.7,102.8s-57.5-18.5-106-64.7C595,47.6,563.8,1.6,573.8-8.9
			S631.3,9.6,679.8,55.8z"/>
	</g>
</g>
<path opacity="0.4" fill="#66CC66" d="M1189.4,223.5l-3.5-3.5c-1.3-1.4-3.1-2.1-5.1-2.1c-1.9,0-3.7,0.7-5.101,2.1l-3.5,3.5
	c-1.399,1.4-2.1,3.1-2.1,5.1c0,1.9,0.7,3.7,2.1,5.1l3.5,3.5c1.4,1.4,3.101,2.1,5.101,2.1c1.899,0,3.6-0.7,5-2l0,0l0,0l3.6-3.6
	c1.4-1.4,2.101-3.1,2.101-5.1C1191.5,226.7,1190.8,224.9,1189.4,223.5z M1187.1,231.1l-3.6,3.6c-0.7,0.6-1.601,1-2.601,1
	s-1.899-0.4-2.6-1.1l1.7-1.7c0.199,0.2,0.5,0.4,0.899,0.4c0.3,0,0.7-0.1,0.9-0.4l3.5-3.5c0.2-0.2,0.399-0.5,0.399-0.9
	c0-0.3-0.1-0.7-0.399-0.9c-0.2-0.2-0.5-0.4-0.9-0.4c-0.3,0-0.7,0.1-0.899,0.4l-3.5,3.5c-0.7,0.7-1.601,1.1-2.601,1.1
	s-1.899-0.4-2.6-1.1c-0.7-0.7-1.101-1.6-1.101-2.6s0.4-1.9,1.101-2.6l3.5-3.5c0.7-0.7,1.6-1.1,2.6-1.1s1.9,0.4,2.601,1.1l-1.7,1.7
	c-0.2-0.2-0.5-0.4-0.9-0.4c-0.3,0-0.7,0.1-0.899,0.4l-3.5,3.5c-0.2,0.2-0.4,0.5-0.4,0.9c0,0.3,0.1,0.7,0.4,0.9
	c0.199,0.2,0.5,0.4,0.899,0.4c0.3,0,0.7-0.1,0.9-0.4l3.5-3.5c0.7-0.7,1.6-1.1,2.6-1.1s1.9,0.4,2.601,1.1c0.699,0.7,1.1,1.6,1.1,2.6
	C1188.199,229.5,1187.8,230.5,1187.1,231.1z"/>
<path fill="#F6F6F6" d="M743.699,63.7L676.3-3.4c-26-26-60.601-40.2-97.4-40.2c-36.7,0-71.3,14.2-97.4,40.2L414,63.7
	c-26.101,25.9-40.4,60.4-40.4,97c0,36.6,14.3,71.1,40.4,97l67.5,67.2c26.1,25.9,60.6,40.2,97.399,40.2c35.8,0,69.7-13.7,95.601-38.4
	l0.1-0.1l0.1-0.1l69-68.7c26-25.9,40.4-60.4,40.4-97C784.1,124.1,769.8,89.6,743.699,63.7"/>
<g>
	
		<line fill="none" stroke="#FFFFFF" stroke-width="35.4328" stroke-linecap="round" stroke-linejoin="round" stroke-miterlimit="10" x1="494" y1="160.7" x2="661.699" y2="160.7"/>
	<polyline fill="none" stroke="#FFFFFF" stroke-width="35.4328" stroke-linejoin="round" stroke-miterlimit="10" points="
		577.9,74.8 663.699,160.7 577.9,246.6 	"/>
</g>
<path opacity="0.4" fill="#E5E5E5" enable-background="new    " d="M1517,62.7l-27.2-27.1c-10.5-10.5-24.5-16.2-39.3-16.2
	c-14.801,0-28.801,5.8-39.301,16.2L1384,62.7c-10.5,10.5-16.301,24.4-16.301,39.1c0,14.7,5.801,28.7,16.301,39.1l27.199,27.1
	c10.5,10.5,24.5,16.2,39.301,16.2c14.5,0,28.1-5.5,38.6-15.5h0.1l0.101-0.1L1517,141c10.5-10.5,16.3-24.4,16.3-39.2
	C1533.3,87,1527.5,73.2,1517,62.7"/>
<g>
	
		<line fill="none" stroke="#FFFFFF" stroke-width="16" stroke-linecap="round" stroke-linejoin="round" stroke-miterlimit="10" x1="1450.4" y1="136.1" x2="1450.4" y2="68.5"/>
	<polyline fill="none" stroke="#FFFFFF" stroke-width="16" stroke-linejoin="round" stroke-miterlimit="10" points="1415.8,102.3 
		1450.4,67.6 1485.1,102.3 	"/>
</g>
<g>
	<path fill="#FFFFFF" d="M299.1,116.7l-30.5-30.5c-11.8-11.8-27.399-18.3-44-18.3c-16.6,0-32.3,6.5-44,18.3L150,116.7
		c-11.8,11.8-18.3,27.4-18.3,44c0,16.6,6.5,32.3,18.3,44l30.5,30.5c11.8,11.8,27.399,18.3,44,18.3c16.2,0,31.5-6.2,43.2-17.4
		l0.1-0.1l0.1-0.1l31.2-31.2c11.8-11.8,18.3-27.4,18.3-44C317.3,144.2,310.9,128.5,299.1,116.7z"/>
</g>
<g>
	<path fill="#66CC66" d="M185.7,162.4h-8.9c0,1.3,0.4,2.3,1.2,3c0.8,0.8,1.7,1.1,2.8,1.1c1.9,0,3.1-0.8,3.8-2.5l0.9,0.2
		c-0.7,2.1-2.4,3.2-4.7,3.2c-1.3,0-2.5-0.5-3.5-1.4s-1.5-2.2-1.5-3.7s0.5-2.8,1.5-3.7c1-1,2.2-1.4,3.6-1.4
		c1.301,0,2.5,0.5,3.301,1.4c0.899,0.9,1.399,2.1,1.399,3.5v0.3H185.7z M178.3,159c-0.8,0.7-1.2,1.5-1.4,2.6h7.801
		c-0.2-2.2-1.801-3.6-3.801-3.6C180,158,179.1,158.3,178.3,159z"/>
	<path fill="#66CC66" d="M197.8,152.8v14.4h-1v-2.1c-0.9,1.5-2.4,2.3-4.2,2.3c-1.399,0-2.5-0.5-3.5-1.4s-1.399-2.2-1.399-3.7
		s0.5-2.7,1.399-3.7c1-1,2.101-1.4,3.5-1.4c1.8,0,3.4,0.9,4.2,2.3v-6.7H197.8L197.8,152.8z M195.6,165.3c0.8-0.8,1.2-1.8,1.2-3.1
		c0-1.3-0.4-2.3-1.2-3.1c-0.8-0.8-1.8-1.2-2.899-1.2c-1.101,0-2.101,0.4-2.9,1.2c-0.8,0.8-1.2,1.8-1.2,3.1c0,1.3,0.4,2.3,1.2,3.1
		c0.8,0.8,1.8,1.2,2.9,1.2C193.8,166.5,194.8,166.1,195.6,165.3z"/>
	<path fill="#66CC66" d="M210.4,157.4v9.8h-1v-2.1c-0.8,1.5-2.199,2.3-4,2.3c-1.199,0-2.1-0.4-2.899-1.2
		c-0.7-0.8-1.101-1.8-1.101-3.1v-5.8h1v5.7c0,2.1,1.2,3.4,3.101,3.4c2.3,0,3.899-1.6,3.899-4.2v-4.9h1V157.4z"/>
	<path fill="#66CC66" d="M221.9,164.1l0.9,0.3c-0.3,0.9-0.8,1.6-1.6,2.2c-0.801,0.6-1.801,0.8-2.9,0.8c-1.4,0-2.6-0.5-3.6-1.4
		s-1.5-2.2-1.5-3.7s0.5-2.7,1.5-3.7s2.199-1.4,3.6-1.4c1.1,0,2,0.3,2.8,0.8c0.8,0.6,1.4,1.3,1.7,2.2l-0.9,0.3
		c-0.5-1.5-1.899-2.5-3.6-2.5c-1.1,0-2.1,0.4-2.9,1.2c-0.8,0.8-1.199,1.8-1.199,3c0,1.3,0.399,2.3,1.199,3.1
		c0.801,0.8,1.801,1.2,2.9,1.2C220,166.5,221.5,165.6,221.9,164.1z"/>
	<path fill="#66CC66" d="M234.8,157.4v9.8h-1v-2.1c-0.9,1.4-2.4,2.3-4.2,2.3c-1.399,0-2.6-0.5-3.5-1.4c-1-0.9-1.399-2.2-1.399-3.7
		s0.5-2.7,1.399-3.7c1-1,2.101-1.4,3.5-1.4c1.8,0,3.3,0.9,4.2,2.3v-2.1H234.8z M232.6,165.3c0.8-0.8,1.2-1.8,1.2-3.1
		c0-1.3-0.4-2.3-1.2-3.1c-0.8-0.8-1.8-1.2-2.899-1.2c-1.101,0-2.101,0.4-2.9,1.2c-0.8,0.8-1.2,1.8-1.2,3.1c0,1.3,0.4,2.3,1.2,3.1
		c0.8,0.8,1.8,1.2,2.9,1.2C230.8,166.5,231.8,166.1,232.6,165.3z"/>
	<path fill="#66CC66" d="M243.9,166.6c-0.699,0.5-1.399,0.8-2.1,0.8c-1.8,0-2.9-1.1-2.9-3v-6.2h-2.1v-0.8h2.1v-3.2h1v3.2h3.7v0.8
		h-3.7v6.1c0,1.3,0.801,2.1,2,2.1c0.601,0,1.2-0.2,1.7-0.7L243.9,166.6z"/>
	<path fill="#66CC66" d="M246.8,155.1c-1,0.1-1-1.6,0-1.5C247.7,153.6,247.7,155.2,246.8,155.1z M247.2,167.2h-1v-9.8h1V167.2z"/>
	<path fill="#66CC66" d="M255.5,157.2c1.5,0,2.7,0.5,3.7,1.5s1.5,2.2,1.5,3.6c0,1.5-0.5,2.7-1.5,3.7s-2.2,1.5-3.7,1.5
		s-2.7-0.5-3.7-1.5s-1.5-2.2-1.5-3.7s0.5-2.7,1.5-3.6C252.8,157.6,254,157.2,255.5,157.2z M258.5,159.2c-0.8-0.8-1.8-1.2-3-1.2
		s-2.2,0.4-3,1.2c-0.8,0.8-1.2,1.8-1.2,3c0,1.2,0.4,2.2,1.2,3c0.8,0.8,1.8,1.2,3,1.2s2.2-0.4,3-1.2c0.8-0.8,1.2-1.8,1.2-3
		C259.7,161,259.3,160,258.5,159.2z"/>
	<path fill="#66CC66" d="M271.4,158.3c0.7,0.8,1.101,1.8,1.101,3v5.8h-1v-5.7c0-2.1-1.2-3.4-3.101-3.4c-2.399,0-3.899,1.6-3.899,4.2
		v4.9h-1v-9.8h1v2.1c0.8-1.5,2.1-2.3,4-2.3C269.7,157.1,270.6,157.5,271.4,158.3z"/>
</g>
<path opacity="0.4" fill="#E5E5E5" enable-background="new    " d="M1240.6,79.4l-6.7-6.6c-2.6-2.6-6-4-9.6-4
	c-3.601,0-7,1.4-9.601,4L1208,79.4c-2.601,2.6-4,6-4,9.6s1.399,7,4,9.6l6.699,6.6c2.601,2.6,6,4,9.601,4c3.5,0,6.899-1.4,9.399-3.8
	l0,0l0,0l6.801-6.8c2.6-2.6,4-6,4-9.6C1244.6,85.4,1243.1,82,1240.6,79.4"/>
<line fill="none" stroke="#FFFFFF" stroke-width="6" stroke-miterlimit="10" x1="1224.6" y1="80" x2="1224.6" y2="98"/>
<line fill="none" stroke="#FFFFFF" stroke-width="6" stroke-miterlimit="10" x1="1233.6" y1="89" x2="1215.6" y2="89"/>
<g>
	<g>
		<path fill="#EDEDED" d="M986.6,374l14.6-59.9c2.101-8.6,10.7-13.9,19.3-11.8c8.601,2.1,13.9,10.7,11.801,19.3
			c-0.7,2.7-2,5.2-3.801,7.1L986.6,374z"/>
	</g>
	<g>
		<path fill="#EDEDED" d="M1029.6,374l14.6-59.9c2.101-8.6,10.7-13.9,19.301-11.8c8.6,2.1,13.899,10.7,11.8,19.3
			c-0.7,2.7-2,5.2-3.8,7.1L1029.6,374z"/>
	</g>
</g>
</svg>
