<?xml version="1.0" encoding="utf-8"?>
<!-- Generator: Adobe Illustrator 16.0.0, SVG Export Plug-In . SVG Version: 6.00 Build 0)  -->
<!DOCTYPE svg PUBLIC "-//W3C//DTD SVG 1.1//EN" "http://www.w3.org/Graphics/SVG/1.1/DTD/svg11.dtd">
<svg version="1.1" id="Layer_1" xmlns="http://www.w3.org/2000/svg" xmlns:xlink="http://www.w3.org/1999/xlink" x="0px" y="0px"
	 width="800px" height="800px" viewBox="0 0 800 800" enable-background="new 0 0 800 800" xml:space="preserve">
<g>
	<g opacity="0.6">
		<path fill="#EEEEEE" d="M657.5,256.2L549.8,148.7c-41.5-41.6-96.6-64.5-155.3-64.5c-58.6,0-113.8,22.8-155.3,64.5L131.6,256.2
			C90,297.8,67.2,353,67.2,411.6c0,58.6,22.8,113.8,64.4,155.3l107.6,107.5c41.6,41.7,96.7,64.5,155.3,64.5
			c57.1,0,111.2-21.8,152.4-61.4l0.3-0.2l0.2-0.3l110.1-110.1c41.6-41.5,64.5-96.7,64.5-155.3C722,353,699.1,297.8,657.5,256.2z"/>
	</g>
	<g opacity="0.4">
		<linearGradient id="SVGID_1_" gradientUnits="userSpaceOnUse" x1="139.8447" y1="586.9678" x2="523.9763" y2="322.4842">
			<stop  offset="0" style="stop-color:#FFFFFF;stop-opacity:0.6"/>
			<stop  offset="0.1524" style="stop-color:#F0F8FF;stop-opacity:0.6609"/>
			<stop  offset="0.4825" style="stop-color:#D5ECFF;stop-opacity:0.793"/>
			<stop  offset="0.7757" style="stop-color:#C5E5FF;stop-opacity:0.9103"/>
			<stop  offset="1" style="stop-color:#BFE2FF"/>
		</linearGradient>
		<path fill="url(#SVGID_1_)" d="M657.5,256.2L549.8,148.7c-41.5-41.6-96.6-64.5-155.3-64.5c-58.6,0-113.8,22.8-155.3,64.5
			L131.6,256.2C90,297.8,67.2,353,67.2,411.6c0,58.6,22.8,113.8,64.4,155.3l107.6,107.5c41.6,41.7,96.7,64.5,155.3,64.5
			c57.1,0,111.2-21.8,152.4-61.4l0.3-0.2l0.2-0.3l110.1-110.1c41.6-41.5,64.5-96.7,64.5-155.3C722,353,699.1,297.8,657.5,256.2z"/>
	</g>
	<g>
		<defs>
			<path id="SVGID_6_" d="M658.3,256.2L550.6,148.7C509.2,107,454,84.2,395.3,84.2c-58.6,0-113.8,22.8-155.3,64.5L132.4,256.2
				C90.8,297.8,68,353,68,411.6c0,58.6,22.8,113.8,64.4,155.3L240,674.5c41.6,41.7,96.7,64.5,155.3,64.5
				c57.1,0,111.2-21.8,152.4-61.4l0.3-0.2l0.2-0.3l110.1-110.1c41.6-41.5,64.5-96.7,64.5-155.3C722.8,353,699.9,297.8,658.3,256.2z"
				/>
		</defs>
		<clipPath id="SVGID_3_">
			<use xlink:href="#SVGID_6_"  overflow="visible"/>
		</clipPath>
		<g clip-path="url(#SVGID_3_)">
			<g>
				<g>
					<path fill="#FFFFFF" d="M405.6,700c-9.6,0-18.1-6.9-19.7-16.7l-67.5-405.4c-0.9-5.2,0.4-10.6,3.5-14.9c3.1-4.3,7.8-7.2,13-8.1
						l57.8-9.6c0.6-0.1,1.1-0.2,1.7-0.2l257.3-42.8c5.9-1,11.9-1.5,17.8-1.5c14.8,0,29.4,3.1,43,9c15.3-14,34.3-23.3,55-26.8l258-43
						c0.3-0.1,0.7-0.1,1-0.2l57.8-9.6c1.1-0.2,2.2-0.3,3.3-0.3c4.1,0,8.2,1.3,11.6,3.7c4.3,3.1,7.2,7.8,8.1,13l67.5,405.4
						c1.8,10.9-5.5,21.2-16.4,23l-57.8,9.6c-0.5,0.1-1,0.1-1.5,0.2l-257.5,42.9c-5.1,0.8-8.5,5.7-7.7,10.8c1,6.1-0.8,12.3-5,16.8
						c-3,3.2-6.8,5.3-11,6.1c-0.2,0-0.4,0.1-0.5,0.1l-57.8,9.6c-1.1,0.2-2.2,0.3-3.3,0.3c-4.1,0-8.2-1.3-11.6-3.7
						c-4.3-3.1-7.2-7.8-8.1-13l-11.2-67.1l-15.1,2.5l6.3,38.1c1.8,10.9-5.5,21.2-16.4,23l-231.8,38.6c-0.5,0.1-1.1,0.3-1.7,0.3
						l-57.8,9.6C407.8,700,406.7,700,405.6,700z"/>
					<path fill="#FFFFFF" d="M1087.6,149.9l67.5,405.4l-57.8,9.6l0-0.1l-259,43.1c-16,2.7-26.8,17.9-24.1,33.8l-0.1,0l0,0l-57.8,9.6
						l-57.8-347.5c-1.8-11.1-9.7-19.6-19.6-23l-0.6-3.4l-13.5,2.2c-0.1,0-0.1,0-0.2,0l0.2,0c1.6-0.3,3.1-0.4,4.7-0.4
						c3.2,0,6.4,0.5,9.4,1.6l47.7,286.2l-39.2,6.6l9.6,57.8l-233.4,38.9l0,0.1l-57.8,9.6l-67.5-405.4L396,265l0,0.1l259-43.1
						c4.9-0.8,9.7-1.2,14.5-1.2c17,0,33.3,5,47.1,13.8c13.1-16.4,32-28.2,54.2-31.9l259.1-43.1l0,0L1087.6,149.9 M1087.6,109.9
						c-2.2,0-4.4,0.2-6.6,0.5l-57.8,9.6c-0.5,0.1-1,0.2-1.5,0.3l-257.6,42.9c-20.3,3.4-39.3,11.6-55.5,23.7
						c-12.6-4.1-25.8-6.2-39.2-6.2c-7,0-14.1,0.6-21.1,1.8l-256.6,42.7c-0.8,0.1-1.6,0.2-2.4,0.3l-57.8,9.6
						c-10.5,1.7-19.8,7.6-26,16.2c-6.2,8.6-8.7,19.4-6.9,29.8l67.5,405.4c3.3,19.6,20.2,33.4,39.4,33.4c2.2,0,4.4-0.2,6.6-0.5
						l57.8-9.6c0.8-0.1,1.6-0.3,2.4-0.5l231.1-38.5c5.6-0.9,10.7-3,15.2-5.9c2.7,7.6,7.7,14.2,14.3,18.9c6.8,4.9,15,7.5,23.3,7.5
						c2.2,0,4.4-0.2,6.6-0.5l57.8-9.6c0.3-0.1,0.7-0.1,1-0.2c8.4-1.6,16.1-5.8,22-12.2c5.9-6.4,9.5-14.5,10.4-23l247.8-41.3
						c0.7-0.1,1.4-0.2,2.1-0.3l57.8-9.6c21.8-3.6,36.5-24.2,32.9-46l-67.5-405.4c-1.7-10.5-7.6-19.8-16.2-26
						C1104,112.4,1095.9,109.9,1087.6,109.9L1087.6,109.9z"/>
				</g>
			</g>
			<g>
				<g>
					<path fill="#FFF9EE" d="M132,843.1c-0.7,0-1.3,0-2-0.1l-58.3-5.8c-0.5-0.1-1-0.1-1.5-0.2L-189.5,811c-0.3,0-0.6,0-0.9,0
						c-4.7,0-8.8,3.7-9.3,8.5c-0.6,6.2-4.1,11.7-9.3,15c-3.2,2-6.9,3-10.6,3c-0.6,0-1.1,0-1.7-0.1c-0.1,0-0.3,0-0.4,0l-58.3-5.8
						c-5.3-0.5-10.1-3.1-13.5-7.2c-3.4-4.1-5-9.4-4.4-14.7l6.8-67.7l-15.2-1.5l-3.8,38.4c-1,10.3-9.7,18-19.9,18c-0.7,0-1.3,0-2-0.1
						L-566,773.4c-0.6,0-1.1,0-1.7-0.1l-58.3-5.8c-11-1.1-19-10.9-17.9-21.9l40.8-409c0.5-5.3,3.1-10.1,7.2-13.5
						c3.6-2.9,8.1-4.5,12.7-4.5c0.7,0,1.3,0,2,0.1l58.3,5.8c0.6,0.1,1.1,0.1,1.7,0.2l259.5,25.9c20.9,2.1,40.5,10.1,56.7,23.1
						c15.2-7.9,32-12,49.4-12c3.6,0,7.2,0.2,10.7,0.5l260.3,26c0.4,0,0.7,0,1.1,0.1l58.3,5.8c5.3,0.5,10.1,3.1,13.5,7.2
						c3.4,4.1,5,9.4,4.4,14.7l-40.8,408.9c-0.5,5.3-3.1,10.1-7.2,13.5C141.1,841.5,136.6,843.1,132,843.1z"/>
					<path fill="#FFF9EE" d="M-583.2,338.7l58.3,5.8l0,0.1l261.2,26.1c22.4,2.2,42.1,12.8,56.2,28.2c14.7-10.8,32.7-17,51.9-17
						c2.9,0,5.8,0.1,8.8,0.4l261.3,26.1l0,0l58.3,5.8L132,823.1l-58.3-5.8l0-0.1l-261.3-26.1c-1-0.1-1.9-0.1-2.9-0.1
						c-14.9,0-27.7,11.4-29.2,26.5l-0.1,0l0,0l-58.3-5.8l35-350.5c1.1-11.2-4.2-21.5-12.9-27.3l0.3-3.4l-13.6-1.4
						c-0.1,0-0.1,0-0.2,0l0.2,0c4.9,0.5,9.4,2.2,13.3,4.8l-28.8,288.7l-39.6-3.9l-5.8,58.3l-235.5-23.5l0,0.1l-58.3-5.8
						L-583.2,338.7 M-583.2,298.7c-9.2,0-18.2,3.2-25.3,9c-8.2,6.7-13.4,16.4-14.5,27l-40.8,409c-2.2,22,13.8,41.6,35.8,43.8
						l58.3,5.8c0.8,0.1,1.6,0.1,2.4,0.2l233.1,23.3c1.3,0.1,2.7,0.2,4,0.2c4.2,0,8.3-0.7,12.2-1.9c0.7,8,3.7,15.7,8.9,22
						c6.7,8.2,16.4,13.4,27,14.5l58.3,5.8c0.2,0,0.5,0,0.7,0.1c1.1,0.1,2.3,0.1,3.4,0.1c7.4,0,14.8-2.1,21.2-6.1
						c7.4-4.6,13.1-11.5,16.1-19.6l250,25c0.7,0.1,1.4,0.2,2.1,0.3l58.3,5.8c1.3,0.1,2.7,0.2,4,0.2c9.2,0,18.2-3.2,25.3-9
						c8.2-6.7,13.4-16.4,14.5-27l40.8-408.9c1.1-10.6-2.1-21.1-8.9-29.3c-6.7-8.2-16.4-13.4-27-14.5l-58.3-5.8
						c-0.5-0.1-1-0.1-1.5-0.1l-259.8-25.9c-4.2-0.4-8.5-0.6-12.7-0.6c-16.3,0-32.3,3.1-47.1,9c-17-11.1-36.5-18-57-20L-518.5,305
						c-0.8-0.1-1.6-0.2-2.4-0.3l-58.3-5.8C-580.5,298.7-581.9,298.7-583.2,298.7L-583.2,298.7z"/>
				</g>
			</g>
			<path opacity="0.1" fill="none" stroke="#000000" stroke-width="18" stroke-miterlimit="10" d="M659.7,250.9
				c31.9-5.3,62.2,16.3,67.6,48.3l-0.6-3.4l58.4,350.9"/>
		</g>
		<g clip-path="url(#SVGID_3_)">
			<g>
				<circle fill="#EFD9D0" cx="264.9" cy="291.7" r="25.8"/>
				
					<rect x="130.3" y="29.1" transform="matrix(-0.7071 0.7071 -0.7071 -0.7071 395.8257 201.8939)" fill="#EFD9D0" width="51.6" height="307.6"/>
				
					<rect x="74.5" y="40.1" transform="matrix(-0.7071 0.7071 -0.7071 -0.7071 261.0586 146.0789)" fill="#EDDECC" width="51.6" height="174"/>
				<path fill="#EFD5CE" d="M133.7,197c-10.1-10.1-10.1-26.4,0-36.5l0,0c10.1-10.1,26.4-10.1,36.5,0l19.7,19.7
					c10.1,10.1,10.1,26.4,0,36.5l0,0c-10.1,10.1-26.4,10.1-36.5,0L133.7,197z"/>
				<path opacity="0.4" fill="#FFFFFF" d="M232.1,289.8c-8.5-8.5-1.6-15.5,6.9-24l0,0c8.5-8.5,15.5-15.4,24-6.9l16.7,16.7
					c8.5,8.5,8.5,22.3,0,30.9l0,0c-8.5,8.5-22.3,8.5-30.9,0L232.1,289.8z"/>
				<path opacity="0.3" fill="#FFFFFF" d="M262.9,258.9l16.7,16.7c8.5,8.5,8.5,22.3,0,30.9l0,0c-8.5,8.5-22.3,8.5-30.9,0l-9-9"/>
			</g>
			<g>
				
					<rect x="-3.6" y="157.7" transform="matrix(-0.7071 0.7071 -0.7071 -0.7071 186.9194 367.9871)" fill="#EDDECC" width="41.6" height="130"/>
				<path fill="#EAD0C7" d="M40.6,275.4c-8.1-8.1-8.1-21.3,0-29.4l0,0c8.1-8.1,21.3-8.1,29.4,0l15.9,15.9c8.1,8.1,8.1,21.3,0,29.4
					l0,0c-8.1,8.1-21.3,8.1-29.4,0L40.6,275.4z"/>
			</g>
			<g>
				<path fill="#EAD0C7" d="M-23.7,288.6c-7.7-7.7-7.7-20.1,0-27.7l0,0c7.7-7.7,20.1-7.7,27.7,0l15,15c7.7,7.7,7.7,20.1,0,27.7l0,0
					c-7.7,7.7-20.1,7.7-27.7,0L-23.7,288.6z"/>
			</g>
			<g>
				<path fill="#EFD9D0" d="M293.1,149.7c-14.2-3.8-22.7-18.3-19-32.6c3.8-14.2,18.3-22.7,32.6-19c14.2,3.8,22.7,18.3,19,32.6
					C321.9,145,307.3,153.5,293.1,149.7z"/>
				
					<rect x="176.6" y="-1.5" transform="matrix(-0.2548 0.967 -0.967 -0.2548 350.22 -72.9552)" fill="#EFD9D0" width="53.3" height="199.9"/>
				<polygon fill="#EDDECC" points="87.6,95.6 101.2,44 161,59.8 147.4,111.3 				"/>
				<path fill="#EAD0C7" d="M183.6,100.9c-10.4-2.7-17.2-11.2-15.1-18.9l0,0c2-7.7,12.1-11.7,22.5-9l20.3,5.4
					c10.4,2.7,17.2,11.2,15.1,18.9l0,0c-2,7.7-12.1,11.7-22.5,9L183.6,100.9z"/>
				<path opacity="0.4" fill="#FFFFFF" d="M274.6,124.9c-12.1-3.2-10.3-9.9-8.2-18.1l0,0c2.2-8.2,4-14.9,16-11.7l23.5,6.2
					c12.1,3.2,17,13,14.8,21.3l0,0c-2.2,8.2-10.6,11.7-22.7,8.6L274.6,124.9z"/>
			</g>
			<g>
				<path fill="#EFD9D0" d="M217.8,369.2c-10.1-10.1-10.1-26.4,0-36.5c10.1-10.1,26.4-10.1,36.5,0c10.1,10.1,10.1,26.4,0,36.5
					C244.2,379.3,227.9,379.3,217.8,369.2z"/>
				
					<rect x="92.6" y="66.8" transform="matrix(-0.7071 0.7071 -0.7071 -0.7071 367.0048 314.4695)" fill="#EFD9D0" width="51.6" height="332.9"/>
				
					<rect x="36.8" y="77.8" transform="matrix(-0.7071 0.7071 -0.7071 -0.7071 232.2451 258.6483)" fill="#EDDECC" width="51.6" height="199.3"/>
				<path fill="#EAD0C7" d="M104.9,256.3c-10.1-10.1-10.1-26.4,0-36.5l0,0c10.1-10.1,26.4-10.1,36.5,0l19.7,19.7
					c10.1,10.1,10.1,26.4,0,36.5l0,0c-10.1,10.1-26.4,10.1-36.5,0L104.9,256.3z"/>
				<path opacity="0.4" fill="#FFFFFF" d="M203.3,349c-8.5-8.5-1.6-15.5,6.9-24l0,0c8.5-8.5,15.5-15.4,24-6.9l16.7,16.7
					c8.5,8.5,8.5,22.3,0,30.9l0,0c-8.5,8.5-22.3,8.5-30.9,0L203.3,349z"/>
				<path opacity="0.2" fill="#FFFFFF" d="M234.1,318.1l16.7,16.7c8.5,8.5,8.5,22.3,0,30.9l0,0c-8.5,8.5-22.3,8.5-30.9,0l-9-9"/>
			</g>
			
				<line opacity="9.999999e-02" fill="none" stroke="#EFD5CE" stroke-width="6.6312" stroke-linecap="round" stroke-linejoin="round" stroke-miterlimit="10" x1="223.1" y1="230.4" x2="204.2" y2="249.3"/>
			
				<line opacity="0.4" fill="none" stroke="#EFD5CE" stroke-width="6.6312" stroke-linecap="round" stroke-linejoin="round" stroke-miterlimit="10" x1="169.7" y1="177" x2="150.8" y2="195.9"/>
			
				<line opacity="0.3" fill="none" stroke="#EFD5CE" stroke-width="6.6312" stroke-linecap="round" stroke-linejoin="round" stroke-miterlimit="10" x1="142.5" y1="238.4" x2="123.6" y2="257.3"/>
			
				<line opacity="0.4" fill="none" stroke="#EFD5CE" stroke-width="4.5861" stroke-linecap="round" stroke-linejoin="round" stroke-miterlimit="10" x1="207.1" y1="224.2" x2="198" y2="233.3"/>
			
				<line opacity="0.4" fill="none" stroke="#EFD5CE" stroke-width="4.5861" stroke-linecap="round" stroke-linejoin="round" stroke-miterlimit="10" x1="199.6" y1="305.4" x2="190.5" y2="314.4"/>
		</g>
		<path clip-path="url(#SVGID_3_)" fill="#DCF8FF" d="M223.1,492.7l-52.4-65.3c-3.4-4.2-8.3-6.9-13.7-7.4c-0.3,0-0.7-0.1-1-0.1
			l-260.3-26c-3.6-0.4-7.2-0.5-10.7-0.5c-17.4,0-34.2,4.1-49.4,12c-16.2-13-35.8-21-56.7-23.1l-259.5-25.9c-0.6-0.1-1.1-0.2-1.7-0.2
			l-58.3-5.8c-0.7-0.1-1.3-0.1-2-0.1c-4.6,0-9.1,1.6-12.7,4.5c-4.1,3.4-6.7,8.2-7.2,13.5l-40.8,409c-1.1,11,6.9,20.8,17.9,21.9
			l58.3,5.8c0.6,0.1,1.1,0.1,1.7,0.1l233.8,23.3c0.7,0.1,1.3,0.1,2,0.1c10.2,0,18.8-7.7,19.9-18l3.8-38.4l15.2,1.5l-6.8,67.7
			c-0.5,5.3,1.1,10.6,4.4,14.7c3.4,4.1,8.2,6.7,13.5,7.2l58.3,5.8c0.2,0,0.4,0,0.6,0c0.5,0,1.1,0.1,1.6,0.1c3.7,0,7.5-1.1,10.7-3.1
			c5.2-3.3,8.6-8.8,9.2-14.9c0.5-4.8,4.6-8.5,9.3-8.5c0.3,0,0.6,0,0.9,0l259.8,25.9c0.5,0.1,1,0.2,1.5,0.2l58.3,5.8
			c0.7,0.1,1.3,0.1,2,0.1c4.6,0,9.1-1.6,12.7-4.5c4.1-3.4,6.7-8.2,7.2-13.5l34.9-349.5C227.9,502,226.3,496.7,223.1,492.7z
			 M-110.6,413.5c-0.5,0-1,0-1.4,0C-111.5,413.5-111,413.5-110.6,413.5z M-114.8,413.4c-1.3,0-2.6,0-3.8,0.1
			c1.2-0.1,2.4-0.1,3.6-0.1C-115,413.4-114.9,413.4-114.8,413.4z M-150,822.6c-0.2,0-0.4,0-0.6,0
			C-150.3,822.6-150.1,822.6-150,822.6z M-163.9,428.3c-1,0.7-2,1.4-3,2.1C-165.9,429.7-164.9,429-163.9,428.3z M-119.3,413.5
			c-1.1,0.1-2.2,0.1-3.3,0.2C-121.4,413.7-120.4,413.6-119.3,413.5z M-123.8,413.9c-0.8,0.1-1.7,0.2-2.5,0.3
			C-125.5,414.1-124.7,414-123.8,413.9z M-127.8,414.4c-0.8,0.1-1.6,0.2-2.4,0.4C-129.4,414.6-128.6,414.5-127.8,414.4z M-131.6,415
			c-0.8,0.2-1.6,0.3-2.3,0.5C-133.1,415.3-132.4,415.2-131.6,415z M-135.3,415.8c-0.8,0.2-1.6,0.4-2.4,0.6
			C-136.9,416.2-136.1,416-135.3,415.8z M-139,416.8c-1,0.3-2,0.6-2.9,0.9C-140.9,417.3-139.9,417-139,416.8z M-142.5,417.9
			c-1.2,0.4-2.4,0.8-3.5,1.3C-144.9,418.7-143.7,418.3-142.5,417.9z M-146.9,419.5c-0.9,0.3-1.7,0.7-2.6,1.1
			C-148.7,420.1-147.8,419.8-146.9,419.5z M-150.7,421.1c-0.7,0.3-1.5,0.7-2.2,1C-152.2,421.7-151.5,421.4-150.7,421.1z
			 M-154.2,422.7c-0.7,0.3-1.4,0.7-2,1.1C-155.6,423.4-154.9,423-154.2,422.7z M-157.6,424.5c-0.7,0.4-1.3,0.8-2,1.2
			C-158.9,425.2-158.2,424.8-157.6,424.5z M-160.8,426.3c-0.7,0.4-1.4,0.9-2.1,1.4C-162.2,427.2-161.5,426.8-160.8,426.3z
			 M-214,466.4c-0.5-0.4-0.9-0.7-1.4-1C-214.9,465.7-214.5,466.1-214,466.4z M-202.6,492.7c0.1-0.6,0.1-1.2,0.1-1.9
			C-202.5,491.4-202.5,492.1-202.6,492.7z M-202.5,490.3c0-0.5,0-1,0-1.4C-202.5,489.3-202.5,489.8-202.5,490.3z M-202.6,486.6
			c0.1,0.6,0.1,1.2,0.1,1.8C-202.5,487.8-202.6,487.2-202.6,486.6z M-202.7,486.3c-0.1-0.5-0.1-1-0.2-1.5
			C-202.8,485.3-202.7,485.8-202.7,486.3z M-203,484.3c-0.1-0.5-0.2-1-0.3-1.5C-203.2,483.3-203.1,483.8-203,484.3z M-203.4,482.5
			c-0.1-0.6-0.3-1.1-0.5-1.7C-203.7,481.4-203.5,482-203.4,482.5z M-204,480.4c-0.1-0.4-0.3-0.9-0.5-1.3
			C-204.3,479.5-204.1,480-204,480.4z M-204.6,478.7c-0.2-0.5-0.5-1.1-0.7-1.6C-205.1,477.6-204.9,478.1-204.6,478.7z M-205.4,476.9
			c-0.2-0.5-0.5-1-0.7-1.4C-205.9,476-205.7,476.4-205.4,476.9z M-206.4,475.1c-0.2-0.4-0.5-0.8-0.7-1.2
			C-206.9,474.3-206.6,474.7-206.4,475.1z M-207.4,473.5c-0.3-0.5-0.7-1-1-1.4C-208,472.6-207.7,473.1-207.4,473.5z M-208.6,471.8
			c-0.3-0.4-0.6-0.7-0.9-1.1C-209.2,471.1-208.9,471.5-208.6,471.8z M-209.8,470.4c-0.4-0.4-0.7-0.8-1.1-1.2
			C-210.5,469.6-210.1,470-209.8,470.4z M-211,469.1c-0.4-0.4-0.8-0.8-1.3-1.2C-211.8,468.3-211.4,468.7-211,469.1z M-212.6,467.6
			c-0.3-0.3-0.7-0.6-1-0.9C-213.3,467-213,467.3-212.6,467.6z M-170.6,831.1c-0.1,0.1-0.2,0.3-0.4,0.4
			C-170.8,831.3-170.7,831.2-170.6,831.1z M-169.6,830.1c-0.1,0.1-0.2,0.2-0.3,0.3C-169.8,830.3-169.7,830.2-169.6,830.1z
			 M-171.5,832.1c-0.1,0.1-0.3,0.3-0.4,0.4C-171.8,832.3-171.6,832.2-171.5,832.1z M-172.4,833.1c-0.1,0.2-0.3,0.3-0.4,0.5
			C-172.7,833.4-172.5,833.2-172.4,833.1z M-173.3,834.2c-0.1,0.2-0.2,0.3-0.4,0.5C-173.5,834.5-173.4,834.3-173.3,834.2z
			 M-174.1,835.3c-0.1,0.2-0.2,0.3-0.3,0.5C-174.3,835.6-174.2,835.5-174.1,835.3z M-174.8,836.4c-0.1,0.2-0.2,0.4-0.3,0.5
			C-175.1,836.8-175,836.6-174.8,836.4z M-175.6,837.6c-0.1,0.2-0.2,0.4-0.3,0.6C-175.8,838-175.7,837.8-175.6,837.6z M-176.2,838.9
			c-0.1,0.2-0.2,0.4-0.3,0.6C-176.4,839.3-176.3,839.1-176.2,838.9z M-176.8,840.1c-0.1,0.2-0.2,0.4-0.2,0.6
			C-177,840.5-176.9,840.3-176.8,840.1z M-177.3,841.4c-0.1,0.2-0.2,0.4-0.2,0.6C-177.5,841.8-177.4,841.6-177.3,841.4z
			 M-177.8,842.8c-0.1,0.2-0.1,0.4-0.2,0.6C-177.9,843.2-177.9,843-177.8,842.8z M-178.2,844.2c-0.1,0.2-0.1,0.4-0.2,0.6
			C-178.3,844.6-178.3,844.4-178.2,844.2z M-178.6,845.6c0,0.2-0.1,0.4-0.1,0.6C-178.7,846-178.6,845.8-178.6,845.6z M-178.9,847.1
			c0,0.2-0.1,0.3-0.1,0.5C-178.9,847.4-178.9,847.3-178.9,847.1z M-168.5,829.2c0.1-0.1,0.2-0.2,0.3-0.2
			C-168.3,829.1-168.4,829.2-168.5,829.2z M-167,828.1c-0.1,0.1-0.3,0.2-0.4,0.3C-167.3,828.3-167.2,828.2-167,828.1z M-165.2,826.9
			c0.2-0.1,0.4-0.2,0.5-0.3C-164.8,826.7-165,826.8-165.2,826.9z M-166.3,827.6c0.2-0.1,0.3-0.2,0.5-0.3
			C-166,827.4-166.2,827.5-166.3,827.6z M-151.4,822.6c-0.2,0-0.4,0-0.6,0C-151.8,822.6-151.6,822.6-151.4,822.6z M-152.8,822.7
			c-0.2,0-0.4,0.1-0.6,0.1C-153.2,822.7-153,822.7-152.8,822.7z M-154.2,822.9c-0.2,0-0.4,0.1-0.6,0.1
			C-154.7,822.9-154.4,822.9-154.2,822.9z M-155.6,823.1c-0.2,0-0.4,0.1-0.6,0.1C-156,823.2-155.8,823.2-155.6,823.1z M-157,823.4
			c-0.2,0.1-0.4,0.1-0.6,0.2C-157.4,823.5-157.2,823.5-157,823.4z M-158.3,823.8c-0.2,0.1-0.4,0.1-0.6,0.2
			C-158.7,823.9-158.5,823.9-158.3,823.8z M-159.6,824.2c-0.2,0.1-0.4,0.1-0.6,0.2C-160,824.4-159.8,824.3-159.6,824.2z
			 M-160.9,824.7c-0.2,0.1-0.4,0.2-0.6,0.2C-161.3,824.9-161.1,824.8-160.9,824.7z M-162.2,825.3c-0.2,0.1-0.4,0.2-0.6,0.3
			C-162.6,825.5-162.4,825.4-162.2,825.3z M-163.4,825.9c-0.2,0.1-0.4,0.2-0.6,0.3C-163.8,826.1-163.6,826-163.4,825.9z
			 M-149.1,822.6c0.2,0,0.4,0,0.6,0C-148.7,822.6-148.9,822.6-149.1,822.6z"/>
		<g clip-path="url(#SVGID_3_)">
			<linearGradient id="SVGID_4_" gradientUnits="userSpaceOnUse" x1="323.1533" y1="247.6587" x2="731.5361" y2="247.6587">
				<stop  offset="0" style="stop-color:#D9EBFF"/>
				<stop  offset="0.2911" style="stop-color:#E9F4FF;stop-opacity:0.7089"/>
				<stop  offset="0.6903" style="stop-color:#F9FCFF;stop-opacity:0.3097"/>
				<stop  offset="1" style="stop-color:#FFFFFF;stop-opacity:0"/>
			</linearGradient>
			
				<path fill="none" stroke="url(#SVGID_4_)" stroke-width="30" stroke-linecap="round" stroke-linejoin="round" stroke-miterlimit="10" d="
				M716.5,234.5c-17.7-11.3-39.4-16.3-61.6-12.6l-316.8,52.7"/>
		</g>
	</g>
	<g opacity="0.7">
		<path fill="#CCCCCC" d="M493.9,356.6l-8.6,8.6c-1.6,1.5-3.8,2.5-6.2,2.5c-2.5,0-4.7-1-6.3-2.6l4.2-4.2c0.6,0.6,1.3,0.9,2.2,0.9
			c0.8,0,1.6-0.3,2.1-0.9l8.5-8.5c0.5-0.5,0.9-1.3,0.9-2.1c0-0.8-0.3-1.6-0.9-2.1c-0.6-0.5-1.3-0.9-2.2-0.9c-0.8,0-1.6,0.3-2.1,0.9
			l-8.5,8.5c-1.6,1.6-3.9,2.6-6.3,2.6c-2.5,0-4.7-1-6.3-2.6c-1.6-1.6-2.6-3.9-2.6-6.3c0-2.5,1-4.7,2.6-6.3l8.5-8.5
			c1.6-1.6,3.9-2.6,6.3-2.6c2.5,0,4.7,1,6.3,2.6l-4.2,4.2c-0.5-0.5-1.3-0.9-2.1-0.9c-0.8,0-1.6,0.3-2.2,0.9l-8.5,8.5
			c-0.5,0.5-0.9,1.3-0.9,2.1c0,0.8,0.3,1.6,0.9,2.1c0.5,0.5,1.3,0.9,2.1,0.9s1.6-0.3,2.1-0.9l8.5-8.5c1.6-1.6,3.9-2.6,6.3-2.6
			c2.5,0,4.7,1,6.3,2.6c1.6,1.6,2.6,3.9,2.6,6.3C496.6,352.7,495.6,354.9,493.9,356.6z"/>
	</g>
	<g opacity="0.6">
		<path fill="#66CC66" d="M434.3,347.7l-5.6-5.6c-2.2-2.2-5.1-3.4-8.1-3.4c-3.1,0-6,1.2-8.1,3.4l-5.6,5.6c-2.2,2.2-3.4,5.1-3.4,8.1
			s1.2,6,3.4,8.1l5.6,5.6c2.2,2.2,5.1,3.4,8.1,3.4c3,0,5.8-1.1,8-3.2l0,0l0,0l5.8-5.8c2.2-2.2,3.4-5.1,3.4-8.1
			S436.5,349.8,434.3,347.7z"/>
	</g>
	<g>
		<path fill="#66CC66" d="M492.9,272.5l-5.6-5.6c-2.2-2.2-5.1-3.4-8.1-3.4c-3.1,0-6,1.2-8.1,3.4l-5.6,5.6c-2.2,2.2-3.4,5.1-3.4,8.1
			s1.2,6,3.4,8.1l5.6,5.6c2.2,2.2,5.1,3.4,8.1,3.4c3,0,5.8-1.1,8-3.2l0,0l0,0l5.8-5.8c2.2-2.2,3.4-5.1,3.4-8.1
			S495.1,274.7,492.9,272.5z"/>
	</g>
	<g>
		<path fill="#66CC66" d="M74.4,216.5l-2.9-2.9c-1.1-1.1-2.6-1.8-4.2-1.8c-1.6,0-3.1,0.6-4.2,1.8l-2.9,2.9c-1.1,1.1-1.8,2.6-1.8,4.2
			s0.6,3.1,1.8,4.2l2.9,2.9c1.1,1.1,2.6,1.8,4.2,1.8c1.6,0,3-0.6,4.1-1.7l0,0l0,0l3-3c1.1-1.1,1.8-2.6,1.8-4.2
			S75.5,217.6,74.4,216.5z"/>
	</g>
	<g>
		
			<path fill="#E2F4F7" stroke="#E2F4F7" stroke-width="7.7488" stroke-linecap="round" stroke-linejoin="round" stroke-miterlimit="10" d="
			M729.7,185.8l-3.5-7.6c-1.3-3-3.7-5.2-6.8-6.3c-3-1.1-6.3-1-9.3,0.3l-7.6,3.5c-3,1.3-5.2,3.8-6.3,6.8c-1.1,3-1,6.3,0.3,9.3
			l3.5,7.6c1.3,3,3.8,5.2,6.8,6.3c2.9,1.1,6.2,1,9.1-0.2l0,0l0,0l7.8-3.6c3-1.3,5.2-3.7,6.3-6.8C731.1,192,731,188.7,729.7,185.8z"
			/>
	</g>
	<g>
		<path fill="#66CC66" d="M142.6,256.9l-10.7-10.7c-4.1-4.1-9.6-6.4-15.4-6.4c-5.8,0-11.3,2.3-15.5,6.4l-10.7,10.7
			c-4.1,4.1-6.4,9.6-6.4,15.5s2.3,11.3,6.4,15.5l10.7,10.7c4.1,4.1,9.6,6.4,15.5,6.4c5.7,0,11.1-2.2,15.2-6.1l0,0l0,0l11-11
			c4.1-4.1,6.4-9.6,6.4-15.5S146.7,261,142.6,256.9z"/>
	</g>
	
		<line opacity="0.4" fill="none" stroke="#CCCCCC" stroke-width="12.8077" stroke-linecap="round" stroke-linejoin="round" stroke-miterlimit="10" x1="341.4" y1="326.4" x2="499.5" y2="318.8"/>
	
		<line opacity="0.6" fill="none" stroke="#EEEEEE" stroke-width="12.8077" stroke-miterlimit="10" x1="341.4" y1="385.1" x2="499.7" y2="384.8"/>
	
		<line opacity="0.8" fill="none" stroke="#EEEEEE" stroke-width="12.8077" stroke-miterlimit="10" x1="446" y1="280.6" x2="445.5" y2="431"/>
	
		<line opacity="0.4" fill="none" stroke="#CCCCCC" stroke-width="12.8077" stroke-linecap="round" stroke-linejoin="round" stroke-miterlimit="10" x1="395.1" y1="280.7" x2="395.4" y2="431.1"/>
	<line fill="none" stroke="#000000" stroke-width="18" stroke-miterlimit="10" x1="547.5" y1="317.2" x2="741.7" y2="284.9"/>
	<line fill="none" stroke="#000000" stroke-width="18" stroke-miterlimit="10" x1="540.3" y1="276" x2="678.3" y2="253"/>
	<path fill="#CEEAED" d="M168.8,425.4l-2.8,25.8c-1.1,10,1.8,19.7,8,27.5c6.1,7.6,14.8,12.4,24.4,13.6l0.1,0l0.1,0l26.4,2.8l0,0l0,0
		h0C225,495.1,169.1,425.3,168.8,425.4"/>
	<g>
		
			<line fill="none" stroke="#FFFFFF" stroke-width="8" stroke-linecap="round" stroke-linejoin="round" stroke-miterlimit="10" x1="116.5" y1="260.4" x2="116.5" y2="284.3"/>
		
			<line fill="none" stroke="#FFFFFF" stroke-width="8" stroke-linecap="round" stroke-linejoin="round" stroke-miterlimit="10" x1="128.4" y1="272.4" x2="104.5" y2="272.4"/>
	</g>
	<g>
		<g>
			<path fill="#FFFFFF" d="M627.8,137.7c-0.8,0-1.6-0.2-2.2-0.7l-27.4-19.3c-2.3-1.6-3.8-3.9-4.2-6.7c-0.5-2.7,0.1-5.4,1.7-7.7
				l18.9-26.9c0.7-1,1.9-1.6,3.2-1.6c0.3,0,0.6,0,0.8,0.1c1.5,0.3,2.7,1.6,3,3.1l10.1,55.1c0.3,1.5-0.4,3.1-1.7,4
				C629.3,137.5,628.5,137.7,627.8,137.7z"/>
			<path fill="#E6E7E8" d="M617.7,78.7l10.1,55.1l-27.4-19.3c-2.9-2-3.6-6.1-1.6-9L617.7,78.7 M617.7,71c-2.5,0-4.9,1.2-6.3,3.3
				l-18.9,26.9c-2.2,3.1-3,6.9-2.4,10.6c0.7,3.7,2.7,7,5.8,9.2l27.4,19.3c1.3,0.9,2.9,1.4,4.5,1.4c1.5,0,2.9-0.4,4.2-1.2
				c2.6-1.7,4-4.8,3.4-7.9l-10.1-55.1c-0.6-3.1-2.9-5.5-6-6.2C618.8,71,618.3,71,617.7,71L617.7,71z"/>
		</g>
		<g>
			<path fill="#FFFFFF" d="M644.2,124c-1.9,0-3.7-0.6-5.2-1.6l-21.6-15.2c-2-1.4-3.3-3.5-3.7-5.8c-0.4-2.4,0.1-4.8,1.5-6.7l15.5-22
				c1.7-2.4,4.5-3.8,7.4-3.8c1.9,0,3.7,0.6,5.2,1.6l21.6,15.2c4.1,2.9,5.1,8.5,2.2,12.6l-15.5,22C649.9,122.6,647.1,124,644.2,124z"
				/>
			<path fill="#E6E7E8" d="M638.1,72.7c1,0,2.1,0.3,3,0.9l21.6,15.2c2.3,1.6,2.9,4.9,1.3,7.2l-15.5,22c-1,1.4-2.6,2.2-4.2,2.2
				c-1,0-2.1-0.3-3-0.9l-21.6-15.2c-2.3-1.6-2.9-4.9-1.3-7.2l15.5-22C634.8,73.4,636.4,72.7,638.1,72.7 M638.1,64.9L638.1,64.9
				c-4.2,0-8.2,2.1-10.6,5.5l-15.5,22c-2,2.8-2.7,6.2-2.2,9.6c0.6,3.4,2.5,6.4,5.3,8.3l21.6,15.2c2.2,1.5,4.7,2.3,7.4,2.3
				c4.2,0,8.2-2.1,10.6-5.5l15.5-22c4.1-5.8,2.7-13.9-3.1-18l-21.6-15.2C643.3,65.7,640.7,64.9,638.1,64.9L638.1,64.9z"/>
		</g>
		<g>
			<path fill="#FFFFFF" d="M634.7,142.5c-4.9,0-9-3.5-9.9-8.3l-5.5-31.7c-0.5-2.6,0.1-5.3,1.7-7.5c1.5-2.2,3.8-3.7,6.5-4.1l31.1-5.4
				c0.6-0.1,1.2-0.2,1.7-0.2c4.9,0,9,3.5,9.9,8.3l5.5,31.7c1,5.5-2.7,10.7-8.2,11.6l-31.1,5.4C635.8,142.4,635.3,142.5,634.7,142.5z
				"/>
			<path fill="#E6E7E8" d="M660.3,89.1c2.9,0,5.5,2.1,6.1,5.1l5.5,31.7c0.6,3.4-1.7,6.6-5,7.1l-31.1,5.4c-0.4,0.1-0.7,0.1-1.1,0.1
				c-2.9,0-5.5-2.1-6.1-5.1l-5.5-31.7c-0.6-3.4,1.7-6.6,5-7.1l31.1-5.4C659.5,89.2,659.9,89.1,660.3,89.1 M660.3,81.4L660.3,81.4
				c-0.8,0-1.6,0.1-2.4,0.2L626.7,87c-3.7,0.6-6.9,2.7-9,5.7c-2.1,3-3,6.7-2.3,10.4l5.5,31.7c1.2,6.7,6.9,11.5,13.7,11.5
				c0.8,0,1.6-0.1,2.4-0.2l31.1-5.4c7.6-1.3,12.6-8.5,11.3-16.1L674,92.9C672.8,86.2,667,81.4,660.3,81.4L660.3,81.4z"/>
		</g>
		<g>
			<path fill="#EEEEEE" d="M657.4,103.1c-0.4,0-0.7-0.1-1.1-0.2l-49.6-14.8c-1-0.3-1.8-1-2.3-1.8c-1.3-2.3-1.6-4.9-0.8-7.5
				c0.7-2.5,2.4-4.6,4.7-5.9l26.6-14.6c1.4-0.8,3.1-1.2,4.7-1.2c3.6,0,6.9,1.9,8.6,5.1l14.9,27.1c1.3,2.3,1.6,4.9,0.8,7.5
				c-0.7,2.5-2.4,4.6-4.7,5.9C658.7,103,658.1,103.1,657.4,103.1z"/>
			<path fill="#EEEEEE" d="M639.6,61c2.1,0,4.1,1.1,5.2,3.1l14.9,27.1c1.6,2.9,0.5,6.5-2.3,8.1l-49.6-14.8c-1.6-2.9-0.5-6.5,2.3-8.1
				l26.6-14.6C637.7,61.2,638.7,61,639.6,61 M639.6,53.2L639.6,53.2c-2.3,0-4.6,0.6-6.6,1.7l-26.6,14.6c-3.2,1.8-5.5,4.7-6.5,8.2
				c-1,3.5-0.6,7.2,1.1,10.4c1,1.8,2.6,3.1,4.6,3.7l49.6,14.8c0.7,0.2,1.5,0.3,2.2,0.3c1.3,0,2.6-0.3,3.7-1c3.2-1.8,5.5-4.7,6.6-8.2
				c1-3.5,0.6-7.2-1.1-10.4l-14.9-27.1C649.2,56,644.6,53.2,639.6,53.2L639.6,53.2z"/>
		</g>
		<g>
			<path fill="#E2F4F7" d="M623.4,152.1c-0.8,0-1.6-0.2-2.2-0.7l-25.2-17.7c-4.4-3.1-5.5-9.2-2.4-13.6l17.4-24.8
				c0.7-1,1.9-1.6,3.2-1.6c0.3,0,0.6,0,0.8,0.1c1.5,0.3,2.7,1.6,3,3.1l9.3,50.7c0.3,1.5-0.4,3.1-1.7,4
				C624.8,151.9,624.1,152.1,623.4,152.1z"/>
			<path fill="#E2F4F7" d="M614.1,97.4l9.3,50.7l-25.2-17.7c-2.7-1.9-3.3-5.6-1.4-8.2L614.1,97.4 M614.1,89.7
				c-2.5,0-4.9,1.2-6.3,3.3l-17.4,24.8c-4.3,6.2-2.8,14.7,3.3,19l25.2,17.7c1.3,0.9,2.9,1.4,4.5,1.4c1.5,0,2.9-0.4,4.2-1.2
				c2.6-1.7,4-4.8,3.4-7.9L621.7,96c-0.6-3.1-2.9-5.5-6-6.2C615.2,89.8,614.6,89.7,614.1,89.7L614.1,89.7z"/>
		</g>
		<g>
			<path fill="#FFFFFF" d="M639.1,148c-4.6,0-8.7-3.1-9.9-7.5l-8.8-31.7c-0.4-1.5,0.1-3.1,1.3-4.1c0.7-0.6,1.5-0.8,2.4-0.8
				c0.6,0,1.3,0.2,1.9,0.5l49,27.2c1.4,0.8,2.2,2.3,2,3.8c-0.2,1.6-1.3,2.9-2.8,3.3l-32.3,9C641,147.9,640.1,148,639.1,148z"/>
			<path fill="#EDEDED" d="M624.1,107.7l49,27.2l-32.3,9c-0.6,0.2-1.2,0.2-1.7,0.2c-2.8,0-5.4-1.9-6.2-4.7L624.1,107.7 M624.1,100
				c-1.7,0-3.4,0.6-4.8,1.7c-2.5,1.9-3.5,5.2-2.7,8.2l8.8,31.7c1.7,6.1,7.3,10.4,13.7,10.4c1.3,0,2.6-0.2,3.8-0.5l32.3-9
				c3-0.8,5.2-3.4,5.6-6.6c0.4-3.1-1.2-6.2-3.9-7.7l-49-27.2C626.7,100.3,625.4,100,624.1,100L624.1,100z"/>
		</g>
		<g>
			<path fill="#EEF7FF" d="M640.3,123.2c-2.8,0-5.6-1.2-7.5-3.3l-22.5-24c-1.1-1.1-1.3-2.8-0.7-4.2c0.6-1.4,2-2.3,3.5-2.3
				c0,0,56.1,1.4,56.1,1.4c1.6,0,3,1,3.5,2.5c0.6,1.5,0.2,3.1-1,4.2l-24.5,22.9C645.4,122.2,642.9,123.2,640.3,123.2z"/>
			<path fill="#E6E7E8" d="M613.1,93.2l56,1.4l-24.5,22.9c-1.2,1.2-2.8,1.7-4.4,1.7c-1.7,0-3.4-0.7-4.7-2L613.1,93.2 M613.1,85.5
				c-3,0-5.8,1.8-7.1,4.6c-1.3,2.8-0.7,6.2,1.4,8.5l22.5,24c2.7,2.9,6.4,4.5,10.4,4.5c3.6,0,7-1.4,9.7-3.8l24.5-22.9
				c2.3-2.1,3.1-5.5,1.9-8.4c-1.1-2.9-3.9-4.9-7-5l-56-1.4C613.2,85.5,613.2,85.5,613.1,85.5L613.1,85.5z"/>
		</g>
	</g>
	<g opacity="0.7">
		<path fill="#CCCCCC" d="M373.6,298.5l-8.6,8.6c-1.6,1.5-3.8,2.5-6.2,2.5c-2.5,0-4.7-1-6.3-2.6l4.2-4.2c0.6,0.6,1.3,0.9,2.2,0.9
			c0.8,0,1.6-0.3,2.1-0.9l8.5-8.5c0.5-0.5,0.9-1.3,0.9-2.1c0-0.8-0.3-1.6-0.9-2.1c-0.6-0.5-1.3-0.9-2.2-0.9c-0.8,0-1.6,0.3-2.1,0.9
			l-8.5,8.5c-1.6,1.6-3.9,2.6-6.3,2.6c-2.5,0-4.7-1-6.3-2.6c-1.6-1.6-2.6-3.9-2.6-6.3c0-2.5,1-4.7,2.6-6.3l8.5-8.5
			c1.6-1.6,3.9-2.6,6.3-2.6c2.5,0,4.7,1,6.3,2.6l-4.2,4.2c-0.5-0.5-1.3-0.9-2.1-0.9c-0.8,0-1.6,0.3-2.2,0.9l-8.5,8.5
			c-0.5,0.5-0.9,1.3-0.9,2.1c0,0.8,0.3,1.6,0.9,2.1c0.5,0.5,1.3,0.9,2.2,0.9c0.8,0,1.6-0.3,2.1-0.9l8.5-8.5c1.6-1.6,3.9-2.6,6.3-2.6
			c2.5,0,4.7,1,6.3,2.6c1.6,1.6,2.6,3.9,2.6,6.3C376.2,294.7,375.2,296.9,373.6,298.5z"/>
	</g>
	<g>
		<path opacity="0.4" fill="#CCCCCC" d="M539.7,474.8c0.3,2.2-1.3,4.2-3.5,4.5l-135,17.1c-2.2,0.3-4.2-1.3-4.5-3.5l-0.9-6.7
			c-0.3-2.2,1.3-4.2,3.5-4.5l135-17.1c2.2-0.3,4.2,1.3,4.5,3.5L539.7,474.8z"/>
		<path d="M471,512c0.3,2.2-1.3,4.2-3.5,4.5l-62.8,7.9c-2.2,0.3-4.2-1.3-4.5-3.5l-0.9-6.7c-0.3-2.2,1.3-4.2,3.5-4.5l62.8-7.9
			c2.2-0.3,4.2,1.3,4.5,3.5L471,512z"/>
		<path opacity="0.4" fill="#CCCCCC" d="M662.9,490.3c0.3,2.2-1.3,4.2-3.5,4.5l-62.8,7.9c-2.2,0.3-4.2-1.3-4.5-3.5l-0.9-6.7
			c-0.3-2.2,1.3-4.2,3.5-4.5l62.8-7.9c2.2-0.3,4.2,1.3,4.5,3.5L662.9,490.3z"/>
		<path opacity="0.4" fill="#CCCCCC" d="M579.1,498.3c0.3,2.2-1.3,4.2-3.5,4.5l-87.2,11c-2.2,0.3-4.2-1.3-4.5-3.5l-0.9-6.7
			c-0.3-2.2,1.3-4.2,3.5-4.5l87.2-11c2.2-0.3,4.2,1.3,4.5,3.5L579.1,498.3z"/>
		<path opacity="0.4" fill="#CCCCCC" d="M626.8,458.9c0.4,2.2-1.1,4.2-3.3,4.6L555.7,475c-2.2,0.4-4.2-1.1-4.6-3.3L550,465
			c-0.4-2.2,1.1-4.2,3.3-4.6l67.8-11.4c2.2-0.4,4.2,1.1,4.6,3.3L626.8,458.9z"/>
	</g>
	<g>
		<path opacity="0.4" fill="#CCCCCC" d="M481.3,570.7c0.3,2.2-1.3,4.2-3.5,4.5l-62.8,7.9c-2.2,0.3-4.2-1.3-4.5-3.5l-0.9-6.7
			c-0.3-2.2,1.3-4.2,3.5-4.5l62.8-7.9c2.2-0.3,4.2,1.3,4.5,3.5L481.3,570.7z"/>
		<path opacity="0.4" fill="#CCCCCC" d="M561,560.5c0.3,2.2-1.3,4.2-3.5,4.5l-62.8,7.9c-2.2,0.3-4.2-1.3-4.5-3.5l-0.9-6.7
			c-0.3-2.2,1.3-4.2,3.5-4.5l62.8-7.9c2.2-0.3,4.2,1.3,4.5,3.5L561,560.5z"/>
		<path opacity="0.4" fill="#CCCCCC" d="M502.2,539.6c0.3,2.2-1.3,4.2-3.5,4.5l-87.2,11c-2.2,0.3-4.2-1.3-4.5-3.5l-0.9-6.7
			c-0.3-2.2,1.3-4.2,3.5-4.5l87.2-11c2.2-0.3,4.2,1.3,4.5,3.5L502.2,539.6z"/>
	</g>
</g>
</svg>
