<?xml version="1.0" encoding="UTF-8"?> <svg xmlns="http://www.w3.org/2000/svg" width="112" height="64" viewBox="0 0 112 64" fill="none"> <g clip-path="url(#clip0)"> <path d="M16.453 35.75c0 .262.035.514.115.766.503 1.534 2.953 2.976 4.292 3.72.573.32 1.19.573 1.82.722.492.102.996.148 1.511.102 1.156-.114 2.29-.766 2.805-1.808.297-.595.355-1.282.229-1.935a3.703 3.703 0 00-.653-1.488c-1.476-1.957-7.99-4.006-9.707-1.43-.274.4-.412.88-.412 1.35z" fill="#A3DFEF"></path> <path d="M16.453 35.75c.023.068.057.136.092.205.698 1.454 3.308 2.564 4.739 3.137.606.24 1.247.412 1.9.469a4.493 4.493 0 001.51-.103c1.123-.263 2.164-1.053 2.542-2.14a3.703 3.703 0 00-.652-1.489c-1.477-1.957-7.99-4.006-9.707-1.43a2.33 2.33 0 00-.424 1.35z" fill="#CDF0FC"></path> <path d="M10.843 35.75c0 .262-.034.514-.114.766-.504 1.534-2.953 2.976-4.293 3.72-.572.32-1.19.573-1.831.722a5.125 5.125 0 01-1.511.102c-1.156-.114-2.29-.766-2.805-1.808a3.119 3.119 0 01-.229-1.935 3.703 3.703 0 01.653-1.488c1.476-1.957 7.99-4.006 9.707-1.43.286.4.423.88.423 1.35z" fill="#A3DFEF"></path> <path d="M10.844 35.75c-.023.068-.058.136-.092.205-.698 1.454-3.308 2.564-4.74 3.137a6.801 6.801 0 01-1.9.469 4.493 4.493 0 01-1.51-.103C1.48 39.195.438 38.405.06 37.318a3.703 3.703 0 01.652-1.489c1.477-1.957 7.99-4.006 9.707-1.43.286.4.424.88.424 1.35z" fill="#CDF0FC"></path> <path d="M7.158 20.456a.406.406 0 01-.4-.4v-2.29c0-.217.183-.4.4-.4.218 0 .401.183.401.4v2.29c0 .217-.172.4-.4.4z" fill="#070707"></path> <path d="M7.157 19.369l-.698 1.396h1.408l-.71-1.396z" fill="#333"></path> <path d="M7.868 21.166H6.46a.403.403 0 01-.344-.195.393.393 0 01-.011-.389l.71-1.397a.393.393 0 01.354-.217c.15 0 .286.08.355.217l.71 1.397a.424.424 0 01-.012.39.469.469 0 01-.354.194zm-.756-.802h.103l-.057-.102-.046.102z" fill="#070707"></path> <path d="M20.643 17.537L13.9 20.72l-6.742-3.182 6.742-3.125 6.743 3.125z" fill="#333"></path> <path d="M13.9 21.12a.46.46 0 01-.171-.034l-6.742-3.194a.408.408 0 010-.733l6.742-3.125a.419.419 0 01.332 0l6.754 3.137a.408.408 0 010 .732l-6.743 3.183a.46.46 0 01-.171.034zM8.11 17.537l5.803 2.736 5.804-2.736-5.804-2.678-5.803 2.678z" fill="#333"></path> <path d="M17.449 18.625v2.54s-1.237.768-3.549.768-3.548-.767-3.548-.767v-2.541c0-.516.354-.962.847-1.088a11.3 11.3 0 015.391 0c.504.126.859.572.859 1.088z" fill="#070707"></path> <path d="M13.9 22.333c-2.392 0-3.708-.8-3.754-.824l-.195-.114v-2.77c0-.699.48-1.305 1.156-1.477a11.818 11.818 0 015.586 0 1.52 1.52 0 011.156 1.477v2.758l-.194.115c-.046.034-1.362.835-3.755.835zm-3.148-1.42c.412.195 1.489.608 3.148.608 1.672 0 2.736-.413 3.148-.607v-2.29a.722.722 0 00-.55-.698 11.125 11.125 0 00-5.208 0 .722.722 0 00-.549.699v2.289h.011zM6.377 43.098c-.343 0-.698-.057-1.053-.172-.95-.32-1.66-1.144-1.74-2.049-.068-.687.218-1.442.767-2.003.71-.732 1.763-1.328 2.69-1.534.195-.046.39.08.435.275a.365.365 0 01-.274.435c-.779.172-1.718.71-2.324 1.328-.4.412-.607.938-.561 1.42.057.617.572 1.201 1.248 1.43 1.43.48 2.987-.458 4.36-1.305.344-.206.665-.4.985-.584a.362.362 0 01.492.15c.092.17.035.4-.148.491-.298.16-.618.355-.95.561-1.145.721-2.53 1.557-3.927 1.557zM21.41 43.098c.343 0 .698-.057 1.053-.172.95-.32 1.66-1.144 1.74-2.049.069-.687-.218-1.442-.767-2.003-.71-.732-1.763-1.328-2.69-1.534a.365.365 0 00-.435.275c-.046.195.08.39.275.435.778.172 1.717.71 2.324 1.328.4.412.606.938.56 1.42-.057.617-.572 1.201-1.247 1.43-1.431.48-2.988-.458-4.362-1.305-.343-.206-.663-.4-.984-.584a.362.362 0 00-.492.15.362.362 0 00.149.491c.297.16.618.355.95.561 1.144.721 2.518 1.557 3.926 1.557z" fill="#070707"></path> <path d="M7.099 43.178a.849.849 0 00.32 1.008c.321.206.79.148 1.054-.138.091-.103.16-.229.217-.366.069-.172.103-.355.092-.538-.023-.366-.424-.962-.859-.893-.286.046-.721.687-.824.927z" fill="#070707"></path> <path d="M7.854 44.678a1.24 1.24 0 01-.63-.172 1.23 1.23 0 01-.468-1.454c.091-.217.595-1.064 1.098-1.144a.932.932 0 01.722.217c.309.24.538.664.56 1.019.012.217-.022.446-.114.687a1.62 1.62 0 01-.286.48c-.218.23-.55.367-.882.367zm-.412-1.362a.484.484 0 00.184.56c.171.115.446.07.583-.08a.58.58 0 00.138-.252.783.783 0 00.068-.377.892.892 0 00-.286-.492.277.277 0 00-.149-.07c-.114.058-.458.505-.538.71zM20.675 43.178a.849.849 0 01-.32 1.008.852.852 0 01-1.053-.138 1.294 1.294 0 01-.218-.366 1.243 1.243 0 01-.092-.538c.023-.366.424-.962.859-.893.297.046.733.687.824.927z" fill="#070707"></path> <path d="M19.04 44.3a1.412 1.412 0 01-.287-.48 1.667 1.667 0 01-.114-.688c.023-.354.252-.767.56-1.018.23-.183.47-.252.722-.218.515.08 1.019.927 1.099 1.145a1.23 1.23 0 01-.47 1.454 1.21 1.21 0 01-.63.171 1.185 1.185 0 01-.88-.366zm1.304-.984c-.08-.207-.423-.653-.538-.699a.277.277 0 00-.148.069c-.172.137-.287.378-.287.492a.783.783 0 00.07.378c.045.103.09.195.137.252a.503.503 0 00.583.08c.172-.115.264-.378.183-.572zM13.203 46.269l.698 3.995.71-3.995h-1.408z" fill="#070707"></path> <path d="M13.901 50.55a.282.282 0 01-.274-.229l-.71-3.995a.315.315 0 01.057-.229.282.282 0 01.218-.103H14.6c.08 0 .16.035.217.103.057.069.08.149.057.23l-.71 3.994c0 .126-.125.229-.263.229zm-.366-3.995l.366 2.083.367-2.083h-.733z" fill="#070707"></path> <path d="M20.528 38.622a9.575 9.575 0 01-.778 2.702 13.937 13.937 0 01-1.523 2.598c-.102.126-.194.264-.297.39-.023.022-.046.057-.069.08-1.408 1.751-3.022 2.941-3.938 2.976h-.045c-.916-.046-2.53-1.225-3.938-2.976-.023-.023-.034-.046-.057-.07-.103-.125-.206-.25-.298-.388A13.7 13.7 0 018.04 41.3c-.378-.859-.653-1.763-.767-2.679a6.373 6.373 0 01-.023-1.476c0-.046.011-.092.011-.138.035-.343.103-.664.195-.973 1.179-3.972 6.422-4.12 6.422-4.12h.046s5.23.16 6.421 4.12c.092.298.16.618.195.973 0 .023 0 .046.011.08a6.26 6.26 0 01-.023 1.534z" fill="#070707"></path> <path d="M20.529 38.622a24.312 24.312 0 01-8.322.87c-1.66-.114-3.32-.4-4.922-.858a6.374 6.374 0 01-.023-1.477c0-.046.011-.091.011-.137a5.23 5.23 0 01.195-.973c2.072.32 4.155.687 6.238.767 2.244.091 4.442-.39 6.65-.767.092.297.161.618.195.973 0 .023 0 .045.012.08a6.789 6.789 0 01-.034 1.522zM19.759 41.324a13.933 13.933 0 01-1.522 2.598c-.103.126-.195.264-.298.39-.023.022-.046.057-.069.08-1.866.309-3.766.4-5.655.274a21.825 21.825 0 01-2.266-.263c-.023-.023-.034-.046-.057-.069-.103-.126-.206-.252-.298-.389a13.697 13.697 0 01-1.545-2.633c1.877.298 3.766.607 5.655.676 2.037.08 4.04-.31 6.055-.664zM16.554 34.273c-4.487 1.178-13.061-1.134-11.31-7.27.103-.377.23-.743.378-1.11.195-.492.423-.973.698-1.42 1.637-2.758 5.014-4.738 8.265-4.452 3.743.332 6.96 3.457 7.967 6.983.034.126.069.24.091.366.905 3.96-2.7 6.01-6.09 6.902z" fill="#FCCD06"></path> <path d="M14.048 30.793c-.802 0-1.649-.206-2.553-.619a.4.4 0 01-.195-.515c.092-.194.32-.274.515-.194 1.569.72 2.954.72 4.133.011a.375.375 0 01.526.126.375.375 0 01-.126.527 4.264 4.264 0 01-2.3.664z" fill="#070707"></path> <path d="M16.554 34.273c-4.487 1.178-13.061-1.134-11.31-7.27.103-.377.23-.743.378-1.11.206 2.026 1.122 4.03 2.873 5.163.79.504 1.694.813 2.599 1.042 1.934.469 3.983.56 5.906.068 1.923-.492 3.72-1.625 4.83-3.262.333-.48.596-.996.814-1.534.904 3.96-2.702 6.01-6.09 6.902z" fill="#FCA203"></path> <path d="M14.22 23.615l-.034-.114c-.412 0-1.041-.046-1.442-.16l-1.671-.481c-1.832-.527-4.82-.504-6.64.046l-1.018.309a.653.653 0 00-.47.64v.344c0 .126.035.24.103.344a.598.598 0 00.264.24c.206.103.343.31.377.538l.115 1.26a3.588 3.588 0 001.019 2.128c1.041 1.053 4.04 1.27 5.448.905a3.6 3.6 0 002.45-2.13l.56-1.556c.161-.401.55-.664.985-.676l-.046-1.637zm-2.323 3.904a3.41 3.41 0 01-1.145 1.03c-1.076.584-2.999.664-4.155.286-1.511-.492-2.13-2.152-2.05-3.629.024-.423.115-.858.413-1.167.458-.47 1.145-.538 1.751-.584a19.179 19.179 0 012.564-.011c1.042.057 2.988.263 3.194 1.568a3.515 3.515 0 01-.572 2.507z" fill="#070707"></path> <path d="M13.91 25.264c.435 0 .824.274.985.675l.56 1.557a3.628 3.628 0 002.45 2.129c1.397.355 4.407.149 5.449-.904a3.587 3.587 0 001.019-2.13l.114-1.259a.69.69 0 01.378-.538.666.666 0 00.366-.583v-.344a.653.653 0 00-.47-.64l-1.018-.31c-1.82-.55-4.808-.572-6.64-.046l-1.67.481c-.401.115-.802.172-1.214.16l-.263.115-.046 1.637zm1.763-.252c.206-1.317 2.152-1.511 3.194-1.568.858-.057 1.705-.035 2.564.011.607.035 1.293.115 1.751.584.298.298.39.744.412 1.167.08 1.477-.526 3.137-2.049 3.63-1.167.377-3.079.297-4.155-.287a3.207 3.207 0 01-1.145-1.03c-.48-.721-.71-1.626-.572-2.507z" fill="#070707"></path> <path d="M18.97 27.278a1.03 1.03 0 100-2.06 1.03 1.03 0 000 2.06zM9.15 27.278a1.03 1.03 0 100-2.06 1.03 1.03 0 000 2.06z" fill="#070707"></path> <path d="M19.91 25.893c0 .195-.16.355-.354.355a.357.357 0 01-.355-.355c0-.194.16-.355.355-.355.195 0 .355.16.355.355zM10.178 25.893c0 .195-.16.355-.354.355a.357.357 0 01-.355-.355c0-.194.16-.355.355-.355.194 0 .354.16.354.355z" fill="#fff"></path> <path d="M76.01 36.447c-.996.996-2.163 1.5-3.491 1.5-.824 0-1.603-.16-2.324-.492a5.863 5.863 0 01-1.889-1.362 6.394 6.394 0 01-1.27-2.038 6.812 6.812 0 01-.47-2.53c0-.858.16-1.671.47-2.426.309-.756.744-1.42 1.293-1.992a6.293 6.293 0 011.935-1.363 5.851 5.851 0 012.415-.503c1.18 0 2.186.252 3.022.744.836.492 1.477 1.156 1.9 1.992l-1.82 1.339a3.493 3.493 0 00-1.328-1.43 3.64 3.64 0 00-1.865-.493c-.527 0-1.02.114-1.454.332A3.51 3.51 0 0070 28.64c-.31.389-.55.835-.722 1.339a4.947 4.947 0 00-.251 1.602c0 .584.091 1.134.286 1.649.183.515.446.961.778 1.328.332.377.721.675 1.18.893.457.217.938.331 1.476.331 1.213 0 2.3-.572 3.285-1.717v-.87h-2.518v-1.785h4.533v6.444H76.01v-1.408zM88.807 35.726v2.14h-8.7V25.333h8.54v2.141h-6.101v3.022h5.277v1.98h-5.277v3.263h6.261v-.012zM99.42 35.726v2.14h-8.7V25.333h8.54v2.141H93.16v3.022h5.277v1.98h-5.277v3.263h6.261v-.012zM101.32 37.855V25.344h2.439v5.952l5.254-5.963h2.678l-4.796 5.563 5.105 6.97h-2.736l-3.903-5.414-1.602 1.672v3.743h-2.439v-.012zM42.036 34.627c0 .47-.092.905-.286 1.294-.184.389-.447.733-.756 1.019-.32.286-.687.515-1.11.675-.424.16-.882.24-1.362.24h-5.919V25.333h6.033c.435 0 .824.091 1.18.286.354.183.652.435.903.732.252.298.435.641.573 1.019.137.378.206.767.206 1.156 0 .641-.16 1.213-.481 1.74-.32.527-.756.916-1.328 1.18.721.217 1.282.606 1.706 1.178.435.572.64 1.236.64 2.003zm-8.185-8.219v4.625h4.304c.31 0 .596-.069.859-.195s.492-.297.675-.515c.183-.217.332-.458.447-.732a2.629 2.629 0 00.011-1.774 2.2 2.2 0 00-.423-.733 2.232 2.232 0 00-.641-.492 1.766 1.766 0 00-.813-.183H33.85zm6.949 8.013c0-.309-.058-.606-.16-.893a2.28 2.28 0 00-1.134-1.282 1.828 1.828 0 00-.858-.206H33.85v4.75h4.682c.32 0 .618-.068.893-.194s.515-.297.721-.515c.206-.217.366-.47.48-.755.115-.31.172-.607.172-.905zM52.785 36.768v1.099H44.37V25.333h8.265v1.098h-7.029v4.522h6.124v1.041h-6.124v4.785h7.178v-.011zM63.533 36.768v1.099h-8.414V25.333h8.265v1.098h-7.029v4.522h6.125v1.041h-6.125v4.785h7.178v-.011z" fill="#070707"></path> </g> <defs> <clipPath id="clip0"> <path fill="#fff" d="M0 0h112v64H0z"></path> </clipPath> </defs> </svg> 