<?xml version="1.0" encoding="UTF-8"?> <svg xmlns="http://www.w3.org/2000/svg" width="482" height="252" viewBox="0 0 482 252" fill="none"> <g id="Group 17"> <g id="Popup Copy 18"> <g id="pro-7"> <rect id="Rectangle Copy 16" width="482" height="252" rx="8" transform="matrix(-1 0 0 1 482 0)" fill="url(#paint0_linear)"></rect> <mask id="mask0" maskUnits="userSpaceOnUse" x="0" y="0" width="482" height="252"> <rect id="Rectangle Copy 16_2" width="482" height="252" rx="8" transform="matrix(-1 0 0 1 482 0)" fill="white"></rect> </mask> <g mask="url(#mask0)"> <path id="Stroke 21 Copy 6" d="M55 56L-29 186.108" stroke="white" stroke-width="10"></path> <path id="Stroke 21 Copy 25" d="M368 -102L284 28.1081" stroke="#FFCE6E" stroke-width="2"></path> <path id="Stroke 21 Copy 8" d="M461 52V218.162" stroke="#FFCE6E" stroke-width="20"></path> <path id="Stroke 21 Copy 14" d="M441 -108V51.8919" stroke="white" stroke-width="20"></path> <path id="Stroke 21 Copy 7" d="M425 110V274.483" stroke="white" stroke-width="5" stroke-linecap="round"></path> <path id="Stroke 21 Copy 15" d="M418 155.216V178.73" stroke="#FFCE6E" stroke-width="20" stroke-linecap="round"></path> <path id="Stroke 21 Copy 8_2" d="M221.803 205L132 382.443" stroke="#222437" stroke-width="41"></path> <path id="Stroke 21 Copy 14_2" fill-rule="evenodd" clip-rule="evenodd" d="M327.982 96.9691C327.982 96.9691 298.977 154.216 240.968 268.709L327.982 96.9691Z" stroke="#66CC66" stroke-width="25"></path> <path id="Stroke 21 Copy 16" d="M370.007 61.9681C370.007 61.9681 341.002 119.215 282.993 233.708" stroke="#F6F6F6" stroke-width="18"></path> <path id="Stroke 21 Copy 13" d="M425 84V148.27" stroke="#222437" stroke-width="33" stroke-linecap="round"></path> </g> </g> <path id="Title" d="M41.736 191.8H32.34V217H37.308V208.72H41.736C46.596 208.72 50.34 204.976 50.34 200.26C50.34 195.544 46.596 191.8 41.736 191.8ZM41.736 204.076H37.308V196.444H41.736C43.86 196.444 45.408 198.064 45.408 200.26C45.408 202.42 43.86 204.076 41.736 204.076ZM57.6157 202.096V199H52.9717V217H57.6157V208.396C57.6157 204.616 60.6757 203.536 63.0877 203.824V198.64C60.8197 198.64 58.5517 199.648 57.6157 202.096ZM73.7037 217.504C78.9957 217.504 83.2437 213.364 83.2437 208C83.2437 202.636 78.9957 198.496 73.7037 198.496C68.4117 198.496 64.1997 202.636 64.1997 208C64.1997 213.364 68.4117 217.504 73.7037 217.504ZM73.7037 212.968C70.9677 212.968 68.8437 210.916 68.8437 208C68.8437 205.084 70.9677 203.032 73.7037 203.032C76.4757 203.032 78.5997 205.084 78.5997 208C78.5997 210.916 76.4757 212.968 73.7037 212.968Z" fill="white"></path> <path id="Title Copy" d="M38.784 33.466C39.522 32.872 39.972 32.026 39.972 30.946C39.972 28.84 38.262 27.4 36.138 27.4H31.17V40H36.516C38.694 40 40.44 38.506 40.44 36.346C40.44 35.032 39.792 34.042 38.784 33.466ZM36.138 29.722C36.93 29.722 37.488 30.316 37.488 31.108C37.488 31.9 36.912 32.494 36.138 32.494H33.654V29.722H36.138ZM36.516 37.678H33.654V34.708H36.516C37.362 34.708 37.974 35.338 37.974 36.184C37.974 37.048 37.362 37.678 36.516 37.678ZM46.3851 40.252C49.0311 40.252 51.1551 38.182 51.1551 35.5C51.1551 32.818 49.0311 30.748 46.3851 30.748C43.7391 30.748 41.6331 32.818 41.6331 35.5C41.6331 38.182 43.7391 40.252 46.3851 40.252ZM46.3851 37.984C45.0171 37.984 43.9551 36.958 43.9551 35.5C43.9551 34.042 45.0171 33.016 46.3851 33.016C47.7711 33.016 48.8331 34.042 48.8331 35.5C48.8331 36.958 47.7711 37.984 46.3851 37.984ZM57.0726 40.252C58.8366 40.252 60.3666 39.316 61.1406 37.912L59.1246 36.76C58.7646 37.498 57.9906 37.948 57.0546 37.948C55.6686 37.948 54.6426 36.922 54.6426 35.5C54.6426 34.06 55.6686 33.034 57.0546 33.034C57.9726 33.034 58.7466 33.502 59.1066 34.24L61.1046 33.07C60.3666 31.684 58.8366 30.748 57.0726 30.748C54.3366 30.748 52.3206 32.818 52.3206 35.5C52.3206 38.182 54.3366 40.252 57.0726 40.252ZM70.665 31H62.439V40H64.761V33.178H68.343V40H70.665V31ZM77.0765 40.252C79.7225 40.252 81.8465 38.182 81.8465 35.5C81.8465 32.818 79.7225 30.748 77.0765 30.748C74.4305 30.748 72.3245 32.818 72.3245 35.5C72.3245 38.182 74.4305 40.252 77.0765 40.252ZM77.0765 37.984C75.7085 37.984 74.6465 36.958 74.6465 35.5C74.6465 34.042 75.7085 33.016 77.0765 33.016C78.4625 33.016 79.5245 34.042 79.5245 35.5C79.5245 36.958 78.4625 37.984 77.0765 37.984ZM90.9735 31H83.8455V36.112C83.8455 37.516 83.3235 38.056 82.3695 37.822V40C84.7995 40.27 86.1675 39.082 86.1675 36.238V33.232H88.6515V40H90.9735V31ZM97.1456 33.88H95.3996V31H93.0776V40H97.1456C99.1976 40 100.548 38.776 100.548 36.94C100.548 35.104 99.1976 33.88 97.1456 33.88ZM97.1636 37.948H95.3996V35.914H97.1636C97.8116 35.914 98.2796 36.328 98.2796 36.94C98.2796 37.552 97.8116 37.948 97.1636 37.948ZM107.088 35.41C107.754 34.96 108.078 34.258 108.078 33.43C108.078 32.008 106.854 30.748 104.712 30.748C103.128 30.748 101.886 31.45 101.202 32.818L103.074 33.898C103.416 33.124 103.974 32.764 104.748 32.764C105.432 32.764 105.864 33.106 105.864 33.628C105.864 34.15 105.504 34.456 104.82 34.456H103.848V36.436H105.126C105.828 36.436 106.188 36.76 106.188 37.264C106.188 37.84 105.702 38.2 104.838 38.2C103.848 38.2 103.254 37.732 102.984 36.976L101.094 38.092C101.724 39.478 102.948 40.252 104.82 40.252C107.214 40.252 108.456 39.01 108.456 37.552C108.456 36.616 107.97 35.842 107.088 35.41ZM115.434 31L113.436 37.048L111.024 31H108.558L112.194 39.892C111.762 41.026 111.114 41.458 109.89 41.44V43.6C112.05 43.726 113.706 42.592 114.642 40L117.918 31H115.434ZM120.535 29.848H125.755V27.832H120.535V29.848ZM125.521 31L121.291 36.112V31H119.023V40H120.751L124.981 34.888V40H127.249V31H125.521ZM136.468 31H128.494V33.232H131.338V40H133.66V33.232H136.468V31ZM139.319 36.454H146.105C146.159 36.148 146.195 35.842 146.195 35.5C146.195 32.854 144.305 30.748 141.641 30.748C138.815 30.748 136.889 32.818 136.889 35.5C136.889 38.182 138.797 40.252 141.821 40.252C143.549 40.252 144.899 39.55 145.745 38.326L143.873 37.246C143.477 37.768 142.757 38.146 141.857 38.146C140.633 38.146 139.643 37.642 139.319 36.454ZM139.283 34.654C139.553 33.502 140.399 32.836 141.641 32.836C142.613 32.836 143.585 33.358 143.873 34.654H139.283ZM152.03 40.252C153.794 40.252 155.324 39.316 156.098 37.912L154.082 36.76C153.722 37.498 152.948 37.948 152.012 37.948C150.626 37.948 149.6 36.922 149.6 35.5C149.6 34.06 150.626 33.034 152.012 33.034C152.93 33.034 153.704 33.502 154.064 34.24L156.062 33.07C155.324 31.684 153.794 30.748 152.03 30.748C149.294 30.748 147.278 32.818 147.278 35.5C147.278 38.182 149.294 40.252 152.03 40.252ZM161.464 33.88H159.718V31H157.396V40H161.464C163.516 40 164.866 38.776 164.866 36.94C164.866 35.104 163.516 33.88 161.464 33.88ZM161.482 37.948H159.718V35.914H161.482C162.13 35.914 162.598 36.328 162.598 36.94C162.598 37.552 162.13 37.948 161.482 37.948ZM176.064 30.748C174.75 30.748 173.796 31.234 173.148 32.062V31H170.826V43.6H173.148V38.938C173.796 39.766 174.75 40.252 176.064 40.252C178.476 40.252 180.456 38.182 180.456 35.5C180.456 32.818 178.476 30.748 176.064 30.748ZM175.632 38.038C174.21 38.038 173.148 37.012 173.148 35.5C173.148 33.988 174.21 32.962 175.632 32.962C177.072 32.962 178.134 33.988 178.134 35.5C178.134 37.012 177.072 38.038 175.632 38.038ZM188.933 31V32.062C188.285 31.252 187.313 30.748 185.999 30.748C183.605 30.748 181.625 32.818 181.625 35.5C181.625 38.182 183.605 40.252 185.999 40.252C187.313 40.252 188.285 39.748 188.933 38.938V40H191.255V31H188.933ZM186.431 38.038C185.009 38.038 183.947 37.012 183.947 35.5C183.947 33.988 185.009 32.962 186.431 32.962C187.871 32.962 188.933 33.988 188.933 35.5C188.933 37.012 187.871 38.038 186.431 38.038ZM197.645 40.252C199.409 40.252 200.939 39.316 201.713 37.912L199.697 36.76C199.337 37.498 198.563 37.948 197.627 37.948C196.241 37.948 195.215 36.922 195.215 35.5C195.215 34.06 196.241 33.034 197.627 33.034C198.545 33.034 199.319 33.502 199.679 34.24L201.677 33.07C200.939 31.684 199.409 30.748 197.645 30.748C194.909 30.748 192.893 32.818 192.893 35.5C192.893 38.182 194.909 40.252 197.645 40.252ZM213.559 31V37.822H210.607V31H208.285V37.822H205.333V31H203.011V40H215.881V31H213.559ZM224.503 31L220.273 36.112V31H218.005V40H219.733L223.963 34.888V40H226.231V31H224.503ZM233.597 30.748C232.283 30.748 231.329 31.234 230.681 32.062V31H228.359V43.6H230.681V38.938C231.329 39.766 232.283 40.252 233.597 40.252C236.009 40.252 237.989 38.182 237.989 35.5C237.989 32.818 236.009 30.748 233.597 30.748ZM233.165 38.038C231.743 38.038 230.681 37.012 230.681 35.5C230.681 33.988 231.743 32.962 233.165 32.962C234.605 32.962 235.667 33.988 235.667 35.5C235.667 37.012 234.605 38.038 233.165 38.038ZM241.588 36.454H248.374C248.428 36.148 248.464 35.842 248.464 35.5C248.464 32.854 246.574 30.748 243.91 30.748C241.084 30.748 239.158 32.818 239.158 35.5C239.158 38.182 241.066 40.252 244.09 40.252C245.818 40.252 247.168 39.55 248.014 38.326L246.142 37.246C245.746 37.768 245.026 38.146 244.126 38.146C242.902 38.146 241.912 37.642 241.588 36.454ZM241.552 34.654C241.822 33.502 242.668 32.836 243.91 32.836C244.882 32.836 245.854 33.358 246.142 34.654H241.552ZM255.989 31V34.402H252.407V31H250.085V40H252.407V36.58H255.989V40H258.311V31H255.989ZM266.343 31V34.402H262.761V31H260.439V40H262.761V36.58H266.343V40H268.665V31H266.343ZM274.86 33.88H273.114V31H270.792V40H274.86C276.912 40 278.262 38.776 278.262 36.94C278.262 35.104 276.912 33.88 274.86 33.88ZM279.252 31V40H281.574V31H279.252ZM274.878 37.948H273.114V35.914H274.878C275.526 35.914 275.994 36.328 275.994 36.94C275.994 37.552 275.526 37.948 274.878 37.948ZM293.055 31H290.769L288.375 34.78L285.981 31H283.695V40H285.927V34.708L288.231 38.344H288.519L290.805 34.744V40H293.055V31ZM301.671 31L297.441 36.112V31H295.173V40H296.901L301.131 34.888V40H303.399V31H301.671ZM37.542 57.392C38.118 56.96 38.424 56.33 38.424 55.538C38.424 54.062 37.38 53 35.436 53H31.062V62H35.796C37.776 62 38.802 60.902 38.802 59.444C38.802 58.508 38.352 57.788 37.542 57.392ZM35.22 54.908C35.85 54.908 36.21 55.178 36.21 55.718C36.21 56.276 35.85 56.528 35.22 56.528H33.24V54.908H35.22ZM35.526 60.038H33.24V58.364H35.526C36.138 58.364 36.534 58.652 36.534 59.174C36.534 59.732 36.156 60.038 35.526 60.038ZM44.5394 62.252C47.1854 62.252 49.3094 60.182 49.3094 57.5C49.3094 54.818 47.1854 52.748 44.5394 52.748C41.8934 52.748 39.7874 54.818 39.7874 57.5C39.7874 60.182 41.8934 62.252 44.5394 62.252ZM44.5394 59.984C43.1714 59.984 42.1094 58.958 42.1094 57.5C42.1094 56.042 43.1714 55.016 44.5394 55.016C45.9254 55.016 46.9874 56.042 46.9874 57.5C46.9874 58.958 45.9254 59.984 44.5394 59.984ZM55.8653 57.41C56.5313 56.96 56.8553 56.258 56.8553 55.43C56.8553 54.008 55.6313 52.748 53.4893 52.748C51.9053 52.748 50.6633 53.45 49.9793 54.818L51.8513 55.898C52.1933 55.124 52.7513 54.764 53.5253 54.764C54.2093 54.764 54.6413 55.106 54.6413 55.628C54.6413 56.15 54.2813 56.456 53.5973 56.456H52.6253V58.436H53.9033C54.6053 58.436 54.9653 58.76 54.9653 59.264C54.9653 59.84 54.4793 60.2 53.6153 60.2C52.6253 60.2 52.0313 59.732 51.7613 58.976L49.8713 60.092C50.5013 61.478 51.7253 62.252 53.5973 62.252C55.9913 62.252 57.2333 61.01 57.2333 59.552C57.2333 58.616 56.7473 57.842 55.8653 57.41ZM68.0548 53H65.7688L63.3748 56.78L60.9808 53H58.6948V62H60.9268V56.708L63.2308 60.344H63.5188L65.8048 56.744V62H68.0548V53ZM74.4573 62.252C77.1033 62.252 79.2273 60.182 79.2273 57.5C79.2273 54.818 77.1033 52.748 74.4573 52.748C71.8113 52.748 69.7053 54.818 69.7053 57.5C69.7053 60.182 71.8113 62.252 74.4573 62.252ZM74.4573 59.984C73.0893 59.984 72.0273 58.958 72.0273 57.5C72.0273 56.042 73.0893 55.016 74.4573 55.016C75.8433 55.016 76.9053 56.042 76.9053 57.5C76.9053 58.958 75.8433 59.984 74.4573 59.984ZM92.2901 62L89.0321 57.446L92.1101 53H89.5001L86.9261 56.906V53H84.6581V56.906L82.0841 53H79.4921L82.5521 57.446L79.3121 62H81.9041L84.6581 57.968V62H86.9261V57.968L89.6801 62H92.2901ZM99.4738 53V56.402H95.8918V53H93.5698V62H95.8918V58.58H99.4738V62H101.796V53H99.4738ZM108.207 62.252C110.853 62.252 112.977 60.182 112.977 57.5C112.977 54.818 110.853 52.748 108.207 52.748C105.561 52.748 103.455 54.818 103.455 57.5C103.455 60.182 105.561 62.252 108.207 62.252ZM108.207 59.984C106.839 59.984 105.777 58.958 105.777 57.5C105.777 56.042 106.839 55.016 108.207 55.016C109.593 55.016 110.655 56.042 110.655 57.5C110.655 58.958 109.593 59.984 108.207 59.984ZM118.895 62.252C120.659 62.252 122.189 61.316 122.963 59.912L120.947 58.76C120.587 59.498 119.813 59.948 118.877 59.948C117.491 59.948 116.465 58.922 116.465 57.5C116.465 56.06 117.491 55.034 118.877 55.034C119.795 55.034 120.569 55.502 120.929 56.24L122.927 55.07C122.189 53.684 120.659 52.748 118.895 52.748C116.159 52.748 114.143 54.818 114.143 57.5C114.143 60.182 116.159 62.252 118.895 62.252ZM131.23 53H123.256V55.232H126.1V62H128.422V55.232H131.23V53ZM139.126 53H134.914C132.88 53 131.656 54.494 131.656 56.096C131.656 57.284 132.376 58.436 133.546 58.922L131.296 62H133.978L136.048 59.192H136.858V62H139.126V53ZM135.094 55.07H136.858V57.23H135.094C134.428 57.23 133.924 56.834 133.924 56.168C133.924 55.484 134.428 55.07 135.094 55.07ZM150.602 53H148.316L145.922 56.78L143.528 53H141.242V62H143.474V56.708L145.778 60.344H146.066L148.352 56.744V62H150.602V53ZM159.218 53L154.988 58.112V53H152.72V62H154.448L158.678 56.888V62H160.946V53H159.218ZM171.984 62.252C174.666 62.252 176.556 60.812 176.556 58.454C176.556 55.88 174.432 55.214 172.434 54.584C170.526 54.008 170.04 53.594 170.04 52.82C170.04 52.1 170.652 51.56 171.696 51.56C172.974 51.56 173.658 52.226 174.108 53.18L176.196 51.974C175.35 50.21 173.766 49.148 171.696 49.148C169.536 49.148 167.556 50.516 167.556 52.892C167.556 55.286 169.428 56.096 171.354 56.654C173.226 57.194 174.072 57.554 174.072 58.49C174.072 59.192 173.55 59.822 172.056 59.822C170.49 59.822 169.608 59.066 169.158 57.896L167.034 59.138C167.718 61.01 169.41 62.252 171.984 62.252ZM182.952 55.232V53H180.918V50.48L178.596 51.182V53H177.03V55.232H178.596V58.976C178.596 61.406 179.694 62.36 182.952 62V59.894C181.62 59.966 180.918 59.948 180.918 58.976V55.232H182.952ZM186.27 58.454H193.056C193.11 58.148 193.146 57.842 193.146 57.5C193.146 54.854 191.256 52.748 188.592 52.748C185.766 52.748 183.84 54.818 183.84 57.5C183.84 60.182 185.748 62.252 188.772 62.252C190.5 62.252 191.85 61.55 192.696 60.326L190.824 59.246C190.428 59.768 189.708 60.146 188.808 60.146C187.584 60.146 186.594 59.642 186.27 58.454ZM186.234 56.654C186.504 55.502 187.35 54.836 188.592 54.836C189.564 54.836 190.536 55.358 190.824 56.654H186.234ZM200.005 52.748C198.691 52.748 197.737 53.234 197.089 54.062V53H194.767V65.6H197.089V60.938C197.737 61.766 198.691 62.252 200.005 62.252C202.417 62.252 204.397 60.182 204.397 57.5C204.397 54.818 202.417 52.748 200.005 52.748ZM199.573 60.038C198.151 60.038 197.089 59.012 197.089 57.5C197.089 55.988 198.151 54.962 199.573 54.962C201.013 54.962 202.075 55.988 202.075 57.5C202.075 59.012 201.013 60.038 199.573 60.038ZM207.187 51.92C207.979 51.92 208.627 51.272 208.627 50.498C208.627 49.724 207.979 49.058 207.187 49.058C206.413 49.058 205.765 49.724 205.765 50.498C205.765 51.272 206.413 51.92 207.187 51.92ZM206.035 62H208.357V53H206.035V62ZM218.78 62L215.054 57.446L218.672 53H215.9L212.804 56.96V49.4H210.482V62H212.804V57.914L216.08 62H218.78Z" fill="#222437"></path> </g> <g id="pro-3 copy"> <rect id="Rectangle Copy 16_3" x="31" y="157" width="50" height="16" rx="1" fill="url(#paint1_linear)"></rect> <mask id="mask1" maskUnits="userSpaceOnUse" x="31" y="157" width="50" height="16"> <rect id="Rectangle Copy 16_4" x="31" y="157" width="50" height="16" rx="1" fill="white"></rect> </mask> <g mask="url(#mask1)"> <path id="Stroke 21 Copy 8_3" d="M56 148L36 168" stroke="#66CC66" stroke-width="6"></path> <path id="Stroke 21 Copy 6_2" d="M37 159L19 177" stroke="#FFCE6E" stroke-width="3"></path> <path id="Stroke 21 Copy 7_2" d="M51 163L33 181" stroke="#6C7BDF" stroke-width="2" stroke-linecap="round"></path> <path id="Stroke 21 Copy 26" d="M43 166L25 184" stroke="white" stroke-width="2" stroke-linecap="round"></path> <path id="PRO Copy 2" d="M58.25 161H55.6V168H57.2V165.8H58.25C59.63 165.8 60.7 164.73 60.7 163.4C60.7 162.07 59.63 161 58.25 161ZM58.25 164.3H57.2V162.5H58.25C58.74 162.5 59.1 162.89 59.1 163.4C59.1 163.91 58.74 164.3 58.25 164.3ZM65.5118 168H67.2318L65.7418 165.43C66.5118 165.04 67.0318 164.26 67.0318 163.4C67.0318 162.07 65.9618 161 64.6318 161H61.8318V168H63.4318V165.7H64.1918L65.5118 168ZM63.4318 162.5H64.6318C65.0718 162.5 65.4318 162.89 65.4318 163.4C65.4318 163.91 65.0718 164.3 64.6318 164.3H63.4318V162.5ZM71.5598 168.14C73.5698 168.14 75.1998 166.56 75.1998 164.5C75.1998 162.44 73.5698 160.86 71.5598 160.86C69.5498 160.86 67.9198 162.44 67.9198 164.5C67.9198 166.56 69.5498 168.14 71.5598 168.14ZM71.5598 166.58C70.4198 166.58 69.5198 165.75 69.5198 164.5C69.5198 163.25 70.4198 162.42 71.5598 162.42C72.6998 162.42 73.5998 163.25 73.5998 164.5C73.5998 165.75 72.6998 166.58 71.5598 166.58Z" fill="white"></path> </g> </g> </g> <defs> <linearGradient id="paint0_linear" x1="-127.033" y1="-25.9102" x2="-98.3585" y2="369.644" gradientUnits="userSpaceOnUse"> <stop stop-color="#F3F4F6"></stop> <stop offset="0.549394" stop-color="#A597FE"></stop> <stop offset="0.794532" stop-color="#826DFE"></stop> <stop offset="1" stop-color="#4F7CFF"></stop> </linearGradient> <linearGradient id="paint1_linear" x1="114.313" y1="186.13" x2="118.776" y2="147.097" gradientUnits="userSpaceOnUse"> <stop stop-color="#2A264D"></stop> <stop offset="1" stop-color="#5F5ACE"></stop> </linearGradient> </defs> </svg> 