<?xml version="1.0" encoding="UTF-8"?> <svg xmlns="http://www.w3.org/2000/svg" width="122" height="122" viewBox="0 0 122 122" fill="none"> <path fill-rule="evenodd" clip-rule="evenodd" d="M94.6961 12.9558L92.913 8.43457L91.1299 12.9558L86.6086 14.7389L91.1299 16.5221L92.913 21.0433L94.6961 16.5221L99.2173 14.7389L94.6961 12.9558ZM96.3535 14.7389L93.8861 13.7658L92.913 11.2984L91.9399 13.7658L89.4725 14.7389L91.9399 15.712L92.913 18.1794L93.8861 15.712L96.3535 14.7389Z" fill="black"></path> <path fill-rule="evenodd" clip-rule="evenodd" d="M100.478 22.3041C101.175 22.3041 101.739 21.7396 101.739 21.0432C101.739 20.3469 101.175 19.7824 100.478 19.7824C99.7819 19.7824 99.2174 20.3469 99.2174 21.0432C99.2174 21.7396 99.7819 22.3041 100.478 22.3041ZM100.478 23.565C101.871 23.565 103 22.4359 103 21.0432C103 19.6505 101.871 18.5215 100.478 18.5215C99.0856 18.5215 97.9565 19.6505 97.9565 21.0432C97.9565 22.4359 99.0856 23.565 100.478 23.565Z" fill="black"></path> <path fill-rule="evenodd" clip-rule="evenodd" d="M21.6612 104.904L20.413 101.739L19.1648 104.904L16 106.152L19.1648 107.4L20.413 110.565L21.6612 107.4L24.8261 106.152L21.6612 104.904ZM22.8214 106.152L21.0942 105.471L20.413 103.744L19.7319 105.471L18.0047 106.152L19.7319 106.833L20.413 108.561L21.0942 106.833L22.8214 106.152Z" fill="black"></path> <path d="M34 35.8667C34 33.1789 36.1266 31 38.75 31H86.25C88.8734 31 91 33.1789 91 35.8667V99.1333C91 101.821 88.8734 104 86.25 104H38.75C36.1266 104 34 101.821 34 99.1333V35.8667Z" fill="url(#paint0_linear_9745_210822)"></path> <path fill-rule="evenodd" clip-rule="evenodd" d="M81.6813 27.3093H33.5139C31.4821 27.3093 29.835 28.9565 29.835 30.9883V94.2803C29.835 96.3122 31.4821 97.9593 33.5139 97.9593H81.6813C83.7131 97.9593 85.3602 96.3121 85.3602 94.2803V30.9883C85.3602 28.9565 83.7131 27.3093 81.6813 27.3093ZM33.5139 26.083C30.8048 26.083 28.6086 28.2792 28.6086 30.9883V94.2803C28.6086 96.9894 30.8048 99.1856 33.5139 99.1856H81.6813C84.3904 99.1856 86.5866 96.9894 86.5866 94.2803V30.9883C86.5866 28.2792 84.3904 26.083 81.6813 26.083H33.5139Z" fill="black"></path> <path d="M62.2183 21.0411V21.5411H62.7183H67.2084C68.5616 21.5411 69.7018 22.7034 69.7017 24.1922V24.1922V26.8432H46.7543V24.1922C46.7543 22.7036 47.8945 21.5413 49.2477 21.5413H53.7379H54.2379V21.0413V19.4657C54.2379 17.1071 56.0482 15.2393 58.2281 15.2393C60.4079 15.2393 62.2183 17.1071 62.2183 19.4656V21.0411Z" stroke="black"></path> <path fill-rule="evenodd" clip-rule="evenodd" d="M53.8165 43.1151C53.8165 42.7765 54.0911 42.502 54.4297 42.502H67.0677C67.4063 42.502 67.6808 42.7765 67.6808 43.1151C67.6808 43.4538 67.4063 43.7283 67.0677 43.7283H54.4297C54.0911 43.7283 53.8165 43.4538 53.8165 43.1151Z" fill="black"></path> <path fill-rule="evenodd" clip-rule="evenodd" d="M53.8165 48.1561C53.8165 47.8175 54.0911 47.543 54.4297 47.543H77.1508C77.4894 47.543 77.7639 47.8175 77.7639 48.1561C77.7639 48.4948 77.4894 48.7693 77.1508 48.7693H54.4297C54.0911 48.7693 53.8165 48.4948 53.8165 48.1561Z" fill="black"></path> <path fill-rule="evenodd" clip-rule="evenodd" d="M53.8165 60.7606C53.8165 60.422 54.0911 60.1475 54.4297 60.1475H67.0677C67.4063 60.1475 67.6808 60.422 67.6808 60.7606C67.6808 61.0993 67.4063 61.3738 67.0677 61.3738H54.4297C54.0911 61.3738 53.8165 61.0993 53.8165 60.7606Z" fill="black"></path> <path fill-rule="evenodd" clip-rule="evenodd" d="M53.8165 65.8016C53.8165 65.463 54.0911 65.1885 54.4297 65.1885H77.1508C77.4894 65.1885 77.7639 65.463 77.7639 65.8016C77.7639 66.1403 77.4894 66.4148 77.1508 66.4148H54.4297C54.0911 66.4148 53.8165 66.1403 53.8165 65.8016Z" fill="black"></path> <path fill-rule="evenodd" clip-rule="evenodd" d="M53.8165 79.6659C53.8165 79.3273 54.0911 79.0527 54.4297 79.0527H67.0677C67.4063 79.0527 67.6808 79.3273 67.6808 79.6659C67.6808 80.0045 67.4063 80.2791 67.0677 80.2791H54.4297C54.0911 80.2791 53.8165 80.0045 53.8165 79.6659Z" fill="black"></path> <path fill-rule="evenodd" clip-rule="evenodd" d="M53.8165 84.7079C53.8165 84.3692 54.0911 84.0947 54.4297 84.0947H77.1508C77.4894 84.0947 77.7639 84.3692 77.7639 84.7079C77.7639 85.0465 77.4894 85.3211 77.1508 85.3211H54.4297C54.0911 85.3211 53.8165 85.0465 53.8165 84.7079Z" fill="black"></path> <path fill-rule="evenodd" clip-rule="evenodd" d="M46.6878 40.7743C46.9273 41.0138 46.9273 41.402 46.6878 41.6415L39.9523 48.377L35.7376 44.1622C35.4981 43.9228 35.4981 43.5346 35.7376 43.2951C35.977 43.0556 36.3653 43.0556 36.6047 43.2951L39.9523 46.6427L45.8207 40.7743C46.0601 40.5349 46.4484 40.5349 46.6878 40.7743Z" fill="black"></path> <path fill-rule="evenodd" clip-rule="evenodd" d="M46.6878 59.6796C46.9273 59.919 46.9273 60.3073 46.6878 60.5467L39.9523 67.2823L35.7376 63.0675C35.4981 62.8281 35.4981 62.4398 35.7376 62.2004C35.977 61.9609 36.3653 61.9609 36.6047 62.2004L39.9523 65.548L45.8207 59.6796C46.0601 59.4401 46.4484 59.4401 46.6878 59.6796Z" fill="black"></path> <path fill-rule="evenodd" clip-rule="evenodd" d="M46.6878 78.5849C46.9273 78.8243 46.9273 79.2126 46.6878 79.452L39.9523 86.1875L35.7376 81.9728C35.4981 81.7333 35.4981 81.3451 35.7376 81.1056C35.977 80.8662 36.3653 80.8662 36.6047 81.1056L39.9523 84.4532L45.8207 78.5849C46.0601 78.3454 46.4484 78.3454 46.6878 78.5849Z" fill="black"></path> <defs> <linearGradient id="paint0_linear_9745_210822" x1="62.5" y1="31" x2="90.9984" y2="90.3055" gradientUnits="userSpaceOnUse"> <stop stop-color="#ADB9FD"></stop> <stop offset="1" stop-color="#C5ACFF"></stop> </linearGradient> </defs> </svg> 