<?xml version="1.0" encoding="UTF-8"?> <svg xmlns="http://www.w3.org/2000/svg" width="3161" height="2113" viewBox="0 0 3161 2113" fill="none"> <g opacity="0.1"> <path opacity="0.75" d="M422.266 160.301C428.454 156.729 436.078 156.729 442.266 160.301L558.14 227.202C564.328 230.774 568.14 237.377 568.14 244.522V378.323C568.14 385.468 564.328 392.071 558.14 395.644L442.266 462.544C436.078 466.117 428.454 466.117 422.266 462.544L306.391 395.644C300.203 392.071 296.391 385.468 296.391 378.323V244.522C296.391 237.377 300.203 230.774 306.391 227.202L422.266 160.301Z" stroke="#6C63FF"></path> <path opacity="0.15" d="M559.164 394.686C565.352 391.113 572.976 391.113 579.164 394.686L695.039 461.587C701.227 465.159 705.039 471.762 705.039 478.907V612.708C705.039 619.853 701.227 626.456 695.039 630.028L579.164 696.929C572.976 700.501 565.352 700.501 559.164 696.929L443.289 630.028C437.101 626.456 433.289 619.853 433.289 612.708V478.907C433.289 471.762 437.101 465.159 443.289 461.587L559.164 394.686Z" stroke="#6C63FF"></path> <path opacity="0.25" d="M695.047 160.301C701.235 156.729 708.859 156.729 715.047 160.301L830.922 227.202C837.11 230.774 840.922 237.377 840.922 244.522V378.323C840.922 385.468 837.11 392.071 830.922 395.644L715.047 462.544C708.859 466.117 701.235 466.117 695.047 462.544L579.172 395.644C572.984 392.071 569.172 385.468 569.172 378.323V244.522C569.172 237.377 572.984 230.774 579.172 227.202L695.047 160.301Z" stroke="#6C63FF"></path> <path opacity="0.45" d="M831.922 394.686C838.11 391.113 845.734 391.113 851.922 394.686L967.797 461.587C973.985 465.159 977.797 471.762 977.797 478.907V612.708C977.797 619.853 973.985 626.456 967.797 630.028L851.922 696.929C845.734 700.501 838.11 700.501 831.922 696.929L716.047 630.028C709.859 626.456 706.047 619.853 706.047 612.708V478.907C706.047 471.762 709.859 465.159 716.047 461.587L831.922 394.686Z" stroke="#6C63FF"></path> </g> <g opacity="0.25"> <path opacity="0.75" d="M967.812 160.301C974 156.729 981.624 156.729 987.812 160.301L1103.69 227.202C1109.88 230.774 1113.69 237.377 1113.69 244.522V378.323C1113.69 385.468 1109.88 392.071 1103.69 395.644L987.812 462.544C981.624 466.117 974 466.117 967.812 462.544L851.937 395.644C845.749 392.071 841.938 385.468 841.938 378.323V244.522C841.938 237.377 845.749 230.774 851.937 227.202L967.812 160.301Z" stroke="#6C63FF"></path> <path opacity="0.15" d="M1104.71 394.686C1110.9 391.113 1118.52 391.113 1124.71 394.686L1240.59 461.587C1246.77 465.159 1250.59 471.762 1250.59 478.907V612.708C1250.59 619.853 1246.77 626.456 1240.59 630.028L1124.71 696.929C1118.52 700.501 1110.9 700.501 1104.71 696.929L988.836 630.028C982.648 626.456 978.836 619.853 978.836 612.708V478.907C978.836 471.762 982.648 465.159 988.836 461.587L1104.71 394.686Z" stroke="#6C63FF"></path> <path opacity="0.25" d="M1240.59 160.301C1246.78 156.729 1254.41 156.729 1260.59 160.301L1376.47 227.202C1382.66 230.774 1386.47 237.377 1386.47 244.522V378.323C1386.47 385.468 1382.66 392.071 1376.47 395.644L1260.59 462.544C1254.41 466.117 1246.78 466.117 1240.59 462.544L1124.72 395.644C1118.53 392.071 1114.72 385.468 1114.72 378.323V244.522C1114.72 237.377 1118.53 230.774 1124.72 227.202L1240.59 160.301Z" stroke="#6C63FF"></path> <path opacity="0.45" d="M1377.47 394.686C1383.66 391.113 1391.28 391.113 1397.47 394.686L1513.34 461.587C1519.53 465.159 1523.34 471.762 1523.34 478.907V612.708C1523.34 619.853 1519.53 626.456 1513.34 630.028L1397.47 696.929C1391.28 700.501 1383.66 700.501 1377.47 696.929L1261.59 630.028C1255.41 626.456 1251.59 619.853 1251.59 612.708V478.907C1251.59 471.762 1255.41 465.159 1261.59 461.587L1377.47 394.686Z" stroke="#6C63FF"></path> </g> <g opacity="0.45"> <path opacity="0.75" d="M1513.33 160.301C1519.52 156.729 1527.14 156.729 1533.33 160.301L1649.2 227.202C1655.39 230.774 1659.2 237.377 1659.2 244.522V378.323C1659.2 385.468 1655.39 392.071 1649.2 395.644L1533.33 462.544C1527.14 466.117 1519.52 466.117 1513.33 462.544L1397.45 395.644C1391.27 392.071 1387.45 385.468 1387.45 378.323V244.522C1387.45 237.377 1391.27 230.774 1397.45 227.202L1513.33 160.301Z" stroke="#6C63FF"></path> <path opacity="0.15" d="M1650.23 394.686C1656.41 391.113 1664.04 391.113 1670.23 394.686L1786.1 461.587C1792.29 465.159 1796.1 471.762 1796.1 478.907V612.708C1796.1 619.853 1792.29 626.456 1786.1 630.028L1670.23 696.929C1664.04 700.501 1656.41 700.501 1650.23 696.929L1534.35 630.028C1528.16 626.456 1524.35 619.853 1524.35 612.708V478.907C1524.35 471.762 1528.16 465.159 1534.35 461.587L1650.23 394.686Z" stroke="#6C63FF"></path> <path opacity="0.25" d="M1786.11 160.301C1792.3 156.729 1799.92 156.729 1806.11 160.301L1921.98 227.202C1928.17 230.774 1931.98 237.377 1931.98 244.522V378.323C1931.98 385.468 1928.17 392.071 1921.98 395.644L1806.11 462.544C1799.92 466.117 1792.3 466.117 1786.11 462.544L1670.23 395.644C1664.05 392.071 1660.23 385.468 1660.23 378.323V244.522C1660.23 237.377 1664.05 230.774 1670.23 227.202L1786.11 160.301Z" stroke="#6C63FF"></path> <path opacity="0.45" d="M1922.98 394.686C1929.17 391.113 1936.8 391.113 1942.98 394.686L2058.86 461.587C2065.05 465.159 2068.86 471.762 2068.86 478.907V612.708C2068.86 619.853 2065.05 626.456 2058.86 630.028L1942.98 696.929C1936.8 700.501 1929.17 700.501 1922.98 696.929L1807.11 630.028C1800.92 626.456 1797.11 619.853 1797.11 612.708V478.907C1797.11 471.762 1800.92 465.159 1807.11 461.587L1922.98 394.686Z" stroke="#6C63FF"></path> </g> <g opacity="0.75"> <path opacity="0.75" d="M2058.88 160.301C2065.07 156.729 2072.69 156.729 2078.88 160.301L2194.76 227.202C2200.95 230.774 2204.76 237.377 2204.76 244.522V378.323C2204.76 385.468 2200.95 392.071 2194.76 395.644L2078.88 462.544C2072.69 466.117 2065.07 466.117 2058.88 462.544L1943.01 395.644C1936.82 392.071 1933.01 385.468 1933.01 378.323V244.522C1933.01 237.377 1936.82 230.774 1943.01 227.202L2058.88 160.301Z" stroke="#6C63FF"></path> <path opacity="0.15" d="M2195.78 394.686C2201.97 391.113 2209.59 391.113 2215.78 394.686L2331.66 461.587C2337.84 465.159 2341.66 471.762 2341.66 478.907V612.708C2341.66 619.853 2337.84 626.456 2331.66 630.028L2215.78 696.929C2209.59 700.501 2201.97 700.501 2195.78 696.929L2079.91 630.028C2073.72 626.456 2069.91 619.853 2069.91 612.708V478.907C2069.91 471.762 2073.72 465.159 2079.91 461.587L2195.78 394.686Z" stroke="#6C63FF"></path> <path opacity="0.25" d="M2331.66 160.301C2337.85 156.729 2345.48 156.729 2351.66 160.301L2467.54 227.202C2473.73 230.774 2477.54 237.377 2477.54 244.522V378.323C2477.54 385.468 2473.73 392.071 2467.54 395.644L2351.66 462.544C2345.48 466.117 2337.85 466.117 2331.66 462.544L2215.79 395.644C2209.6 392.071 2205.79 385.468 2205.79 378.323V244.522C2205.79 237.377 2209.6 230.774 2215.79 227.202L2331.66 160.301Z" stroke="#6C63FF"></path> <path opacity="0.45" d="M2468.54 394.686C2474.73 391.113 2482.35 391.113 2488.54 394.686L2604.41 461.587C2610.6 465.159 2614.41 471.762 2614.41 478.907V612.708C2614.41 619.853 2610.6 626.456 2604.41 630.028L2488.54 696.929C2482.35 700.501 2474.73 700.501 2468.54 696.929L2352.66 630.028C2346.48 626.456 2342.66 619.853 2342.66 612.708V478.907C2342.66 471.762 2346.48 465.159 2352.66 461.587L2468.54 394.686Z" stroke="#6C63FF"></path> </g> <path opacity="0.75" d="M2604.44 160.301C2610.63 156.729 2618.25 156.729 2624.44 160.301L2740.31 227.202C2746.5 230.774 2750.31 237.377 2750.31 244.522V378.323C2750.31 385.468 2746.5 392.071 2740.31 395.644L2624.44 462.544C2618.25 466.117 2610.63 466.117 2604.44 462.544L2488.56 395.644C2482.37 392.071 2478.56 385.468 2478.56 378.323V244.522C2478.56 237.377 2482.37 230.774 2488.56 227.202L2604.44 160.301Z" stroke="#6C63FF"></path> <path opacity="0.15" d="M2741.34 394.686C2747.52 391.113 2755.15 391.113 2761.34 394.686L2877.21 461.587C2883.4 465.159 2887.21 471.762 2887.21 478.907V612.708C2887.21 619.853 2883.4 626.456 2877.21 630.028L2761.34 696.929C2755.15 700.501 2747.52 700.501 2741.34 696.929L2625.46 630.028C2619.27 626.456 2615.46 619.853 2615.46 612.708V478.907C2615.46 471.762 2619.27 465.159 2625.46 461.587L2741.34 394.686Z" stroke="#6C63FF"></path> <path opacity="0.25" d="M2877.22 160.301C2883.41 156.729 2891.03 156.729 2897.22 160.301L3013.09 227.202C3019.28 230.774 3023.09 237.377 3023.09 244.522V378.323C3023.09 385.468 3019.28 392.071 3013.09 395.644L2897.22 462.544C2891.03 466.117 2883.41 466.117 2877.22 462.544L2761.34 395.644C2755.16 392.071 2751.34 385.468 2751.34 378.323V244.522C2751.34 237.377 2755.16 230.774 2761.34 227.202L2877.22 160.301Z" stroke="#6C63FF"></path> <path opacity="0.45" d="M3014.09 394.686C3020.28 391.113 3027.91 391.113 3034.09 394.686L3149.97 461.587C3156.16 465.159 3159.97 471.762 3159.97 478.907V612.708C3159.97 619.853 3156.16 626.456 3149.97 630.028L3034.09 696.929C3027.91 700.501 3020.28 700.501 3014.09 696.929L2898.22 630.028C2892.03 626.456 2888.22 619.853 2888.22 612.708V478.907C2888.22 471.762 2892.03 465.159 2898.22 461.587L3014.09 394.686Z" stroke="#6C63FF"></path> <g opacity="0.1"> <path opacity="0.75" d="M422.266 630.347C428.454 626.775 436.078 626.775 442.266 630.347L558.14 697.248C564.328 700.82 568.14 707.423 568.14 714.568V848.369C568.14 855.514 564.328 862.117 558.14 865.689L442.266 932.59C436.078 936.163 428.454 936.163 422.266 932.59L306.391 865.689C300.203 862.117 296.391 855.514 296.391 848.369V714.568C296.391 707.423 300.203 700.82 306.391 697.248L422.266 630.347Z" stroke="#6C63FF"></path> <path opacity="0.15" d="M559.164 864.732C565.352 861.159 572.976 861.159 579.164 864.732L695.039 931.632C701.227 935.205 705.039 941.808 705.039 948.953V1082.75C705.039 1089.9 701.227 1096.5 695.039 1100.07L579.164 1166.97C572.976 1170.55 565.352 1170.55 559.164 1166.97L443.289 1100.07C437.101 1096.5 433.289 1089.9 433.289 1082.75V948.953C433.289 941.808 437.101 935.205 443.289 931.632L559.164 864.732Z" stroke="#6C63FF"></path> <path opacity="0.25" d="M695.047 630.347C701.235 626.775 708.859 626.775 715.047 630.347L830.922 697.248C837.11 700.82 840.922 707.423 840.922 714.568V848.369C840.922 855.514 837.11 862.117 830.922 865.689L715.047 932.59C708.859 936.163 701.235 936.163 695.047 932.59L579.172 865.689C572.984 862.117 569.172 855.514 569.172 848.369V714.568C569.172 707.423 572.984 700.82 579.172 697.248L695.047 630.347Z" stroke="#6C63FF"></path> <path opacity="0.45" d="M831.922 864.732C838.11 861.159 845.734 861.159 851.922 864.732L967.797 931.632C973.985 935.205 977.797 941.808 977.797 948.953V1082.75C977.797 1089.9 973.985 1096.5 967.797 1100.07L851.922 1166.97C845.734 1170.55 838.11 1170.55 831.922 1166.97L716.047 1100.07C709.859 1096.5 706.047 1089.9 706.047 1082.75V948.953C706.047 941.808 709.859 935.205 716.047 931.632L831.922 864.732Z" stroke="#6C63FF"></path> </g> <g opacity="0.25"> <path opacity="0.75" d="M967.812 630.347C974 626.775 981.624 626.775 987.812 630.347L1103.69 697.248C1109.88 700.82 1113.69 707.423 1113.69 714.568V848.369C1113.69 855.514 1109.88 862.117 1103.69 865.689L987.812 932.59C981.624 936.163 974 936.163 967.812 932.59L851.937 865.689C845.749 862.117 841.938 855.514 841.938 848.369V714.568C841.938 707.423 845.749 700.82 851.937 697.248L967.812 630.347Z" stroke="#6C63FF"></path> <path opacity="0.15" d="M1104.71 864.732C1110.9 861.159 1118.52 861.159 1124.71 864.732L1240.59 931.632C1246.77 935.205 1250.59 941.808 1250.59 948.953V1082.75C1250.59 1089.9 1246.77 1096.5 1240.59 1100.07L1124.71 1166.97C1118.52 1170.55 1110.9 1170.55 1104.71 1166.97L988.836 1100.07C982.648 1096.5 978.836 1089.9 978.836 1082.75V948.953C978.836 941.808 982.648 935.205 988.836 931.632L1104.71 864.732Z" stroke="#6C63FF"></path> <path opacity="0.25" d="M1240.59 630.347C1246.78 626.775 1254.41 626.775 1260.59 630.347L1376.47 697.248C1382.66 700.82 1386.47 707.423 1386.47 714.568V848.369C1386.47 855.514 1382.66 862.117 1376.47 865.689L1260.59 932.59C1254.41 936.163 1246.78 936.163 1240.59 932.59L1124.72 865.689C1118.53 862.117 1114.72 855.514 1114.72 848.369V714.568C1114.72 707.423 1118.53 700.82 1124.72 697.248L1240.59 630.347Z" stroke="#6C63FF"></path> <path opacity="0.45" d="M1377.47 864.732C1383.66 861.159 1391.28 861.159 1397.47 864.732L1513.34 931.632C1519.53 935.205 1523.34 941.808 1523.34 948.953V1082.75C1523.34 1089.9 1519.53 1096.5 1513.34 1100.07L1397.47 1166.97C1391.28 1170.55 1383.66 1170.55 1377.47 1166.97L1261.59 1100.07C1255.41 1096.5 1251.59 1089.9 1251.59 1082.75V948.953C1251.59 941.808 1255.41 935.205 1261.59 931.632L1377.47 864.732Z" stroke="#6C63FF"></path> </g> <g opacity="0.45"> <path opacity="0.75" d="M1513.33 630.347C1519.52 626.775 1527.14 626.775 1533.33 630.347L1649.2 697.248C1655.39 700.82 1659.2 707.423 1659.2 714.568V848.369C1659.2 855.514 1655.39 862.117 1649.2 865.689L1533.33 932.59C1527.14 936.163 1519.52 936.163 1513.33 932.59L1397.45 865.689C1391.27 862.117 1387.45 855.514 1387.45 848.369V714.568C1387.45 707.423 1391.27 700.82 1397.45 697.248L1513.33 630.347Z" stroke="#6C63FF"></path> <path opacity="0.15" d="M1650.23 864.732C1656.41 861.159 1664.04 861.159 1670.23 864.732L1786.1 931.632C1792.29 935.205 1796.1 941.808 1796.1 948.953V1082.75C1796.1 1089.9 1792.29 1096.5 1786.1 1100.07L1670.23 1166.97C1664.04 1170.55 1656.41 1170.55 1650.23 1166.97L1534.35 1100.07C1528.16 1096.5 1524.35 1089.9 1524.35 1082.75V948.953C1524.35 941.808 1528.16 935.205 1534.35 931.632L1650.23 864.732Z" stroke="#6C63FF"></path> <path opacity="0.25" d="M1786.11 630.347C1792.3 626.775 1799.92 626.775 1806.11 630.347L1921.98 697.248C1928.17 700.82 1931.98 707.423 1931.98 714.568V848.369C1931.98 855.514 1928.17 862.117 1921.98 865.689L1806.11 932.59C1799.92 936.163 1792.3 936.163 1786.11 932.59L1670.23 865.689C1664.05 862.117 1660.23 855.514 1660.23 848.369V714.568C1660.23 707.423 1664.05 700.82 1670.23 697.248L1786.11 630.347Z" stroke="#6C63FF"></path> <path opacity="0.45" d="M1922.98 864.732C1929.17 861.159 1936.8 861.159 1942.98 864.732L2058.86 931.632C2065.05 935.205 2068.86 941.808 2068.86 948.953V1082.75C2068.86 1089.9 2065.05 1096.5 2058.86 1100.07L1942.98 1166.97C1936.8 1170.55 1929.17 1170.55 1922.98 1166.97L1807.11 1100.07C1800.92 1096.5 1797.11 1089.9 1797.11 1082.75V948.953C1797.11 941.808 1800.92 935.205 1807.11 931.632L1922.98 864.732Z" stroke="#6C63FF"></path> </g> <g opacity="0.75"> <path opacity="0.75" d="M2058.88 630.347C2065.07 626.775 2072.69 626.775 2078.88 630.347L2194.76 697.248C2200.95 700.82 2204.76 707.423 2204.76 714.568V848.369C2204.76 855.514 2200.95 862.117 2194.76 865.689L2078.88 932.59C2072.69 936.163 2065.07 936.163 2058.88 932.59L1943.01 865.689C1936.82 862.117 1933.01 855.514 1933.01 848.369V714.568C1933.01 707.423 1936.82 700.82 1943.01 697.248L2058.88 630.347Z" stroke="#6C63FF"></path> <path opacity="0.15" d="M2195.78 864.732C2201.97 861.159 2209.59 861.159 2215.78 864.732L2331.66 931.632C2337.84 935.205 2341.66 941.808 2341.66 948.953V1082.75C2341.66 1089.9 2337.84 1096.5 2331.66 1100.07L2215.78 1166.97C2209.59 1170.55 2201.97 1170.55 2195.78 1166.97L2079.91 1100.07C2073.72 1096.5 2069.91 1089.9 2069.91 1082.75V948.953C2069.91 941.808 2073.72 935.205 2079.91 931.632L2195.78 864.732Z" stroke="#6C63FF"></path> <path opacity="0.25" d="M2331.66 630.347C2337.85 626.775 2345.48 626.775 2351.66 630.347L2467.54 697.248C2473.73 700.82 2477.54 707.423 2477.54 714.568V848.369C2477.54 855.514 2473.73 862.117 2467.54 865.689L2351.66 932.59C2345.48 936.163 2337.85 936.163 2331.66 932.59L2215.79 865.689C2209.6 862.117 2205.79 855.514 2205.79 848.369V714.568C2205.79 707.423 2209.6 700.82 2215.79 697.248L2331.66 630.347Z" stroke="#6C63FF"></path> <path opacity="0.45" d="M2468.54 864.732C2474.73 861.159 2482.35 861.159 2488.54 864.732L2604.41 931.632C2610.6 935.205 2614.41 941.808 2614.41 948.953V1082.75C2614.41 1089.9 2610.6 1096.5 2604.41 1100.07L2488.54 1166.97C2482.35 1170.55 2474.73 1170.55 2468.54 1166.97L2352.66 1100.07C2346.48 1096.5 2342.66 1089.9 2342.66 1082.75V948.953C2342.66 941.808 2346.48 935.205 2352.66 931.632L2468.54 864.732Z" stroke="#6C63FF"></path> </g> <path opacity="0.75" d="M2604.44 630.347C2610.63 626.775 2618.25 626.775 2624.44 630.347L2740.31 697.248C2746.5 700.82 2750.31 707.423 2750.31 714.568V848.369C2750.31 855.514 2746.5 862.117 2740.31 865.689L2624.44 932.59C2618.25 936.163 2610.63 936.163 2604.44 932.59L2488.56 865.689C2482.37 862.117 2478.56 855.514 2478.56 848.369V714.568C2478.56 707.423 2482.37 700.82 2488.56 697.248L2604.44 630.347Z" stroke="#6C63FF"></path> <path opacity="0.15" d="M2741.34 864.732C2747.52 861.159 2755.15 861.159 2761.34 864.732L2877.21 931.632C2883.4 935.205 2887.21 941.808 2887.21 948.953V1082.75C2887.21 1089.9 2883.4 1096.5 2877.21 1100.07L2761.34 1166.97C2755.15 1170.55 2747.52 1170.55 2741.34 1166.97L2625.46 1100.07C2619.27 1096.5 2615.46 1089.9 2615.46 1082.75V948.953C2615.46 941.808 2619.27 935.205 2625.46 931.632L2741.34 864.732Z" stroke="#6C63FF"></path> <path opacity="0.25" d="M2877.22 630.347C2883.41 626.775 2891.03 626.775 2897.22 630.347L3013.09 697.248C3019.28 700.82 3023.09 707.423 3023.09 714.568V848.369C3023.09 855.514 3019.28 862.117 3013.09 865.689L2897.22 932.59C2891.03 936.163 2883.41 936.163 2877.22 932.59L2761.34 865.689C2755.16 862.117 2751.34 855.514 2751.34 848.369V714.568C2751.34 707.423 2755.16 700.82 2761.34 697.248L2877.22 630.347Z" stroke="#6C63FF"></path> <path opacity="0.45" d="M3014.09 864.732C3020.28 861.159 3027.91 861.159 3034.09 864.732L3149.97 931.632C3156.16 935.205 3159.97 941.808 3159.97 948.953V1082.75C3159.97 1089.9 3156.16 1096.5 3149.97 1100.07L3034.09 1166.97C3027.91 1170.55 3020.28 1170.55 3014.09 1166.97L2898.22 1100.07C2892.03 1096.5 2888.22 1089.9 2888.22 1082.75V948.953C2888.22 941.808 2892.03 935.205 2898.22 931.632L3014.09 864.732Z" stroke="#6C63FF"></path> <g opacity="0.1"> <path opacity="0.75" d="M422.266 1100.39C428.454 1096.82 436.078 1096.82 442.266 1100.39L558.14 1167.29C564.328 1170.87 568.14 1177.47 568.14 1184.61V1318.41C568.14 1325.56 564.328 1332.16 558.14 1335.73L442.266 1402.64C436.078 1406.21 428.454 1406.21 422.266 1402.64L306.391 1335.73C300.203 1332.16 296.391 1325.56 296.391 1318.41V1184.61C296.391 1177.47 300.203 1170.87 306.391 1167.29L422.266 1100.39Z" stroke="#6C63FF"></path> <path opacity="0.15" d="M559.164 1334.78C565.352 1331.2 572.976 1331.2 579.164 1334.78L695.039 1401.68C701.227 1405.25 705.039 1411.85 705.039 1419V1552.8C705.039 1559.94 701.227 1566.55 695.039 1570.12L579.164 1637.02C572.976 1640.59 565.352 1640.59 559.164 1637.02L443.289 1570.12C437.101 1566.55 433.289 1559.94 433.289 1552.8V1419C433.289 1411.85 437.101 1405.25 443.289 1401.68L559.164 1334.78Z" stroke="#6C63FF"></path> <path opacity="0.25" d="M695.047 1100.39C701.235 1096.82 708.859 1096.82 715.047 1100.39L830.922 1167.29C837.11 1170.87 840.922 1177.47 840.922 1184.61V1318.41C840.922 1325.56 837.11 1332.16 830.922 1335.73L715.047 1402.64C708.859 1406.21 701.235 1406.21 695.047 1402.64L579.172 1335.73C572.984 1332.16 569.172 1325.56 569.172 1318.41V1184.61C569.172 1177.47 572.984 1170.87 579.172 1167.29L695.047 1100.39Z" stroke="#6C63FF"></path> <path opacity="0.45" d="M831.922 1334.78C838.11 1331.2 845.734 1331.2 851.922 1334.78L967.797 1401.68C973.985 1405.25 977.797 1411.85 977.797 1419V1552.8C977.797 1559.94 973.985 1566.55 967.797 1570.12L851.922 1637.02C845.734 1640.59 838.11 1640.59 831.922 1637.02L716.047 1570.12C709.859 1566.55 706.047 1559.94 706.047 1552.8V1419C706.047 1411.85 709.859 1405.25 716.047 1401.68L831.922 1334.78Z" stroke="#6C63FF"></path> </g> <g opacity="0.25"> <path opacity="0.75" d="M967.812 1100.39C974 1096.82 981.624 1096.82 987.812 1100.39L1103.69 1167.29C1109.88 1170.87 1113.69 1177.47 1113.69 1184.61V1318.41C1113.69 1325.56 1109.88 1332.16 1103.69 1335.73L987.812 1402.64C981.624 1406.21 974 1406.21 967.812 1402.64L851.937 1335.73C845.749 1332.16 841.938 1325.56 841.938 1318.41V1184.61C841.938 1177.47 845.749 1170.87 851.937 1167.29L967.812 1100.39Z" stroke="#6C63FF"></path> <path opacity="0.15" d="M1104.71 1334.78C1110.9 1331.2 1118.52 1331.2 1124.71 1334.78L1240.59 1401.68C1246.77 1405.25 1250.59 1411.85 1250.59 1419V1552.8C1250.59 1559.94 1246.77 1566.55 1240.59 1570.12L1124.71 1637.02C1118.52 1640.59 1110.9 1640.59 1104.71 1637.02L988.836 1570.12C982.648 1566.55 978.836 1559.94 978.836 1552.8V1419C978.836 1411.85 982.648 1405.25 988.836 1401.68L1104.71 1334.78Z" stroke="#6C63FF"></path> <path opacity="0.25" d="M1240.59 1100.39C1246.78 1096.82 1254.41 1096.82 1260.59 1100.39L1376.47 1167.29C1382.66 1170.87 1386.47 1177.47 1386.47 1184.61V1318.41C1386.47 1325.56 1382.66 1332.16 1376.47 1335.73L1260.59 1402.64C1254.41 1406.21 1246.78 1406.21 1240.59 1402.64L1124.72 1335.73C1118.53 1332.16 1114.72 1325.56 1114.72 1318.41V1184.61C1114.72 1177.47 1118.53 1170.87 1124.72 1167.29L1240.59 1100.39Z" stroke="#6C63FF"></path> <path opacity="0.45" d="M1377.47 1334.78C1383.66 1331.2 1391.28 1331.2 1397.47 1334.78L1513.34 1401.68C1519.53 1405.25 1523.34 1411.85 1523.34 1419V1552.8C1523.34 1559.94 1519.53 1566.55 1513.34 1570.12L1397.47 1637.02C1391.28 1640.59 1383.66 1640.59 1377.47 1637.02L1261.59 1570.12C1255.41 1566.55 1251.59 1559.94 1251.59 1552.8V1419C1251.59 1411.85 1255.41 1405.25 1261.59 1401.68L1377.47 1334.78Z" stroke="#6C63FF"></path> </g> <g opacity="0.45"> <path opacity="0.75" d="M1513.33 1100.39C1519.52 1096.82 1527.14 1096.82 1533.33 1100.39L1649.2 1167.29C1655.39 1170.87 1659.2 1177.47 1659.2 1184.61V1318.41C1659.2 1325.56 1655.39 1332.16 1649.2 1335.73L1533.33 1402.64C1527.14 1406.21 1519.52 1406.21 1513.33 1402.64L1397.45 1335.73C1391.27 1332.16 1387.45 1325.56 1387.45 1318.41V1184.61C1387.45 1177.47 1391.27 1170.87 1397.45 1167.29L1513.33 1100.39Z" stroke="#6C63FF"></path> <path opacity="0.15" d="M1650.23 1334.78C1656.41 1331.2 1664.04 1331.2 1670.23 1334.78L1786.1 1401.68C1792.29 1405.25 1796.1 1411.85 1796.1 1419V1552.8C1796.1 1559.94 1792.29 1566.55 1786.1 1570.12L1670.23 1637.02C1664.04 1640.59 1656.41 1640.59 1650.23 1637.02L1534.35 1570.12C1528.16 1566.55 1524.35 1559.94 1524.35 1552.8V1419C1524.35 1411.85 1528.16 1405.25 1534.35 1401.68L1650.23 1334.78Z" stroke="#6C63FF"></path> <path opacity="0.25" d="M1786.11 1100.39C1792.3 1096.82 1799.92 1096.82 1806.11 1100.39L1921.98 1167.29C1928.17 1170.87 1931.98 1177.47 1931.98 1184.61V1318.41C1931.98 1325.56 1928.17 1332.16 1921.98 1335.73L1806.11 1402.64C1799.92 1406.21 1792.3 1406.21 1786.11 1402.64L1670.23 1335.73C1664.05 1332.16 1660.23 1325.56 1660.23 1318.41V1184.61C1660.23 1177.47 1664.05 1170.87 1670.23 1167.29L1786.11 1100.39Z" stroke="#6C63FF"></path> <path opacity="0.45" d="M1922.98 1334.78C1929.17 1331.2 1936.8 1331.2 1942.98 1334.78L2058.86 1401.68C2065.05 1405.25 2068.86 1411.85 2068.86 1419V1552.8C2068.86 1559.94 2065.05 1566.55 2058.86 1570.12L1942.98 1637.02C1936.8 1640.59 1929.17 1640.59 1922.98 1637.02L1807.11 1570.12C1800.92 1566.55 1797.11 1559.94 1797.11 1552.8V1419C1797.11 1411.85 1800.92 1405.25 1807.11 1401.68L1922.98 1334.78Z" stroke="#6C63FF"></path> </g> <g opacity="0.75"> <path opacity="0.75" d="M2058.88 1100.39C2065.07 1096.82 2072.69 1096.82 2078.88 1100.39L2194.76 1167.29C2200.95 1170.87 2204.76 1177.47 2204.76 1184.61V1318.42C2204.76 1325.56 2200.95 1332.16 2194.76 1335.74L2078.88 1402.64C2072.69 1406.21 2065.07 1406.21 2058.88 1402.64L1943.01 1335.74C1936.82 1332.16 1933.01 1325.56 1933.01 1318.42V1184.61C1933.01 1177.47 1936.82 1170.87 1943.01 1167.29L2058.88 1100.39Z" stroke="#6C63FF"></path> <path opacity="0.15" d="M2195.78 1334.78C2201.97 1331.2 2209.59 1331.2 2215.78 1334.78L2331.66 1401.68C2337.84 1405.25 2341.66 1411.85 2341.66 1419V1552.8C2341.66 1559.94 2337.84 1566.55 2331.66 1570.12L2215.78 1637.02C2209.59 1640.59 2201.97 1640.59 2195.78 1637.02L2079.91 1570.12C2073.72 1566.55 2069.91 1559.94 2069.91 1552.8V1419C2069.91 1411.85 2073.72 1405.25 2079.91 1401.68L2195.78 1334.78Z" stroke="#6C63FF"></path> <path opacity="0.25" d="M2331.66 1100.39C2337.85 1096.82 2345.48 1096.82 2351.66 1100.39L2467.54 1167.29C2473.73 1170.87 2477.54 1177.47 2477.54 1184.61V1318.42C2477.54 1325.56 2473.73 1332.16 2467.54 1335.74L2351.66 1402.64C2345.48 1406.21 2337.85 1406.21 2331.66 1402.64L2215.79 1335.74C2209.6 1332.16 2205.79 1325.56 2205.79 1318.42V1184.61C2205.79 1177.47 2209.6 1170.87 2215.79 1167.29L2331.66 1100.39Z" stroke="#6C63FF"></path> <path opacity="0.45" d="M2468.54 1334.78C2474.73 1331.2 2482.35 1331.2 2488.54 1334.78L2604.41 1401.68C2610.6 1405.25 2614.41 1411.85 2614.41 1419V1552.8C2614.41 1559.94 2610.6 1566.55 2604.41 1570.12L2488.54 1637.02C2482.35 1640.59 2474.73 1640.59 2468.54 1637.02L2352.66 1570.12C2346.48 1566.55 2342.66 1559.94 2342.66 1552.8V1419C2342.66 1411.85 2346.48 1405.25 2352.66 1401.68L2468.54 1334.78Z" stroke="#6C63FF"></path> </g> <g opacity="0.1"> <path opacity="0.75" d="M422.266 1570.44C428.454 1566.86 436.078 1566.86 442.266 1570.44L558.14 1637.34C564.328 1640.91 568.14 1647.51 568.14 1654.66V1788.46C568.14 1795.6 564.328 1802.21 558.14 1805.78L442.266 1872.68C436.078 1876.25 428.454 1876.25 422.266 1872.68L306.391 1805.78C300.203 1802.21 296.391 1795.6 296.391 1788.46V1654.66C296.391 1647.51 300.203 1640.91 306.391 1637.34L422.266 1570.44Z" stroke="#6C63FF"></path> <path opacity="0.15" d="M559.164 1804.82C565.352 1801.25 572.976 1801.25 579.164 1804.82L695.039 1871.72C701.227 1875.3 705.039 1881.9 705.039 1889.04V2022.84C705.039 2029.99 701.227 2036.59 695.039 2040.16L579.164 2107.07C572.976 2110.64 565.352 2110.64 559.164 2107.07L443.289 2040.16C437.101 2036.59 433.289 2029.99 433.289 2022.84V1889.04C433.289 1881.9 437.101 1875.3 443.289 1871.72L559.164 1804.82Z" stroke="#6C63FF"></path> <path opacity="0.25" d="M695.047 1570.44C701.235 1566.86 708.859 1566.86 715.047 1570.44L830.922 1637.34C837.11 1640.91 840.922 1647.51 840.922 1654.66V1788.46C840.922 1795.6 837.11 1802.21 830.922 1805.78L715.047 1872.68C708.859 1876.25 701.235 1876.25 695.047 1872.68L579.172 1805.78C572.984 1802.21 569.172 1795.6 569.172 1788.46V1654.66C569.172 1647.51 572.984 1640.91 579.172 1637.34L695.047 1570.44Z" stroke="#6C63FF"></path> <path opacity="0.45" d="M831.922 1804.82C838.11 1801.25 845.734 1801.25 851.922 1804.82L967.797 1871.72C973.985 1875.3 977.797 1881.9 977.797 1889.04V2022.84C977.797 2029.99 973.985 2036.59 967.797 2040.16L851.922 2107.07C845.734 2110.64 838.11 2110.64 831.922 2107.07L716.047 2040.16C709.859 2036.59 706.047 2029.99 706.047 2022.84V1889.04C706.047 1881.9 709.859 1875.3 716.047 1871.72L831.922 1804.82Z" stroke="#6C63FF"></path> </g> <g opacity="0.25"> <path opacity="0.75" d="M967.812 1570.44C974 1566.86 981.624 1566.86 987.812 1570.44L1103.69 1637.34C1109.88 1640.91 1113.69 1647.51 1113.69 1654.66V1788.46C1113.69 1795.6 1109.88 1802.21 1103.69 1805.78L987.812 1872.68C981.624 1876.25 974 1876.25 967.812 1872.68L851.937 1805.78C845.749 1802.21 841.938 1795.6 841.938 1788.46V1654.66C841.938 1647.51 845.749 1640.91 851.937 1637.34L967.812 1570.44Z" stroke="#6C63FF"></path> <path opacity="0.15" d="M1104.71 1804.82C1110.9 1801.25 1118.52 1801.25 1124.71 1804.82L1240.59 1871.72C1246.77 1875.3 1250.59 1881.9 1250.59 1889.04V2022.84C1250.59 2029.99 1246.77 2036.59 1240.59 2040.16L1124.71 2107.07C1118.52 2110.64 1110.9 2110.64 1104.71 2107.07L988.836 2040.16C982.648 2036.59 978.836 2029.99 978.836 2022.84V1889.04C978.836 1881.9 982.648 1875.3 988.836 1871.72L1104.71 1804.82Z" stroke="#6C63FF"></path> <path opacity="0.25" d="M1240.59 1570.44C1246.78 1566.86 1254.41 1566.86 1260.59 1570.44L1376.47 1637.34C1382.66 1640.91 1386.47 1647.51 1386.47 1654.66V1788.46C1386.47 1795.6 1382.66 1802.21 1376.47 1805.78L1260.59 1872.68C1254.41 1876.25 1246.78 1876.25 1240.59 1872.68L1124.72 1805.78C1118.53 1802.21 1114.72 1795.6 1114.72 1788.46V1654.66C1114.72 1647.51 1118.53 1640.91 1124.72 1637.34L1240.59 1570.44Z" stroke="#6C63FF"></path> <path opacity="0.45" d="M1377.47 1804.82C1383.66 1801.25 1391.28 1801.25 1397.47 1804.82L1513.34 1871.72C1519.53 1875.3 1523.34 1881.9 1523.34 1889.04V2022.84C1523.34 2029.99 1519.53 2036.59 1513.34 2040.16L1397.47 2107.07C1391.28 2110.64 1383.66 2110.64 1377.47 2107.07L1261.59 2040.16C1255.41 2036.59 1251.59 2029.99 1251.59 2022.84V1889.04C1251.59 1881.9 1255.41 1875.3 1261.59 1871.72L1377.47 1804.82Z" stroke="#6C63FF"></path> </g> <g opacity="0.25"> <path opacity="0.75" d="M696.43 27.7735C702.618 24.2008 710.242 24.2008 716.43 27.7735L832.305 94.6739C838.493 98.2466 842.304 104.849 842.304 111.994V245.795C842.304 252.941 838.493 259.543 832.304 263.116L716.43 330.016C710.242 333.589 702.618 333.589 696.43 330.016L580.555 263.116C574.367 259.543 570.555 252.941 570.555 245.795V111.994C570.555 104.849 574.367 98.2466 580.555 94.6739L696.43 27.7735Z" stroke="url(#paint0_linear_1624_599)" stroke-width="50"></path> <path opacity="0.15" d="M833.328 262.158C839.516 258.586 847.14 258.586 853.328 262.158L969.203 329.059C975.391 332.631 979.203 339.234 979.203 346.379V480.18C979.203 487.325 975.391 493.928 969.203 497.501L853.328 564.401C847.14 567.974 839.516 567.974 833.328 564.401L717.453 497.501C711.265 493.928 707.453 487.325 707.453 480.18V346.379C707.453 339.234 711.265 332.631 717.453 329.059L833.328 262.158Z" stroke="url(#paint1_linear_1624_599)" stroke-width="50"></path> <path opacity="0.25" d="M969.211 27.7735C975.399 24.2008 983.023 24.2008 989.211 27.7735L1105.09 94.6739C1111.27 98.2466 1115.09 104.849 1115.09 111.994V245.795C1115.09 252.941 1111.27 259.543 1105.09 263.116L989.211 330.016C983.023 333.589 975.399 333.589 969.211 330.016L853.336 263.116C847.148 259.543 843.336 252.941 843.336 245.795V111.994C843.336 104.849 847.148 98.2466 853.336 94.6739L969.211 27.7735Z" stroke="url(#paint2_linear_1624_599)" stroke-width="50"></path> <path opacity="0.45" d="M1106.09 262.158C1112.27 258.586 1119.9 258.586 1126.09 262.158L1241.96 329.059C1248.15 332.631 1251.96 339.234 1251.96 346.379V480.18C1251.96 487.325 1248.15 493.928 1241.96 497.501L1126.09 564.401C1119.9 567.974 1112.27 567.974 1106.09 564.401L990.211 497.501C984.023 493.928 980.211 487.325 980.211 480.18V346.379C980.211 339.234 984.023 332.631 990.211 329.059L1106.09 262.158Z" stroke="url(#paint3_linear_1624_599)" stroke-width="50"></path> </g> <g opacity="0.75"> <path opacity="0.75" d="M1787.52 27.7735C1793.7 24.2008 1801.33 24.2008 1807.52 27.7735L1923.39 94.6739C1929.58 98.2466 1933.39 104.849 1933.39 111.994V245.795C1933.39 252.941 1929.58 259.543 1923.39 263.116L1807.52 330.016C1801.33 333.589 1793.7 333.589 1787.52 330.016L1671.64 263.116C1665.45 259.543 1661.64 252.941 1661.64 245.795V111.994C1661.64 104.849 1665.45 98.2466 1671.64 94.6739L1787.52 27.7735Z" stroke="url(#paint4_linear_1624_599)" stroke-width="50"></path> <path opacity="0.15" d="M1924.41 262.158C1930.6 258.586 1938.23 258.586 1944.41 262.158L2060.29 329.059C2066.48 332.631 2070.29 339.234 2070.29 346.379V480.18C2070.29 487.325 2066.48 493.928 2060.29 497.501L1944.41 564.401C1938.23 567.974 1930.6 567.974 1924.41 564.401L1808.54 497.501C1802.35 493.928 1798.54 487.325 1798.54 480.18V346.379C1798.54 339.234 1802.35 332.631 1808.54 329.059L1924.41 262.158Z" stroke="url(#paint5_linear_1624_599)" stroke-width="50"></path> <path opacity="0.25" d="M2060.3 27.7735C2066.48 24.2008 2074.11 24.2008 2080.3 27.7735L2196.17 94.6739C2202.36 98.2466 2206.17 104.849 2206.17 111.994V245.795C2206.17 252.941 2202.36 259.543 2196.17 263.116L2080.3 330.016C2074.11 333.589 2066.48 333.589 2060.3 330.016L1944.42 263.116C1938.23 259.543 1934.42 252.941 1934.42 245.795V111.994C1934.42 104.849 1938.23 98.2466 1944.42 94.6739L2060.3 27.7735Z" stroke="url(#paint6_linear_1624_599)" stroke-width="50"></path> <path opacity="0.45" d="M2197.17 262.158C2203.36 258.586 2210.98 258.586 2217.17 262.158L2333.05 329.059C2339.23 332.631 2343.05 339.234 2343.05 346.379V480.18C2343.05 487.325 2339.23 493.928 2333.05 497.501L2217.17 564.401C2210.98 567.974 2203.36 567.974 2197.17 564.401L2081.3 497.501C2075.11 493.928 2071.3 487.325 2071.3 480.18V346.379C2071.3 339.234 2075.11 332.631 2081.3 329.059L2197.17 262.158Z" stroke="url(#paint7_linear_1624_599)" stroke-width="50"></path> </g> <g opacity="0.1"> <path opacity="0.75" d="M150.875 497.82C157.063 494.247 164.687 494.247 170.875 497.82L286.75 564.72C292.938 568.293 296.75 574.895 296.75 582.041V715.842C296.75 722.987 292.938 729.589 286.75 733.162L170.875 800.063C164.687 803.635 157.063 803.635 150.875 800.063L35 733.162C28.812 729.589 25 722.987 25 715.842V582.041C25 574.895 28.812 568.293 35 564.72L150.875 497.82Z" stroke="url(#paint8_linear_1624_599)" stroke-width="50"></path> <path opacity="0.15" d="M287.773 732.204C293.961 728.631 301.585 728.631 307.773 732.204L423.648 799.104C429.836 802.677 433.648 809.279 433.648 816.425V950.225C433.648 957.371 429.836 963.973 423.648 967.546L307.773 1034.45C301.585 1038.02 293.961 1038.02 287.773 1034.45L171.898 967.546C165.71 963.973 161.898 957.371 161.898 950.225V816.425C161.898 809.279 165.71 802.677 171.898 799.104L287.773 732.204Z" stroke="url(#paint9_linear_1624_599)" stroke-width="50"></path> <path opacity="0.25" d="M423.656 497.82C429.844 494.247 437.468 494.247 443.656 497.82L559.531 564.72C565.719 568.293 569.531 574.895 569.531 582.041V715.842C569.531 722.987 565.719 729.589 559.531 733.162L443.656 800.063C437.468 803.635 429.844 803.635 423.656 800.063L307.781 733.162C301.593 729.589 297.781 722.987 297.781 715.842V582.041C297.781 574.895 301.593 568.293 307.781 564.72L423.656 497.82Z" stroke="url(#paint10_linear_1624_599)" stroke-width="50"></path> <path opacity="0.45" d="M560.531 732.204C566.719 728.631 574.343 728.631 580.531 732.204L696.406 799.104C702.594 802.677 706.406 809.279 706.406 816.425V950.225C706.406 957.371 702.594 963.973 696.406 967.546L580.531 1034.45C574.343 1038.02 566.719 1038.02 560.531 1034.45L444.656 967.546C438.468 963.973 434.656 957.371 434.656 950.225V816.425C434.656 809.279 438.468 802.677 444.656 799.104L560.531 732.204Z" stroke="url(#paint11_linear_1624_599)" stroke-width="50"></path> </g> <g opacity="0.45"> <path opacity="0.75" d="M1241.95 497.819C1248.14 494.247 1255.77 494.247 1261.95 497.819L1377.83 564.72C1384.02 568.292 1387.83 574.895 1387.83 582.04V715.841C1387.83 722.986 1384.02 729.589 1377.83 733.162L1261.95 800.062C1255.77 803.635 1248.14 803.635 1241.95 800.062L1126.08 733.162C1119.89 729.589 1116.08 722.986 1116.08 715.841V582.04C1116.08 574.895 1119.89 568.292 1126.08 564.72L1241.95 497.819Z" stroke="url(#paint12_linear_1624_599)" stroke-width="50"></path> <path opacity="0.15" d="M1378.85 732.204C1385.04 728.632 1392.66 728.632 1398.85 732.204L1514.73 799.105C1520.91 802.677 1524.73 809.28 1524.73 816.425V950.226C1524.73 957.371 1520.91 963.974 1514.73 967.546L1398.85 1034.45C1392.66 1038.02 1385.04 1038.02 1378.85 1034.45L1262.98 967.546C1256.79 963.974 1252.98 957.371 1252.98 950.226V816.425C1252.98 809.28 1256.79 802.677 1262.98 799.105L1378.85 732.204Z" stroke="url(#paint13_linear_1624_599)" stroke-width="50"></path> <path opacity="0.25" d="M1514.73 497.819C1520.92 494.247 1528.55 494.247 1534.73 497.819L1650.61 564.72C1656.8 568.292 1660.61 574.895 1660.61 582.04V715.841C1660.61 722.986 1656.8 729.589 1650.61 733.162L1534.73 800.062C1528.55 803.635 1520.92 803.635 1514.73 800.062L1398.86 733.162C1392.67 729.589 1388.86 722.986 1388.86 715.841V582.04C1388.86 574.895 1392.67 568.292 1398.86 564.72L1514.73 497.819Z" stroke="url(#paint14_linear_1624_599)" stroke-width="50"></path> <path opacity="0.45" d="M1651.61 732.204C1657.8 728.632 1665.42 728.632 1671.61 732.204L1787.48 799.105C1793.67 802.677 1797.48 809.28 1797.48 816.425V950.226C1797.48 957.371 1793.67 963.974 1787.48 967.546L1671.61 1034.45C1665.42 1038.02 1657.8 1038.02 1651.61 1034.45L1535.73 967.546C1529.55 963.974 1525.73 957.371 1525.73 950.226V816.425C1525.73 809.28 1529.55 802.677 1535.73 799.105L1651.61 732.204Z" stroke="url(#paint15_linear_1624_599)" stroke-width="50"></path> </g> <g opacity="0.75"> <path opacity="0.75" d="M1787.52 497.82C1793.7 494.247 1801.33 494.247 1807.52 497.82L1923.39 564.72C1929.58 568.293 1933.39 574.895 1933.39 582.041V715.842C1933.39 722.987 1929.58 729.589 1923.39 733.162L1807.52 800.063C1801.33 803.635 1793.7 803.635 1787.52 800.063L1671.64 733.162C1665.45 729.589 1661.64 722.987 1661.64 715.842V582.041C1661.64 574.895 1665.45 568.293 1671.64 564.72L1787.52 497.82Z" stroke="url(#paint16_linear_1624_599)" stroke-width="50"></path> <path opacity="0.15" d="M1924.41 732.204C1930.6 728.631 1938.23 728.631 1944.41 732.204L2060.29 799.104C2066.48 802.677 2070.29 809.279 2070.29 816.425V950.225C2070.29 957.371 2066.48 963.973 2060.29 967.546L1944.41 1034.45C1938.23 1038.02 1930.6 1038.02 1924.41 1034.45L1808.54 967.546C1802.35 963.973 1798.54 957.371 1798.54 950.225V816.425C1798.54 809.279 1802.35 802.677 1808.54 799.104L1924.41 732.204Z" stroke="url(#paint17_linear_1624_599)" stroke-width="50"></path> <path opacity="0.25" d="M2060.3 497.82C2066.48 494.247 2074.11 494.247 2080.3 497.82L2196.17 564.72C2202.36 568.293 2206.17 574.895 2206.17 582.041V715.842C2206.17 722.987 2202.36 729.589 2196.17 733.162L2080.3 800.063C2074.11 803.635 2066.48 803.635 2060.3 800.063L1944.42 733.162C1938.23 729.589 1934.42 722.987 1934.42 715.842V582.041C1934.42 574.895 1938.23 568.293 1944.42 564.72L2060.3 497.82Z" stroke="url(#paint18_linear_1624_599)" stroke-width="50"></path> <path opacity="0.45" d="M2197.17 732.204C2203.36 728.631 2210.98 728.631 2217.17 732.204L2333.05 799.104C2339.23 802.677 2343.05 809.279 2343.05 816.425V950.225C2343.05 957.371 2339.23 963.973 2333.05 967.546L2217.17 1034.45C2210.98 1038.02 2203.36 1038.02 2197.17 1034.45L2081.3 967.546C2075.11 963.973 2071.3 957.371 2071.3 950.225V816.425C2071.3 809.279 2075.11 802.677 2081.3 799.104L2197.17 732.204Z" stroke="url(#paint19_linear_1624_599)" stroke-width="50"></path> </g> <path opacity="0.75" d="M2333.06 497.819C2339.25 494.247 2346.87 494.247 2353.06 497.819L2468.94 564.72C2475.13 568.292 2478.94 574.895 2478.94 582.04V715.841C2478.94 722.986 2475.13 729.589 2468.94 733.162L2353.06 800.062C2346.87 803.635 2339.25 803.635 2333.06 800.062L2217.19 733.162C2211 729.589 2207.19 722.986 2207.19 715.841V582.04C2207.19 574.895 2211 568.292 2217.19 564.72L2333.06 497.819Z" stroke="url(#paint20_linear_1624_599)" stroke-width="50"></path> <path opacity="0.15" d="M2469.96 732.204C2476.15 728.632 2483.77 728.632 2489.96 732.204L2605.84 799.105C2612.02 802.677 2615.84 809.28 2615.84 816.425V950.226C2615.84 957.371 2612.02 963.974 2605.84 967.546L2489.96 1034.45C2483.77 1038.02 2476.15 1038.02 2469.96 1034.45L2354.09 967.546C2347.9 963.974 2344.09 957.371 2344.09 950.226V816.425C2344.09 809.28 2347.9 802.677 2354.09 799.105L2469.96 732.204Z" stroke="url(#paint21_linear_1624_599)" stroke-width="50"></path> <path opacity="0.25" d="M2605.84 497.819C2612.03 494.247 2619.66 494.247 2625.84 497.819L2741.72 564.72C2747.91 568.292 2751.72 574.895 2751.72 582.04V715.841C2751.72 722.986 2747.91 729.589 2741.72 733.162L2625.84 800.062C2619.66 803.635 2612.03 803.635 2605.84 800.062L2489.97 733.162C2483.78 729.589 2479.97 722.986 2479.97 715.841V582.04C2479.97 574.895 2483.78 568.292 2489.97 564.72L2605.84 497.819Z" stroke="url(#paint22_linear_1624_599)" stroke-width="50"></path> <path opacity="0.45" d="M2742.72 732.204C2748.91 728.632 2756.53 728.632 2762.72 732.204L2878.59 799.105C2884.78 802.677 2888.59 809.28 2888.59 816.425V950.226C2888.59 957.371 2884.78 963.974 2878.59 967.546L2762.72 1034.45C2756.53 1038.02 2748.91 1038.02 2742.72 1034.45L2626.84 967.546C2620.66 963.974 2616.84 957.371 2616.84 950.226V816.425C2616.84 809.28 2620.66 802.677 2626.84 799.105L2742.72 732.204Z" stroke="url(#paint23_linear_1624_599)" stroke-width="50"></path> <g opacity="0.25"> <path opacity="0.75" d="M696.43 967.866C702.618 964.293 710.242 964.293 716.43 967.866L832.305 1034.77C838.493 1038.34 842.304 1044.94 842.304 1052.09V1185.89C842.304 1193.03 838.493 1199.64 832.304 1203.21L716.43 1270.11C710.242 1273.68 702.618 1273.68 696.43 1270.11L580.555 1203.21C574.367 1199.64 570.555 1193.03 570.555 1185.89V1052.09C570.555 1044.94 574.367 1038.34 580.555 1034.77L696.43 967.866Z" stroke="url(#paint24_linear_1624_599)" stroke-width="50"></path> <path opacity="0.15" d="M833.328 1202.25C839.516 1198.68 847.14 1198.68 853.328 1202.25L969.203 1269.15C975.391 1272.72 979.203 1279.33 979.203 1286.47V1420.27C979.203 1427.42 975.391 1434.02 969.203 1437.59L853.328 1504.49C847.14 1508.07 839.516 1508.07 833.328 1504.49L717.453 1437.59C711.265 1434.02 707.453 1427.42 707.453 1420.27V1286.47C707.453 1279.33 711.265 1272.72 717.453 1269.15L833.328 1202.25Z" stroke="url(#paint25_linear_1624_599)" stroke-width="50"></path> <path opacity="0.25" d="M969.211 967.866C975.399 964.293 983.023 964.293 989.211 967.866L1105.09 1034.77C1111.27 1038.34 1115.09 1044.94 1115.09 1052.09V1185.89C1115.09 1193.03 1111.27 1199.64 1105.09 1203.21L989.211 1270.11C983.023 1273.68 975.399 1273.68 969.211 1270.11L853.336 1203.21C847.148 1199.64 843.336 1193.03 843.336 1185.89V1052.09C843.336 1044.94 847.148 1038.34 853.336 1034.77L969.211 967.866Z" stroke="url(#paint26_linear_1624_599)" stroke-width="50"></path> <path opacity="0.45" d="M1106.09 1202.25C1112.27 1198.68 1119.9 1198.68 1126.09 1202.25L1241.96 1269.15C1248.15 1272.72 1251.96 1279.33 1251.96 1286.47V1420.27C1251.96 1427.42 1248.15 1434.02 1241.96 1437.59L1126.09 1504.49C1119.9 1508.07 1112.27 1508.07 1106.09 1504.49L990.211 1437.59C984.023 1434.02 980.211 1427.42 980.211 1420.27V1286.47C980.211 1279.33 984.023 1272.72 990.211 1269.15L1106.09 1202.25Z" stroke="url(#paint27_linear_1624_599)" stroke-width="50"></path> </g> <g opacity="0.75"> <path opacity="0.75" d="M1787.52 967.865C1793.7 964.292 1801.33 964.292 1807.52 967.865L1923.39 1034.77C1929.58 1038.34 1933.39 1044.94 1933.39 1052.09V1185.89C1933.39 1193.03 1929.58 1199.63 1923.39 1203.21L1807.52 1270.11C1801.33 1273.68 1793.7 1273.68 1787.52 1270.11L1671.64 1203.21C1665.45 1199.63 1661.64 1193.03 1661.64 1185.89V1052.09C1661.64 1044.94 1665.45 1038.34 1671.64 1034.77L1787.52 967.865Z" stroke="url(#paint28_linear_1624_599)" stroke-width="50"></path> <path opacity="0.15" d="M1924.41 1202.25C1930.6 1198.68 1938.23 1198.68 1944.41 1202.25L2060.29 1269.15C2066.48 1272.72 2070.29 1279.33 2070.29 1286.47V1420.27C2070.29 1427.42 2066.48 1434.02 2060.29 1437.59L1944.41 1504.49C1938.23 1508.06 1930.6 1508.06 1924.41 1504.49L1808.54 1437.59C1802.35 1434.02 1798.54 1427.42 1798.54 1420.27V1286.47C1798.54 1279.33 1802.35 1272.72 1808.54 1269.15L1924.41 1202.25Z" stroke="url(#paint29_linear_1624_599)" stroke-width="50"></path> <path opacity="0.25" d="M2060.3 967.865C2066.48 964.292 2074.11 964.292 2080.3 967.865L2196.17 1034.77C2202.36 1038.34 2206.17 1044.94 2206.17 1052.09V1185.89C2206.17 1193.03 2202.36 1199.63 2196.17 1203.21L2080.3 1270.11C2074.11 1273.68 2066.48 1273.68 2060.3 1270.11L1944.42 1203.21C1938.23 1199.63 1934.42 1193.03 1934.42 1185.89V1052.09C1934.42 1044.94 1938.23 1038.34 1944.42 1034.77L2060.3 967.865Z" stroke="url(#paint30_linear_1624_599)" stroke-width="50"></path> <path opacity="0.45" d="M2197.17 1202.25C2203.36 1198.68 2210.98 1198.68 2217.17 1202.25L2333.05 1269.15C2339.23 1272.72 2343.05 1279.33 2343.05 1286.47V1420.27C2343.05 1427.42 2339.23 1434.02 2333.05 1437.59L2217.17 1504.49C2210.98 1508.06 2203.36 1508.06 2197.17 1504.49L2081.3 1437.59C2075.11 1434.02 2071.3 1427.42 2071.3 1420.27V1286.47C2071.3 1279.33 2075.11 1272.72 2081.3 1269.15L2197.17 1202.25Z" stroke="url(#paint31_linear_1624_599)" stroke-width="50"></path> </g> <g filter="url(#filter0_f_1624_599)"> <path d="M1736 1609L1436 1309H1736V1609Z" fill="url(#paint32_linear_1624_599)"></path> </g> <g filter="url(#filter1_f_1624_599)"> <path d="M2111 797L1811 497V797H2111Z" fill="url(#paint33_linear_1624_599)"></path> </g> <g filter="url(#filter2_dd_1624_599)"> <rect x="1420" y="481" width="407" height="844" rx="50" fill="url(#paint34_linear_1624_599)"></rect> </g> <rect x="1436" y="497" width="375" height="812" rx="36" fill="url(#paint35_linear_1624_599)"></rect> <path d="M1473.21 514.167C1470.92 514.167 1469.29 515.735 1469.29 517.881V517.896C1469.29 519.902 1470.71 521.382 1472.74 521.382C1474.19 521.382 1475.11 520.642 1475.5 519.807H1475.65C1475.65 519.888 1475.64 519.968 1475.64 520.049C1475.56 522.07 1474.85 523.711 1473.17 523.711C1472.24 523.711 1471.59 523.228 1471.31 522.488L1471.29 522.415H1469.43L1469.44 522.495C1469.78 524.114 1471.23 525.264 1473.17 525.264C1475.83 525.264 1477.43 523.154 1477.43 519.595V519.58C1477.43 515.771 1475.47 514.167 1473.21 514.167ZM1473.21 519.932C1472.01 519.932 1471.13 519.053 1471.13 517.83V517.815C1471.13 516.636 1472.06 515.706 1473.23 515.706C1474.4 515.706 1475.32 516.65 1475.32 517.859V517.874C1475.32 519.067 1474.4 519.932 1473.21 519.932ZM1480.46 518.152C1481.13 518.152 1481.62 517.639 1481.62 516.995C1481.62 516.343 1481.13 515.837 1480.46 515.837C1479.79 515.837 1479.29 516.343 1479.29 516.995C1479.29 517.639 1479.79 518.152 1480.46 518.152ZM1480.46 523.586C1481.13 523.586 1481.62 523.081 1481.62 522.429C1481.62 521.777 1481.13 521.272 1480.46 521.272C1479.79 521.272 1479.29 521.777 1479.29 522.429C1479.29 523.081 1479.79 523.586 1480.46 523.586ZM1488.61 525H1490.42V522.971H1491.84V521.411H1490.42V514.431H1487.75C1486.31 516.614 1484.81 519.045 1483.44 521.426V522.971H1488.61V525ZM1485.2 521.455V521.345C1486.22 519.551 1487.45 517.595 1488.53 515.94H1488.64V521.455H1485.2ZM1495.92 525H1497.81V514.431H1495.93L1493.17 516.372V518.152L1495.8 516.292H1495.92V525Z" fill="black"></path> <rect opacity="0.35" x="1772.84" y="514.834" width="21" height="10.3333" rx="2.16667" stroke="black"></rect> <path opacity="0.4" d="M1795.34 518V522C1796.14 521.662 1796.66 520.874 1796.66 520C1796.66 519.127 1796.14 518.339 1795.34 518" fill="black"></path> <rect x="1774.34" y="516.334" width="18" height="7.33333" rx="1.33333" fill="black"></rect> <path fill-rule="evenodd" clip-rule="evenodd" d="M1759.67 516.615C1761.89 516.615 1764.03 517.469 1765.64 519C1765.77 519.119 1765.96 519.117 1766.08 518.997L1767.24 517.827C1767.3 517.766 1767.33 517.683 1767.33 517.597C1767.33 517.512 1767.3 517.429 1767.24 517.369C1763 513.317 1756.33 513.317 1752.1 517.369C1752.04 517.429 1752 517.511 1752 517.597C1752 517.683 1752.03 517.766 1752.09 517.827L1753.25 518.997C1753.37 519.117 1753.57 519.119 1753.69 519C1755.3 517.469 1757.44 516.615 1759.67 516.615ZM1759.67 520.422C1760.89 520.422 1762.07 520.876 1762.97 521.696C1763.1 521.812 1763.29 521.81 1763.41 521.69L1764.57 520.52C1764.63 520.458 1764.66 520.375 1764.66 520.289C1764.66 520.202 1764.63 520.119 1764.56 520.059C1761.8 517.495 1757.53 517.495 1754.77 520.059C1754.71 520.119 1754.67 520.202 1754.67 520.289C1754.67 520.375 1754.71 520.458 1754.77 520.52L1755.93 521.69C1756.05 521.81 1756.24 521.812 1756.36 521.696C1757.27 520.877 1758.45 520.423 1759.67 520.422ZM1761.99 522.984C1761.99 523.071 1761.96 523.154 1761.9 523.215L1759.89 525.237C1759.83 525.297 1759.75 525.33 1759.67 525.33C1759.58 525.33 1759.5 525.297 1759.44 525.237L1757.44 523.215C1757.38 523.154 1757.34 523.071 1757.34 522.984C1757.35 522.897 1757.38 522.815 1757.45 522.757C1758.73 521.675 1760.61 521.675 1761.89 522.757C1761.95 522.815 1761.99 522.897 1761.99 522.984Z" fill="black"></path> <path fill-rule="evenodd" clip-rule="evenodd" d="M1746 514.666H1745C1744.45 514.666 1744 515.114 1744 515.666V524.333C1744 524.885 1744.45 525.333 1745 525.333H1746C1746.55 525.333 1747 524.885 1747 524.333V515.666C1747 515.114 1746.55 514.666 1746 514.666ZM1740.33 516.999H1741.33C1741.89 516.999 1742.33 517.447 1742.33 517.999V524.333C1742.33 524.885 1741.89 525.333 1741.33 525.333H1740.33C1739.78 525.333 1739.33 524.885 1739.33 524.333V517.999C1739.33 517.447 1739.78 516.999 1740.33 516.999ZM1736.67 519.333H1735.67C1735.11 519.333 1734.67 519.78 1734.67 520.333V524.333C1734.67 524.885 1735.11 525.333 1735.67 525.333H1736.67C1737.22 525.333 1737.67 524.885 1737.67 524.333V520.333C1737.67 519.78 1737.22 519.333 1736.67 519.333ZM1732 521.333H1731C1730.45 521.333 1730 521.78 1730 522.333V524.333C1730 524.885 1730.45 525.333 1731 525.333H1732C1732.55 525.333 1733 524.885 1733 524.333V522.333C1733 521.78 1732.55 521.333 1732 521.333Z" fill="black"></path> <rect x="1557" y="1294" width="134" height="5" rx="2.5" fill="black"></rect> <rect x="1436" y="497" width="375" height="812" rx="36" fill="url(#paint36_linear_1624_599)" fill-opacity="0.25" style="mix-blend-mode:screen"></rect> <path opacity="0.5" d="M1827 662H1828.5C1829.33 662 1830 662.672 1830 663.5V756.5C1830 757.328 1829.33 758 1828.5 758H1827V662Z" fill="black"></path> <path opacity="0.5" d="M1420 720H1418.5C1417.67 720 1417 720.672 1417 721.5V776.5C1417 777.328 1417.67 778 1418.5 778H1420V720Z" fill="black"></path> <path opacity="0.5" d="M1420 643H1418.5C1417.67 643 1417 643.672 1417 644.5V699.5C1417 700.328 1417.67 701 1418.5 701H1420V643Z" fill="black"></path> <path opacity="0.5" d="M1420 582H1418.5C1417.67 582 1417 582.672 1417 583.5V609.5C1417 610.328 1417.67 611 1418.5 611H1420V582Z" fill="black"></path> <path fill-rule="evenodd" clip-rule="evenodd" d="M1545 497C1547.5 497 1550 499.5 1550 502V503.597C1550 511.552 1556.45 518 1564.4 518H1683.6C1691.55 518 1698 511.552 1698 503.597V502C1698 499.143 1700.14 497 1703 497H1698H1550H1545Z" fill="url(#paint37_linear_1624_599)"></path> <g opacity="0.75"> <rect x="1602" y="499" width="43" height="7" rx="3.5" fill="black"></rect> <rect x="1602" y="499" width="43" height="7" rx="3.5" fill="black"></rect> </g> <circle cx="1653.5" cy="502.5" r="5.5" fill="black"></circle> <circle cx="1653.5" cy="502.5" r="5.5" fill="black"></circle> <circle cx="1653.5" cy="502.5" r="5.5" fill="black"></circle> <circle cx="1653.5" cy="502.5" r="5.5" fill="black"></circle> <circle opacity="0.15" cx="1653.5" cy="502.5" r="3.5" fill="white"></circle> <g filter="url(#filter3_f_1624_599)"> <path d="M2188 1259L1888 959H2188V1259Z" fill="url(#paint38_linear_1624_599)"></path> </g> <g filter="url(#filter4_f_1624_599)"> <path d="M2563 447L2263 147V447L2563 447Z" fill="url(#paint39_linear_1624_599)"></path> </g> <g filter="url(#filter5_dd_1624_599)"> <rect x="1872" y="131" width="407" height="844" rx="50" fill="url(#paint40_linear_1624_599)"></rect> </g> <rect x="1888" y="147" width="375" height="812" rx="36" fill="url(#paint41_linear_1624_599)"></rect> <path d="M1925.21 164.167C1922.92 164.167 1921.29 165.735 1921.29 167.881V167.896C1921.29 169.902 1922.71 171.382 1924.74 171.382C1926.19 171.382 1927.11 170.642 1927.5 169.807H1927.65C1927.65 169.888 1927.64 169.968 1927.64 170.049C1927.56 172.07 1926.85 173.711 1925.17 173.711C1924.24 173.711 1923.59 173.228 1923.31 172.488L1923.29 172.415H1921.43L1921.44 172.495C1921.78 174.114 1923.23 175.264 1925.17 175.264C1927.83 175.264 1929.43 173.154 1929.43 169.595V169.58C1929.43 165.771 1927.47 164.167 1925.21 164.167ZM1925.21 169.932C1924.01 169.932 1923.13 169.053 1923.13 167.83V167.815C1923.13 166.636 1924.06 165.706 1925.23 165.706C1926.4 165.706 1927.32 166.65 1927.32 167.859V167.874C1927.32 169.067 1926.4 169.932 1925.21 169.932ZM1932.46 168.152C1933.13 168.152 1933.62 167.639 1933.62 166.995C1933.62 166.343 1933.13 165.837 1932.46 165.837C1931.79 165.837 1931.29 166.343 1931.29 166.995C1931.29 167.639 1931.79 168.152 1932.46 168.152ZM1932.46 173.586C1933.13 173.586 1933.62 173.081 1933.62 172.429C1933.62 171.777 1933.13 171.272 1932.46 171.272C1931.79 171.272 1931.29 171.777 1931.29 172.429C1931.29 173.081 1931.79 173.586 1932.46 173.586ZM1940.61 175H1942.42V172.971H1943.84V171.411H1942.42V164.431H1939.75C1938.31 166.614 1936.81 169.045 1935.44 171.426V172.971H1940.61V175ZM1937.2 171.455V171.345C1938.22 169.551 1939.45 167.595 1940.53 165.94H1940.64V171.455H1937.2ZM1947.92 175H1949.81V164.431H1947.93L1945.17 166.372V168.152L1947.8 166.292H1947.92V175Z" fill="black"></path> <rect opacity="0.35" x="2224.84" y="164.834" width="21" height="10.3333" rx="2.16667" stroke="black"></rect> <path opacity="0.4" d="M2247.34 168V172C2248.14 171.662 2248.66 170.874 2248.66 170C2248.66 169.127 2248.14 168.339 2247.34 168" fill="black"></path> <rect x="2226.34" y="166.334" width="18" height="7.33333" rx="1.33333" fill="black"></rect> <path fill-rule="evenodd" clip-rule="evenodd" d="M2211.67 166.615C2213.89 166.615 2216.03 167.469 2217.64 169C2217.77 169.119 2217.96 169.117 2218.08 168.997L2219.24 167.827C2219.3 167.766 2219.33 167.683 2219.33 167.597C2219.33 167.512 2219.3 167.429 2219.24 167.369C2215 163.317 2208.33 163.317 2204.1 167.369C2204.04 167.429 2204 167.511 2204 167.597C2204 167.683 2204.03 167.766 2204.09 167.827L2205.25 168.997C2205.37 169.117 2205.57 169.119 2205.69 169C2207.3 167.469 2209.44 166.615 2211.67 166.615ZM2211.67 170.422C2212.89 170.422 2214.07 170.876 2214.97 171.696C2215.1 171.812 2215.29 171.81 2215.41 171.69L2216.57 170.52C2216.63 170.458 2216.66 170.375 2216.66 170.289C2216.66 170.202 2216.63 170.12 2216.56 170.059C2213.8 167.495 2209.53 167.495 2206.77 170.059C2206.71 170.12 2206.67 170.202 2206.67 170.289C2206.67 170.375 2206.71 170.459 2206.77 170.52L2207.93 171.69C2208.05 171.81 2208.24 171.812 2208.36 171.696C2209.27 170.877 2210.45 170.423 2211.67 170.422ZM2213.99 172.984C2213.99 173.071 2213.96 173.154 2213.9 173.215L2211.89 175.237C2211.83 175.297 2211.75 175.33 2211.67 175.33C2211.58 175.33 2211.5 175.297 2211.44 175.237L2209.44 173.215C2209.38 173.154 2209.34 173.071 2209.34 172.984C2209.35 172.897 2209.38 172.815 2209.45 172.757C2210.73 171.674 2212.61 171.674 2213.89 172.757C2213.95 172.815 2213.99 172.897 2213.99 172.984Z" fill="black"></path> <path fill-rule="evenodd" clip-rule="evenodd" d="M2198 164.666L2197 164.666C2196.45 164.666 2196 165.114 2196 165.666L2196 174.333C2196 174.885 2196.45 175.333 2197 175.333L2198 175.333C2198.55 175.333 2199 174.885 2199 174.333L2199 165.666C2199 165.114 2198.55 164.666 2198 164.666ZM2192.33 166.999L2193.33 166.999C2193.89 166.999 2194.33 167.447 2194.33 167.999L2194.33 174.333C2194.33 174.885 2193.89 175.333 2193.33 175.333L2192.33 175.333C2191.78 175.333 2191.33 174.885 2191.33 174.333L2191.33 167.999C2191.33 167.447 2191.78 166.999 2192.33 166.999ZM2188.67 169.333L2187.67 169.333C2187.11 169.333 2186.67 169.78 2186.67 170.333L2186.67 174.333C2186.67 174.885 2187.11 175.333 2187.67 175.333L2188.67 175.333C2189.22 175.333 2189.67 174.885 2189.67 174.333L2189.67 170.333C2189.67 169.78 2189.22 169.333 2188.67 169.333ZM2184 171.333L2183 171.333C2182.45 171.333 2182 171.78 2182 172.333L2182 174.333C2182 174.885 2182.45 175.333 2183 175.333L2184 175.333C2184.55 175.333 2185 174.885 2185 174.333L2185 172.333C2185 171.78 2184.55 171.333 2184 171.333Z" fill="black"></path> <rect x="2009" y="944" width="134" height="5" rx="2.5" fill="black"></rect> <rect x="1888" y="147" width="375" height="812" rx="36" fill="url(#paint42_linear_1624_599)" fill-opacity="0.25" style="mix-blend-mode:screen"></rect> <path opacity="0.5" d="M2279 312H2280.5C2281.33 312 2282 312.672 2282 313.5V406.5C2282 407.328 2281.33 408 2280.5 408H2279V312Z" fill="black"></path> <path opacity="0.5" d="M1872 370H1870.5C1869.67 370 1869 370.672 1869 371.5V426.5C1869 427.328 1869.67 428 1870.5 428H1872V370Z" fill="black"></path> <path opacity="0.5" d="M1872 293H1870.5C1869.67 293 1869 293.672 1869 294.5V349.5C1869 350.328 1869.67 351 1870.5 351H1872V293Z" fill="black"></path> <path opacity="0.5" d="M1872 232H1870.5C1869.67 232 1869 232.672 1869 233.5V259.5C1869 260.328 1869.67 261 1870.5 261H1872V232Z" fill="black"></path> <path fill-rule="evenodd" clip-rule="evenodd" d="M1997 147C1999.5 147 2002 149.5 2002 152V153.597C2002 161.552 2008.45 168 2016.4 168L2135.6 168C2143.55 168 2150 161.552 2150 153.597V152C2150 149.143 2152.14 147 2155 147H2150L2002 147H1997Z" fill="url(#paint43_linear_1624_599)"></path> <g opacity="0.75"> <rect x="2054" y="149" width="43" height="7" rx="3.5" fill="black"></rect> <rect x="2054" y="149" width="43" height="7" rx="3.5" fill="black"></rect> </g> <circle cx="2105.5" cy="152.5" r="5.5" fill="black"></circle> <circle cx="2105.5" cy="152.5" r="5.5" fill="black"></circle> <circle cx="2105.5" cy="152.5" r="5.5" fill="black"></circle> <circle cx="2105.5" cy="152.5" r="5.5" fill="black"></circle> <circle opacity="0.15" cx="2105.5" cy="152.5" r="3.5" fill="black"></circle> <g filter="url(#filter6_f_1624_599)"> <path d="M1792 606L1592 406H1792V606Z" fill="url(#paint44_linear_1624_599)"></path> </g> <g filter="url(#filter7_f_1624_599)"> <path d="M1982 370L1782 170V370H1982Z" fill="url(#paint45_linear_1624_599)"></path> </g> <g filter="url(#filter8_dd_1624_599)"> <rect x="1586" y="168" width="216" height="256" rx="50" fill="url(#paint46_linear_1624_599)"></rect> <rect x="1583" y="165" width="222" height="262" rx="53" stroke="url(#paint47_linear_1624_599)" stroke-width="6"></rect> </g> <rect x="1602" y="184" width="184" height="224" rx="34" fill="url(#paint48_linear_1624_599)"></rect> <rect x="1602" y="184" width="184" height="224" rx="34" fill="url(#paint49_linear_1624_599)" style="mix-blend-mode:screen"></rect> <path opacity="0.5" d="M1808 364L1809.5 364C1810.33 364 1811 363.328 1811 362.5L1811 323.5C1811 322.672 1810.33 322 1809.5 322L1808 322L1808 364Z" fill="black"></path> <path opacity="0.5" d="M1808 218V218C1812.42 218 1816 221.582 1816 226V252C1816 256.418 1812.42 260 1808 260V260V218Z" fill="black"></path> <path opacity="0.75" fill-rule="evenodd" clip-rule="evenodd" d="M1808 218C1806.23 221.535 1805 229.607 1805 239C1805 248.393 1806.23 256.465 1808 260V218Z" fill="black"></path> <defs> <filter id="filter0_f_1624_599" x="1426" y="1299" width="320" height="320" filterUnits="userSpaceOnUse" color-interpolation-filters="sRGB"> <feFlood flood-opacity="0" result="BackgroundImageFix"></feFlood> <feBlend mode="normal" in="SourceGraphic" in2="BackgroundImageFix" result="shape"></feBlend> <feGaussianBlur stdDeviation="5" result="effect1_foregroundBlur_1624_599"></feGaussianBlur> </filter> <filter id="filter1_f_1624_599" x="1801" y="487" width="320" height="320" filterUnits="userSpaceOnUse" color-interpolation-filters="sRGB"> <feFlood flood-opacity="0" result="BackgroundImageFix"></feFlood> <feBlend mode="normal" in="SourceGraphic" in2="BackgroundImageFix" result="shape"></feBlend> <feGaussianBlur stdDeviation="5" result="effect1_foregroundBlur_1624_599"></feGaussianBlur> </filter> <filter id="filter2_dd_1624_599" x="1350" y="411" width="707" height="1144" filterUnits="userSpaceOnUse" color-interpolation-filters="sRGB"> <feFlood flood-opacity="0" result="BackgroundImageFix"></feFlood> <feColorMatrix in="SourceAlpha" type="matrix" values="0 0 0 0 0 0 0 0 0 0 0 0 0 0 0 0 0 0 127 0" result="hardAlpha"></feColorMatrix> <feOffset dx="80" dy="80"></feOffset> <feGaussianBlur stdDeviation="75"></feGaussianBlur> <feColorMatrix type="matrix" values="0 0 0 0 0 0 0 0 0 0 0 0 0 0 0 0 0 0 0.25 0"></feColorMatrix> <feBlend mode="normal" in2="BackgroundImageFix" result="effect1_dropShadow_1624_599"></feBlend> <feColorMatrix in="SourceAlpha" type="matrix" values="0 0 0 0 0 0 0 0 0 0 0 0 0 0 0 0 0 0 127 0" result="hardAlpha"></feColorMatrix> <feOffset dx="20" dy="20"></feOffset> <feGaussianBlur stdDeviation="25"></feGaussianBlur> <feColorMatrix type="matrix" values="0 0 0 0 0 0 0 0 0 0 0 0 0 0 0 0 0 0 0.35 0"></feColorMatrix> <feBlend mode="normal" in2="effect1_dropShadow_1624_599" result="effect2_dropShadow_1624_599"></feBlend> <feBlend mode="normal" in="SourceGraphic" in2="effect2_dropShadow_1624_599" result="shape"></feBlend> </filter> <filter id="filter3_f_1624_599" x="1878" y="949" width="320" height="320" filterUnits="userSpaceOnUse" color-interpolation-filters="sRGB"> <feFlood flood-opacity="0" result="BackgroundImageFix"></feFlood> <feBlend mode="normal" in="SourceGraphic" in2="BackgroundImageFix" result="shape"></feBlend> <feGaussianBlur stdDeviation="5" result="effect1_foregroundBlur_1624_599"></feGaussianBlur> </filter> <filter id="filter4_f_1624_599" x="2253" y="137" width="320" height="320" filterUnits="userSpaceOnUse" color-interpolation-filters="sRGB"> <feFlood flood-opacity="0" result="BackgroundImageFix"></feFlood> <feBlend mode="normal" in="SourceGraphic" in2="BackgroundImageFix" result="shape"></feBlend> <feGaussianBlur stdDeviation="5" result="effect1_foregroundBlur_1624_599"></feGaussianBlur> </filter> <filter id="filter5_dd_1624_599" x="1802" y="61" width="707" height="1144" filterUnits="userSpaceOnUse" color-interpolation-filters="sRGB"> <feFlood flood-opacity="0" result="BackgroundImageFix"></feFlood> <feColorMatrix in="SourceAlpha" type="matrix" values="0 0 0 0 0 0 0 0 0 0 0 0 0 0 0 0 0 0 127 0" result="hardAlpha"></feColorMatrix> <feOffset dx="80" dy="80"></feOffset> <feGaussianBlur stdDeviation="75"></feGaussianBlur> <feColorMatrix type="matrix" values="0 0 0 0 0 0 0 0 0 0 0 0 0 0 0 0 0 0 0.25 0"></feColorMatrix> <feBlend mode="normal" in2="BackgroundImageFix" result="effect1_dropShadow_1624_599"></feBlend> <feColorMatrix in="SourceAlpha" type="matrix" values="0 0 0 0 0 0 0 0 0 0 0 0 0 0 0 0 0 0 127 0" result="hardAlpha"></feColorMatrix> <feOffset dx="20" dy="20"></feOffset> <feGaussianBlur stdDeviation="25"></feGaussianBlur> <feColorMatrix type="matrix" values="0 0 0 0 0 0 0 0 0 0 0 0 0 0 0 0 0 0 0.35 0"></feColorMatrix> <feBlend mode="normal" in2="effect1_dropShadow_1624_599" result="effect2_dropShadow_1624_599"></feBlend> <feBlend mode="normal" in="SourceGraphic" in2="effect2_dropShadow_1624_599" result="shape"></feBlend> </filter> <filter id="filter6_f_1624_599" x="1582" y="396" width="220" height="220" filterUnits="userSpaceOnUse" color-interpolation-filters="sRGB"> <feFlood flood-opacity="0" result="BackgroundImageFix"></feFlood> <feBlend mode="normal" in="SourceGraphic" in2="BackgroundImageFix" result="shape"></feBlend> <feGaussianBlur stdDeviation="5" result="effect1_foregroundBlur_1624_599"></feGaussianBlur> </filter> <filter id="filter7_f_1624_599" x="1772" y="160" width="220" height="220" filterUnits="userSpaceOnUse" color-interpolation-filters="sRGB"> <feFlood flood-opacity="0" result="BackgroundImageFix"></feFlood> <feBlend mode="normal" in="SourceGraphic" in2="BackgroundImageFix" result="shape"></feBlend> <feGaussianBlur stdDeviation="5" result="effect1_foregroundBlur_1624_599"></feGaussianBlur> </filter> <filter id="filter8_dd_1624_599" x="1510" y="92" width="528" height="568" filterUnits="userSpaceOnUse" color-interpolation-filters="sRGB"> <feFlood flood-opacity="0" result="BackgroundImageFix"></feFlood> <feColorMatrix in="SourceAlpha" type="matrix" values="0 0 0 0 0 0 0 0 0 0 0 0 0 0 0 0 0 0 127 0" result="hardAlpha"></feColorMatrix> <feOffset dx="80" dy="80"></feOffset> <feGaussianBlur stdDeviation="75"></feGaussianBlur> <feColorMatrix type="matrix" values="0 0 0 0 0 0 0 0 0 0 0 0 0 0 0 0 0 0 0.25 0"></feColorMatrix> <feBlend mode="normal" in2="BackgroundImageFix" result="effect1_dropShadow_1624_599"></feBlend> <feColorMatrix in="SourceAlpha" type="matrix" values="0 0 0 0 0 0 0 0 0 0 0 0 0 0 0 0 0 0 127 0" result="hardAlpha"></feColorMatrix> <feOffset dx="20" dy="20"></feOffset> <feGaussianBlur stdDeviation="25"></feGaussianBlur> <feColorMatrix type="matrix" values="0 0 0 0 0 0 0 0 0 0 0 0 0 0 0 0 0 0 0.35 0"></feColorMatrix> <feBlend mode="normal" in2="effect1_dropShadow_1624_599" result="effect2_dropShadow_1624_599"></feBlend> <feBlend mode="normal" in="SourceGraphic" in2="effect2_dropShadow_1624_599" result="shape"></feBlend> </filter> <linearGradient id="paint0_linear_1624_599" x1="642.974" y1="21.1545" x2="791.167" y2="358.8" gradientUnits="userSpaceOnUse"> <stop stop-color="#6C63FF"></stop> <stop offset="1" stop-color="#B1D5FF"></stop> </linearGradient> <linearGradient id="paint1_linear_1624_599" x1="779.873" y1="255.539" x2="928.065" y2="593.185" gradientUnits="userSpaceOnUse"> <stop stop-color="#6C63FF"></stop> <stop offset="1" stop-color="#B1D5FF"></stop> </linearGradient> <linearGradient id="paint2_linear_1624_599" x1="915.756" y1="21.1545" x2="1063.95" y2="358.8" gradientUnits="userSpaceOnUse"> <stop stop-color="#6C63FF"></stop> <stop offset="1" stop-color="#B1D5FF"></stop> </linearGradient> <linearGradient id="paint3_linear_1624_599" x1="1052.63" y1="255.539" x2="1200.82" y2="593.185" gradientUnits="userSpaceOnUse"> <stop stop-color="#6C63FF"></stop> <stop offset="1" stop-color="#B1D5FF"></stop> </linearGradient> <linearGradient id="paint4_linear_1624_599" x1="1734.06" y1="21.1545" x2="1882.25" y2="358.8" gradientUnits="userSpaceOnUse"> <stop stop-color="#6C63FF"></stop> <stop offset="1" stop-color="#B1D5FF"></stop> </linearGradient> <linearGradient id="paint5_linear_1624_599" x1="1870.96" y1="255.539" x2="2019.15" y2="593.185" gradientUnits="userSpaceOnUse"> <stop stop-color="#6C63FF"></stop> <stop offset="1" stop-color="#B1D5FF"></stop> </linearGradient> <linearGradient id="paint6_linear_1624_599" x1="2006.84" y1="21.1545" x2="2155.03" y2="358.8" gradientUnits="userSpaceOnUse"> <stop stop-color="#6C63FF"></stop> <stop offset="1" stop-color="#B1D5FF"></stop> </linearGradient> <linearGradient id="paint7_linear_1624_599" x1="2143.72" y1="255.539" x2="2291.91" y2="593.185" gradientUnits="userSpaceOnUse"> <stop stop-color="#6C63FF"></stop> <stop offset="1" stop-color="#B1D5FF"></stop> </linearGradient> <linearGradient id="paint8_linear_1624_599" x1="97.4197" y1="491.201" x2="245.612" y2="828.847" gradientUnits="userSpaceOnUse"> <stop stop-color="#6C63FF"></stop> <stop offset="1" stop-color="#B1D5FF"></stop> </linearGradient> <linearGradient id="paint9_linear_1624_599" x1="234.318" y1="725.585" x2="382.511" y2="1063.23" gradientUnits="userSpaceOnUse"> <stop stop-color="#6C63FF"></stop> <stop offset="1" stop-color="#B1D5FF"></stop> </linearGradient> <linearGradient id="paint10_linear_1624_599" x1="370.201" y1="491.201" x2="518.393" y2="828.847" gradientUnits="userSpaceOnUse"> <stop stop-color="#6C63FF"></stop> <stop offset="1" stop-color="#B1D5FF"></stop> </linearGradient> <linearGradient id="paint11_linear_1624_599" x1="507.076" y1="725.585" x2="655.268" y2="1063.23" gradientUnits="userSpaceOnUse"> <stop stop-color="#6C63FF"></stop> <stop offset="1" stop-color="#B1D5FF"></stop> </linearGradient> <linearGradient id="paint12_linear_1624_599" x1="1188.5" y1="491.2" x2="1336.69" y2="828.846" gradientUnits="userSpaceOnUse"> <stop stop-color="#6C63FF"></stop> <stop offset="1" stop-color="#4A9EFF"></stop> </linearGradient> <linearGradient id="paint13_linear_1624_599" x1="1325.4" y1="725.585" x2="1473.59" y2="1063.23" gradientUnits="userSpaceOnUse"> <stop stop-color="#6C63FF"></stop> <stop offset="1" stop-color="#B1D5FF"></stop> </linearGradient> <linearGradient id="paint14_linear_1624_599" x1="1461.28" y1="491.2" x2="1609.47" y2="828.846" gradientUnits="userSpaceOnUse"> <stop stop-color="#6C63FF"></stop> <stop offset="1" stop-color="#B1D5FF"></stop> </linearGradient> <linearGradient id="paint15_linear_1624_599" x1="1598.15" y1="725.585" x2="1746.35" y2="1063.23" gradientUnits="userSpaceOnUse"> <stop stop-color="#6C63FF"></stop> <stop offset="1" stop-color="#B1D5FF"></stop> </linearGradient> <linearGradient id="paint16_linear_1624_599" x1="1734.06" y1="491.201" x2="1882.25" y2="828.847" gradientUnits="userSpaceOnUse"> <stop stop-color="#6C63FF"></stop> <stop offset="1" stop-color="#B1D5FF"></stop> </linearGradient> <linearGradient id="paint17_linear_1624_599" x1="1870.96" y1="725.585" x2="2019.15" y2="1063.23" gradientUnits="userSpaceOnUse"> <stop stop-color="#6C63FF"></stop> <stop offset="1" stop-color="#B1D5FF"></stop> </linearGradient> <linearGradient id="paint18_linear_1624_599" x1="2006.84" y1="491.201" x2="2155.03" y2="828.847" gradientUnits="userSpaceOnUse"> <stop stop-color="#6C63FF"></stop> <stop offset="1" stop-color="#B1D5FF"></stop> </linearGradient> <linearGradient id="paint19_linear_1624_599" x1="2143.72" y1="725.585" x2="2291.91" y2="1063.23" gradientUnits="userSpaceOnUse"> <stop stop-color="#6C63FF"></stop> <stop offset="1" stop-color="#B1D5FF"></stop> </linearGradient> <linearGradient id="paint20_linear_1624_599" x1="2279.61" y1="491.2" x2="2427.8" y2="828.846" gradientUnits="userSpaceOnUse"> <stop stop-color="#5C52FF"></stop> <stop offset="1" stop-color="#DDEDFF"></stop> </linearGradient> <linearGradient id="paint21_linear_1624_599" x1="2416.51" y1="725.585" x2="2564.7" y2="1063.23" gradientUnits="userSpaceOnUse"> <stop stop-color="#6C63FF"></stop> <stop offset="1" stop-color="#B1D5FF"></stop> </linearGradient> <linearGradient id="paint22_linear_1624_599" x1="2552.39" y1="491.2" x2="2700.58" y2="828.846" gradientUnits="userSpaceOnUse"> <stop stop-color="#6C63FF"></stop> <stop offset="1" stop-color="#B1D5FF"></stop> </linearGradient> <linearGradient id="paint23_linear_1624_599" x1="2689.26" y1="725.585" x2="2837.46" y2="1063.23" gradientUnits="userSpaceOnUse"> <stop stop-color="#6C63FF"></stop> <stop offset="1" stop-color="#B1D5FF"></stop> </linearGradient> <linearGradient id="paint24_linear_1624_599" x1="642.974" y1="961.247" x2="791.167" y2="1298.89" gradientUnits="userSpaceOnUse"> <stop stop-color="#6C63FF"></stop> <stop offset="1" stop-color="#B1D5FF"></stop> </linearGradient> <linearGradient id="paint25_linear_1624_599" x1="779.873" y1="1195.63" x2="928.065" y2="1533.28" gradientUnits="userSpaceOnUse"> <stop stop-color="#6C63FF"></stop> <stop offset="1" stop-color="#B1D5FF"></stop> </linearGradient> <linearGradient id="paint26_linear_1624_599" x1="915.756" y1="961.247" x2="1063.95" y2="1298.89" gradientUnits="userSpaceOnUse"> <stop stop-color="#6C63FF"></stop> <stop offset="1" stop-color="#B1D5FF"></stop> </linearGradient> <linearGradient id="paint27_linear_1624_599" x1="1052.63" y1="1195.63" x2="1200.82" y2="1533.28" gradientUnits="userSpaceOnUse"> <stop stop-color="#6C63FF"></stop> <stop offset="1" stop-color="#B1D5FF"></stop> </linearGradient> <linearGradient id="paint28_linear_1624_599" x1="1734.06" y1="961.246" x2="1882.25" y2="1298.89" gradientUnits="userSpaceOnUse"> <stop stop-color="#6C63FF"></stop> <stop offset="1" stop-color="#B1D5FF"></stop> </linearGradient> <linearGradient id="paint29_linear_1624_599" x1="1870.96" y1="1195.63" x2="2019.15" y2="1533.28" gradientUnits="userSpaceOnUse"> <stop stop-color="#6C63FF"></stop> <stop offset="1" stop-color="#B1D5FF"></stop> </linearGradient> <linearGradient id="paint30_linear_1624_599" x1="2006.84" y1="961.246" x2="2155.03" y2="1298.89" gradientUnits="userSpaceOnUse"> <stop stop-color="#6C63FF"></stop> <stop offset="1" stop-color="#B1D5FF"></stop> </linearGradient> <linearGradient id="paint31_linear_1624_599" x1="2143.72" y1="1195.63" x2="2291.91" y2="1533.28" gradientUnits="userSpaceOnUse"> <stop stop-color="#6C63FF"></stop> <stop offset="1" stop-color="#B1D5FF"></stop> </linearGradient> <linearGradient id="paint32_linear_1624_599" x1="1448.77" y1="1259.58" x2="1606.6" y2="1447.86" gradientUnits="userSpaceOnUse"> <stop stop-opacity="0.35"></stop> <stop offset="1" stop-opacity="0"></stop> </linearGradient> <linearGradient id="paint33_linear_1624_599" x1="1816.37" y1="504.448" x2="1976.3" y2="664.871" gradientUnits="userSpaceOnUse"> <stop stop-opacity="0.35"></stop> <stop offset="0.796875" stop-opacity="0"></stop> </linearGradient> <linearGradient id="paint34_linear_1624_599" x1="1469.68" y1="481" x2="1800.01" y2="678.618" gradientUnits="userSpaceOnUse"> <stop stop-color="#3E3E3E"></stop> <stop offset="1"></stop> </linearGradient> <linearGradient id="paint35_linear_1624_599" x1="1535.94" y1="494.812" x2="2047.23" y2="1116.04" gradientUnits="userSpaceOnUse"> <stop stop-color="#3E50CB"></stop> <stop offset="1" stop-color="#59A6FF"></stop> </linearGradient> <linearGradient id="paint36_linear_1624_599" x1="1439.43" y1="501.581" x2="1789.1" y2="850.05" gradientUnits="userSpaceOnUse"> <stop stop-color="white"></stop> <stop offset="0.645833" stop-color="white" stop-opacity="0"></stop> </linearGradient> <linearGradient id="paint37_linear_1624_599" x1="1545" y1="497" x2="1702" y2="497" gradientUnits="userSpaceOnUse"> <stop stop-color="#323232"></stop> <stop offset="1" stop-color="#1D1D1D"></stop> </linearGradient> <linearGradient id="paint38_linear_1624_599" x1="1900.77" y1="909.58" x2="2058.6" y2="1097.86" gradientUnits="userSpaceOnUse"> <stop stop-opacity="0.35"></stop> <stop offset="1" stop-opacity="0"></stop> </linearGradient> <linearGradient id="paint39_linear_1624_599" x1="2268.37" y1="154.448" x2="2428.3" y2="314.871" gradientUnits="userSpaceOnUse"> <stop stop-opacity="0.35"></stop> <stop offset="0.796875" stop-opacity="0"></stop> </linearGradient> <linearGradient id="paint40_linear_1624_599" x1="1921.68" y1="131" x2="2252.01" y2="328.618" gradientUnits="userSpaceOnUse"> <stop stop-color="#3E3E3E"></stop> <stop offset="1"></stop> </linearGradient> <linearGradient id="paint41_linear_1624_599" x1="1987.94" y1="144.812" x2="2499.23" y2="766.04" gradientUnits="userSpaceOnUse"> <stop stop-color="#3E50CB"></stop> <stop offset="1" stop-color="#59A6FF"></stop> </linearGradient> <linearGradient id="paint42_linear_1624_599" x1="1891.43" y1="151.581" x2="2241.1" y2="500.05" gradientUnits="userSpaceOnUse"> <stop stop-color="white"></stop> <stop offset="0.645833" stop-color="white" stop-opacity="0"></stop> </linearGradient> <linearGradient id="paint43_linear_1624_599" x1="1997" y1="147" x2="2154" y2="147" gradientUnits="userSpaceOnUse"> <stop stop-color="#323232"></stop> <stop offset="1" stop-color="#1D1D1D"></stop> </linearGradient> <linearGradient id="paint44_linear_1624_599" x1="1600.52" y1="373.053" x2="1705.74" y2="498.57" gradientUnits="userSpaceOnUse"> <stop stop-opacity="0.35"></stop> <stop offset="1" stop-opacity="0"></stop> </linearGradient> <linearGradient id="paint45_linear_1624_599" x1="1785.58" y1="174.965" x2="1892.2" y2="281.914" gradientUnits="userSpaceOnUse"> <stop stop-opacity="0.35"></stop> <stop offset="0.796875" stop-opacity="0"></stop> </linearGradient> <linearGradient id="paint46_linear_1624_599" x1="1612.37" y1="168" x2="1725.96" y2="286.902" gradientUnits="userSpaceOnUse"> <stop stop-color="#2B2B2B"></stop> <stop offset="1"></stop> </linearGradient> <linearGradient id="paint47_linear_1624_599" x1="1586" y1="168" x2="1798.59" y2="245.468" gradientUnits="userSpaceOnUse"> <stop stop-color="#646464"></stop> <stop offset="1" stop-color="#282828"></stop> </linearGradient> <linearGradient id="paint48_linear_1624_599" x1="1651.03" y1="183.396" x2="1760.59" y2="420.161" gradientUnits="userSpaceOnUse"> <stop stop-color="#3E50CB"></stop> <stop offset="1" stop-color="#59A6FF"></stop> </linearGradient> <linearGradient id="paint49_linear_1624_599" x1="1622.5" y1="191.5" x2="1709" y2="396" gradientUnits="userSpaceOnUse"> <stop stop-color="white" stop-opacity="0.25"></stop> <stop offset="0.578125" stop-color="white" stop-opacity="0"></stop> </linearGradient> </defs> </svg> 