<?xml version="1.0" encoding="UTF-8"?> <svg xmlns="http://www.w3.org/2000/svg" xmlns:xlink="http://www.w3.org/1999/xlink" width="739px" height="146px" viewBox="0 0 739 146"> <!-- Generator: Sketch 63.1 (92452) - https://sketch.com --> <title>ПодберитеидеальныйпланStepikдлясебя:</title> <desc>Created with Sketch.</desc> <g id="Page-1" stroke="none" stroke-width="1" fill="none" fill-rule="evenodd"> <path d="M11.96,49 L11.96,11.872 L26.24,11.872 L26.24,49 L37.12,49 L37.12,1.4 L1.08,1.4 L1.08,49 L11.96,49 Z M62.11,49.952 C72.106,49.952 80.13,42.132 80.13,32 C80.13,21.868 72.106,14.048 62.11,14.048 C52.114,14.048 44.09,21.868 44.09,32 C44.09,42.132 52.114,49.952 62.11,49.952 Z M62.11,40.024 C57.69,40.024 54.29,36.828 54.29,32 C54.29,27.172 57.69,23.976 62.11,23.976 C66.53,23.976 69.93,27.172 69.93,32 C69.93,36.828 66.53,40.024 62.11,40.024 Z M92.268,58.112 L92.268,49 L111.172,49 L111.172,58.112 L121.1,58.112 L121.1,39.48 L116.68,39.48 L116.68,15 L89.276,15 L89.276,27.716 C89.276,33.564 88.256,36.828 86.556,39.48 L82.34,39.48 L82.34,58.112 L92.268,58.112 Z M106.752,39.48 L97.232,39.48 C98.524,36.42 99.204,32.68 99.204,27.716 L99.204,24.112 L106.752,24.112 L106.752,39.48 Z M142.146,49.952 C152.822,49.952 159.486,43.22 159.486,34.04 C159.486,24.384 151.666,19.216 145.41,19.216 C141.874,19.216 138.542,20.236 136.094,22.412 C137.046,20.032 138.814,18.06 144.866,15.816 C152.074,13.096 156.29,10.58 157.65,4.868 L149.218,0.04 C147.246,4.868 144.254,5.752 136.978,9.356 C126.098,14.728 123.99,20.508 123.99,31.456 C123.99,41.928 130.858,49.952 142.146,49.952 Z M142.078,40.772 C137.93,40.772 134.666,37.916 134.666,33.768 C134.666,29.552 138.338,27.172 141.874,27.172 C146.158,27.172 149.286,30.096 149.286,34.04 C149.286,37.916 146.294,40.772 142.078,40.772 Z M182.232,49.952 C188.692,49.952 193.724,47.572 197.056,42.948 L188.896,38.256 C187.536,39.752 185.156,40.84 182.368,40.84 C178.628,40.84 175.5,39.616 174.208,36.08 L198.348,36.08 C198.62,34.788 198.756,33.428 198.756,32 C198.756,21.732 191.412,14.048 181.484,14.048 C170.74,14.048 163.396,21.868 163.396,32 C163.396,42.132 170.604,49.952 182.232,49.952 Z M188.624,28.464 L174.004,28.464 C174.956,24.996 177.54,23.092 181.416,23.092 C184.476,23.092 187.536,24.52 188.624,28.464 Z M215.586,62.6 L215.586,45.804 C217.83,48.388 221.162,49.952 225.718,49.952 C234.626,49.952 241.97,42.132 241.97,32 C241.97,21.868 234.626,14.048 225.718,14.048 C221.162,14.048 217.83,15.612 215.586,18.196 L215.586,15 L205.386,15 L205.386,62.6 L215.586,62.6 Z M223.678,40.296 C218.986,40.296 215.586,37.1 215.586,32 C215.586,26.9 218.986,23.704 223.678,23.704 C228.37,23.704 231.77,26.9 231.77,32 C231.77,37.1 228.37,40.296 223.678,40.296 Z M256.08,49 L270.632,32 L270.632,49 L280.56,49 L280.56,15 L273.08,15 L258.528,32 L258.528,15 L248.6,15 L248.6,49 L256.08,49 Z M306.298,49 L306.298,24.792 L316.43,24.792 L316.43,15 L285.83,15 L285.83,24.792 L296.098,24.792 L296.098,49 L306.298,49 Z M337.476,49.952 C343.936,49.952 348.968,47.572 352.3,42.948 L344.14,38.256 C342.78,39.752 340.4,40.84 337.612,40.84 C333.872,40.84 330.744,39.616 329.452,36.08 L353.592,36.08 C353.864,34.788 354,33.428 354,32 C354,21.732 346.656,14.048 336.728,14.048 C325.984,14.048 318.64,21.868 318.64,32 C318.64,42.132 325.848,49.952 337.476,49.952 Z M343.868,28.464 L329.248,28.464 C330.2,24.996 332.784,23.092 336.66,23.092 C339.72,23.092 342.78,24.52 343.868,28.464 Z M385.96,49 L400.512,32 L400.512,49 L410.44,49 L410.44,15 L402.96,15 L388.408,32 L388.408,15 L378.48,15 L378.48,49 L385.96,49 Z M425.638,58.112 L425.638,49 L444.542,49 L444.542,58.112 L454.47,58.112 L454.47,39.48 L450.05,39.48 L450.05,15 L422.646,15 L422.646,27.716 C422.646,33.564 421.626,36.828 419.926,39.48 L415.71,39.48 L415.71,58.112 L425.638,58.112 Z M440.122,39.48 L430.602,39.48 C431.894,36.42 432.574,32.68 432.574,27.716 L432.574,24.112 L440.122,24.112 L440.122,39.48 Z M476.196,49.952 C482.656,49.952 487.688,47.572 491.02,42.948 L482.86,38.256 C481.5,39.752 479.12,40.84 476.332,40.84 C472.592,40.84 469.464,39.616 468.172,36.08 L492.312,36.08 C492.584,34.788 492.72,33.428 492.72,32 C492.72,21.732 485.376,14.048 475.448,14.048 C464.704,14.048 457.36,21.868 457.36,32 C457.36,42.132 464.568,49.952 476.196,49.952 Z M482.588,28.464 L467.968,28.464 C468.92,24.996 471.504,23.092 475.38,23.092 C478.44,23.092 481.5,24.52 482.588,28.464 Z M513.562,49.952 C518.118,49.952 521.45,48.388 523.694,45.804 L523.694,49 L533.894,49 L533.894,15 L523.694,15 L523.694,18.196 C521.45,15.612 518.118,14.048 513.562,14.048 C504.654,14.048 497.31,21.868 497.31,32 C497.31,42.132 504.654,49.952 513.562,49.952 Z M515.602,40.296 C510.91,40.296 507.51,37.1 507.51,32 C507.51,26.9 510.91,23.704 515.602,23.704 C520.294,23.704 523.694,26.9 523.694,32 C523.694,37.1 520.294,40.296 515.602,40.296 Z M554.26,34.924 L554.26,24.792 L561.604,24.792 L561.604,49 L571.804,49 L571.804,15 L544.06,15 L544.06,34.244 C544.06,38.46 542.36,40.432 539.164,39.48 L539.164,49 C549.092,50.156 554.26,45.192 554.26,34.924 Z M596.046,49 C604.274,49 609.374,44.24 609.374,37.1 C609.374,29.96 604.274,25.2 596.046,25.2 L590.334,25.2 L590.334,15 L580.134,15 L580.134,49 L596.046,49 Z M596.114,40.16 L590.334,40.16 L590.334,34.04 L596.114,34.04 C598.154,34.04 599.446,35.332 599.446,37.1 C599.446,38.868 598.154,40.16 596.114,40.16 Z M625.524,49 L625.524,36.76 L637.084,36.76 L637.084,49 L647.284,49 L647.284,15 L637.084,15 L637.084,27.24 L625.524,27.24 L625.524,15 L615.324,15 L615.324,49 L625.524,49 Z M671.526,49 C679.754,49 684.854,44.24 684.854,37.1 C684.854,29.96 679.754,25.2 671.526,25.2 L665.814,25.2 L665.814,15 L655.614,15 L655.614,49 L671.526,49 Z M698.454,49 L698.454,15 L688.254,15 L688.254,49 L698.454,49 Z M671.594,40.16 L665.814,40.16 L665.814,34.04 L671.594,34.04 C673.634,34.04 674.926,35.332 674.926,37.1 C674.926,38.868 673.634,40.16 671.594,40.16 Z M732.964,10.988 L732.964,2.148 L712.564,2.148 L712.564,10.988 L732.964,10.988 Z M714.264,49 L728.816,32 L728.816,49 L738.744,49 L738.744,15 L731.264,15 L716.712,32 L716.712,15 L706.784,15 L706.784,49 L714.264,49 Z M10.94,132 L10.94,107.52 L22.5,107.52 L22.5,132 L32.7,132 L32.7,98 L0.74,98 L0.74,132 L10.94,132 Z M53.066,117.924 L53.066,107.792 L60.41,107.792 L60.41,132 L70.61,132 L70.61,98 L42.866,98 L42.866,117.244 C42.866,121.46 41.166,123.432 37.97,122.48 L37.97,132 C47.898,133.156 53.066,128.192 53.066,117.924 Z M93.492,132.952 C98.048,132.952 101.38,131.388 103.624,128.804 L103.624,132 L113.824,132 L113.824,98 L103.624,98 L103.624,101.196 C101.38,98.612 98.048,97.048 93.492,97.048 C84.584,97.048 77.24,104.868 77.24,115 C77.24,125.132 84.584,132.952 93.492,132.952 Z M95.532,123.296 C90.84,123.296 87.44,120.1 87.44,115 C87.44,109.9 90.84,106.704 95.532,106.704 C100.224,106.704 103.624,109.9 103.624,115 C103.624,120.1 100.224,123.296 95.532,123.296 Z M132.354,132 L132.354,119.76 L143.914,119.76 L143.914,132 L154.114,132 L154.114,98 L143.914,98 L143.914,110.24 L132.354,110.24 L132.354,98 L122.154,98 L122.154,132 L132.354,132 Z M197.294,132.952 C207.63,132.952 214.974,127.512 214.974,118.332 C214.974,108.268 206.882,105.752 199.674,103.576 C192.262,101.332 191.106,99.836 191.106,97.66 C191.106,95.756 192.806,94.056 196.206,94.056 C200.558,94.056 202.802,96.164 204.434,99.564 L213.614,94.192 C210.146,87.188 204.026,83.448 196.206,83.448 C187.978,83.448 180.226,88.752 180.226,97.932 C180.226,107.044 187.162,110.444 194.234,112.416 C201.374,114.388 204.094,115.544 204.094,118.468 C204.094,120.304 202.802,122.344 197.634,122.344 C192.262,122.344 189.338,119.692 187.638,115.748 L178.254,121.188 C180.906,128.192 187.298,132.952 197.294,132.952 Z M239.828,132 L239.828,122.752 C235.34,123.024 232.824,122.752 232.824,119.828 L232.824,107.792 L239.828,107.792 L239.828,98 L232.824,98 L232.824,88.48 L222.624,91.54 L222.624,98 L217.184,98 L217.184,107.792 L222.624,107.792 L222.624,119.828 C222.624,129.348 226.5,133.36 239.828,132 Z M262.914,132.952 C269.374,132.952 274.406,130.572 277.738,125.948 L269.578,121.256 C268.218,122.752 265.838,123.84 263.05,123.84 C259.31,123.84 256.182,122.616 254.89,119.08 L279.03,119.08 C279.302,117.788 279.438,116.428 279.438,115 C279.438,104.732 272.094,97.048 262.166,97.048 C251.422,97.048 244.078,104.868 244.078,115 C244.078,125.132 251.286,132.952 262.914,132.952 Z M269.306,111.464 L254.686,111.464 C255.638,107.996 258.222,106.092 262.098,106.092 C265.158,106.092 268.218,107.52 269.306,111.464 Z M296.268,145.6 L296.268,128.804 C298.512,131.388 301.844,132.952 306.4,132.952 C315.308,132.952 322.652,125.132 322.652,115 C322.652,104.868 315.308,97.048 306.4,97.048 C301.844,97.048 298.512,98.612 296.268,101.196 L296.268,98 L286.068,98 L286.068,145.6 L296.268,145.6 Z M304.36,123.296 C299.668,123.296 296.268,120.1 296.268,115 C296.268,109.9 299.668,106.704 304.36,106.704 C309.052,106.704 312.452,109.9 312.452,115 C312.452,120.1 309.052,123.296 304.36,123.296 Z M334.382,95.008 C337.714,95.008 340.502,92.22 340.502,88.888 C340.502,85.556 337.714,82.768 334.382,82.768 C331.05,82.768 328.262,85.556 328.262,88.888 C328.262,92.22 331.05,95.008 334.382,95.008 Z M339.482,132 L339.482,98 L329.282,98 L329.282,132 L339.482,132 Z M358.012,132 L358.012,116.972 L368.892,132 L380.452,132 L367.736,115 L380.112,98 L368.212,98 L358.012,112.892 L358.012,84.4 L347.812,84.4 L347.812,132 L358.012,132 Z M409.76,141.112 L409.76,132 L428.664,132 L428.664,141.112 L438.592,141.112 L438.592,122.48 L434.172,122.48 L434.172,98 L406.768,98 L406.768,110.716 C406.768,116.564 405.748,119.828 404.048,122.48 L399.832,122.48 L399.832,141.112 L409.76,141.112 Z M424.244,122.48 L414.724,122.48 C416.016,119.42 416.696,115.68 416.696,110.716 L416.696,107.112 L424.244,107.112 L424.244,122.48 Z M456.578,117.924 L456.578,107.792 L463.922,107.792 L463.922,132 L474.122,132 L474.122,98 L446.378,98 L446.378,117.244 C446.378,121.46 444.678,123.432 441.482,122.48 L441.482,132 C451.41,133.156 456.578,128.192 456.578,117.924 Z M491.632,132 L498.636,122.208 L500.744,122.208 L500.744,132 L510.672,132 L510.672,98 L494.08,98 C485.852,98 481.432,104.12 481.432,110.104 C481.432,114.32 483.812,118.672 488.028,120.78 L480.072,132 L491.632,132 Z M500.744,113.776 L494.964,113.776 C492.788,113.776 491.36,112.552 491.36,110.444 C491.36,108.268 492.788,106.976 494.964,106.976 L500.744,106.976 L500.744,113.776 Z M553.172,132.952 C559.836,132.952 565.616,129.484 568.54,124.18 L559.632,119.08 C558.544,121.46 556.028,122.888 553.036,122.888 C548.616,122.888 545.352,119.692 545.352,115 C545.352,110.308 548.616,107.112 553.036,107.112 C556.028,107.112 558.476,108.54 559.632,110.92 L568.54,105.752 C565.616,100.516 559.768,97.048 553.172,97.048 C542.836,97.048 535.152,104.868 535.152,115 C535.152,125.132 542.836,132.952 553.172,132.952 Z M589.926,132.952 C596.386,132.952 601.418,130.572 604.75,125.948 L596.59,121.256 C595.23,122.752 592.85,123.84 590.062,123.84 C586.322,123.84 583.194,122.616 581.902,119.08 L606.042,119.08 C606.314,117.788 606.45,116.428 606.45,115 C606.45,104.732 599.106,97.048 589.178,97.048 C578.434,97.048 571.09,104.868 571.09,115 C571.09,125.132 578.298,132.952 589.926,132.952 Z M596.318,111.464 L581.698,111.464 C582.65,107.996 585.234,106.092 589.11,106.092 C592.17,106.092 595.23,107.52 596.318,111.464 Z M629.196,132.952 C639.872,132.952 646.536,126.22 646.536,117.04 C646.536,107.384 638.716,102.216 632.46,102.216 C628.924,102.216 625.592,103.236 623.144,105.412 C624.096,103.032 625.864,101.06 631.916,98.816 C639.124,96.096 643.34,93.58 644.7,87.868 L636.268,83.04 C634.296,87.868 631.304,88.752 624.028,92.356 C613.148,97.728 611.04,103.508 611.04,114.456 C611.04,124.928 617.908,132.952 629.196,132.952 Z M629.128,123.772 C624.98,123.772 621.716,120.916 621.716,116.768 C621.716,112.552 625.388,110.172 628.924,110.172 C633.208,110.172 636.336,113.096 636.336,117.04 C636.336,120.916 633.344,123.772 629.128,123.772 Z M659.966,132 L666.97,122.208 L669.078,122.208 L669.078,132 L679.006,132 L679.006,98 L662.414,98 C654.186,98 649.766,104.12 649.766,110.104 C649.766,114.32 652.146,118.672 656.362,120.78 L648.406,132 L659.966,132 Z M669.078,113.776 L663.298,113.776 C661.122,113.776 659.694,112.552 659.694,110.444 C659.694,108.268 661.122,106.976 663.298,106.976 L669.078,106.976 L669.078,113.776 Z M693.116,109.832 C696.652,109.832 699.576,106.908 699.576,103.372 C699.576,99.836 696.652,96.912 693.116,96.912 C689.58,96.912 686.656,99.836 686.656,103.372 C686.656,106.908 689.58,109.832 693.116,109.832 Z M693.116,132.952 C696.652,132.952 699.576,130.028 699.576,126.492 C699.576,122.956 696.652,120.032 693.116,120.032 C689.58,120.032 686.656,122.956 686.656,126.492 C686.656,130.028 689.58,132.952 693.116,132.952 Z" id="ПодберитеидеальныйпланStepikдлясебя:" fill="#6C7BDF" fill-rule="nonzero"></path> </g> </svg> 