<?xml version="1.0" encoding="utf-8"?>
<!-- Generator: Adobe Illustrator 22.0.1, SVG Export Plug-In . SVG Version: 6.00 Build 0)  -->
<svg version="1.1" id="Layer_1" xmlns="http://www.w3.org/2000/svg" xmlns:xlink="http://www.w3.org/1999/xlink" x="0px" y="0px"
	 viewBox="0 0 300 300" style="enable-background:new 0 0 300 300;" xml:space="preserve">
<style type="text/css">
	.st0{opacity:0.49;fill:url(#SVGID_1_);enable-background:new    ;}
	.st1{fill:url(#SVGID_2_);}
</style>
<title>Монтажная область 31</title>
<g>
	
		<linearGradient id="SVGID_1_" gradientUnits="userSpaceOnUse" x1="56.3303" y1="381.3398" x2="175.1403" y2="237.7798" gradientTransform="matrix(0.7071 0.7071 -0.7071 0.7071 175.2097 -101.209)">
		<stop  offset="0" style="stop-color:#9DE5FE"/>
		<stop  offset="1" style="stop-color:#7881E1"/>
	</linearGradient>
	<polygon class="st0" points="92.6,146.5 113.9,167.8 33.9,247.8 12.6,226.5 	"/>
	
		<linearGradient id="SVGID_2_" gradientUnits="userSpaceOnUse" x1="251.8436" y1="763.8564" x2="141.309" y2="887.588" gradientTransform="matrix(0.7071 0.7071 0.7071 -0.7071 -588.4562 662.4568)">
		<stop  offset="0" style="stop-color:#9DE5FE"/>
		<stop  offset="1" style="stop-color:#7881E1"/>
	</linearGradient>
	<path class="st1" d="M89.2,174.2c-27.9-27.9-27.9-73.1,0-101s73.1-27.9,101,0s27.9,73.1,0,101l0,0C162.3,202,117.1,202,89.2,174.2z
		 M169,94.4c-16.2-16.2-42.4-16.2-58.6,0s-16.2,42.4,0,58.6s42.4,16.2,58.6,0l0,0C185.1,136.8,185.1,110.6,169,94.4z"/>
</g>
</svg>
