<?xml version="1.0" encoding="UTF-8"?> <svg xmlns="http://www.w3.org/2000/svg" width="24" height="24" viewBox="0 0 24 24" fill="none"> <path d="M12 22V7" stroke="#7BB9B7" stroke-width="2" stroke-linecap="round" stroke-linejoin="round"></path> <path d="M20 12V22H4V12" stroke="url(#paint0_linear_913_126)" stroke-width="2" stroke-linecap="round" stroke-linejoin="round"></path> <path d="M22 7H2V12H22V7Z" stroke="url(#paint1_linear_913_126)" stroke-width="2" stroke-linecap="round" stroke-linejoin="round"></path> <path d="M12 7H7.5C6.83696 7 6.20107 6.73661 5.73223 6.26777C5.26339 5.79893 5 5.16304 5 4.5C5 3.83696 5.26339 3.20107 5.73223 2.73223C6.20107 2.26339 6.83696 2 7.5 2C11 2 12 7 12 7Z" stroke="url(#paint2_linear_913_126)" stroke-width="2" stroke-linecap="round" stroke-linejoin="round"></path> <path d="M12 7H16.5C17.163 7 17.7989 6.73661 18.2678 6.26777C18.7366 5.79893 19 5.16304 19 4.5C19 3.83696 18.7366 3.20107 18.2678 2.73223C17.7989 2.26339 17.163 2 16.5 2C13 2 12 7 12 7Z" stroke="url(#paint3_linear_913_126)" stroke-width="2" stroke-linecap="round" stroke-linejoin="round"></path> <defs> <linearGradient id="paint0_linear_913_126" x1="3.6" y1="11.375" x2="24.6317" y2="17.6756" gradientUnits="userSpaceOnUse"> <stop stop-color="#3E50CB"></stop> <stop offset="0.479167" stop-color="#7294FA"></stop> <stop offset="1" stop-color="#82D782"></stop> </linearGradient> <linearGradient id="paint1_linear_913_126" x1="1.5" y1="6.6875" x2="19.854" y2="20.4335" gradientUnits="userSpaceOnUse"> <stop stop-color="#3E50CB"></stop> <stop offset="0.479167" stop-color="#7294FA"></stop> <stop offset="1" stop-color="#82D782"></stop> </linearGradient> <linearGradient id="paint2_linear_913_126" x1="4.825" y1="1.6875" x2="14.2075" y2="4.1469" gradientUnits="userSpaceOnUse"> <stop stop-color="#3E50CB"></stop> <stop offset="0.479167" stop-color="#7294FA"></stop> <stop offset="1" stop-color="#82D782"></stop> </linearGradient> <linearGradient id="paint3_linear_913_126" x1="11.825" y1="1.6875" x2="21.2075" y2="4.1469" gradientUnits="userSpaceOnUse"> <stop stop-color="#3E50CB"></stop> <stop offset="0.479167" stop-color="#7294FA"></stop> <stop offset="1" stop-color="#82D782"></stop> </linearGradient> </defs> </svg> 