<?xml version="1.0" encoding="UTF-8"?> <svg xmlns="http://www.w3.org/2000/svg" width="482" height="252" viewBox="0 0 482 252" fill="none"> <g id="Group 27"> <g id="pro-7"> <rect id="Rectangle Copy 16" width="482" height="252" rx="8" transform="matrix(-1 0 0 1 482 0)" fill="url(#paint0_linear)"></rect> <mask id="mask0" maskUnits="userSpaceOnUse" x="0" y="0" width="482" height="252"> <rect id="Rectangle Copy 16_2" width="482" height="252" rx="8" transform="matrix(-1 0 0 1 482 0)" fill="white"></rect> </mask> <g mask="url(#mask0)"> <path id="Stroke 21 Copy 18" d="M388.503 114L327.997 167.281" stroke="#56A4FF" stroke-opacity="0.4" stroke-width="6"></path> <path id="Stroke 21 Copy 15" d="M383.586 236.226L168 427.059" stroke="#56A4FF" stroke-width="9"></path> <path id="Stroke 1 Copy 6" d="M331.254 95.9998C332.081 116.534 342.781 135.62 358.564 148.212C368.969 156.513 381.584 161.992 395.036 163.2" stroke="#222437" stroke-width="6"></path> <path id="Stroke 1 Copy 7" d="M448.496 -231C410.43 -187.658 395.236 -128.146 402.947 -71.9983C408.031 -34.98 423.07 0.575656 448.075 29.0703" stroke="#56A4FF" stroke-width="6"></path> <path id="Stroke 21 Copy 6" d="M29.9391 126L-11.0098 162.06" stroke="#6C7BDF" stroke-width="6"></path> <path id="Stroke 21 Copy 16" d="M94.6333 54L-5.20466 141.918" stroke="#56A4FF" stroke-width="6"></path> <path id="Stroke 21 Copy 17" d="M381.503 106L320.997 159.281" stroke="#6C7BDF" stroke-width="6"></path> <path id="Stroke 21 Copy 7" d="M450.925 199.006L171 452.409" stroke="white" stroke-width="10"></path> <path id="Stroke 21 Copy 6_2" d="M63.8122 117.741L-51 221.675" stroke="white" stroke-width="14"></path> </g> </g> <path id="Title" d="M51.168 191.8H32.34V217H37.308V196.552H46.2V217H51.168V191.8ZM71.0875 199H56.8315V209.224C56.8315 212.032 55.7875 213.112 53.8795 212.644V217C58.7395 217.54 61.4755 215.164 61.4755 209.476V203.464H66.4435V217H71.0875V199ZM88.9759 199V201.124C87.6799 199.504 85.7359 198.496 83.1079 198.496C78.3199 198.496 74.3599 202.636 74.3599 208C74.3599 213.364 78.3199 217.504 83.1079 217.504C85.7359 217.504 87.6799 216.496 88.9759 214.876V217H93.6199V199H88.9759ZM83.9719 213.076C81.1279 213.076 79.0039 211.024 79.0039 208C79.0039 204.976 81.1279 202.924 83.9719 202.924C86.8519 202.924 88.9759 204.976 88.9759 208C88.9759 211.024 86.8519 213.076 83.9719 213.076ZM112.015 199H96.067V203.464H101.755V217H106.399V203.464H112.015V199ZM126.303 199V205.804H119.139V199H114.495V217H119.139V210.16H126.303V217H130.947V199H126.303ZM143.338 204.76H139.846V199H135.202V217H143.338C147.442 217 150.142 214.552 150.142 210.88C150.142 207.208 147.442 204.76 143.338 204.76ZM152.122 199V217H156.766V199H152.122ZM143.374 212.896H139.846V208.828H143.374C144.67 208.828 145.606 209.656 145.606 210.88C145.606 212.104 144.67 212.896 143.374 212.896ZM164.931 209.908H178.503C178.611 209.296 178.683 208.684 178.683 208C178.683 202.708 174.903 198.496 169.575 198.496C163.923 198.496 160.071 202.636 160.071 208C160.071 213.364 163.887 217.504 169.935 217.504C173.391 217.504 176.091 216.1 177.783 213.652L174.039 211.492C173.247 212.536 171.807 213.292 170.007 213.292C167.559 213.292 165.579 212.284 164.931 209.908ZM164.859 206.308C165.399 204.004 167.091 202.672 169.575 202.672C171.519 202.672 173.463 203.716 174.039 206.308H164.859ZM207.521 217L200.069 207.892L207.305 199H201.761L195.569 206.92V199H190.925V217H195.569V208.828L202.121 217H207.521ZM221.399 199L217.403 211.096L212.579 199H207.647L214.919 216.784C214.055 219.052 212.759 219.916 210.311 219.88V224.2C214.631 224.452 217.943 222.184 219.815 217L226.367 199H221.399ZM239.053 198.496C236.425 198.496 234.517 199.468 233.221 201.124V199H228.577V224.2H233.221V214.876C234.517 216.532 236.425 217.504 239.053 217.504C243.877 217.504 247.837 213.364 247.837 208C247.837 202.636 243.877 198.496 239.053 198.496ZM238.189 213.076C235.345 213.076 233.221 211.024 233.221 208C233.221 204.976 235.345 202.924 238.189 202.924C241.069 202.924 243.193 204.976 243.193 208C243.193 211.024 241.069 213.076 238.189 213.076ZM259.68 217.504C263.208 217.504 266.268 215.632 267.816 212.824L263.784 210.52C263.064 211.996 261.516 212.896 259.644 212.896C256.872 212.896 254.82 210.844 254.82 208C254.82 205.12 256.872 203.068 259.644 203.068C261.48 203.068 263.028 204.004 263.748 205.48L267.744 203.14C266.268 200.368 263.208 198.496 259.68 198.496C254.208 198.496 250.176 202.636 250.176 208C250.176 213.364 254.208 217.504 259.68 217.504ZM278.549 204.76H275.057V199H270.413V217H278.549C282.653 217 285.353 214.552 285.353 210.88C285.353 207.208 282.653 204.76 278.549 204.76ZM287.333 199V217H291.977V199H287.333ZM278.585 212.896H275.057V208.828H278.585C279.881 208.828 280.817 209.656 280.817 210.88C280.817 212.104 279.881 212.896 278.585 212.896Z" fill="#040823"></path> <path id="Title Copy" d="M37.848 33.484C38.694 32.872 39.198 31.972 39.198 30.82C39.198 28.606 37.434 27.148 34.95 27.148C32.628 27.148 31.296 28.318 30.576 29.83L32.682 31.054C33.024 30.226 33.654 29.47 34.95 29.47C36.156 29.47 36.732 30.082 36.732 30.982C36.732 31.9 36.03 32.494 34.752 32.494H33.564V34.708H35.13C36.48 34.708 37.182 35.338 37.182 36.31C37.182 37.282 36.48 37.912 35.076 37.912C33.51 37.912 32.826 37.066 32.52 36.076L30.378 37.282C31.062 38.992 32.484 40.252 35.076 40.252C37.74 40.252 39.648 38.758 39.648 36.472C39.648 35.104 38.964 34.078 37.848 33.484ZM47.9918 31V32.062C47.3438 31.252 46.3718 30.748 45.0578 30.748C42.6638 30.748 40.6838 32.818 40.6838 35.5C40.6838 38.182 42.6638 40.252 45.0578 40.252C46.3718 40.252 47.3438 39.748 47.9918 38.938V40H50.3138V31H47.9918ZM45.4898 38.038C44.0678 38.038 43.0058 37.012 43.0058 35.5C43.0058 33.988 44.0678 32.962 45.4898 32.962C46.9298 32.962 47.9918 33.988 47.9918 35.5C47.9918 37.012 46.9298 38.038 45.4898 38.038ZM57.6574 30.748C56.3434 30.748 55.3894 31.234 54.7414 32.062V31H52.4194V43.6H54.7414V38.938C55.3894 39.766 56.3434 40.252 57.6574 40.252C60.0694 40.252 62.0494 38.182 62.0494 35.5C62.0494 32.818 60.0694 30.748 57.6574 30.748ZM57.2254 38.038C55.8034 38.038 54.7414 37.012 54.7414 35.5C54.7414 33.988 55.8034 32.962 57.2254 32.962C58.6654 32.962 59.7274 33.988 59.7274 35.5C59.7274 37.012 58.6654 38.038 57.2254 38.038ZM70.527 31V32.062C69.879 31.252 68.907 30.748 67.593 30.748C65.199 30.748 63.219 32.818 63.219 35.5C63.219 38.182 65.199 40.252 67.593 40.252C68.907 40.252 69.879 39.748 70.527 38.938V40H72.849V31H70.527ZM68.025 38.038C66.603 38.038 65.541 37.012 65.541 35.5C65.541 33.988 66.603 32.962 68.025 32.962C69.465 32.962 70.527 33.988 70.527 35.5C70.527 37.012 69.465 38.038 68.025 38.038ZM79.2206 40.252C81.9746 40.252 83.7566 38.452 83.7566 36.022C83.7566 33.502 81.7766 32.044 79.9226 32.044C78.9686 32.044 77.9426 32.332 77.2226 33.07C77.5106 32.278 78.0326 31.72 79.6526 31.09C81.5246 30.37 82.8206 29.74 83.1626 28.156L81.2546 27.058C80.8046 28.408 79.8326 28.642 77.9246 29.578C75.0266 31 74.4866 32.512 74.4866 35.41C74.4866 38.182 76.3406 40.252 79.2206 40.252ZM79.2026 38.128C77.9246 38.128 76.9166 37.228 76.9166 35.95C76.9166 34.636 78.0866 33.898 79.1846 33.898C80.5166 33.898 81.4346 34.798 81.4346 36.022C81.4346 37.228 80.5166 38.128 79.2026 38.128ZM92.0075 31V32.062C91.3595 31.252 90.3875 30.748 89.0735 30.748C86.6795 30.748 84.6995 32.818 84.6995 35.5C84.6995 38.182 86.6795 40.252 89.0735 40.252C90.3875 40.252 91.3595 39.748 92.0075 38.938V40H94.3295V31H92.0075ZM89.5055 38.038C88.0835 38.038 87.0215 37.012 87.0215 35.5C87.0215 33.988 88.0835 32.962 89.5055 32.962C90.9455 32.962 92.0075 33.988 92.0075 35.5C92.0075 37.012 90.9455 38.038 89.5055 38.038ZM103.527 31H95.553V33.232H98.397V40H100.719V33.232H103.527V31ZM108.835 33.88H107.089V31H104.767V40H108.835C110.887 40 112.237 38.776 112.237 36.94C112.237 35.104 110.887 33.88 108.835 33.88ZM113.227 31V40H115.549V31H113.227ZM108.853 37.948H107.089V35.914H108.853C109.501 35.914 109.969 36.328 109.969 36.94C109.969 37.552 109.501 37.948 108.853 37.948ZM124.149 35.392C124.725 34.96 125.031 34.33 125.031 33.538C125.031 32.062 123.987 31 122.043 31H117.669V40H122.403C124.383 40 125.409 38.902 125.409 37.444C125.409 36.508 124.959 35.788 124.149 35.392ZM121.827 32.908C122.457 32.908 122.817 33.178 122.817 33.718C122.817 34.276 122.457 34.528 121.827 34.528H119.847V32.908H121.827ZM122.133 38.038H119.847V36.364H122.133C122.745 36.364 123.141 36.652 123.141 37.174C123.141 37.732 122.763 38.038 122.133 38.038ZM133.703 31V32.062C133.055 31.252 132.083 30.748 130.769 30.748C128.375 30.748 126.395 32.818 126.395 35.5C126.395 38.182 128.375 40.252 130.769 40.252C132.083 40.252 133.055 39.748 133.703 38.938V40H136.025V31H133.703ZM131.201 38.038C129.779 38.038 128.717 37.012 128.717 35.5C128.717 33.988 129.779 32.962 131.201 32.962C132.641 32.962 133.703 33.988 133.703 35.5C133.703 37.012 132.641 38.038 131.201 38.038ZM139.642 29.848H144.862V27.832H139.642V29.848ZM144.628 31L140.398 36.112V31H138.13V40H139.858L144.088 34.888V40H146.356V31H144.628ZM155.576 31H147.602V33.232H150.446V40H152.768V33.232H155.576V31ZM158.426 36.454H165.212C165.266 36.148 165.302 35.842 165.302 35.5C165.302 32.854 163.412 30.748 160.748 30.748C157.922 30.748 155.996 32.818 155.996 35.5C155.996 38.182 157.904 40.252 160.928 40.252C162.656 40.252 164.006 39.55 164.852 38.326L162.98 37.246C162.584 37.768 161.864 38.146 160.964 38.146C159.74 38.146 158.75 37.642 158.426 36.454ZM158.39 34.654C158.66 33.502 159.506 32.836 160.748 32.836C161.72 32.836 162.692 33.358 162.98 34.654H158.39ZM177.327 31V34.402H173.745V31H171.423V40H173.745V36.58H177.327V40H179.649V31H177.327ZM188.617 31V32.062C187.969 31.252 186.997 30.748 185.683 30.748C183.289 30.748 181.309 32.818 181.309 35.5C181.309 38.182 183.289 40.252 185.683 40.252C186.997 40.252 187.969 39.748 188.617 38.938V40H190.939V31H188.617ZM186.115 38.038C184.693 38.038 183.631 37.012 183.631 35.5C183.631 33.988 184.693 32.962 186.115 32.962C187.555 32.962 188.617 33.988 188.617 35.5C188.617 37.012 187.555 38.038 186.115 38.038ZM201.954 40.252C204.636 40.252 206.526 38.812 206.526 36.454C206.526 33.88 204.402 33.214 202.404 32.584C200.496 32.008 200.01 31.594 200.01 30.82C200.01 30.1 200.622 29.56 201.666 29.56C202.944 29.56 203.628 30.226 204.078 31.18L206.166 29.974C205.32 28.21 203.736 27.148 201.666 27.148C199.506 27.148 197.526 28.516 197.526 30.892C197.526 33.286 199.398 34.096 201.324 34.654C203.196 35.194 204.042 35.554 204.042 36.49C204.042 37.192 203.52 37.822 202.026 37.822C200.46 37.822 199.578 37.066 199.128 35.896L197.004 37.138C197.688 39.01 199.38 40.252 201.954 40.252ZM212.923 33.232V31H210.889V28.48L208.567 29.182V31H207.001V33.232H208.567V36.976C208.567 39.406 209.665 40.36 212.923 40V37.894C211.591 37.966 210.889 37.948 210.889 36.976V33.232H212.923ZM216.241 36.454H223.027C223.081 36.148 223.117 35.842 223.117 35.5C223.117 32.854 221.227 30.748 218.563 30.748C215.737 30.748 213.811 32.818 213.811 35.5C213.811 38.182 215.719 40.252 218.743 40.252C220.471 40.252 221.821 39.55 222.667 38.326L220.795 37.246C220.399 37.768 219.679 38.146 218.779 38.146C217.555 38.146 216.565 37.642 216.241 36.454ZM216.205 34.654C216.475 33.502 217.321 32.836 218.563 32.836C219.535 32.836 220.507 33.358 220.795 34.654H216.205ZM229.976 30.748C228.662 30.748 227.708 31.234 227.06 32.062V31H224.738V43.6H227.06V38.938C227.708 39.766 228.662 40.252 229.976 40.252C232.388 40.252 234.368 38.182 234.368 35.5C234.368 32.818 232.388 30.748 229.976 30.748ZM229.544 38.038C228.122 38.038 227.06 37.012 227.06 35.5C227.06 33.988 228.122 32.962 229.544 32.962C230.984 32.962 232.046 33.988 232.046 35.5C232.046 37.012 230.984 38.038 229.544 38.038ZM237.157 29.92C237.949 29.92 238.597 29.272 238.597 28.498C238.597 27.724 237.949 27.058 237.157 27.058C236.383 27.058 235.735 27.724 235.735 28.498C235.735 29.272 236.383 29.92 237.157 29.92ZM236.005 40H238.327V31H236.005V40ZM248.751 40L245.025 35.446L248.643 31H245.871L242.775 34.96V27.4H240.453V40H242.775V35.914L246.051 40H248.751Z" fill="#040823"></path> </g> <defs> <linearGradient id="paint0_linear" x1="572.698" y1="244.38" x2="488.937" y2="-48.9031" gradientUnits="userSpaceOnUse"> <stop stop-color="#C0E1FF"></stop> <stop offset="1" stop-color="white"></stop> </linearGradient> </defs> </svg> 