<?xml version="1.0" encoding="UTF-8"?> <svg xmlns="http://www.w3.org/2000/svg" width="937" height="938" viewBox="0 0 937 938" fill="none"> <rect x="392" y="541" width="408" height="173" rx="86.5" fill="#040823"></rect> <path d="M591.378 593.463C564.123 592.002 542.385 569.189 542.4 541.53L542.53 161.001L471.637 161.041L471.507 542.376C471.738 608.166 524.071 661.843 589.323 664.491" fill="#56A4FF"></path> <path d="M681.59 555.889C654.334 554.427 632.596 531.615 632.612 503.956L632.742 123.427L561.849 123.467L561.719 504.802C561.95 570.592 614.283 624.269 679.535 626.917" fill="#56A4FF"></path> <path d="M773.588 528.889C746.333 527.427 724.595 504.614 724.611 476.956L724.741 224.001L653.848 224.042L653.718 477.802C653.949 543.592 706.282 597.268 771.534 599.916" fill="#56A4FF"></path> <path d="M653.497 259.477L653.489 244.851L653.471 214.245C653.449 174.7 685.526 142.622 724.936 142.78L724.967 197.493L724.994 244.892L725.003 260.331C725.014 280.374 708.502 296.616 688.187 296.062C668.685 295.509 653.508 278.979 653.497 259.477Z" fill="white"></path> <path d="M561.771 186.163L561.763 171.537L561.734 120.346C561.711 80.8014 593.789 48.7236 633.198 48.8815L633.229 103.865L633.268 171.578L633.277 187.017C633.288 207.06 616.776 223.302 596.461 222.748C576.959 222.195 561.782 205.665 561.771 186.163Z" fill="white"></path> <path d="M471.161 168.912L471.152 154.286L471.114 86.3021C471.091 46.7575 503.169 14.6798 542.578 14.8377L542.609 69.8209L542.658 154.327L542.666 169.766C542.678 189.809 526.165 206.051 505.851 205.497C486.484 204.809 471.172 188.414 471.161 168.912Z" fill="white"></path> <path d="M328.257 593.12C355.748 591.646 377.674 568.636 377.658 540.739L377.508 183.959L449.013 183.999L449.164 541.592C448.931 607.951 396.145 662.091 330.329 664.762" fill="#56A4FF"></path> <path d="M364 629.998L364 627.998C364 608.668 348.33 592.998 329 592.998L75 592.998L75 664.998L329 664.998C348.33 664.998 364 649.328 364 629.998Z" fill="#56A4FF"></path> <path d="M98.5355 664.998L83.8924 664.998L71.6899 664.998C32.1842 664.998 -3.1143e-06 632.828 0 592.998L54.9114 592.998L83.7399 592.998L99.1456 592.998C119.28 592.998 135.448 609.696 134.991 629.917C134.533 649.679 118.06 664.998 98.5355 664.998Z" fill="#3E50CB"></path> <path d="M376.808 204.911L376.8 190.285L376.761 122.301C376.738 82.7565 408.816 50.6788 448.225 50.8367L448.257 105.82L448.305 190.326L448.314 205.765C448.325 225.808 431.813 242.05 411.498 241.496C392.132 240.808 376.819 224.413 376.808 204.911Z" fill="white"></path> <path d="M718.893 713.963C717.419 686.473 694.409 664.547 666.511 664.563L309.731 664.713L309.771 593.208L666.511 593.057L667.364 593.057C698.191 593.165 809 576.499 809 576.499L809 711.89" fill="#56A4FF"></path> <path d="M737.894 621C737.894 621 713.41 620.984 685.512 621L379 621L379.041 460.206L686.365 460.055C752.724 460.288 806.865 513.075 809.536 578.89" fill="#56A4FF"></path> </svg> 