<?xml version="1.0" encoding="iso-8859-1"?>
<!-- Generator: Adobe Illustrator 21.0.2, SVG Export Plug-In . SVG Version: 6.00 Build 0)  -->
<svg version="1.1" id="Layer_1" xmlns="http://www.w3.org/2000/svg" xmlns:xlink="http://www.w3.org/1999/xlink" x="0px" y="0px"
	 viewBox="0 0 100.355 100.352" style="enable-background:new 0 0 100.355 100.352;" xml:space="preserve">
<path d="M96.063,15.817c-0.219-0.566-0.757-0.944-1.363-0.958l-8.89-0.208l0.201-8.892c0.014-0.606-0.34-1.162-0.895-1.406
	c-0.556-0.245-1.203-0.132-1.642,0.288L72.851,14.788c-0.288,0.274-0.455,0.652-0.465,1.049l-0.228,9.494l-2.631,2.631
	c-6.982-6.472-16.318-10.438-26.565-10.438c-21.573,0-39.124,17.555-39.124,39.132c0,21.569,17.551,39.117,39.124,39.117
	s39.124-17.548,39.124-39.117c0-10.251-3.966-19.589-10.438-26.573l2.313-2.313l10.038,0.234c0.012,0,0.023,0,0.035,0
	c0.385,0,0.756-0.148,1.035-0.415L95.7,17.444C96.14,17.025,96.283,16.383,96.063,15.817z M79.085,56.656
	c0,19.915-16.205,36.117-36.124,36.117S6.837,76.571,6.837,56.656c0-19.923,16.205-36.132,36.124-36.132
	c9.421,0,18.007,3.629,24.445,9.558l-5.552,5.552c-5.012-4.508-11.636-7.258-18.892-7.258c-15.589,0-28.271,12.686-28.271,28.279
	c0,15.589,12.682,28.271,28.271,28.271c15.594,0,28.279-12.682,28.279-28.271c0-7.26-2.752-13.888-7.266-18.901l5.551-5.551
	C75.456,38.643,79.085,47.233,79.085,56.656z M51.993,56.651c0,4.979-4.051,9.029-9.03,9.029c-4.979,0-9.03-4.051-9.03-9.029
	c0-4.979,4.051-9.03,9.03-9.03c1.948,0,3.749,0.626,5.226,1.679L41.9,55.589c-0.586,0.586-0.586,1.535,0,2.121
	c0.293,0.293,0.677,0.439,1.061,0.439s0.768-0.146,1.061-0.439l6.289-6.289C51.365,52.899,51.993,54.701,51.993,56.651z
	 M50.328,47.16c-2.038-1.585-4.59-2.539-7.366-2.539c-6.633,0-12.03,5.397-12.03,12.03c0,6.633,5.396,12.029,12.03,12.029
	s12.03-5.396,12.03-12.029c0-2.778-0.956-5.332-2.543-7.37l9.4-9.401c3.972,4.467,6.391,10.343,6.391,16.776
	c0,13.935-11.34,25.271-25.279,25.271c-13.935,0-25.271-11.336-25.271-25.271c0-13.939,11.336-25.279,25.271-25.279
	c6.429,0,12.301,2.416,16.767,6.383L50.328,47.16z M83.447,24.991l-6.555-0.153l4.753-4.753c0.586-0.586,0.586-1.536,0-2.121
	c-0.586-0.586-1.535-0.586-2.121,0l-4.292,4.292l0.137-5.725l4.868-4.645c0.001,0,0.001-0.001,0.001-0.001l2.691-2.572l-0.153,6.77
	c-0.019,0.828,0.638,1.514,1.465,1.533l6.768,0.158L83.447,24.991z"/>
</svg>
