<?xml version="1.0" encoding="UTF-8" standalone="no"?>
<svg width="49px" height="49px" viewBox="0 0 49 49" version="1.1" xmlns="http://www.w3.org/2000/svg" xmlns:xlink="http://www.w3.org/1999/xlink">
    <!-- Generator: Sketch 40.2 (33826) - http://www.bohemiancoding.com/sketch -->
    <title>Group 59</title>
    <desc>Created with Sketch.</desc>
    <defs></defs>
    <g id="Welcome" stroke="none" stroke-width="1" fill="none" fill-rule="evenodd">
        <g id="Group-59">
            <rect id="Rectangle-2" fill="#FFFFFF" x="0" y="0" width="49" height="49" rx="24.5"></rect>
            <path d="M24.5734278,11 L24.5734278,11.0019534 L24.5519411,11.0019534 L23.962051,11.0195355 L23.9405643,11.0195355 L23.9171255,11.0195355 L23.5967869,11.0586075 L23.1006534,11.1211218 L23.2256633,12.1135369 L23.7217969,12.0510225 L24.0147893,12.0158584 L24.5597547,11.9982764 L24.6281191,11.9982764 L25.128159,12.0236722 L25.1828514,11.0234424 L24.6847647,11 L24.5968667,11 L24.5734278,11 L24.5734278,11 L24.5734278,11 Z M26.3001274,11.230521 L25.9836962,12.1799581 L26.458343,12.3381975 L26.6360922,12.3968049 L27.3080208,12.7250053 L27.7572746,12.9438056 L28.1948095,12.0432077 L27.7455557,11.8244074 L27.0482341,11.4844863 L27.0189347,11.4708112 L26.9876822,11.4590895 L26.7747753,11.3887613 L26.3001274,11.230521 L26.3001274,11.230521 L26.3001274,11.230521 Z M21.9990036,11.4747181 L21.5458424,11.6857046 L21.0672883,11.9064583 L21.0282232,11.9220869 L20.9930644,11.9474827 L20.6024072,12.2190301 L20.1922185,12.5022982 L20.7606238,13.3247521 L21.1727657,13.0414841 L21.5243567,12.7953345 L21.9638448,12.5941163 L22.418959,12.3831298 L21.9990036,11.4747181 L21.9990036,11.4747181 L21.9990036,11.4747181 Z M29.1265248,12.7562625 L28.4116238,13.4556422 L28.7612616,13.8131464 L29.1401978,14.2019077 L29.3491985,14.5066647 L29.6324241,14.9208229 L30.4567088,14.3542857 L30.1754364,13.942082 L29.9410427,13.6002064 L29.9156497,13.5650424 L29.8863513,13.5337852 L29.4761616,13.1137667 L29.1265248,12.7562625 L29.1265248,12.7562625 L29.1265248,12.7562625 Z M24.501156,13.0043665 C21.7683062,13.0043665 19.5495293,15.2513828 19.5378694,18.0055156 L12.5001993,18.0055156 C12.2240464,18.0055432 12.0001871,18.2294361 12.0001595,18.5056305 L12.0001595,33.0089629 L10.5000399,33.0089629 C10.2238869,33.0089905 10.0000276,33.2328834 10,33.5090778 C10,34.9180015 11.2597674,36.0096523 12.7404525,36.0096523 L36.2618596,36.0096523 C37.7425446,36.0096523 39.002312,34.9180015 39.002312,33.5090778 C39.0022844,33.2328834 38.7784251,33.0089905 38.5022722,33.0089629 L37.0021526,33.0089629 L37.0021526,18.5056305 C37.002125,18.2294361 36.7782657,18.0055432 36.5021127,18.0055156 L29.4644427,18.0055156 C29.4527818,15.2513828 27.2339969,13.0043665 24.501156,13.0043665 L24.501156,13.0043665 L24.501156,13.0043665 Z M19.307383,13.2759129 L19.0163438,13.6822563 L18.4987245,14.4050794 L18.479192,14.4304752 L18.4635657,14.4578255 L18.4108265,14.5574574 L18.1764328,14.9989658 L19.057363,15.469777 L19.2937099,15.0282696 L19.3308218,14.9598938 L19.8289086,14.264422 L20.1199478,13.8580787 L19.307383,13.2759129 L19.307383,13.2759129 L19.307383,13.2759129 Z M24.501156,14.0045964 C26.6941038,14.0045964 28.4663161,15.7970922 28.4663161,18.0270046 C28.4663161,19.2187784 27.8896161,19.9981104 27.210356,21.0296485 C26.6002964,21.9560613 26.0086132,23.1433021 25.880172,24.7609738 L25.0011959,24.7609738 L25.0011959,22.0630889 C25.0037455,21.88273 24.9089999,21.7149696 24.7532391,21.624046 C24.5974782,21.5331224 24.4048339,21.5331224 24.249073,21.624046 C24.0933121,21.7149696 23.9985666,21.88273 24.0011162,22.0630889 L24.0011162,24.7609738 L23.1221401,24.7609738 C22.9936988,23.1433021 22.4020127,21.9560603 21.791956,21.0296485 C21.1126979,19.9981104 20.5359959,19.2187784 20.5359959,18.0270046 C20.5359959,15.7970922 22.3081972,14.0045964 24.501156,14.0045964 L24.501156,14.0045964 L24.501156,14.0045964 Z M31.011441,15.3662372 L30.0543327,15.6573201 L30.1988762,16.1359451 L30.3121663,16.5090778 L30.3141194,16.5207995 L30.4254563,17.0619398 L30.5270274,17.5522865 L31.5075736,17.3510683 L31.4060035,16.8607216 L31.2927134,16.3078596 L31.2888061,16.2844172 L31.2809935,16.2629272 L31.1559835,15.8448632 L31.011441,15.3662372 L31.011441,15.3662372 L31.011441,15.3662372 Z M17.7701504,16.0597566 L17.6607667,16.5461963 L17.6158411,16.7415532 L17.5045043,17.2299464 L18.4811451,17.4507001 L18.5905288,16.9642604 L18.6354544,16.7689035 L18.7467913,16.2805103 L17.7701504,16.0597566 L17.7701504,16.0597566 L17.7701504,16.0597566 Z M13.0002392,19.0057454 L19.6511604,19.0057454 C19.8864561,20.0187782 20.4501351,20.8075254 20.9579046,21.5786026 C21.6184442,22.5816331 22.2138647,23.5761015 22.2138647,25.2610887 L22.2138647,27.4373707 C22.2138923,27.7135651 22.4377516,27.937458 22.7139045,27.9374856 L26.2884075,27.9374856 C26.5645605,27.937458 26.7884198,27.7135651 26.7884474,27.4373707 L26.7884474,25.2610887 C26.7884474,23.5761015 27.3838658,22.5816331 28.0444075,21.5786026 C28.552178,20.8075254 29.1158559,20.0187782 29.3511517,19.0057454 L36.0020729,19.0057454 L36.0020729,33.0089629 L13.0002392,33.0089629 L13.0002392,19.0057454 L13.0002392,19.0057454 L13.0002392,19.0057454 Z M14.5003588,20.0098822 C14.2242058,20.0099098 14.0003465,20.2338027 14.0003189,20.5099971 L14.0003189,31.5125251 C14.0003465,31.7887195 14.2242058,32.0126123 14.5003588,32.01264 L34.5019533,32.01264 C34.7781062,32.0126123 35.0019655,31.7887195 35.0019931,31.5125251 L35.0019931,20.5099971 C35.0019655,20.2338027 34.7781062,20.0099098 34.5019533,20.0098822 L30.5016344,20.0098822 L30.0015945,20.0098822 L30.0015945,21.010112 L30.5016344,21.010112 L34.0019134,21.010112 L34.0019134,31.0124101 L15.0003986,31.0124101 L15.0003986,21.010112 L18.5006777,21.010112 L19.0007175,21.010112 L19.0007175,20.0098822 L18.5006777,20.0098822 L14.5003588,20.0098822 L14.5003588,20.0098822 L14.5003588,20.0098822 Z M23.2139444,25.7612036 L24.424978,25.7612036 C24.4754653,25.7689863 24.5268468,25.7689863 24.5773341,25.7612036 L25.7883676,25.7612036 L25.7883676,26.9372558 L23.2139444,26.9372558 L23.2139444,25.7612036 L23.2139444,25.7612036 L23.2139444,25.7612036 Z M23.1377663,29.0080436 C22.8616019,29.0220696 22.6490951,29.257349 22.663119,29.5335549 C22.6771429,29.8097607 22.912387,30.0222994 23.1885514,30.0082734 L25.8137607,30.0082734 C25.9940925,30.0108234 26.1618278,29.9160637 26.2527377,29.7602794 C26.3436477,29.6044951 26.3436477,29.4118219 26.2527377,29.2560376 C26.1618278,29.1002534 25.9940925,29.0054937 25.8137607,29.0080436 L23.1885514,29.0080436 C23.171634,29.0071834 23.1546838,29.0071834 23.1377663,29.0080436 L23.1377663,29.0080436 L23.1377663,29.0080436 Z M11.2344734,34.0091927 L12.5001993,34.0091927 L36.5021127,34.0091927 L37.7678386,34.0091927 C37.5208139,34.5586189 37.0255485,35.0094225 36.2618596,35.0094225 L12.7404525,35.0094225 C11.9767636,35.0094225 11.4814991,34.5586189 11.2344734,34.0091927 L11.2344734,34.0091927 L11.2344734,34.0091927 Z" id="Shape" fill="#222222"></path>
        </g>
    </g>
</svg>