<?xml version="1.0" encoding="UTF-8"?> <svg xmlns="http://www.w3.org/2000/svg" width="112" height="64" viewBox="0 0 112 64" fill="none"> <path d="M41.763 46.378h-5.837a2.118 2.118 0 002.016 1.47c.84 0 1.637-.378 2.015-1.008l1.344.84c-.714 1.05-1.974 1.764-3.401 1.764-2.184 0-3.99-1.68-3.99-3.864s1.806-3.863 3.99-3.863c2.141 0 3.947 1.721 3.947 3.863 0 .252-.042.546-.084.798zm-1.848-1.554a2.118 2.118 0 00-2.015-1.47c-.924 0-1.68.588-2.016 1.47h4.031zM44.578 49.234v-4.2a1.595 1.595 0 113.192 0v4.2h1.764v-4.242c0-1.89-1.47-3.275-3.36-3.275s-3.36 1.385-3.36 3.275v4.242h1.764zM31.811 42.766a3.226 3.226 0 00-2.73-1.511 3.235 3.235 0 00-3.233 3.233 3.208 3.208 0 003.233 3.234 3.226 3.226 0 002.73-1.512l1.47.924a4.977 4.977 0 01-4.2 2.31c-2.813 0-5.081-2.142-5.081-4.956 0-2.813 2.268-4.955 5.081-4.955 1.764 0 3.318.924 4.2 2.31l-1.47.923z" fill="#5A8CA6"></path> <path d="M29.08 46a1.512 1.512 0 100-3.024 1.512 1.512 0 000 3.024zM62.55 46.378h-5.837a2.118 2.118 0 002.016 1.47c.84 0 1.638-.378 2.016-1.008l1.343.882c-.714 1.05-1.973 1.764-3.401 1.764-2.184 0-3.99-1.68-3.99-3.864s1.806-3.864 3.99-3.864c2.142 0 3.947 1.722 3.947 3.864 0 .21-.042.504-.084.756zm-1.805-1.554a2.118 2.118 0 00-2.016-1.47c-.924 0-1.68.588-2.016 1.47h4.032zM65.406 44.698c0-.714.588-1.302 1.302-1.302h.252v-1.721h-.504a2.814 2.814 0 00-2.813 2.813v4.704h1.763v-4.494zM54.068 43.522v-1.596h-1.386v-2.141h-1.764v6.803a2.68 2.68 0 002.688 2.688h.504v-1.722h-.252a1.13 1.13 0 01-1.134-1.134v-2.814h1.344v-.084zM25.05 34.032c.588.587 1.47.965 2.478.965 1.763 0 2.561-1.89.588-2.393l-1.596-.42c-1.386-.378-2.31-1.302-2.31-2.646-.042-1.512 1.554-2.772 3.318-2.73 1.217 0 2.393.378 3.233 1.05l-1.008 1.428c-.588-.504-1.344-.756-2.225-.756-1.47 0-2.226 1.512-.546 1.974l1.511.378c1.47.378 2.646 1.302 2.646 2.855.042 1.638-1.638 2.982-3.57 2.94-1.343 0-2.603-.462-3.485-1.218l.966-1.428zM37.48 31.26a2.16 2.16 0 00-1.511-.63 2.15 2.15 0 00-2.142 2.142 2.15 2.15 0 002.142 2.141 2.16 2.16 0 001.512-.63l1.218 1.218a3.868 3.868 0 01-2.772 1.134c-2.226 0-3.99-1.638-3.99-3.863 0-2.226 1.764-3.864 3.99-3.864 1.092 0 2.016.42 2.772 1.134L37.48 31.26zM50.414 33.611H44.62a2.117 2.117 0 002.016 1.47c.84 0 1.638-.378 2.016-1.008l1.344.882c-.714 1.05-1.974 1.764-3.402 1.764-2.184 0-3.99-1.68-3.99-3.863 0-2.184 1.806-3.864 3.99-3.864 2.142 0 3.947 1.722 3.947 3.864 0 .21-.041.462-.126.755zm-1.805-1.553a2.118 2.118 0 00-2.016-1.47c-.924 0-1.68.588-2.016 1.47h4.032zM64.735 31.26a2.16 2.16 0 00-1.512-.63 2.15 2.15 0 00-2.142 2.142 2.15 2.15 0 002.142 2.141 2.16 2.16 0 001.512-.63l1.218 1.218a3.868 3.868 0 01-2.772 1.134c-2.226 0-3.99-1.638-3.99-3.863 0-2.226 1.764-3.864 3.99-3.864 1.092 0 2.016.42 2.772 1.134l-1.218 1.218zM74.269 33.611h-5.837a2.117 2.117 0 002.016 1.47c.84 0 1.637-.378 2.015-1.008l1.344.882c-.714 1.05-1.974 1.764-3.401 1.764-2.184 0-3.99-1.68-3.99-3.863 0-2.184 1.806-3.864 3.99-3.864 2.141 0 3.947 1.722 3.947 3.864 0 .21-.042.462-.084.755zm-1.806-1.553a2.118 2.118 0 00-2.015-1.47c-.924 0-1.68.588-2.016 1.47h4.031zM53.272 36.467v-4.2c0-.881.714-1.637 1.595-1.637.882 0 1.596.714 1.596 1.638v4.2h1.764v-4.284c0-1.89-1.47-3.276-3.36-3.276s-3.36 1.386-3.36 3.276v4.241h1.765v.042zM41.428 29.16h-1.764v7.307h1.764V29.16zM40.546 28.32a1.05 1.05 0 100-2.1 1.05 1.05 0 000 2.1zM33.827 17.948v-3.822l-1.302 1.302A4.856 4.856 0 0029.08 14C26.268 14 24 16.142 24 18.955c0 2.814 2.268 4.956 5.081 4.956a4.977 4.977 0 004.2-2.31l-1.47-.924c-.588.882-1.596 1.512-2.73 1.512a3.235 3.235 0 01-3.233-3.234 3.235 3.235 0 013.233-3.233c.882 0 1.68.336 2.226.882l-1.302 1.302h3.822v.042zM38.195 23.91c-2.226 0-3.99-1.637-3.99-3.863s1.764-3.863 3.99-3.863c2.225 0 3.99 1.637 3.99 3.863 0 2.184-1.765 3.864-3.99 3.864zm0-6.047a2.15 2.15 0 00-2.142 2.142 2.15 2.15 0 002.142 2.142 2.124 2.124 0 002.141-2.142c.042-1.134-.924-2.142-2.141-2.142zM83.632 20.845h-5.837a2.118 2.118 0 002.016 1.47c.84 0 1.638-.378 2.015-1.008l1.344.882c-.713 1.05-1.973 1.722-3.401 1.722-2.184 0-3.99-1.68-3.99-3.864s1.806-3.863 3.99-3.863c2.141 0 3.947 1.721 3.947 3.863 0 .252-.042.504-.084.798zm-1.848-1.554a2.117 2.117 0 00-2.015-1.47c-.924 0-1.68.588-2.016 1.47h4.031zM68.85 16.394v4.2a1.595 1.595 0 11-3.192 0v-4.2h-1.764v4.241c0 1.89 1.47 3.276 3.36 3.276s3.36-1.386 3.36-3.276v-4.241H68.85z" fill="#5A8CA6"></path> <path d="M68.85 16.394v4.2a1.595 1.595 0 11-3.192 0v-4.2h-1.764v4.241c0 1.89 1.47 3.276 3.36 3.276s3.36-1.386 3.36-3.276v-4.241H68.85zM58.982 16.184c-2.226 0-3.99 1.637-3.99 3.863v5.796h1.764v-2.814c.672.63 1.47.882 2.226.882 2.225 0 3.947-1.638 3.947-3.864s-1.722-3.863-3.947-3.863zm-.084 6.005a2.15 2.15 0 01-2.142-2.142 2.15 2.15 0 012.142-2.142c1.217 0 2.141.966 2.141 2.142a2.15 2.15 0 01-2.141 2.142zM50.877 16.142c-.924 0-1.89.378-2.477 1.176-.588-.798-1.554-1.176-2.478-1.176-1.638 0-2.772 1.26-2.772 3.023v4.536h1.764v-4.536c0-.713.588-1.302 1.302-1.302.714 0 1.302.588 1.302 1.302v4.536h1.764v-4.536c0-.713.588-1.302 1.302-1.302.713 0 1.301.588 1.301 1.302v4.536h1.764v-4.536c0-1.721-1.134-3.023-2.772-3.023zM75.149 17.99v-1.596h-1.386v-2.142h-1.806v6.803a2.68 2.68 0 002.688 2.688h.504V22.02h-.252a1.13 1.13 0 01-1.134-1.134v-2.814h1.386v-.084zM86.445 19.165c0-.713.588-1.302 1.302-1.302H88v-1.68h-.504a2.814 2.814 0 00-2.813 2.814v4.704h1.763v-4.536z" fill="#5A8CA6"></path> </svg> 