<?xml version="1.0" encoding="UTF-8"?> <svg xmlns="http://www.w3.org/2000/svg" width="187.998" height="106.43" viewBox="0 0 187.998 106.43"> <g id="Group_489" data-name="Group 489" transform="translate(-1155.54 -693.537)"> <g id="Group_293" data-name="Group 293" transform="translate(1201.161 743.259)"> <path id="Path_1483" data-name="Path 1483" d="M1229.247,762.68a8.19,8.19,0,0,0-4.646-1.216c-3.292,0-5.946,2.405-5.946,6.36,0,3.927,2.516,6.332,6.14,6.332a7.807,7.807,0,0,0,4.48-1.383v3.485a9.175,9.175,0,0,1-4.812,1.106c-5.42,0-9.541-3.705-9.541-9.541a9.14,9.14,0,0,1,9.541-9.569,9.483,9.483,0,0,1,4.784,1.023Z" transform="translate(-1214.921 -758.255)"></path> <path id="Path_1484" data-name="Path 1484" d="M1235.508,764.591h3.678l1.632,4.48a52.725,52.725,0,0,1,1.853,5.448s.276-.968,1.769-5.448l1.467-4.48h3.484l-5.061,13.633c-1.521,4.038-3.706,5.614-6.416,5.614a5.451,5.451,0,0,1-1.383-.138v-2.738a3.753,3.753,0,0,0,.94.112c1.714,0,2.848-.886,3.567-2.738Z" transform="translate(-1219.691 -759.723)"></path> <path id="Path_1485" data-name="Path 1485" d="M1259.86,773.2a1.623,1.623,0,0,0,1.769,1.8,3.762,3.762,0,0,0,1.936-.581v2.849a6.617,6.617,0,0,1-2.49.47c-3.1,0-4.535-1.632-4.535-4.591v-7.08h-2.1v-2.489h2.1V760.2h3.319v3.374h3.484v2.489h-3.484Z" transform="translate(-1224.078 -758.705)"></path> <path id="Path_1486" data-name="Path 1486" d="M1275.656,764.3c4.48,0,6.776,3.207,6.776,7.19,0,4.093-2.379,7.273-6.776,7.273s-6.748-3.125-6.748-7.08c0-4.176,2.6-7.383,6.748-7.383m-3.264,7.273c0,2.433,1.106,4.536,3.291,4.536,2.267,0,3.291-2.047,3.291-4.507s-.885-4.591-3.318-4.591C1273.443,767.013,1272.392,769.114,1272.392,771.576Z" transform="translate(-1227.431 -759.656)"></path> <path id="Path_1487" data-name="Path 1487" d="M1295.788,770.415h-1.909v6.8h-3.484V758.579h5.752c4.287,0,6.8,2.379,6.8,5.89a5.522,5.522,0,0,1-3.54,5.393l4.785,7.356h-4.176Zm-1.909-2.876h2.324c2.212,0,3.207-1.216,3.207-3.1,0-1.908-1.161-2.987-3.263-2.987h-2.268Z" transform="translate(-1232.409 -758.33)"></path> <path id="Path_1488" data-name="Path 1488" d="M1321.89,777.8a9.144,9.144,0,0,1-4.23.913c-4.564,0-7.218-3.014-7.218-7.135,0-4.618,2.876-7.163,6.387-7.163,3.54,0,5.946,2.129,5.946,6.5a16.3,16.3,0,0,1-.193,1.991h-8.795c.5,2.047,2.13,3.125,4.369,3.125a6.365,6.365,0,0,0,3.733-1.106Zm-2.268-7.8c-.083-1.714-.912-2.986-2.71-2.986-1.494,0-2.849,1.105-3.181,3.4h5.89Z" transform="translate(-1237.055 -759.681)"></path> <path id="Path_1489" data-name="Path 1489" d="M1330.6,765.234a9.632,9.632,0,0,1,4.536-.968c3.871,0,5.7,1.77,5.7,5.31v8.96h-3.291v-1.687c-.443.83-1.494,1.8-3.651,1.8a4,4,0,0,1-4.342-4.093c0-2.627,1.991-4.259,5.808-4.259h2.046v-.857c0-1.466-.635-2.379-2.682-2.379a7.886,7.886,0,0,0-4.121,1.244Zm5.089,7.273c-1.825,0-2.683.857-2.683,1.908,0,1.079.664,1.77,2.046,1.77a2.192,2.192,0,0,0,2.351-2.35v-1.328Z" transform="translate(-1241.483 -759.648)"></path> <path id="Path_1490" data-name="Path 1490" d="M1356.986,767.914a7.1,7.1,0,0,0-3.457-.829c-1.161,0-1.825.553-1.825,1.328,0,1.078,1.411,1.52,2.876,2.213,1.576.774,3.18,1.8,3.18,3.9,0,2.682-2.1,4.176-5.171,4.176a9.66,9.66,0,0,1-4.2-.857V774.8a7.565,7.565,0,0,0,4.01,1.245c1.245,0,1.936-.5,1.936-1.3,0-1.107-1.383-1.577-2.96-2.24-1.521-.691-3.07-1.743-3.07-3.983,0-2.682,2.324-4.148,5.145-4.148a9.584,9.584,0,0,1,3.539.608Z" transform="translate(-1245.828 -759.673)"></path> <path id="Path_1491" data-name="Path 1491" d="M1363.1,771.686c0-4.176,2.6-7.383,6.748-7.383,4.481,0,6.776,3.207,6.776,7.19,0,4.093-2.379,7.273-6.776,7.273S1363.1,775.641,1363.1,771.686Zm3.484-.111c0,2.433,1.106,4.536,3.291,4.536,2.268,0,3.291-2.047,3.291-4.507s-.885-4.591-3.318-4.591C1367.631,767.013,1366.579,769.114,1366.579,771.576Z" transform="translate(-1249.255 -759.656)"></path> <path id="Path_1492" data-name="Path 1492" d="M1387.719,766.946a4.45,4.45,0,0,1,4.315-2.572c2.765,0,4.535,1.742,4.535,4.868v9.319h-3.319v-8.629c0-1.88-.995-2.793-2.462-2.793-1.6,0-3.069,1.273-3.069,3.9v7.522H1384.4v-14.02h3.318Z" transform="translate(-1254.192 -759.673)"></path> </g> <path id="Path_1493" data-name="Path 1493" d="M1274.055,731.678a3.582,3.582,0,0,0-3.54,3.076l-5.238.374a4.8,4.8,0,0,0-2.91-3.356l1.781-8.246c.048,0,.1.008.145.008a4.318,4.318,0,1,0-1.648-.327l-1.781,8.244c-.082,0-.163-.012-.246-.012a4.777,4.777,0,0,0-1.792.35l-2.834-4.677a3.309,3.309,0,1,0-5.316-3.764l-6.242-1.3c.022-.233.036-.469.036-.708a7.157,7.157,0,0,0-1.063-3.752l6.944-5.342a3.606,3.606,0,1,0-.942-1.215l-6.938,5.337a7.2,7.2,0,1,0,1.65,7.183l6.241,1.3a3.31,3.31,0,0,0,3.3,3.218,3.272,3.272,0,0,0,1-.172l2.841,4.69a4.779,4.779,0,0,0-1.685,3.644,4.832,4.832,0,0,0,.043.61l-6.676,1.984a4.315,4.315,0,1,0,.44,1.473l6.673-1.983a4.788,4.788,0,0,0,9.082-1.654l5.238-.374a3.585,3.585,0,1,0,3.429-4.607Z" transform="translate(-17.269 -2.868)" fill="#728dc7"></path> <path id="Path_1494" data-name="Path 1494" d="M1232.693,696.944a3.894,3.894,0,0,0-3.49,2.184l-6.942-1.844c0-.052.016-.1.016-.155a3.592,3.592,0,1,0-7.185,0,3.552,3.552,0,0,0,.52,1.836l-4.02,3.782a5.666,5.666,0,0,0-9.063,3.023l-7.635-.854a3.582,3.582,0,1,0-6.642,2.184l-3.332,3.081a6,6,0,1,0,1.042,1.131l3.326-3.077a3.569,3.569,0,0,0,5.438-1.792l7.632.854a5.67,5.67,0,0,0,5.152,5.509l.248,5.479a4.309,4.309,0,0,0-2.246,7.092l-1.629,2.1a6.8,6.8,0,1,0-5.9,12.174l-1.233,4.948c-.06,0-.116-.018-.177-.018a3.942,3.942,0,1,0,1.669.387l1.232-4.946a6.881,6.881,0,0,0,.887.064,6.8,6.8,0,0,0,6.754-6.033h7.66a3.374,3.374,0,1,0,0-1.536h-7.66a6.779,6.779,0,0,0-2.013-4.1l1.625-2.1a4.315,4.315,0,1,0,2.568-8.1l-.248-5.482a5.665,5.665,0,0,0,3.6-8.868l4.014-3.776a3.571,3.571,0,0,0,5.207-1.323l6.947,1.845c0,.08-.024.155-.024.236a3.907,3.907,0,1,0,3.907-3.906Z" transform="translate(-4.54 0)" fill="#ffb000"></path> <path id="Path_1495" data-name="Path 1495" d="M1191.788,728.535a4.461,4.461,0,1,0-3.92-2.329l-8.235,6.541a3.125,3.125,0,0,0-4.837,1.351l-4.113-.519a4.444,4.444,0,1,0-.187,1.525l4.115.52a3.137,3.137,0,0,0,2.017,2.564l-.876,7.949a6.7,6.7,0,0,0-6.234,4.337l-3.548-.891c.017-.169.026-.341.026-.515a5.228,5.228,0,1,0-5.454,5.217l1.284,12.246a4.717,4.717,0,1,0,5.529,6.53l3.285.91a5.934,5.934,0,0,0,4.851,6.73l-.247,4.828a4.461,4.461,0,1,0,1.534.078l.247-4.829a5.985,5.985,0,1,0-5.983-8.291l-3.274-.907a4.713,4.713,0,0,0-4.413-5.207l-1.284-12.247a5.235,5.235,0,0,0,3.526-3.052l3.547.891a6.789,6.789,0,0,0-.064.877,6.7,6.7,0,0,0,10.866,5.255l6.081,6.094a3.917,3.917,0,1,0,1.089-1.085l-6.083-6.094a6.7,6.7,0,0,0-3.754-10.7l.877-7.956a3.127,3.127,0,0,0,2.438-4.405l8.234-6.541A4.439,4.439,0,0,0,1191.788,728.535Z" transform="translate(0 -6.042)" fill="#e44a4f"></path> <path id="Path_1496" data-name="Path 1496" d="M1262.245,797.193a4.248,4.248,0,0,0-3.56,6.57l-3.842,3.647a3.541,3.541,0,0,0-3.834-.109l-6.466-6.948a5.994,5.994,0,1,0-1.128,1.043l6.462,6.943a3.571,3.571,0,0,0-.641,2.043,3.5,3.5,0,0,0,.05.5l-9.652,3.587a5.09,5.09,0,0,0-8.375-.767l-3.023-1.8a9.144,9.144,0,0,0-11.178-12.679l-1.5-3.414a3.932,3.932,0,1,0-6.052-2.1l-3.791,1.919a5.436,5.436,0,1,0,.695,1.371l3.791-1.919a3.8,3.8,0,0,0,3.964,1.381l1.478,3.375a9.141,9.141,0,0,0-4.166,11.37l-6.874,3.361a4.241,4.241,0,1,0,.674,1.381l6.877-3.362a9.142,9.142,0,0,0,15.292.64l3.024,1.806a5.089,5.089,0,1,0,9.7.887l9.641-3.583a3.583,3.583,0,0,0,6.081-3.791l3.853-3.656a4.249,4.249,0,1,0,2.5-7.684Z" transform="translate(-9.347 -22.064)" fill="#5fb399"></path> </g> </svg> 