<?xml version="1.0" encoding="UTF-8"?> <svg xmlns="http://www.w3.org/2000/svg" id="Layer_1" data-name="Layer 1" viewBox="0 0 286 286"> <defs> <style> .cls-1 { fill: #7b5ae2; } .cls-2 { fill: #120d28; } .cls-3 { opacity: 0.14; } .cls-4 { fill: #fff; } </style> </defs> <title>sa-icon-Artboard 10 copy 8-</title> <rect class="cls-1" x="118" y="69" width="114" height="57" rx="25.61"></rect> <path class="cls-1" d="M212.45,136.52l-18-18A5,5,0,0,1,198,110h18a5,5,0,0,1,5,5v18A5,5,0,0,1,212.45,136.52Z"></path> <rect class="cls-2" x="74" y="152" width="85" height="57" rx="25.61" transform="translate(233 361) rotate(-180)"></rect> <path class="cls-2" d="M93.55,219.52l18-18A5,5,0,0,0,108,193H90a5,5,0,0,0-5,5v18A5,5,0,0,0,93.55,219.52Z"></path> <g class="cls-3"> <path class="cls-1" d="M111.43,86.12l-22.32,22a45.18,45.18,0,0,0-.48,64l22,22.32a45.22,45.22,0,0,0,64,.48l22.31-22A45.18,45.18,0,0,0,198,109.55l0-.06-.06,0L175.4,86.61a45.17,45.17,0,0,0-64-.49Z"></path> </g> <circle class="cls-4" cx="173.6" cy="97.79" r="5.4"></circle> <circle class="cls-4" cx="195.6" cy="97.79" r="5.4"></circle> <circle class="cls-4" cx="105.6" cy="180.79" r="5.4"></circle> <circle class="cls-1" cx="106.6" cy="177.79" r="2.4"></circle> <circle class="cls-4" cx="130.6" cy="180.79" r="5.4"></circle> <circle class="cls-1" cx="131.6" cy="177.79" r="2.4"></circle> <circle class="cls-4" cx="217.6" cy="97.79" r="5.4"></circle> </svg> 