<?xml version="1.0" encoding="iso-8859-1"?>
<!-- Generator: Adobe Illustrator 21.1.0, SVG Export Plug-In . SVG Version: 6.00 Build 0)  -->
<svg version="1.1" id="Layer_1" xmlns="http://www.w3.org/2000/svg" xmlns:xlink="http://www.w3.org/1999/xlink" x="0px" y="0px"
	 viewBox="0 0 100.353 100.353" style="enable-background:new 0 0 100.353 100.353;" xml:space="preserve">
<g>
	<path d="M53.378,5.489c-18.718,0-33.946,15.229-33.946,33.949c0,1.265,0.069,2.532,0.206,3.777
		c-2.465,2.71-9.632,11.272-5.893,15.386c0.752,0.829,3.997,2.982,6.347,3.868l-0.016,4.191c0,8.871,6.101,18.3,17.358,18.299
		l6.256,0.207v7.844c0,0.828,0.671,1.5,1.5,1.5s1.5-0.672,1.5-1.5v-9.295c0-0.81-0.642-1.473-1.45-1.499l-7.756-0.256
		c-9.459,0-14.408-7.697-14.408-15.294l0.02-5.251c0-0.1-0.009-0.2-0.029-0.301c-0.129-0.645-0.658-1.117-1.287-1.194
		c-0.907-0.314-4.636-2.037-5.814-3.336c-0.99-1.089,0.661-5.807,6.336-11.832c0.309-0.328,0.454-0.777,0.396-1.224
		c-0.176-1.34-0.265-2.716-0.265-4.091c0-17.065,13.882-30.949,30.946-30.949c17.067,0,30.953,13.884,30.953,30.949
		c0,8.861-3.812,17.311-10.458,23.182c-0.322,0.284-0.507,0.693-0.507,1.123l-0.021,29.093c-0.001,0.828,0.671,1.5,1.499,1.501
		h0.001c0.828,0,1.499-0.671,1.5-1.499l0.021-28.426c6.977-6.418,10.965-15.48,10.965-24.974C87.331,20.718,72.1,5.489,53.378,5.489
		z"/>
	<path d="M53.473,20.24c-11.011,0-19.97,8.951-19.97,19.953c0,0.829,0.671,1.5,1.5,1.5s1.5-0.671,1.5-1.5
		c0-9.348,7.613-16.953,16.97-16.953c9.354,0,16.963,7.605,16.963,16.953c0,5.126-2.17,9.927-5.805,12.843
		c-2.151,1.727-5.772,3.547-10.799,2.431c-7.729-1.721-8.329-9.502-8.329-11.847c0-4.872,3.836-8.843,8.577-8.911
		c0.078,0.013,0.158,0.019,0.238,0.019c2.668,0,4.838,2.17,4.838,4.837c0,2.672-2.17,4.845-4.838,4.845c-0.828,0-1.5,0.671-1.5,1.5
		s0.672,1.5,1.5,1.5c4.322,0,7.838-3.52,7.838-7.845c0-4.275-3.442-7.762-7.701-7.836c-0.083-0.014-0.167-0.021-0.251-0.021
		c-6.452,0-11.701,5.344-11.701,11.912c0,5.994,2.805,13.022,10.678,14.774c1.223,0.272,2.438,0.406,3.635,0.406
		c3.529,0,6.881-1.169,9.692-3.424c4.338-3.48,6.928-9.156,6.928-15.184C73.436,29.191,64.48,20.24,53.473,20.24z"/>
</g>
</svg>
