<?xml version="1.0" encoding="UTF-8"?> <svg xmlns="http://www.w3.org/2000/svg" viewBox="0 0 84.6 210.59"> <defs> <style>.cls-1,.cls-2{fill:none;stroke-miterlimit:10;stroke-width:0.5px;}.cls-1{stroke:#fff;}.cls-2{stroke:#6c6;}</style> </defs> <g id="Layer_2" data-name="Layer 2"> <g id="Layer_1-2" data-name="Layer 1"> <path class="cls-1" d="M59.53,16.55a5.29,5.29,0,0,1,7.46,0"></path> <path class="cls-1" d="M55.8,12.83a10.55,10.55,0,0,1,14.92,0"></path> <path class="cls-1" d="M52.08,9.1a15.8,15.8,0,0,1,22.36,0"></path> <path class="cls-1" d="M52.72,149.7A5.27,5.27,0,0,1,58,155"></path> <path class="cls-1" d="M52.72,144.43A10.54,10.54,0,0,1,63.26,155"></path> <path class="cls-1" d="M52.72,139.16A15.81,15.81,0,0,1,68.53,155"></path> <path class="cls-1" d="M52.72,133.89A21.08,21.08,0,0,1,73.8,155"></path> <path class="cls-1" d="M52.72,128.62A26.35,26.35,0,0,1,79.07,155"></path> <path class="cls-1" d="M52.72,123.34A31.63,31.63,0,0,1,84.35,155"></path> <line class="cls-2" x1="63.26" y1="36.1" x2="63.26" y2="210.59"></line> <line class="cls-2" x1="57.99" y1="36.1" x2="57.99" y2="210.59"></line> <line class="cls-2" x1="52.72" y1="36.1" x2="52.72" y2="190.7"></line> <line class="cls-2" x1="47.44" y1="36.1" x2="47.44" y2="171.42"></line> <line class="cls-2" x1="42.17" y1="36.1" x2="42.17" y2="156.56"></line> <line class="cls-2" x1="36.9" y1="36.1" x2="36.9" y2="134.68"></line> <line class="cls-1" x1="63.26" y1="22.92" x2="63.26" y2="31.88"></line> <line class="cls-1" x1="57.99" y1="22.92" x2="57.99" y2="31.88"></line> <line class="cls-1" x1="52.72" y1="22.92" x2="52.72" y2="31.88"></line> <line class="cls-1" x1="47.44" y1="22.92" x2="47.44" y2="31.88"></line> <line class="cls-1" x1="42.17" y1="22.92" x2="42.17" y2="31.88"></line> <line class="cls-1" x1="36.9" y1="22.92" x2="36.9" y2="31.88"></line> <line class="cls-1" x1="31.1" y1="3.94" x2="31.1" y2="201.68"></line> <line class="cls-1" x1="25.83" y1="3.94" x2="25.83" y2="201.68"></line> <line class="cls-1" x1="20.56" y1="3.94" x2="20.56" y2="201.68"></line> <line class="cls-1" x1="15.29" y1="3.94" x2="15.29" y2="201.68"></line> <line class="cls-1" x1="10.02" y1="3.94" x2="10.02" y2="134.68"></line> <line class="cls-1" x1="4.74" y1="3.94" x2="4.74" y2="134.68"></line> <line class="cls-1" y1="0.25" x2="36.9" y2="0.25"></line> </g> </g> </svg> 