<?xml version="1.0" encoding="UTF-8"?> <svg xmlns="http://www.w3.org/2000/svg" width="482" height="252" viewBox="0 0 482 252" fill="none"> <g id="Group 28"> <g id="pro-7"> <rect id="Rectangle Copy 16" width="482" height="252" rx="8" transform="matrix(-1 0 0 1 482 0)" fill="url(#paint0_linear)"></rect> <mask id="mask0" maskUnits="userSpaceOnUse" x="0" y="0" width="482" height="252"> <rect id="Rectangle Copy 16_2" width="482" height="252" rx="8" transform="matrix(-1 0 0 1 482 0)" fill="white"></rect> </mask> <g mask="url(#mask0)"> <path id="Stroke 21 Copy 18" d="M388.503 114L327.997 167.281" stroke="#56A4FF" stroke-opacity="0.4" stroke-width="6"></path> <path id="Stroke 21 Copy 15" d="M383.586 236.226L168 427.059" stroke="#56A4FF" stroke-width="9"></path> <path id="Stroke 1 Copy 6" d="M331.254 95.9998C332.081 116.534 342.781 135.62 358.564 148.212C368.969 156.513 381.584 161.992 395.036 163.2" stroke="#222437" stroke-width="6"></path> <path id="Stroke 1 Copy 7" d="M448.496 -231C410.43 -187.658 395.236 -128.146 402.947 -71.9983C408.031 -34.98 423.07 0.575656 448.075 29.0703" stroke="#56A4FF" stroke-width="6"></path> <path id="Stroke 21 Copy 6" d="M29.9391 126L-11.0098 162.06" stroke="#6C7BDF" stroke-width="6"></path> <path id="Stroke 21 Copy 16" d="M94.6333 54L-5.20466 141.918" stroke="#56A4FF" stroke-width="6"></path> <path id="Stroke 21 Copy 17" d="M381.503 106L320.997 159.281" stroke="#6C7BDF" stroke-width="6"></path> <path id="Stroke 21 Copy 7" d="M450.925 199.006L171 452.409" stroke="white" stroke-width="10"></path> <path id="Stroke 21 Copy 6_2" d="M63.8122 117.741L-51 221.675" stroke="white" stroke-width="14"></path> </g> </g> <path id="Title" d="M41.736 191.8H32.34V217H37.308V208.72H41.736C46.596 208.72 50.34 204.976 50.34 200.26C50.34 195.544 46.596 191.8 41.736 191.8ZM41.736 204.076H37.308V196.444H41.736C43.86 196.444 45.408 198.064 45.408 200.26C45.408 202.42 43.86 204.076 41.736 204.076ZM65.8431 199V201.124C64.5471 199.504 62.6031 198.496 59.9751 198.496C55.1871 198.496 51.2271 202.636 51.2271 208C51.2271 213.364 55.1871 217.504 59.9751 217.504C62.6031 217.504 64.5471 216.496 65.8431 214.876V217H70.4871V199H65.8431ZM60.8391 213.076C57.9951 213.076 55.8711 211.024 55.8711 208C55.8711 204.976 57.9951 202.924 60.8391 202.924C63.7191 202.924 65.8431 204.976 65.8431 208C65.8431 211.024 63.7191 213.076 60.8391 213.076ZM77.0022 196.84C78.5862 196.84 79.8822 195.544 79.8822 193.996C79.8822 192.448 78.5862 191.116 77.0022 191.116C75.4542 191.116 74.1582 192.448 74.1582 193.996C74.1582 195.544 75.4542 196.84 77.0022 196.84ZM74.6982 217H79.3422V199H74.6982V217ZM97.2368 191.8V201.124C95.9408 199.468 94.0328 198.496 91.4048 198.496C86.5808 198.496 82.6208 202.636 82.6208 208C82.6208 213.364 86.5808 217.504 91.4048 217.504C94.0328 217.504 95.9408 216.532 97.2368 214.876V217H101.881V191.8H97.2368ZM92.2688 213.076C89.3888 213.076 87.2648 211.024 87.2648 208C87.2648 204.976 89.3888 202.924 92.2688 202.924C95.1128 202.924 97.2368 204.976 97.2368 208C97.2368 211.024 95.1128 213.076 92.2688 213.076Z" fill="#040823"></path> </g> <defs> <linearGradient id="paint0_linear" x1="572.698" y1="244.38" x2="488.937" y2="-48.9031" gradientUnits="userSpaceOnUse"> <stop stop-color="#C0E1FF"></stop> <stop offset="1" stop-color="white"></stop> </linearGradient> </defs> </svg> 