<?xml version="1.0" encoding="UTF-8"?> <svg xmlns="http://www.w3.org/2000/svg" width="482" height="252" viewBox="0 0 482 252" fill="none"> <g id="Group 7"> <g id="Popup Copy 18"> <g id="pro-7"> <rect id="Rectangle Copy 16" width="482" height="252" rx="8" transform="matrix(-1 0 0 1 482 0)" fill="url(#paint0_linear)"></rect> <mask id="mask0" maskUnits="userSpaceOnUse" x="0" y="0" width="482" height="252"> <rect id="Rectangle Copy 16_2" width="482" height="252" rx="8" transform="matrix(-1 0 0 1 482 0)" fill="white"></rect> </mask> <g mask="url(#mask0)"> <path id="Stroke 21 Copy 6" d="M55 56L-29 186.108" stroke="white" stroke-width="10"></path> <path id="Stroke 21 Copy 25" d="M368 -102L284 28.1081" stroke="#FFCE6E" stroke-width="2"></path> <path id="Stroke 21 Copy 8" d="M461 52V218.162" stroke="#FFCE6E" stroke-width="20"></path> <path id="Stroke 21 Copy 14" d="M441 -108V51.8919" stroke="white" stroke-width="20"></path> <path id="Stroke 21 Copy 7" d="M425 110V274.483" stroke="white" stroke-width="5" stroke-linecap="round"></path> <path id="Stroke 21 Copy 15" d="M418 155.216V178.73" stroke="#FFCE6E" stroke-width="20" stroke-linecap="round"></path> <path id="Stroke 21 Copy 8_2" d="M221.803 205L132 382.443" stroke="#222437" stroke-width="41"></path> <path id="Stroke 21 Copy 14_2" fill-rule="evenodd" clip-rule="evenodd" d="M327.982 96.9691C327.982 96.9691 298.977 154.216 240.968 268.709L327.982 96.9691Z" stroke="#66CC66" stroke-width="25"></path> <path id="Stroke 21 Copy 16" d="M370.007 61.9681C370.007 61.9681 341.002 119.215 282.993 233.708" stroke="#F6F6F6" stroke-width="18"></path> <path id="Stroke 21 Copy 13" d="M425 84V148.27" stroke="#222437" stroke-width="33" stroke-linecap="round"></path> </g> </g> <path id="Title" d="M41.736 191.8H32.34V217H37.308V208.72H41.736C46.596 208.72 50.34 204.976 50.34 200.26C50.34 195.544 46.596 191.8 41.736 191.8ZM41.736 204.076H37.308V196.444H41.736C43.86 196.444 45.408 198.064 45.408 200.26C45.408 202.42 43.86 204.076 41.736 204.076ZM57.6157 202.096V199H52.9717V217H57.6157V208.396C57.6157 204.616 60.6757 203.536 63.0877 203.824V198.64C60.8197 198.64 58.5517 199.648 57.6157 202.096ZM73.7037 217.504C78.9957 217.504 83.2437 213.364 83.2437 208C83.2437 202.636 78.9957 198.496 73.7037 198.496C68.4117 198.496 64.1997 202.636 64.1997 208C64.1997 213.364 68.4117 217.504 73.7037 217.504ZM73.7037 212.968C70.9677 212.968 68.8437 210.916 68.8437 208C68.8437 205.084 70.9677 203.032 73.7037 203.032C76.4757 203.032 78.5997 205.084 78.5997 208C78.5997 210.916 76.4757 212.968 73.7037 212.968Z" fill="white"></path> <path id="Title Copy" d="M38.334 27.4V32.404H33.654V27.4H31.17V40H33.654V34.78H38.334V40H40.8V27.4H38.334ZM49.8727 31V32.062C49.2247 31.252 48.2527 30.748 46.9387 30.748C44.5447 30.748 42.5647 32.818 42.5647 35.5C42.5647 38.182 44.5447 40.252 46.9387 40.252C48.2527 40.252 49.2247 39.748 49.8727 38.938V40H52.1947V31H49.8727ZM47.3707 38.038C45.9487 38.038 44.8867 37.012 44.8867 35.5C44.8867 33.988 45.9487 32.962 47.3707 32.962C48.8107 32.962 49.8727 33.988 49.8727 35.5C49.8727 37.012 48.8107 38.038 47.3707 38.038ZM59.6103 31V34.96C59.1243 35.176 58.5663 35.302 57.8643 35.302C56.9103 35.302 56.1903 34.978 56.1903 33.952V31H53.8683V34.222C53.8683 36.418 55.3803 37.462 57.4683 37.462C58.2423 37.462 58.9443 37.354 59.6103 37.138V40H61.9323V31H59.6103ZM69.9426 31V34.402H66.3606V31H64.0386V40H66.3606V36.58H69.9426V40H72.2646V31H69.9426ZM80.8901 31L76.6601 36.112V31H74.3921V40H76.1201L80.3501 34.888V40H82.6181V31H80.8901ZM91.8376 31H83.8636V33.232H86.7076V40H89.0296V33.232H91.8376V31ZM94.6881 36.454H101.474C101.528 36.148 101.564 35.842 101.564 35.5C101.564 32.854 99.6741 30.748 97.0101 30.748C94.1841 30.748 92.2581 32.818 92.2581 35.5C92.2581 38.182 94.1661 40.252 97.1901 40.252C98.9181 40.252 100.268 39.55 101.114 38.326L99.2421 37.246C98.8461 37.768 98.1261 38.146 97.2261 38.146C96.0021 38.146 95.0121 37.642 94.6881 36.454ZM94.6521 34.654C94.9221 33.502 95.7681 32.836 97.0101 32.836C97.9821 32.836 98.9541 33.358 99.2421 34.654H94.6521ZM112.959 35.41C113.625 34.96 113.949 34.258 113.949 33.43C113.949 32.008 112.725 30.748 110.583 30.748C108.999 30.748 107.757 31.45 107.073 32.818L108.945 33.898C109.287 33.124 109.845 32.764 110.619 32.764C111.303 32.764 111.735 33.106 111.735 33.628C111.735 34.15 111.375 34.456 110.691 34.456H109.719V36.436H110.997C111.699 36.436 112.059 36.76 112.059 37.264C112.059 37.84 111.573 38.2 110.709 38.2C109.719 38.2 109.125 37.732 108.855 36.976L106.965 38.092C107.595 39.478 108.819 40.252 110.691 40.252C113.085 40.252 114.327 39.01 114.327 37.552C114.327 36.616 113.841 35.842 112.959 35.41ZM122.629 31V32.062C121.981 31.252 121.009 30.748 119.695 30.748C117.301 30.748 115.321 32.818 115.321 35.5C115.321 38.182 117.301 40.252 119.695 40.252C121.009 40.252 121.981 39.748 122.629 38.938V40H124.951V31H122.629ZM120.127 38.038C118.705 38.038 117.643 37.012 117.643 35.5C117.643 33.988 118.705 32.962 120.127 32.962C121.567 32.962 122.629 33.988 122.629 35.5C122.629 37.012 121.567 38.038 120.127 38.038ZM132.294 30.748C130.98 30.748 130.026 31.234 129.378 32.062V31H127.056V43.6H129.378V38.938C130.026 39.766 130.98 40.252 132.294 40.252C134.706 40.252 136.686 38.182 136.686 35.5C136.686 32.818 134.706 30.748 132.294 30.748ZM131.862 38.038C130.44 38.038 129.378 37.012 129.378 35.5C129.378 33.988 130.44 32.962 131.862 32.962C133.302 32.962 134.364 33.988 134.364 35.5C134.364 37.012 133.302 38.038 131.862 38.038ZM145.164 31V32.062C144.516 31.252 143.544 30.748 142.23 30.748C139.836 30.748 137.856 32.818 137.856 35.5C137.856 38.182 139.836 40.252 142.23 40.252C143.544 40.252 144.516 39.748 145.164 38.938V40H147.486V31H145.164ZM142.662 38.038C141.24 38.038 140.178 37.012 140.178 35.5C140.178 33.988 141.24 32.962 142.662 32.962C144.102 32.962 145.164 33.988 145.164 35.5C145.164 37.012 144.102 38.038 142.662 38.038ZM153.857 40.252C156.611 40.252 158.393 38.452 158.393 36.022C158.393 33.502 156.413 32.044 154.559 32.044C153.605 32.044 152.579 32.332 151.859 33.07C152.147 32.278 152.669 31.72 154.289 31.09C156.161 30.37 157.457 29.74 157.799 28.156L155.891 27.058C155.441 28.408 154.469 28.642 152.561 29.578C149.663 31 149.123 32.512 149.123 35.41C149.123 38.182 150.977 40.252 153.857 40.252ZM153.839 38.128C152.561 38.128 151.553 37.228 151.553 35.95C151.553 34.636 152.723 33.898 153.821 33.898C155.153 33.898 156.071 34.798 156.071 36.022C156.071 37.228 155.153 38.128 153.839 38.128ZM166.644 31V32.062C165.996 31.252 165.024 30.748 163.71 30.748C161.316 30.748 159.336 32.818 159.336 35.5C159.336 38.182 161.316 40.252 163.71 40.252C165.024 40.252 165.996 39.748 166.644 38.938V40H168.966V31H166.644ZM164.142 38.038C162.72 38.038 161.658 37.012 161.658 35.5C161.658 33.988 162.72 32.962 164.142 32.962C165.582 32.962 166.644 33.988 166.644 35.5C166.644 37.012 165.582 38.038 164.142 38.038ZM178.164 31H170.19V33.232H173.034V40H175.356V33.232H178.164V31ZM183.472 33.88H181.726V31H179.404V40H183.472C185.524 40 186.874 38.776 186.874 36.94C186.874 35.104 185.524 33.88 183.472 33.88ZM187.864 31V40H190.186V31H187.864ZM183.49 37.948H181.726V35.914H183.49C184.138 35.914 184.606 36.328 184.606 36.94C184.606 37.552 184.138 37.948 183.49 37.948ZM198.786 35.392C199.362 34.96 199.668 34.33 199.668 33.538C199.668 32.062 198.624 31 196.68 31H192.306V40H197.04C199.02 40 200.046 38.902 200.046 37.444C200.046 36.508 199.596 35.788 198.786 35.392ZM196.464 32.908C197.094 32.908 197.454 33.178 197.454 33.718C197.454 34.276 197.094 34.528 196.464 34.528H194.484V32.908H196.464ZM196.77 38.038H194.484V36.364H196.77C197.382 36.364 197.778 36.652 197.778 37.174C197.778 37.732 197.4 38.038 196.77 38.038ZM208.34 31V32.062C207.692 31.252 206.72 30.748 205.406 30.748C203.012 30.748 201.031 32.818 201.031 35.5C201.031 38.182 203.012 40.252 205.406 40.252C206.72 40.252 207.692 39.748 208.34 38.938V40H210.662V31H208.34ZM205.838 38.038C204.416 38.038 203.354 37.012 203.354 35.5C203.354 33.988 204.416 32.962 205.838 32.962C207.278 32.962 208.34 33.988 208.34 35.5C208.34 37.012 207.278 38.038 205.838 38.038ZM219.859 31H211.885V33.232H214.729V40H217.051V33.232H219.859V31ZM225.167 33.88H223.421V31H221.099V40H225.167C227.219 40 228.569 38.776 228.569 36.94C228.569 35.104 227.219 33.88 225.167 33.88ZM225.185 37.948H223.421V35.914H225.185C225.833 35.914 226.301 36.328 226.301 36.94C226.301 37.552 225.833 37.948 225.185 37.948ZM35.346 62.252C37.11 62.252 38.64 61.316 39.414 59.912L37.398 58.76C37.038 59.498 36.264 59.948 35.328 59.948C33.942 59.948 32.916 58.922 32.916 57.5C32.916 56.06 33.942 55.034 35.328 55.034C36.246 55.034 37.02 55.502 37.38 56.24L39.378 55.07C38.64 53.684 37.11 52.748 35.346 52.748C32.61 52.748 30.594 54.818 30.594 57.5C30.594 60.182 32.61 62.252 35.346 62.252ZM53.4384 53H45.2124V62H47.5344V55.178H51.1164V62H53.4384V53ZM57.5279 58.454H64.3139C64.3679 58.148 64.4039 57.842 64.4039 57.5C64.4039 54.854 62.5139 52.748 59.8499 52.748C57.0239 52.748 55.0979 54.818 55.0979 57.5C55.0979 60.182 57.0059 62.252 60.0299 62.252C61.7579 62.252 63.1079 61.55 63.9539 60.326L62.0819 59.246C61.6859 59.768 60.9659 60.146 60.0659 60.146C58.8419 60.146 57.8519 59.642 57.5279 58.454ZM57.4919 56.654C57.7619 55.502 58.6079 54.836 59.8499 54.836C60.8219 54.836 61.7939 55.358 62.0819 56.654H57.4919ZM71.2629 52.748C69.9489 52.748 68.9949 53.234 68.3469 54.062V53H66.0249V65.6H68.3469V60.938C68.9949 61.766 69.9489 62.252 71.2629 62.252C73.6749 62.252 75.6549 60.182 75.6549 57.5C75.6549 54.818 73.6749 52.748 71.2629 52.748ZM70.8309 60.038C69.4089 60.038 68.3469 59.012 68.3469 57.5C68.3469 55.988 69.4089 54.962 70.8309 54.962C72.2709 54.962 73.3329 55.988 73.3329 57.5C73.3329 59.012 72.2709 60.038 70.8309 60.038ZM83.7725 57.392C84.3485 56.96 84.6545 56.33 84.6545 55.538C84.6545 54.062 83.6105 53 81.6665 53H77.2925V62H82.0265C84.0065 62 85.0325 60.902 85.0325 59.444C85.0325 58.508 84.5825 57.788 83.7725 57.392ZM81.4505 54.908C82.0805 54.908 82.4405 55.178 82.4405 55.718C82.4405 56.276 82.0805 56.528 81.4505 56.528H79.4705V54.908H81.4505ZM81.7565 60.038H79.4705V58.364H81.7565C82.3685 58.364 82.7645 58.652 82.7645 59.174C82.7645 59.732 82.3865 60.038 81.7565 60.038ZM90.7698 62.252C93.4158 62.252 95.5398 60.182 95.5398 57.5C95.5398 54.818 93.4158 52.748 90.7698 52.748C88.1238 52.748 86.0178 54.818 86.0178 57.5C86.0178 60.182 88.1238 62.252 90.7698 62.252ZM90.7698 59.984C89.4018 59.984 88.3398 58.958 88.3398 57.5C88.3398 56.042 89.4018 55.016 90.7698 55.016C92.1558 55.016 93.2178 56.042 93.2178 57.5C93.2178 58.958 92.1558 59.984 90.7698 59.984ZM103.329 53H97.1733V62H99.4953V55.232H103.329V53ZM108.506 62.252C111.152 62.252 113.276 60.182 113.276 57.5C113.276 54.818 111.152 52.748 108.506 52.748C105.86 52.748 103.754 54.818 103.754 57.5C103.754 60.182 105.86 62.252 108.506 62.252ZM108.506 59.984C107.138 59.984 106.076 58.958 106.076 57.5C106.076 56.042 107.138 55.016 108.506 55.016C109.892 55.016 110.954 56.042 110.954 57.5C110.954 58.958 109.892 59.984 108.506 59.984ZM127.708 62L123.982 57.446L127.6 53H124.828L121.732 56.96V53H119.41V62H121.732V57.914L125.008 62H127.708ZM134.647 53L132.649 59.048L130.237 53H127.771L131.407 61.892C130.975 63.026 130.327 63.458 129.103 63.44V65.6C131.263 65.726 132.919 64.592 133.855 62L137.131 53H134.647ZM143.474 52.748C142.16 52.748 141.206 53.234 140.558 54.062V53H138.236V65.6H140.558V60.938C141.206 61.766 142.16 62.252 143.474 62.252C145.886 62.252 147.866 60.182 147.866 57.5C147.866 54.818 145.886 52.748 143.474 52.748ZM143.042 60.038C141.62 60.038 140.558 59.012 140.558 57.5C140.558 55.988 141.62 54.962 143.042 54.962C144.482 54.962 145.544 55.988 145.544 57.5C145.544 59.012 144.482 60.038 143.042 60.038ZM153.787 62.252C155.551 62.252 157.081 61.316 157.855 59.912L155.839 58.76C155.479 59.498 154.705 59.948 153.769 59.948C152.383 59.948 151.357 58.922 151.357 57.5C151.357 56.06 152.383 55.034 153.769 55.034C154.687 55.034 155.461 55.502 155.821 56.24L157.819 55.07C157.081 53.684 155.551 52.748 153.787 52.748C151.051 52.748 149.035 54.818 149.035 57.5C149.035 60.182 151.051 62.252 153.787 62.252ZM165.783 53V54.062C165.135 53.252 164.163 52.748 162.849 52.748C160.455 52.748 158.475 54.818 158.475 57.5C158.475 60.182 160.455 62.252 162.849 62.252C164.163 62.252 165.135 61.748 165.783 60.938V62H168.105V53H165.783ZM163.281 60.038C161.859 60.038 160.797 59.012 160.797 57.5C160.797 55.988 161.859 54.962 163.281 54.962C164.721 54.962 165.783 55.988 165.783 57.5C165.783 59.012 164.721 60.038 163.281 60.038Z" fill="#222437"></path> </g> <g id="pro-3 copy"> <rect id="Rectangle Copy 16_3" x="31" y="157" width="50" height="16" rx="1" fill="url(#paint1_linear)"></rect> <mask id="mask1" maskUnits="userSpaceOnUse" x="31" y="157" width="50" height="16"> <rect id="Rectangle Copy 16_4" x="31" y="157" width="50" height="16" rx="1" fill="white"></rect> </mask> <g mask="url(#mask1)"> <path id="Stroke 21 Copy 8_3" d="M56 148L36 168" stroke="#66CC66" stroke-width="6"></path> <path id="Stroke 21 Copy 6_2" d="M37 159L19 177" stroke="#FFCE6E" stroke-width="3"></path> <path id="Stroke 21 Copy 7_2" d="M51 163L33 181" stroke="#6C7BDF" stroke-width="2" stroke-linecap="round"></path> <path id="Stroke 21 Copy 26" d="M43 166L25 184" stroke="white" stroke-width="2" stroke-linecap="round"></path> <path id="PRO Copy 2" d="M58.25 161H55.6V168H57.2V165.8H58.25C59.63 165.8 60.7 164.73 60.7 163.4C60.7 162.07 59.63 161 58.25 161ZM58.25 164.3H57.2V162.5H58.25C58.74 162.5 59.1 162.89 59.1 163.4C59.1 163.91 58.74 164.3 58.25 164.3ZM65.5118 168H67.2318L65.7418 165.43C66.5118 165.04 67.0318 164.26 67.0318 163.4C67.0318 162.07 65.9618 161 64.6318 161H61.8318V168H63.4318V165.7H64.1918L65.5118 168ZM63.4318 162.5H64.6318C65.0718 162.5 65.4318 162.89 65.4318 163.4C65.4318 163.91 65.0718 164.3 64.6318 164.3H63.4318V162.5ZM71.5598 168.14C73.5698 168.14 75.1998 166.56 75.1998 164.5C75.1998 162.44 73.5698 160.86 71.5598 160.86C69.5498 160.86 67.9198 162.44 67.9198 164.5C67.9198 166.56 69.5498 168.14 71.5598 168.14ZM71.5598 166.58C70.4198 166.58 69.5198 165.75 69.5198 164.5C69.5198 163.25 70.4198 162.42 71.5598 162.42C72.6998 162.42 73.5998 163.25 73.5998 164.5C73.5998 165.75 72.6998 166.58 71.5598 166.58Z" fill="white"></path> </g> </g> </g> <defs> <linearGradient id="paint0_linear" x1="-127.033" y1="-25.9102" x2="-98.3585" y2="369.644" gradientUnits="userSpaceOnUse"> <stop stop-color="#F3F4F6"></stop> <stop offset="0.549394" stop-color="#A597FE"></stop> <stop offset="0.794532" stop-color="#826DFE"></stop> <stop offset="1" stop-color="#4F7CFF"></stop> </linearGradient> <linearGradient id="paint1_linear" x1="114.313" y1="186.13" x2="118.776" y2="147.097" gradientUnits="userSpaceOnUse"> <stop stop-color="#2A264D"></stop> <stop offset="1" stop-color="#5F5ACE"></stop> </linearGradient> </defs> </svg> 