<?xml version="1.0" encoding="UTF-8"?> <svg xmlns="http://www.w3.org/2000/svg" width="268" height="194" viewBox="0 0 268 194" fill="none"> <path fill-rule="evenodd" clip-rule="evenodd" d="M131 59L131 72L124 72L124 59L131 59Z" fill="#282B41"></path> <path d="M144.299 0.000379797L129.2 0.000379797L85.9428 0.000376679L73.6518 0C33.0206 0 0 32.2798 0 71.9996L86.0656 72L129.2 72H145.158C165.78 72 182.597 55.3201 181.984 35.0402C181.37 15.3603 164.43 0.000379797 144.299 0.000379797Z" fill="#E9EBFA"></path> <path fill-rule="evenodd" clip-rule="evenodd" d="M180.28 30C180.28 22.1134 173.887 15.72 166 15.72L166 15C174.284 15 181 21.7157 181 30L180.28 30Z" fill="#282B41"></path> <path fill-rule="evenodd" clip-rule="evenodd" d="M181 151C181 174.196 161.972 193 138.5 193C115.028 193 96 174.196 96 151C96 127.804 115.028 109 138.5 109C161.972 109 181 127.804 181 151Z" stroke="#6C7BDF"></path> <path fill-rule="evenodd" clip-rule="evenodd" d="M267 134C267 157.196 247.972 176 224.5 176C201.028 176 182 157.196 182 134C182 110.804 201.028 92 224.5 92C247.972 92 267 110.804 267 134Z" stroke="#282B41" stroke-width="0.4"></path> <path d="M192.268 113.206C191.314 113.757 190.092 113.427 189.541 112.473L179.618 95.2853C179.292 94.7218 179.451 93.9796 180.023 93.6252C180.609 93.2633 181.374 93.4657 181.714 94.0541L192.645 112.988L192.268 113.206Z" stroke="#282B41" stroke-width="0.4"></path> <path d="M171.649 99L173.511 99L175.854 99L184.917 99C189.928 99 194 94.965 194 90L175.839 90L173.511 90L171.543 90C169 90 166.926 92.085 167.002 94.62C167.078 97.08 169.167 99 171.649 99Z" fill="#D9EFCF" stroke="#282B41" stroke-width="0.4"></path> <path d="M196.086 68L197.897 68L198 77L196.086 77L185.662 77L168 77C168 72.035 171.96 68 176.834 68L185.648 68L196.086 68Z" fill="#6C7BDF"></path> <path d="M170 20C163.925 20 159 24.701 159 30.5C159 36.299 163.925 41 170 41L170 20Z" fill="#66CC66"></path> <path fill-rule="evenodd" clip-rule="evenodd" d="M164.5 27.2139C165.386 27.2139 166.059 26.6507 166.059 26L167 26C167 27.1243 165.856 28 164.5 28C163.144 28 162 27.1243 162 26L162.941 26C162.941 26.6507 163.614 27.2139 164.5 27.2139Z" fill="#282B41"></path> <path d="M145.056 88.5805L145.978 90.1768L165.851 124.599L170.337 132.368C172.817 136.664 171.348 142.167 167.06 144.642L158.072 129.073L138.206 94.664L137.232 92.9769C135.973 90.7966 136.747 87.9792 138.973 86.7802C141.135 85.6185 143.827 86.4522 145.056 88.5805Z" fill="#66CC66"></path> <path d="M176.548 59.5372L177.852 60.8405L185.364 68.3532L191.708 74.697C195.216 78.2043 200.911 78.2096 204.412 74.7088L191.7 61.9968L184.198 54.4946L182.82 53.1171C181.04 51.337 178.118 51.3554 176.384 53.1958C174.702 54.9833 174.811 57.7994 176.548 59.5372Z" fill="#282B41"></path> <path d="M167.307 23H166.229L163.139 23L162.261 23C159.359 23 157 20.7583 157 18L163.148 18L166.229 18H167.368C168.841 18 170.043 19.1583 169.999 20.5667C169.955 21.9333 168.745 23 167.307 23Z" fill="#6C7BDF"></path> <path fill-rule="evenodd" clip-rule="evenodd" d="M164 29L164 28L165 28L165 29L164 29Z" fill="#282B41"></path> <path fill-rule="evenodd" clip-rule="evenodd" d="M166.789 28.4194L165.804 27.4337L166.479 26.7588L167.464 27.7445L166.789 28.4194Z" fill="#282B41"></path> <path fill-rule="evenodd" clip-rule="evenodd" d="M161.808 27.8619L162.793 26.8761L163.468 27.551L162.483 28.5368L161.808 27.8619Z" fill="#282B41"></path> <path d="M148.086 68L149.897 68L150 77L148.086 77L137.662 77L120 77C120 72.035 123.96 68 128.834 68L137.648 68L148.086 68Z" fill="#6C7BDF"></path> <path d="M171.297 59.5232L169.998 60.8218L162.513 68.3069L156.193 74.6273C152.698 78.1218 147.041 78.1438 143.573 74.6765L156.239 62.0111L163.713 54.5366L165.086 53.1642C166.859 51.3905 169.762 51.4002 171.479 53.2234C173.144 54.9941 173.028 57.7918 171.297 59.5232Z" fill="#66CC66"></path> <path fill-rule="evenodd" clip-rule="evenodd" d="M181 28C183.209 28 185 29.7411 185 31.8889L185 32.1111C185 34.2589 183.209 36 181 36C178.791 36 177 34.2589 177 32.1111L177 31.8889C177 29.7411 178.791 28 181 28Z" fill="#282B41"></path> <path fill-rule="evenodd" clip-rule="evenodd" d="M180 27C182.209 27 184 28.7411 184 30.8889L184 31.1111C184 33.2589 182.209 35 180 35C177.791 35 176 33.2589 176 31.1111L176 30.8889C176 28.7411 177.791 27 180 27Z" fill="#66CC66"></path> <path fill-rule="evenodd" clip-rule="evenodd" d="M139 71.7641C161.513 71.7641 179.764 53.5134 179.764 31L180 31C180 53.6437 161.644 72 139 72L139 71.7641Z" fill="#282B41"></path> <path d="M119 89.5C119 89.7761 118.776 90 118.5 90C118.224 90 118 89.7761 118 89.5C118 89.2239 118.224 89 118.5 89C118.776 89 119 89.2239 119 89.5Z" fill="#282B41"></path> <path d="M94 65.5C94 65.7761 93.7761 66 93.5 66C93.2239 66 93 65.7761 93 65.5C93 65.2239 93.2239 65 93.5 65C93.7761 65 94 65.2239 94 65.5Z" fill="#282B41"></path> <path d="M197 21C197 20.4477 197.448 20 198 20C198.552 20 199 20.4477 199 21C199 21.5523 198.552 22 198 22C197.448 22 197 21.5523 197 21Z" fill="#282B41"></path> <path d="M149 36.5C149 36.2239 149.224 36 149.5 36C149.776 36 150 36.2239 150 36.5C150 36.7761 149.776 37 149.5 37C149.224 37 149 36.7761 149 36.5Z" fill="#282B41"></path> <path d="M173 62.5C173 62.2239 173.224 62 173.5 62C173.776 62 174 62.2239 174 62.5C174 62.7761 173.776 63 173.5 63C173.224 63 173 62.7761 173 62.5Z" fill="#282B41"></path> <path d="M177.75 110.04L179.053 111.344L207.159 139.449L213.503 145.793C217.01 149.3 217.015 154.995 213.514 158.496L200.802 145.784L172.708 117.689L171.33 116.312C169.55 114.532 169.568 111.61 171.409 109.875C173.196 108.194 176.012 108.302 177.75 110.04Z" fill="#66CC66"></path> </svg> 