<?xml version="1.0" encoding="utf-8"?>
<!-- Generator: Adobe Illustrator 16.0.0, SVG Export Plug-In . SVG Version: 6.00 Build 0)  -->
<!DOCTYPE svg PUBLIC "-//W3C//DTD SVG 1.1//EN" "http://www.w3.org/Graphics/SVG/1.1/DTD/svg11.dtd">
<svg version="1.1" id="Layer_1" xmlns="http://www.w3.org/2000/svg" xmlns:xlink="http://www.w3.org/1999/xlink" x="0px" y="0px"
	 width="400px" height="400px" viewBox="0 0 400 400" enable-background="new 0 0 400 400" xml:space="preserve">
<g>
	<path opacity="0.4" fill="#E5E5E5" d="M252.3,74.9l-35.7-35.5c-13.8-13.7-32.1-21.3-51.5-21.3c-19.4,0-37.7,7.5-51.5,21.3
		L77.9,74.9c-13.8,13.7-21.4,31.9-21.4,51.3c0,19.4,7.6,37.6,21.4,51.3l35.7,35.5c13.8,13.7,32.1,21.3,51.5,21.3
		c18.9,0,36.9-7.2,50.5-20.3l0.1-0.1l0.1-0.1l36.5-36.3c13.8-13.7,21.4-31.9,21.4-51.3C273.7,106.8,266.1,88.6,252.3,74.9"/>
	<g>
		
			<rect x="170.8" y="82.8" transform="matrix(0.707 0.7072 -0.7072 0.707 146.6957 -89.7713)" fill="#FFFFFF" width="21.8" height="98.7"/>
		
			<rect x="114" y="132" transform="matrix(0.7071 0.7071 -0.7071 0.7071 141.4191 -55.6624)" fill="#FFFFFF" width="47.8" height="21.8"/>
	</g>
</g>
<g>
	<polygon fill="#D1D3D4" points="315.4,84.8 304,73.4 160.1,201 187.8,228.7 	"/>
	<circle fill="#D1D3D4" cx="309.7" cy="79.1" r="8.1"/>
	
		<ellipse transform="matrix(0.7071 0.7071 -0.7071 0.7071 202.8815 -60.1055)" fill="#D1D3D4" cx="174" cy="214.8" rx="19.6" ry="8.1"/>
</g>
<path fill="#E6E7E8" d="M309.6,49.4c-4.1,0-7.4,3.3-7.4,7.4l0,22c0,4.1,3.3,7.4,7.4,7.4l0.9,0c4.1,0,7.4-3.3,7.4-7.4v-22
	c0-4.1-3.3-7.4-7.4-7.4H309.6z"/>
<g>
	<polygon fill="#E6E7E8" points="338.8,108.2 327.3,96.7 183.5,224.3 211.2,252 	"/>
	<circle fill="#E6E7E8" cx="333.1" cy="102.5" r="8.1"/>
	
		<ellipse transform="matrix(0.7071 0.7071 -0.7071 0.7071 226.2317 -69.7772)" fill="#E6E7E8" cx="197.3" cy="238.2" rx="19.6" ry="8.1"/>
</g>
<line opacity="0.6" fill="none" stroke="#FFFFFF" stroke-miterlimit="10" x1="187.8" y1="226.6" x2="327" y2="99.6"/>
<line opacity="0.6" fill="none" stroke="#FFFFFF" stroke-miterlimit="10" x1="209" y1="245.9" x2="335.4" y2="107.2"/>
<line fill="none" stroke="#FFFFFF" stroke-miterlimit="10" x1="203.2" y1="240.9" x2="333.3" y2="105.3"/>
<line fill="none" stroke="#FFFFFF" stroke-miterlimit="10" x1="192.5" y1="231.1" x2="328.9" y2="101.5"/>
<line opacity="0.6" fill="none" stroke="#FFFFFF" stroke-miterlimit="10" x1="197.6" y1="235.8" x2="331" y2="103.4"/>
<rect x="80.8" y="337.1" transform="matrix(0.7071 0.7071 -0.7071 0.7071 267.8515 31.5285)" fill="#7C84ED" width="30" height="3.9"/>
<rect x="60.6" y="352.6" transform="matrix(0.7071 0.7071 -0.7071 0.7071 274.2376 49.5743)" width="33.3" height="6.5"/>
<rect x="72.4" y="339.5" transform="matrix(0.707 0.7072 -0.7072 0.707 271.3628 39.9552)" width="30" height="15.9"/>
<path fill="#7C84ED" d="M103.9,332.5l-23.7-23.7c-3.2-3.2-8.5-3.2-11.8,0l-8.6,8.6c-3.3,3.3-3.2,8.5,0,11.8l23.7,23.7"/>
<path d="M113.8,330.4l-19.2-19.2c-4.7-4.7-12.4-4.7-17.2,0l-16.1,16.1c-4.8,4.8-4.7,12.4,0,17.2l19.2,19.2"/>
<path fill="#EDF9F9" d="M208.8,254.7c4.5-4.5,4.5-11.8,0-16.3l-34.8-34.8c-4.5-4.5-11.8-4.5-16.3,0l0,0c-4.5,4.5-4.5,11.8,0,16.3
	l34.8,34.8C197,259.2,204.3,259.2,208.8,254.7L208.8,254.7z"/>
<path fill="#EDF9F9" d="M151.7,311c4.5-4.5,4.5-11.8,0-16.3L117,259.9c-4.5-4.5-11.8-4.5-16.3,0l0,0c-4.5,4.5-4.5,11.8,0,16.3
	l34.8,34.8C139.9,315.5,147.2,315.5,151.7,311L151.7,311z"/>
<rect x="119.7" y="216.4" transform="matrix(0.7071 0.7071 -0.7071 0.7071 226.9951 -34.9307)" fill="#EDF9F9" width="71.9" height="80.3"/>
<ellipse transform="matrix(0.7071 0.7071 -0.7071 0.7071 240.7652 0.1438)" fill="#EFEFEF" cx="120.2" cy="290.7" rx="9.9" ry="4.5"/>
<rect x="102.6" y="287.5" transform="matrix(0.7071 0.7071 -0.7071 0.7071 243.9698 7.8818)" fill="#FFEFE1" width="19.7" height="21.9"/>
<ellipse transform="matrix(0.7071 0.7071 -0.7071 0.7071 252.6785 28.8984)" fill="#F9E5D9" cx="91.5" cy="319.5" rx="21.5" ry="11.5"/>
<path fill="#F9E5D9" d="M76.2,304.2c9.8-9.8,24.6-10.9,33-2.5s7.3,23.2-2.5,33"/>
<path fill="#F9E5D9" d="M75.6,304.8c-9.8,9.8-10.9,24.6-2.5,33l17.8-17.8L75.6,304.8z"/>
<path fill="#F9E5D9" d="M106.1,335.3c-9.8,9.8-24.6,10.9-33,2.5l17.1-18.4L106.1,335.3z"/>
<path fill="#D1D3D4" d="M108.6,294.7c0.5-0.5,0.5-1.3,0-1.7l-38.8-38.8c-0.5-0.5-1.3-0.5-1.7,0l-24.8,24.8c-0.5,0.5-0.5,1.3,0,1.7
	L82,319.5c0.5,0.5,1.3,0.5,1.7,0L108.6,294.7z"/>
<g>
	<polygon fill="#F9E5D9" points="80.6,289 80.6,297.7 149.1,303.8 149.1,282.9 	"/>
	<circle fill="#F9E5D9" cx="80.6" cy="293.4" r="4.3"/>
	<ellipse fill="#F9E5D9" cx="149.1" cy="293.4" rx="4.3" ry="10.5"/>
</g>
<g>
	<polygon fill="#FFEFE1" points="53.5,270.3 59.6,276.4 112.3,232.4 97.6,217.6 	"/>
	<circle fill="#FFEFE1" cx="56.5" cy="273.4" r="4.3"/>
	
		<ellipse transform="matrix(-0.7072 -0.7071 0.7071 -0.7072 20.0888 458.2461)" fill="#FFEFE1" cx="104.9" cy="225" rx="10.4" ry="4.3"/>
</g>
<g>
	<path fill="#7C84ED" d="M74.4,327.2l16.4,24.2l-24.2-16.4c-2.6-1.7-3.2-5.2-1.5-7.8c1.7-2.6,5.2-3.2,7.8-1.5
		C73.5,326.1,74,326.6,74.4,327.2z"/>
</g>
<path fill="#E6E7E8" d="M333.8,110.1c4.1,0,7.4-3.3,7.4-7.4v-22c0-4.1-3.3-7.4-7.4-7.4l-0.9,0c-4.1,0-7.4,3.3-7.4,7.4v22
	c0,4.1,3.3,7.4,7.4,7.4H333.8z"/>
<g opacity="0.7">
	<g>
		<path fill="#DADADA" d="M186.2,343.2c-2.9,0-5.3-2.4-5.3-5.3v-63c0-2.9,2.4-5.3,5.3-5.3h52.2c2.9,0,5.3,2.4,5.3,5.3v63
			c0,2.9-2.4,5.3-5.3,5.3H186.2z"/>
		<path fill="#DADADA" d="M238.4,271.6c1.8,0,3.3,1.5,3.3,3.3v63c0,1.8-1.5,3.3-3.3,3.3h-52.2c-1.8,0-3.3-1.5-3.3-3.3v-63
			c0-1.8,1.5-3.3,3.3-3.3H238.4 M238.4,267.6h-52.2c-4,0-7.3,3.3-7.3,7.3v63c0,4,3.3,7.3,7.3,7.3h52.2c4,0,7.3-3.3,7.3-7.3v-63
			C245.7,270.9,242.5,267.6,238.4,267.6L238.4,267.6z"/>
	</g>
	<line fill="#FFFFFF" stroke="#FFFFFF" stroke-width="4.298" stroke-miterlimit="10" x1="189.5" y1="282.5" x2="232.7" y2="282.5"/>
	<line fill="#FFFFFF" stroke="#FFFFFF" stroke-width="4.298" stroke-miterlimit="10" x1="189.5" y1="293.1" x2="204.5" y2="293.1"/>
	<line fill="#FFFFFF" stroke="#FFFFFF" stroke-width="4.298" stroke-miterlimit="10" x1="189.5" y1="303" x2="219.4" y2="303"/>
	<line fill="#FFFFFF" stroke="#FFFFFF" stroke-width="4.298" stroke-miterlimit="10" x1="189.5" y1="312.8" x2="207.8" y2="312.8"/>
</g>
<path fill="#E6E7E8" d="M370.4,231.8v71.7c0,2.6-2.1,4.7-4.7,4.7H262.4c-2.6,0-4.7-2.1-4.7-4.7v-71.7"/>
<path opacity="0.6" fill="#E6E7E8" d="M257.7,229.2v-6.5c0-2.6,2.1-4.7,4.7-4.7h103.3c2.6,0,4.7,2.1,4.7,4.7v6.5"/>
<polyline fill="none" stroke="#FFFFFF" stroke-width="6.8144" stroke-linejoin="round" stroke-miterlimit="10" points="274.2,246.3 
	284,256.1 274.2,265.9 "/>
<line fill="none" stroke="#FFFFFF" stroke-width="6.8144" stroke-linejoin="round" stroke-miterlimit="10" x1="287" y1="265.9" x2="301.1" y2="265.9"/>
<g>
	<path fill="#66CC66" d="M347.9,191.9l-9.1-9.1c-3.5-3.5-8.2-5.4-13.2-5.4c-5,0-9.7,1.9-13.2,5.4l-9.1,9.1
		c-3.5,3.5-5.5,8.2-5.5,13.1s1.9,9.6,5.5,13.1l9.1,9.1c3.5,3.5,8.2,5.4,13.2,5.4c4.8,0,9.4-1.9,12.9-5.2l0,0l0,0l9.3-9.3
		c3.5-3.5,5.5-8.2,5.5-13.1S351.4,195.4,347.9,191.9"/>
	<line fill="none" stroke="#FFFFFF" stroke-width="6.6722" stroke-miterlimit="10" x1="325.5" y1="193.5" x2="325.5" y2="216.5"/>
	<line fill="none" stroke="#FFFFFF" stroke-width="6.6722" stroke-miterlimit="10" x1="337" y1="205" x2="314.1" y2="205"/>
</g>
</svg>
