<?xml version="1.0" encoding="UTF-8"?> <svg xmlns="http://www.w3.org/2000/svg" width="280" height="8" viewBox="0 0 280 8" fill="none"> <mask id="mask0" maskUnits="userSpaceOnUse" x="0" y="0" width="280" height="8"> <rect width="280" height="8" rx="4" fill="#C4C4C4"></rect> </mask> <g mask="url(#mask0)"> <rect width="287" height="107" rx="8" transform="matrix(1 8.74228e-08 8.74228e-08 -1 -4 44)" fill="url(#paint0_linear)"></rect> <mask id="mask1" maskUnits="userSpaceOnUse" x="-4" y="-63" width="287" height="107"> <rect width="287" height="107" rx="8" transform="matrix(1 8.74228e-08 8.74228e-08 -1 -4 44)" fill="white"></rect> </mask> <g mask="url(#mask1)"> <path d="M238 13L288 -64.4453" stroke="#FFCE6E" stroke-width="10"></path> <path d="M49 66L99 -11.4453" stroke="#FFCE6E" stroke-width="2"></path> <path d="M8.59523 13.0479L8.59524 -85.8582" stroke="#FFCE6E" stroke-width="20"></path> <path d="M204.81 60L204.81 -38.906" stroke="#FFCE6E" stroke-width="20"></path> <path d="M77.6191 53.2344L77.6191 -44.672" stroke="#FF7965" stroke-width="5" stroke-linecap="round"></path> <path d="M48.6191 29L48.6191 15.0039" stroke="#FFCE6E" stroke-width="20" stroke-linecap="round"></path> <path d="M106.619 11L106.619 -27.2561" stroke="#222437" stroke-width="33" stroke-linecap="round"></path> <path d="M158.03 33.665L237 -54.5221" stroke="#222437" stroke-width="41"></path> <path d="M137.983 36.543C137.983 36.543 163.479 8.09724 214.47 -48.7943" stroke="#FF7965" stroke-width="25"></path> <path d="M122.629 38.5909C122.629 38.5909 148.125 10.1451 199.117 -46.7465" stroke="#FFCE6E" stroke-width="18"></path> </g> </g> <defs> <linearGradient id="paint0_linear" x1="493.389" y1="105.362" x2="434.568" y2="-146.371" gradientUnits="userSpaceOnUse"> <stop stop-color="#FFCE6E"></stop> <stop offset="1" stop-color="#FFCE6E"></stop> </linearGradient> </defs> </svg> 