<?xml version="1.0" encoding="UTF-8"?> <svg xmlns="http://www.w3.org/2000/svg" xmlns:xlink="http://www.w3.org/1999/xlink" width="912px" height="431px" viewBox="0 0 912 431"> <!-- Generator: Sketch 63.1 (92452) - https://sketch.com --> <title>Group 8 Copy</title> <desc>Created with Sketch.</desc> <defs> <rect id="path-1" x="1.13686838e-13" y="0" width="912" height="430" rx="1"></rect> </defs> <g id="Page-1" stroke="none" stroke-width="1" fill="none" fill-rule="evenodd"> <g id="Group-8-Copy" transform="translate(0.000000, -5.000000)"> <g id="pro-7" transform="translate(0.000000, 6.000000)"> <mask id="mask-2" fill="white"> <use xlink:href="#path-1"></use> </mask> <use id="Rectangle-Copy-16" fill="#6C7BDF" transform="translate(456.000000, 215.000000) scale(-1, 1) translate(-456.000000, -215.000000) " xlink:href="#path-1"></use> <line x1="66.5462126" y1="13.3031674" x2="-92.5309243" y2="170.40724" id="Stroke-21-Copy-6" stroke="#FFCE6E" stroke-width="9" mask="url(#mask-2)"></line> <line x1="860.030577" y1="62.7149321" x2="700.95344" y2="219.819005" id="Stroke-21-Copy-7" stroke="#FFFFFF" stroke-width="2" stroke-linecap="round" mask="url(#mask-2)"></line> <line x1="438.57123" y1="-157.104072" x2="228.792217" y2="53.2126697" id="Stroke-21-Copy-8" stroke="#66CC66" stroke-width="11" mask="url(#mask-2)"></line> <line x1="819.469076" y1="75.3846154" x2="609.690063" y2="285.701357" id="Stroke-21-Copy-24" stroke="#66CC66" stroke-width="11" mask="url(#mask-2)"></line> <line x1="221.779013" y1="310" x2="12" y2="520.316742" id="Stroke-21-Copy-37" stroke="#66CC66" stroke-width="11" mask="url(#mask-2)"></line> <path d="M578.83639,73.1256593 C553.176982,43.9103575 542.933679,3.79702703 548.128577,-34.0474605 C551.553603,-58.9985426 561.689366,-82.9633953 578.5422,-102.168532" id="Stroke-1-Copy-5" stroke="#222437" stroke-width="6" mask="url(#mask-2)" transform="translate(562.826907, -14.521436) scale(-1, 1) rotate(-45.000000) translate(-562.826907, 14.521436) "></path> <line x1="468.992356" y1="96.2895928" x2="332.731063" y2="232.488688" id="Stroke-21-Copy-7" stroke="#FFFFFF" stroke-width="5" stroke-linecap="round" mask="url(#mask-2)"></line> <path d="M512.562879,56.5398631 C513.415388,69.3216674 510.85786,78.6949907 504.890294,84.659833 C498.922728,90.6246748 489.545124,93.1810355 476.757483,92.3289152 C475.904973,79.5471109 478.462501,70.1737876 484.430067,64.2089453 C490.397633,58.2441035 499.775237,55.6877428 512.562879,56.5398631 Z" id="Stroke-21-Copy-17" fill="#222437" fill-rule="nonzero" mask="url(#mask-2)"></path> <line x1="444.491883" y1="70.521889" x2="595.548117" y2="-80.7695111" id="Stroke-21-Copy-8" stroke="#66CC66" stroke-width="30" mask="url(#mask-2)"></line> <line x1="399.277276" y1="22.8054299" x2="433.73645" y2="83.8741599" id="Stroke-21-Copy-6" stroke="#6C7BDF" stroke-width="6" mask="url(#mask-2)"></line> <path d="M244.090586,90.2257812 C260.68052,73.9802387 287.377008,73.8177833 304.169073,89.738415 L304.674871,90.2257812 L287.820954,107.421278 C280.500966,100.253245 268.579733,100.181565 261.16772,107.206237 L260.944503,107.421278 L244.090586,90.2257812 Z" id="Stroke-1" fill="#FFFFFF" fill-rule="nonzero" mask="url(#mask-2)"></path> <polygon id="Stroke-19" fill="#FFFFFF" fill-rule="nonzero" mask="url(#mask-2)" points="244.00278 90.3126514 261.032309 107.334407 198.92251 169.415855 181.892981 152.394099"></polygon> <polygon id="Stroke-27" fill="#FFFFFF" fill-rule="nonzero" mask="url(#mask-2)" points="978.546213 -120.995475 995.575742 -103.973719 868.821051 22.7231135 851.791522 5.70135747"></polygon> <polygon id="Stroke-27-Copy" fill="#FFFFFF" fill-rule="nonzero" mask="url(#mask-2)" points="493.754691 322 510.78422 339.021756 384.029529 465.718589 367 448.696833"></polygon> <path d="M272.428571,95.6561086 L255.052638,78.2981648 L303.627337,29.7737557 C313.223824,39.3603074 313.223824,54.9030915 303.627337,64.4896433 L272.428571,95.6561086 Z" id="Fill-45" fill="#E5C859" mask="url(#mask-2)"></path> <path d="M234.508113,116.561086 C222.184344,104.242942 222.184344,84.2716841 234.508113,71.9535401 C246.831882,59.6353961 266.81226,59.6353961 279.136029,71.9535401" id="Fill-47" fill="#66CC66" mask="url(#mask-2)"></path> </g> <path d="M77.914449,86.7144661 L77.914449,78.2287518 L86.3737792,78.2287518 L86.3737792,74.0801804 L77.914449,74.0801804 L77.914449,68.8630375 L86.622583,68.8630375 L86.622583,64.7144661 L73.622583,64.7144661 L73.622583,86.7144661 L77.914449,86.7144661 Z M92.4821777,86.5428932 L92.4821777,79.044854 C92.4821777,75.7507364 95.2045976,74.8095599 97.3505051,75.0605403 L97.3505051,70.5428932 C95.3327115,70.5428932 93.3149179,71.4213246 92.4821777,73.5546579 L92.4821777,70.8566187 L88.3505051,70.8566187 L88.3505051,86.5428932 L92.4821777,86.5428932 Z M107.118778,87.6035534 C110.089764,87.6035534 112.410847,86.4217352 113.865393,84.3611291 L110.646824,82.5429473 C109.965973,83.4217352 108.728062,84.0580988 107.180673,84.0580988 C105.076225,84.0580988 103.374097,83.209614 102.817037,81.209614 L114.484348,81.209614 C114.577192,80.6944625 114.639087,80.179311 114.639087,79.6035534 C114.639087,75.1490079 111.389571,71.6035534 106.8093,71.6035534 C101.950499,71.6035534 98.6390873,75.0884019 98.6390873,79.6035534 C98.6390873,84.1187049 101.919552,87.6035534 107.118778,87.6035534 Z M109.431981,78.2751263 L102.431981,78.2751263 C102.843745,76.3741362 104.133941,75.2751263 106.028059,75.2751263 C107.510412,75.2751263 108.992765,76.1365124 109.431981,78.2751263 Z M124.796447,86.8964466 C127.767434,86.8964466 130.088517,85.7146284 131.543062,83.6540224 L128.324494,81.8358405 C127.643643,82.7146284 126.405732,83.3509921 124.858343,83.3509921 C122.753894,83.3509921 121.051766,82.5025072 120.494707,80.5025072 L132.162018,80.5025072 C132.254861,79.9873557 132.316757,79.4722042 132.316757,78.8964466 C132.316757,74.4419012 129.06724,70.8964466 124.48697,70.8964466 C119.628169,70.8964466 116.316757,74.3812951 116.316757,78.8964466 C116.316757,83.4115981 119.597221,86.8964466 124.796447,86.8964466 Z M128.523864,77.5680195 L121.523864,77.5680195 C121.935628,75.6670294 123.225824,74.5680195 125.119942,74.5680195 C126.602295,74.5680195 128.084648,75.4294056 128.523864,77.5680195 Z" id="Free" fill="#FFFFFF" fill-rule="nonzero" transform="translate(102.969670, 76.159010) rotate(-45.000000) translate(-102.969670, -76.159010) "></path> <path d="M588.971292,27 L588.971292,21.2142857 L594.827751,21.2142857 L594.827751,18.3857143 L588.971292,18.3857143 L588.971292,14.8285714 L595,14.8285714 L595,12 L586,12 L586,27 L588.971292,27 Z M599.093283,26.767767 L599.093283,21.612865 C599.093283,19.3481591 600.90823,18.7011003 602.338835,18.8736493 L602.338835,15.767767 C600.993639,15.767767 599.648443,16.3716885 599.093283,17.8383552 L599.093283,15.9834532 L596.338835,15.9834532 L596.338835,26.767767 L599.093283,26.767767 Z M609.214564,27.8284271 C611.257117,27.8284271 612.852861,27.0159271 613.852861,25.5992605 L611.640095,24.3492605 C611.17201,24.9534271 610.320947,25.3909271 609.257117,25.3909271 C607.810308,25.3909271 606.640095,24.8075938 606.257117,23.4325938 L614.278393,23.4325938 C614.342223,23.0784271 614.384776,22.7242605 614.384776,22.3284271 C614.384776,19.2659271 612.150734,16.8284271 609.001798,16.8284271 C605.661372,16.8284271 603.384776,19.2242605 603.384776,22.3284271 C603.384776,25.4325938 605.640095,27.8284271 609.214564,27.8284271 Z M611.031223,20.8535534 L606.031223,20.8535534 C606.325341,19.5862267 607.246909,18.8535534 608.59985,18.8535534 C609.658674,18.8535534 610.717497,19.4278108 611.031223,20.8535534 Z M621.235379,27.1213203 C623.277932,27.1213203 624.873677,26.3088203 625.873677,24.8921537 L623.660911,23.6421537 C623.192826,24.2463203 622.341762,24.6838203 621.277932,24.6838203 C619.831124,24.6838203 618.660911,24.100487 618.277932,22.725487 L626.299209,22.725487 C626.363038,22.3713203 626.405592,22.0171537 626.405592,21.6213203 C626.405592,18.5588203 624.171549,16.1213203 621.022613,16.1213203 C617.682187,16.1213203 615.405592,18.5171537 615.405592,21.6213203 C615.405592,24.725487 617.660911,27.1213203 621.235379,27.1213203 Z M623.759145,20.8535534 L618.759145,20.8535534 C619.053263,19.5862267 619.974831,18.8535534 621.327772,18.8535534 C622.386596,18.8535534 623.445419,19.4278108 623.759145,20.8535534 Z" id="Free-Copy" fill="#FFFFFF" fill-rule="nonzero" transform="translate(606.202796, 19.914214) rotate(-45.000000) translate(-606.202796, -19.914214) "></path> <path d="M548.971292,291 L548.971292,285.214286 L554.827751,285.214286 L554.827751,282.385714 L548.971292,282.385714 L548.971292,278.828571 L555,278.828571 L555,276 L546,276 L546,291 L548.971292,291 Z M559.093283,290.767767 L559.093283,285.612865 C559.093283,283.348159 560.90823,282.7011 562.338835,282.873649 L562.338835,279.767767 C560.993639,279.767767 559.648443,280.371689 559.093283,281.838355 L559.093283,279.983453 L556.338835,279.983453 L556.338835,290.767767 L559.093283,290.767767 Z M569.214564,291.828427 C571.257117,291.828427 572.852861,291.015927 573.852861,289.59926 L571.640095,288.34926 C571.17201,288.953427 570.320947,289.390927 569.257117,289.390927 C567.810308,289.390927 566.640095,288.807594 566.257117,287.432594 L574.278393,287.432594 C574.342223,287.078427 574.384776,286.72426 574.384776,286.328427 C574.384776,283.265927 572.150734,280.828427 569.001798,280.828427 C565.661372,280.828427 563.384776,283.22426 563.384776,286.328427 C563.384776,289.432594 565.640095,291.828427 569.214564,291.828427 Z M571.031223,284.853553 L566.031223,284.853553 C566.325341,283.586227 567.246909,282.853553 568.59985,282.853553 C569.658674,282.853553 570.717497,283.427811 571.031223,284.853553 Z M581.235379,291.12132 C583.277932,291.12132 584.873677,290.30882 585.873677,288.892154 L583.660911,287.642154 C583.192826,288.24632 582.341762,288.68382 581.277932,288.68382 C579.831124,288.68382 578.660911,288.100487 578.277932,286.725487 L586.299209,286.725487 C586.363038,286.37132 586.405592,286.017154 586.405592,285.62132 C586.405592,282.55882 584.171549,280.12132 581.022613,280.12132 C577.682187,280.12132 575.405592,282.517154 575.405592,285.62132 C575.405592,288.725487 577.660911,291.12132 581.235379,291.12132 Z M583.759145,284.853553 L578.759145,284.853553 C579.053263,283.586227 579.974831,282.853553 581.327772,282.853553 C582.386596,282.853553 583.445419,283.427811 583.759145,284.853553 Z" id="Free-Copy-2" fill="#FFFFFF" fill-rule="nonzero" transform="translate(566.202796, 283.914214) rotate(-45.000000) translate(-566.202796, -283.914214) "></path> </g> </g> </svg> 