<?xml version="1.0" encoding="UTF-8"?> <svg xmlns="http://www.w3.org/2000/svg" width="2753" height="1057" viewBox="0 0 2753 1057" fill="none"> <path d="M2082.59 505.093H461.975L1186.35 878.369L2752.14 770.575L2082.59 505.093Z" fill="#9CA6E6"></path> <path d="M421.17 411.296L320.579 336.16L266.575 336.16L428.441 504.914L454.814 504.913H565.49L712.058 504.913C712.058 453.267 670.008 411.295 618.265 411.295L565.646 411.295L421.17 411.296Z" fill="#FEA88D"></path> <path fill-rule="evenodd" clip-rule="evenodd" d="M186.726 24.8762L18.0342 24.8762V24.8762C18.0342 57.0024 44.0777 83.0459 76.2039 83.0459L186.726 83.0459C202.789 83.0459 215.811 70.0242 215.811 53.9611C215.811 37.898 202.789 24.8762 186.726 24.8762Z" fill="white"></path> <path d="M206.063 307.329C206.063 323.898 192.632 337.329 176.063 337.329C159.494 337.329 146.063 323.898 146.063 307.329L206.063 307.329ZM206.063 169.661L206.063 307.329L146.063 307.329L146.063 169.661L206.063 169.661Z" fill="#FFDDD2"></path> <path fill-rule="evenodd" clip-rule="evenodd" d="M199.33 166.311L61.6616 166.311V166.311C61.6616 198.437 87.7051 224.48 119.831 224.48L199.33 224.48C215.393 224.48 228.415 211.459 228.415 195.396C228.415 179.333 215.393 166.311 199.33 166.311Z" fill="white"></path> <rect width="220.516" height="177.399" transform="matrix(-1 0 0 1 282.113 279.649)" fill="white"></rect> <path d="M352.333 539.587H0.616021L817.389 1057L1339.73 806.917L352.333 539.587Z" fill="#6C7BDF"></path> <path fill-rule="evenodd" clip-rule="evenodd" d="M182.243 124.095L13.5513 124.095V124.095C13.5513 156.221 39.5948 182.265 71.721 182.265L182.243 182.265C198.306 182.265 211.328 169.243 211.328 153.18C211.328 137.117 198.306 124.095 182.243 124.095Z" fill="white"></path> <path opacity="0.95" fill-rule="evenodd" clip-rule="evenodd" d="M168.692 69.8035L5.08536e-06 69.8035V69.8035C2.27679e-06 101.93 26.0435 127.973 58.1697 127.973L168.692 127.973C184.755 127.973 197.777 114.951 197.777 98.8883C197.777 82.8252 184.755 69.8035 168.692 69.8035Z" fill="white"></path> <path d="M54.3005 446.134L32.5785 350.154L0.297028 350.154L0.29703 539.752L54.3005 539.752L164.976 539.752L352.512 539.752C352.512 488.106 310.461 446.134 258.719 446.134L165.132 446.134L54.3005 446.134Z" fill="#FEA88D"></path> <path d="M177.032 24.237C237.001 24.237 285.616 72.8514 285.616 132.82C285.616 192.789 237.001 241.404 177.032 241.404L177.032 24.237Z" fill="#FEA88D"></path> <path d="M242.957 116.339C242.957 106.701 235.144 98.8885 225.506 98.8885C215.868 98.8885 208.055 106.701 208.055 116.339L242.957 116.339Z" fill="#F2C94C"></path> <path d="M203.777 58.1696H214.877L246.675 58.1696L255.711 58.1699C285.579 58.1699 309.853 32.0907 309.853 0.000545808L246.585 0.000242478L214.877 0.000237882H203.146C187.986 0.000237882 175.624 13.4761 176.075 29.8605C176.526 45.7601 188.979 58.1696 203.777 58.1696Z" fill="url(#paint0_linear)"></path> <path d="M83.7715 279.649H-7.22408e-05V402.842H23.7715C56.9086 402.842 83.7715 375.979 83.7715 342.842V279.649Z" fill="#F3F4F6"></path> <path d="M305.094 405.788L356.509 354.372L281.786 279.649L272.797 288.638C249.366 312.069 249.366 350.059 272.797 373.491L305.094 405.788Z" fill="white"></path> <path d="M239.705 86.2357V86.2357C239.705 91.5901 235.365 95.9306 230.01 95.9306L208.197 95.9307" stroke="#3E50CB" stroke-width="6"></path> <defs> <linearGradient id="paint0_linear" x1="242.958" y1="58.1699" x2="242.958" y2="0.000236511" gradientUnits="userSpaceOnUse"> <stop stop-color="#6C7BDF"></stop> <stop offset="1" stop-color="#3E50CB"></stop> </linearGradient> </defs> </svg> 