<?xml version="1.0" encoding="UTF-8"?> <svg xmlns="http://www.w3.org/2000/svg" viewBox="0 0 31.88 47.17"> <defs> <style>.cls-1,.cls-2{fill:none;stroke-miterlimit:10;stroke-width:0.5px;}.cls-1{stroke:#fff;}.cls-2{stroke:#6c6;}</style> </defs> <g id="Layer_2" data-name="Layer 2"> <g id="Layer_1-2" data-name="Layer 1"> <path class="cls-1" d="M5.27,15.29A5.27,5.27,0,0,1,0,20.56"></path> <path class="cls-1" d="M10.54,15.29A10.54,10.54,0,0,1,0,25.83"></path> <path class="cls-1" d="M15.81,15.29A15.81,15.81,0,0,1,0,31.1"></path> <path class="cls-1" d="M21.09,15.29A21.08,21.08,0,0,1,0,36.37"></path> <path class="cls-1" d="M26.36,15.29A26.36,26.36,0,0,1,0,41.65"></path> <path class="cls-1" d="M31.63,15.29A31.63,31.63,0,0,1,0,46.92"></path> <line class="cls-1" x1="26.36" y1="6.06" x2="26.36" y2="15.02"></line> <line class="cls-1" x1="15.81" y1="6.06" x2="15.81" y2="15.02"></line> <line class="cls-1" x1="5.27" y1="6.06" x2="5.27" y2="15.02"></line> <line class="cls-2" x1="26.36" y1="1.05" x2="26.36" y2="4.22"></line> <line class="cls-2" x1="15.82" x2="15.82" y2="4.22"></line> <line class="cls-2" x1="5.27" y1="1.05" x2="5.27" y2="4.22"></line> </g> </g> </svg> 