<svg id="Layer_1" data-name="Layer 1" xmlns="http://www.w3.org/2000/svg" xmlns:xlink="http://www.w3.org/1999/xlink" viewBox="0 0 560 560"><defs><style>.cls-1,.cls-4,.cls-5,.cls-6{fill:none;}.cls-2{clip-path:url(#clip-path);}.cls-3{opacity:0.5;fill:url(#linear-gradient);}.cls-4,.cls-5,.cls-6{stroke:#fff;stroke-miterlimit:10;stroke-width:30px;}.cls-5,.cls-6{opacity:0.6;}.cls-6{stroke-linecap:round;}.cls-7{fill:#fff;}.cls-8{fill:url(#linear-gradient-2);}.cls-9{fill:#6c6;}</style><clipPath id="clip-path"><path class="cls-1" d="M478.17,162.93l-81.1-81.1a165.42,165.42,0,0,0-234.13,0l-81.1,81.09a165.44,165.44,0,0,0,0,234.16l81.1,81.1a165.46,165.46,0,0,0,231.92,2.18l.15-.14.15-.14,83-83a165.45,165.45,0,0,0,0-234.16Z"/></clipPath><linearGradient id="linear-gradient" x1="427.23" y1="-29.25" x2="123.7" y2="608.32" gradientUnits="userSpaceOnUse"><stop offset="0" stop-color="#b3e5fe"/><stop offset="1" stop-color="#5381bb"/></linearGradient><linearGradient id="linear-gradient-2" x1="359.09" y1="91.77" x2="456.12" y2="91.77" gradientTransform="translate(120.07 -211.36) rotate(33.82)" gradientUnits="userSpaceOnUse"><stop offset="0" stop-color="#535366"/><stop offset="0.28" stop-color="#454659"/><stop offset="1" stop-color="#25263a"/></linearGradient></defs><title>Artboard 10 copy 4</title><g class="cls-2"><path class="cls-3" d="M478.17,162.93l-81.1-81.1a165.42,165.42,0,0,0-234.13,0l-81.1,81.09a165.44,165.44,0,0,0,0,234.16l81.1,81.1a165.46,165.46,0,0,0,231.92,2.18l.15-.14.15-.14,83-83a165.45,165.45,0,0,0,0-234.16Z"/><path class="cls-4" d="M47.83,402.84a56.72,56.72,0,0,0,80.22,0l40.1-40.1,40.13-40.12a56.74,56.74,0,0,1,80.23,0l76.09,76.09"/><path class="cls-4" d="M364.61,398.72a56.72,56.72,0,0,0,80.22,0l40.1-40.1,40.13-40.12a56.74,56.74,0,0,1,80.23,0"/><path class="cls-5" d="M539,205.68,431.61,313.11l-58.84,58.82a83.19,83.19,0,0,1-117.63,0L143.58,260.37"/><path class="cls-5" d="M143.58,260.35a104.62,104.62,0,0,0-148,0"/><line class="cls-6" x1="69.6" y1="239.92" x2="69.6" y2="443.98"/></g><circle class="cls-7" cx="310.27" cy="133.94" r="24.25"/><circle class="cls-8" cx="407.61" cy="91.77" r="48.51" transform="translate(17.9 242.42) rotate(-33.82)"/><circle class="cls-7" cx="303.02" cy="200.02" r="11"/><path class="cls-9" d="M294.84,214.19A16.35,16.35,0,0,1,286.66,200H303Z"/><path class="cls-7" d="M353.85,98.63a63.51,63.51,0,0,1,28-57l35.37,52.78Z"/><circle class="cls-7" cx="274.92" cy="240.75" r="6.56"/><circle class="cls-7" cx="407.61" cy="91.77" r="29.33"/></svg>