<?xml version="1.0" encoding="UTF-8"?> <svg xmlns="http://www.w3.org/2000/svg" width="482" height="252" viewBox="0 0 482 252" fill="none"> <g id="Group 13"> <g id="Popup Copy 16"> <g id="pro-7"> <rect id="Rectangle Copy 16" width="482" height="252" rx="8" transform="matrix(-1 0 0 1 482 0)" fill="url(#paint0_linear)"></rect> <mask id="mask0" maskUnits="userSpaceOnUse" x="0" y="0" width="482" height="252"> <rect id="Rectangle Copy 16_2" width="482" height="252" rx="8" transform="matrix(-1 0 0 1 482 0)" fill="white"></rect> </mask> <g mask="url(#mask0)"> <path id="Stroke 21 Copy 6" d="M55 56L-29 186.108" stroke="#FFCE6E" stroke-width="10"></path> <path id="Stroke 21 Copy 25" d="M368 -102L284 28.1081" stroke="#FFCE6E" stroke-width="2"></path> <path id="Stroke 21 Copy 8" d="M461 52V218.162" stroke="#FFCE6E" stroke-width="20"></path> <path id="Stroke 21 Copy 14" d="M441 -108V51.8919" stroke="white" stroke-width="20"></path> <path id="Stroke 21 Copy 7" d="M425 110V274.483" stroke="#FF7965" stroke-width="5" stroke-linecap="round"></path> <path id="Stroke 21 Copy 15" d="M418 155.216V178.73" stroke="#FFCE6E" stroke-width="20" stroke-linecap="round"></path> <path id="Stroke 21 Copy 13" d="M395 120.729V185" stroke="#222437" stroke-width="33" stroke-linecap="round"></path> <path id="Stroke 21 Copy 8_2" d="M296.702 110.354L206.898 287.798" stroke="#222437" stroke-width="41"></path> <path id="Stroke 21 Copy 14_2" d="M327.982 96.9691C327.982 96.9691 298.977 154.216 240.968 268.709" stroke="#FF7965" stroke-width="25"></path> <path id="Stroke 21 Copy 16" d="M352.007 86.9681C352.007 86.9681 323.002 144.215 264.993 258.708" stroke="#F6F6F6" stroke-width="18"></path> </g> </g> <path id="Title" d="M37.308 212.248V206.596H46.848V201.916H37.308V196.552H47.748V191.8H32.34V217H47.928V212.248H37.308ZM61.2218 198.496C58.8098 198.496 56.9378 199.396 55.8578 201.016V199H51.2138V217H55.8578V207.28C55.8578 204.148 57.5498 202.816 59.8178 202.816C61.9058 202.816 63.3818 204.076 63.3818 206.524V217H68.0258V205.948C68.0258 201.16 65.0378 198.496 61.2218 198.496ZM82.2872 203.464V199H78.2192V193.96L73.5752 195.364V199H70.4432V203.464H73.5752V210.952C73.5752 215.812 75.7712 217.72 82.2872 217V212.788C79.6232 212.932 78.2192 212.896 78.2192 210.952V203.464H82.2872ZM88.923 209.908H102.495C102.603 209.296 102.675 208.684 102.675 208C102.675 202.708 98.895 198.496 93.567 198.496C87.915 198.496 84.063 202.636 84.063 208C84.063 213.364 87.879 217.504 93.927 217.504C97.383 217.504 100.083 216.1 101.775 213.652L98.031 211.492C97.239 212.536 95.799 213.292 93.999 213.292C91.551 213.292 89.571 212.284 88.923 209.908ZM88.851 206.308C89.391 204.004 91.083 202.672 93.567 202.672C95.511 202.672 97.455 203.716 98.031 206.308H88.851ZM110.561 202.096V199H105.917V217H110.561V208.396C110.561 204.616 113.621 203.536 116.033 203.824V198.64C113.765 198.64 111.497 199.648 110.561 202.096ZM129.225 198.496C126.597 198.496 124.689 199.468 123.393 201.124V199H118.749V224.2H123.393V214.876C124.689 216.532 126.597 217.504 129.225 217.504C134.049 217.504 138.009 213.364 138.009 208C138.009 202.636 134.049 198.496 129.225 198.496ZM128.361 213.076C125.517 213.076 123.393 211.024 123.393 208C123.393 204.976 125.517 202.924 128.361 202.924C131.241 202.924 133.365 204.976 133.365 208C133.365 211.024 131.241 213.076 128.361 213.076ZM145.928 202.096V199H141.284V217H145.928V208.396C145.928 204.616 148.988 203.536 151.4 203.824V198.64C149.132 198.64 146.864 199.648 145.928 202.096ZM156.42 196.84C158.004 196.84 159.3 195.544 159.3 193.996C159.3 192.448 158.004 191.116 156.42 191.116C154.872 191.116 153.576 192.448 153.576 193.996C153.576 195.544 154.872 196.84 156.42 196.84ZM154.116 217H158.76V199H154.116V217ZM167.154 204.112C167.154 203.14 168.09 202.636 169.242 202.636C170.574 202.636 171.582 203.32 172.122 204.472L176.082 202.312C174.678 199.828 172.158 198.496 169.242 198.496C165.534 198.496 162.402 200.548 162.402 204.22C162.402 210.556 171.69 209.116 171.69 211.744C171.69 212.788 170.682 213.292 169.206 213.292C167.406 213.292 166.182 212.428 165.678 210.952L161.646 213.22C162.942 215.992 165.606 217.504 169.206 217.504C173.058 217.504 176.442 215.632 176.442 211.744C176.442 205.12 167.154 206.776 167.154 204.112ZM183.107 209.908H196.679C196.787 209.296 196.859 208.684 196.859 208C196.859 202.708 193.079 198.496 187.751 198.496C182.099 198.496 178.247 202.636 178.247 208C178.247 213.364 182.063 217.504 188.111 217.504C191.567 217.504 194.267 216.1 195.959 213.652L192.215 211.492C191.423 212.536 189.983 213.292 188.183 213.292C185.735 213.292 183.755 212.284 183.107 209.908ZM183.035 206.308C183.575 204.004 185.267 202.672 187.751 202.672C189.695 202.672 191.639 203.716 192.215 206.308H183.035Z" fill="white"></path> </g> <g id="ent-6 copy 3"> <rect id="Rectangle Copy 17" x="32" y="157" width="78" height="16" rx="1" fill="#FFCE6E"></rect> <mask id="mask1" maskUnits="userSpaceOnUse" x="32" y="157" width="78" height="16"> <rect id="Rectangle Copy 17_2" x="32" y="157" width="78" height="16" rx="1" fill="white"></rect> </mask> <g mask="url(#mask1)"> <path id="Enterprise" d="M58.03 166.68V165.11H60.68V163.81H58.03V162.32H60.93V161H56.65V168H60.98V166.68H58.03ZM65.0061 162.86C64.3361 162.86 63.8161 163.11 63.5161 163.56V163H62.2261V168H63.5161V165.3C63.5161 164.43 63.9861 164.06 64.6161 164.06C65.1961 164.06 65.6061 164.41 65.6061 165.09V168H66.8961V164.93C66.8961 163.6 66.0661 162.86 65.0061 162.86ZM71.1909 164.24V163H70.0609V161.6L68.7709 161.99V163H67.9009V164.24H68.7709V166.32C68.7709 167.67 69.3809 168.2 71.1909 168V166.83C70.4509 166.87 70.0609 166.86 70.0609 166.32V164.24H71.1909ZM73.3675 166.03H77.1375C77.1675 165.86 77.1875 165.69 77.1875 165.5C77.1875 164.03 76.1375 162.86 74.6575 162.86C73.0875 162.86 72.0175 164.01 72.0175 165.5C72.0175 166.99 73.0775 168.14 74.7575 168.14C75.7175 168.14 76.4675 167.75 76.9375 167.07L75.8975 166.47C75.6775 166.76 75.2775 166.97 74.7775 166.97C74.0975 166.97 73.5475 166.69 73.3675 166.03ZM73.3475 165.03C73.4975 164.39 73.9675 164.02 74.6575 164.02C75.1975 164.02 75.7375 164.31 75.8975 165.03H73.3475ZM79.7114 163.86V163H78.4214V168H79.7114V165.61C79.7114 164.56 80.5614 164.26 81.2314 164.34V162.9C80.6014 162.9 79.9714 163.18 79.7114 163.86ZM85.2292 162.86C84.4992 162.86 83.9692 163.13 83.6092 163.59V163H82.3192V170H83.6092V167.41C83.9692 167.87 84.4992 168.14 85.2292 168.14C86.5692 168.14 87.6692 166.99 87.6692 165.5C87.6692 164.01 86.5692 162.86 85.2292 162.86ZM84.9892 166.91C84.1992 166.91 83.6092 166.34 83.6092 165.5C83.6092 164.66 84.1992 164.09 84.9892 164.09C85.7892 164.09 86.3792 164.66 86.3792 165.5C86.3792 166.34 85.7892 166.91 84.9892 166.91ZM90.2023 163.86V163H88.9123V168H90.2023V165.61C90.2023 164.56 91.0523 164.26 91.7223 164.34V162.9C91.0923 162.9 90.4623 163.18 90.2023 163.86ZM93.4501 162.4C93.8901 162.4 94.2501 162.04 94.2501 161.61C94.2501 161.18 93.8901 160.81 93.4501 160.81C93.0201 160.81 92.6601 161.18 92.6601 161.61C92.6601 162.04 93.0201 162.4 93.4501 162.4ZM92.8101 168H94.1001V163H92.8101V168ZM96.765 164.42C96.765 164.15 97.025 164.01 97.345 164.01C97.715 164.01 97.995 164.2 98.145 164.52L99.245 163.92C98.855 163.23 98.155 162.86 97.345 162.86C96.315 162.86 95.445 163.43 95.445 164.45C95.445 166.21 98.025 165.81 98.025 166.54C98.025 166.83 97.745 166.97 97.335 166.97C96.835 166.97 96.495 166.73 96.355 166.32L95.235 166.95C95.595 167.72 96.335 168.14 97.335 168.14C98.405 168.14 99.345 167.62 99.345 166.54C99.345 164.7 96.765 165.16 96.765 164.42ZM101.53 166.03H105.3C105.33 165.86 105.35 165.69 105.35 165.5C105.35 164.03 104.3 162.86 102.82 162.86C101.25 162.86 100.18 164.01 100.18 165.5C100.18 166.99 101.24 168.14 102.92 168.14C103.88 168.14 104.63 167.75 105.1 167.07L104.06 166.47C103.84 166.76 103.44 166.97 102.94 166.97C102.26 166.97 101.71 166.69 101.53 166.03ZM101.51 165.03C101.66 164.39 102.13 164.02 102.82 164.02C103.36 164.02 103.9 164.31 104.06 165.03H101.51Z" fill="#222437"></path> <path id="Stroke 21 Copy 8_3" d="M40.3205 164L33 191.321" stroke="#222437" stroke-width="8"></path> <path id="Stroke 21 Copy 14_3" d="M46.0617 161C46.0617 161 43.7078 169.785 39 187.355" stroke="#FF7965" stroke-width="5"></path> <path id="Stroke 21 Copy 16_2" d="M51.0617 159C51.0617 159 48.7078 167.785 44 185.355" stroke="#F6F6F6" stroke-width="4"></path> </g> </g> </g> <defs> <linearGradient id="paint0_linear" x1="828.619" y1="248.141" x2="643.609" y2="-316.471" gradientUnits="userSpaceOnUse"> <stop stop-color="#2A264D"></stop> <stop offset="1" stop-color="#5F5ACE"></stop> </linearGradient> </defs> </svg> 