<?xml version="1.0" encoding="UTF-8"?> <svg xmlns="http://www.w3.org/2000/svg" width="680" height="680" viewBox="0 0 680 680" fill="none"> <g filter="url(#filter0_b_11_792)"> <path d="M501.16 66.64L612.68 178.84C656.2 221.68 680 278.8 680 340C680 401.2 656.2 458.32 612.68 501.84L498.44 616.08C455.6 657.56 399.16 680 340 680C278.8 680 221.68 656.2 178.16 612.68L66.64 501.16C23.8 458.32 0 401.2 0 340C0 278.8 23.8 221.68 66.64 178.84L178.84 66.64C221.68 23.8 278.8 0 340 0C400.52 0 458.32 23.8 501.16 66.64Z" fill="black"></path> </g> <path fill-rule="evenodd" clip-rule="evenodd" d="M333.496 78.9156L335.389 76.9298L394.252 133.037L392.359 135.023C346.293 183.351 269.772 185.185 221.443 139.119L277.551 80.2563C293.37 95.335 318.418 94.7347 333.496 78.9156Z" fill="white"></path> <path fill-rule="evenodd" clip-rule="evenodd" d="M315.387 433.568C268.938 480.017 193.629 480.017 147.179 433.568C100.73 387.119 100.73 311.81 147.179 265.361L335.786 76.7544L393.287 134.256L204.681 322.862C189.989 337.554 189.989 361.375 204.681 376.067C219.373 390.759 243.193 390.759 257.885 376.067L270.532 363.42L328.034 420.921L315.387 433.568Z" fill="url(#paint0_linear_11_792)"></path> <path fill-rule="evenodd" clip-rule="evenodd" d="M367.42 266.12C414.127 219.414 489.854 219.414 536.561 266.121C583.268 312.827 583.268 388.554 536.561 435.261L428.251 543.571C381.544 590.278 305.817 590.278 259.111 543.571L316.612 486.069C331.562 501.019 355.8 501.019 370.75 486.069L479.059 377.76C494.009 362.81 494.009 338.572 479.059 323.622C464.109 308.672 439.871 308.672 424.921 323.622L302.619 445.925C286.74 461.803 260.996 461.803 245.117 445.925C229.239 430.046 229.239 404.302 245.117 388.423L367.42 266.12Z" fill="url(#paint1_linear_11_792)"></path> <defs> <filter id="filter0_b_11_792" x="-72" y="-72" width="824" height="824" filterUnits="userSpaceOnUse" color-interpolation-filters="sRGB"> <feFlood flood-opacity="0" result="BackgroundImageFix"></feFlood> <feGaussianBlur in="BackgroundImageFix" stdDeviation="36"></feGaussianBlur> <feComposite in2="SourceAlpha" operator="in" result="effect1_backgroundBlur_11_792"></feComposite> <feBlend mode="normal" in="SourceGraphic" in2="effect1_backgroundBlur_11_792" result="shape"></feBlend> </filter> <linearGradient id="paint0_linear_11_792" x1="182.695" y1="466.375" x2="189.735" y2="259.905" gradientUnits="userSpaceOnUse"> <stop offset="0.222258" stop-color="#B0FF30" stop-opacity="0"></stop> <stop offset="0.536791" stop-color="#B0FF30"></stop> <stop offset="1" stop-color="white"></stop> </linearGradient> <linearGradient id="paint1_linear_11_792" x1="274.805" y1="577.65" x2="315.784" y2="461.557" gradientUnits="userSpaceOnUse"> <stop stop-color="#8224FB" stop-opacity="0"></stop> <stop offset="0.423213" stop-color="#892DFF"></stop> <stop offset="1" stop-color="white"></stop> </linearGradient> </defs> </svg> 