<?xml version="1.0" encoding="utf-8"?>
<!-- Generator: Adobe Illustrator 21.1.0, SVG Export Plug-In . SVG Version: 6.00 Build 0)  -->
<svg version="1.1" id="Mail.Ru_Group" xmlns="http://www.w3.org/2000/svg" xmlns:xlink="http://www.w3.org/1999/xlink" x="0px"
	 y="0px" viewBox="0 0 400 141.6" style="enable-background:new 0 0 400 141.6;" xml:space="preserve">
<style type="text/css">
	.Arched_x0020_Green{fill:url(#SVGID_1_);stroke:#FFFFFF;stroke-width:0.25;stroke-miterlimit:1;}
	.st0{fill-rule:evenodd;clip-rule:evenodd;fill:#808080;}
	.st1{fill:#FFFFFF;}
	.st2{fill-rule:evenodd;clip-rule:evenodd;fill:#FFFFFF;}
</style>
<linearGradient id="SVGID_1_" gradientUnits="userSpaceOnUse" x1="-78.9395" y1="267.0947" x2="-78.2324" y2="266.3876">
	<stop  offset="0" style="stop-color:#20AC4B"/>
	<stop  offset="0.9831" style="stop-color:#19361A"/>
</linearGradient>
<g>
	<g id="grey">
		<path class="st0" d="M61.1,32.2c5.8,0,11.3,2.6,15.3,6.6v0c0-1.9,1.3-3.4,3.1-3.4l0.5,0c2.8,0,3.4,2.7,3.4,3.5l0,30
			c-0.2,2,2,3,3.3,1.7c4.8-5,10.6-25.5-3-37.4c-12.7-11.1-29.7-9.3-38.7-3c-9.6,6.6-15.8,21.3-9.8,35.1c6.5,15,25.1,19.5,36.2,15
			c5.6-2.3,8.2,5.3,2.4,7.8c-8.8,3.8-33.3,3.4-44.7-16.4c-7.7-13.4-7.3-36.9,13.2-49.1c15.7-9.3,36.4-6.7,48.8,6.3
			c13,13.6,12.3,39.1-0.4,49c-5.8,4.5-14.3,0.1-14.3-6.4l-0.1-2.1c-4,4-9.3,6.3-15.2,6.3c-11.5,0-21.6-10.1-21.6-21.6
			C39.5,42.4,49.6,32.2,61.1,32.2L61.1,32.2L61.1,32.2L61.1,32.2z M75.5,53.2c-0.4-8.4-6.7-13.5-14.2-13.5H61
			c-8.7,0-13.5,6.8-13.5,14.6c0,8.7,5.8,14.2,13.5,14.2c8.5,0,14.2-6.3,14.6-13.6L75.5,53.2z"/>
		<path class="st0" d="M285.7,76c0,1.9-2,3.8-4.8,3.8c-2.8,0-4.6-2.1-4.6-3.9l0-3.2c0-1.9,1.8-3.9,4.7-3.9c3.2,0,4.7,2.1,4.7,4.1
			L285.7,76z"/>
		<path class="st0" d="M316.6,31c-13.1,0.1-24.3,11.6-24.3,24.4v19.9c0,2.6,2.1,4.5,4.3,4.5c2.7,0,4.7-2,4.7-4.3V55.2
			c0-7.2,6.3-15.2,15.2-15.1c2.9,0,4.8-2.2,4.8-4.6C321.3,33.6,319.9,31,316.6,31z"/>
		<path class="st0" d="M371.1,31c-2.8,0-4.6,2.3-4.6,4.4l0,20c0,7.7-6.5,15.2-15.5,15.2c-7.4,0-15.2-6.4-15.2-15.1v-20
			c0-2.1-1.6-4.5-4.7-4.5c-2.2,0-4.5,1.9-4.5,4.4v20c0,12.9,11.5,24.3,24.3,24.3c14,0,24.7-12,24.7-24.2v-20
			C375.7,33.2,373.8,31,371.1,31z"/>
	</g>
	<g id="white">
		<path class="st1" d="M238.2,23.8c0,2-2,3.6-4.8,3.6c-2.8,0-4.6-1.9-4.6-3.8l0-2.5c0-1.9,1.7-4.1,4.6-4.1c3.2,0,4.8,2,4.8,4.1V23.8
			z"/>
		<path class="st1" d="M153.2,31.1c-5.8-0.1-10.2,3.3-12.9,5.5c-3-3.2-6.9-5.2-10.9-5.5c-4.2-0.3-8.1,1.2-10.6,3.2
			c-0.9-2-2-3.2-4-3.2c-2.2,0-4.5,1.9-4.5,4.9c0,3,0,39.2,0,39.2c0,2.3,1.9,4.5,4.7,4.5c3,0,4.7-2.3,4.7-4.6V46
			c0-2.8,4.8-6.2,8.9-6.1c2.6,0,5.7,2.6,5.7,6.7l0,28.6c0,2.5,2.5,4.5,4.9,4.5c2.7,0,4.8-2.1,4.8-4.4V46.3c0-3.5,5.4-6.5,9.1-6.3
			c2.9,0.2,5.4,3.3,5.4,6.3v28.9c0,2.5,2.3,4.5,4.9,4.5c2.2,0,4.8-1.5,4.8-4.5V46.4C168.2,35.8,157.8,30.9,153.2,31.1z"/>
		<path class="st1" d="M233.5,31c-2.8,0-4.6,2.3-4.6,4.7l0,39.4c0,2.6,2.1,4.6,4.6,4.6c2.9,0,4.8-2.3,4.8-4.8l0-39.2
			C238.2,33.4,235.9,31,233.5,31z"/>
		<path class="st1" d="M217.1,31c-2.6,0-4.5,2.1-4.5,4.2v1.6c-4.2-3.6-9.6-5.8-15.4-5.8c-12.9,0-24.2,10.8-24.2,24.4
			c0,12.4,10.8,24.3,24.2,24.3c5.4,0,11.2-2.1,15.4-5.6l0,1.2c0,2.2,1.7,4.5,4.6,4.5c3.3,0,4.7-2.6,4.7-4.7V35.5
			C221.9,33.6,219.9,31,217.1,31z M197.3,70.7c-8.5,0-15.3-6.9-15.3-15.3c0-8.5,6.9-15.3,15.3-15.3c8.5,0,15.3,6.9,15.3,15.3
			C212.6,63.8,205.7,70.7,197.3,70.7z"/>
		<path class="st1" d="M265.7,70.3c-6,0-11.3-4.6-11.3-11.4l0-37.5c0-2.6-2.1-4.4-4.7-4.4c-3,0-4.7,2.2-4.7,4.4V59
			c0,11.6,9.6,20.8,20.6,20.8c3.3,0,4.8-2.6,4.8-4.9C270.4,72.7,268.7,70.3,265.7,70.3z"/>
		<g>
			<g>
				<path class="st2" d="M308.3,96.7c-5.6,0-10.3,4.9-10.3,10.4v8.4c0,1.1,0.9,1.9,1.9,1.9c1.1,0,2-0.8,2-1.8V107
					c0-3.1,2.7-6.5,6.4-6.4c1.2,0,2-0.9,2-2C310.3,97.8,309.7,96.7,308.3,96.7z"/>
			</g>
			<g>
				<path class="st1" d="M331,107.1c0-5.3-4.6-10.3-10.3-10.3c-0.1,0-0.1,0-0.2,0c-5.4,0-10.2,4.6-10.2,10.3
					c0,5.3,4.6,10.3,10.3,10.3c0.1,0,0.1,0,0.2,0C326.3,117.4,331,112.8,331,107.1z M320.7,113.6c-3.6,0-6.5-2.9-6.5-6.4V107
					c0-2.9,1.9-5.3,4.6-6.1c0.6-0.2,1.3-0.3,1.9-0.3c3.6,0,6.5,2.9,6.5,6.4v0.2c0,2.9-1.9,5.3-4.6,6.1
					C322,113.5,321.4,113.6,320.7,113.6z"/>
			</g>
			<g>
				<path class="st2" d="M351.4,96.7c-1.2,0-1.9,1-1.9,1.9v8.5c0,3.3-2.8,6.5-6.6,6.5c-3.1,0-6.5-2.7-6.5-6.4v-8.5
					c0-0.9-0.7-1.9-2-1.9c-0.9,0-1.9,0.8-1.9,1.9v8.5c0,5.5,4.9,10.3,10.3,10.3c5.9,0,10.5-5.1,10.5-10.3v-8.5
					C353.4,97.7,352.6,96.7,351.4,96.7z"/>
			</g>
			<g>
				<path class="st1" d="M365.4,96.7c-2.5,0-4.8,0.9-6.6,2.5v-0.7c0-0.9-0.8-1.8-1.9-1.8c-1.2,0-2.1,1.1-2,1.9l0,25
					c0,1.1,0.9,1.9,2,1.9c1.2,0,2-1,2-2l0-8.5c1.8,1.5,4.2,2.4,6.5,2.4c5.7,0,10.3-5,10.3-10.3C375.7,101.3,370.8,96.7,365.4,96.7z
					 M365.3,113.6c-3.3,0-6-2.4-6.4-5.6v-1.8c0.4-3.2,3.2-5.6,6.4-5.6c3.6,0,6.5,2.9,6.5,6.5C371.8,110.7,368.9,113.6,365.3,113.6z"
					/>
			</g>
			<g>
				<path class="st1" d="M294.4,96.7c-1.1,0-1.9,0.9-1.9,1.8v0.7c-1.8-1.5-4.1-2.5-6.6-2.5c-5.5,0-10.3,4.6-10.3,10.4
					c0,5.3,4.6,10.3,10.3,10.3c2.3,0,4.8-0.9,6.5-2.4c0,0,0,0.8,0.1,0.9c-0.3,2.4-2,4.6-5,5.5c-2,0.6-7.7-0.7-8.2-0.8
					c-1.4-0.2-2,0.9-2,2c0,0.8,0.7,1.5,2,1.9c1.7,0.5,4.7,0.9,7.3,0.9c2,0,9.6-1.5,9.9-9.9c0,0,0-17,0-17
					C296.5,97.8,295.6,96.7,294.4,96.7z M286,113.6c-3.6,0-6.5-2.9-6.5-6.5c0-3.6,2.9-6.5,6.5-6.5c3.6,0,6.5,2.9,6.5,6.5
					C292.5,110.7,289.6,113.6,286,113.6z"/>
			</g>
		</g>
	</g>
</g>
</svg>
