<?xml version="1.0" encoding="UTF-8"?> <svg xmlns="http://www.w3.org/2000/svg" width="112" height="64" viewBox="0 0 112 64" fill="none"> <path d="M7.437 34.982c.166.389.111.888.028 1.194-.14.526-.5 1.081-1.555 1.081-.998 0-1.607-.582-1.607-1.442V34.26H0v1.221c0 3.578 2.803 4.66 5.828 4.66 2.886 0 5.272-.999 5.66-3.661.195-1.388.056-2.275-.028-2.636-.664-3.356-6.743-4.355-7.214-6.214a2.192 2.192 0 01-.029-.831c.112-.499.472-1.082 1.472-1.082.942 0 1.498.583 1.498 1.442v1h3.997v-1.138c0-3.495-3.136-4.022-5.412-4.022-2.858 0-5.162.943-5.606 3.55-.11.721-.14 1.36.028 2.165.722 3.244 6.411 4.187 7.243 6.267zm52.033-.027c.166.388.11.888.027 1.164-.14.528-.5 1.055-1.555 1.055-.998 0-1.58-.583-1.58-1.443v-1.525h-4.246v1.22c0 3.523 2.774 4.604 5.771 4.604 2.86 0 5.218-.97 5.607-3.633.193-1.36.053-2.275-.03-2.608-.665-3.328-6.687-4.3-7.13-6.157a2.155 2.155 0 01-.028-.832c.111-.499.444-1.054 1.443-1.054.915 0 1.47.582 1.47 1.442v.972h3.968v-1.11c0-3.44-3.108-3.994-5.354-3.994-2.804 0-5.107.942-5.55 3.522-.113.693-.14 1.332.027 2.136.722 3.245 6.355 4.188 7.16 6.241zm33.217 1.414l-.222-12.87h3.967v15.81h-5.716l-4.023-13.285.222 13.285h-3.941v-15.81h5.939l3.774 12.87zM20.729 24.664l-2.22 14.812h-4.328L17.122 23.5h7.132l2.942 15.976h-4.302L20.73 24.664zm23.367 0L41.32 39.477H37.27l-2.747-14.813-.111 14.812h-3.996l.332-15.976h6.522l2.026 12.48 2.027-12.48h6.52l.36 15.976h-3.995l-.11-14.812h-.002zM72.9 37.092c1.109 0 1.47-.778 1.526-1.166.028-.167.028-.417.028-.611V23.471h4.052v11.485c0 .304-.029.887-.029 1.053-.277 2.997-2.637 3.967-5.577 3.967-2.943 0-5.3-.97-5.579-3.967a6.183 6.183 0 01-.027-1.053V23.471h4.052v11.844c0 .194 0 .444.027.611.083.416.417 1.164 1.527 1.164v.002zm33.411-.167c1.165 0 1.554-.75 1.637-1.166.028-.193.055-.416.028-.611V32.82h-1.637v-2.33H112v4.299c0 .305 0 .527-.054 1.054-.278 2.913-2.804 3.938-5.634 3.938-2.831 0-5.357-1.025-5.633-3.938-.056-.527-.056-.749-.056-1.055v-6.74c0-.277.028-.777.056-1.054.361-2.995 2.775-3.938 5.633-3.938 2.83 0 5.328.942 5.606 3.938.055.5.028 1.054.028 1.054v.527h-4.053v-.887s0-.389-.055-.611c-.083-.36-.388-1.165-1.609-1.165-1.166 0-1.498.777-1.582 1.166-.056.221-.056.499-.056.749v7.322c0 .194 0 .416.028.611.112.443.527 1.165 1.694 1.165h-.001z" fill="#0B1BAA"></path> </svg> 