<?xml version="1.0" encoding="UTF-8"?> <svg xmlns="http://www.w3.org/2000/svg" id="Layer_1" data-name="Layer 1" viewBox="0 0 286 286"> <defs> <style> .cls-1 { fill: #e9e3fa; } .cls-2 { fill: #d7ccf6; } .cls-3 { fill: #c4b5f2; } .cls-4 { fill: #b29fee; } .cls-5 { fill: #a088ea; } .cls-6 { fill: #8d71e6; } .cls-7 { fill: #7b5ae2; } </style> </defs> <title>sa-icon-Artboard 10 copy 4-</title> <g> <path class="cls-1" d="M91.77,59.6,56.3,95.11a72.37,72.37,0,0,0,0,102.46L91.8,233a72.4,72.4,0,0,0,102.46,0l35.47-35.47a72.4,72.4,0,0,0,1-101.5l-.07-.09-.09-.07-36.33-36.3a72.38,72.38,0,0,0-102.47,0Z"></path> <path class="cls-2" d="M95.28,69.5l-31,31c-1.22,1.22-2.55,2.65-3.65,3.94a60.65,60.65,0,0,0-14.23,40.73c.27,16.11,8.26,33.25,19.7,44.68l31.33,31.31c11.41,11.43,28.61,18.44,44.68,19.67a54,54,0,0,0,28.19-6,71.9,71.9,0,0,0,17.37-12.72l31.73-31.74c11.46-11.43,19.93-29.07,20.2-45.18a60.91,60.91,0,0,0-14.21-40.73c-.86-1-1.88-2.13-2.81-3.1l-.06-.07-.07-.06L190.74,69.48a56.17,56.17,0,0,0-8-6.43C172.27,55.79,156,51.4,143,51.4s-29.27,4.4-39.78,11.66A55.47,55.47,0,0,0,95.28,69.5Z"></path> <path class="cls-3" d="M98.78,79.39l-26.47,26.5c-1,1-2.24,2.33-3.13,3.36C60.84,119,57.29,131.45,57.8,144c.51,12.88,9,29,18.14,38.12l27.16,27.15c9.13,9.14,25.43,15.84,38.12,18.11,8.36,1.5,17.12-.87,24.73-4.83a73.29,73.29,0,0,0,15.16-11.44l28-28c9.17-9.14,18.62-26.23,19.14-39.11.5-12.51-3.07-25-11.37-34.76-.69-.81-1.67-1.86-2.41-2.63l0-.07-.06,0L187.24,79.38a42.59,42.59,0,0,0-7.45-5.6c-8.62-5.49-26.38-9.32-36.78-9.32s-28.16,3.83-36.78,9.33A42.59,42.59,0,0,0,98.78,79.39Z"></path> <path class="cls-4" d="M102.29,89.29l-22,22c-.73.72-1.94,2-2.61,2.78-7,8.08-9.29,18.56-8.54,28.79.71,9.64,9.71,24.7,16.58,31.56l23,23c6.85,6.86,22.36,13.57,31.56,16.55,6.88,2.24,14.72,0,21.27-3.62,3.49-1.91,10-7.26,12.95-10.16l24.28-24.29c6.87-6.85,17.35-23.41,18.06-33,.75-10.19-1.58-20.7-8.53-28.79-.52-.6-1.44-1.59-2-2.17l0-.05-.05,0L183.74,89.28a32.07,32.07,0,0,0-7-4.77c-6.64-3.82-26-7-33.77-7s-27.15,3.16-33.79,7A31.9,31.9,0,0,0,102.29,89.29Z"></path> <path class="cls-5" d="M105.79,99.18,88.32,116.66c-.48.49-1.63,1.69-2.08,2.2-5.61,6.43-6.7,14.87-5.69,22.82.81,6.4,10.43,20.43,15,25l18.84,18.84c4.57,4.57,19.36,11.87,25,15,5.3,2.93,12.31.77,17.81-2.42,2.29-1.33,8.8-6.95,10.74-8.88l20.55-20.56c4.58-4.57,16.18-20.59,17-27,1-7.93-.1-16.38-5.69-22.82-.35-.4-1.23-1.33-1.6-1.71l0,0,0,0-17.92-17.9c-1.85-1.85-4.25-2.82-6.44-3.93-4.56-2.3-25.58-4.66-30.78-4.66S116.8,93,112.24,95.25C110,96.36,107.64,97.33,105.79,99.18Z"></path> <path class="cls-6" d="M109.3,109.08l-13,13c-.24.24-1.33,1.36-1.56,1.62a15.68,15.68,0,0,0-2.85,16.85c0,3.22,11.16,16.16,13.45,18.44l14.68,14.68c2.29,2.29,15.22,13.44,18.44,13.44,4.36,2.5,9.88,1.61,14.35-1.21,1.12-.71,7.56-6.64,8.53-7.61l16.82-16.82c2.29-2.28,15.93-17.7,15.93-20.92a15.7,15.7,0,0,0-2.84-16.86c-.18-.2-1-1.06-1.2-1.25v0h0l-13.32-13.31A11,11,0,0,0,170.8,106c-2.06-1.51-25.18-2.33-27.78-2.33s-25.72.82-27.78,2.34A10.91,10.91,0,0,0,109.3,109.08Z"></path> <path class="cls-7" d="M167.8,116.72H118.24A7.7,7.7,0,0,0,112.8,119l-9.5,9.5a7.7,7.7,0,0,0,0,10.89l34.28,34.28a7.71,7.71,0,0,0,10.89,0l34.28-34.28a7.71,7.71,0,0,0,0-10.89l-9.5-9.5A7.74,7.74,0,0,0,167.8,116.72Z"></path> </g> </svg> 