<?xml version="1.0" encoding="UTF-8"?> <svg xmlns="http://www.w3.org/2000/svg" width="482" height="252" viewBox="0 0 482 252" fill="none"> <g id="Group 11"> <g id="pro-7"> <rect id="Rectangle Copy 16" width="482" height="252" rx="8" transform="matrix(-1 0 0 1 482 0)" fill="url(#paint0_linear)"></rect> <mask id="mask0" maskUnits="userSpaceOnUse" x="0" y="0" width="482" height="252"> <rect id="Rectangle Copy 16_2" width="482" height="252" rx="8" transform="matrix(-1 0 0 1 482 0)" fill="white"></rect> </mask> <g mask="url(#mask0)"> <path id="Stroke 21 Copy 6" d="M97 -41L13 89.1081" stroke="white" stroke-width="10"></path> <path id="Stroke 21 Copy 14" d="M336 -108V51.8919" stroke="white" stroke-width="20"></path> <path id="Stroke 21 Copy 6_2" d="M55 177L-29 260" stroke="#FFCE6E" stroke-width="9"></path> <path id="Stroke 21 Copy 7" d="M455 118L371 201" stroke="white" stroke-width="2" stroke-linecap="round"></path> <path id="Stroke 21 Copy 8" d="M450.5 -93.9888V62.9889" stroke="#66CC66" stroke-width="11"></path> <path id="Stroke 21 Copy 24" d="M353.277 215.259L431.766 351.206" stroke="#66CC66" stroke-width="11"></path> <path id="Stroke 1 Copy 5" d="M261.721 105.1C282.229 103.771 301.047 92.6064 313.249 76.5202C321.294 65.9144 326.462 53.1691 327.341 39.6922" stroke="#222437" stroke-width="6"></path> <path id="Stroke 21 Copy 7_2" d="M213 208L107 313" stroke="white" stroke-width="4" stroke-linecap="round"></path> <path id="Stroke 21 Copy 17" d="M240.876 181.12C240.876 181.12 241.867 195.456 234.929 202.146C227.991 208.836 213.124 207.881 213.124 207.881C213.124 207.881 212.133 193.544 219.071 186.854C226.009 180.164 240.876 181.12 240.876 181.12Z" fill="#222437"></path> <path id="Stroke 21 Copy 8_2" d="M166 267L208 108" stroke="#66CC66" stroke-width="10"></path> <path id="Stroke 21 Copy 6_3" d="M152 155L179.186 202.308" stroke="#6C7BDF" stroke-width="6"></path> </g> </g> <path id="Title" d="M47.568 203.932C49.044 202.744 49.944 201.052 49.944 198.892C49.944 194.68 46.524 191.8 42.276 191.8H32.34V217H43.032C47.388 217 50.88 214.012 50.88 209.692C50.88 207.064 49.584 205.084 47.568 203.932ZM42.276 196.444C43.86 196.444 44.976 197.632 44.976 199.216C44.976 200.8 43.824 201.988 42.276 201.988H37.308V196.444H42.276ZM43.032 212.356H37.308V206.416H43.032C44.724 206.416 45.948 207.676 45.948 209.368C45.948 211.096 44.724 212.356 43.032 212.356ZM67.8821 199V201.124C66.5861 199.504 64.6421 198.496 62.0141 198.496C57.2261 198.496 53.2661 202.636 53.2661 208C53.2661 213.364 57.2261 217.504 62.0141 217.504C64.6421 217.504 66.5861 216.496 67.8821 214.876V217H72.5261V199H67.8821ZM62.8781 213.076C60.0341 213.076 57.9101 211.024 57.9101 208C57.9101 204.976 60.0341 202.924 62.8781 202.924C65.7581 202.924 67.8821 204.976 67.8821 208C67.8821 211.024 65.7581 213.076 62.8781 213.076ZM80.8807 204.112C80.8807 203.14 81.8167 202.636 82.9687 202.636C84.3007 202.636 85.3087 203.32 85.8487 204.472L89.8087 202.312C88.4047 199.828 85.8847 198.496 82.9687 198.496C79.2607 198.496 76.1287 200.548 76.1287 204.22C76.1287 210.556 85.4167 209.116 85.4167 211.744C85.4167 212.788 84.4087 213.292 82.9327 213.292C81.1327 213.292 79.9087 212.428 79.4047 210.952L75.3727 213.22C76.6687 215.992 79.3327 217.504 82.9327 217.504C86.7847 217.504 90.1687 215.632 90.1687 211.744C90.1687 205.12 80.8807 206.776 80.8807 204.112ZM95.4593 196.84C97.0433 196.84 98.3393 195.544 98.3393 193.996C98.3393 192.448 97.0433 191.116 95.4593 191.116C93.9113 191.116 92.6153 192.448 92.6153 193.996C92.6153 195.544 93.9113 196.84 95.4593 196.84ZM93.1553 217H97.7993V199H93.1553V217ZM110.618 217.504C114.146 217.504 117.206 215.632 118.754 212.824L114.722 210.52C114.002 211.996 112.454 212.896 110.582 212.896C107.81 212.896 105.758 210.844 105.758 208C105.758 205.12 107.81 203.068 110.582 203.068C112.418 203.068 113.966 204.004 114.686 205.48L118.682 203.14C117.206 200.368 114.146 198.496 110.618 198.496C105.146 198.496 101.114 202.636 101.114 208C101.114 213.364 105.146 217.504 110.618 217.504Z" fill="white"></path> </g> <defs> <linearGradient id="paint0_linear" x1="572.698" y1="244.38" x2="548.904" y2="-36.1371" gradientUnits="userSpaceOnUse"> <stop stop-color="#A9AEFF"></stop> <stop offset="0.5139" stop-color="#ACECFE"></stop> <stop offset="1" stop-color="white"></stop> </linearGradient> </defs> </svg> 