<?xml version="1.0" encoding="UTF-8"?> <svg xmlns="http://www.w3.org/2000/svg" width="1584" height="396" viewBox="0 0 1584 396" fill="none"> <g clip-path="url(#clip0_911_575)"> <rect width="1584" height="396" transform="translate(1584 396) rotate(-180)" fill="url(#paint0_linear_911_575)"></rect> <g opacity="0.45"> <g opacity="0.65" filter="url(#filter0_f_911_575)"> <path fill-rule="evenodd" clip-rule="evenodd" d="M1364 159.93L1243.51 159.93L1243.51 280.421L1364 280.421L1364 159.93Z" fill="url(#paint1_linear_911_575)"></path> </g> <path fill-rule="evenodd" clip-rule="evenodd" d="M1165.41 103.572L1232.41 36.5727L1255.86 60.0233L1177.14 138.748C1170.66 145.224 1160.16 145.224 1153.69 138.748L1116.07 101.126L1139.52 77.6756L1165.41 103.572Z" fill="url(#paint2_linear_911_575)"></path> <path fill-rule="evenodd" clip-rule="evenodd" d="M1115.86 210.139L1153.1 210.139C1230.79 210.139 1293.77 146.974 1293.77 69.0556L1293.77 35.8596L1310.32 35.8596L1310.32 69.0556C1310.32 156.141 1239.93 226.737 1153.1 226.737L1115.86 226.737L1115.86 210.139Z" fill="url(#paint3_linear_911_575)"></path> <path fill-rule="evenodd" clip-rule="evenodd" d="M1078.48 242.246C1051.03 242.246 1028.77 219.991 1028.77 192.538L1028.77 -6.29236C1028.77 -33.7451 1051.03 -56 1078.48 -56L1277.31 -56C1304.76 -56 1327.02 -33.7451 1327.02 -6.29237L1327.02 192.538C1327.02 219.991 1304.76 242.246 1277.31 242.246L1078.48 242.246ZM1061.91 192.538C1061.91 201.689 1069.33 209.107 1078.48 209.107L1277.31 209.107C1286.46 209.107 1293.88 201.689 1293.88 192.538L1293.88 -6.29237C1293.88 -15.4433 1286.46 -22.8616 1277.31 -22.8616L1078.48 -22.8616C1069.33 -22.8616 1061.91 -15.4433 1061.91 -6.29236L1061.91 192.538Z" fill="url(#paint4_linear_911_575)"></path> </g> </g> <defs> <filter id="filter0_f_911_575" x="1195.51" y="111.93" width="216.491" height="216.491" filterUnits="userSpaceOnUse" color-interpolation-filters="sRGB"> <feFlood flood-opacity="0" result="BackgroundImageFix"></feFlood> <feBlend mode="normal" in="SourceGraphic" in2="BackgroundImageFix" result="shape"></feBlend> <feGaussianBlur stdDeviation="24" result="effect1_foregroundBlur_911_575"></feGaussianBlur> </filter> <linearGradient id="paint0_linear_911_575" x1="169.58" y1="367.706" x2="180.077" y2="-96.3307" gradientUnits="userSpaceOnUse"> <stop></stop> <stop offset="0.515625" stop-color="#664FED"></stop> <stop offset="1" stop-color="#61F3D9"></stop> </linearGradient> <linearGradient id="paint1_linear_911_575" x1="1243.51" y1="98.776" x2="1337.13" y2="252.159" gradientUnits="userSpaceOnUse"> <stop stop-color="#6C63FF"></stop> <stop offset="1" stop-color="#7AB7FE"></stop> </linearGradient> <linearGradient id="paint2_linear_911_575" x1="1091.02" y1="76.0808" x2="1194.48" y2="127.849" gradientUnits="userSpaceOnUse"> <stop stop-color="#6C63FF"></stop> <stop offset="1" stop-color="#7AB7FE"></stop> </linearGradient> <linearGradient id="paint3_linear_911_575" x1="1409.01" y1="35.8599" x2="1163.99" y2="188.22" gradientUnits="userSpaceOnUse"> <stop stop-color="#6C63FF"></stop> <stop offset="1" stop-color="#7AB7FE"></stop> </linearGradient> <linearGradient id="paint4_linear_911_575" x1="1478.39" y1="-55.9996" x2="1098.73" y2="175.738" gradientUnits="userSpaceOnUse"> <stop stop-color="#6C63FF"></stop> <stop offset="1" stop-color="#7AB7FE"></stop> </linearGradient> <clipPath id="clip0_911_575"> <rect width="1584" height="396" fill="white" transform="translate(1584 396) rotate(-180)"></rect> </clipPath> </defs> </svg> 