<?xml version="1.0" encoding="utf-8"?>
<!-- Generator: Adobe Illustrator 16.0.0, SVG Export Plug-In . SVG Version: 6.00 Build 0)  -->
<!DOCTYPE svg PUBLIC "-//W3C//DTD SVG 1.1//EN" "http://www.w3.org/Graphics/SVG/1.1/DTD/svg11.dtd">
<svg version="1.1" id="Layer_1" xmlns="http://www.w3.org/2000/svg" xmlns:xlink="http://www.w3.org/1999/xlink" x="0px" y="0px"
	 width="1680px" height="900px" viewBox="0 0 1680 900" enable-background="new 0 0 1680 900" xml:space="preserve">
<rect x="0" fill="#FFFFFF" width="1680" height="900"/>
<g opacity="0.3">
	
		<image overflow="visible" opacity="0.8" enable-background="new    " width="1333" height="1329" xlink:href="D9F0E500EAC882B5.png"  transform="matrix(0.2393 0 0 0.2393 404.7922 -44.6592)">
	</image>
	<g>
		<path fill="#FFFFFF" d="M612,64.1c31.5,30,35.6,76.7,9.199,104.4c-26.399,27.7-73.3,25.9-104.8-4.1s-35.6-76.7-9.2-104.4
			C533.6,32.3,580.5,34.1,612,64.1z"/>
	</g>
</g>
<g opacity="0.6">
	
		<image overflow="visible" opacity="0.8" enable-background="new    " width="1008" height="996" xlink:href="D9F0E500EAC882B7.png"  transform="matrix(0.2395 0 0 0.2388 499.3147 -56.5811)">
	</image>
	<g>
		<path fill="#FFFFFF" d="M635.5,46c26.199,25,40.5,52.5,31.899,61.5c-8.6,9-36.7-3.9-62.899-28.9c-26.2-25-40.5-52.6-31.9-61.5
			C581.1,8.1,609.3,21,635.5,46z"/>
	</g>
</g>
<g>
	<path fill="#FFFFFF" d="M681,38.5L639.1-3.3c-16.2-16.2-37.6-25-60.4-25c-22.8,0-44.3,8.9-60.399,25l-41.801,41.8
		c-16.199,16.1-25.1,37.6-25.1,60.4c0,22.8,8.9,44.3,25.1,60.4l41.9,41.8c16.2,16.2,37.6,25,60.4,25c22.2,0,43.3-8.5,59.3-23.9
		l0.1-0.1l0.101-0.1l42.8-42.8c16.2-16.1,25.1-37.6,25.1-60.4C706,76.1,697.1,54.7,681,38.5z"/>
</g>
<g opacity="0.6">
	
		<image overflow="visible" opacity="0.8" enable-background="new    " width="1238" height="1208" xlink:href="D9F0E500EAC882B2.png"  transform="matrix(0.2386 0 0 0.2392 981.8479 -54.6299)">
	</image>
	<g>
		<path fill="#FFFFFF" d="M1145,73.4c41.6,39.6,68.3,79,59.699,88c-8.6,9-49.199-15.8-90.8-55.4c-41.6-39.6-68.3-79-59.7-88
			C1062.9,9.1,1103.5,33.9,1145,73.4z"/>
	</g>
</g>
<path fill="#EDEDED" d="M1564.1,121.9l-3.5-3.5c-1.3-1.4-3.1-2.1-5.1-2.1c-1.9,0-3.7,0.7-5.101,2.1l-3.5,3.5
	c-1.399,1.4-2.1,3.1-2.1,5.1c0,1.9,0.7,3.7,2.1,5.1l3.5,3.5c1.4,1.4,3.101,2.1,5.101,2.1c1.899,0,3.6-0.7,5-2l0,0l0,0l3.6-3.6
	c1.4-1.4,2.1-3.1,2.1-5.1C1566.199,125.1,1565.5,123.3,1564.1,121.9z M1561.8,129.5l-3.601,3.6c-0.699,0.6-1.6,1-2.6,1
	s-1.9-0.4-2.6-1.1l1.699-1.7c0.2,0.2,0.5,0.4,0.9,0.4c0.3,0,0.7-0.1,0.9-0.4l3.5-3.5c0.199-0.2,0.399-0.5,0.399-0.9
	c0-0.3-0.1-0.7-0.399-0.9c-0.2-0.2-0.5-0.4-0.9-0.4c-0.3,0-0.7,0.1-0.9,0.4l-3.5,3.5c-0.699,0.7-1.6,1.1-2.6,1.1s-1.9-0.4-2.6-1.1
	c-0.7-0.7-1.101-1.6-1.101-2.6s0.4-1.9,1.101-2.6l3.5-3.5c0.699-0.7,1.6-1.1,2.6-1.1s1.9,0.4,2.6,1.1l-1.699,1.7
	c-0.2-0.2-0.5-0.4-0.9-0.4c-0.3,0-0.7,0.1-0.9,0.4l-3.5,3.5c-0.199,0.2-0.399,0.5-0.399,0.9c0,0.3,0.1,0.7,0.399,0.9
	c0.2,0.2,0.5,0.4,0.9,0.4s0.7-0.1,0.9-0.4l3.5-3.5c0.699-0.7,1.6-1.1,2.6-1.1s1.9,0.4,2.6,1.1c0.7,0.7,1.101,1.6,1.101,2.6
	C1562.9,127.9,1562.5,128.9,1561.8,129.5z"/>
<path fill="#F6F6F6" d="M1200.6,77.6l-57.8-57.5c-22.301-22.2-51.9-34.4-83.4-34.4s-61.1,12.2-83.4,34.4l-57.8,57.5
	c-22.3,22.2-34.6,51.7-34.6,83c0,31.4,12.3,60.9,34.6,83l57.8,57.5c22.301,22.2,51.9,34.4,83.4,34.4c30.7,0,59.7-11.7,81.8-32.9
	l0.101-0.1l0.1-0.1l59.1-58.8c22.301-22.2,34.601-51.7,34.601-83.1C1235.199,129.3,1222.9,99.8,1200.6,77.6"/>
<path opacity="0.4" fill="#E5E5E5" enable-background="new    " d="M289.9,224.3L262.7,197.2C252.2,186.7,238.2,181,223.4,181
	c-14.8,0-28.8,5.7-39.3,16.2l-27.2,27.1c-10.5,10.5-16.3,24.4-16.3,39.1c0,14.8,5.8,28.7,16.3,39.1l27.2,27.1
	c10.5,10.5,24.5,16.2,39.3,16.2c14.5,0,28.101-5.5,38.601-15.5h0.1l0.101-0.1l27.899-27.7c10.5-10.5,16.3-24.4,16.3-39.2
	C306.2,248.7,300.4,234.8,289.9,224.3"/>
<g>
	
		<line fill="none" stroke="#FFFFFF" stroke-width="16" stroke-linecap="round" stroke-linejoin="round" stroke-miterlimit="10" x1="189.3" y1="263.2" x2="256.9" y2="263.2"/>
	<polyline fill="none" stroke="#FFFFFF" stroke-width="16" stroke-linejoin="round" stroke-miterlimit="10" points="223.1,228.5 
		257.8,263.2 223.1,297.9 	"/>
</g>
<g>
	<path fill="#C6C6C6" d="M578.1,95.5v9.8h-1v-2.1c-0.8,1.5-2.2,2.3-4,2.3c-1.2,0-2.1-0.4-2.9-1.2c-0.7-0.8-1.1-1.8-1.1-3.1v-5.8h1
		v5.7c0,2.1,1.2,3.4,3.1,3.4c2.3,0,3.9-1.6,3.9-4.2v-4.9h1V95.5z"/>
	<path fill="#C6C6C6" d="M581.9,102.4c0.101,1.4,1.5,2.3,3.3,2.3c1.7,0,2.801-0.7,2.801-2c0-1-0.7-1.4-1.9-1.7l-2.4-0.5
		c-1.6-0.3-2.399-1.1-2.399-2.4c0-1.7,1.399-2.8,3.6-2.8c2.1,0,3.5,1.1,3.8,2.6l-0.899,0.2c-0.301-1.3-1.4-2.1-3-2.1
		c-1.601,0-2.601,0.8-2.601,1.9c0,1,0.601,1.4,1.8,1.6l2.4,0.5c1.7,0.4,2.5,1.2,2.5,2.4c0,1.8-1.5,2.9-3.8,2.9s-4-1.1-4.2-2.9H581.9
		z"/>
</g>
<path opacity="0.4" fill="#66CC66" d="M1423.199,264.3l-6.699-6.6c-2.601-2.6-6-4-9.601-4c-3.6,0-7,1.4-9.6,4l-6.7,6.6
	c-2.6,2.6-4,6-4,9.6s1.4,7,4,9.6l6.7,6.6c2.6,2.6,6,4,9.6,4c3.5,0,6.9-1.4,9.4-3.8l0,0l0,0l6.8-6.8c2.6-2.6,4-6,4-9.6
	C1427.199,270.2,1425.8,266.8,1423.199,264.3"/>
<line fill="none" stroke="#FFFFFF" stroke-width="6" stroke-miterlimit="10" x1="1416.199" y1="273.8" x2="1398.199" y2="273.8"/>
<line fill="none" stroke="#FFFFFF" stroke-width="6" stroke-miterlimit="10" x1="1407.199" y1="282.8" x2="1407.199" y2="264.8"/>
<g>
	<g>
		<path fill="#FFFFFF" d="M1079.6,143.9c0,11.1-9,20.1-20.1,20.1c-11.101,0-20.101-9-20.101-20.1s9-20.1,20.101-20.1
			C1070.6,123.7,1079.6,132.8,1079.6,143.9z"/>
		<path fill="#FFFFFF" d="M1032.6,197.5c0-14.8,12-26.8,26.8-26.8s26.8,12,26.8,26.8"/>
	</g>
</g>
</svg>
