<?xml version="1.0" encoding="utf-8"?>
<!-- Generator: Adobe Illustrator 21.1.0, SVG Export Plug-In . SVG Version: 6.00 Build 0)  -->
<svg version="1.1" id="Слой_1" xmlns="http://www.w3.org/2000/svg" xmlns:xlink="http://www.w3.org/1999/xlink" x="0px" y="0px"
	 viewBox="0 0 300 300" style="enable-background:new 0 0 300 300;" xml:space="preserve">
<style type="text/css">
	.st0{fill:none;stroke:#000000;stroke-width:5;stroke-miterlimit:10;}
</style>
<path d="M65.9,39.1l-1.5,4.4C63,43,61.9,42.8,61.1,43c-0.8,0.1-1.7,0.6-2.5,1.3c-1,0.9-1.6,1.9-1.8,3.1c-0.2,1.2,0.1,2.2,0.9,3.1
	c1.1,1.2,2.8,1.4,5.2,0.6l3.4-1.1c2.7-0.9,5.1-1.2,7-0.9c2,0.4,3.7,1.4,5.1,3.1c2,2.3,2.9,4.8,2.6,7.6c-0.2,2.8-1.5,5.2-3.7,7.2
	c-2.1,1.9-4.5,2.8-7,2.7c-2.5-0.1-4.9-1.1-7.3-3.1l3.1-4.1c1.4,1.3,2.6,2.1,3.5,2.2c1.7,0.4,3.3,0,4.8-1.3c1.2-1,1.8-2.2,1.9-3.7
	c0.1-1.5-0.4-2.8-1.4-4c-0.4-0.5-0.9-0.9-1.4-1.2c-0.5-0.3-1-0.5-1.6-0.6c-0.6-0.1-1.2-0.1-1.9,0c-0.7,0.1-1.5,0.3-2.3,0.6l-3.3,1.1
	c-4.6,1.5-8.2,0.9-10.6-1.9c-1.6-1.9-2.3-4-1.9-6.5c0.3-2.5,1.5-4.7,3.7-6.5C58.4,38.2,61.8,37.7,65.9,39.1z"/>
<path d="M83.5,38l12.6-6.4l-5.8-11.5l4.4-2.3l14.9,29.3l-4.4,2.3l-7-13.7l-12.6,6.4l7,13.7l-4.4,2.3L73.2,28.8l4.4-2.3L83.5,38z"/>
<path d="M146.5,10.5l1.2,28.2l-5,0.2l-1.2-28.2l-7.5,0.3l-0.2-4.7l20-0.9l0.2,4.7L146.5,10.5z"/>
<path d="M168.9,6.9l-3.6,19.5c-0.5,2.8-0.4,4.9,0.2,6.3c1,2.1,2.7,3.4,5.2,3.8c2.5,0.5,4.6-0.1,6.3-1.7c1.1-1.1,2-3,2.5-5.8
	l3.6-19.5l4.9,0.9l-3.8,20.8c-0.6,3.4-2.2,6-4.7,7.8c-2.8,2-6,2.7-9.5,2.1c-3.5-0.6-6.2-2.4-8.1-5.3c-1.7-2.6-2.3-5.6-1.6-9L164,6
	L168.9,6.9z"/>
<path d="M200.5,29l17.2-6.4l6,2.8l-19.8,7.1l5.8,22.6l-6-2.8l-4.5-18.3l-1.4,0.5l-5.8,12.3l-4.5-2.1l14-29.7l4.5,2.1L200.5,29z"/>
<path d="M233.2,65.5l-10.3-9.6l-8.1,3.3l-3.9-3.6l35.7-14.5l-12.4,36.2l-4-3.7L233.2,65.5z M234.9,60.8l4.1-11.5l-11.4,4.7
	L234.9,60.8z"/>
<path d="M109.2,259.2l-4.7-0.1c0-1.5-0.1-2.6-0.5-3.3c-0.4-0.8-1-1.4-2-2c-1.2-0.7-2.4-1-3.5-0.8c-1.2,0.2-2.1,0.8-2.7,1.8
	c-0.8,1.4-0.5,3.1,1,5.2l2.1,2.9c1.7,2.3,2.7,4.5,2.9,6.4c0.2,2-0.2,3.9-1.4,5.8c-1.6,2.6-3.7,4.2-6.5,4.8c-2.8,0.6-5.4,0.2-8-1.4
	c-2.4-1.5-4-3.4-4.7-5.8c-0.7-2.4-0.4-5,0.8-7.9l4.9,1.7c-0.8,1.8-1.2,3.1-1.1,4c0.1,1.7,1,3.1,2.7,4.1c1.3,0.8,2.7,1,4.1,0.7
	c1.4-0.3,2.5-1.2,3.4-2.6c0.3-0.5,0.6-1.1,0.7-1.6c0.1-0.5,0.1-1.1,0.1-1.7c-0.1-0.6-0.3-1.2-0.6-1.8c-0.3-0.6-0.7-1.3-1.2-2.1
	l-2-2.8c-2.8-4-3.3-7.5-1.4-10.6c1.3-2.1,3.2-3.4,5.6-3.8c2.5-0.4,4.9,0.1,7.3,1.5C107.8,251.8,109.3,254.9,109.2,259.2z"/>
<path d="M126.5,261.9l-6.8,27.4l-4.8-1.2l6.8-27.4l-7.3-1.8l1.1-4.5l19.5,4.8l-1.1,4.5L126.5,261.9z"/>
<path d="M134.5,283.9c-2-4.2-2.2-8.5-0.6-12.9c1.6-4.5,4.5-7.7,8.8-9.8c4.2-2,8.6-2.3,13-0.7c4.5,1.6,7.7,4.5,9.8,8.7
	c2.1,4.3,2.3,8.6,0.7,13c-1.6,4.5-4.6,7.7-8.9,9.8c-3.8,1.8-7.9,2.2-12.2,1C140.3,291.7,136.7,288.7,134.5,283.9z M139,281.8
	c1.6,3.3,4,5.4,7.2,6.5c3.2,1.1,6.2,0.9,9.1-0.5c3.1-1.5,5.2-3.8,6.3-7c1.1-3.2,0.9-6.4-0.6-9.5c-1.5-3.2-3.8-5.3-7-6.4
	c-3.1-1.1-6.2-1-9.3,0.5c-3.1,1.5-5.2,3.8-6.3,7C137.3,275.6,137.5,278.7,139,281.8z"/>
<path d="M185.5,273.2l13.6,10.7l-5.8,1.7l-12.7-10.3l-0.9,0.2l3.7,12.9l-4.8,1.4l-9.1-31.6l5.6-1.6c4.2-1.2,7.4-1.3,9.7-0.2
	c2.5,1.2,4.2,3.2,5.1,6c0.6,2.2,0.6,4.3-0.3,6.3C188.9,270.7,187.5,272.2,185.5,273.2z M178.6,271.3l1.5-0.4
	c4.5-1.3,6.3-3.7,5.3-7.1c-0.9-3.2-3.6-4.2-8-3l-1.7,0.5L178.6,271.3z"/>
<path d="M211.3,246.8l-11.6,6.3l3.8,6.9l11.3-6.1l2.2,4.1l-11.3,6.1l5.2,9.7l11.6-6.3l2.2,4.1l-16,8.6l-15.6-28.9l16-8.6
	L211.3,246.8z"/>
<path d="M126.2,12.2l-12.8,3.2l1.9,7.7l12.4-3.1l1.1,4.5l-12.4,3.1l2.6,10.7l12.8-3.2l1.1,4.5L115.4,44l-7.9-31.9l17.6-4.4
	L126.2,12.2z"/>
<path class="st0" d="M253.7,82.6c12.6,19.4,19.9,42.5,19.9,67.4c0,27.6-9,53.1-24.3,73.7"/>
<path class="st0" d="M50.6,223.7c-15.3-20.6-24.3-46.1-24.3-73.7c0-24.8,7.3-48,19.9-67.4"/>
<circle cx="64.7" cy="239.9" r="5"/>
<circle cx="235" cy="239.9" r="5"/>
</svg>
