<?xml version="1.0" encoding="UTF-8"?> <svg xmlns="http://www.w3.org/2000/svg" xmlns:xlink="http://www.w3.org/1999/xlink" width="435px" height="181px" viewBox="0 0 435 181"> <!-- Generator: Sketch 63.1 (92452) - https://sketch.com --> <title>Tryit</title> <desc>Created with Sketch.</desc> <g id="Page-1" stroke="none" stroke-width="1" fill="none" fill-rule="evenodd"> <path d="M50,140 L50,3.6 L96,3.6 L96,0 L0,0 L0,3.6 L46,3.6 L46,140 L50,140 Z M124,140 L124,84.4 C124,57.2 141.4,42.4 161,42.4 L161,38.8 C145.8,38.8 129,47 124,66.8 L124,40 L120,40 L120,140 L124,140 Z M221.2,149.2 L265,40 L261,40 L221,139.8 L175,40 L171,40 L219,144.4 L217.6,148 C210,166 197.2,177.6 183,176.4 L183,180 C198.8,181.4 213.4,168.6 221.2,149.2 Z M349,9.8 C351.6,9.8 353.6,7.6 353.6,5.2 C353.6,2.8 351.6,0.6 349,0.6 C346.4,0.6 344.4,2.8 344.4,5.2 C344.4,7.6 346.4,9.8 349,9.8 Z M351,140 L351,40 L347,40 L347,140 L351,140 Z M434.8,140 L434.8,136.4 C412.2,139.8 403,135.8 403,117.8 L403,43.6 L434.8,43.6 L434.8,40 L403,40 L403,12 L399,13.2 L399,40 L375,40 L375,43.6 L399,43.6 L399,117.8 C399,137.8 410,144 434.8,140 Z" id="Tryit" fill="#FFFFFF" fill-rule="nonzero"></path> </g> </svg> 