<?xml version="1.0" encoding="iso-8859-1"?>
<!-- Generator: Adobe Illustrator 22.0.1, SVG Export Plug-In . SVG Version: 6.00 Build 0)  -->
<svg version="1.1" id="Layer_1" xmlns="http://www.w3.org/2000/svg" xmlns:xlink="http://www.w3.org/1999/xlink" x="0px" y="0px"
	 viewBox="0 0 100.25 100.25" style="enable-background:new 0 0 100.25 100.25;" xml:space="preserve">
<g>
	<path d="M78.64,17.25H20.428c-4.096,0-7.428,3.366-7.428,7.504v43.001c0,4.133,3.333,7.495,7.428,7.495H28v15.245
		c0,0.597,0.354,1.137,0.901,1.375c0.193,0.084,0.396,0.125,0.599,0.125c0.372,0,0.739-0.139,1.022-0.401L48.096,75.25H78.64
		c4.059,0,7.36-3.362,7.36-7.495V24.754C86,20.616,82.698,17.25,78.64,17.25z M83,67.755c0,2.479-1.956,4.495-4.36,4.495
		l-31.135,0.001c-0.379,0-0.744,0.144-1.021,0.401L31,87.052V73.75c0-0.828-0.671-1.5-1.5-1.5h-9.072
		c-2.442,0-4.428-2.017-4.428-4.495V24.754c0-2.483,1.986-4.504,4.428-4.504H78.64c2.404,0,4.36,2.021,4.36,4.504V67.755z"/>
	<path d="M55.995,33.625c-0.004,0-0.007,0-0.011,0c-2.771,0-5.295,1.324-6.883,3.441c-1.597-2.095-4.113-3.407-6.862-3.411
		c-0.004,0-0.007,0-0.011,0c-2.302,0-4.464,0.895-6.089,2.52c-1.625,1.625-2.518,3.785-2.515,6.082
		c0.002,2.201,0.795,4.248,2.233,5.763c2.947,3.107,11.863,11.811,12.241,12.18c0.292,0.284,0.669,0.427,1.048,0.427
		c0.38,0,0.759-0.144,1.051-0.43c0.375-0.369,9.231-9.069,12.174-12.156c1.455-1.53,2.255-3.589,2.253-5.798v0
		C64.619,37.498,60.748,33.632,55.995,33.625z M60.199,45.972c-2.315,2.429-8.562,8.598-11.055,11.053
		c-2.506-2.453-8.793-8.628-11.11-11.07c-0.907-0.957-1.408-2.271-1.409-3.702c-0.002-1.495,0.579-2.9,1.636-3.957
		c1.059-1.059,2.467-1.641,3.968-1.641c0.002,0,0.005,0,0.007,0c2.537,0.003,4.771,1.715,5.432,4.164
		c0.177,0.654,0.771,1.108,1.448,1.108c0.002,0,0.004,0,0.007,0c0.68-0.003,1.273-0.463,1.445-1.122
		c0.642-2.462,2.869-4.18,5.417-4.18c0.002,0,0.004,0,0.007,0c3.103,0.004,5.63,2.526,5.634,5.621
		C61.626,43.681,61.12,45.004,60.199,45.972z"/>
</g>
</svg>
