<?xml version="1.0" encoding="UTF-8"?> <!-- Generator: Adobe Illustrator 27.0.0, SVG Export Plug-In . SVG Version: 6.00 Build 0) --> <svg xmlns="http://www.w3.org/2000/svg" xmlns:xlink="http://www.w3.org/1999/xlink" id="Ebene_1" x="0px" y="0px" viewBox="0 0 485.8 144.4" style="enable-background:new 0 0 485.8 144.4;" xml:space="preserve"> <style type="text/css"> .st0{fill:#FFFFFF;} .st1{opacity:0.5;fill:#FFFFFF;enable-background:new ;} </style> <g id="XMLID_406_"> <path id="XMLID_6648_" class="st0" d="M85.7,47.2v38.6c0,9.8,0.3,14.5,3.1,17.1c1.4,1.4,2.8,2.2,4.4,2.4c1.5,0.3,7.6,0.3,11,0.3 h21.5V81l15.6-8.8v45.2c0,0-24.9,2.1-37.4,2.1c-12.9,0-22.4-0.8-27.5-5.3c-5.1-4.4-6.4-11.6-6.4-25.4V47.2H85.7z"></path> <path id="XMLID_3_" class="st1" d="M159.1,118.6V79.9c0-9.8-0.3-14.5-3.1-17.1c-1.4-1.4-2.8-2.2-4.4-2.4c-1.5-0.3-7.6-0.3-11-0.3 h-21.5v24.8l-15.7,8.8V48.5c0,0,24.9-2.1,37.4-2.1c12.9,0,22.4,0.8,27.5,5.3c5.1,4.2,6.5,11.5,6.5,25.4v41.5L159.1,118.6 L159.1,118.6z"></path> <path id="XMLID_6646_" class="st0" d="M326.8,32.5v14.7H343v14.5h-16.3v37.1c0,5.7,1.7,6.9,8,6.9h9.2l0.3,12.6 c-3.3,0.6-9.9,0.9-12.6,0.9c-5.1,0-7.2,0-11.5-1c-5.7-1.5-8.5-5.3-9-14.7V61.7V47.2V32.5H326.8z"></path> <path id="XMLID_6645_" class="st0" d="M376.6,88.8l-9-3.4c-8.7-3.1-12.9-9.4-12.9-19v-2.6c0-13.1,9.8-17.3,27.8-17.3 c7.4,0,14.1,0.5,20.1,1.5l-0.1,14h-23.8c-5.7,0-8.5,1.8-8.5,4.9c0,3.2,2.7,5.5,7.4,7.3l8.8,3.2"></path> <path id="XMLID_6644_" class="st0" d="M385.6,76.9l9,3.4c8.7,3.1,12.9,9.4,12.9,19v2.6c0,13.1-9.8,17.3-27.8,17.3 c-7.4,0-16.2-0.5-22.2-1.5l0.1-14h25.8c5.7,0,8.5-1.8,8.5-4.9c0-3.2-2.6-5.5-7.4-7.3l-8.8-3.2"></path> <rect id="XMLID_6643_" x="193.4" y="47.1" class="st0" width="15.6" height="71.5"></rect> <path id="XMLID_6608_" class="st0" d="M245.4,47.2v-8.5c0-5.1,2.4-6,9.2-6h8.8l0.3-12.4c-4.6-0.8-10.3-1.2-13.1-1.2 c-5.8,0-9.2,0.4-13.8,2.4c-4.5,2.1-6.9,6.9-6.9,14.1v11.6v14.6v56.8h15.6V61.8h18V47.2H245.4z"></path> <polygon id="XMLID_6553_" class="st0" points="276.9,47.2 276.9,61.8 276.9,61.8 276.9,118.6 292.5,118.6 292.5,47.2 "></polygon> </g> <polygon id="XMLID_2_" class="st0" points="209.1,21.9 209.1,32.5 193.4,41.4 193.4,21.9 "></polygon> <polygon id="XMLID_4_" class="st0" points="292.5,21.9 292.5,32.5 276.9,41.4 276.9,21.9 "></polygon> </svg> 