<?xml version="1.0" encoding="utf-8"?>
<!-- Generator: Adobe Illustrator 16.0.0, SVG Export Plug-In . SVG Version: 6.00 Build 0)  -->
<!DOCTYPE svg PUBLIC "-//W3C//DTD SVG 1.1//EN" "http://www.w3.org/Graphics/SVG/1.1/DTD/svg11.dtd">
<svg version="1.1" id="Layer_1" xmlns="http://www.w3.org/2000/svg" xmlns:xlink="http://www.w3.org/1999/xlink" x="0px" y="0px"
	 width="400px" height="400px" viewBox="0 0 400 400" enable-background="new 0 0 400 400" xml:space="preserve">
<g>
	<g>
		<path fill="none" stroke="#E6E7E8" stroke-width="7" stroke-linecap="round" stroke-linejoin="round" d="M275.7,132
			c1.8,1,3.5,2,5.2,3"/>
		
			<path fill="none" stroke="#E6E7E8" stroke-width="7" stroke-linecap="round" stroke-linejoin="round" stroke-dasharray="12.4818,42.6463" d="
			M312.3,163.5c15.2,19.8,24.2,44.6,24.2,71.5c0,65.1-52.8,117.8-117.8,117.8c-55.7,0-102.5-38.7-114.7-90.7"/>
		<path fill="none" stroke="#E6E7E8" stroke-width="7" stroke-linecap="round" stroke-linejoin="round" d="M101,241.1
			c-0.1-2-0.2-4-0.2-6"/>
	</g>
</g>
<g>
	<path opacity="0.7" fill="#FFFFFF" stroke="#E6E7E8" stroke-width="8.0472" stroke-miterlimit="10" d="M145.8,324.9
		c0,4.8-3.9,8.7-8.7,8.7H92.8c-4.8,0-8.7-3.9-8.7-8.7v-96.4c0-4.8,3.9-8.7,8.7-8.7h44.4c4.8,0,8.7,3.9,8.7,8.7V324.9z"/>
	<path fill="#E6E7E8" d="M120.1,314.2l-2.1-2.1c-0.8-0.8-1.9-1.3-3-1.3c-1.1,0-2.2,0.4-3,1.3l-2.1,2.1c-0.8,0.8-1.3,1.9-1.3,3
		c0,1.1,0.4,2.2,1.3,3l2.1,2.1c0.8,0.8,1.9,1.3,3,1.3c1.1,0,2.2-0.4,3-1.2l0,0l0,0l2.1-2.1c0.8-0.8,1.3-1.9,1.3-3
		C121.4,316,120.9,315,120.1,314.2z"/>
	<path fill="#66CC66" d="M136.7,230.7l-1.1-1.1c-0.4-0.4-1-0.6-1.5-0.6s-1.1,0.2-1.5,0.6l-1.1,1.1c-0.4,0.4-0.6,0.9-0.6,1.5
		c0,0.6,0.2,1.1,0.6,1.5l1.1,1.1c0.4,0.4,0.9,0.6,1.5,0.6c0.6,0,1.1-0.2,1.5-0.6l0,0l0,0l1.1-1.1c0.4-0.4,0.6-0.9,0.6-1.5
		C137.3,231.7,137.1,231.1,136.7,230.7z"/>
</g>
<path opacity="0.4" fill="#E5E5E5" d="M238.1,103.1l-35-34.8c-13.5-13.5-31.4-20.8-50.5-20.8c-19,0-37,7.4-50.5,20.8l-35,34.8
	c-13.5,13.4-20.9,31.3-20.9,50.3s7.4,36.8,20.9,50.3l35,34.8c13.5,13.4,31.4,20.9,50.5,20.9c18.6,0,36.1-7.1,49.5-19.9l0.1-0.1
	l0.1-0.1l35.8-35.6c13.5-13.4,20.9-31.3,20.9-50.3S251.6,116.5,238.1,103.1"/>
<polyline fill="none" stroke="#FFFFFF" stroke-width="18.3665" stroke-linejoin="round" stroke-miterlimit="10" points="
	152.1,108.9 196.6,153.4 152.1,197.9 "/>
<line fill="none" stroke="#FFFFFF" stroke-width="18.3665" stroke-linecap="round" stroke-linejoin="round" stroke-miterlimit="10" x1="108.6" y1="153.4" x2="195.5" y2="153.4"/>
<circle fill="#D1D3D4" cx="274.9" cy="85.6" r="4"/>
<g>
	<path d="M277.9,97.4c0,3.2-2.6,5.7-5.7,5.7h-17.6c-3.2,0-5.7-2.6-5.7-5.7V55.1c0-3.2,2.6-5.7,5.7-5.7h17.6c3.2,0,5.7,2.6,5.7,5.7
		V97.4z"/>
	<g>
		<path fill="none" stroke="#F1F2F2" stroke-width="2" stroke-linecap="round" stroke-miterlimit="10" d="M269.5,154.6
			c-15.9-15.9-41.8-15.9-57.7,0"/>
		<path fill="none" stroke="#D1D3D4" stroke-width="2" stroke-linecap="round" stroke-miterlimit="10" d="M161.8,204.5
			c-4.3,4.3-4.3,11.3,0,15.6"/>
		<path fill="none" stroke="#D1D3D4" stroke-width="2" stroke-linecap="round" stroke-miterlimit="10" d="M161,219.1
			c4.3,4.3,11.3,4.3,15.6,0"/>
		
			<line fill="none" stroke="#E6E7E8" stroke-width="2" stroke-linecap="round" stroke-miterlimit="10" x1="161.8" y1="204.5" x2="212" y2="154.3"/>
	</g>
	<g>
		<path fill="#D1D3D4" d="M116.6,353.5l15.8-20.6c2.2-2.8,6.2-3.3,9-1.1l0.6,0.5c2.8,2.2,3.3,6.2,1.1,9l-16.4,20.4"/>
		<circle fill="#E6E7E8" cx="121.5" cy="357.7" r="6.5"/>
	</g>
	<g>
		<path fill="#D1D3D4" d="M102.4,342.5l15.8-20.6c2.2-2.8,6.2-3.3,9-1.1l0.6,0.5c2.8,2.2,3.3,6.2,1.1,9l-16.4,20.4"/>
		<circle fill="#E6E7E8" cx="107.3" cy="346.7" r="6.5"/>
	</g>
	<g>
		<polygon fill="#EFEFEF" points="140.4,342.6 132,334.2 246.4,185.7 273.2,212.5 		"/>
		<circle fill="#EFEFEF" cx="136.2" cy="338.4" r="5.9"/>
		
			<ellipse transform="matrix(0.7071 0.7071 -0.7071 0.7071 216.8705 -125.3881)" fill="#EFEFEF" cx="259.8" cy="199.1" rx="19" ry="7.9"/>
	</g>
	<g>
		<polygon fill="#E8E7E6" points="127.8,330.3 118.8,321.3 263.9,203.6 290.7,230.5 		"/>
		<circle fill="#E8E7E6" cx="123.3" cy="325.8" r="6.4"/>
		
			<ellipse transform="matrix(0.7071 0.7071 -0.7071 0.7071 234.7053 -132.5145)" fill="#E8E7E6" cx="277.3" cy="217.1" rx="19" ry="7.9"/>
	</g>
	<g>
		<polygon fill="#F9E2D2" points="247.2,100 255.5,102.4 242.7,169.9 222.6,164.2 		"/>
		<circle fill="#F9E2D2" cx="251.3" cy="101.2" r="4.3"/>
		
			<ellipse transform="matrix(-0.9621 -0.2726 0.2726 -0.9621 410.9607 391.2281)" fill="#F9E2D2" cx="232.7" cy="167.1" rx="10.4" ry="4.3"/>
	</g>
	<path fill="#E9FFFE" d="M295.8,233.5c-4.5,4.5-11.8,4.5-16.3,0l-34.8-34.8c-4.5-4.5-4.5-11.8,0-16.3l0,0c4.5-4.5,11.8-4.5,16.3,0
		l34.8,34.8C300.3,221.7,300.3,229,295.8,233.5L295.8,233.5z"/>
	<polygon fill="#E9FFFE" points="295.6,227.6 248.8,181.9 248.8,96.5 295.6,142.3 	"/>
	<path fill="#E9FFFE" d="M251.3,157l-9-9c-2.6-2.6-2.6-6.9,0-9.5l8.4-15.3"/>
	<linearGradient id="SVGID_2_" gradientUnits="userSpaceOnUse" x1="259.0391" y1="160.4912" x2="269.415" y2="159.7988">
		<stop  offset="0" style="stop-color:#7FFFFD"/>
		<stop  offset="0.1619" style="stop-color:#84FFFD;stop-opacity:0.8381"/>
		<stop  offset="0.3424" style="stop-color:#91FFFD;stop-opacity:0.6576"/>
		<stop  offset="0.5319" style="stop-color:#A7FFFE;stop-opacity:0.4681"/>
		<stop  offset="0.7276" style="stop-color:#C7FFFE;stop-opacity:0.2724"/>
		<stop  offset="0.9262" style="stop-color:#EEFFFF;stop-opacity:7.376790e-02"/>
		<stop  offset="1" style="stop-color:#FFFFFF;stop-opacity:0"/>
	</linearGradient>
	<path opacity="0.2" fill="url(#SVGID_2_)" d="M270.9,176.6l-9-9c-2.6-2.6-2.6-6.9,0-9.5l8.4-15.3"/>
	<linearGradient id="SVGID_3_" gradientUnits="userSpaceOnUse" x1="239.416" y1="140.8672" x2="249.7919" y2="140.1748">
		<stop  offset="0" style="stop-color:#7FFFFD"/>
		<stop  offset="0.1619" style="stop-color:#84FFFD;stop-opacity:0.8381"/>
		<stop  offset="0.3424" style="stop-color:#91FFFD;stop-opacity:0.6576"/>
		<stop  offset="0.5319" style="stop-color:#A7FFFE;stop-opacity:0.4681"/>
		<stop  offset="0.7276" style="stop-color:#C7FFFE;stop-opacity:0.2724"/>
		<stop  offset="0.9262" style="stop-color:#EEFFFF;stop-opacity:7.376790e-02"/>
		<stop  offset="1" style="stop-color:#FFFFFF;stop-opacity:0"/>
	</linearGradient>
	<path opacity="0.2" fill="url(#SVGID_3_)" d="M251.3,157l-9-9c-2.6-2.6-2.6-6.9,0-9.5l8.4-15.3"/>
	<g>
		<polygon fill="#FFEADC" points="288.8,133.2 297.1,135.5 284.3,203 264.2,197.3 		"/>
		<circle fill="#FFEADC" cx="292.9" cy="134.3" r="4.3"/>
		
			<ellipse transform="matrix(-0.9621 -0.2727 0.2727 -0.9621 483.5372 467.574)" fill="#FFEADC" cx="274.3" cy="200.2" rx="10.4" ry="4.3"/>
	</g>
	<path fill="#E9FFFE" d="M294.5,142.2c-4,4-10.6,4-14.6,0l-31.1-31.1c-4-4-4-10.6,0-14.6l0,0c4-4,10.6-4,14.6,0l31.1,31.1
		C298.5,131.6,298.5,138.2,294.5,142.2L294.5,142.2z"/>
	<ellipse fill="#FFEFE1" cx="271.7" cy="113.7" rx="9.9" ry="4.5"/>
	<rect x="261.8" y="91.8" fill="#FFEFE1" width="19.7" height="21.9"/>
	<ellipse fill="#FFEFE1" cx="271.7" cy="73.1" rx="21.5" ry="11.5"/>
	<path fill="#FFEFE1" d="M250.1,73.1c0,13.9,9.7,25.1,21.6,25.1c11.9,0,21.6-11.2,21.6-25.1"/>
	<path fill="#FFEFE1" d="M250.1,72.2c0-13.9,9.7-25.1,21.6-25.1v25.1H250.1z"/>
	<path fill="#FFEFE1" d="M293.2,72.2c0-13.9-9.7-25.1-21.6-25.1v25.1H293.2z"/>
	<path fill="#222222" d="M267.1,71.9L252.4,62c-4-4-4-10.4,0-14.4l14.9-14.9c4-4,10.4-4,14.4,0l9,9c4,4,4,10.4,0,14.4"/>
	<path fill="#222222" d="M293.5,71.1c0,4.1-3.3,7.4-7.4,7.4h-9.8L252.4,62c0-4.1,25.8-21.1,29.9-21.1h3.7c4.1,0,7.4,3.3,7.4,7.4
		V71.1z"/>
	<path fill="#DDDDDD" d="M211.5,216.5c0.5-0.5,1.2-0.5,1.7,0l58.2,57.3c0.5,0.5,0.5,1.2,0,1.7l-17.6,17.6c-0.5,0.5-1.2,0.5-1.7,0
		l-58.2-57.3c-0.5-0.5-0.5-1.2,0-1.7L211.5,216.5z"/>
	<g>
		<polygon fill="#FFEFE1" points="229.7,249.2 223.6,243.1 267.7,190.4 282.4,205.2 		"/>
		<circle fill="#FFEFE1" cx="226.7" cy="246.2" r="4.3"/>
		
			<ellipse transform="matrix(0.7071 0.7071 -0.7071 0.7071 220.4165 -136.5597)" fill="#FFEFE1" cx="275.1" cy="197.8" rx="10.4" ry="4.3"/>
	</g>
	<path fill="#DDDDDD" d="M185.2,222.9c-1.6,1.6-4.1,1.6-5.7,0l-7.6-7.6c-1.6-1.6-1.6-4.1,0-5.7l14.1-14.1c1.6-1.6,4.1-1.6,5.7,0
		l7.6,7.6c1.6,1.6,1.6,4.1,0,5.7L185.2,222.9z"/>
	<g>
		<polygon fill="#FFEADC" points="188.4,215.2 182.2,209.1 226.3,156.4 241.1,171.2 		"/>
		<circle fill="#FFEADC" cx="185.3" cy="212.2" r="4.3"/>
		<path fill="#FFEADC" d="M241.1,171.2c-1.7,1.7-6.4-0.2-10.5-4.3c-4.1-4.1-6-8.8-4.3-10.4s6.4,0.2,10.5,4.3
			C240.8,164.8,242.8,169.5,241.1,171.2z"/>
	</g>
	<circle fill="#66CC66" cx="288.6" cy="85.6" r="4"/>
</g>
<g>
	<path fill="#66CC66" d="M315.9,258.8l46.4-14.5c1.1-0.3,1.6-1.4,1.3-2.5l-13-41.3c-0.3-1-1.4-1.6-2.5-1.3l-59.7,18.7
		c-1,0.3-1.6,1.4-1.3,2.5l8.9,28.3L315.9,258.8z"/>
	<path fill="#66CC66" d="M309.4,244.6l-13.3,4.2L316,259l-4.1-13.1C311.6,244.9,310.4,244.3,309.4,244.6z"/>
	
		<polygon fill="#FFFFFF" stroke="#FFFFFF" stroke-width="1.8376" stroke-linecap="round" stroke-linejoin="round" stroke-miterlimit="10" points="
		321.7,217.7 327.6,223.8 335.9,222.3 332,229.8 335.9,237.3 327.6,235.8 321.7,241.9 320.5,233.5 312.9,229.8 320.5,226.1 	"/>
</g>
<path opacity="0.7" fill="none" stroke="#E6E7E8" stroke-width="8.0472" stroke-miterlimit="10" d="M145.8,324.9
	c0,4.8-3.9,8.7-8.7,8.7H92.8c-4.8,0-8.7-3.9-8.7-8.7v-96.4c0-4.8,3.9-8.7,8.7-8.7h44.4c4.8,0,8.7,3.9,8.7,8.7V324.9z"/>
</svg>
