<?xml version="1.0" encoding="UTF-8"?> <svg xmlns="http://www.w3.org/2000/svg" viewBox="0 0 144.15 195.83"> <defs> <style>.cls-1{fill:none;stroke:#fff;stroke-miterlimit:10;stroke-width:0.5px;}</style> </defs> <g id="Layer_2" data-name="Layer 2"> <g id="Layer_1-2" data-name="Layer 1"> <path class="cls-1" d="M62.19,47.7a5.28,5.28,0,0,1-5.27-5.28"></path> <path class="cls-1" d="M62.19,53A10.54,10.54,0,0,1,51.65,42.42"></path> <path class="cls-1" d="M62.19,58.24A15.81,15.81,0,0,1,46.38,42.42"></path> <path class="cls-1" d="M62.19,63.51A21.08,21.08,0,0,1,41.11,42.42"></path> <path class="cls-1" d="M62.19,68.78A26.36,26.36,0,0,1,35.83,42.42"></path> <path class="cls-1" d="M62.19,74.05A31.63,31.63,0,0,1,30.56,42.42"></path> <path class="cls-1" d="M56.92,42.42a5.27,5.27,0,0,1,5.27-5.27"></path> <path class="cls-1" d="M51.65,42.42A10.54,10.54,0,0,1,62.19,31.88"></path> <path class="cls-1" d="M46.38,42.42A15.81,15.81,0,0,1,62.19,26.61"></path> <path class="cls-1" d="M41.11,42.42A21.08,21.08,0,0,1,62.19,21.34"></path> <path class="cls-1" d="M35.83,42.42A26.36,26.36,0,0,1,62.19,16.07"></path> <path class="cls-1" d="M30.56,42.42A31.63,31.63,0,0,1,62.19,10.79"></path> <path class="cls-1" d="M62.19,37.15a5.27,5.27,0,0,1,5.27,5.27"></path> <path class="cls-1" d="M62.19,31.88A10.54,10.54,0,0,1,72.74,42.42"></path> <path class="cls-1" d="M62.19,26.61A15.81,15.81,0,0,1,78,42.42"></path> <path class="cls-1" d="M62.19,21.34A21.08,21.08,0,0,1,83.28,42.42"></path> <path class="cls-1" d="M62.19,16.07A26.36,26.36,0,0,1,88.55,42.42"></path> <path class="cls-1" d="M62.19,10.79A31.63,31.63,0,0,1,93.82,42.42"></path> <path class="cls-1" d="M112.27,74.05a5.27,5.27,0,0,1,5.27,5.28"></path> <path class="cls-1" d="M112.27,68.78a10.55,10.55,0,0,1,10.55,10.55"></path> <path class="cls-1" d="M112.27,63.51a15.82,15.82,0,0,1,15.82,15.82"></path> <path class="cls-1" d="M112.27,58.24a21.09,21.09,0,0,1,21.09,21.09"></path> <path class="cls-1" d="M112.27,53a26.36,26.36,0,0,1,26.36,26.36"></path> <path class="cls-1" d="M112.27,47.7A31.63,31.63,0,0,1,143.9,79.33"></path> <line class="cls-1" x1="62.19" y1="47.7" x2="112.27" y2="47.7"></line> <line class="cls-1" x1="62.19" y1="52.97" x2="112.27" y2="52.97"></line> <line class="cls-1" x1="62.19" y1="58.24" x2="112.27" y2="58.24"></line> <line class="cls-1" x1="62.19" y1="63.51" x2="112.27" y2="63.51"></line> <line class="cls-1" x1="62.19" y1="68.78" x2="112.27" y2="68.78"></line> <line class="cls-1" x1="62.19" y1="74.05" x2="112.27" y2="74.05"></line> <path class="cls-1" d="M10.79,63.51a5.27,5.27,0,0,1-5.27-5.27"></path> <path class="cls-1" d="M10.79,68.78A10.54,10.54,0,0,1,.25,58.24"></path> <path class="cls-1" d="M5.52,58.24A5.27,5.27,0,0,1,10.79,53"></path> <path class="cls-1" d="M.25,58.24A10.54,10.54,0,0,1,10.79,47.7"></path> <path class="cls-1" d="M10.79,53a5.28,5.28,0,0,1,5.28,5.27"></path> <path class="cls-1" d="M10.79,47.7A10.54,10.54,0,0,1,21.34,58.24"></path> <line class="cls-1" x1="10.79" y1="63.51" x2="28.45" y2="63.51"></line> <line class="cls-1" x1="10.79" y1="68.78" x2="44.71" y2="68.78"></line> <line class="cls-1" x1="21.38" y1="74.05" x2="61.93" y2="74.05"></line> <path class="cls-1" d="M44.87,10.79A5.27,5.27,0,0,1,39.6,5.52"></path> <path class="cls-1" d="M44.87,16.07A10.55,10.55,0,0,1,34.33,5.52"></path> <path class="cls-1" d="M39.6,5.52A5.27,5.27,0,0,1,44.87.25"></path> <path class="cls-1" d="M44.87.25a5.27,5.27,0,0,1,5.27,5.27"></path> <line class="cls-1" x1="44.87" y1="10.79" x2="62.53" y2="10.79"></line> <line class="cls-1" x1="80.64" y1="195.83" x2="80.64" y2="112.01"></line> <line class="cls-1" x1="85.91" y1="195.83" x2="85.91" y2="112.01"></line> <line class="cls-1" x1="91.19" y1="195.83" x2="91.19" y2="112.01"></line> <line class="cls-1" x1="96.46" y1="195.83" x2="96.46" y2="112.01"></line> <line class="cls-1" x1="101.73" y1="195.83" x2="101.73" y2="112.01"></line> <line class="cls-1" x1="107" y1="195.83" x2="107" y2="74.05"></line> <line class="cls-1" x1="122.81" y1="79.32" x2="122.81" y2="106.74"></line> <line class="cls-1" x1="128.09" y1="79.32" x2="128.09" y2="106.74"></line> <line class="cls-1" x1="117.54" y1="79.32" x2="117.54" y2="106.74"></line> <line class="cls-1" x1="112.27" y1="74.58" x2="112.27" y2="106.74"></line> </g> </g> </svg> 