<?xml version="1.0" encoding="UTF-8"?> <svg xmlns="http://www.w3.org/2000/svg" width="1584" height="396" viewBox="0 0 1584 396" fill="none"> <g clip-path="url(#clip0_924_291)"> <rect width="1584" height="396" fill="url(#paint0_linear_924_291)"></rect> <g opacity="0.65" filter="url(#filter0_f_924_291)"> <path fill-rule="evenodd" clip-rule="evenodd" d="M977.564 431.481L888 431.481L888 234.609L977.564 234.609L977.564 431.481Z" fill="url(#paint1_linear_924_291)"></path> </g> <path fill-rule="evenodd" clip-rule="evenodd" d="M1023.34 227.122L1056.84 193.617L1066.96 203.733L1028.39 242.297C1025.6 245.09 1021.07 245.09 1018.28 242.297L999.848 223.868L1009.96 213.751L1023.34 227.122Z" fill="url(#paint2_linear_924_291)"></path> <path fill-rule="evenodd" clip-rule="evenodd" d="M1069.66 234.186C1069.66 230.22 1072.86 227.004 1076.81 227.004H1155.46C1159.41 227.004 1162.61 230.22 1162.61 234.186C1162.61 238.153 1159.41 241.368 1155.46 241.368H1076.81C1072.86 241.368 1069.66 238.153 1069.66 234.186Z" fill="#7AB7FE"></path> <path fill-rule="evenodd" clip-rule="evenodd" d="M1023.34 298.655L1056.84 265.15L1066.96 275.266L1028.39 313.83C1025.6 316.623 1021.07 316.623 1018.28 313.83L999.848 295.401L1009.96 285.284L1023.34 298.655Z" fill="url(#paint3_linear_924_291)"></path> <path fill-rule="evenodd" clip-rule="evenodd" d="M1069.66 305.162C1069.66 301.195 1072.86 297.98 1076.8 297.98H1126.74C1130.68 297.98 1133.88 301.195 1133.88 305.162C1133.88 309.128 1130.68 312.344 1126.74 312.344H1076.8C1072.86 312.344 1069.66 309.128 1069.66 305.162Z" fill="#7AB7FE"></path> <path fill-rule="evenodd" clip-rule="evenodd" d="M994.33 445C970.604 445 951.371 425.779 951.371 402.07L951.371 165.953C951.371 134.34 977.015 108.712 1008.65 108.712L1180.48 108.712C1204.21 108.712 1223.44 127.933 1223.44 151.643L1223.44 409.225C1223.44 428.983 1207.42 445 1187.64 445L994.33 445ZM980.01 402.07C980.01 409.973 986.421 416.38 994.33 416.38L1187.64 416.38C1191.6 416.38 1194.8 413.176 1194.8 409.225L1194.8 151.643C1194.8 143.739 1188.39 137.333 1180.48 137.333L1008.65 137.333C992.832 137.333 980.01 150.146 980.01 165.953L980.01 402.07Z" fill="url(#paint4_linear_924_291)"></path> <path fill-rule="evenodd" clip-rule="evenodd" d="M1225.63 187.715C1228.74 190.165 1231.55 192.976 1234 196.085C1236.45 192.976 1239.27 190.165 1242.37 187.715C1239.27 185.264 1236.45 182.453 1234 179.344C1231.55 182.453 1228.74 185.264 1225.63 187.715ZM1234 148.432L1223.29 148.425C1223.28 164.203 1210.49 176.99 1194.71 177.001L1194.72 187.715L1194.71 198.428C1210.49 198.439 1223.28 211.227 1223.29 227.005L1234 226.997L1244.72 227.005C1244.73 211.227 1257.52 198.439 1273.29 198.428L1273.29 187.715L1273.29 177.001C1257.52 176.99 1244.73 164.203 1244.72 148.425L1234 148.432Z" fill="url(#paint5_linear_924_291)"></path> <path d="M1098.39 96.4603H1083.67C1079.9 96.4603 1076.85 93.3865 1076.85 89.5948C1076.85 78.2211 1067.2 69 1055.3 69C1043.4 69 1033.75 78.2211 1033.75 89.5956C1033.75 93.3873 1030.7 96.4611 1026.93 96.4611H1012.21C1004.27 96.4611 997.843 102.608 997.843 110.191V116.732C997.843 120.702 1001.04 123.921 1004.99 123.921H1105.61C1109.56 123.921 1112.76 120.702 1112.76 116.732V110.191C1112.76 102.607 1106.32 96.4603 1098.39 96.4603ZM1055.3 96.4603C1051.33 96.4603 1048.12 93.3861 1048.12 89.5948C1048.12 85.8036 1051.33 82.7294 1055.3 82.7294C1059.27 82.7294 1062.48 85.8036 1062.48 89.5948C1062.48 93.3861 1059.27 96.4603 1055.3 96.4603Z" fill="url(#paint6_linear_924_291)"></path> <path fill-rule="evenodd" clip-rule="evenodd" d="M278.098 375.864L278.098 486.9C278.098 497.78 286.836 506.6 297.616 506.6C308.395 506.6 317.134 497.78 317.134 486.9L317.134 375.864C317.134 364.984 308.395 356.164 297.616 356.164C286.836 356.164 278.098 364.984 278.098 375.864ZM297.616 513.764C312.315 513.764 324.231 501.737 324.231 486.9L324.231 375.864C324.231 361.027 312.315 349 297.616 349C282.916 349 271 361.027 271 375.864L271 486.9C271 501.737 282.916 513.764 297.616 513.764Z" fill="url(#paint7_linear_924_291)"></path> <path fill-rule="evenodd" clip-rule="evenodd" d="M399.134 414.9L399.134 303.864C399.134 292.984 390.396 284.164 379.616 284.164C368.836 284.164 360.098 292.984 360.098 303.864L360.098 414.9C360.098 425.78 368.836 434.6 379.616 434.6C390.395 434.6 399.134 425.78 399.134 414.9ZM379.616 277C364.916 277 353 289.027 353 303.864L353 414.9C353 429.737 364.916 441.764 379.616 441.764C394.315 441.764 406.232 429.737 406.232 414.9L406.232 303.864C406.232 289.027 394.315 277 379.616 277Z" fill="url(#paint8_linear_924_291)"></path> </g> <defs> <filter id="filter0_f_924_291" x="870" y="216.609" width="125.564" height="232.872" filterUnits="userSpaceOnUse" color-interpolation-filters="sRGB"> <feFlood flood-opacity="0" result="BackgroundImageFix"></feFlood> <feBlend mode="normal" in="SourceGraphic" in2="BackgroundImageFix" result="shape"></feBlend> <feGaussianBlur stdDeviation="9" result="effect1_foregroundBlur_924_291"></feGaussianBlur> </filter> <linearGradient id="paint0_linear_924_291" x1="436.311" y1="-71.9549" x2="489.229" y2="450.232" gradientUnits="userSpaceOnUse"> <stop stop-color="#4BFFDF"></stop> <stop offset="1" stop-color="#7AB7FE"></stop> </linearGradient> <linearGradient id="paint1_linear_924_291" x1="952.894" y1="467.253" x2="822.626" y2="321.053" gradientUnits="userSpaceOnUse"> <stop stop-color="#4BFFDF"></stop> <stop offset="1" stop-color="#7AB7FE"></stop> </linearGradient> <linearGradient id="paint2_linear_924_291" x1="987.927" y1="211.947" x2="1037.14" y2="236.812" gradientUnits="userSpaceOnUse"> <stop stop-color="#6C63FF"></stop> <stop offset="1" stop-color="#7AB7FE"></stop> </linearGradient> <linearGradient id="paint3_linear_924_291" x1="987.927" y1="283.48" x2="1037.14" y2="308.345" gradientUnits="userSpaceOnUse"> <stop stop-color="#6C63FF"></stop> <stop offset="1" stop-color="#7AB7FE"></stop> </linearGradient> <linearGradient id="paint4_linear_924_291" x1="1361.53" y1="108.713" x2="979.351" y2="297.441" gradientUnits="userSpaceOnUse"> <stop stop-color="#6C63FF"></stop> <stop offset="1" stop-color="#7AB7FE"></stop> </linearGradient> <linearGradient id="paint5_linear_924_291" x1="1216.36" y1="134.147" x2="1252.81" y2="224.057" gradientUnits="userSpaceOnUse"> <stop stop-color="#4BFFDF"></stop> <stop offset="1" stop-color="#7AB7FE"></stop> </linearGradient> <linearGradient id="paint6_linear_924_291" x1="1112.75" y1="151.796" x2="1086.96" y2="63.3609" gradientUnits="userSpaceOnUse"> <stop stop-color="#9E98FF"></stop> <stop offset="0.484375" stop-color="#B6D8FF"></stop> <stop offset="1" stop-color="white"></stop> </linearGradient> <linearGradient id="paint7_linear_924_291" x1="314.988" y1="608.953" x2="176.651" y2="524.362" gradientUnits="userSpaceOnUse"> <stop stop-color="#4BFFDF"></stop> <stop offset="1" stop-color="#4D9FFF"></stop> </linearGradient> <linearGradient id="paint8_linear_924_291" x1="370.053" y1="403.561" x2="328.14" y2="329.012" gradientUnits="userSpaceOnUse"> <stop stop-color="#564DE2"></stop> <stop offset="1" stop-color="#68AEFF"></stop> </linearGradient> <clipPath id="clip0_924_291"> <rect width="1584" height="396" fill="white"></rect> </clipPath> </defs> </svg> 