<?xml version="1.0" encoding="UTF-8"?> <!-- Generator: Adobe Illustrator 26.0.2, SVG Export Plug-In . SVG Version: 6.00 Build 0) --> <svg xmlns="http://www.w3.org/2000/svg" xmlns:xlink="http://www.w3.org/1999/xlink" id="Слой_1" x="0px" y="0px" viewBox="0 0 566.9 201.7" style="enable-background:new 0 0 566.9 201.7;" xml:space="preserve"> <style type="text/css"> .st0{fill:#010101;} </style> <g id="Guides_For_Artboard"> </g> <g id="Layer_1"> <g> <g> <g> <path class="st0" d="M87.4,123.2c0.9-3.3,3.4-10.6-9.1-22.9c-9.2-9.2-51-51-72.3-72.3c-7.5-7.5-8.1-17-0.3-24.7 c0.9-0.9,3.1-3.1,3.1-3.1s70.4,70.4,79.3,79.3c4.7,4.7,9.1,12.3,9.1,22C97.4,110.8,92.1,118.5,87.4,123.2z"></path> <path class="st0" d="M66.7,52.6c12.2-12.2,22-22,23.9-23.9c5.6-5.6,10.9-15.9,0.8-26.1C89.6,0.9,88.7,0,88.7,0L51.4,37.3 C56.5,42.6,61.8,47.8,66.7,52.6z"></path> </g> <g> <path class="st0" d="M10.2,78.5c-0.9,3.3-3.4,10.6,9.1,22.9c9.2,9.2,51,51,72.3,72.3c7.5,7.5,8.1,17,0.3,24.7 c-0.9,0.9-3.1,3.1-3.1,3.1s-70.4-70.4-79.3-79.5c-4.7-4.7-9.1-12.3-9.1-22C0.2,91,5.5,83.4,10.2,78.5z"></path> <path class="st0" d="M30.9,149.1c-12.2,12.2-22,22-23.9,23.9c-5.6,5.6-10.9,15.9-0.8,26.1c1.7,1.7,2.7,2.7,2.7,2.7l37.3-37.3 C41.1,159.2,35.8,153.9,30.9,149.1z"></path> <path class="st0" d="M66.7,143.9l11.2-11.2c0.2-0.3,0.5-0.6,0.9-0.9c4.7-4.7,5.9-9.8,5.9-13.6c0-3.3-1.4-8-8.1-14.7 c-6.7,6.7-15.8,15.8-25.3,25.3L66.7,143.9z"></path> <path class="st0" d="M18.3,70.4c-0.8,0.8-1.4,1.6-2,2.2c-2.5,3.6-3.3,8.1-3.3,10.9c0,3.3,1.4,8,8.1,14.7 c6.7-6.7,15.8-15.8,25.3-25.3l-1.1-1.1L31.1,57.6L18.8,69.9C18.6,70.2,18.4,70.2,18.3,70.4z"></path> </g> </g> <g> <path class="st0" d="M156.6,39.3c7.6-4.4,16.9-4.2,25.4-3.6c5.5,0.5,10.9,1.2,16.2,2.8c0,2.5,0,4.8,0,7.3c-7.2,0-14.4,0-21.7,0 c-5,0-10.1,1.6-13.6,5.2c-5,5.2-7,12.3-8.3,19c-2.2,12.8-2.2,25.9-1.1,38.9c1.1,9.5,2.8,20.1,10.1,26.8 c6.2,5.6,15.3,5.3,23.1,5.3c0-17.5,0-34,0-51.5c4.8,0,9.7,0,14.5,0c0,20,0,38.9,0,58.9c-8.7,2.5-18,3.3-27.2,3.1 c-8-0.3-16.2-2.3-22.3-7.8c-6.6-5.9-9.7-14.7-11.2-23.1c-2.2-11.1-2.3-22.3-2.2-33.6c0.3-10.8,1.4-21.5,5-31.7 C146,49.2,150.2,42.8,156.6,39.3z"></path> <path class="st0" d="M509.7,37.2c4.8,0,9.7,0,14.5,0c0,23.1,0,46.4,0,69.5c7.8-12.3,15.6-24.7,23.4-37.2c5.5,0,10.8,0,16.2,0 c-8.3,12.6-16.9,25.3-25,38.1c9.5,14.2,18.9,28.4,28.3,42.8c-5.5,0-10.8,0-16.1,0c-8.9-14-17.8-28.1-26.7-42c0,14,0,27.9,0,42 c-4.8,0.2-9.7,0-14.5,0C509.7,112.6,509.7,74.8,509.7,37.2z"></path> <path class="st0" d="M410.6,51.7c4.5,0,9.2,0,13.7,0c0,5.9,0,11.9,0,17.8c7,0,14,0,21.1,0c0,2.3,0,4.8,0,7.2 c-6.7,2.2-13.9,3.3-21.1,3.3c0,14.7,0,29.5,0,44.2c0,4.5,0.5,9.4,2.8,13.3c1.6,2.8,4.5,4.7,7.8,4.7c4.1,0.2,8,0,12,0 c0,2.2,0,4.4,0,6.4c-7.6,3.1-16.4,4.5-24.5,1.9c-4.7-1.6-8.4-5.5-10.1-10c-2.8-6.9-2.5-14.5-2.5-21.9c0-12.8,0-25.8,0-38.6 c-3.3-0.2-6.4,0-9.7,0c0-3.3,0-6.4,0-9.7c3.4,0,7,0,10.5,0C410.6,64,410.6,57.8,410.6,51.7z"></path> <g> <path class="st0" d="M227,69.6c6.6-2.3,13.7-2.5,20.4-0.8c6.4,1.6,11.4,6.9,13.7,13c3.9,9.8,4.4,20.6,4.5,31.2 c-13.4,0-27,0-40.4,0c0.2,7.5,0.3,15.6,4.4,22.2c2.8,4.5,8.3,6.6,13.4,6.9c6.4,0.3,13,0,19.4,0.2c0,2.2,0,4.4,0,6.6 c-10.1,3.1-21.2,4.4-31.7,1.9c-5.8-1.4-11.2-4.7-14.4-9.8c-4.5-7.2-5.3-16.1-5.6-24.4c-0.2-10.8,0.2-21.7,3.6-32 C216.4,78.1,220.6,72,227,69.6z M229.2,82.7c-3.3,6.2-3.7,13.6-3.9,20.6c8.6,0,17.2,0,25.9,0c0-6.6-0.5-13.3-3.1-19.4 c-1.6-3.6-4.5-6.9-8.6-7.3C235,76,231.1,79,229.2,82.7z"></path> </g> <path class="st0" d="M301.8,68.4c7-1.1,15.1-1.1,20.9,3.6c5.5,4.5,6.9,11.9,7,18.6c0,20,0,39.8,0,59.8c-4.8,0-9.7,0-14.5,0 c0-19.2,0-38.2,0-57.4c0-3.9-0.5-8.1-3.1-11.1c-2.3-2.8-6.1-3.9-9.5-4.1c-4.5-0.3-9.2,0.9-13.1,3c-0.2,23.3,0.2,46.5-0.2,69.6 c-4.8,0-9.7,0-14.4,0c0-26.8,0-53.9,0-80.7c4.4-0.2,8.6,0,13,0c0.3,1.7,0.6,3.3,0.8,5C292.7,72.1,296.8,69,301.8,68.4z"></path> <g> <path class="st0" d="M360.8,68.4c8-1.1,16.4-1.1,23.7,2.5c6.7,3.4,10.5,10.6,12.2,17.8c2.3,10.3,2.3,21.1,1.7,31.5 c-0.8,8.4-2.3,17.6-8.3,24.2c-5,5.6-13.1,7.3-20.4,7.5c-7.3,0.2-15.3-0.9-20.9-6.1c-5.6-5.3-7.8-13.1-8.9-20.4 c-1.2-10-1.2-20-0.2-30c0.9-7.2,3-14.8,8-20.3C351.3,71.3,355.9,69.3,360.8,68.4z M365.5,77.1c-3.1,0.8-5.8,3-7.3,5.6 c-2.7,4.7-3.4,10-4.1,15.3c-0.8,9.1-0.8,18.1,0.5,27.2c0.9,5.5,2.2,11.6,6.6,15.3c5,3.9,13.1,3.4,17.2-1.6 c3.3-4.1,4.4-9.5,5.2-14.7c1.1-9.1,1.1-18.4,0.2-27.5c-0.8-5.6-1.7-11.6-5.5-16.1C375.1,77,370,76,365.5,77.1z"></path> </g> <g> <path class="st0" d="M458.8,71.2c6.6-3.9,14.5-4.1,21.7-2.7c6.7,1.2,12.5,6.1,15.1,12.2c4.5,10.1,4.8,21.4,5,32.3 c-13.4,0-27,0-40.4,0c0.2,7.5,0.3,15.6,4.4,22.2c2.8,4.5,8.3,6.6,13.4,6.9c6.4,0.3,13,0,19.4,0.2c0,2.2,0,4.4,0,6.6 c-10.3,3.1-21.4,4.4-31.8,1.9c-5.6-1.4-11.1-4.7-14-9.8c-4.4-7-5.3-15.6-5.6-23.7c-0.2-9.4,0-18.9,2.2-28.1 C449.6,82.1,452.7,75.1,458.8,71.2z M464.4,82.3c-3.6,6.4-4.1,13.9-4.2,21.1c8.6,0,17.3,0,25.9,0c0-6.6-0.5-13.3-3.1-19.4 c-1.6-3.6-4.7-6.9-8.7-7.3C470.2,76.2,466.3,78.8,464.4,82.3z"></path> </g> </g> </g> </g> </svg> 