<?xml version="1.0" encoding="UTF-8"?> <svg xmlns="http://www.w3.org/2000/svg" xmlns:xlink="http://www.w3.org/1999/xlink" width="805px" height="156px" viewBox="0 0 805 156"> <!-- Generator: Sketch 63.1 (92452) - https://sketch.com --> <title>Создавайтеприватныеонлайн-курсынаStepik</title> <desc>Created with Sketch.</desc> <g id="Page-1" stroke="none" stroke-width="1" fill="none" fill-rule="evenodd"> <g id="Artboard-Copy-5" transform="translate(-2.000000, -18.000000)" fill="#FFFFFF" fill-rule="nonzero"> <path d="M26.792,67.952 C35.496,67.952 43.112,63.668 47.192,56.936 L37.808,51.496 C35.768,55.168 31.62,57.344 26.792,57.344 C18.36,57.344 12.92,51.7 12.92,43.2 C12.92,34.7 18.36,29.056 26.792,29.056 C31.62,29.056 35.7,31.232 37.808,34.904 L47.192,29.464 C43.044,22.732 35.428,18.448 26.792,18.448 C12.444,18.448 2.04,29.192 2.04,43.2 C2.04,57.208 12.444,67.952 26.792,67.952 Z M69.462,67.952 C79.458,67.952 87.482,60.132 87.482,50 C87.482,39.868 79.458,32.048 69.462,32.048 C59.466,32.048 51.442,39.868 51.442,50 C51.442,60.132 59.466,67.952 69.462,67.952 Z M69.462,58.024 C65.042,58.024 61.642,54.828 61.642,50 C61.642,45.172 65.042,41.976 69.462,41.976 C73.882,41.976 77.282,45.172 77.282,50 C77.282,54.828 73.882,58.024 69.462,58.024 Z M104.312,67.952 C113.492,67.952 118.388,63.396 118.388,57.752 C118.388,54.284 116.62,51.428 113.424,49.728 C115.872,48.028 117.028,45.376 117.028,42.248 C117.028,36.876 112.268,32.048 103.972,32.048 C98.124,32.048 93.228,34.496 90.372,40.004 L98.6,44.696 C99.824,41.976 101.592,40.752 104.176,40.752 C106.08,40.752 107.372,41.568 107.372,43.2 C107.372,44.696 106.352,45.512 104.176,45.512 L100.504,45.512 L100.504,54.08 L105.264,54.08 C107.508,54.08 108.46,54.964 108.46,56.46 C108.46,58.16 106.964,59.112 104.448,59.112 C101.32,59.112 99.212,57.616 98.26,54.964 L90.032,59.86 C92.684,65.368 97.512,67.952 104.312,67.952 Z M131.206,76.112 L131.206,67 L150.11,67 L150.11,76.112 L160.038,76.112 L160.038,57.48 L155.618,57.48 L155.618,33 L128.214,33 L128.214,45.716 C128.214,51.564 127.194,54.828 125.494,57.48 L121.278,57.48 L121.278,76.112 L131.206,76.112 Z M145.69,57.48 L136.17,57.48 C137.462,54.42 138.142,50.68 138.142,45.716 L138.142,42.112 L145.69,42.112 L145.69,57.48 Z M179.18,67.952 C183.736,67.952 187.068,66.388 189.312,63.804 L189.312,67 L199.512,67 L199.512,33 L189.312,33 L189.312,36.196 C187.068,33.612 183.736,32.048 179.18,32.048 C170.272,32.048 162.928,39.868 162.928,50 C162.928,60.132 170.272,67.952 179.18,67.952 Z M181.22,58.296 C176.528,58.296 173.128,55.1 173.128,50 C173.128,44.9 176.528,41.704 181.22,41.704 C185.912,41.704 189.312,44.9 189.312,50 C189.312,55.1 185.912,58.296 181.22,58.296 Z M226.202,67 C233.75,67 237.762,62.92 237.762,57.276 C237.762,53.808 236.13,51.156 233.206,49.592 C235.314,48.028 236.402,45.648 236.402,42.724 C236.402,37.08 232.39,33 224.842,33 L207.842,33 L207.842,67 L226.202,67 Z M223.754,45.92 L217.362,45.92 L217.362,41.16 L223.754,41.16 C225.59,41.16 226.746,41.908 226.746,43.608 C226.746,45.24 225.59,45.92 223.754,45.92 Z M224.842,58.568 L217.362,58.568 L217.362,53.672 L224.842,53.672 C226.61,53.672 227.834,54.42 227.834,56.052 C227.834,57.752 226.61,58.568 224.842,58.568 Z M258.264,67.952 C262.82,67.952 266.152,66.388 268.396,63.804 L268.396,67 L278.596,67 L278.596,33 L268.396,33 L268.396,36.196 C266.152,33.612 262.82,32.048 258.264,32.048 C249.356,32.048 242.012,39.868 242.012,50 C242.012,60.132 249.356,67.952 258.264,67.952 Z M260.304,58.296 C255.612,58.296 252.212,55.1 252.212,50 C252.212,44.9 255.612,41.704 260.304,41.704 C264.996,41.704 268.396,44.9 268.396,50 C268.396,55.1 264.996,58.296 260.304,58.296 Z M313.106,28.988 L313.106,20.148 L292.706,20.148 L292.706,28.988 L313.106,28.988 Z M294.406,67 L308.958,50 L308.958,67 L318.886,67 L318.886,33 L311.406,33 L296.854,50 L296.854,33 L286.926,33 L286.926,67 L294.406,67 Z M344.624,67 L344.624,42.792 L354.756,42.792 L354.756,33 L324.156,33 L324.156,42.792 L334.424,42.792 L334.424,67 L344.624,67 Z M375.802,67.952 C382.262,67.952 387.294,65.572 390.626,60.948 L382.466,56.256 C381.106,57.752 378.726,58.84 375.938,58.84 C372.198,58.84 369.07,57.616 367.778,54.08 L391.918,54.08 C392.19,52.788 392.326,51.428 392.326,50 C392.326,39.732 384.982,32.048 375.054,32.048 C364.31,32.048 356.966,39.868 356.966,50 C356.966,60.132 364.174,67.952 375.802,67.952 Z M382.194,46.464 L367.574,46.464 C368.526,42.996 371.11,41.092 374.986,41.092 C378.046,41.092 381.106,42.52 382.194,46.464 Z M427.006,67 L427.006,42.52 L438.566,42.52 L438.566,67 L448.766,67 L448.766,33 L416.806,33 L416.806,67 L427.006,67 Z M467.296,80.6 L467.296,63.804 C469.54,66.388 472.872,67.952 477.428,67.952 C486.336,67.952 493.68,60.132 493.68,50 C493.68,39.868 486.336,32.048 477.428,32.048 C472.872,32.048 469.54,33.612 467.296,36.196 L467.296,33 L457.096,33 L457.096,80.6 L467.296,80.6 Z M475.388,58.296 C470.696,58.296 467.296,55.1 467.296,50 C467.296,44.9 470.696,41.704 475.388,41.704 C480.08,41.704 483.48,44.9 483.48,50 C483.48,55.1 480.08,58.296 475.388,58.296 Z M507.79,67 L522.342,50 L522.342,67 L532.27,67 L532.27,33 L524.79,33 L510.238,50 L510.238,33 L500.31,33 L500.31,67 L507.79,67 Z M558.96,67 C566.508,67 570.52,62.92 570.52,57.276 C570.52,53.808 568.888,51.156 565.964,49.592 C568.072,48.028 569.16,45.648 569.16,42.724 C569.16,37.08 565.148,33 557.6,33 L540.6,33 L540.6,67 L558.96,67 Z M556.512,45.92 L550.12,45.92 L550.12,41.16 L556.512,41.16 C558.348,41.16 559.504,41.908 559.504,43.608 C559.504,45.24 558.348,45.92 556.512,45.92 Z M557.6,58.568 L550.12,58.568 L550.12,53.672 L557.6,53.672 C559.368,53.672 560.592,54.42 560.592,56.052 C560.592,57.752 559.368,58.568 557.6,58.568 Z M591.022,67.952 C595.578,67.952 598.91,66.388 601.154,63.804 L601.154,67 L611.354,67 L611.354,33 L601.154,33 L601.154,36.196 C598.91,33.612 595.578,32.048 591.022,32.048 C582.114,32.048 574.77,39.868 574.77,50 C574.77,60.132 582.114,67.952 591.022,67.952 Z M593.062,58.296 C588.37,58.296 584.97,55.1 584.97,50 C584.97,44.9 588.37,41.704 593.062,41.704 C597.754,41.704 601.154,44.9 601.154,50 C601.154,55.1 597.754,58.296 593.062,58.296 Z M637.092,67 L637.092,42.792 L647.224,42.792 L647.224,33 L616.624,33 L616.624,42.792 L626.892,42.792 L626.892,67 L637.092,67 Z M662.694,67 L662.694,54.76 L674.254,54.76 L674.254,67 L684.454,67 L684.454,33 L674.254,33 L674.254,45.24 L662.694,45.24 L662.694,33 L652.494,33 L652.494,67 L662.694,67 Z M708.696,67 C716.924,67 722.024,62.24 722.024,55.1 C722.024,47.96 716.924,43.2 708.696,43.2 L702.984,43.2 L702.984,33 L692.784,33 L692.784,67 L708.696,67 Z M735.624,67 L735.624,33 L725.424,33 L725.424,67 L735.624,67 Z M708.764,58.16 L702.984,58.16 L702.984,52.04 L708.764,52.04 C710.804,52.04 712.096,53.332 712.096,55.1 C712.096,56.868 710.804,58.16 708.764,58.16 Z M761.09,67.952 C767.55,67.952 772.582,65.572 775.914,60.948 L767.754,56.256 C766.394,57.752 764.014,58.84 761.226,58.84 C757.486,58.84 754.358,57.616 753.066,54.08 L777.206,54.08 C777.478,52.788 777.614,51.428 777.614,50 C777.614,39.732 770.27,32.048 760.342,32.048 C749.598,32.048 742.254,39.868 742.254,50 C742.254,60.132 749.462,67.952 761.09,67.952 Z M767.482,46.464 L752.862,46.464 C753.814,42.996 756.398,41.092 760.274,41.092 C763.334,41.092 766.394,42.52 767.482,46.464 Z M20.06,160.952 C30.056,160.952 38.08,153.132 38.08,143 C38.08,132.868 30.056,125.048 20.06,125.048 C10.064,125.048 2.04,132.868 2.04,143 C2.04,153.132 10.064,160.952 20.06,160.952 Z M20.06,151.024 C15.64,151.024 12.24,147.828 12.24,143 C12.24,138.172 15.64,134.976 20.06,134.976 C24.48,134.976 27.88,138.172 27.88,143 C27.88,147.828 24.48,151.024 20.06,151.024 Z M54.91,160 L54.91,147.76 L66.47,147.76 L66.47,160 L76.67,160 L76.67,126 L66.47,126 L66.47,138.24 L54.91,138.24 L54.91,126 L44.71,126 L44.71,160 L54.91,160 Z M97.036,145.924 L97.036,135.792 L104.38,135.792 L104.38,160 L114.58,160 L114.58,126 L86.836,126 L86.836,145.244 C86.836,149.46 85.136,151.432 81.94,150.48 L81.94,160 C91.868,161.156 97.036,156.192 97.036,145.924 Z M137.462,160.952 C142.018,160.952 145.35,159.388 147.594,156.804 L147.594,160 L157.794,160 L157.794,126 L147.594,126 L147.594,129.196 C145.35,126.612 142.018,125.048 137.462,125.048 C128.554,125.048 121.21,132.868 121.21,143 C121.21,153.132 128.554,160.952 137.462,160.952 Z M139.502,151.296 C134.81,151.296 131.41,148.1 131.41,143 C131.41,137.9 134.81,134.704 139.502,134.704 C144.194,134.704 147.594,137.9 147.594,143 C147.594,148.1 144.194,151.296 139.502,151.296 Z M192.304,121.988 L192.304,113.148 L171.904,113.148 L171.904,121.988 L192.304,121.988 Z M173.604,160 L188.156,143 L188.156,160 L198.084,160 L198.084,126 L190.604,126 L176.052,143 L176.052,126 L166.124,126 L166.124,160 L173.604,160 Z M216.614,160 L216.614,147.76 L228.174,147.76 L228.174,160 L238.374,160 L238.374,126 L228.174,126 L228.174,138.24 L216.614,138.24 L216.614,126 L206.414,126 L206.414,160 L216.614,160 Z M272.884,144.564 L272.884,134.772 L247.044,134.772 L247.044,144.564 L272.884,144.564 Z M291.754,160 L291.754,144.972 L302.634,160 L314.194,160 L301.478,143 L313.854,126 L301.954,126 L291.754,140.892 L291.754,126 L281.554,126 L281.554,160 L291.754,160 Z M339.456,158.98 L351.084,126 L340.204,126 L333.812,146.876 L325.924,126 L315.044,126 L328.372,159.388 C326.808,162.992 324.632,164.08 320.076,164.08 L320.076,173.6 C328.916,174.076 335.648,169.792 339.456,158.98 Z M365.874,173.6 L365.874,156.804 C368.118,159.388 371.45,160.952 376.006,160.952 C384.914,160.952 392.258,153.132 392.258,143 C392.258,132.868 384.914,125.048 376.006,125.048 C371.45,125.048 368.118,126.612 365.874,129.196 L365.874,126 L355.674,126 L355.674,173.6 L365.874,173.6 Z M373.966,151.296 C369.274,151.296 365.874,148.1 365.874,143 C365.874,137.9 369.274,134.704 373.966,134.704 C378.658,134.704 382.058,137.9 382.058,143 C382.058,148.1 378.658,151.296 373.966,151.296 Z M415.208,160.952 C421.872,160.952 427.652,157.484 430.576,152.18 L421.668,147.08 C420.58,149.46 418.064,150.888 415.072,150.888 C410.652,150.888 407.388,147.692 407.388,143 C407.388,138.308 410.652,135.112 415.072,135.112 C418.064,135.112 420.512,136.54 421.668,138.92 L430.576,133.752 C427.652,128.516 421.804,125.048 415.208,125.048 C404.872,125.048 397.188,132.868 397.188,143 C397.188,153.132 404.872,160.952 415.208,160.952 Z M451.758,160 C459.986,160 465.086,155.24 465.086,148.1 C465.086,140.96 459.986,136.2 451.758,136.2 L446.046,136.2 L446.046,126 L435.846,126 L435.846,160 L451.758,160 Z M478.686,160 L478.686,126 L468.486,126 L468.486,160 L478.686,160 Z M451.826,151.16 L446.046,151.16 L446.046,145.04 L451.826,145.04 C453.866,145.04 455.158,146.332 455.158,148.1 C455.158,149.868 453.866,151.16 451.826,151.16 Z M515.066,160 L515.066,147.76 L526.626,147.76 L526.626,160 L536.826,160 L536.826,126 L526.626,126 L526.626,138.24 L515.066,138.24 L515.066,126 L504.866,126 L504.866,160 L515.066,160 Z M559.708,160.952 C564.264,160.952 567.596,159.388 569.84,156.804 L569.84,160 L580.04,160 L580.04,126 L569.84,126 L569.84,129.196 C567.596,126.612 564.264,125.048 559.708,125.048 C550.8,125.048 543.456,132.868 543.456,143 C543.456,153.132 550.8,160.952 559.708,160.952 Z M561.748,151.296 C557.056,151.296 553.656,148.1 553.656,143 C553.656,137.9 557.056,134.704 561.748,134.704 C566.44,134.704 569.84,137.9 569.84,143 C569.84,148.1 566.44,151.296 561.748,151.296 Z M623.22,160.952 C633.556,160.952 640.9,155.512 640.9,146.332 C640.9,136.268 632.808,133.752 625.6,131.576 C618.188,129.332 617.032,127.836 617.032,125.66 C617.032,123.756 618.732,122.056 622.132,122.056 C626.484,122.056 628.728,124.164 630.36,127.564 L639.54,122.192 C636.072,115.188 629.952,111.448 622.132,111.448 C613.904,111.448 606.152,116.752 606.152,125.932 C606.152,135.044 613.088,138.444 620.16,140.416 C627.3,142.388 630.02,143.544 630.02,146.468 C630.02,148.304 628.728,150.344 623.56,150.344 C618.188,150.344 615.264,147.692 613.564,143.748 L604.18,149.188 C606.832,156.192 613.224,160.952 623.22,160.952 Z M665.754,160 L665.754,150.752 C661.266,151.024 658.75,150.752 658.75,147.828 L658.75,135.792 L665.754,135.792 L665.754,126 L658.75,126 L658.75,116.48 L648.55,119.54 L648.55,126 L643.11,126 L643.11,135.792 L648.55,135.792 L648.55,147.828 C648.55,157.348 652.426,161.36 665.754,160 Z M688.84,160.952 C695.3,160.952 700.332,158.572 703.664,153.948 L695.504,149.256 C694.144,150.752 691.764,151.84 688.976,151.84 C685.236,151.84 682.108,150.616 680.816,147.08 L704.956,147.08 C705.228,145.788 705.364,144.428 705.364,143 C705.364,132.732 698.02,125.048 688.092,125.048 C677.348,125.048 670.004,132.868 670.004,143 C670.004,153.132 677.212,160.952 688.84,160.952 Z M695.232,139.464 L680.612,139.464 C681.564,135.996 684.148,134.092 688.024,134.092 C691.084,134.092 694.144,135.52 695.232,139.464 Z M722.194,173.6 L722.194,156.804 C724.438,159.388 727.77,160.952 732.326,160.952 C741.234,160.952 748.578,153.132 748.578,143 C748.578,132.868 741.234,125.048 732.326,125.048 C727.77,125.048 724.438,126.612 722.194,129.196 L722.194,126 L711.994,126 L711.994,173.6 L722.194,173.6 Z M730.286,151.296 C725.594,151.296 722.194,148.1 722.194,143 C722.194,137.9 725.594,134.704 730.286,134.704 C734.978,134.704 738.378,137.9 738.378,143 C738.378,148.1 734.978,151.296 730.286,151.296 Z M760.308,123.008 C763.64,123.008 766.428,120.22 766.428,116.888 C766.428,113.556 763.64,110.768 760.308,110.768 C756.976,110.768 754.188,113.556 754.188,116.888 C754.188,120.22 756.976,123.008 760.308,123.008 Z M765.408,160 L765.408,126 L755.208,126 L755.208,160 L765.408,160 Z M783.938,160 L783.938,144.972 L794.818,160 L806.378,160 L793.662,143 L806.038,126 L794.138,126 L783.938,140.892 L783.938,112.4 L773.738,112.4 L773.738,160 L783.938,160 Z" id="Создавайтеприватныеонлайн-курсынаStepik"></path> </g> </g> </svg> 