<?xml version="1.0" encoding="UTF-8"?> <svg xmlns="http://www.w3.org/2000/svg" xmlns:xlink="http://www.w3.org/1999/xlink" width="1440px" height="749px" viewBox="0 0 1440 749"> <!-- Generator: Sketch 63.1 (92452) - https://sketch.com --> <title>Group 6 Copy</title> <desc>Created with Sketch.</desc> <defs> <rect id="path-1" x="0" y="0" width="1440" height="749"></rect> </defs> <g id="Page-1" stroke="none" stroke-width="1" fill="none" fill-rule="evenodd"> <g id="Group-6-Copy"> <mask id="mask-2" fill="white"> <use xlink:href="#path-1"></use> </mask> <use id="Rectangle-Copy-13" fill="#020415" xlink:href="#path-1"></use> <line x1="161" y1="419" x2="-68" y2="648" id="Stroke-23" stroke="#4485ED" stroke-width="38" opacity="0.25" mask="url(#mask-2)"></line> <path d="M1219,120.686227 C1241.18042,98.6604074 1276.8731,98.4401493 1299.32376,120.025452 L1300,120.686227 L1277.46664,144 C1267.67996,134.281532 1251.74151,134.184348 1241.83179,143.708446 L1241.53336,144 L1219,120.686227 Z" id="Stroke-1" fill="#6C7BDF" fill-rule="nonzero" opacity="0.25" mask="url(#mask-2)"></path> <g id="Group-7" opacity="0.25" mask="url(#mask-2)" fill-rule="nonzero"> <g transform="translate(947.000000, 194.000000)"> <path d="M284.466644,42 L307,65.3137733 C284.819584,87.3395926 249.126903,87.5598507 226.676242,65.9745479 L226,65.3137733 L248.533356,42 C258.320036,51.7184677 274.258492,51.8156524 284.168207,42.291554 L284.466644,42 Z" id="Stroke-7" fill="#6C7BDF"></path> <path d="M263.616205,250.826057 C269.787215,244.559051 279.849238,244.38248 286.237806,250.373562 L286.467105,250.592793 C296.289873,260.167235 312.2871,260.262979 322.233358,250.880026 L322.532895,250.592793 C328.907739,244.379109 339.138435,244.483545 345.383795,250.826057 C351.629154,257.168569 351.524185,267.347376 345.149341,273.56106 C322.662266,295.479647 286.337734,295.479647 263.850659,273.56106 C257.475815,267.347376 257.370846,257.168569 263.616205,250.826057 Z" id="Stroke-11" fill="#FFFFFF"></path> <path d="M356.850659,216.43894 C379.337734,194.520353 415.662266,194.520353 438.149341,216.43894 C444.524185,222.652624 444.629154,232.831431 438.383795,239.173943 C432.212785,245.440949 422.150762,245.61752 415.762194,239.626438 L415.532895,239.407207 C405.710127,229.832765 389.7129,229.737021 379.766642,239.119974 L379.467105,239.407207 C373.092261,245.620891 362.861565,245.516455 356.616205,239.173943 C350.370846,232.831431 350.475815,222.652624 356.850659,216.43894 Z" id="Stroke-15" fill="#FFFFFF"></path> <path d="M414.826057,215.616205 C421.168569,209.370846 431.347376,209.475815 437.56106,215.850659 C459.479647,238.337734 459.479647,274.662266 437.56106,297.149341 C431.347376,303.524185 421.168569,303.629154 414.826057,297.383795 C408.559051,291.212785 408.38248,281.150762 414.373562,274.762194 L414.592793,274.532895 C424.167235,264.710127 424.262979,248.7129 414.880026,238.766642 L414.592793,238.467105 C408.379109,232.092261 408.483545,221.861565 414.826057,215.616205 Z" id="Stroke-17" fill="#FFFFFF"></path> <polygon id="Stroke-21" fill="#6C7BDF" points="35.037542 242 58 264.962458 22.962458 300 0 277.037542"></polygon> <polygon id="Stroke-23" fill="#6C7BDF" points="177.128766 56 200 78.7495788 34.8712343 243 12 220.250421"></polygon> <polygon id="Stroke-25" fill="#6C7BDF" points="507.055455 0 530 22.7022218 392.944545 160 370 137.297778"></polygon> <polygon id="Stroke-33" fill="#FFFFFF" points="250.962458 215 286 250.037542 263.037542 273 228 237.962458"></polygon> <path d="M356.491811,216.719659 C362.78469,210.42678 372.987462,210.42678 379.280341,216.719659 C385.498304,222.937623 385.572328,232.972941 379.502411,239.281794 L379.280341,239.508189 L344.508189,274.280341 C338.21531,280.57322 328.012538,280.57322 321.719659,274.280341 C315.501696,268.062377 315.427672,258.027059 321.497589,251.718206 L321.719659,251.491811 L356.491811,216.719659 Z" id="Stroke-37" fill="#FFFFFF"></path> </g> </g> <path d="M1254.08362,576 L1277,598.529257 C1262.7733,612.350638 1239.83469,612.488852 1225.43376,598.943898 L1225,598.529257 L1247.91638,576 C1249.55871,577.595542 1252.22876,577.642469 1253.93154,576.140783 L1254.08362,576 Z" id="Stroke-13" fill="#6C7BDF" fill-rule="nonzero" mask="url(#mask-2)"></path> <polygon id="Stroke-19" fill="#56A4FF" fill-rule="nonzero" opacity="0.25" mask="url(#mask-2)" points="1196.19048 120 1219 142.80952 1135.80952 226 1113 203.19048"></polygon> <polygon id="Stroke-27" fill="#FFFFFF" fill-rule="nonzero" mask="url(#mask-2)" points="1402.14145 93 1425 115.858553 1254.85855 286 1232 263.141447"></polygon> <polygon id="Stroke-31" fill="#6C7BDF" fill-rule="nonzero" mask="url(#mask-2)" points="1363.09791 467 1386 489.902088 1276.90209 599 1254 576.097912"></polygon> <polygon id="Stroke-35" fill="#E5C859" fill-rule="nonzero" mask="url(#mask-2)" points="1191.62869 520 1243 572.065517 1220.37131 595 1169 542.934483"></polygon> <polygon id="Stroke-43" fill="#E5C859" fill-rule="nonzero" mask="url(#mask-2)" points="1198.24447 528 1221 550.770029 1161.45077 609.999939 1138.6953 610 1127 598.367537 1149.75541 575.597386 1150.07198 575.912946"></polygon> <path d="M1256.36645,128 L1233,104.814746 L1298.32128,40 C1311.22624,52.8048942 1311.22624,73.5656129 1298.32128,86.3705071 L1256.36645,128 Z" id="Fill-45" fill="#E5C859" mask="url(#mask-2)"></path> <path d="M1205.52491,156 C1188.82503,139.528882 1188.82503,112.824457 1205.52491,96.3533387 C1222.2248,79.8822204 1249.30012,79.8822204 1266,96.3533387" id="Fill-47" fill="#66CC66" mask="url(#mask-2)"></path> <path d="M999.190416,-160 L1022,-137.200809 C965.532475,-80.5057081 964.9678,11.0792689 1020.30597,68.4721676 L1022,70.2008093 L999.190416,93 C930.299067,23.8310037 929.610153,-87.8713735 997.123676,-157.891038 L999.190416,-160 Z" id="Stroke-1-Copy-3" fill="#6C7BDF" fill-rule="nonzero" mask="url(#mask-2)"></path> </g> </g> </svg> 