<?xml version="1.0" encoding="UTF-8"?> <svg xmlns="http://www.w3.org/2000/svg" width="122" height="122" viewBox="0 0 122 122" fill="none"> <rect x="27" y="30" width="73" height="72" rx="4" fill="url(#paint0_linear_9740_210752)"></rect> <rect x="22.5" y="25.833" width="73.1111" height="71.8333" rx="3.5" stroke="black"></rect> <path d="M103.056 14.8866L104.994 18.4817L105.054 18.5937L105.161 18.6632L108.529 20.8608L105.161 23.0584L105.054 23.1279L104.994 23.2399L103.056 26.835L101.117 23.2399L101.057 23.1279L100.95 23.0584L97.5817 20.8608L100.95 18.6632L101.057 18.5937L101.117 18.4817L103.056 14.8866Z" stroke="black"></path> <path d="M93.4722 10.9802L94.7071 13.0623L94.7723 13.1722L94.8821 13.2373L96.9643 14.4722L94.8821 15.7071L94.7723 15.7723L94.7071 15.8821L93.4722 17.9643L92.2373 15.8821L92.1722 15.7723L92.0623 15.7071L89.9802 14.4722L92.0623 13.2373L92.1722 13.1722L92.2373 13.0623L93.4722 10.9802Z" stroke="black"></path> <path fill-rule="evenodd" clip-rule="evenodd" d="M40.009 33.7821C40.009 33.4882 40.2472 33.25 40.5411 33.25C40.835 33.25 41.0732 33.4882 41.0732 33.7821V47.103C45.2335 47.3768 48.5231 50.838 48.5231 55.0675C48.5231 59.4759 44.9494 63.0495 40.5411 63.0495C36.1328 63.0495 32.5591 59.4759 32.5591 55.0675C32.5591 50.838 35.8487 47.3768 40.009 47.103V33.7821ZM40.5411 48.1498C36.7205 48.1498 33.6234 51.2469 33.6234 55.0675C33.6234 58.8881 36.7205 61.9853 40.5411 61.9853C44.3617 61.9853 47.4588 58.8881 47.4588 55.0675C47.4588 51.2469 44.3617 48.1498 40.5411 48.1498Z" fill="black"></path> <path d="M40.5411 63.0495H40.009V90.1884C40.009 90.4823 40.2472 90.7205 40.5411 90.7205C40.835 90.7205 41.0732 90.4823 41.0732 90.1884V63.0495H40.5411Z" fill="black"></path> <path d="M59.1658 33.7821C59.1658 33.4882 59.4041 33.25 59.698 33.25C59.9918 33.25 60.2301 33.4882 60.2301 33.7821V61.9853H59.698H59.1658V33.7821Z" fill="black"></path> <path fill-rule="evenodd" clip-rule="evenodd" d="M59.698 77.9493C55.2896 77.9493 51.7159 74.3756 51.7159 69.9673C51.7159 65.5589 55.2896 61.9853 59.698 61.9853C64.1063 61.9853 67.68 65.5589 67.68 69.9673C67.68 74.3756 64.1063 77.9493 59.698 77.9493ZM66.6157 69.9673C66.6157 73.7878 63.5185 76.885 59.698 76.885C55.8774 76.885 52.7802 73.7878 52.7802 69.9673C52.7802 66.1467 55.8774 63.0495 59.698 63.0495C63.5185 63.0495 66.6157 66.1467 66.6157 69.9673Z" fill="black"></path> <path d="M59.698 77.9493H59.1658V90.1884C59.1658 90.4823 59.4041 90.7205 59.698 90.7205C59.9918 90.7205 60.2301 90.4823 60.2301 90.1884V77.9493H59.698Z" fill="black"></path> <path fill-rule="evenodd" clip-rule="evenodd" d="M78.3227 33.7821C78.3227 33.4882 78.5609 33.25 78.8548 33.25C79.1487 33.25 79.387 33.4882 79.387 33.7821V47.103C83.5472 47.3768 86.8368 50.838 86.8368 55.0675C86.8368 59.4759 83.2632 63.0495 78.8548 63.0495C74.4465 63.0495 70.8728 59.4759 70.8728 55.0675C70.8728 50.838 74.1624 47.3768 78.3227 47.103V33.7821ZM78.8548 48.1498C75.0343 48.1498 71.9371 51.2469 71.9371 55.0675C71.9371 58.8881 75.0343 61.9853 78.8548 61.9853C82.6754 61.9853 85.7726 58.8881 85.7726 55.0675C85.7726 51.2469 82.6754 48.1498 78.8548 48.1498Z" fill="black"></path> <path d="M78.8548 63.0495H78.3227V90.1884C78.3227 90.4823 78.5609 90.7205 78.8548 90.7205C79.1487 90.7205 79.387 90.4823 79.387 90.1884V63.0495H78.8548Z" fill="black"></path> <defs> <linearGradient id="paint0_linear_9740_210752" x1="63.5" y1="30" x2="86.9356" y2="93.3271" gradientUnits="userSpaceOnUse"> <stop stop-color="#ADB9FD"></stop> <stop offset="1" stop-color="#C5ACFF"></stop> </linearGradient> </defs> </svg> 