<?xml version="1.0" encoding="utf-8"?>
<!-- Generator: Adobe Illustrator 21.0.0, SVG Export Plug-In . SVG Version: 6.00 Build 0)  -->
<svg version="1.1" id="Layer_1" xmlns="http://www.w3.org/2000/svg" xmlns:xlink="http://www.w3.org/1999/xlink" x="0px" y="0px"
	 viewBox="0 0 100 100" style="enable-background:new 0 0 100 100;" xml:space="preserve">
<style type="text/css">
	.st0{fill:none;stroke:#FFFFFF;stroke-width:6;stroke-miterlimit:10;}
</style>
<g>
	<g>
		<path class="st0" d="M47.9,38c-3.7,0.8-8,1.2-12.5,1.2c-14.8,0-26.8-4.9-26.8-10.9c0-6,12-10.9,26.8-10.9
			c12.2,0,22.5,3.3,25.8,7.8"/>
		<path class="st0" d="M51.4,59.2c-3.8,1.5-10.9,2-16,2c-14.8,0-26.8-4.9-26.8-10.9"/>
		<line class="st0" x1="8.6" y1="28.4" x2="8.6" y2="54.8"/>
	</g>
	<g>
		<path class="st0" d="M61.8,76.3c-4.1,3.9-13.3,7.7-26.4,7.7c-14.8,0-26.8-4.9-26.8-10.9"/>
		<line class="st0" x1="8.6" y1="51.7" x2="8.6" y2="72.7"/>
	</g>
	<g>
		<path class="st0" d="M68.3,23.3l-14.6,6.5L53.2,30c-5.5,2.4-5,15.4,1,28.9S69.6,81.4,75.1,79l0.4-0.2l14.6-6.5"/>
		
			<ellipse transform="matrix(0.9131 -0.4077 0.4077 0.9131 -12.593 36.4359)" class="st0" cx="79.2" cy="47.8" rx="10.9" ry="26.8"/>
	</g>
</g>
</svg>
