<?xml version="1.0" encoding="UTF-8"?> <svg xmlns="http://www.w3.org/2000/svg" width="669" height="467" viewBox="0 0 669 467" fill="none"> <path d="M279.914 386.49L269.15 375.726L207.105 313.681L104.93 211.506C75.964 182.54 28.9204 182.503 -3.32832e-05 211.424L154.768 366.192L216.726 428.15L228.102 439.526C242.804 454.228 266.938 454.072 281.266 438.869C295.158 424.102 294.265 400.842 279.914 386.49Z" fill="#3E50CB"></path> <path d="M281.301 439.484L292.065 428.72L354.11 366.675L615.854 104.93C644.82 75.9642 644.858 28.9205 615.937 0.000147537L301.599 314.338L239.641 376.296L228.265 387.672C213.563 402.374 213.719 426.508 228.922 440.836C243.689 454.728 266.949 453.835 281.301 439.484Z" fill="#6C7BDF"></path> </svg> 