<?xml version="1.0" encoding="UTF-8"?> <svg xmlns="http://www.w3.org/2000/svg" width="1106" height="749" fill="none" viewBox="0 0 1106 749"> <g clip-path="url(#a)"> <path stroke="url(#b)" stroke-miterlimit="10" stroke-width=".75" d="M-427.682 221.806a10.015 10.015 0 0 0 0 14.161 10.032 10.032 0 0 0 14.178 0L73.143-250.294l-14.178-14.165-486.647 486.265z" opacity=".5"></path> <path fill="url(#c)" d="M1105.75.86H.1v747.995h1105.65V.86z"></path> <path fill="url(#d)" d="M225.549 317.262c7.761 0 14.051-6.286 14.051-14.039 0-7.754-6.29-14.04-14.051-14.04-7.76 0-14.05 6.286-14.05 14.04 0 7.753 6.29 14.039 14.05 14.039z" style="mix-blend-mode:multiply"></path> <path fill="url(#e)" d="M1105.75.86H.1v747.995h1105.65V.86z" style="mix-blend-mode:multiply"></path> <path stroke="#fff" stroke-miterlimit="10" d="M831.353 136.362c12.721 0 23.034-10.304 23.034-23.015s-10.313-23.015-23.034-23.015c-12.722 0-23.035 10.304-23.035 23.015s10.313 23.015 23.035 23.015z"></path> <path fill="#fff" d="M80.352 253.93a4.496 4.496 0 0 0 4.498-4.494 4.496 4.496 0 0 0-4.498-4.494 4.496 4.496 0 0 0-4.497 4.494 4.496 4.496 0 0 0 4.497 4.494z"></path> <path fill="#082E51" d="M1042.61 267.739a4.494 4.494 0 1 0 0-8.988 4.5 4.5 0 0 0-4.5 4.494 4.5 4.5 0 0 0 4.5 4.494z" style="mix-blend-mode:multiply"></path> <path fill="url(#f)" d="M52.17 438.483a10.008 10.008 0 0 0 .212 13.932 10.029 10.029 0 0 0 13.943.228L552.989-33.599l-14.172-14.16L52.17 438.483z"></path> <path fill="url(#g)" d="M826.521 553.278a8.05 8.05 0 0 0 0 11.392 8.066 8.066 0 0 0 11.402 0L1158.9 243.964l-11.41-11.392-320.969 320.706z"></path> <path fill="url(#h)" d="M.1 748.855h1105.65V.86H.1v747.995z" opacity=".3" style="mix-blend-mode:multiply"></path> <path fill="url(#i)" d="M556.956 363.35a4.028 4.028 0 0 0-4.031-4.027 4.033 4.033 0 0 0-4.031 4.027v385.505h8.062V363.35z"></path> <path fill="#082E51" d="M289.09 431.245c8.905 0 16.124-7.213 16.124-16.111 0-8.897-7.219-16.11-16.124-16.11-8.905 0-16.124 7.213-16.124 16.11 0 8.898 7.219 16.111 16.124 16.111z" style="mix-blend-mode:multiply"></path> <path fill="url(#j)" d="M159.821 480.63a4.496 4.496 0 0 0 4.498-4.494 4.495 4.495 0 0 0-4.498-4.493 4.494 4.494 0 1 0 0 8.987z"></path> <path fill="url(#k)" d="M950.843 567.035c4.771 0 8.638-3.864 8.638-8.631 0-4.766-3.867-8.631-8.638-8.631-4.77 0-8.637 3.865-8.637 8.631 0 4.767 3.867 8.631 8.637 8.631z"></path> <path stroke="#fff" stroke-miterlimit="10" stroke-width=".42" d="M346.417 592.283l-9.565-16.554a17.441 17.441 0 0 0-15.065-8.694h-19.13a17.455 17.455 0 0 0-15.07 8.694l-9.565 16.554a17.409 17.409 0 0 0 0 17.382l9.565 16.554a17.464 17.464 0 0 0 15.07 8.711h19.13a17.452 17.452 0 0 0 15.065-8.694l9.565-16.554a17.423 17.423 0 0 0 0-17.399z"></path> <path stroke="#007BFF" stroke-miterlimit="10" stroke-width=".75" d="M385.471 529.635l-48.032-27.722a50.63 50.63 0 0 0-50.44 0l-48.026 27.722a50.549 50.549 0 0 0-18.447 18.449 50.493 50.493 0 0 0-6.782 25.182v55.415a50.483 50.483 0 0 0 6.776 25.193 50.546 50.546 0 0 0 18.453 18.456l48.032 27.71a50.608 50.608 0 0 0 50.434 0l48.026-27.71a50.557 50.557 0 0 0 18.446-18.456 50.493 50.493 0 0 0 6.777-25.187v-55.426a50.503 50.503 0 0 0-6.78-25.177 50.56 50.56 0 0 0-18.437-18.449z"></path> <path stroke="#007BFF" stroke-miterlimit="10" stroke-width="2" d="M434.84 31.637L363.577-91.696a129.911 129.911 0 0 0-47.469-47.359 130.048 130.048 0 0 0-64.783-17.4H108.8a130.06 130.06 0 0 0-64.78 17.399A129.92 129.92 0 0 0-3.453-91.701L-74.715 31.637a129.74 129.74 0 0 0-17.314 64.75 129.74 129.74 0 0 0 17.314 64.751l71.263 123.339a129.934 129.934 0 0 0 47.473 47.349 130.083 130.083 0 0 0 64.779 17.399h142.525a130.074 130.074 0 0 0 64.779-17.397 129.925 129.925 0 0 0 47.473-47.351l71.297-123.339a129.787 129.787 0 0 0-.034-129.5z"></path> <path fill="#fff" d="M816.668 110.712l-2.303-4.028a4.253 4.253 0 0 0-3.68-2.123h-4.664a4.25 4.25 0 0 0-3.68 2.123l-2.303 4.028a4.223 4.223 0 0 0 0 4.24l2.303 4.028a4.253 4.253 0 0 0 3.68 2.123h4.664a4.25 4.25 0 0 0 3.68-2.123l2.303-4.028a4.22 4.22 0 0 0 0-4.24zM1043.76 557.61l-.87-1.507a1.597 1.597 0 0 0-1.37-.794h-1.73c-.28-.007-.57.063-.82.203s-.45.344-.6.591l-.87 1.507c-.14.241-.21.515-.21.794s.07.553.21.794l.87 1.508c.14.241.34.441.59.58.24.14.51.213.79.214h1.73c.28-.001.55-.075.79-.214.24-.14.44-.34.58-.58l.87-1.508c.15-.238.23-.51.24-.788a1.6 1.6 0 0 0-.2-.8zM199.382 179.723l-.61-1.07a1.157 1.157 0 0 0-.979-.576h-1.244a1.156 1.156 0 0 0-.979.576l-.622 1.076a1.15 1.15 0 0 0 0 1.151l.622 1.075a1.15 1.15 0 0 0 .979.576h1.244a1.146 1.146 0 0 0 .979-.576l.622-1.075a1.156 1.156 0 0 0-.012-1.157z"></path> <path stroke="#fff" stroke-miterlimit="10" stroke-width=".75" d="M346.417 592.283l-9.565-16.554a17.441 17.441 0 0 0-15.065-8.694h-19.13a17.455 17.455 0 0 0-15.07 8.694l-9.565 16.554a17.409 17.409 0 0 0 0 17.382l9.565 16.554a17.464 17.464 0 0 0 15.07 8.711h19.13a17.452 17.452 0 0 0 15.065-8.694l9.565-16.554a17.423 17.423 0 0 0 0-17.399z"></path> <path stroke="#007BFF" stroke-miterlimit="10" stroke-width=".75" d="M312.504 495.187V.285"></path> <path fill="url(#l)" d="M872.014 297.233a8.063 8.063 0 0 0-2.361 5.696 8.067 8.067 0 0 0 4.977 7.443 8.065 8.065 0 0 0 8.786-1.746L1117.15 75.084l-11.4-11.387-233.736 233.536z"></path> <path fill="url(#m)" d="M1053.99 115.413a7.96 7.96 0 0 0-1.75 2.613 7.97 7.97 0 0 0 0 6.166c.4.977 1 1.865 1.75 2.613a7.934 7.934 0 0 0 2.61 1.747 8.06 8.06 0 0 0 6.17 0 8.081 8.081 0 0 0 2.62-1.747l115.68-115.588-11.4-11.393-115.68 115.589z"></path> <path fill="url(#n)" d="M410.93 79.446a10.021 10.021 0 0 0-3.165 7.139 10.004 10.004 0 0 0 6.251 9.442 10.025 10.025 0 0 0 11.069-2.421L674.057-155.16l-14.172-14.16L410.93 79.446z"></path> <path fill="url(#o)" d="M312.717 206.473l183.048-183.53v-28.32L312.717 178.146v28.327z"></path> <path fill="url(#p)" d="M556.956 507.005c85.907 0 155.545 69.581 155.545 155.417 0 85.835-69.638 155.41-155.545 155.41" opacity=".75" style="mix-blend-mode:multiply"></path> <path stroke="url(#q)" stroke-miterlimit="10" stroke-width=".75" d="M903.433 221.806a10.011 10.011 0 0 0 .163 14.003 10.03 10.03 0 0 0 14.014.158l486.65-486.261-14.17-14.165-486.657 486.265z" opacity=".5"></path> <path fill="#007BFF" d="M877.721 303.516a.65.65 0 1 0 .002-1.3.65.65 0 0 0-.002 1.3z"></path> </g> <defs> <linearGradient id="b" x1="73.448" x2="-430.832" y1="-12.834" y2="-12.834" gradientUnits="userSpaceOnUse"> <stop stop-color="#082E51" stop-opacity="0"></stop> <stop offset="1" stop-color="#7175C8"></stop> </linearGradient> <linearGradient id="c" x1="599.973" x2="514.098" y1="851.123" y2="-19.655" gradientUnits="userSpaceOnUse"> <stop stop-color="#007BFF"></stop> <stop offset=".01" stop-color="#0477FC"></stop> <stop offset=".23" stop-color="#3742D7"></stop> <stop offset=".34" stop-color="#4B2DC8"></stop> <stop offset=".47" stop-color="#372DA4"></stop> <stop offset=".62" stop-color="#222E80"></stop> <stop offset=".77" stop-color="#142E66"></stop> <stop offset=".9" stop-color="#0B2E56"></stop> <stop offset="1" stop-color="#082E51"></stop> </linearGradient> <radialGradient id="d" cx="0" cy="0" r="1" gradientTransform="matrix(19.7922 0 0 19.7758 223.816 303.913)" gradientUnits="userSpaceOnUse"> <stop stop-color="#017AFE" stop-opacity=".5"></stop> <stop offset=".19" stop-color="#3643D7" stop-opacity=".86"></stop> <stop offset=".28" stop-color="#4B2DC8"></stop> <stop offset=".42" stop-color="#372DA4"></stop> <stop offset=".59" stop-color="#222E80"></stop> <stop offset=".75" stop-color="#142E66"></stop> <stop offset=".89" stop-color="#0B2E56"></stop> <stop offset="1" stop-color="#082E51"></stop> </radialGradient> <radialGradient id="e" cx="0" cy="0" r="1" gradientTransform="matrix(906400 0 0 613199 514735 364514)" gradientUnits="userSpaceOnUse"> <stop stop-color="#017AFE" stop-opacity=".5"></stop> <stop offset=".19" stop-color="#3643D7" stop-opacity=".86"></stop> <stop offset=".28" stop-color="#4B2DC8"></stop> <stop offset=".42" stop-color="#372DA4"></stop> <stop offset=".59" stop-color="#222E80"></stop> <stop offset=".75" stop-color="#142E66"></stop> <stop offset=".89" stop-color="#0B2E56"></stop> <stop offset="1" stop-color="#082E51"></stop> </radialGradient> <linearGradient id="f" x1="539.611" x2="22.588" y1="203.912" y2="203.912" gradientUnits="userSpaceOnUse"> <stop stop-color="#082E51" stop-opacity="0"></stop> <stop offset="1" stop-color="#4B2DC8"></stop> </linearGradient> <linearGradient id="g" x1="1150" x2="806.458" y1="399.8" y2="399.8" gradientUnits="userSpaceOnUse"> <stop stop-color="#4B2DC8"></stop> <stop offset=".2" stop-color="#372DA4"></stop> <stop offset=".43" stop-color="#222E80"></stop> <stop offset=".65" stop-color="#142E66"></stop> <stop offset=".84" stop-color="#0B2E56"></stop> <stop offset="1" stop-color="#082E51"></stop> </linearGradient> <radialGradient id="h" cx="0" cy="0" r="1" gradientTransform="matrix(-906400 0 0 -613199 9912800 -363764)" gradientUnits="userSpaceOnUse"> <stop stop-color="#017AFE" stop-opacity=".5"></stop> <stop offset=".19" stop-color="#3643D7" stop-opacity=".86"></stop> <stop offset=".28" stop-color="#4B2DC8"></stop> <stop offset=".42" stop-color="#372DA4"></stop> <stop offset=".59" stop-color="#222E80"></stop> <stop offset=".75" stop-color="#142E66"></stop> <stop offset=".89" stop-color="#0B2E56"></stop> <stop offset="1" stop-color="#082E51"></stop> </radialGradient> <linearGradient id="i" x1="552.925" x2="552.925" y1="764.667" y2="325.772" gradientUnits="userSpaceOnUse"> <stop stop-color="#082E51" stop-opacity="0"></stop> <stop offset="1" stop-color="#4B2DC8"></stop> </linearGradient> <linearGradient id="j" x1="155.329" x2="164.319" y1="476.136" y2="476.136" gradientUnits="userSpaceOnUse"> <stop offset=".07" stop-color="#270051"></stop> <stop offset="1" stop-color="#4B2DC8"></stop> </linearGradient> <linearGradient id="k" x1="46330.1" x2="46696.3" y1="50567.8" y2="50201.4" gradientUnits="userSpaceOnUse"> <stop offset=".07" stop-color="#270051"></stop> <stop offset="1" stop-color="#4B2DC8"></stop> </linearGradient> <linearGradient id="l" x1="478130" x2="368961" y1="63146.8" y2="63146.8" gradientUnits="userSpaceOnUse"> <stop stop-color="#082E51" stop-opacity="0"></stop> <stop offset="1" stop-color="#4B2DC8"></stop> </linearGradient> <linearGradient id="m" x1="1177.63" x2="1044.78" y1="64.497" y2="64.497" gradientUnits="userSpaceOnUse"> <stop stop-color="#082E51" stop-opacity="0"></stop> <stop offset="1" stop-color="#007BFF"></stop> </linearGradient> <linearGradient id="n" x1="308805" x2="182521" y1="-35755" y2="-35755" gradientUnits="userSpaceOnUse"> <stop stop-color="#082E51" stop-opacity="0"></stop> <stop offset="1" stop-color="#4B2DC8"></stop> </linearGradient> <linearGradient id="o" x1="164375" x2="76480.9" y1="22079.9" y2="22079.9" gradientUnits="userSpaceOnUse"> <stop stop-color="#082E51" stop-opacity="0"></stop> <stop offset="1" stop-color="#4B2DC8"></stop> </linearGradient> <radialGradient id="p" cx="0" cy="0" r="1" gradientTransform="matrix(28931.4 0 0 57813.7 161156 324342)" gradientUnits="userSpaceOnUse"> <stop stop-color="#017AFE" stop-opacity=".5"></stop> <stop offset=".19" stop-color="#3643D7" stop-opacity=".86"></stop> <stop offset=".28" stop-color="#4B2DC8"></stop> <stop offset=".42" stop-color="#372DA4"></stop> <stop offset=".59" stop-color="#222E80"></stop> <stop offset=".75" stop-color="#142E66"></stop> <stop offset=".89" stop-color="#0B2E56"></stop> <stop offset="1" stop-color="#082E51"></stop> </radialGradient> <linearGradient id="q" x1="1229130" x2="788127" y1="-46961.5" y2="-46961.5" gradientUnits="userSpaceOnUse"> <stop stop-color="#082E51" stop-opacity="0"></stop> <stop offset="1" stop-color="#7175C8"></stop> </linearGradient> <clipPath id="a"> <path fill="#fff" d="M0 0h1106v749H0z"></path> </clipPath> </defs> </svg> 