<svg id="Layer_1" data-name="Layer 1" xmlns="http://www.w3.org/2000/svg" xmlns:xlink="http://www.w3.org/1999/xlink" viewBox="0 0 560 400"><defs><style>.cls-1{fill:#f2f2f2;}.cls-2{fill:#fff;}.cls-3,.cls-4,.cls-5,.cls-6,.cls-7{fill:none;stroke-miterlimit:10;}.cls-3,.cls-5,.cls-6,.cls-7{stroke-width:30px;}.cls-3{stroke:url(#linear-gradient);}.cls-4{stroke-width:10px;stroke:url(#linear-gradient-2);}.cls-5{stroke:url(#linear-gradient-3);}.cls-6{stroke:url(#linear-gradient-4);}.cls-7{stroke:url(#linear-gradient-5);}</style><linearGradient id="linear-gradient" x1="-617.36" y1="220.14" x2="368.81" y2="220.14" gradientTransform="translate(-117.32 569.48) rotate(90)" gradientUnits="userSpaceOnUse"><stop offset="0.01" stop-color="#ccc" stop-opacity="0.1"/><stop offset="0.21" stop-color="#cbcdcd" stop-opacity="0.12"/><stop offset="0.41" stop-color="#c8d1d1" stop-opacity="0.17"/><stop offset="0.49" stop-color="#c6d4d4" stop-opacity="0.2"/><stop offset="0.54" stop-color="#c8d5d5" stop-opacity="0.24"/><stop offset="0.63" stop-color="#ced9d9" stop-opacity="0.34"/><stop offset="0.74" stop-color="#d7e0e0" stop-opacity="0.51"/><stop offset="0.87" stop-color="#e4e8e8" stop-opacity="0.74"/><stop offset="1" stop-color="#f2f2f2"/></linearGradient><linearGradient id="linear-gradient-2" x1="-515.67" y1="-593.04" x2="-82.32" y2="-593.04" gradientTransform="translate(-117.32 569.48) rotate(90)" gradientUnits="userSpaceOnUse"><stop offset="0" stop-color="#fff" stop-opacity="0.1"/><stop offset="1" stop-color="#d7d7cd"/></linearGradient><linearGradient id="linear-gradient-3" x1="-779.49" y1="-301.4" x2="-260.26" y2="-301.4" gradientTransform="translate(-117.32 569.48) rotate(90)" gradientUnits="userSpaceOnUse"><stop offset="0" stop-color="#fff" stop-opacity="0.1"/><stop offset="1" stop-color="#bccdff"/></linearGradient><linearGradient id="linear-gradient-4" x1="-968.04" y1="202.14" x2="-359.09" y2="202.14" gradientTransform="translate(-117.32 569.48) rotate(90)" gradientUnits="userSpaceOnUse"><stop offset="0" stop-color="#f1f2f2" stop-opacity="0"/><stop offset="0.04" stop-color="#eff2f2" stop-opacity="0.02"/><stop offset="0.09" stop-color="#ebf2f2" stop-opacity="0.08"/><stop offset="0.14" stop-color="#e3f2f2" stop-opacity="0.17"/><stop offset="0.2" stop-color="#d9f2f2" stop-opacity="0.3"/><stop offset="0.25" stop-color="#ccf2f2" stop-opacity="0.47"/><stop offset="0.31" stop-color="#bbf2f2" stop-opacity="0.67"/><stop offset="0.36" stop-color="#a8f2f2" stop-opacity="0.91"/><stop offset="0.38" stop-color="#a1f2f2"/><stop offset="0.43" stop-color="#a3f2f2" stop-opacity="0.97"/><stop offset="0.5" stop-color="#aaf1f1" stop-opacity="0.9"/><stop offset="0.57" stop-color="#b4efef" stop-opacity="0.78"/><stop offset="0.66" stop-color="#c2eded" stop-opacity="0.61"/><stop offset="0.75" stop-color="#d5eaeb" stop-opacity="0.4"/><stop offset="0.82" stop-color="#e6e7e8" stop-opacity="0.2"/><stop offset="1" stop-color="#e6e7e8" stop-opacity="0"/></linearGradient><linearGradient id="linear-gradient-5" x1="-521.03" y1="-910.89" x2="4.16" y2="-910.89" gradientTransform="translate(868.15 -371.81) rotate(-135)" xlink:href="#linear-gradient-4"/></defs><title>Artboard 10</title><path class="cls-1" d="M2273.4,856.94,1947.46,531c-125.77-126-292.85-195.12-470.44-195.12S1132.36,405.09,1006.55,531L680.64,856.94c-125.89,125.73-195.13,292.8-195.13,470.51s69.24,344.76,195.13,470.5l325.9,325.87C1132.36,2249.77,1299.47,2319,1477,2319c172.88,0,336.83-66.24,461.58-186.3l.65-.54.61-.57L2273.4,1798c125.85-125.77,195.14-292.9,195.14-470.54S2399.25,982.67,2273.4,856.94Z"/><rect class="cls-2" width="560" height="400"/><path class="cls-3" d="M-951,927.69-44.72,21.41C27.66-51,145-51,217.38,21.41s72.38,189.72,0,262.1L-46.47,547.37"/><line class="cls-4" x1="688.93" y1="57.35" x2="262.5" y2="483.62"/><line class="cls-5" x1="433.15" y1="-199.4" x2="-65.01" y2="298.61"/><path class="cls-6" d="M-278.53-387.95-654.51-12a121.52,121.52,0,0,0,0,171.82,121.49,121.49,0,0,0,171.83,0l85.88-85.89,86-85.93A121.54,121.54,0,0,1-139-12L55.54,182.52"/><path class="cls-7" d="M560,658.23l0-455.34a104.05,104.05,0,0,0-208.11,0v104l0,104.09A104.09,104.09,0,0,1,247.81,515.08H12.2"/></svg>