<?xml version="1.0" encoding="UTF-8"?> <svg xmlns="http://www.w3.org/2000/svg" width="159" height="42" viewBox="0 0 159 42" fill="none"> <path d="M67.96 12.72V18.28H61.64V12.72H58.66V27H61.64V21.02H67.96V27H70.94V12.72H67.96ZM77.9259 31L84.1259 16.72H81.3059L78.9459 22.2H78.4259L75.8659 16.72H72.9459L77.3059 25.94L75.1259 31H77.9259ZM91.1409 18.8C92.8209 18.8 93.6009 20.16 93.6009 21.86C93.6009 23.56 92.8209 24.94 91.1409 24.94C89.4009 24.94 88.6409 23.48 88.6409 21.86C88.6409 20.24 89.4009 18.8 91.1409 18.8ZM85.9409 16.72V31H88.7409V26.06H89.2609C89.8009 26.78 90.6209 27.26 92.0409 27.26C94.7409 27.26 96.4009 25 96.4009 21.86C96.4009 18.76 94.7609 16.46 92.0409 16.46C90.6009 16.46 89.7209 16.96 89.1609 17.66H88.6409V16.72H85.9409ZM108.333 21.34C108.273 18.54 106.493 16.46 103.373 16.46C100.193 16.46 98.193 18.54 98.193 21.82C98.193 25.1 100.173 27.26 103.433 27.26C106.233 27.26 107.813 25.92 108.233 23.86H105.393C105.133 24.56 104.533 24.94 103.473 24.94C101.873 24.94 101.053 23.94 100.973 22.18H108.333V21.34ZM103.353 18.56C104.633 18.56 105.313 19.28 105.473 20.32H101.073C101.333 19.28 102.013 18.56 103.353 18.56ZM117.647 16.72H116.687C115.047 16.72 114.247 17.4 113.927 17.88H113.407V16.72H110.707V27H113.507V22.5C113.507 20.44 114.487 19.32 116.647 19.32H117.647V16.72ZM128.031 19.54C127.811 17.7 126.251 16.46 123.671 16.46C120.631 16.46 119.291 17.92 119.291 19.68C119.291 21.44 120.431 22.22 122.051 22.52L124.051 22.84C125.071 23.02 125.531 23.28 125.531 23.98C125.531 24.72 124.871 25.1 123.751 25.1C122.571 25.1 121.851 24.7 121.711 23.76H118.931C119.151 25.9 120.651 27.26 123.771 27.26C126.791 27.26 128.331 25.64 128.331 23.92C128.331 21.86 126.991 20.92 125.051 20.62L123.191 20.34C122.491 20.2 122.091 20.06 122.091 19.5C122.091 18.88 122.731 18.62 123.591 18.62C124.491 18.62 125.111 18.84 125.251 19.54H128.031ZM140.869 27L137.409 19.9L140.329 16.72H137.209L133.409 20.74V12.46H130.589V27H133.409V24L135.029 22.18H135.549L137.929 27H140.869ZM145.402 14.96V12.46H142.562V14.96H145.402ZM145.382 16.72H142.582V27H145.382V16.72ZM148.363 12.46V27H151.163V12.46H148.363ZM154.125 12.46V27H156.925V12.46H154.125Z" fill="#6C63FF"></path> <path d="M42.5748 15.6154L36.8086 5.38461C34.9084 2.08654 31.5011 0 27.7662 0H16.2338C12.4989 0 9.02606 2.08654 7.19136 5.38461L1.42517 15.6154C-0.475056 18.9808 -0.475056 23.0192 1.42517 26.3846L7.19136 36.6154C9.09159 39.9135 12.4989 42 16.2338 42H27.7662C31.5011 42 34.9739 39.9135 36.8086 36.6154L42.5748 26.3846C44.4751 23.0192 44.4751 18.9808 42.5748 15.6154Z" fill="#6C63FF"></path> <path d="M23.1095 17.2967C22.6523 16.8612 21.999 16.8612 21.5418 17.2967C21.0845 17.7321 21.0845 18.3541 21.5418 18.7895L22.195 19.4115H15.8588V16.5502C15.8588 15.1196 14.6177 14 13.1806 14H11.6782C10.1758 14 9 15.1818 9 16.5502V24.4498C9 25.8804 10.2411 27 11.6782 27H13.1806C14.683 27 15.8588 25.8182 15.8588 24.4498V21.5885H22.195L21.5418 22.2105C21.0845 22.6459 21.0845 23.3301 21.5418 23.7033C21.999 24.1388 22.7176 24.1388 23.1095 23.7033L25.6571 21.2153C26.1143 20.7799 26.1143 20.1579 25.6571 19.7225L23.1095 17.2967Z" fill="#F0F2F7"></path> <path d="M32.2651 12H30.7324C29.1996 12 28 13.2085 28 14.6078V27.3922C28 28.8551 29.2662 30 30.7324 30H32.2651C33.7979 30 34.9975 28.7915 34.9975 27.3922V14.6078C35.0641 13.2085 33.7979 12 32.2651 12Z" fill="#F0F2F7"></path> </svg> 