<?xml version="1.0" encoding="UTF-8"?> <svg xmlns="http://www.w3.org/2000/svg" width="1320" height="1320" viewBox="0 0 1320 1320" fill="none"> <path d="M481.863 656.277C502.168 638.038 533.671 638.798 553.217 658.367L822.2 927.533L872.3 877.376L602.748 607.64C556.064 561.282 481.104 560.333 433.091 604.6" fill="#222437"></path> <path d="M444.642 746.636C464.948 728.397 496.45 729.157 515.996 748.726L784.98 1017.89L835.08 967.735L565.527 697.999C518.843 651.642 443.883 650.692 395.871 694.959" fill="#222437"></path> <path d="M398.681 830.781C418.987 812.542 450.489 813.302 470.036 832.871L648.81 1011.83L698.91 961.671L519.566 782.144C472.882 735.786 397.922 734.836 349.91 779.104" fill="#222437"></path> <path d="M674.101 936.367L684.449 946.703L706.104 968.333C734.082 996.279 734.082 1041.64 706.104 1069.4L667.394 1030.73L633.859 997.236L622.936 986.325C608.755 972.161 608.947 949 623.702 935.027C637.883 921.628 660.304 922.585 674.101 936.367Z" fill="white"></path> <path d="M790.802 923.347L801.151 933.683L837.369 969.86C865.347 997.806 865.347 1043.17 837.369 1070.93L798.468 1032.07L750.56 984.216L739.637 973.305C725.456 959.141 725.648 935.98 740.403 922.007C754.584 908.608 777.005 909.565 790.802 923.347Z" fill="white"></path> <path d="M867.072 871.473L877.42 881.809L925.52 929.854C953.498 957.8 953.498 1003.17 925.52 1030.92L886.618 992.063L826.829 932.342L815.906 921.432C801.726 907.267 801.917 884.106 816.673 870.133C830.854 856.926 853.275 857.691 867.072 871.473Z" fill="white"></path> <path d="M668.159 470.465C649.763 490.946 650.529 522.721 670.267 542.436L922.655 794.612L872.064 845.145L619.102 592.395C572.344 545.307 571.385 469.699 616.036 421.272" fill="#222437"></path> <path d="M616.81 469.663L618.224 471.077C631.892 484.746 654.053 484.746 667.721 471.077L847.327 291.472L796.415 240.561L616.81 420.166C603.141 433.834 603.141 455.995 616.81 469.663Z" fill="#222437"></path> <path d="M779.773 257.203L790.127 246.849L798.755 238.22C826.69 210.285 872.195 210.276 900.359 238.439L861.531 277.268L841.146 297.652L830.253 308.546C816.016 322.783 792.776 322.409 778.801 307.786C765.151 293.489 765.967 271.008 779.773 257.203Z" fill="#3E50CB"></path> <path d="M908.334 779.301L918.682 789.638L966.781 837.682C994.76 865.628 994.76 910.993 966.781 938.748L927.88 899.891L868.091 840.17L857.168 829.26C842.987 815.095 843.179 791.934 857.935 777.961C872.115 764.754 894.536 765.52 908.334 779.301Z" fill="white"></path> <path d="M306.49 661.238C326.971 679.635 358.746 678.868 378.461 659.13L630.637 406.742L681.169 457.333L429.023 709.692L428.42 710.296C406.546 732.017 339.204 799.512 339.204 799.512C339.204 799.512 281.106 739.391 255.176 715.483" fill="#222437"></path> <path d="M274.67 783.568C295.151 801.964 326.926 801.198 346.641 781.46L598.817 529.072L649.35 579.663L396.6 832.625C349.513 879.383 273.904 880.342 225.477 835.691" fill="#222437"></path> <path d="M387.099 768.718C407.58 787.115 439.355 786.348 459.07 766.61L675.701 549.767L726.234 600.358L509.03 817.776C461.943 864.534 386.333 865.492 337.906 820.842" fill="#222437"></path> </svg> 