<?xml version="1.0" encoding="UTF-8"?> <svg xmlns="http://www.w3.org/2000/svg" width="112" height="64" viewBox="0 0 112 64" fill="none"> <path d="M14.564 40.767c-4.176.736-7.937.677-11.157-.177-.446-.117-.606 0-.255.413 2.646 3.148 6.822 5.178 11.508 5.12 4.335-.06 8.192-1.855 10.775-4.679.319-.353.319-.589-.16-.706-3.952-.883-7.491-.53-10.71.03z" fill="url(#paint0_linear)"></path> <path d="M24.787 40.787c-1.566-.32-4.041.146-8.866 2.362-3.039 1.4-6.14 1.896-8.52 1.342 2.066 1.05 4.416 1.632 6.954 1.632 4.26-.058 8.052-1.836 10.59-4.636.312-.379.312-.612-.158-.7z" fill="url(#paint1_linear)"></path> <path d="M13.866 39.197c3.545-.671 7.404-1.118 11.827.192.439.128.69-.032.878-.383a14.522 14.522 0 001.537-4.922c.063-.512-.062-.735-.502-.863-5.364-1.566-10.164-1.087-13.803-.48-4.957.863-9.192.575-13.145-.83-.5-.193-.658-.128-.658.51.031 1.758.345 3.452.941 5.018.188.48.533.83 1.098 1.055 3.232 1.342 7.215 1.566 11.827.703z" fill="url(#paint2_linear)"></path> <path d="M2.467 38.549c3.205 1.288 7.12 1.498 11.65.659 3.482-.63 7.273-1.049 11.618.18.431.12.678-.03.863-.36a13.17 13.17 0 001.51-4.614c.062-.48-.061-.69-.493-.81-3.39-.988-9.307.54-13.345 2.517-4.53 2.188-8.444 2.907-11.803 2.427z" fill="url(#paint3_linear)"></path> <path d="M13.88 24.662c3.442-.033 6.346 2.285 7.325 5.47.158.546.379.676.853.708 1.736.129 3.567.385 5.462.933.442.128.631-.033.6-.547C27.488 23.76 21.3 17.905 13.786 18c-6.79.097-12.41 5.02-13.735 11.488-.127.58-.031.772.442.965A20.417 20.417 0 005.64 31.71c.569.064.695-.032.821-.708.726-3.54 3.726-6.274 7.42-6.338v-.001z" fill="url(#paint4_linear)"></path> <path d="M21.216 30.144c-1.011-5.03-5.434-8.753-10.709-8.69-4.96.064-9.224 3.566-10.456 8.149-.127.572-.031.763.442.954a20.625 20.625 0 005.15 1.241c.568.064.694-.031.82-.7.664-3.5 3.697-6.206 7.392-6.238 3.444-.032 6.35 2.26 7.33 5.41" fill="url(#paint5_linear)"></path> <path d="M35.523 26.9a3.448 3.448 0 01-1.48-.619v-.88H44.86a24.243 24.243 0 01-.594 4.347h-1.057l-1.315-2.888h-2.59v3.872a16.946 16.946 0 011.94-.11c2.56 0 4.641 1.11 4.641 3.688 0 2.578-2.081 3.92-5.415 3.92-.266 0-2.771-.057-3.506-.057h-2.92v-.872a3.721 3.721 0 011.479-.627v-9.773zm3.56 5.509v4.348c.278.049.559.072.84.069 1.058 0 1.5-.985 1.5-2.289 0-1.304-.39-2.242-1.597-2.242-.251.01-.5.05-.743.114zM51.467 25.4h6.008v.847a3.125 3.125 0 01-1.215.623v.623c.653-.069 1.31-.098 1.966-.088 2.724 0 4.434 1.598 4.434 4.241 0 3.011-2.205 4.41-4.746 4.41a14.862 14.862 0 01-1.654-.088v.798a3.33 3.33 0 011.215.624v.838h-6.008v-.799a3.46 3.46 0 011.302-.606v-.8c-.623.056-1.486.056-1.965.056-2.333 0-4.426-1.158-4.426-4.225 0-2.844 2.061-4.425 4.794-4.425h1.597v-.559a3.077 3.077 0 01-1.302-.623V25.4zm1.325 9.27v-5.805a4.156 4.156 0 00-.631 0c-.88 0-1.836.758-1.836 3.055 0 1.967.706 2.854 1.836 2.854.214-.007.427-.041.63-.105v.001zm3.454-5.696v5.78c.21.027.422.027.631 0 .938 0 1.836-.717 1.836-3.035 0-1.908-.515-2.866-1.745-2.866a2.61 2.61 0 00-.722.121zm14.767-2.083a2.924 2.924 0 01-1.225-.615v-.876H74.5v.876a3.371 3.371 0 01-1.265.615l-3.354 7.568c-1.28 2.668-2.915 4.01-4.32 3.733a6.16 6.16 0 01-1.296-2.628l.785-.994 2.498.868c.156-.191.293-.398.409-.616l-5.162-7.892a3.139 3.139 0 01-1.123-.615V25.4h6.614v.876a3.215 3.215 0 01-1.264.615l2.042 3.686.377 1.183h.04l.36-1.2 1.171-3.67v.001zm6.449-1.491h2.314v.424a1.79 1.79 0 01-.426.19v1.34l-.074.739.283-.6 1.068-2.093h1.769v.424a1.462 1.462 0 01-.47.19v2.718c.163.038.322.102.47.191v.424H80.08v-.424c.133-.087.276-.152.426-.19v-1.43l.075-.623-.269.59-1.037 2.077h-1.814v-.424c.149-.085.307-.15.47-.19v-2.719a1.134 1.134 0 01-.47-.19V25.4zm6.988 3.947h-1.561v-.424a1.8 1.8 0 01.461-.19l.176-2.643a2.33 2.33 0 01-.461-.266v-.424h2.154l.477 1.471.131.548.147-.557.454-1.462h2.242v.424c-.14.091-.297.156-.461.19l.139 2.718c.162.034.318.099.462.191v.424h-2.272v-.424a1.8 1.8 0 01.418-.19l-.14-2.435-.996 3.049h-.527l-1.1-3.05h-.058l-.103 2.435c.147.041.287.105.418.191v.424zm8.66-.808a1.88 1.88 0 01-1.77.794 1.805 1.805 0 01-1.458-.488 1.874 1.874 0 01-.576-1.448 1.907 1.907 0 01.6-1.502 1.835 1.835 0 011.52-.475c1.092 0 1.824.452 1.824 1.587 0 .187-.018.373-.054.556h-2.238a.994.994 0 00.278.796c.206.21.494.313.783.283.323-.003.639-.097.912-.27l.179.167zm-2.128-1.468h.71v-.484c0-.437-.086-.62-.32-.62-.235 0-.336.136-.39 1.104zm5.043 2.276h-2.282v-.424c.15-.092.311-.156.48-.19v-2.719a1.98 1.98 0 01-.48-.19V25.4h2.282v.423a2.164 2.164 0 01-.358.191v1.047h1.057v-1.047c-.12-.044-.23-.109-.328-.19V25.4h2.282v.423c-.145.09-.305.155-.472.191v2.718c.167.028.328.094.472.191v.423h-2.281v-.423a.92.92 0 01.365-.191v-1.097h-1.125v1.097a.95.95 0 01.357.191l.03.423v.001zm3.146-3.947h2.293v.424a1.782 1.782 0 01-.422.19v1.34l-.081.739.274-.6 1.042-2.093h1.828v.424a1.437 1.437 0 01-.466.19v2.718c.162.038.32.102.466.191v.424h-2.293v-.424c.131-.087.273-.152.422-.19v-1.43l.066-.623-.266.59-1.028 2.077h-1.835v-.424c.155-.087.322-.151.496-.19v-2.719a1.118 1.118 0 01-.466-.19l-.03-.424zM80.063 38.229h-2.601v-.374c.182-.128.387-.216.602-.26v-4.15a1.5 1.5 0 01-.602-.26v-.383h2.601v.374a1.278 1.278 0 01-.533.26v2.482l-.092.627.37-.66 1.544-2.26v-.188a1.429 1.429 0 01-.579-.26v-.375h2.61v.375a1.5 1.5 0 01-.603.26v4.15c.214.047.418.135.602.26v.374H80.79v-.374c.166-.113.348-.2.54-.26v-2.442l.085-.651-.34.65-1.544 2.296v.17c.204.05.398.137.572.26l-.039.359zm4.553-1.475c.19-.021.379.048.52.19.14.14.221.342.22.553a.772.772 0 01-.223.545.627.627 0 01-.517.181.618.618 0 01-.52-.178.763.763 0 01-.22-.548.77.77 0 01.218-.556.626.626 0 01.522-.188zm6.095-3.952h2.234v.376c-.171.13-.37.22-.58.261l-1.259 1.636c.394.661 1.184 1.708 1.802 2.55l.342.26v.345h-1.578l-.335-.254a16.315 16.315 0 01-1.184-2.24h-.26v1.856a.91.91 0 01.461.261v.376h-2.53v-.376c.174-.123.371-.212.58-.261v-4.169a1.264 1.264 0 01-.58-.261v-.36h2.53v.376a1.122 1.122 0 01-.461.261v1.815l.41-.106.93-1.635a1.36 1.36 0 01-.522-.262v-.45zm6.469 4.666l.51.079v.371a6.45 6.45 0 01-1.571.285h-.33a1.39 1.39 0 01-.11-.688 1.108 1.108 0 01-1.124.703 1.144 1.144 0 01-1.189-.634 1.155 1.155 0 01-.116-.464c0-.837.51-1.145 2.413-1.232.078-.86-.047-1.058-.424-1.058a.727.727 0 00-.346.07l-.354.901h-.503a2.105 2.105 0 01-.519-1.043 3.828 3.828 0 011.989-.473c1.25 0 1.666.403 1.666 1.192v1.453c-.01.18-.007.36.008.538zm-1.572-.443v-.71c-.692.04-.849.134-.849.631 0 .324.126.522.385.522.26 0 .464-.237.464-.443zm4.381 1.204h-2.298v-.424c.15-.091.313-.156.483-.19v-2.718a2 2 0 01-.483-.191v-.424h2.298v.424c-.117.075-.24.139-.368.191v1.047h1.065v-1.047a1.084 1.084 0 01-.36-.191v-.424h2.299v.424a1.457 1.457 0 01-.483.191v2.717c.171.027.335.092.483.191v.424h-2.299v-.424a.911.911 0 01.36-.19v-1.098h-1.065v1.097a.994.994 0 01.368.191v.424zm6.661 0h-2.647v-.424c.181-.088.372-.152.569-.19v-2.768h-.372l-.324 1.246h-.458a8.118 8.118 0 01-.3-1.811h4.44a7.78 7.78 0 01-.3 1.811h-.458l-.332-1.246h-.363v2.767c.197.038.388.102.568.191l-.023.424zm4.832-.759l.517.08v.37a6.542 6.542 0 01-1.566.285h-.329a1.599 1.599 0 01-.11-.687h-.039a1.087 1.087 0 01-1.112.703 1.15 1.15 0 01-1.285-1.099c0-.838.517-1.146 2.405-1.233.086-.862 0-1.06-.415-1.06a.78.78 0 00-.353.072l-.344.901h-.478a2.114 2.114 0 01-.525-1.044 3.826 3.826 0 011.982-.473c1.253 0 1.66.403 1.66 1.193v1.455a3.857 3.857 0 00-.008.537zm-1.511-.442v-.712c-.682.04-.839.135-.839.633 0 .323.126.521.377.521a.446.446 0 00.462-.442z" fill="#000"></path> <defs> <linearGradient id="paint0_linear" x1="15.606" y1="43.264" x2="15.343" y2="42.497" gradientUnits="userSpaceOnUse"> <stop stop-color="#31ADE4"></stop> <stop offset="1" stop-color="#0074BE"></stop> </linearGradient> <linearGradient id="paint1_linear" x1="17.969" y1="43.675" x2="17.563" y2="42.835" gradientUnits="userSpaceOnUse"> <stop stop-color="#31ADE4"></stop> <stop offset="1" stop-color="#0062A1"></stop> </linearGradient> <linearGradient id="paint2_linear" x1="14.48" y1="35.734" x2="14.075" y2="34.516" gradientUnits="userSpaceOnUse"> <stop stop-color="#31ADE4"></stop> <stop offset="1" stop-color="#0074BE"></stop> </linearGradient> <linearGradient id="paint3_linear" x1="18.763" y1="36.979" x2="17.999" y2="35.267" gradientUnits="userSpaceOnUse"> <stop stop-color="#31ADE4"></stop> <stop offset="1" stop-color="#0062A1"></stop> </linearGradient> <linearGradient id="paint4_linear" x1="6.784" y1="23.705" x2="12.298" y2="30.238" gradientUnits="userSpaceOnUse"> <stop stop-color="#FFD500"></stop> <stop offset=".276" stop-color="#FC0"></stop> <stop offset=".787" stop-color="#FAB300"></stop> <stop offset="1" stop-color="#F7A600"></stop> </linearGradient> <linearGradient id="paint5_linear" x1=".015" y1="26.627" x2="21.224" y2="26.627" gradientUnits="userSpaceOnUse"> <stop stop-color="#F7A600"></stop> <stop offset=".447" stop-color="#F49600"></stop> <stop offset="1" stop-color="#EF7D00"></stop> </linearGradient> </defs> </svg> 