<?xml version="1.0" encoding="UTF-8"?> <svg xmlns="http://www.w3.org/2000/svg" width="1080" height="1920" viewBox="0 0 1080 1920" fill="none"> <g clip-path="url(#clip0_113_1000)"> <rect width="1080" height="1920" rx="36" fill="white"></rect> <path fill-rule="evenodd" clip-rule="evenodd" d="M1323.99 330.17C1323.99 641.013 1071.71 893 760.494 893C449.282 893 196.994 641.013 196.994 330.17L196.994 -932L582.258 -932L582.258 330.17C582.258 428.49 662.057 508.194 760.494 508.194C858.931 508.194 938.73 428.49 938.73 330.17L938.73 245.535L1323.99 245.535L1323.99 330.17Z" fill="url(#paint0_linear_113_1000)"></path> <path d="M674 327.5C674 279.175 712.951 240 761 240C809.049 240 848 279.175 848 327.5C848 375.825 809.049 415 761 415C712.951 415 674 375.825 674 327.5Z" fill="black"></path> <path fill-rule="evenodd" clip-rule="evenodd" d="M177 1270L177 740L361 740L361 1270L177 1270Z" fill="url(#paint1_linear_113_1000)"></path> <path fill-rule="evenodd" clip-rule="evenodd" d="M173.183 758.321V740H338V758.321C338 882.408 237.275 983 113.025 983H100V818.4H113.025C146.249 818.4 173.183 791.502 173.183 758.321Z" fill="url(#paint2_linear_113_1000)"></path> <path d="M513 976.5C513 850.855 614.184 749 739 749C863.816 749 965 850.855 965 976.5C965 1102.14 863.816 1204 739 1204C614.184 1204 513 1102.14 513 976.5Z" fill="black"></path> <path fill-rule="evenodd" clip-rule="evenodd" d="M431 926C369.696 926 320 877.619 320 817.939L320 -48.0001L542 -48L542 817.939C542 877.619 492.304 926 431 926Z" fill="url(#paint3_linear_113_1000)"></path> <path fill-rule="evenodd" clip-rule="evenodd" d="M735.933 1283C566.971 1283 430 1145.78 430 976.5C430 807.225 566.971 670 735.933 670L1422 670L1422 879.554L735.933 879.554C682.49 879.554 639.166 922.958 639.166 976.5C639.166 1030.04 682.49 1073.45 735.933 1073.45L781.937 1073.45L781.937 1283L735.933 1283Z" fill="url(#paint4_linear_113_1000)"></path> <path fill-rule="evenodd" clip-rule="evenodd" d="M-513.002 215.054C-513.002 49.8912 -378.911 -84 -213.502 -84C-48.0927 -84 85.998 49.8912 85.998 215.054L85.998 1916H-118.77L-118.77 215.054C-118.77 162.813 -161.183 120.463 -213.502 120.463C-265.821 120.463 -308.234 162.813 -308.234 215.054V260.025H-513.002V215.054Z" fill="url(#paint5_linear_113_1000)"></path> <path fill-rule="evenodd" clip-rule="evenodd" d="M402 1882.81C402 1687.96 560.267 1530 755.5 1530C950.733 1530 1109 1687.96 1109 1882.81L1109 2674H867.313L867.313 1882.81C867.313 1821.18 817.252 1771.22 755.5 1771.22C693.748 1771.22 643.688 1821.18 643.688 1882.81V1935.86H402V1882.81Z" fill="url(#paint6_linear_113_1000)"></path> <path d="M-982 936C-982 631.691 -737.995 385 -437 385C-136.005 385 108 631.691 108 936C108 1240.31 -136.005 1487 -437 1487C-737.995 1487 -982 1240.31 -982 936Z" fill="black"></path> <path fill-rule="evenodd" clip-rule="evenodd" d="M699.998 1367.5C699.998 1304.26 752.02 1253 816.193 1253L1100 1253L1100 1482L816.193 1482C752.02 1482 699.998 1430.74 699.998 1367.5Z" fill="url(#paint7_linear_113_1000)"></path> <path fill-rule="evenodd" clip-rule="evenodd" d="M706 1659C706 1803.15 587.39 1920 441.076 1920L-206 1920L-206 1398L441.076 1398C587.39 1398 706 1514.85 706 1659Z" fill="url(#paint8_linear_113_1000)"></path> </g> <defs> <linearGradient id="paint0_linear_113_1000" x1="1040.18" y1="893" x2="-171.5" y2="-440" gradientUnits="userSpaceOnUse"> <stop offset="0.0841716" stop-color="#6400E2" stop-opacity="0"></stop> <stop offset="0.516943" stop-color="#892DFF"></stop> <stop offset="1" stop-color="white"></stop> </linearGradient> <linearGradient id="paint1_linear_113_1000" x1="145.5" y1="797.5" x2="333" y2="1212.5" gradientUnits="userSpaceOnUse"> <stop stop-color="#A1FF06" stop-opacity="0"></stop> <stop offset="0.474763" stop-color="#B0FF30"></stop> <stop offset="1" stop-color="white"></stop> </linearGradient> <linearGradient id="paint2_linear_113_1000" x1="158" y1="1030" x2="389.783" y2="684.98" gradientUnits="userSpaceOnUse"> <stop stop-color="#A1FF06" stop-opacity="0"></stop> <stop offset="0.722356" stop-color="#B0FF30"></stop> <stop offset="1" stop-color="white"></stop> </linearGradient> <linearGradient id="paint3_linear_113_1000" x1="512.4" y1="1071.84" x2="217.091" y2="231.968" gradientUnits="userSpaceOnUse"> <stop stop-color="#D0ABFF"></stop> <stop offset="0.378497" stop-color="#892DFF"></stop> <stop offset="0.593605" stop-color="#892DFF" stop-opacity="0"></stop> </linearGradient> <linearGradient id="paint4_linear_113_1000" x1="714.5" y1="1109.5" x2="891.041" y2="507.305" gradientUnits="userSpaceOnUse"> <stop stop-color="#A1FF06" stop-opacity="0"></stop> <stop offset="0.474763" stop-color="#B0FF30"></stop> <stop offset="1" stop-color="white"></stop> </linearGradient> <linearGradient id="paint5_linear_113_1000" x1="-366.502" y1="-440" x2="85.998" y2="770.5" gradientUnits="userSpaceOnUse"> <stop stop-color="#A1FF06" stop-opacity="0"></stop> <stop offset="0.474763" stop-color="#B0FF30"></stop> <stop offset="1" stop-color="white"></stop> </linearGradient> <linearGradient id="paint6_linear_113_1000" x1="419" y1="1846.5" x2="1577" y2="2102" gradientUnits="userSpaceOnUse"> <stop stop-color="#892DFF" stop-opacity="0"></stop> <stop offset="0.392839" stop-color="#6400E2"></stop> <stop offset="1" stop-color="#892DFF"></stop> </linearGradient> <linearGradient id="paint7_linear_113_1000" x1="535.498" y1="1582.5" x2="918.498" y2="1222.5" gradientUnits="userSpaceOnUse"> <stop offset="0.373816" stop-color="white" stop-opacity="0"></stop> <stop offset="1" stop-color="#B0FF30"></stop> </linearGradient> <linearGradient id="paint8_linear_113_1000" x1="1081.06" y1="1168.91" x2="208.009" y2="1989.72" gradientUnits="userSpaceOnUse"> <stop offset="0.373816" stop-color="white" stop-opacity="0"></stop> <stop offset="1" stop-color="#B0FF30"></stop> </linearGradient> <clipPath id="clip0_113_1000"> <rect width="1080" height="1920" rx="36" fill="white"></rect> </clipPath> </defs> </svg> 