<?xml version="1.0" encoding="UTF-8"?> <svg xmlns="http://www.w3.org/2000/svg" viewBox="0 0 3271.41 1348.81"> <defs> <style>.cls-1{isolation:isolate;}.cls-2,.cls-6{mix-blend-mode:soft-light;}.cls-3,.cls-4,.cls-5,.cls-7,.cls-8{fill:none;}.cls-3,.cls-4,.cls-5{stroke:#6ae5aa;}.cls-3,.cls-5,.cls-7,.cls-8{stroke-miterlimit:10;}.cls-3,.cls-4{stroke-width:2px;}.cls-3{mix-blend-mode:color;}.cls-4{stroke-linecap:round;stroke-linejoin:round;}.cls-5{stroke-width:1.54px;}.cls-6{opacity:0.83;}.cls-7{stroke:#e23dab;}.cls-8{stroke:#3198ff;}.cls-9{mix-blend-mode:multiply;}</style> </defs> <g class="cls-1"> <g id="Layer_2" data-name="Layer 2"> <g id="Layer_1-2" data-name="Layer 1"> <g class="cls-2"> <path class="cls-3" d="M2879.14,1347.81V147c.2-6.72.48-13.7,3.54-19.69,3.89-7.61,11.61-12.38,19-16.73Q2999.1,53,3100.17,1.85"></path> <path class="cls-4" d="M3077.47,27.62a6.47,6.47,0,0,1-3-12.2c8.79-4.6,17.77-9.22,26.67-13.72A6.47,6.47,0,1,1,3107,13.24c-8.85,4.48-17.77,9.07-26.51,13.64A6.49,6.49,0,0,1,3077.47,27.62Z"></path> <path class="cls-4" d="M2877.39,1347.81,2879.14,147c.2-6.72.48-13.7,3.54-19.69,3.89-7.61,11.61-12.38,19-16.73Q2999.1,53,3100.17,1.85"></path> </g> <path class="cls-5" d="M.77,1079.08a21.56,21.56,0,0,1,6.33-15.29L881.46,189.42c3.28-3.92,6.45-7.4,9.68-10.63l9-9a164,164,0,0,1,230.53,0l9,9c3.23,3.23,6.4,6.71,9.67,10.63L2095,1135.15a122.72,122.72,0,0,0,173.35,0L3233.73,169.8a21.62,21.62,0,0,1,30.58,30.58L2299,1165.73c-64.66,64.66-169.85,64.66-234.51,0L1118,219.3c-.49-.49-1-1-1.39-1.52-2.63-3.19-5.11-5.94-7.57-8.41l-9-9a120.74,120.74,0,0,0-169.37,0l-9,9c-2.47,2.47-4.94,5.22-7.58,8.41-.43.52-.9,1-1.38,1.52L37.68,1094.37A21.62,21.62,0,0,1,.77,1079.08ZM1133.32,204v0Z"></path> <path class="cls-5" d="M456.18,417.5l-99,84.25a52.12,52.12,0,0,0-18.34,39.7v692H454.39"></path> <g class="cls-6"> <path class="cls-7" d="M1115.82,540.09l-47.68,40.6a28.56,28.56,0,0,0-10.05,21.76v654.26h63.33"></path> <path class="cls-7" d="M1058.09,710.51l-14.94-10.94a16.38,16.38,0,0,0-24.67,14.13v543h40"></path> <path class="cls-7" d="M1018.48,767.78l-62.32,52.84a28.58,28.58,0,0,0-10,21.76v414.33"></path> <path class="cls-7" d="M1454.5,1257.18H1115.86V534.5a33.08,33.08,0,0,1,48.45-29.29l282.45,148.24a14.46,14.46,0,0,1,7.74,12.81Z"></path> <path class="cls-7" d="M1124.76,917.71V874.46c0-3.46,2.36-6.27,5.27-6.27s5.27,2.81,5.27,6.27v40.65Z"></path> <path class="cls-7" d="M1124.76,787.54V744.29c0-3.46,2.36-6.27,5.27-6.27s5.27,2.81,5.27,6.27V785Z"></path> <path class="cls-7" d="M1124.76,657.37V614.13c0-3.47,2.36-6.27,5.27-6.27s5.27,2.8,5.27,6.27v40.65Z"></path> <path class="cls-7" d="M1124.76,1053.62v-43.25c0-3.46,2.36-6.27,5.27-6.27s5.27,2.81,5.27,6.27V1051Z"></path> </g> <path class="cls-5" d="M456.43,1233.17V276.25c.22-7.05.51-14.36,3.72-20.63,4.07-8,12.15-13,19.86-17.52Q582.08,177.77,688,124.19"></path> <path class="cls-5" d="M664.17,151.18A6.77,6.77,0,0,1,661,138.4c9.21-4.82,18.61-9.66,27.93-14.38a6.78,6.78,0,0,1,6.12,12.09c-9.27,4.69-18.61,9.5-27.77,14.29A6.7,6.7,0,0,1,664.17,151.18Z"></path> <path class="cls-5" d="M456.43,1233.17V276.25c.22-7.05.51-14.36,3.72-20.63,4.07-8,12.15-13,19.86-17.52Q582.08,177.77,688,124.19"></path> <g class="cls-6"> <path class="cls-7" d="M1991.23,269.33,2015.57,245l88.5,53.45-51.42-90.53,18.83-18.83L2162,240.51,2108.56,152l24.34-24.33L2206.34,257,2180,283.39l-76.34-43.32L2147,316.41l-26.36,26.36Z"></path> <path class="cls-7" d="M2260.09,185.17c7.3-4.16,11.9-10.56,13.22-16.51l28.36.08c-1.81,17.08-11.42,30.82-28.31,40.47-30.42,17.38-61,7.69-76.11-18.81s-7.61-57.94,20.5-74c26-14.84,56.66-5.71,72,21.15a59.44,59.44,0,0,1,5,11.28l-63.14,36.07C2240.3,192.23,2250.31,190.76,2260.09,185.17ZM2258,143.45c-8.74-8.69-18.88-7.85-26.89-3.28-10.14,5.79-14,14.63-11.36,25.13Z"></path> <path class="cls-7" d="M2422.8,115.72c3.9,30.27-15,56.47-41.64,59.9-13.62,1.75-24.17-1.64-31.87-8.5l1.23,9.55L2320,180.59,2301.72,38.37l30.48-3.92,6.46,50.18c5.71-8.58,15.07-14.54,28.68-16.29C2394,64.91,2418.91,85.45,2422.8,115.72Zm-30.47,3.93c-2-15.24-13.35-23.48-27.37-21.67s-22.95,12.66-21,27.9,13.35,23.47,27.37,21.67S2394.29,134.89,2392.33,119.65Z"></path> <path class="cls-7" d="M2453.24,71.45l30.36,4.8-16,101.18-30.36-4.8Zm1.26-27.59A18.44,18.44,0,1,1,2469.83,65,18.61,18.61,0,0,1,2454.5,43.86Z"></path> <path class="cls-7" d="M2597.32,160.84,2571.07,218l-27.92-12.82,24.36-53.06c5.3-11.54.52-20.27-8.41-24.38-10.24-4.7-20-2-26.12,11.23l-23.34,50.82L2481.71,177l42.75-93.07,27.93,12.82-4,8.75c8.19-4.58,19.55-4.77,31.83.87C2599,115,2608.86,135.71,2597.32,160.84Z"></path> <path class="cls-7" d="M2724.55,225l-71,73.86-22.15-21.29,6.67-6.94c-10.27.93-20.77-2.63-30.67-12.14-19.35-18.59-19-50.9,2.16-72.91s53.42-23.67,72.77-5.08c9.9,9.51,13.88,19.86,13.36,30.15l6.67-6.94Zm-57.63,15.64c10.64-11.08,9.92-25.12-.27-34.91s-24.25-9.94-34.89,1.13-9.93,25.12.26,34.92S2656.27,251.74,2666.92,240.66Z"></path> <path class="cls-7" d="M2785.61,284.64,2761,309.26c-7.53-10.43-23.9-19.55-38.24-5.21L2690,336.79l-21.73-21.73,72.43-72.43,21.73,21.73-12.9,12.89C2762.15,270.44,2776.49,275.51,2785.61,284.64Z"></path> </g> <path class="cls-8" d="M771.31,573.43l-30.42,30.42,92.28,92.29-27,27L713.84,630.9l-30.42,30.42-26-26,87.89-87.89Z"></path> <path class="cls-8" d="M861.6,498.69l84.51,84.51-25.35,25.36-8-7.95c.85,12-3.55,24.17-14.87,35.5-22.14,22.14-59.84,21-85-4.23s-26.37-62.87-4.22-85C820,535.54,832.19,531.15,844.19,532l-7.94-7.94Zm16.9,67.61c-12.68-12.68-29.07-12.17-40.73-.51s-12.17,28.06.5,40.74S867.35,618.7,879,607,891.18,579,878.5,566.3Z"></path> <path class="cls-8" d="M841.29,441.25l25.36-25.36L990,539.28l-25.35,25.35Z"></path> <path class="cls-8" d="M1061,468.3,996.62,458,1034,495.34l-25.35,25.35L890.3,402.38,915.65,377l70.82,70.82-11.66-62.37,29.58-29.58,11.49,73,73.87,10.65Z"></path> <g class="cls-9"> <path class="cls-8" d="M2293.27,397.07V318.48c0-6.3,4.11-11.4,9.18-11.4s9.17,5.1,9.17,11.4v88.59Z"></path> <path class="cls-8" d="M2353.13,428.5V349.9c0-6.29,4.11-11.39,9.17-11.39s9.18,5.1,9.18,11.39v88.6Z"></path> <path class="cls-8" d="M2411,457.24v-78.6c0-6.29,4.11-11.39,9.18-11.39s9.17,5.1,9.17,11.39v88.6Z"></path> </g> <g class="cls-9"> <path class="cls-8" d="M2293.27,628.7V550.1c0-6.29,4.11-11.39,9.18-11.39s9.17,5.1,9.17,11.39v88.6Z"></path> <path class="cls-8" d="M2353.13,660.13v-78.6c0-6.29,4.11-11.4,9.17-11.4s9.18,5.11,9.18,11.4v88.6Z"></path> <path class="cls-8" d="M2411,688.87v-78.6c0-6.29,4.11-11.4,9.18-11.4s9.17,5.11,9.17,11.4v88.6Z"></path> </g> <g class="cls-9"> <path class="cls-8" d="M2293.27,860.33v-78.6c0-6.3,4.11-11.4,9.18-11.4s9.17,5.1,9.17,11.4v88.59Z"></path> <path class="cls-8" d="M2353.13,891.76v-78.6c0-6.3,4.11-11.4,9.17-11.4s9.18,5.1,9.18,11.4v88.59Z"></path> <path class="cls-8" d="M2411,920.5V841.9c0-6.3,4.11-11.4,9.18-11.4s9.17,5.1,9.17,11.4v88.59Z"></path> </g> <polygon class="cls-8" points="2248.47 665.6 2227.03 669.99 2227.03 569 2248.47 564.61 2248.47 665.6"></polygon> <rect class="cls-8" x="2248.37" y="564.61" width="24.77" height="101.06"></rect> <polyline class="cls-8" points="2877.39 978.88 2273.15 665.66 2273.15 564.61 2877.39 877.82"></polyline> <polyline class="cls-8" points="2227.03 669.93 2248.47 665.66 2273.24 665.66 2878.06 979.69"></polyline> <polygon class="cls-8" points="2248.47 895.85 2227.03 900.24 2227.03 799.25 2248.47 794.85 2248.47 895.85"></polygon> <rect class="cls-8" x="2248.37" y="794.85" width="24.77" height="101.06"></rect> <polyline class="cls-8" points="2877.39 1209.12 2273.15 895.91 2273.15 794.85 2877.39 1108.07"></polyline> <polyline class="cls-8" points="2227.03 900.17 2248.47 895.91 2273.24 895.91 2878.06 1209.93"></polyline> <polygon class="cls-8" points="2248.47 434.46 2227.03 438.85 2227.03 337.86 2248.47 333.47 2248.47 434.46"></polygon> <rect class="cls-8" x="2248.37" y="333.47" width="24.77" height="101.06"></rect> <polyline class="cls-8" points="2877.39 747.74 2273.15 434.52 2273.15 333.47 2877.39 646.68"></polyline> <polyline class="cls-8" points="2227.03 438.79 2248.47 434.52 2273.24 434.52 2878.06 748.55"></polyline> </g> </g> </g> </svg> 