<?xml version="1.0" encoding="UTF-8"?> <svg xmlns="http://www.w3.org/2000/svg" width="1409" height="2362" viewBox="0 0 1409 2362" fill="none"> <path d="M191.5 1929.43V2305.03V2355.43" stroke="#3E50CB" stroke-width="12" stroke-linecap="round"></path> <path d="M191.5 1929.43V2075.43" stroke="#222437" stroke-width="240" stroke-linecap="round"></path> <path d="M223.05 401.19L10.959 729.559" stroke="#FFCE6E" stroke-width="25"></path> <path d="M1013.34 2.42871L801.251 330.797" stroke="#FFCE6E" stroke-width="8"></path> <path d="M1248.16 391.096V709.457" stroke="#FFCE6E" stroke-width="36"></path> <path d="M1186.66 24.2861V427.823" stroke="white" stroke-width="36"></path> <path d="M1146.18 537.476V952.599" stroke="#FF7965" stroke-width="5" stroke-linecap="round"></path> <path d="M1146.59 627.594V686.937" stroke="#FFCE6E" stroke-width="45" stroke-linecap="round"></path> <path d="M1175.18 518.857V604.063" stroke="#222437" stroke-width="68" stroke-linecap="round"></path> <path d="M868.925 621.257L642.181 1069.09" stroke="#222437" stroke-width="68"></path> <path d="M962.905 587.474C962.905 587.474 889.671 731.954 743.204 1020.91" stroke="#FF7965" stroke-width="68"></path> <path d="M1023.57 562.234C1023.57 562.234 950.332 706.713 803.864 995.672" stroke="#F6F6F6" stroke-width="39"></path> <rect width="1218" height="1544" rx="8" transform="matrix(-1 0 0 1 1409 478.429)" fill="url(#paint0_linear)"></rect> <mask id="mask0" maskUnits="userSpaceOnUse" x="191" y="478" width="1218" height="1545"> <rect width="1218" height="1544" rx="8" transform="matrix(-1 0 0 1 1409 478.429)" fill="white"></rect> </mask> <g mask="url(#mask0)"> <path fill-rule="evenodd" clip-rule="evenodd" d="M1253.81 528.669C1329 522.089 1384.54 454.975 1377.87 378.766C1371.21 302.557 1304.86 246.111 1229.68 252.691C1154.5 259.27 1098.95 326.384 1105.62 402.593C1112.28 478.803 1178.63 535.248 1253.81 528.669Z" fill="#F3F4F6"></path> <path fill-rule="evenodd" clip-rule="evenodd" d="M713.16 654.122C809.391 645.7 880.506 560.022 871.999 462.755C863.492 365.488 778.585 293.465 682.354 301.887C586.122 310.309 515.007 395.987 523.514 493.254C532.021 590.521 616.928 662.544 713.16 654.122Z" fill="#F3F4F6"></path> <path fill-rule="evenodd" clip-rule="evenodd" d="M980.06 748.182C1127.41 735.286 1236.42 605.336 1223.53 457.931C1210.63 310.527 1080.73 201.486 933.374 214.382C786.02 227.278 677.016 357.228 689.908 504.633C702.8 652.037 832.705 761.078 980.06 748.182Z" fill="#F3F4F6"></path> <path opacity="0.170364" fill-rule="evenodd" clip-rule="evenodd" d="M1278.84 2021.66C1599.61 1993.59 1836.9 1710.7 1808.84 1389.82C1780.77 1068.94 1497.99 831.573 1177.21 859.646C856.443 887.72 619.156 1170.6 647.22 1491.48C675.284 1812.37 958.071 2049.73 1278.84 2021.66Z" fill="#222437" fill-opacity="0.23"></path> <path d="M1322.7 375.459C1322.7 375.459 1248.76 523.794 1100.87 820.464" stroke="#F6F6F6" stroke-width="10"></path> <path d="M1247 1001.43V1504.43" stroke="#E9F9E9" stroke-width="120"></path> <path opacity="0.610049" d="M1153 1186.43V1685.43" stroke="#E9EBFA" stroke-width="200"></path> <path d="M1140.62 932.429L1138.88 1305.61" stroke="#FF7965" stroke-width="3" stroke-linecap="round"></path> <path d="M1346.5 602.429V799.429" stroke="#FFCE6E" stroke-width="20" stroke-linecap="round"></path> <path d="M1302 737.429V799.429" stroke="#FFF6E5" stroke-width="20" stroke-linecap="round"></path> </g> <path fill-rule="evenodd" clip-rule="evenodd" d="M1062.6 545.429V499.429H1087.2C1114.2 499.429 1135 478.629 1135 452.429C1135 426.229 1114.2 405.429 1087.2 405.429H1035V545.429H1062.6ZM1087.2 473.629H1062.6V431.229H1087.2C1099 431.229 1107.6 440.229 1107.6 452.429C1107.6 464.429 1099 473.629 1087.2 473.629ZM1177.6 497.629V545.429H1151.8V445.429H1177.6V462.629C1182.8 449.029 1195.4 443.429 1208 443.429V472.229C1194.6 470.629 1177.6 476.629 1177.6 497.629ZM1270.6 548.229C1300 548.229 1323.6 525.229 1323.6 495.429C1323.6 465.629 1300 442.629 1270.6 442.629C1241.2 442.629 1217.8 465.629 1217.8 495.429C1217.8 525.229 1241.2 548.229 1270.6 548.229ZM1243.6 495.429C1243.6 511.629 1255.4 523.029 1270.6 523.029C1286 523.029 1297.8 511.629 1297.8 495.429C1297.8 479.229 1286 467.829 1270.6 467.829C1255.4 467.829 1243.6 479.229 1243.6 495.429Z" fill="#222437"></path> <defs> <linearGradient id="paint0_linear" x1="238.549" y1="319.499" x2="546.004" y2="1861.79" gradientUnits="userSpaceOnUse"> <stop stop-color="#F3F4F6"></stop> <stop offset="0.590456" stop-color="#A597FE"></stop> <stop offset="0.853727" stop-color="#826DFE"></stop> <stop offset="1" stop-color="#4F7CFF"></stop> </linearGradient> </defs> </svg> 