<?xml version="1.0" encoding="UTF-8"?> <svg xmlns="http://www.w3.org/2000/svg" width="1571" height="2013" viewBox="0 0 1571 2013" fill="none"> <path d="M9.99992 1185.13C184.375 1173.29 344.659 1077.87 448.819 940.791C517.493 850.413 561.77 741.922 569.604 627.327" stroke="#222437" stroke-width="20"></path> <rect width="1218" height="1544" rx="8" transform="matrix(-1 0 0 1 1430.18 76.8574)" fill="url(#paint0_linear)"></rect> <mask id="mask0" maskUnits="userSpaceOnUse" x="212" y="76" width="1219" height="1545"> <rect width="1218" height="1544" rx="8" transform="matrix(-1 0 0 1 1430.18 76.8574)" fill="white"></rect> </mask> <g mask="url(#mask0)"> <path fill-rule="evenodd" clip-rule="evenodd" d="M1275 127.097C1350.18 120.518 1405.72 53.404 1399.05 -22.8052C1392.39 -99.0145 1326.04 -155.46 1250.86 -148.881C1175.68 -142.301 1120.13 -75.1872 1126.8 1.02201C1133.47 77.2312 1199.81 133.677 1275 127.097Z" fill="#F3F4F6"></path> <path fill-rule="evenodd" clip-rule="evenodd" d="M734.341 252.551C830.572 244.129 901.687 158.451 893.18 61.184C884.673 -36.0831 799.766 -108.106 703.534 -99.6842C607.303 -91.2622 536.188 -5.58422 544.695 91.6828C553.202 188.95 638.109 260.973 734.341 252.551Z" fill="#F3F4F6"></path> <path fill-rule="evenodd" clip-rule="evenodd" d="M1001.24 346.611C1148.6 333.714 1257.6 203.765 1244.71 56.3599C1231.81 -91.0448 1101.91 -200.085 954.555 -187.189C807.201 -174.293 698.197 -44.3434 711.089 103.061C723.981 250.466 853.886 359.507 1001.24 346.611Z" fill="#F3F4F6"></path> <path d="M1343.88 -26.112C1343.88 -26.112 1269.94 122.223 1122.05 418.893" stroke="#F6F6F6" stroke-width="10"></path> </g> <path fill-rule="evenodd" clip-rule="evenodd" d="M480.716 162.347C486.071 162.347 489.536 158.847 489.536 154.122C489.536 149.222 485.686 146.387 482.081 146.387C480.226 146.387 478.231 146.947 476.831 148.382C477.391 146.842 478.406 145.757 481.556 144.532C485.196 143.132 487.716 141.907 488.381 138.827L484.671 136.692C483.938 138.891 482.493 139.567 479.863 140.798L479.863 140.798C479.353 141.037 478.799 141.297 478.196 141.592C472.561 144.357 471.511 147.297 471.511 152.932C471.511 158.322 475.116 162.347 480.716 162.347ZM300.781 149.607C300.781 156.747 295.111 162.347 288.041 162.347C280.971 162.347 275.336 156.747 275.336 149.607C275.336 142.432 280.971 136.867 288.041 136.867C295.111 136.867 300.781 142.432 300.781 149.607ZM280.131 149.607C280.131 154.297 283.596 157.622 288.041 157.622C292.486 157.622 295.951 154.297 295.951 149.607C295.951 144.882 292.486 141.557 288.041 141.557C283.596 141.557 280.131 144.882 280.131 149.607ZM312.296 161.857V148.697H317.756V144.357H302.251V148.697H307.781V161.857H312.296ZM324.686 153.912V161.857H320.171V144.357H324.686V152.057L330.706 144.357H336.096L329.061 153.002L336.306 161.857H331.056L324.686 153.912ZM343.061 168.857V159.792C344.321 161.402 346.176 162.347 348.731 162.347C353.421 162.347 357.271 158.322 357.271 153.107C357.271 147.892 353.421 143.867 348.731 143.867C346.176 143.867 344.321 144.812 343.061 146.422V144.357H338.546V168.857H343.061ZM343.061 153.107C343.061 156.047 345.126 158.042 347.891 158.042C350.691 158.042 352.756 156.047 352.756 153.107C352.756 150.167 350.691 148.172 347.891 148.172C345.126 148.172 343.061 150.167 343.061 153.107ZM368.366 161.857C372.356 161.857 374.981 159.477 374.981 155.907C374.981 152.337 372.356 149.957 368.366 149.957H364.971V144.357H360.456V161.857H368.366ZM376.906 144.357H381.421V161.857H376.906V144.357ZM368.401 157.867H364.971V153.912H368.401C369.661 153.912 370.571 154.717 370.571 155.907C370.571 157.097 369.661 157.867 368.401 157.867ZM393.881 148.697V161.857H389.366V148.697H383.836V144.357H399.341V148.697H393.881ZM410.086 162.347C415.231 162.347 419.361 158.322 419.361 153.107C419.361 147.892 415.231 143.867 410.086 143.867C404.941 143.867 400.846 147.892 400.846 153.107C400.846 158.322 404.941 162.347 410.086 162.347ZM405.361 153.107C405.361 155.942 407.426 157.937 410.086 157.937C412.781 157.937 414.846 155.942 414.846 153.107C414.846 150.272 412.781 148.277 410.086 148.277C407.426 148.277 405.361 150.272 405.361 153.107ZM431.226 162.347C434.586 162.347 437.211 160.982 438.856 158.602L435.216 156.502C434.446 157.517 433.046 158.252 431.296 158.252C428.916 158.252 426.991 157.272 426.361 154.962H439.556C439.661 154.367 439.731 153.772 439.731 153.107C439.731 147.962 436.056 143.867 430.876 143.867C425.381 143.867 421.636 147.892 421.636 153.107C421.636 158.322 425.346 162.347 431.226 162.347ZM426.291 151.462H435.216C434.656 148.942 432.766 147.927 430.876 147.927C428.461 147.927 426.816 149.222 426.291 151.462ZM459.961 162.347C465.106 162.347 469.236 158.322 469.236 153.107C469.236 147.892 465.106 143.867 459.961 143.867C454.816 143.867 450.721 147.892 450.721 153.107C450.721 158.322 454.816 162.347 459.961 162.347ZM455.236 153.107C455.236 155.942 457.301 157.937 459.961 157.937C462.656 157.937 464.721 155.942 464.721 153.107C464.721 150.272 462.656 148.277 459.961 148.277C457.301 148.277 455.236 150.272 455.236 153.107ZM476.236 153.982C476.236 156.467 478.196 158.217 480.681 158.217C483.236 158.217 485.021 156.467 485.021 154.122C485.021 151.742 483.236 149.992 480.646 149.992C478.511 149.992 476.236 151.427 476.236 153.982ZM496.781 168.857V159.792C498.041 161.402 499.896 162.347 502.451 162.347C507.141 162.347 510.991 158.322 510.991 153.107C510.991 147.892 507.141 143.867 502.451 143.867C499.896 143.867 498.041 144.812 496.781 146.422V144.357H492.266V168.857H496.781ZM496.781 153.107C496.781 156.047 498.846 158.042 501.611 158.042C504.411 158.042 506.476 156.047 506.476 153.107C506.476 150.167 504.411 148.172 501.611 148.172C498.846 148.172 496.781 150.167 496.781 153.107ZM521.771 162.347C524.326 162.347 526.216 161.367 527.476 159.792V161.857H531.991V144.357H527.476V146.422C526.216 144.847 524.326 143.867 521.771 143.867C517.116 143.867 513.266 147.892 513.266 153.107C513.266 158.322 517.116 162.347 521.771 162.347ZM517.781 153.107C517.781 156.047 519.846 158.042 522.611 158.042C525.411 158.042 527.476 156.047 527.476 153.107C527.476 150.167 525.411 148.172 522.611 148.172C519.846 148.172 517.781 150.167 517.781 153.107ZM541.931 162.347C546.586 162.347 549.001 159.932 549.001 157.097C549.001 155.277 548.056 153.772 546.341 152.932C547.636 152.057 548.266 150.692 548.266 149.082C548.266 146.317 545.886 143.867 541.721 143.867C538.641 143.867 536.226 145.232 534.896 147.892L538.536 149.992C539.201 148.487 540.286 147.787 541.791 147.787C543.121 147.787 543.961 148.452 543.961 149.467C543.961 150.482 543.261 151.077 541.931 151.077H540.041V154.927H542.526C543.891 154.927 544.591 155.557 544.591 156.537C544.591 157.657 543.646 158.357 541.966 158.357C540.041 158.357 538.886 157.447 538.361 155.977L534.686 158.147C535.911 160.842 538.291 162.347 541.931 162.347ZM569.441 153.107C569.441 158.322 565.311 162.347 560.166 162.347C555.021 162.347 550.926 158.322 550.926 153.107C550.926 147.892 555.021 143.867 560.166 143.867C565.311 143.867 569.441 147.892 569.441 153.107ZM560.166 157.937C557.506 157.937 555.441 155.942 555.441 153.107C555.441 150.272 557.506 148.277 560.166 148.277C562.861 148.277 564.926 150.272 564.926 153.107C564.926 155.942 562.861 157.937 560.166 157.937ZM587.676 156.887C587.676 159.722 585.681 161.857 581.831 161.857H572.626V144.357H581.131C584.911 144.357 586.941 146.422 586.941 149.292C586.941 150.832 586.346 152.057 585.226 152.897C586.801 153.667 587.676 155.067 587.676 156.887ZM580.711 151.217H576.861V148.067H580.711C581.936 148.067 582.636 148.592 582.636 149.642C582.636 150.727 581.936 151.217 580.711 151.217ZM576.861 158.042H581.306C582.531 158.042 583.266 157.447 583.266 156.362C583.266 155.347 582.496 154.787 581.306 154.787H576.861V158.042ZM598.106 162.347C600.661 162.347 602.551 161.367 603.811 159.792V161.857H608.326V144.357H603.811V146.422C602.551 144.847 600.661 143.867 598.106 143.867C593.451 143.867 589.601 147.892 589.601 153.107C589.601 158.322 593.451 162.347 598.106 162.347ZM594.116 153.107C594.116 156.047 596.181 158.042 598.946 158.042C601.746 158.042 603.811 156.047 603.811 153.107C603.811 150.167 601.746 148.172 598.946 148.172C596.181 148.172 594.116 150.167 594.116 153.107ZM616.936 161.857V155.207H623.901V161.857H628.416V144.357H623.901V150.972H616.936V144.357H612.421V161.857H616.936ZM648.541 161.857H644.131V151.917L635.906 161.857H632.546V144.357H636.956V154.297L645.181 144.357H648.541V161.857ZM661.351 162.347C664.711 162.347 667.336 160.982 668.981 158.602L665.341 156.502C664.571 157.517 663.171 158.252 661.421 158.252C659.041 158.252 657.116 157.272 656.486 154.962H669.681C669.786 154.367 669.856 153.772 669.856 153.107C669.856 147.962 666.181 143.867 661.001 143.867C655.506 143.867 651.761 147.892 651.761 153.107C651.761 158.322 655.471 162.347 661.351 162.347ZM656.416 151.462H665.341C664.781 148.942 662.891 147.927 661.001 147.927C658.586 147.927 656.941 149.222 656.416 151.462Z" fill="#6C7BDF"></path> <path d="M1384.18 1501.86L874.181 2006.86" stroke="white" stroke-width="12" stroke-linecap="round"></path> <path d="M1534.82 1353.33C1534.82 1353.33 1539.57 1421.83 1506.36 1453.79C1473.16 1485.76 1402.01 1481.19 1402.01 1481.19C1402.01 1481.19 1397.27 1412.7 1430.47 1380.73C1463.67 1348.77 1534.82 1353.33 1534.82 1353.33Z" fill="#222437"></path> <path d="M1147.18 1784.86L1349.18 1021.86" stroke="#66CC66" stroke-width="24"></path> <path d="M1090.18 1247.86L1220.67 1475.47" stroke="#6C7BDF" stroke-width="12"></path> <path fill-rule="evenodd" clip-rule="evenodd" d="M1235.18 16.0576C1235.18 24.6576 1227.98 31.8576 1219.18 31.8576C1210.58 31.8576 1203.38 24.6576 1203.38 16.0576C1203.38 7.45762 1210.58 0.0576172 1219.18 0.0576172C1227.98 0.0576172 1235.18 7.45762 1235.18 16.0576ZM927.781 143.858C951.981 143.858 971.381 127.258 971.381 103.258C971.381 88.6576 964.181 77.6576 952.981 71.2576C961.181 64.6576 966.181 55.2576 966.181 43.2576C966.181 19.8576 947.181 3.85762 923.581 3.85762H868.381V143.858H927.781ZM923.581 60.4576H895.981V29.6576H923.581C932.381 29.6576 938.581 36.2576 938.581 45.0576C938.581 53.8576 932.181 60.4576 923.581 60.4576ZM895.981 118.058H927.781C937.181 118.058 943.981 111.058 943.981 101.458C943.981 92.0576 937.181 85.0576 927.781 85.0576H895.981V118.058ZM1031.58 146.658C1046.18 146.658 1056.98 141.058 1064.18 132.058V143.858H1089.98V43.8576H1064.18V55.6576C1056.98 46.6576 1046.18 41.0576 1031.58 41.0576C1004.98 41.0576 982.981 64.0576 982.981 93.8576C982.981 123.658 1004.98 146.658 1031.58 146.658ZM1008.78 93.8576C1008.78 110.658 1020.58 122.058 1036.38 122.058C1052.38 122.058 1064.18 110.658 1064.18 93.8576C1064.18 77.0576 1052.38 65.6576 1036.38 65.6576C1020.58 65.6576 1008.78 77.0576 1008.78 93.8576ZM1148.58 146.658C1169.98 146.658 1188.78 136.258 1188.78 114.658C1188.78 92.1386 1169.46 86.8446 1154.46 82.7358C1144.95 80.1301 1137.18 78.001 1137.18 72.2576C1137.18 66.8576 1142.38 64.0576 1148.78 64.0576C1156.18 64.0576 1161.78 67.8576 1164.78 74.2576L1186.78 62.2576C1178.98 48.4576 1164.98 41.0576 1148.78 41.0576C1128.18 41.0576 1110.78 52.4576 1110.78 72.8576C1110.78 94.2684 1129.87 99.696 1144.83 103.948C1154.46 106.687 1162.38 108.938 1162.38 114.658C1162.38 120.458 1156.78 123.258 1148.58 123.258C1138.58 123.258 1131.78 118.458 1128.98 110.258L1106.58 122.858C1113.78 138.258 1128.58 146.658 1148.58 146.658ZM1232.18 43.8576H1206.38V143.858H1232.18V43.8576ZM1348.58 120.658C1339.98 136.258 1322.98 146.658 1303.38 146.658C1272.98 146.658 1250.58 123.658 1250.58 93.8576C1250.58 64.0576 1272.98 41.0576 1303.38 41.0576C1322.98 41.0576 1339.98 51.4576 1348.18 66.8576L1325.98 79.8576C1321.98 71.6576 1313.38 66.4576 1303.18 66.4576C1287.78 66.4576 1276.38 77.8576 1276.38 93.8576C1276.38 109.658 1287.78 121.058 1303.18 121.058C1313.58 121.058 1322.18 116.058 1326.18 107.858L1348.58 120.658Z" fill="#66CC66"></path> <defs> <linearGradient id="paint0_linear" x1="1537.05" y1="1474.52" x2="795.686" y2="-218.414" gradientUnits="userSpaceOnUse"> <stop stop-color="#A9AEFF"></stop> <stop offset="0.436742" stop-color="#BEE5F0"></stop> <stop offset="1" stop-color="white"></stop> </linearGradient> </defs> </svg> 