<?xml version="1.0" encoding="UTF-8"?> <svg xmlns="http://www.w3.org/2000/svg" width="1440" height="827" viewBox="0 0 1440 827" fill="none"> <g clip-path="url(#clip0)"> <rect width="1440" height="827" fill="#7B5AE2"></rect> <g opacity="0.43"> <path opacity="0.43" d="M1606.03 -139.965H723.63V788.854H1606.03V-139.965Z" fill="#7B5AE2"></path> <path opacity="0.43" d="M733.309 -133.409H744.236C744.548 -133.409 898.675 -133.201 898.779 -132.784C898.883 -132.472 1053.01 -132.16 1053.32 -132.16H1277.8C1278.11 -132.16 1432.24 -132.368 1432.34 -132.784C1432.45 -133.096 1586.57 -133.409 1586.89 -133.409H1597.81C1598.33 -133.409 1598.75 54.9569 1598.54 55.4772L1596.67 778.447C1596.56 778.759 1302.57 778.968 1302.15 778.968H1028.87C1028.55 778.968 734.453 778.759 734.349 778.447L732.476 55.3732C732.268 54.8528 732.684 -133.409 733.309 -133.409Z" fill="#7858DC"></path> <path opacity="0.43" d="M742.883 -126.956H753.602C754.331 -126.956 904.607 -126.54 904.815 -125.811C905.023 -125.083 1055.4 -124.667 1056.13 -124.667H1276.24C1276.97 -124.667 1427.35 -125.083 1427.56 -125.811C1427.76 -126.54 1578.14 -126.956 1578.87 -126.956H1589.59C1590.74 -126.956 1591.46 56.9345 1591.15 58.0793L1587.3 767.833C1587.09 768.457 1300.49 768.977 1299.76 768.977H1032.72C1031.99 768.977 745.381 768.561 745.069 767.833L741.218 58.0793C741.01 57.0386 741.738 -126.956 742.883 -126.956Z" fill="#7555D6"></path> <path opacity="0.43" d="M752.561 -120.4H763.072C764.113 -120.4 910.747 -119.671 911.059 -118.631C911.371 -117.59 1058.01 -116.862 1059.05 -116.862H1274.78C1275.82 -116.862 1422.46 -117.59 1422.87 -118.631C1423.18 -119.671 1569.82 -120.4 1570.86 -120.4H1581.37C1583.04 -120.4 1584.28 59.1198 1583.66 60.7849L1577.94 757.321C1577.62 758.362 1298.41 758.986 1297.36 758.986H1036.57C1035.53 758.986 756.308 758.362 755.892 757.321L750.168 60.7849C749.647 59.1198 750.792 -120.4 752.561 -120.4Z" fill="#7253D1"></path> <path opacity="0.43" d="M762.135 -113.843H772.438C773.895 -113.843 916.783 -112.907 917.199 -111.554C917.615 -110.201 1060.5 -109.264 1061.96 -109.264H1273.32C1274.78 -109.264 1417.67 -110.201 1418.08 -111.554C1418.5 -112.907 1561.39 -113.843 1562.85 -113.843H1573.15C1575.44 -113.843 1577 61.3055 1576.27 63.491L1568.57 746.811C1568.15 748.163 1296.32 748.996 1294.97 748.996H1040.42C1038.96 748.996 767.131 748.059 766.715 746.811L759.013 63.491C758.285 61.3055 759.95 -113.843 762.135 -113.843Z" fill="#6E51CB"></path> <path opacity="0.43" d="M771.814 -107.287H781.909C783.678 -107.287 922.819 -106.142 923.339 -104.373C923.86 -102.708 1063 -101.459 1064.87 -101.459H1271.87C1273.64 -101.459 1412.88 -102.604 1413.4 -104.373C1413.92 -106.038 1553.06 -107.287 1554.94 -107.287H1565.03C1567.84 -107.287 1569.82 63.4907 1568.88 66.1965L1559.31 736.299C1558.79 737.964 1294.35 739.109 1292.58 739.109H1044.16C1042.39 739.109 777.954 737.964 777.434 736.299L767.859 66.0925C767.027 63.4907 769.004 -107.287 771.814 -107.287Z" fill="#6B4EC5"></path> <path opacity="0.43" d="M781.389 -100.834H791.275C793.461 -100.834 928.855 -99.4816 929.479 -97.4002C930.104 -95.3188 1065.6 -93.9659 1067.68 -93.9659H1270.51C1272.7 -93.9659 1408.09 -95.3188 1408.82 -97.4002C1409.45 -99.4816 1544.95 -100.834 1547.03 -100.834H1556.91C1560.35 -100.834 1562.64 65.5725 1561.6 68.7986L1550.04 725.685C1549.32 727.662 1292.37 729.015 1290.29 729.015H1048.12C1046.04 729.015 788.986 727.662 788.361 725.685L776.809 68.7986C775.665 65.5725 778.058 -100.834 781.389 -100.834Z" fill="#684CBF"></path> <path opacity="0.43" d="M791.067 -94.2783H800.746C803.243 -94.2783 934.891 -92.6132 935.724 -90.2196C936.452 -87.826 1068.2 -86.1609 1070.7 -86.1609H1269.06C1271.56 -86.1609 1403.31 -87.826 1404.04 -90.2196C1404.76 -92.6132 1536.52 -94.2783 1539.01 -94.2783H1548.69C1552.65 -94.2783 1555.46 67.7577 1554.1 71.5042L1540.68 715.173C1539.85 717.463 1290.39 719.128 1287.89 719.128H1051.97C1049.47 719.128 799.913 717.567 799.081 715.173L785.656 71.5042C784.303 67.7577 787.113 -94.2783 791.067 -94.2783Z" fill="#654AB9"></path> <path opacity="0.43" d="M800.745 -87.7217H810.215C813.129 -87.7217 941.031 -85.8484 941.863 -83.1426C942.696 -80.4368 1070.7 -78.5636 1073.61 -78.5636H1267.6C1270.51 -78.5636 1398.42 -80.4368 1399.35 -83.1426C1400.18 -85.8484 1528.19 -87.7217 1531.1 -87.7217H1540.57C1545.05 -87.7217 1548.28 69.9434 1546.82 74.2103L1531.42 704.663C1530.48 707.368 1288.41 709.138 1285.6 709.138H1055.92C1053.11 709.138 810.944 707.368 810.007 704.663L794.605 74.2103C793.044 69.8394 796.166 -87.7217 800.745 -87.7217Z" fill="#6248B4"></path> <path opacity="0.43" d="M810.32 -81.1655H819.582C822.808 -81.1655 947.067 -79.0841 948.003 -75.9621C948.94 -72.84 1073.2 -70.7586 1076.43 -70.7586H1266.04C1269.27 -70.7586 1393.52 -72.84 1394.46 -75.9621C1395.4 -79.0841 1519.66 -81.1655 1522.88 -81.1655H1532.14C1537.24 -81.1655 1540.78 72.0246 1539.12 76.9159L1521.84 694.047C1520.8 697.065 1286.12 699.043 1282.9 699.043H1059.36C1056.13 699.043 821.455 697.065 820.414 694.047L803.139 76.8118C801.682 72.0246 805.22 -81.1655 810.32 -81.1655Z" fill="#5F45AE"></path> <path opacity="0.43" d="M819.998 -74.7129H829.052C832.59 -74.7129 953.102 -72.4234 954.247 -68.9891C955.288 -65.5548 1075.8 -63.2653 1079.44 -63.2653H1264.69C1268.22 -63.2653 1388.84 -65.5548 1389.88 -68.9891C1390.92 -72.4234 1511.43 -74.7129 1515.08 -74.7129H1524.13C1529.75 -74.7129 1533.71 74.1063 1531.94 79.5179L1512.68 683.433C1511.54 686.763 1284.25 689.052 1280.71 689.052H1063.42C1059.88 689.052 832.59 686.763 831.445 683.433L812.193 79.5179C810.319 74.2104 814.378 -74.7129 819.998 -74.7129Z" fill="#5B43A8"></path> <path opacity="0.43" d="M829.572 -68.1567H838.418C842.373 -68.1567 959.139 -65.555 960.284 -61.8085C961.428 -58.062 1078.3 -55.4603 1082.25 -55.4603H1263.13C1267.08 -55.4603 1383.85 -58.062 1385.09 -61.8085C1386.24 -65.555 1503.11 -68.1567 1507.06 -68.1567H1515.91C1522.15 -68.1567 1526.53 76.2916 1524.44 82.2235L1503.32 672.921C1502.07 676.564 1282.17 679.061 1278.32 679.061H1067.27C1063.42 679.061 843.518 676.564 842.269 672.921L821.143 82.2235C819.061 76.2916 823.432 -68.1567 829.572 -68.1567Z" fill="#5841A2"></path> <path opacity="0.43" d="M839.25 -61.6006H847.888C852.155 -61.6006 965.279 -58.7907 966.527 -54.732C967.88 -50.6733 1080.9 -47.8634 1085.17 -47.8634H1261.67C1265.93 -47.8634 1379.06 -50.6733 1380.31 -54.732C1381.66 -58.7907 1494.68 -61.6006 1498.95 -61.6006H1507.58C1514.35 -61.6006 1519.14 78.4768 1516.95 84.9291L1493.85 662.41C1492.49 666.469 1279.98 669.07 1275.82 669.07H1071.01C1066.75 669.07 854.341 666.365 852.884 662.41L829.78 84.9291C827.699 78.4768 832.486 -61.6006 839.25 -61.6006Z" fill="#553E9C"></path> <path opacity="0.43" d="M848.929 -55.0439H857.359C862.042 -55.0439 971.315 -52.0259 972.772 -47.551C974.229 -43.076 1083.5 -40.058 1088.18 -40.058H1260.32C1265 -40.058 1374.38 -43.076 1375.73 -47.551C1377.19 -52.0259 1486.46 -55.0439 1491.14 -55.0439H1499.57C1506.86 -55.0439 1512.06 80.6625 1509.67 87.5311L1484.69 651.795C1483.23 656.166 1278.22 659.08 1273.64 659.08H1074.86C1070.28 659.08 865.164 656.166 863.707 651.795L838.73 87.5311C836.337 80.5585 841.54 -55.0439 848.929 -55.0439Z" fill="#523C97"></path> <path opacity="0.43" d="M858.504 -48.5918H866.725C871.72 -48.5918 977.351 -45.3656 978.808 -40.5785C980.369 -35.7913 1085.9 -32.5651 1090.99 -32.5651H1258.75C1263.75 -32.5651 1369.38 -35.7913 1370.94 -40.5785C1372.5 -45.3656 1478.03 -48.5918 1483.13 -48.5918H1491.35C1499.26 -48.5918 1504.77 82.7438 1502.28 90.1327L1475.32 641.18C1473.76 645.863 1276.13 648.985 1271.14 648.985H1078.71C1073.82 648.985 876.091 645.863 874.53 641.18L847.576 90.1327C845.079 82.7438 850.594 -48.5918 858.504 -48.5918Z" fill="#4F3A91"></path> <path opacity="0.43" d="M868.182 -42.0352H876.196C881.607 -42.0352 983.387 -38.6009 985.052 -33.3974C986.717 -28.298 1088.6 -24.7596 1093.91 -24.7596H1257.4C1262.81 -24.7596 1364.7 -28.1939 1366.26 -33.3974C1367.92 -38.4968 1469.81 -42.0352 1475.12 -42.0352H1483.13C1491.56 -42.0352 1497.59 84.8254 1494.78 92.8388L1465.96 630.669C1464.29 635.665 1274.05 638.995 1268.75 638.995H1082.57C1077.26 638.995 887.019 635.665 885.354 630.669L856.527 92.8388C853.717 84.9295 859.649 -42.0352 868.182 -42.0352Z" fill="#4C378B"></path> <path opacity="0.43" d="M877.757 -35.479H885.562C891.286 -35.479 989.423 -31.7325 991.192 -26.3209C992.962 -20.8052 1091.1 -17.1628 1096.82 -17.1628H1255.94C1261.67 -17.1628 1359.81 -20.9093 1361.58 -26.3209C1363.34 -31.8366 1461.48 -35.479 1467.21 -35.479H1475.01C1484.06 -35.479 1490.41 87.0106 1487.5 95.5443L1456.69 620.158C1454.93 625.466 1272.08 629.108 1266.46 629.108H1086.42C1080.8 629.108 897.946 625.466 896.177 620.158L865.372 95.5443C862.354 87.0106 868.807 -35.479 877.757 -35.479Z" fill="#493585"></path> <path opacity="0.43" d="M887.435 -28.9224H895.032C901.172 -28.9224 995.563 -24.9677 997.332 -19.1398C999.206 -13.312 1093.6 -9.35733 1099.74 -9.35733H1254.49C1260.63 -9.35733 1355.02 -13.312 1356.89 -19.1398C1358.77 -24.9677 1453.16 -28.9224 1459.3 -28.9224H1466.89C1476.47 -28.9224 1483.23 89.1964 1480.11 98.2504L1447.43 609.647C1445.46 615.371 1270.1 619.118 1264.17 619.118H1090.37C1084.33 619.118 908.977 615.267 907 609.647L874.322 98.2504C871.096 89.1964 877.861 -28.9224 887.435 -28.9224Z" fill="#45337F"></path> <path opacity="0.43" d="M897.009 -22.4707H904.398C910.85 -22.4707 1001.49 -18.3079 1003.47 -12.1678C1005.45 -6.02775 1096.09 -1.86496 1102.55 -1.86496H1252.93C1259.38 -1.86496 1350.13 -6.02775 1352 -12.1678C1353.98 -18.3079 1444.62 -22.4707 1451.07 -22.4707H1458.46C1468.66 -22.4707 1475.74 91.2771 1472.51 100.852L1437.86 599.032C1435.78 605.068 1267.81 609.126 1261.46 609.126H1093.91C1087.56 609.126 919.592 605.068 917.511 599.032L882.856 100.852C879.734 91.2771 886.914 -22.4707 897.009 -22.4707Z" fill="#42307A"></path> <path opacity="0.43" d="M906.688 -15.9141H913.869C920.634 -15.9141 1007.64 -11.5431 1009.72 -4.98678C1011.8 1.46553 1098.7 5.94051 1105.56 5.94051H1251.57C1258.34 5.94051 1345.34 1.56959 1347.42 -4.98678C1349.5 -11.4391 1436.4 -15.9141 1443.27 -15.9141H1450.45C1461.17 -15.9141 1468.77 93.4629 1465.23 103.558L1428.7 588.521C1426.51 594.869 1266.04 599.136 1259.28 599.136H1097.97C1091.31 599.136 930.728 594.869 928.543 588.521L892.014 103.558C888.476 93.4629 895.969 -15.9141 906.688 -15.9141Z" fill="#3F2E74"></path> <path opacity="0.43" d="M916.366 -9.35742H923.235C930.416 -9.35742 1013.67 -4.6743 1015.75 2.09021C1017.94 8.95879 1101.19 13.5378 1108.37 13.5378H1250.01C1257.19 13.5378 1340.45 8.85472 1342.63 2.09021C1344.82 -4.77837 1428.08 -9.35742 1435.26 -9.35742H1442.12C1453.36 -9.35742 1461.38 95.6486 1457.74 106.264L1419.23 578.01C1416.94 584.671 1263.85 589.146 1256.78 589.146H1101.61C1094.53 589.146 941.447 584.671 939.158 578.01L900.652 106.264C897.113 95.6486 905.023 -9.35742 916.366 -9.35742Z" fill="#3C2C6E"></path> <path opacity="0.43" d="M925.941 -2.80127H932.601C940.094 -2.80127 1019.6 2.09 1021.89 9.27079C1024.18 16.4516 1103.69 21.3428 1111.18 21.3428H1248.45C1255.95 21.3428 1335.45 16.4516 1337.74 9.27079C1340.03 2.09 1419.54 -2.80127 1427.04 -2.80127H1433.7C1445.56 -2.80127 1453.88 97.8338 1450.03 108.969L1409.97 567.499C1407.57 574.472 1261.88 579.259 1254.49 579.259H1105.56C1098.18 579.259 952.375 574.576 950.085 567.499L909.706 108.969C905.751 97.7298 914.077 -2.80127 925.941 -2.80127Z" fill="#392A68"></path> <path opacity="0.43" d="M935.619 3.65088H942.072C949.981 3.65088 1025.74 8.75028 1028.14 16.2433C1030.53 23.7363 1106.29 28.8357 1114.2 28.8357H1247.1C1255.01 28.8357 1330.77 23.7363 1333.16 16.2433C1335.56 8.75028 1411.32 3.65088 1419.23 3.65088H1425.68C1438.07 3.65088 1446.81 99.811 1442.85 111.571L1400.6 556.988C1398.1 564.377 1259.8 569.268 1252.09 569.268H1109.42C1101.61 569.268 963.302 564.377 960.804 556.988L918.448 111.675C914.493 99.9151 923.131 3.65088 935.619 3.65088Z" fill="#362763"></path> <path opacity="0.43" d="M945.194 10.207H951.438C959.66 10.207 1031.68 15.5146 1034.17 23.4238C1036.67 31.3331 1108.69 36.6407 1117.01 36.6407H1245.64C1253.86 36.6407 1325.98 31.3331 1328.48 23.4238C1330.98 15.5146 1403 10.207 1411.32 10.207H1417.56C1430.57 10.207 1439.63 101.996 1435.46 114.276L1391.24 546.477C1388.63 554.178 1257.71 559.277 1249.6 559.277H1113.16C1105.04 559.277 974.125 554.074 971.523 546.477L927.294 114.38C923.131 101.996 932.289 10.207 945.194 10.207Z" fill="#32255D"></path> <path opacity="0.43" d="M954.872 16.7637H960.908C969.546 16.7637 1037.82 22.3834 1040.42 30.5008C1043.02 38.7223 1111.29 44.238 1119.93 44.238H1244.19C1252.82 44.238 1321.09 38.6182 1323.69 30.5008C1326.3 22.2793 1394.57 16.7637 1403.2 16.7637H1409.24C1422.77 16.7637 1432.34 104.182 1427.97 116.982L1381.87 535.966C1379.16 543.979 1255.63 549.391 1247.2 549.391H1116.91C1108.48 549.391 984.948 543.979 982.243 535.966L936.036 117.087C931.769 104.182 941.343 16.7637 954.872 16.7637Z" fill="#2F2357"></path> <path opacity="0.43" d="M964.55 23.3198H970.378C979.328 23.3198 1043.96 29.1477 1046.66 37.6814C1049.37 46.2151 1113.99 52.043 1122.94 52.043H1242.83C1251.78 52.043 1316.41 46.2151 1319.11 37.6814C1321.82 29.1477 1386.45 23.3198 1395.4 23.3198H1401.23C1415.38 23.3198 1425.27 106.367 1420.69 119.688L1372.61 525.351C1369.8 533.676 1253.76 539.296 1244.91 539.296H1120.86C1112.02 539.296 995.979 533.676 993.169 525.351L945.089 119.688C940.51 106.367 950.397 23.3198 964.55 23.3198Z" fill="#2C2051"></path> <path opacity="0.43" d="M974.125 29.7725H979.745C989.111 29.7725 1049.89 35.8085 1052.7 44.6544C1055.51 53.5003 1116.39 59.5363 1125.75 59.5363H1241.27C1250.64 59.5363 1311.41 53.5003 1314.33 44.6544C1317.14 35.8085 1378.02 29.7725 1387.38 29.7725H1393C1407.68 29.7725 1417.98 108.449 1413.3 122.29L1363.24 514.736C1360.33 523.374 1251.68 529.305 1242.52 529.305H1124.71C1115.56 529.305 1006.91 523.478 1003.89 514.736L953.831 122.394C949.148 108.449 959.451 29.7725 974.125 29.7725Z" fill="#291E4B"></path> <path opacity="0.43" d="M983.803 36.3286H989.215C998.893 36.3286 1056.03 42.5728 1058.94 51.8349C1061.86 61.0971 1118.99 67.3413 1128.67 67.3413H1239.81C1249.49 67.3413 1306.63 61.0971 1309.54 51.8349C1312.45 42.5728 1369.59 36.3286 1379.27 36.3286H1384.68C1399.87 36.3286 1410.59 110.634 1405.7 124.996L1353.87 504.329C1350.86 513.383 1249.6 519.419 1240.02 519.419H1128.46C1118.89 519.419 1017.73 513.383 1014.61 504.329L962.677 125.1C957.786 110.634 968.505 36.3286 983.803 36.3286Z" fill="#261C46"></path> <path opacity="0.43" d="M993.378 42.8853H998.581C1008.68 42.8853 1062.06 49.3375 1065.08 58.9119C1068.1 68.4863 1121.49 74.9386 1131.58 74.9386H1238.36C1248.45 74.9386 1301.84 68.4863 1304.86 58.9119C1307.88 49.3375 1361.26 42.8853 1371.36 42.8853H1376.56C1392.38 42.8853 1403.52 112.716 1398.42 127.702L1344.51 493.714C1341.28 503.08 1247.52 509.324 1237.63 509.324H1132.21C1122.32 509.324 1028.55 503.08 1025.33 493.714L971.419 127.702C966.528 112.716 977.559 42.8853 993.378 42.8853Z" fill="#231940"></path> <path opacity="0.43" d="M1003.06 49.4414H1008.05C1018.46 49.4414 1068.1 56.2059 1071.22 66.0925C1074.34 75.9791 1124.09 82.7436 1134.5 82.7436H1236.9C1247.31 82.7436 1296.95 75.9791 1300.17 66.0925C1303.3 56.2059 1353.04 49.4414 1363.45 49.4414H1368.44C1384.78 49.4414 1396.33 114.901 1391.03 130.407L1335.25 483.203C1331.92 492.881 1245.54 499.437 1235.34 499.437H1136.16C1125.96 499.437 1039.58 492.881 1036.25 483.203L980.473 130.407C975.166 114.901 986.717 49.4414 1003.06 49.4414Z" fill="#20173A"></path> <path opacity="0.43" d="M1012.63 55.894H1017.42C1028.14 55.894 1074.14 62.8667 1077.36 73.0655C1080.59 83.3684 1126.59 90.2369 1137.31 90.2369H1235.34C1246.06 90.2369 1292.06 83.2643 1295.28 73.0655C1298.51 62.7626 1344.51 55.894 1355.23 55.894H1360.01C1376.98 55.894 1388.84 116.983 1383.43 133.009L1325.78 472.588C1322.34 482.579 1243.35 489.343 1232.84 489.343H1139.91C1129.29 489.343 1050.3 482.579 1046.97 472.588L989.319 133.009C983.804 117.087 995.772 55.894 1012.63 55.894Z" fill="#1C1534"></path> <path opacity="0.43" d="M1022.31 62.4502H1026.89C1038.02 62.4502 1080.17 69.631 1083.61 80.2461C1086.94 90.8611 1129.19 98.0419 1140.32 98.0419H1233.99C1245.12 98.0419 1287.37 90.8611 1290.7 80.2461C1294.03 69.631 1336.29 62.4502 1347.42 62.4502H1352C1369.48 62.4502 1381.76 119.168 1376.14 135.715L1316.51 462.077C1312.97 472.379 1241.48 479.352 1230.55 479.352H1143.76C1132.83 479.352 1061.23 472.379 1057.69 462.077L998.061 135.715C992.545 119.168 1004.83 62.4502 1022.31 62.4502Z" fill="#19122E"></path> <path opacity="0.43" d="M1031.99 69.0063H1036.36C1047.81 69.0063 1086.31 76.3953 1089.75 87.3226C1093.18 98.2498 1131.69 105.639 1143.13 105.639H1232.53C1243.98 105.639 1282.48 98.2498 1286.02 87.3226C1289.45 76.3953 1327.96 69.0063 1339.41 69.0063H1343.78C1361.78 69.0063 1374.58 121.353 1368.76 138.421L1307.25 451.565C1303.61 462.284 1239.5 469.465 1228.16 469.465H1147.61C1136.37 469.465 1072.16 462.284 1068.52 451.565L1007.01 138.421C1001.18 121.353 1013.88 69.0063 1031.99 69.0063Z" fill="#161029"></path> <path opacity="0.43" d="M1041.56 75.563H1045.72C1057.59 75.563 1092.35 83.2641 1095.89 94.5036C1099.42 105.743 1134.18 113.444 1146.05 113.444H1231.07C1242.94 113.444 1277.7 105.743 1281.23 94.5036C1284.77 83.2641 1319.53 75.563 1331.4 75.563H1335.56C1354.19 75.563 1367.3 123.539 1361.26 141.127L1297.78 441.055C1294.03 452.086 1237.32 459.475 1225.66 459.475H1151.36C1139.7 459.475 1082.98 452.086 1079.23 441.055L1015.75 141.127C1009.82 123.435 1022.93 75.563 1041.56 75.563Z" fill="#130E23"></path> <path opacity="0.43" d="M1051.24 82.0151H1055.2C1067.37 82.0151 1098.38 89.9244 1102.13 101.58C1105.88 113.236 1136.89 121.145 1149.07 121.145H1229.72C1241.9 121.145 1272.91 113.236 1276.66 101.58C1280.4 89.9244 1311.41 82.0151 1323.59 82.0151H1327.54C1346.69 82.0151 1360.22 125.62 1354.08 143.728L1288.73 430.439C1284.88 441.783 1235.55 449.38 1223.58 449.38H1155.52C1143.55 449.38 1094.22 441.783 1090.37 430.439L1025.02 143.728C1018.56 125.62 1031.99 82.0151 1051.24 82.0151Z" fill="#100C1D"></path> <path opacity="0.43" d="M1060.81 88.5718H1064.56C1077.15 88.5718 1104.42 96.6892 1108.17 108.657C1112.02 120.625 1139.28 128.743 1151.77 128.743H1228.05C1240.65 128.743 1267.91 120.625 1271.76 108.657C1275.61 96.6892 1302.88 88.5718 1315.37 88.5718H1319.11C1338.89 88.5718 1352.73 127.702 1346.38 146.434L1279.05 419.929C1275.09 431.584 1233.15 439.494 1220.87 439.494H1158.95C1146.57 439.494 1104.73 431.584 1100.78 419.929L1033.44 146.434C1027.2 127.806 1041.15 88.5718 1060.81 88.5718Z" fill="#0D0917"></path> <path opacity="0.43" d="M1070.49 95.1279H1074.03C1086.94 95.1279 1110.56 103.453 1114.41 115.838C1118.37 128.118 1141.88 136.548 1154.79 136.548H1226.7C1239.61 136.548 1263.23 128.222 1267.08 115.838C1271.03 103.558 1294.55 95.1279 1307.46 95.1279H1311C1331.29 95.1279 1345.65 129.887 1339.1 149.14L1269.89 409.417C1265.83 421.489 1231.28 429.503 1218.58 429.503H1162.91C1150.21 429.503 1115.76 421.385 1111.6 409.417L1042.39 149.14C1035.84 129.887 1050.2 95.1279 1070.49 95.1279Z" fill="#090711"></path> <path opacity="0.43" d="M1080.07 101.685H1083.4C1096.72 101.685 1116.49 110.322 1120.55 122.915C1124.61 135.611 1144.38 144.145 1157.7 144.145H1225.24C1238.57 144.145 1258.34 135.507 1262.4 122.915C1266.46 110.218 1286.23 101.685 1299.55 101.685H1302.88C1323.8 101.685 1338.47 132.073 1331.71 151.846L1260.52 398.907C1256.36 411.291 1229.3 419.616 1216.19 419.616H1166.76C1153.75 419.616 1126.69 411.291 1122.42 398.907L1051.24 151.846C1044.58 132.073 1059.25 101.685 1080.07 101.685Z" fill="#06050C"></path> <path opacity="0.43" d="M1089.75 108.137H1092.87C1106.5 108.137 1122.63 116.983 1126.69 129.991C1130.85 143 1146.88 151.846 1160.51 151.846H1223.68C1237.32 151.846 1253.45 143 1257.51 129.991C1261.67 116.983 1277.7 108.137 1291.33 108.137H1294.45C1315.89 108.137 1330.98 134.154 1324.11 154.448L1251.05 388.292C1246.79 400.988 1227.12 409.522 1213.69 409.522H1170.61C1157.18 409.522 1137.51 400.988 1133.25 388.292L1060.19 154.448C1053.22 134.154 1068.31 108.137 1089.75 108.137Z" fill="#030206"></path> <g opacity="0.43"> <path opacity="0.43" d="M1163.53 159.443H1222.33C1236.28 159.443 1248.66 150.389 1252.93 137.068C1257.19 123.747 1269.58 114.693 1283.52 114.693H1286.44C1308.4 114.693 1323.9 136.34 1316.83 157.154L1241.79 377.781C1237.32 390.789 1225.14 399.531 1211.4 399.531H1174.35C1160.62 399.531 1148.34 390.789 1143.97 377.781L1068.93 157.154C1061.86 136.34 1077.36 114.693 1099.32 114.693H1102.23C1116.18 114.693 1128.56 123.747 1132.83 137.068C1137.1 150.389 1149.48 159.443 1163.53 159.443Z" fill="black"></path> </g> </g> <path d="M1443.27 -96.4634H-29V835.582H1443.27V-96.4634Z" fill="black"></path> <path d="M-21.0908 -79.0842L1132.31 -80.0208C1132.62 -80.1248 1417.56 -79.9167 1417.56 -79.6045V-68.6772C1417.56 -68.4691 1417.46 97.6257 1417.25 97.6257C1417.04 97.7298 1416.94 263.929 1416.94 264.033V487.157C1416.94 487.366 1417.04 653.564 1417.25 653.564C1417.46 653.668 1417.56 819.763 1417.56 819.971V830.899C1417.56 831.211 1132.73 831.419 1132.31 831.315L-21.0908 830.274C-21.2989 830.17 -21.403 512.238 -21.403 512.03V239.056C-21.5071 238.848 -21.2989 -78.9801 -21.0908 -79.0842Z" fill="#030206"></path> <path d="M-13.1816 -61.7044L1113.37 -63.6817C1113.99 -63.8898 1391.76 -63.4736 1391.76 -62.8491V-52.2341C1391.76 -51.9219 1391.44 110.01 1391.03 110.114C1390.61 110.218 1390.3 272.254 1390.3 272.566V490.592C1390.3 490.904 1390.61 652.94 1391.03 653.044C1391.44 653.148 1391.76 815.08 1391.76 815.392V826.008C1391.76 826.528 1113.99 826.944 1113.37 826.84L-13.1816 825.071C-13.5979 824.967 -13.806 515.152 -13.806 514.84V248.526C-13.9101 248.11 -13.5979 -61.6003 -13.1816 -61.7044Z" fill="#06050C"></path> <path d="M-5.3763 -44.3251L1094.32 -47.239C1095.26 -47.5512 1365.84 -46.9268 1365.84 -46.0942V-35.6873C1365.84 -35.1669 1365.43 122.498 1364.8 122.706C1364.18 122.914 1363.76 280.684 1363.76 281.204V494.13C1363.76 494.65 1364.18 652.42 1364.8 652.628C1365.43 652.836 1365.84 810.501 1365.84 811.021V821.428C1365.84 822.261 1095.26 822.885 1094.32 822.573L-5.3763 819.867C-6.00071 819.659 -6.41699 518.17 -6.41699 517.65V257.892C-6.31292 257.372 -6.00071 -44.1169 -5.3763 -44.3251Z" fill="#090711"></path> <path d="M2.53308 -26.9449L1075.38 -30.7954C1076.63 -31.2117 1340.14 -30.3791 1340.14 -29.2344V-19.0356C1340.14 -18.3071 1339.62 135.195 1338.78 135.403C1337.95 135.612 1337.43 289.218 1337.43 289.946V497.773C1337.43 498.502 1337.95 652.108 1338.78 652.316C1339.62 652.524 1340.14 806.027 1340.14 806.755V816.954C1340.14 818.099 1076.74 818.931 1075.38 818.515L2.53308 814.56C1.70052 814.352 1.18018 520.98 1.18018 520.252V267.363C1.18018 266.635 1.70052 -26.7367 2.53308 -26.9449Z" fill="#0D0917"></path> <path d="M10.4425 -9.56514L1056.44 -14.3523C1058.11 -14.7686 1314.33 -13.832 1314.33 -12.375V-2.48842C1314.33 -1.5518 1313.6 147.684 1312.56 147.996C1311.52 148.308 1310.79 297.648 1310.79 298.48V501.207C1310.79 502.144 1311.52 651.483 1312.56 651.692C1313.6 652.004 1314.33 801.239 1314.33 802.176V812.063C1314.33 813.52 1058 814.456 1056.44 814.04L10.4425 809.357C9.40176 809.045 8.77734 523.894 8.77734 523.062V276.73C8.77734 275.897 9.40176 -9.25294 10.4425 -9.56514Z" fill="#100C1D"></path> <path d="M18.3518 7.91801L1037.5 2.09012C1039.48 1.56977 1288.52 2.71454 1288.52 4.48371V14.1622C1288.52 15.2029 1287.69 160.276 1286.44 160.588C1285.19 160.9 1284.36 306.077 1284.36 307.117V504.745C1284.36 505.786 1285.19 650.963 1286.44 651.275C1287.69 651.587 1288.52 796.66 1288.52 797.805V807.483C1288.52 809.148 1039.38 810.397 1037.5 809.877L18.3518 804.049C17.103 803.737 16.3745 526.808 16.3745 525.663V286.2C16.2704 285.055 17.103 8.23022 18.3518 7.91801Z" fill="#130E23"></path> <path d="M26.1568 25.2981L1018.56 18.5336C1020.85 17.9092 1262.81 19.2621 1262.81 21.2394V30.6056C1262.81 31.8545 1261.88 172.764 1260.42 173.077C1258.96 173.493 1258.03 314.403 1258.03 315.652V508.18C1258.03 509.429 1258.96 650.339 1260.42 650.755C1261.88 651.171 1262.81 791.977 1262.81 793.33V802.8C1262.81 804.778 1020.85 806.131 1018.56 805.506L26.1568 798.846C24.6998 798.429 23.7632 529.722 23.7632 528.474V295.566C23.8673 294.317 24.8039 25.6103 26.1568 25.2981Z" fill="#161029"></path> <path d="M34.0662 42.6772L999.622 34.9761C1002.22 34.2476 1237 35.8087 1237 38.0982V47.2563C1237 48.7133 1235.86 185.356 1234.19 185.773C1232.53 186.189 1231.38 322.936 1231.38 324.393V511.822C1231.38 513.279 1232.53 650.026 1234.19 650.442C1235.86 650.859 1237 787.606 1237 788.959V798.117C1237 800.406 1002.22 801.967 999.622 801.239L34.0662 793.538C32.401 793.122 31.3604 532.532 31.3604 531.179V305.036C31.3604 303.579 32.5051 43.0935 34.0662 42.6772Z" fill="#19122E"></path> <path d="M41.975 60.0569L980.681 51.4192C983.595 50.5866 1211.3 52.3558 1211.3 54.9575V63.9075C1211.3 65.5726 1210.05 197.949 1208.18 198.469C1206.3 198.99 1205.05 331.47 1205.05 333.135V515.465C1205.05 517.13 1206.3 649.61 1208.18 650.13C1210.05 650.651 1211.3 783.131 1211.3 784.692V793.642C1211.3 796.14 983.595 798.013 980.681 797.18L41.975 788.543C40.2059 788.022 38.957 535.758 38.957 534.093V314.402C38.957 312.841 40.1018 60.5773 41.975 60.0569Z" fill="#1C1534"></path> <path d="M49.8847 77.4362L961.741 67.7577C964.967 66.8211 1185.49 68.7984 1185.49 71.7123V80.3501C1185.49 82.1193 1184.14 210.437 1182.06 210.957C1179.97 211.478 1178.62 339.795 1178.62 341.564V518.899C1178.62 520.668 1179.97 648.985 1182.06 649.506C1184.14 650.026 1185.49 778.343 1185.49 780.113V788.75C1185.49 791.56 964.967 793.538 961.741 792.705L49.8847 783.027C47.9073 782.506 46.5544 538.359 46.5544 536.59V323.872C46.4504 322.103 47.8033 77.9565 49.8847 77.4362Z" fill="#20173A"></path> <path d="M57.7934 94.8164L942.695 84.2013C946.234 83.1606 1159.58 85.346 1159.58 88.4681V96.8977C1159.58 98.8751 1158.01 222.926 1155.73 223.55C1153.44 224.175 1151.87 348.225 1151.87 350.203V522.437C1151.87 524.415 1153.44 648.466 1155.73 649.09C1158.01 649.714 1159.58 773.765 1159.58 775.742V784.172C1159.58 787.294 946.234 789.48 942.695 788.439L57.7934 777.824C55.6079 777.199 54.0469 541.274 54.0469 539.297V333.239C54.0469 331.366 55.5038 95.4408 57.7934 94.8164Z" fill="#231940"></path> <path d="M65.5992 112.196L923.755 100.644C927.606 99.4991 1133.87 101.893 1133.87 105.327V113.444C1133.87 115.63 1132.21 235.414 1129.71 236.038C1127.21 236.663 1125.55 356.55 1125.55 358.736V525.871C1125.55 528.057 1127.21 647.945 1129.71 648.569C1132.21 649.194 1133.87 769.081 1133.87 771.267V779.488C1133.87 782.923 927.71 785.316 923.755 784.172L65.5992 772.62C63.2056 771.891 61.5405 544.188 61.5405 542.106V342.709C61.5405 340.524 63.2056 112.924 65.5992 112.196Z" fill="#261C46"></path> <path d="M73.5081 129.576L904.814 117.087C908.977 115.943 1108.06 118.544 1108.06 122.187V130.096C1108.06 132.386 1106.19 248.007 1103.59 248.735C1100.88 249.464 1099.11 365.085 1099.11 367.478V529.514C1099.11 531.804 1100.99 647.529 1103.59 648.257C1106.29 648.986 1108.06 764.607 1108.06 766.897V774.806C1108.06 778.448 908.977 781.05 904.814 779.905L73.5081 767.417C70.9064 766.688 69.1372 547.206 69.1372 544.917V352.076C69.1372 349.786 70.9064 130.304 73.5081 129.576Z" fill="#291E4B"></path> <path d="M81.4175 146.955L885.874 133.426C890.349 132.177 1082.25 134.987 1082.25 138.941V146.643C1082.25 149.14 1080.28 260.599 1077.36 261.327C1074.45 262.056 1072.47 373.514 1072.47 376.116V533.052C1072.47 535.55 1074.45 647.008 1077.36 647.841C1080.28 648.569 1082.25 760.027 1082.25 762.525V770.226C1082.25 774.181 890.349 776.991 885.874 775.742L81.4175 762.213C78.6076 761.38 76.7344 550.12 76.7344 547.622V361.546C76.6303 359.048 78.6076 147.787 81.4175 146.955Z" fill="#2C2051"></path> <path d="M89.3265 164.335L866.933 149.869C871.824 148.516 1056.55 151.534 1056.55 155.697V163.086C1056.55 165.792 1054.47 272.983 1051.34 273.816C1048.22 274.648 1046.14 381.84 1046.14 384.546V536.383C1046.14 539.089 1048.22 646.384 1051.34 647.113C1054.47 647.945 1056.55 755.137 1056.55 757.842V765.231C1056.55 769.498 871.824 772.412 866.933 771.059L89.3265 756.802C86.3084 755.969 84.2271 552.826 84.2271 550.224V370.913C84.2271 368.311 86.2044 165.271 89.3265 164.335Z" fill="#2F2357"></path> <path d="M97.1324 181.818L847.993 166.312C853.196 164.855 1030.74 168.081 1030.74 172.556V179.737C1030.74 182.651 1028.45 285.575 1025.22 286.512C1021.89 287.344 1019.71 390.477 1019.71 393.287V540.025C1019.71 542.939 1022 645.967 1025.22 646.8C1028.55 647.633 1030.74 750.661 1030.74 753.575V760.756C1030.74 765.335 853.092 768.457 847.993 767L97.2365 751.598C94.0103 750.661 91.8249 555.843 91.8249 553.033V380.382C91.7208 377.573 93.9062 182.651 97.1324 181.818Z" fill="#32255D"></path> <path d="M105.041 199.198L829.052 182.755C834.567 181.194 1005.03 184.628 1005.03 189.415V196.284C1005.03 199.302 1002.64 298.168 999.101 299C995.563 299.937 993.169 398.803 993.169 401.821V543.459C993.169 546.477 995.563 645.343 999.101 646.28C1002.64 647.216 1005.03 745.978 1005.03 749.1V756.073C1005.03 760.86 834.567 764.294 829.052 762.733L105.041 746.29C101.607 745.354 99.3174 558.653 99.3174 555.635V389.749C99.3174 386.731 101.607 200.134 105.041 199.198Z" fill="#362763"></path> <path d="M112.951 216.577L810.112 199.198C815.939 197.533 979.224 201.175 979.224 206.274V212.935C979.224 216.161 976.727 310.76 972.98 311.697C969.234 312.633 966.736 407.336 966.736 410.563V547.102C966.736 550.328 969.234 644.927 972.98 645.967C976.727 646.904 979.224 741.503 979.224 744.729V751.39C979.224 756.489 815.939 760.028 810.112 758.467L112.951 741.087C109.308 740.046 106.915 561.567 106.915 558.445V399.219C106.811 395.993 109.308 217.618 112.951 216.577Z" fill="#392A68"></path> <path d="M120.86 233.957L791.171 215.641C797.311 213.871 953.415 217.722 953.415 223.03V229.482C953.415 232.916 950.709 323.248 946.858 324.289C942.904 325.33 940.302 415.766 940.302 419.2V550.64C940.302 554.074 943.008 644.511 946.858 645.551C950.813 646.592 953.415 736.924 953.415 740.358V746.811C953.415 752.222 797.311 755.969 791.171 754.2L120.86 735.883C117.009 734.843 114.407 564.585 114.407 561.151V408.585C114.407 405.255 117.009 234.998 120.86 233.957Z" fill="#3C2C6E"></path> <path d="M128.665 251.337L772.126 232.084C778.578 230.21 927.606 234.269 927.606 239.889V246.029C927.606 249.671 924.796 335.737 920.633 336.882C916.47 337.922 913.66 424.196 913.66 427.734V554.074C913.66 557.717 916.47 643.886 920.633 644.927C924.796 645.968 927.606 732.241 927.606 735.779V741.92C927.606 747.539 778.578 751.598 772.126 749.725L128.665 730.472C124.606 729.327 121.9 567.291 121.9 563.753V418.056C122.004 414.517 124.71 252.481 128.665 251.337Z" fill="#3F2E74"></path> <path d="M136.574 268.716L753.185 248.423C759.95 246.549 901.796 250.712 901.796 256.644V262.576C901.796 266.323 898.882 348.329 894.512 349.474C890.141 350.619 887.227 432.625 887.227 436.372V557.613C887.227 561.359 890.141 643.366 894.512 644.511C898.882 645.655 901.796 727.662 901.796 731.409V737.341C901.796 743.273 759.95 747.435 753.185 745.562L136.574 725.269C132.307 724.124 129.498 570.205 129.498 566.563V427.422C129.498 423.78 132.307 269.965 136.574 268.716Z" fill="#42307A"></path> <path d="M144.484 286.095L734.245 264.865C741.322 262.888 875.987 267.259 875.987 273.503V279.227C875.987 283.181 872.865 360.921 868.39 362.17C863.811 363.419 860.793 441.159 860.793 445.113V561.255C860.793 565.209 863.915 642.949 868.39 644.198C872.969 645.447 875.987 723.187 875.987 727.141V732.865C875.987 739.109 741.322 743.48 734.245 741.503L144.484 720.065C140.009 718.816 137.095 573.223 137.095 569.268V436.892C137.095 432.937 140.009 287.344 144.484 286.095Z" fill="#45337F"></path> <path d="M152.393 303.475L715.304 281.309C722.693 279.227 850.282 283.806 850.282 290.259V295.67C850.282 299.833 847.056 373.306 842.269 374.555C837.481 375.804 834.255 449.381 834.255 453.543V564.69C834.255 568.852 837.481 642.429 842.269 643.678C847.056 644.927 850.282 718.504 850.282 722.667V728.078C850.282 734.635 722.797 739.214 715.304 737.028L152.393 714.862C147.709 713.509 144.587 576.137 144.587 572.078V446.259C144.587 442.2 147.709 304.828 152.393 303.475Z" fill="#493585"></path> <path d="M160.302 320.855L696.364 297.752C704.169 295.566 824.473 300.353 824.473 307.118V312.321C824.473 316.588 821.143 386.002 816.148 387.251C811.152 388.604 807.822 457.914 807.822 462.285V568.228C807.822 572.495 811.152 641.909 816.148 643.262C821.143 644.615 824.473 713.925 824.473 718.192V723.395C824.473 730.16 704.065 734.947 696.364 732.762L160.302 709.658C155.411 708.305 152.185 579.051 152.185 574.784V455.729C152.185 451.462 155.411 322.312 160.302 320.855Z" fill="#4C378B"></path> <path d="M168.107 338.338L677.319 314.194C685.436 311.905 798.664 316.9 798.664 323.977V328.868C798.664 333.343 795.125 398.49 790.026 399.843C784.822 401.196 781.388 466.344 781.388 470.819V571.662C781.388 576.137 784.927 641.284 790.026 642.637C795.229 643.99 798.664 709.137 798.664 713.612V718.504C798.664 725.58 685.436 730.576 677.319 728.286L168.107 704.142C163.008 702.685 159.678 581.652 159.678 577.281V465.095C159.678 460.724 163.112 339.691 168.107 338.338Z" fill="#4F3A91"></path> <path d="M176.017 355.718L658.378 330.637C666.808 328.244 772.855 333.447 772.855 340.836V345.519C772.855 350.202 769.212 411.083 763.801 412.54C758.389 413.997 754.747 474.877 754.747 479.56V575.304C754.747 579.987 758.389 640.972 763.801 642.325C769.212 643.782 772.855 704.662 772.855 709.346V714.029C772.855 721.418 666.808 726.517 658.378 724.227L176.017 699.147C170.813 697.69 167.275 584.879 167.275 580.3V474.565C167.275 469.986 170.813 357.175 176.017 355.718Z" fill="#523C97"></path> <path d="M183.926 373.098L639.541 347.08C648.283 344.582 747.149 349.994 747.149 357.591V362.066C747.149 366.957 743.403 423.675 737.783 425.132C732.163 426.589 728.417 483.307 728.417 488.198V578.843C728.417 583.734 732.163 640.452 737.783 641.909C743.403 643.366 747.149 700.083 747.149 704.975V709.45C747.149 717.047 648.283 722.458 639.541 719.961L183.926 693.943C178.514 692.382 174.768 587.793 174.768 583.005V484.035C174.768 479.248 178.514 374.659 183.926 373.098Z" fill="#553E9C"></path> <path d="M191.835 390.477L620.601 363.419C629.655 360.817 721.444 366.437 721.444 374.346V378.509C721.444 383.505 717.49 436.06 711.766 437.517C705.938 439.078 702.087 491.529 702.087 496.628V582.173C702.087 587.168 706.042 639.723 711.766 641.284C717.594 642.845 721.444 695.296 721.444 700.396V704.559C721.444 712.468 629.655 718.088 620.601 715.486L191.835 688.428C186.215 686.867 182.365 590.394 182.365 585.503V493.298C182.365 488.406 186.111 392.038 191.835 390.477Z" fill="#5841A2"></path> <path d="M199.64 407.857L601.556 379.862C610.922 377.26 695.531 382.984 695.531 391.206V395.16C695.531 400.364 691.472 448.652 685.436 450.213C679.4 451.774 675.341 500.062 675.341 505.37V585.815C675.341 591.019 679.4 639.307 685.436 640.972C691.472 642.533 695.531 690.821 695.531 696.025V699.979C695.531 708.201 610.922 713.925 601.556 711.323L199.64 683.328C193.812 681.663 189.857 593.517 189.857 588.313V502.768C189.857 497.669 193.812 409.522 199.64 407.857Z" fill="#5B43A8"></path> <path d="M207.55 425.236L582.616 396.305C592.294 393.599 669.722 399.531 669.722 408.065V411.707C669.722 417.119 665.559 461.14 659.315 462.805C653.071 464.47 648.908 508.492 648.908 513.903V589.25C648.908 594.661 653.071 638.787 659.315 640.348C665.559 642.013 669.722 686.034 669.722 691.446V695.088C669.722 703.622 592.294 709.554 582.616 706.848L207.55 677.917C201.514 676.252 197.455 596.222 197.455 590.915V512.03C197.455 506.931 201.514 427.006 207.55 425.236Z" fill="#5F45AE"></path> <path d="M215.459 442.616L563.675 412.748C573.666 409.938 644.016 416.078 644.016 424.82V428.254C644.016 433.874 639.646 473.733 633.297 475.398C626.845 477.063 622.578 517.026 622.578 522.541V592.788C622.578 598.408 626.949 638.266 633.297 639.932C639.75 641.597 644.016 681.455 644.016 687.075V690.509C644.016 699.251 573.666 705.495 563.675 702.581L215.459 672.713C209.215 670.944 204.948 599.136 204.948 593.725V521.605C204.948 516.193 209.215 444.385 215.459 442.616Z" fill="#6248B4"></path> <path d="M223.368 459.996L544.734 429.087C555.037 426.173 618.207 432.521 618.207 441.575V444.802C618.207 450.525 613.732 486.221 607.072 487.99C600.412 489.759 595.937 525.455 595.937 531.179V596.327C595.937 602.05 600.412 637.746 607.072 639.515C613.732 641.285 618.207 676.98 618.207 682.704V685.93C618.207 694.984 555.037 701.333 544.734 698.419L223.368 667.51C216.916 665.637 212.545 602.154 212.545 596.431V530.971C212.545 525.455 216.916 461.869 223.368 459.996Z" fill="#654AB9"></path> <path d="M231.278 477.375L525.794 445.53C536.409 442.512 592.503 449.068 592.503 458.434V461.348C592.503 467.28 587.819 498.709 581.055 500.582C574.186 502.351 569.607 533.884 569.607 539.816V599.864C569.607 605.796 574.29 637.225 581.055 639.099C587.924 640.868 592.503 672.401 592.503 678.333V681.247C592.503 690.613 536.513 697.169 525.794 694.151L231.278 662.306C224.617 660.433 220.142 605.068 220.142 599.24V540.545C220.038 534.613 224.617 479.248 231.278 477.375Z" fill="#684CBF"></path> <path d="M239.083 494.858L506.749 462.077C517.781 458.955 566.589 465.719 566.589 475.397V478.103C566.589 484.243 561.802 511.51 554.829 513.279C547.753 515.152 543.07 542.418 543.07 548.558V603.507C543.07 609.647 547.857 636.913 554.829 638.786C561.906 640.66 566.589 667.926 566.589 673.962V676.668C566.589 686.242 517.781 693.111 506.749 689.989L239.083 657.207C232.214 655.229 227.635 608.086 227.635 602.05V550.015C227.635 543.875 232.214 496.732 239.083 494.858Z" fill="#6B4EC5"></path> <path d="M246.992 512.239L487.808 478.52C499.152 475.294 540.78 482.267 540.78 492.257V494.651C540.78 500.895 535.888 523.998 528.604 525.872C521.319 527.745 516.428 550.848 516.428 557.092V606.942C516.428 613.186 521.319 636.289 528.604 638.163C535.888 640.036 540.78 663.139 540.78 669.383V671.777C540.78 681.664 499.048 688.636 487.808 685.514L246.992 651.796C239.915 649.818 235.128 610.896 235.128 604.652V559.278C235.128 553.138 239.915 514.216 246.992 512.239Z" fill="#6E51CB"></path> <path d="M254.901 529.618L468.868 494.859C480.524 491.528 515.075 498.709 515.075 508.908V511.093C515.075 517.546 509.975 536.382 502.586 538.36C495.093 540.337 490.098 559.174 490.098 565.626V610.376C490.098 616.828 495.197 635.664 502.586 637.642C510.079 639.619 515.075 658.456 515.075 664.908V667.093C515.075 677.292 480.524 684.473 468.868 681.143L254.901 646.384C247.616 644.302 242.725 613.602 242.725 607.254V568.644C242.725 562.4 247.616 531.595 254.901 529.618Z" fill="#7253D1"></path> <path d="M262.811 546.998L450.031 511.302C461.999 507.972 489.37 515.257 489.37 525.768V527.745C489.37 534.405 484.166 548.975 476.569 551.057C468.868 553.034 463.769 567.708 463.769 574.368V614.019C463.769 620.679 468.972 635.353 476.569 637.33C484.27 639.307 489.37 653.981 489.37 660.642V662.619C489.37 673.13 461.999 680.415 450.031 677.085L262.811 641.389C255.318 639.307 250.322 616.724 250.322 610.168V578.219C250.322 571.662 255.318 549.079 262.811 546.998Z" fill="#7555D6"></path> <path d="M270.616 564.377L430.987 527.745C443.267 524.31 463.457 531.803 463.457 542.626V544.292C463.457 551.16 458.149 561.567 450.24 563.648C442.33 565.73 437.023 576.137 437.023 583.005V617.556C437.023 624.425 442.33 634.832 450.24 636.913C458.149 638.995 463.457 649.402 463.457 656.27V657.935C463.457 668.654 443.267 676.252 430.987 672.817L270.616 636.185C262.915 633.999 257.815 619.638 257.815 612.977V587.584C257.815 580.924 263.019 566.562 270.616 564.377Z" fill="#7858DC"></path> <path d="M410.693 591.539V621.095C410.693 628.068 416.209 634.312 424.222 636.393C432.339 638.475 437.751 644.719 437.751 651.691V653.148C437.751 664.18 424.638 671.985 412.046 668.447L278.525 630.877C270.616 628.692 265.308 622.552 265.308 615.579V597.055C265.308 590.186 270.616 584.046 278.525 581.757L412.046 544.188C424.638 540.649 437.751 548.455 437.751 559.486V560.943C437.751 567.916 432.235 574.16 424.222 576.241C416.105 578.322 410.693 584.567 410.693 591.539Z" fill="#7B5AE2"></path> <path opacity="0.027027" d="M353.559 110.738L438.584 110.218C438.792 110.01 562.322 110.01 562.634 110.218L768.379 111.467L1084.96 113.34L1182.89 113.965L1184.76 430.544L1185.39 538.36C1185.59 538.568 1185.59 662.202 1185.39 662.41L1184.87 747.435C1184.66 747.643 1044.89 747.643 1044.58 747.435L770.357 745.978L453.882 744.313L356.161 743.792L354.496 427.422L353.559 251.024C353.351 250.712 353.351 111.051 353.559 110.738Z" fill="#311F7E"></path> <path opacity="0.0540541" d="M363.445 116.15L446.597 115.109C447.117 114.589 567.63 114.589 568.15 115.109L769.42 117.503L1079.03 121.354L1174.87 122.498L1178.62 432.209L1179.87 537.631C1180.39 538.152 1180.39 658.664 1179.87 659.184L1178.83 742.336C1178.31 742.856 1042.08 742.856 1041.56 742.336L773.583 739.526L464.185 736.196L368.649 735.155L365.319 425.861L363.445 253.418C362.925 252.897 362.925 116.671 363.445 116.15Z" fill="#2F1E7B"></path> <path opacity="0.0810811" d="M373.228 121.561L454.506 120.104C455.234 119.376 572.833 119.376 573.561 120.104L770.356 123.747L1073.2 129.367L1166.96 131.136L1172.58 433.978L1174.46 537.111C1175.19 537.839 1175.19 655.437 1174.46 656.166L1173 737.444C1172.27 738.173 1039.38 738.173 1038.65 737.444L776.705 733.177L474.383 728.182L381.033 726.621L376.037 424.403L373.228 255.915C372.499 255.187 372.499 122.394 373.228 121.561Z" fill="#2E1D77"></path> <path opacity="0.1081" d="M383.01 126.973L462.519 124.996C463.56 123.955 578.036 123.955 579.077 124.996L771.397 129.887L1067.37 137.38L1158.95 139.67L1166.44 435.643L1168.94 536.382C1169.98 537.423 1169.98 651.899 1168.94 652.94L1166.96 732.449C1165.92 733.49 1036.57 733.49 1035.53 732.449L779.723 726.725L484.478 720.065L393.313 717.983L386.653 422.842L382.906 258.309C381.97 257.372 381.97 128.014 383.01 126.973Z" fill="#2D1D74"></path> <path opacity="0.1351" d="M392.897 132.489L470.533 129.991C471.782 128.742 583.344 128.742 584.593 129.991L772.438 136.131L1061.54 145.498L1151.04 148.412L1160.41 437.516L1163.63 535.966C1164.88 537.215 1164.88 648.777 1163.63 650.026L1161.14 727.662C1159.89 728.911 1033.96 728.911 1032.61 727.662L782.949 720.481L494.781 712.156L405.802 709.554L397.476 421.49L392.897 260.911C391.544 259.662 391.544 133.738 392.897 132.489Z" fill="#2B1C70"></path> <path opacity="0.1622" d="M402.68 137.901L478.442 134.883C480.003 133.322 588.444 133.322 590.005 134.883L773.375 142.168L1055.61 153.407L1142.93 156.841L1154.16 439.077L1158.02 535.133C1159.58 536.695 1159.58 645.239 1158.02 646.8L1155 722.562C1153.44 724.124 1030.95 724.124 1029.39 722.562L785.863 713.925L504.772 704.038L417.978 700.916L408.091 419.929L402.576 263.304C401.119 261.847 401.119 139.358 402.68 137.901Z" fill="#2A1B6D"></path> <path opacity="0.1892" d="M412.462 143.313L486.455 139.774C488.225 138.005 593.751 138.005 595.52 139.774L774.415 148.308L1049.78 161.421L1135.02 165.479L1148.13 440.847L1152.6 534.613C1154.37 536.383 1154.37 641.909 1152.6 643.782L1149.07 717.671C1147.3 719.441 1028.24 719.441 1026.47 717.671L789.089 707.577L515.075 696.025L430.466 692.487L418.914 418.576L412.462 265.906C410.693 264.033 410.693 145.082 412.462 143.313Z" fill="#291A69"></path> <path opacity="0.2162" d="M422.349 148.724L494.469 144.665C496.55 142.584 599.058 142.584 601.036 144.665L775.56 154.448L1044.06 169.434L1127.11 174.117L1142.09 442.616L1147.19 533.989C1149.27 536.07 1149.27 638.578 1147.19 640.66L1143.13 712.78C1141.05 714.861 1025.53 714.861 1023.45 712.78L792.211 701.332L525.377 688.011L442.954 683.953L429.738 417.119L422.349 268.404C420.267 266.322 420.267 150.805 422.349 148.724Z" fill="#271966"></path> <path opacity="0.2432" d="M432.131 154.136L502.378 149.661C504.667 147.371 604.158 147.371 606.551 149.661L776.601 160.588L1038.23 177.447L1119.2 182.651L1136.06 444.281L1141.78 533.365C1144.07 535.654 1144.07 635.249 1141.78 637.538L1137.31 707.785C1135.02 710.075 1022.83 710.075 1020.54 707.785L795.437 694.88L535.68 679.999L455.443 675.419L440.561 415.766L432.235 271.006C429.842 268.508 429.842 156.425 432.131 154.136Z" fill="#261862"></path> <path opacity="0.2703" d="M441.914 159.547L510.287 154.551C512.889 151.95 609.361 151.95 611.963 154.551L777.538 166.728L1032.3 185.46L1111.18 191.288L1129.92 446.05L1136.26 532.74C1138.87 535.341 1138.87 631.814 1136.26 634.415L1131.27 702.789C1128.67 705.391 1020.02 705.391 1017.42 702.789L798.456 688.531L545.775 671.88L467.723 666.781L451.176 414.205L441.914 273.295C439.416 270.797 439.416 162.148 441.914 159.547Z" fill="#24175F"></path> <path opacity="0.2973" d="M451.8 164.959L518.405 159.443C521.215 156.633 614.773 156.633 617.583 159.443L778.682 172.868L1026.58 193.474L1103.27 199.822L1123.88 447.715L1130.85 532.116C1133.66 534.926 1133.66 628.484 1130.85 631.294L1125.34 697.898C1122.53 700.708 1017.31 700.708 1014.5 697.898L801.682 682.08L556.078 663.868L480.211 658.248L461.895 412.748L451.696 275.897C448.99 272.983 448.99 167.769 451.8 164.959Z" fill="#23165B"></path> <path opacity="0.3243" d="M461.582 170.371L526.314 164.335C529.436 161.213 619.872 161.213 622.994 164.335L779.618 178.904L1020.64 201.383L1095.26 208.356L1117.74 449.381L1125.34 531.387C1128.46 534.51 1128.46 625.05 1125.34 628.068L1119.3 692.799C1116.18 695.921 1014.4 695.921 1011.38 692.799L804.699 675.628L566.172 655.75L492.491 649.61L472.614 411.187L461.478 278.291C458.564 275.273 458.564 173.493 461.582 170.371Z" fill="#221658"></path> <path opacity="0.3514" d="M471.365 175.782L534.223 169.226C537.553 165.895 625.076 165.895 628.406 169.226L780.555 185.044L1014.71 209.396L1087.14 216.994L1111.5 451.15L1119.82 530.867C1123.15 534.197 1123.15 621.719 1119.82 625.05L1113.27 687.907C1109.94 691.238 1011.59 691.238 1008.26 687.907L807.718 669.279L576.267 647.737L504.772 641.076L483.229 409.73L471.261 280.684C468.035 277.458 468.035 179.112 471.365 175.782Z" fill="#201554"></path> <path opacity="0.3784" d="M481.252 181.194L542.237 174.117C545.879 170.475 630.383 170.475 633.922 174.117L781.596 191.184L1008.88 217.41L1079.23 225.527L1105.46 452.815L1114.41 530.138C1118.05 533.781 1118.05 618.285 1114.41 621.824L1107.33 682.808C1103.69 686.451 1008.88 686.451 1005.24 682.808L810.84 662.723L586.466 639.515L517.156 632.335L494.156 408.377L481.252 283.286C477.609 279.643 477.609 184.836 481.252 181.194Z" fill="#1F1451"></path> <path opacity="0.4054" d="M491.034 186.71L550.25 179.217C554.1 175.366 635.587 175.366 639.437 179.217L782.637 197.533L1003.06 225.631L1071.33 234.373L1099.42 454.792L1109 529.826C1112.85 533.677 1112.85 615.267 1109 619.118L1101.51 678.333C1097.65 682.184 1006.18 682.184 1002.33 678.333L814.066 656.791L596.769 631.918L529.644 624.217L504.772 407.024L491.034 285.784C487.184 281.933 487.184 190.56 491.034 186.71Z" fill="#1E134D"></path> <path opacity="0.4324" d="M500.921 192.121L558.263 184.108C562.322 180.049 640.894 180.049 644.953 184.108L783.781 203.568L997.332 233.54L1063.42 242.803L1093.39 456.353L1103.59 528.993C1107.65 533.052 1107.65 611.624 1103.59 615.787L1095.57 673.13C1091.51 677.188 1003.47 677.188 999.413 673.13L817.292 650.13L607.176 623.592L542.236 615.371L515.803 405.255L501.025 288.073C496.758 284.118 496.758 196.18 500.921 192.121Z" fill="#1C124A"></path> <path opacity="0.4595" d="M510.703 197.533L566.172 188.999C570.543 184.628 646.098 184.628 650.469 188.999L784.822 209.709L991.504 241.554L1055.51 251.441L1087.35 458.122L1098.18 528.473C1102.55 532.844 1102.55 608.399 1098.18 612.769L1089.64 668.238C1085.27 672.609 1000.77 672.609 996.395 668.238L820.31 643.782L617.27 615.683L554.517 606.942L526.418 403.902L510.703 290.675C506.333 286.408 506.333 201.904 510.703 197.533Z" fill="#1B1146"></path> <path opacity="0.4865" d="M520.486 202.944L574.186 193.89C578.765 189.311 651.301 189.311 655.984 193.89L785.863 215.848L985.676 249.567L1047.49 259.974L1081.21 459.787L1092.66 527.848C1097.24 532.427 1097.24 604.964 1092.66 609.647L1083.61 663.243C1079.03 667.822 997.852 667.822 993.273 663.243L823.432 637.434L627.469 607.67L566.901 598.408L537.137 402.445L520.486 293.172C515.907 288.593 515.907 207.523 520.486 202.944Z" fill="#1A1043"></path> <path opacity="0.5135" d="M530.372 208.356L582.199 198.781C587.09 193.89 656.609 193.89 661.5 198.781L786.903 221.885L979.848 257.476L1039.58 268.508L1075.18 461.452L1087.25 527.12C1092.14 532.011 1092.14 601.53 1087.25 606.421L1077.67 658.248C1072.78 663.139 995.146 663.139 990.255 658.248L826.554 630.981L637.668 599.552L579.285 589.874L547.856 401.092L530.268 295.774C525.481 290.883 525.481 213.247 530.372 208.356Z" fill="#18103F"></path> <path opacity="0.5405" d="M540.155 213.767L590.108 203.673C595.208 198.573 661.812 198.573 666.912 203.673L787.84 228.025L973.916 265.49L1031.47 277.146L1068.93 463.222L1081.63 526.6C1086.73 531.699 1086.73 598.304 1081.63 603.403L1071.53 653.357C1066.43 658.456 992.233 658.456 987.133 653.357L829.572 624.633L647.763 591.539L591.565 581.34L558.471 399.635L539.947 298.272C535.056 293.068 535.056 218.867 540.155 213.767Z" fill="#170F3C"></path> <path opacity="0.5676" d="M549.938 219.179L598.018 208.668C603.43 203.256 666.912 203.256 672.324 208.668L788.777 234.269L967.985 273.607L1023.45 285.783L1062.79 464.991L1076.22 525.975C1081.63 531.387 1081.63 594.869 1076.22 600.281L1065.71 648.361C1060.29 653.772 989.631 653.772 984.219 648.361L832.903 618.181L658.17 583.421L604.158 572.702L569.399 398.074L550.042 300.665C544.63 295.357 544.63 224.59 549.938 219.179Z" fill="#160E38"></path> <path opacity="0.5946" d="M559.824 224.591L606.135 213.56C611.754 207.94 672.323 207.94 677.943 213.56L789.921 240.409L962.26 281.621L1015.65 294.421L1056.86 466.76L1070.91 525.455C1076.53 531.075 1076.53 591.644 1070.91 597.263L1059.88 643.574C1054.26 649.194 986.925 649.194 981.305 643.574L836.128 612.041L668.472 575.617L616.646 564.377L580.222 396.826L559.928 303.371C554.1 297.544 554.1 230.315 559.824 224.591Z" fill="#140D35"></path> <path opacity="0.6216" d="M569.607 230.002L614.044 218.45C619.976 212.518 677.422 212.518 683.354 218.45L790.858 246.445L956.328 289.53L1007.53 302.851L1050.62 468.321L1065.29 524.623C1071.22 530.554 1071.22 588.105 1065.29 593.933L1053.74 638.37C1047.81 644.302 984.011 644.302 978.079 638.37L839.042 605.38L678.463 567.291L628.822 555.531L590.733 395.056L569.503 305.557C563.675 299.729 563.675 235.934 569.607 230.002Z" fill="#130C31"></path> <path opacity="0.6486" d="M579.389 235.518L621.953 223.446C628.093 217.306 682.626 217.306 688.766 223.446L791.899 252.689L950.5 297.647L999.621 311.593L1044.58 470.194L1059.88 524.206C1066.02 530.346 1066.02 584.879 1059.88 591.019L1047.81 633.583C1041.67 639.723 981.305 639.723 975.061 633.583L842.164 599.136L688.766 559.382L641.414 547.102L601.66 393.703L579.493 308.158C573.249 302.018 573.249 241.658 579.389 235.518Z" fill="#120B2E"></path> <path opacity="0.6757" d="M589.276 240.929L629.967 228.337C636.419 221.884 687.933 221.884 694.282 228.337L792.939 258.829L944.673 305.66L991.608 320.126L1038.44 471.859L1054.36 523.478C1060.81 529.93 1060.81 581.444 1054.36 587.897L1041.77 628.588C1035.32 635.04 978.391 635.04 972.043 628.588L845.286 592.788L698.965 551.368L653.799 538.568L612.379 392.246L589.276 310.656C582.823 304.203 582.823 247.277 589.276 240.929Z" fill="#100A2A"></path> <path opacity="0.7027" d="M599.059 246.341L637.981 233.228C644.641 226.568 693.137 226.568 699.902 233.228L794.085 264.865L938.949 313.57L983.803 328.66L1032.51 473.524L1049.05 522.853C1055.71 529.514 1055.71 578.114 1049.05 584.775L1035.94 623.697C1029.28 630.357 975.79 630.357 969.129 623.697L848.513 586.44L709.268 543.355L666.287 530.034L623.203 390.789L599.163 313.154C592.398 306.493 592.398 253.001 599.059 246.341Z" fill="#0F0A27"></path> <path opacity="0.7297" d="M608.841 251.753L645.89 238.224C652.862 231.251 698.341 231.251 705.313 238.224L795.021 271.11L933.017 321.687L975.79 337.402L1026.37 475.398L1043.54 522.333C1050.51 529.306 1050.51 574.784 1043.54 581.757L1030.01 618.805C1023.04 625.778 973.084 625.778 966.111 618.805L851.635 580.092L719.467 535.342L678.672 521.501L634.026 389.332L609.049 315.651C601.972 308.679 601.972 258.621 608.841 251.753Z" fill="#0E0923"></path> <path opacity="0.7568" d="M618.727 257.164L653.903 243.115C661.084 235.934 703.648 235.934 710.829 243.115L796.062 277.25L927.189 329.701L967.776 345.936L1020.23 477.063L1038.02 521.709C1045.2 528.89 1045.2 571.454 1038.02 578.635L1023.97 613.81C1016.79 620.991 970.17 620.991 962.989 613.81L854.653 573.639L729.561 527.224L690.951 512.863L644.641 387.876L618.727 318.149C611.547 310.968 611.547 264.345 618.727 257.164Z" fill="#0C0820"></path> <path opacity="0.7838" d="M628.51 262.576L661.916 248.006C669.409 240.513 708.852 240.513 716.345 248.006L797.103 283.286L921.361 337.61L959.867 354.469L1014.19 478.728L1032.72 520.98C1040.21 528.473 1040.21 567.916 1032.72 575.409L1018.15 608.815C1010.65 616.308 967.568 616.308 960.075 608.815L857.879 567.187L739.76 519.211L703.336 504.329L655.36 386.419L628.614 320.647C621.121 313.154 621.121 270.069 628.51 262.576Z" fill="#0B071C"></path> <path opacity="0.8108" d="M638.397 267.987L669.93 252.897C677.631 245.196 714.159 245.196 721.86 252.897L798.143 289.426L915.534 345.623L951.854 363.003L1008.05 480.393L1027.2 520.356C1034.9 528.057 1034.9 564.585 1027.2 572.286L1012.11 603.819C1004.41 611.52 964.758 611.52 957.057 603.819L861.001 560.735L750.063 511.094L715.824 495.691L666.183 384.857L638.501 323.04C630.696 315.339 630.696 275.689 638.397 267.987Z" fill="#090619"></path> <path opacity="0.8378" d="M648.179 273.399L677.839 257.788C685.748 249.879 719.363 249.879 727.272 257.788L799.08 295.566L909.602 353.636L943.841 371.64L1001.91 482.162L1021.68 519.731C1029.59 527.64 1029.59 561.255 1021.68 569.164L1006.07 598.824C998.165 606.733 961.845 606.733 953.935 598.824L864.019 554.386L760.158 503.08L728.105 487.261L676.799 383.504L648.179 325.538C640.166 317.628 640.166 281.412 648.179 273.399Z" fill="#080515"></path> <path opacity="0.8649" d="M657.962 278.811L685.748 262.68C693.97 254.458 724.462 254.458 732.684 262.68L800.016 301.706L903.67 361.65L935.827 380.278L995.771 483.931L1016.17 519.211C1024.39 527.432 1024.39 557.925 1016.17 566.146L1000.04 593.933C991.816 602.154 959.034 602.154 950.813 593.933L867.141 548.038L770.461 495.067L740.593 478.728L687.622 382.047L658.066 328.139C649.74 319.814 649.74 287.032 657.962 278.811Z" fill="#070412"></path> <path opacity="0.8919" d="M667.848 284.222L693.865 267.675C702.295 259.246 729.873 259.246 738.303 267.675L801.265 307.846L898.049 369.663L928.021 388.812L989.839 485.597L1010.86 518.482C1019.29 526.912 1019.29 554.49 1010.86 562.92L994.314 588.937C985.884 597.367 956.536 597.367 948.003 588.937L870.367 541.586L780.763 486.949L753.081 470.09L698.34 380.486L667.848 330.533C659.314 322.104 659.314 292.756 667.848 284.222Z" fill="#05030E"></path> <path opacity="0.9189" d="M677.631 289.738L701.775 272.671C710.517 263.929 735.077 263.929 743.715 272.671L802.202 314.09L892.118 377.781L920.008 397.554L983.699 487.47L1005.35 518.066C1014.09 526.808 1014.09 551.368 1005.35 560.11L988.278 584.254C979.536 592.996 953.623 592.996 944.985 584.254L873.489 535.446L790.962 479.144L765.465 461.765L709.164 379.238L677.735 333.239C668.889 324.289 668.889 298.376 677.631 289.738Z" fill="#04030B"></path> <path opacity="0.9459" d="M687.413 295.149L709.684 277.562C718.634 268.612 740.176 268.612 749.23 277.562L803.242 320.23L886.29 385.794L911.995 406.087L977.559 489.135L999.829 517.442C1008.78 526.391 1008.78 547.934 999.829 556.988L982.242 579.155C973.292 588.105 950.813 588.105 941.863 579.155L876.507 528.889L801.057 470.923L777.745 453.023L719.779 377.572L687.413 335.528C678.463 326.578 678.463 304.099 687.413 295.149Z" fill="#030207"></path> <path opacity="0.973" d="M697.3 300.561L717.801 282.453C727.064 273.191 745.588 273.191 754.85 282.453L804.387 326.266L880.566 393.703L904.19 414.621L971.626 490.8L994.522 516.713C1003.78 525.975 1003.78 544.5 994.522 553.762L976.414 574.264C967.152 583.526 948.211 583.526 938.949 574.264L879.733 522.645L811.36 463.013L790.234 444.593L730.602 376.22L697.3 338.13C688.037 328.764 688.037 309.823 697.3 300.561Z" fill="#010104"></path> <path d="M989.006 550.64L970.378 569.268C960.907 578.739 945.297 578.739 935.827 569.268L821.455 454.896L707.082 340.524C697.612 331.054 697.612 315.443 707.082 305.973L725.711 287.344C735.181 277.874 750.791 277.874 760.262 287.344L874.634 401.717L989.006 516.089C998.477 525.559 998.477 541.17 989.006 550.64Z" fill="black"></path> <g opacity="0.45"> <path opacity="0.0384615" d="M-11.3079 -96.0475C-11.3079 -129.766 16.1664 -157.24 49.8849 -157.24L256.983 -157.657H257.607H258.232C258.44 -157.865 585.634 -157.969 585.946 -157.969C586.154 -157.969 825.722 -157.865 825.93 -157.761C859.753 -157.761 887.123 -130.286 887.123 -96.5678L887.748 35.7044C887.956 35.9125 888.164 185.668 888.164 186.085C888.164 186.501 888.06 336.257 887.748 336.465L887.123 468.841C887.019 502.664 859.649 530.034 825.826 530.034C825.618 530.138 619.769 530.242 619.561 530.242C619.249 530.242 316.823 530.138 316.615 529.826L49.6768 529.201C15.9583 529.097 -11.516 501.727 -11.516 467.905C-11.6201 467.592 -11.6201 234.477 -11.6201 234.165C-11.6201 233.852 -11.516 -95.8393 -11.3079 -96.0475Z" fill="#0000F5"></path> <path opacity="0.0769231" d="M-0.484892 -86.6811C-0.484892 -119.047 26.1569 -145.688 58.5224 -145.688L257.711 -146.521H258.336H258.96C259.48 -146.937 573.874 -147.25 574.498 -147.25C575.019 -147.25 805.22 -147.145 805.532 -146.833C838.002 -146.729 864.436 -120.4 864.54 -87.93L865.789 39.7632C866.309 40.2835 866.517 184.316 866.517 185.044C866.517 185.773 866.205 329.909 865.789 330.325L864.54 458.018C864.436 490.488 838.002 516.921 805.428 517.025C805.012 517.233 607.176 517.337 606.76 517.337C606.031 517.337 315.47 517.025 314.949 516.609L58.1062 515.36C25.6365 515.256 -0.69303 488.823 -0.7971 456.353C-1.00524 455.937 -1.21338 231.875 -1.21338 231.355C-1.21338 230.73 -1.00524 -86.1608 -0.484892 -86.6811Z" fill="#0000EB"></path> <path opacity="0.1154" d="M10.3386 -77.2109C10.3386 -108.224 36.0437 -133.929 67.0564 -133.929L258.44 -135.282H259.064H259.689C260.417 -136.01 562.01 -136.322 563.051 -136.322C563.78 -136.322 784.615 -136.114 785.239 -135.698C816.46 -135.594 841.853 -110.201 842.061 -78.98L843.934 44.03C844.663 44.7585 845.079 183.171 845.079 184.211C845.079 185.252 844.663 323.768 843.934 324.393L842.061 447.403C841.853 478.624 816.46 504.017 785.135 504.121C784.511 504.433 594.688 504.641 593.96 504.641C592.919 504.641 314.117 504.225 313.389 503.496L66.5361 501.623C35.3153 501.415 10.0264 476.022 9.81826 444.801C9.40198 444.281 9.19385 229.273 9.19385 228.545C9.19385 227.504 9.61012 -76.4824 10.3386 -77.2109Z" fill="#0000E2"></path> <path opacity="0.1538" d="M21.1616 -67.7405C21.1616 -97.4003 46.0341 -122.273 75.6939 -122.273L259.272 -124.042H259.793H260.313C261.25 -124.979 550.146 -125.499 551.499 -125.499C552.436 -125.499 764.009 -125.187 764.841 -124.666C794.813 -124.458 819.166 -100.21 819.478 -70.2382L821.976 48.1928C822.912 49.1294 823.433 181.922 823.433 183.275C823.433 184.628 822.912 317.42 821.976 318.461L819.478 436.892C819.166 466.864 794.813 491.112 764.737 491.424C764.009 491.841 582.096 492.153 581.159 492.153C579.806 492.153 312.66 491.632 311.723 490.696L74.8614 488.198C44.8894 487.886 20.6412 463.534 20.4331 433.562C19.9127 432.729 19.7046 226.88 19.7046 225.839C19.7046 224.382 20.2249 -66.8039 21.1616 -67.7405Z" fill="#0000D8"></path> <path opacity="0.1923" d="M31.9851 -58.2702C31.9851 -86.5771 55.921 -110.513 84.2279 -110.513L260.001 -112.803H260.521H261.042C262.187 -113.947 538.387 -114.572 540.052 -114.572C541.301 -114.572 743.403 -114.26 744.444 -113.635C773.167 -113.427 796.479 -90.1155 796.791 -61.4964L799.913 52.2514C801.162 53.5003 801.786 180.569 801.786 182.338C801.786 184.003 801.162 311.176 799.913 312.425L796.791 426.173C796.375 454.896 773.063 478.103 744.236 478.416C743.299 479.04 569.399 479.352 568.255 479.352C566.589 479.352 311.203 478.728 310.058 477.479L83.1872 474.357C54.5681 474.045 31.2566 450.629 31.0484 421.906C30.424 420.865 30.1118 224.07 30.1118 222.925C30.1118 221.156 30.7362 -57.1255 31.9851 -58.2702Z" fill="#0000CE"></path> <path opacity="0.2308" d="M42.8081 -48.9035C42.8081 -75.8575 65.9115 -98.9609 92.8655 -98.9609L260.729 -101.563H261.25H261.77C263.227 -102.915 526.523 -103.748 528.5 -103.748C529.957 -103.748 722.798 -103.332 724.046 -102.603C751.521 -102.291 773.791 -80.1243 774.208 -52.7541L777.954 56.3107C779.411 57.7676 780.244 179.217 780.244 181.298C780.244 183.379 779.411 304.828 777.954 306.285L774.208 415.35C773.791 442.72 751.417 464.991 723.838 465.303C722.693 466.032 556.807 466.344 555.454 466.344C553.373 466.344 309.85 465.511 308.393 464.054L91.6166 460.62C64.2464 460.204 41.9755 437.933 41.6633 410.459C40.9348 409.21 40.5186 221.573 40.5186 220.116C40.5186 218.034 41.3511 -47.4465 42.8081 -48.9035Z" fill="#0000C4"></path> <path opacity="0.2692" d="M53.6316 -39.4338C53.6316 -65.0348 75.7984 -87.2016 101.399 -87.2016L261.458 -90.2196H261.978H262.499C264.164 -91.7807 514.763 -92.7173 517.053 -92.7173C518.718 -92.7173 702.296 -92.1969 703.649 -91.3644C729.77 -91.0522 751.105 -69.822 751.625 -43.7006L755.996 60.7851C757.661 62.4502 758.598 178.279 758.598 180.673C758.598 183.067 757.661 298.896 755.996 300.561L751.625 405.047C751.105 431.168 729.77 452.398 703.441 452.814C702.088 453.647 544.215 454.063 542.654 454.063C540.26 454.063 308.498 453.127 306.728 451.462L99.9425 447.091C73.821 446.57 52.695 425.34 52.2787 399.115C51.4461 397.762 50.9258 219.075 50.9258 217.409C51.0299 214.912 51.9665 -37.7687 53.6316 -39.4338Z" fill="#0000BA"></path> <path opacity="0.3077" d="M64.4546 -29.9629C64.4546 -54.2111 85.7888 -75.5453 110.037 -75.5453L262.29 -79.0837H262.707H263.123C264.996 -80.9569 502.899 -81.8936 505.501 -81.8936C507.478 -81.8936 681.586 -81.3732 683.251 -80.3325C708.124 -79.9162 728.417 -59.8308 728.938 -34.9583L733.933 64.8443C735.91 66.8216 736.951 176.927 736.951 179.633C736.951 182.339 735.91 292.548 733.933 294.525L728.938 394.328C728.313 419.201 708.02 439.39 682.939 439.806C681.378 440.743 531.518 441.263 529.645 441.263C526.939 441.263 306.832 440.223 304.959 438.245L108.268 433.25C83.3952 432.73 63.3098 412.436 62.8936 387.459C61.8529 385.898 61.3325 216.265 61.3325 214.392C61.4366 211.686 62.4773 -27.9856 64.4546 -29.9629Z" fill="#0000B1"></path> <path opacity="0.3462" d="M75.2776 -20.4927C75.2776 -43.3879 95.6752 -63.7855 118.57 -63.7855L263.019 -67.7402H263.435H263.851C266.037 -69.8215 491.035 -70.9663 494.053 -70.9663C496.238 -70.9663 661.084 -70.3419 662.853 -69.1971C686.477 -68.7808 705.73 -49.6321 706.354 -26.1124L711.974 69.1111C714.16 71.2965 715.304 175.782 715.304 178.904C715.304 181.922 714.16 286.512 711.974 288.697L706.354 383.921C705.626 407.545 686.373 426.693 662.645 427.214C660.876 428.255 519.029 428.775 516.948 428.775C513.93 428.775 305.583 427.63 303.398 425.445L116.697 419.825C93.1776 419.2 74.0288 399.948 73.5084 376.22C72.3637 374.451 71.7393 213.976 71.7393 211.79C71.9474 208.564 73.0922 -18.3072 75.2776 -20.4927Z" fill="#0000A7"></path> <path opacity="0.3846" d="M86.1008 -11.0224C86.1008 -32.5647 105.562 -52.1298 127.208 -52.1298L263.851 -56.5007H264.268H264.684C267.078 -58.7902 479.379 -60.0391 482.709 -60.0391C485.103 -60.0391 640.583 -59.3106 642.664 -58.0617C665.039 -57.5414 683.251 -39.4333 683.979 -17.2665L690.224 73.2738C692.617 75.6674 693.97 174.533 693.97 177.968C693.97 181.402 692.617 280.268 690.224 282.661L683.979 373.202C683.251 395.577 664.831 413.685 642.456 414.205C640.478 415.35 506.645 415.974 504.356 415.974C500.921 415.974 304.438 414.621 302.045 412.228L125.335 405.984C103.064 405.255 84.9561 387.043 84.4357 364.668C83.1869 362.691 82.5625 211.27 82.5625 208.876C82.3543 205.338 83.7072 -8.62878 86.1008 -11.0224Z" fill="#00009D"></path> <path opacity="0.4231" d="M96.924 -1.65611C96.924 -21.8456 115.552 -40.474 135.742 -40.474L264.476 -45.2612H264.892H265.308C267.91 -47.7588 467.515 -49.2158 471.157 -49.2158C473.863 -49.2158 619.977 -48.4873 622.162 -47.0304C643.288 -46.51 660.46 -29.4426 661.188 -8.42062L668.057 77.4366C670.762 80.0383 672.219 173.284 672.219 177.031C672.219 180.777 670.762 274.024 668.057 276.625L661.188 362.483C660.356 383.505 642.976 400.676 621.85 401.301C619.664 402.549 493.845 403.278 491.347 403.278C487.6 403.278 302.877 401.821 300.171 399.115L133.556 392.246C112.534 391.518 95.467 374.242 94.9466 353.116C93.5937 350.931 92.8652 208.564 92.8652 205.962C92.7612 202.216 94.3222 1.04969 96.924 -1.65611Z" fill="#000093"></path> <path opacity="0.4615" d="M107.747 7.81415C107.747 -11.0224 125.439 -28.8183 144.379 -28.8183L265.308 -34.0217H265.724H266.141C269.055 -36.8316 455.859 -38.2886 459.814 -38.2886C462.728 -38.2886 599.579 -37.456 601.972 -35.895C621.85 -35.2706 637.98 -19.2439 638.813 0.425238L646.306 81.7034C649.22 84.6174 650.781 172.14 650.781 176.198C650.781 180.257 649.22 267.884 646.306 270.693L638.813 351.972C637.876 371.745 621.538 387.876 601.66 388.5C599.371 389.853 481.46 390.685 478.754 390.685C474.696 390.685 301.628 389.124 298.818 386.21L142.194 378.717C122.525 377.885 106.394 361.65 105.874 341.773C104.417 339.379 103.584 206.17 103.584 203.256C103.272 198.99 104.833 10.7281 107.747 7.81415Z" fill="#000089"></path> <path opacity="0.5" d="M118.57 17.284C118.57 -0.199643 135.43 -17.0589 152.913 -17.0589L266.037 -22.7827H266.349H266.661C269.783 -25.8007 443.787 -27.4658 448.158 -27.4658C451.28 -27.4658 578.765 -26.6333 581.367 -24.9682C599.891 -24.3437 615.085 -9.35774 616.022 9.06254L624.14 85.6576C627.262 88.7797 629.031 170.682 629.031 175.053C629.031 179.528 627.262 261.327 624.14 264.553L616.022 341.148C614.981 359.672 599.683 374.762 581.055 375.387C578.557 376.844 468.66 377.676 465.642 377.676C461.167 377.676 299.963 375.907 296.841 372.785L150.312 364.876C131.891 363.939 116.905 348.745 116.177 330.117C114.512 327.515 113.679 203.36 113.679 200.238C113.679 195.867 115.448 20.4061 118.57 17.284Z" fill="#000080"></path> <path opacity="0.5385" d="M129.394 26.7543C129.394 10.6235 145.317 -5.40315 161.551 -5.40315L266.87 -11.5432H267.182H267.494C270.824 -14.7694 432.132 -16.5386 436.815 -16.5386C440.249 -16.5386 558.368 -15.6019 561.178 -13.8328C578.453 -13.1043 592.607 0.84101 593.543 18.0125L602.285 89.9244C605.615 93.2546 607.489 169.537 607.489 174.325C607.489 179.112 605.615 255.291 602.285 258.725L593.543 330.741C592.503 348.017 578.141 362.066 560.761 362.794C558.056 364.459 456.172 365.292 452.946 365.292C448.158 365.292 298.715 363.419 295.28 360.089L158.741 351.347C141.57 350.41 127.625 336.153 126.896 318.877C125.127 316.067 124.19 201.071 124.19 197.636C124.19 192.745 126.064 30.0845 129.394 26.7543Z" fill="#000076"></path> <path opacity="0.5769" d="M140.217 36.225C140.217 21.4471 155.307 6.35707 170.085 6.35707L267.598 -0.199307H267.91H268.222C271.761 -3.6336 420.372 -5.50684 425.263 -5.50684C428.905 -5.50684 537.762 -4.46615 540.78 -2.59291C556.807 -1.86442 569.919 11.0402 570.96 26.9628L580.326 94.2957C583.969 97.9381 585.946 168.497 585.946 173.597C585.946 178.696 583.969 249.255 580.326 252.897L570.96 320.23C569.815 336.257 556.494 349.266 540.364 349.994C537.45 351.763 443.579 352.7 440.145 352.7C435.045 352.7 297.362 350.723 293.719 347.08L167.171 337.714C151.248 336.673 138.344 323.456 137.615 307.43C135.742 304.412 134.701 198.469 134.701 194.827C134.597 189.519 136.574 39.7633 140.217 36.225Z" fill="#00006C"></path> <path opacity="0.6154" d="M151.04 45.5908C151.04 32.0618 165.194 17.9084 178.723 17.9084L268.327 10.9357H268.639H268.951C272.802 7.2933 408.508 5.21191 413.816 5.21191C417.666 5.21191 517.157 6.25261 520.383 8.334C535.161 9.16655 547.233 21.0305 548.377 35.6002L558.368 98.2499C562.219 102.1 564.404 167.04 564.404 172.451C564.404 177.863 562.323 242.802 558.368 246.653L548.377 309.303C547.129 323.976 534.848 335.944 519.966 336.881C516.844 338.754 430.987 339.691 427.345 339.691C421.933 339.691 295.905 337.61 292.054 333.655L175.497 323.664C160.927 322.519 148.959 310.343 148.127 295.565C146.149 292.339 145.109 195.451 145.109 191.6C145.004 186.397 147.19 49.4414 151.04 45.5908Z" fill="#000062"></path> <path opacity="0.6538" d="M161.863 55.0615C161.863 42.8854 175.184 29.6686 187.256 29.6686L269.055 22.2797H269.263H269.471C273.53 18.325 396.54 16.2437 402.16 16.2437C406.322 16.2437 496.446 17.3884 499.881 19.5739C513.41 20.4064 524.441 31.3337 525.69 44.5505L536.305 102.621C540.364 106.68 542.653 165.999 542.653 171.723C542.653 177.551 540.364 236.767 536.305 240.825L525.69 298.896C524.337 312.321 513.097 323.248 499.464 324.185C496.134 326.162 418.29 327.203 414.336 327.203C408.508 327.203 294.344 324.913 290.285 320.855L183.822 310.24C170.501 309.095 159.574 297.855 158.741 284.326C156.66 280.892 155.515 193.162 155.515 188.999C155.515 183.171 157.805 59.1202 161.863 55.0615Z" fill="#000058"></path> <path opacity="0.6923" d="M172.687 64.5314C172.687 53.7082 185.071 41.324 195.894 41.324L269.888 33.4147H270.096H270.304C274.571 29.2519 384.884 26.9624 390.816 26.9624C395.187 26.9624 475.945 28.2112 479.587 30.5008C491.764 31.4374 501.858 41.2199 503.107 53.292L514.347 106.68C518.718 111.05 521.111 164.646 521.111 170.786C521.111 176.926 518.718 230.522 514.347 234.893L503.107 288.281C501.754 300.457 491.451 310.343 479.067 311.384C475.529 313.465 405.698 314.61 401.535 314.61C395.395 314.61 292.991 312.217 288.62 307.846L192.148 296.606C180.076 295.357 170.293 285.263 169.357 272.982C167.067 269.34 165.922 190.664 165.922 186.293C165.922 180.048 168.316 68.9024 172.687 64.5314Z" fill="#00004E"></path> <path opacity="0.7308" d="M183.509 74.0022C183.509 64.5318 194.957 53.0842 204.427 53.0842L270.615 44.7587H270.824H271.032C275.611 40.3877 373.02 37.9941 379.368 37.9941C384.051 37.9941 455.443 39.243 459.293 41.7406C470.22 42.6773 479.275 51.5232 480.627 62.2423L492.491 110.947C497.07 115.526 499.568 163.502 499.568 169.954C499.568 176.406 497.07 224.382 492.491 228.961L480.627 277.666C479.17 288.593 469.908 297.439 458.773 298.48C455.026 300.665 393.209 301.81 388.838 301.81C382.386 301.81 291.742 299.312 287.162 294.733L200.681 282.869C189.858 281.517 181.116 272.462 180.075 261.431C177.681 257.581 176.433 188.062 176.433 183.379C176.433 176.823 178.93 78.5812 183.509 74.0022Z" fill="#000045"></path> <path opacity="0.7692" d="M194.333 83.3685C194.333 75.2511 204.948 64.636 213.065 64.636L271.344 55.8942H271.552H271.76C276.548 51.3151 361.26 48.7134 367.921 48.7134C372.812 48.7134 434.941 50.0663 438.896 52.668C448.574 53.7087 456.588 61.4098 458.045 70.8802L470.533 115.006C475.32 119.793 478.026 162.149 478.026 168.914C478.026 175.678 475.424 218.034 470.533 222.821L458.045 266.947C456.484 276.521 448.262 284.431 438.376 285.471C434.525 287.761 380.617 289.01 376.038 289.01C369.273 289.01 290.285 286.408 285.498 281.517L209.007 269.132C199.536 267.779 191.731 259.662 190.69 249.88C188.193 245.925 186.84 185.356 186.84 180.569C186.84 173.701 189.546 88.2597 194.333 83.3685Z" fill="#00003B"></path> <path opacity="0.8077" d="M205.156 92.8382C205.156 86.0737 214.834 76.3952 221.599 76.3952L272.072 67.2371H272.177H272.385C277.38 62.4499 349.396 59.7441 356.369 59.7441C361.468 59.7441 414.231 61.2011 418.498 63.8028C426.928 64.8435 433.9 71.608 435.357 79.7255L448.47 119.168C453.569 124.267 456.275 160.9 456.275 167.976C456.275 175.157 453.465 211.79 448.47 216.785L435.357 256.227C433.796 264.553 426.511 271.421 417.874 272.566C413.815 274.96 367.92 276.313 363.133 276.313C355.952 276.313 288.828 273.503 283.728 268.403L217.332 255.395C209.11 253.938 202.346 246.861 201.305 238.327C198.704 234.164 197.247 182.65 197.247 177.655C197.247 170.578 200.056 97.9376 205.156 92.8382Z" fill="#000031"></path> <path opacity="0.8462" d="M215.979 102.308C215.979 96.8969 224.825 88.051 230.237 88.051L272.905 78.4766H273.009H273.113C278.421 73.3772 337.636 70.6714 344.921 70.6714C350.333 70.6714 393.73 72.1283 398.101 74.9382C405.281 76.083 411.317 81.7027 412.774 88.6754L426.512 123.539C431.819 128.846 434.733 159.755 434.733 167.248C434.733 174.741 431.819 205.753 426.512 211.061L412.774 245.924C411.109 253.001 404.865 258.829 397.476 259.974C393.209 262.575 355.432 263.928 350.229 263.928C342.736 263.928 287.371 261.014 282.063 255.707L225.658 241.97C218.685 240.409 212.961 234.373 211.921 227.192C209.215 222.821 207.758 180.465 207.758 175.157C207.758 167.352 210.672 107.616 215.979 102.308Z" fill="#000027"></path> <path opacity="0.8846" d="M226.802 111.779C226.802 107.721 234.712 99.8113 238.77 99.8113L273.634 89.7166H273.738H273.842C279.357 84.4091 325.772 81.4951 333.369 81.4951C338.989 81.4951 373.02 83.0562 377.703 85.9701C383.635 87.1149 388.63 91.798 390.191 97.4177L404.553 127.598C410.068 133.114 413.191 158.402 413.191 166.312C413.191 174.117 410.173 199.406 404.553 205.025L390.191 235.206C388.422 241.033 382.906 244.78 377.079 247.069C372.187 248.943 342.84 251.128 337.428 251.128C329.623 251.128 286.018 248.11 280.398 242.49L234.087 228.129C228.467 226.464 223.784 221.468 222.535 215.536C219.622 210.957 218.165 177.655 218.165 172.14C218.165 164.23 221.287 117.295 226.802 111.779Z" fill="#00001D"></path> <path opacity="0.9231" d="M237.626 121.25C237.626 118.544 244.702 111.467 247.408 111.467L274.466 100.956H274.57H274.674C280.398 95.4404 314.117 92.4224 322.026 92.4224C327.854 92.4224 352.206 94.816 357.514 97.1055C361.885 98.9787 366.151 101.893 367.713 106.264L382.698 131.761C388.526 137.588 391.648 157.154 391.648 165.375C391.648 173.596 388.422 193.162 382.698 198.989L367.713 224.486C365.839 229.065 361.468 232.083 356.785 234.061C351.79 236.142 330.352 238.328 324.732 238.328C316.51 238.328 284.665 235.101 278.941 229.378L242.621 214.392C238.25 212.727 235.232 208.46 233.359 203.985C231.069 198.781 228.78 174.949 228.78 169.226C228.676 161.004 231.798 126.973 237.626 121.25Z" fill="#000014"></path> <path opacity="0.9615" d="M248.449 130.616C248.449 129.263 254.589 123.123 255.942 123.123L275.091 112.196H275.195H275.299C281.231 106.472 302.253 103.246 310.475 103.246C316.615 103.246 331.705 105.431 337.012 108.137C340.238 109.698 343.361 111.987 345.026 115.005L360.636 135.923C366.672 141.959 370.002 155.905 370.002 164.438C370.002 172.972 366.672 186.917 360.636 192.953L345.026 213.871C343.152 217.097 339.718 219.595 336.284 221.26C331.184 223.758 317.655 225.735 311.827 225.735C303.294 225.735 283.208 222.405 277.172 216.369L250.843 200.759C247.721 198.989 245.431 195.867 243.87 192.537C241.268 187.23 239.083 172.452 239.083 166.416C239.083 157.882 242.413 136.652 248.449 130.616Z" fill="#00000A"></path> <g opacity="0.45"> <path opacity="0.45" d="M259.272 187.021L275.507 203.256C281.751 209.5 290.077 213.039 298.922 213.039C307.768 213.039 316.094 209.605 322.338 203.256L338.573 187.021C344.817 180.777 348.251 172.452 348.251 163.606C348.251 154.76 344.817 146.434 338.573 140.19L322.442 123.851C316.198 117.607 307.872 114.069 299.026 114.069C290.389 114.069 282.271 117.399 276.027 123.331L259.376 139.982C253.132 146.226 249.594 154.552 249.594 163.398C249.489 172.452 253.028 180.777 259.272 187.021Z" fill="black"></path> </g> </g> <path opacity="0.027027" d="M1162.98 42.8911C1163.29 42.8911 1501.41 380.908 1501.41 381.325L1839.12 722.672L1436.68 1128.75C1436.68 1129.06 1322.93 1242.92 1322.52 1242.92L1223.13 1143.95C1222.82 1143.95 983.773 904.898 983.773 904.586L646.067 563.238L1014.89 190.774C1014.89 190.461 1119.17 86.0799 1119.58 86.0799L1162.98 42.8911Z" fill="#382685"></path> <path opacity="0.0540541" d="M1166.62 47.7822C1167.35 47.7822 1496.31 376.746 1496.31 377.474L1824.65 713.098L1433.46 1111.68C1433.46 1112.41 1322.52 1223.35 1321.79 1223.35L1224.69 1127.09C1223.96 1127.09 991.266 894.387 991.266 893.658L662.927 558.034L1021.45 192.126C1021.45 191.398 1123.23 89.6181 1123.95 89.6181L1166.62 47.7822Z" fill="#3D2C89"></path> <path opacity="0.0810811" d="M1170.26 52.6738C1171.31 52.6738 1491.21 372.479 1491.21 373.624L1810.19 703.628L1430.23 1094.62C1430.23 1095.66 1322.1 1203.79 1321.06 1203.79L1226.25 1110.33C1225.21 1110.33 998.862 883.98 998.862 882.939L679.786 552.935L1028.11 193.584C1028.11 192.543 1127.28 93.365 1128.32 93.365L1170.26 52.6738Z" fill="#43328C"></path> <path opacity="0.1081" d="M1174.01 57.5645C1175.47 57.5645 1486.22 368.316 1486.22 369.773L1795.83 694.053L1427 1077.65C1427 1079.11 1321.79 1184.32 1320.33 1184.32L1227.82 1093.58C1226.36 1093.58 1006.36 873.572 1006.36 872.116L696.75 547.835L1034.77 195.04C1034.77 193.583 1131.34 97.0068 1132.8 97.0068L1174.01 57.5645Z" fill="#483890"></path> <path opacity="0.1351" d="M1177.65 62.4561C1179.42 62.4561 1481.12 364.153 1481.12 365.922L1781.36 684.479L1423.67 1060.48C1423.67 1062.25 1321.27 1164.65 1319.5 1164.65L1229.38 1076.61C1227.61 1076.61 1013.85 862.958 1013.85 861.085L713.608 542.736L1041.43 196.601C1041.43 194.832 1135.4 100.858 1137.17 100.858L1177.65 62.4561Z" fill="#4E3E93"></path> <path opacity="0.1622" d="M1181.4 67.3477C1183.59 67.3477 1476.23 359.991 1476.23 362.176L1767 675.009L1420.45 1043.52C1420.45 1045.7 1320.96 1145.19 1318.77 1145.19L1230.94 1059.96C1228.75 1059.96 1021.45 852.655 1021.45 850.47L730.572 537.637L1048.09 198.059C1048.09 195.873 1139.46 104.5 1141.65 104.5L1181.4 67.3477Z" fill="#534496"></path> <path opacity="0.1892" d="M1185.04 72.2388C1187.54 72.2388 1471.13 355.724 1471.13 358.326L1752.53 665.434L1417.22 1026.45C1417.22 1028.95 1320.54 1125.63 1318.04 1125.63L1232.5 1043.1C1230 1043.1 1028.94 842.04 1028.94 839.542L747.535 532.538L1054.85 199.516C1054.85 197.018 1143.62 108.247 1146.12 108.247L1185.04 72.2388Z" fill="#594A9A"></path> <path opacity="0.2162" d="M1188.69 77.1299C1191.6 77.1299 1466.03 351.561 1466.03 354.475L1738.07 655.964L1413.89 1009.49C1413.89 1012.4 1320.13 1106.17 1317.21 1106.17L1234.06 1026.45C1231.15 1026.45 1036.43 831.737 1036.43 828.823L764.395 527.438L1061.51 200.972C1061.51 198.059 1147.68 111.889 1150.6 111.889L1188.69 77.1299Z" fill="#5E509D"></path> <path opacity="0.2432" d="M1192.43 82.125C1195.66 82.125 1461.03 347.502 1461.03 350.728L1723.71 646.389L1410.77 992.42C1410.77 995.646 1319.81 1086.6 1316.59 1086.6L1235.72 1009.59C1232.5 1009.59 1044.13 821.226 1044.13 818L781.357 522.338L1068.17 202.429C1068.17 199.203 1151.74 115.531 1155.07 115.531L1192.43 82.125Z" fill="#6456A0"></path> <path opacity="0.2703" d="M1196.07 87.0166C1199.72 87.0166 1455.94 343.235 1455.94 346.878L1709.24 636.919L1407.44 975.457C1407.44 979.099 1319.29 1067.14 1315.75 1067.14L1237.18 992.941C1233.54 992.941 1051.52 810.923 1051.52 807.281L798.321 517.239L1074.83 203.887C1074.83 200.244 1155.8 119.278 1159.44 119.278L1196.07 87.0166Z" fill="#695CA4"></path> <path opacity="0.2973" d="M1199.82 91.9077C1203.78 91.9077 1451.04 339.073 1451.04 343.131L1694.98 627.449L1404.21 958.389C1404.21 962.344 1318.98 1047.58 1315.03 1047.58L1238.85 976.081C1234.89 976.081 1059.22 800.412 1059.22 796.457L815.18 512.14L1081.49 205.343C1081.49 201.389 1159.86 122.92 1163.92 122.92L1199.82 91.9077Z" fill="#6F62A7"></path> <path opacity="0.3243" d="M1203.46 96.7988C1207.83 96.7988 1445.94 334.91 1445.94 339.28L1680.52 617.874L1401.09 941.426C1401.09 945.797 1318.67 1028.12 1314.4 1028.12L1240.51 959.326C1236.14 959.326 1066.82 790.005 1066.82 785.634L832.144 507.04L1088.26 206.904C1088.26 202.533 1164.02 126.771 1168.39 126.771L1203.46 96.7988Z" fill="#7468AB"></path> <path opacity="0.3514" d="M1207.11 101.69C1211.79 101.69 1440.84 330.747 1440.84 335.43L1665.95 608.3L1397.66 924.359C1397.66 929.042 1318.15 1008.66 1313.36 1008.66L1241.76 942.675C1237.08 942.675 1074 779.702 1074 774.915L849.002 501.941L1094.81 208.362C1094.81 203.678 1167.98 130.414 1172.76 130.414L1207.11 101.69Z" fill="#7A6EAE"></path> <path opacity="0.3784" d="M1210.85 106.582C1215.95 106.582 1435.85 326.48 1435.85 331.58L1651.59 598.83L1394.53 907.395C1394.53 912.495 1317.84 989.194 1312.74 989.194L1243.43 925.92C1238.33 925.92 1081.7 769.295 1081.7 764.196L865.966 496.842L1101.58 209.818C1101.58 204.719 1172.24 134.16 1177.24 134.16L1210.85 106.582Z" fill="#8074B1"></path> <path opacity="0.4054" d="M1214.49 111.473C1219.91 111.473 1430.75 322.318 1430.75 327.729L1637.12 589.256L1391.2 890.224C1391.2 895.636 1317.42 969.525 1311.9 969.525L1244.99 909.061C1239.57 909.061 1089.19 758.681 1089.19 753.269L882.929 491.743L1108.34 211.276C1108.34 205.864 1176.4 137.803 1181.82 137.803L1214.49 111.473Z" fill="#857AB5"></path> <path opacity="0.4324" d="M1218.14 116.364C1223.96 116.364 1425.65 318.154 1425.65 323.878L1622.76 579.785L1387.98 873.26C1387.98 879.088 1317 950.064 1311.17 950.064L1246.55 892.305C1240.72 892.305 1096.69 748.273 1096.69 742.445L899.789 486.643L1114.9 212.732C1114.9 206.904 1180.36 141.444 1186.19 141.444L1218.14 116.364Z" fill="#8B80B8"></path> <path opacity="0.4595" d="M1221.88 121.255C1228.02 121.255 1420.76 313.888 1420.76 320.132L1608.29 570.211L1384.75 856.193C1384.75 862.333 1316.69 930.499 1310.45 930.499L1248.11 875.446C1241.97 875.446 1104.28 737.762 1104.28 731.622L916.752 481.544L1121.56 214.293C1121.56 208.153 1184.42 145.295 1190.56 145.295L1221.88 121.255Z" fill="#9086BB"></path> <path opacity="0.4865" d="M1225.53 126.25C1232.08 126.25 1415.66 309.829 1415.66 316.385L1593.93 560.74L1381.53 839.23C1381.53 845.786 1316.27 911.038 1309.72 911.038L1249.77 858.795C1243.22 858.795 1111.88 727.459 1111.88 720.903L933.611 476.444L1128.22 215.646C1128.22 209.09 1188.48 148.834 1195.03 148.834L1225.53 126.25Z" fill="#968CBF"></path> <path opacity="0.5135" d="M1229.27 131.142C1236.14 131.142 1410.66 305.666 1410.66 312.535L1579.57 551.166L1378.4 822.163C1378.4 829.031 1315.96 891.473 1309.09 891.473L1251.44 841.936C1244.57 841.936 1119.58 716.949 1119.58 710.08L950.574 471.449L1134.99 217.207C1134.99 210.339 1192.64 152.684 1199.51 152.684L1229.27 131.142Z" fill="#9B93C2"></path> <path opacity="0.5405" d="M1232.91 136.033C1240.2 136.033 1405.57 301.504 1405.57 308.684L1565 541.696L1375.07 805.199C1375.07 812.484 1315.55 872.012 1308.26 872.012L1252.9 825.285C1245.61 825.285 1126.97 706.646 1126.97 699.361L967.538 466.349L1141.65 218.768C1141.65 211.484 1196.7 156.431 1203.98 156.431L1232.91 136.033Z" fill="#A199C6"></path> <path opacity="0.5676" d="M1236.56 140.924C1244.15 140.924 1400.47 297.237 1400.47 304.834L1550.53 532.121L1371.74 788.132C1371.74 795.729 1315.03 852.447 1307.43 852.447L1254.35 808.425C1246.76 808.425 1134.36 696.134 1134.36 688.433L984.397 461.25L1148.31 220.225C1148.31 212.628 1200.76 160.177 1208.35 160.177L1236.56 140.924Z" fill="#A69FC9"></path> <path opacity="0.5946" d="M1240.3 145.816C1248.32 145.816 1395.57 293.074 1395.57 301.087L1536.28 522.651L1368.52 771.065C1368.52 779.078 1314.71 832.882 1306.7 832.882L1256.02 791.67C1248 791.67 1142.06 685.624 1142.06 677.714L1001.36 456.151L1154.97 221.682C1154.97 213.669 1204.82 163.82 1212.83 163.82L1240.3 145.816Z" fill="#ACA5CC"></path> <path opacity="0.6216" d="M1243.95 150.707C1252.27 150.707 1390.48 288.911 1390.48 297.236L1521.81 513.076L1365.29 754.101C1365.29 762.426 1314.3 813.42 1305.97 813.42L1257.58 774.915C1249.25 774.915 1149.56 675.216 1149.56 666.891L1018.22 451.051L1161.63 223.139C1161.63 214.813 1208.87 167.462 1217.3 167.462L1243.95 150.707Z" fill="#B1ABD0"></path> <path opacity="0.6486" d="M1247.59 155.598C1256.33 155.598 1385.38 284.644 1385.38 293.386L1507.35 503.502L1362.06 737.034C1362.06 745.776 1313.98 793.856 1305.24 793.856L1259.14 758.056C1250.4 758.056 1157.05 664.706 1157.05 655.964L1035.18 445.952L1168.39 224.596C1168.39 215.854 1213.04 171.209 1221.78 171.209L1247.59 155.598Z" fill="#B7B1D3"></path> <path opacity="0.6757" d="M1251.34 160.49C1260.39 160.49 1380.38 280.482 1380.38 289.536L1492.98 493.928L1358.84 719.863C1358.84 728.917 1313.57 774.187 1304.51 774.187L1260.81 741.197C1251.75 741.197 1164.75 654.195 1164.75 645.141L1052.15 440.853L1175.05 226.053C1175.05 216.999 1217.2 174.851 1226.25 174.851L1251.34 160.49Z" fill="#BDB7D6"></path> <path opacity="0.7027" d="M1254.98 165.381C1264.45 165.381 1375.28 276.319 1375.28 285.685L1478.52 484.353L1355.61 702.795C1355.61 712.265 1313.26 754.622 1303.79 754.622L1262.37 724.337C1252.9 724.337 1172.24 643.684 1172.24 634.213L1069.01 435.545L1181.71 227.302C1181.71 217.832 1221.26 178.39 1230.63 178.39L1254.98 165.381Z" fill="#C2BDDA"></path> <path opacity="0.7297" d="M1258.72 170.376C1268.51 170.376 1370.39 272.156 1370.39 282.043L1464.16 475.092L1352.39 686.04C1352.39 695.823 1312.84 735.369 1303.06 735.369L1263.93 707.895C1254.14 707.895 1179.84 633.589 1179.84 623.807L1086.07 430.758L1188.48 229.072C1188.48 219.289 1225.42 182.344 1235.2 182.344L1258.72 170.376Z" fill="#C8C3DD"></path> <path opacity="0.7568" d="M1262.37 175.267C1272.56 175.267 1365.29 267.993 1365.29 278.192L1449.69 465.517L1349.06 668.868C1349.06 679.067 1312.32 715.699 1302.22 715.699L1265.49 690.931C1255.29 690.931 1187.33 622.974 1187.33 612.775L1102.93 425.45L1195.14 230.424C1195.14 220.225 1229.48 185.986 1239.57 185.986L1262.37 175.267Z" fill="#CDC9E1"></path> <path opacity="0.7838" d="M1266.01 180.159C1276.52 180.159 1360.19 263.83 1360.19 274.341L1435.23 455.943L1345.83 651.905C1345.83 662.416 1312.01 696.239 1301.5 696.239L1267.05 674.28C1256.54 674.28 1194.83 612.567 1194.83 602.056L1119.79 420.455L1201.69 231.985C1201.69 221.474 1233.44 189.733 1243.95 189.733L1266.01 180.159Z" fill="#D3CFE4"></path> <path opacity="0.8108" d="M1269.76 185.05C1280.68 185.05 1355.2 259.668 1355.2 270.491L1420.86 446.368L1342.6 634.838C1342.6 645.765 1311.59 676.674 1300.77 676.674L1268.61 657.421C1257.68 657.421 1202.42 602.056 1202.42 591.233L1136.75 415.355L1208.46 233.442C1208.46 222.515 1237.6 193.375 1248.52 193.375L1269.76 185.05Z" fill="#D8D5E7"></path> <path opacity="0.8378" d="M1273.4 189.941C1284.64 189.941 1350.1 255.401 1350.1 266.64L1406.4 436.793L1339.38 617.77C1339.38 629.01 1311.28 657.108 1300.04 657.108L1270.17 640.561C1258.93 640.561 1209.92 591.545 1209.92 580.305L1153.61 410.152L1215.12 234.795C1215.12 223.555 1241.66 197.018 1252.9 197.018L1273.4 189.941Z" fill="#DEDBEB"></path> <path opacity="0.8649" d="M1277.04 194.833C1288.7 194.833 1345.1 251.238 1345.1 262.894L1392.04 427.324L1336.15 600.807C1336.15 612.463 1310.86 637.648 1299.31 637.648L1271.84 623.911C1260.18 623.911 1217.51 581.242 1217.51 569.586L1170.58 405.157L1221.78 236.356C1221.78 224.7 1245.72 200.764 1257.37 200.764L1277.04 194.833Z" fill="#E3E1EE"></path> <path opacity="0.8919" d="M1280.79 199.724C1292.75 199.724 1340.11 247.075 1340.11 259.043L1377.68 417.853L1332.93 583.844C1332.93 595.812 1310.55 618.187 1298.58 618.187L1273.4 607.155C1261.43 607.155 1225.11 570.835 1225.11 558.867L1187.54 400.057L1228.54 237.813C1228.54 225.845 1249.88 204.511 1261.85 204.511L1280.79 199.724Z" fill="#E9E7F1"></path> <path opacity="0.9189" d="M1284.43 204.615C1296.81 204.615 1335.01 242.809 1335.01 255.193L1363.11 408.279L1329.59 566.777C1329.59 579.161 1310.03 598.726 1297.65 598.726L1274.75 590.504C1262.37 590.504 1232.39 560.532 1232.39 548.148L1204.3 395.062L1235 239.374C1235 226.99 1253.73 208.258 1266.11 208.258L1284.43 204.615Z" fill="#EEEDF5"></path> <path opacity="0.9459" d="M1288.18 209.506C1300.87 209.506 1330.01 238.645 1330.01 251.342L1348.74 398.704L1326.37 549.605C1326.37 562.301 1309.72 579.056 1296.92 579.056L1276.42 573.541C1263.72 573.541 1240.1 549.917 1240.1 537.22L1221.36 389.858L1241.86 240.831C1241.86 228.134 1258 212.004 1270.69 212.004L1288.18 209.506Z" fill="#F4F3F8"></path> <path opacity="0.973" d="M1291.82 214.501C1304.93 214.501 1324.91 234.587 1324.91 247.596L1334.28 389.234L1323.14 532.642C1323.14 545.754 1309.3 559.596 1296.19 559.596L1277.98 556.89C1264.86 556.89 1247.59 539.614 1247.59 526.501L1238.22 384.863L1248.42 242.392C1248.42 229.279 1262.05 215.75 1275.06 215.75L1291.82 214.501Z" fill="#F9F9FC"></path> <path d="M1279.64 219.393H1295.56C1308.99 219.393 1320.02 230.424 1320.02 243.849V379.764V515.678C1320.02 529.103 1308.99 540.134 1295.56 540.134H1279.64C1266.22 540.134 1255.19 529.103 1255.19 515.678V379.764V243.745C1255.19 230.32 1266.22 219.393 1279.64 219.393Z" fill="white"></path> </g> <defs> <clipPath id="clip0"> <rect width="1440" height="827" fill="white"></rect> </clipPath> </defs> </svg> 