<?xml version="1.0" encoding="utf-8"?>
<!-- Generator: Adobe Illustrator 21.1.0, SVG Export Plug-In . SVG Version: 6.00 Build 0)  -->
<svg version="1.1" id="Layer_1" xmlns="http://www.w3.org/2000/svg" xmlns:xlink="http://www.w3.org/1999/xlink" x="0px" y="0px"
	 viewBox="0 0 1680 900" style="enable-background:new 0 0 1680 900;" xml:space="preserve">
<style type="text/css">
	.st0{fill:#FFFFFF;}
	.st1{opacity:0.6;}
	.st2{opacity:0.3;}
	.st3{opacity:0.5;fill:#66C966;}
	.st4{fill:#F3F3F3;}
	.st5{fill:none;stroke:#FFFFFF;stroke-width:35.4328;stroke-linecap:round;stroke-linejoin:round;stroke-miterlimit:10;}
	.st6{fill:none;stroke:#FFFFFF;stroke-width:35.4328;stroke-linejoin:round;stroke-miterlimit:10;}
	.st7{opacity:0.4;fill:#E2E2E2;}
	.st8{fill:none;stroke:#FFFFFF;stroke-width:16;stroke-linecap:round;stroke-linejoin:round;stroke-miterlimit:10;}
	.st9{fill:none;stroke:#FFFFFF;stroke-width:16;stroke-linejoin:round;stroke-miterlimit:10;}
	.st10{opacity:0.5;}
	.st11{fill:#66C966;}
	.st12{opacity:0.2;}
	.st13{fill:none;stroke:#FFFFFF;stroke-width:6;stroke-miterlimit:10;}
	.st14{fill:#EAEAEA;}
	.st15{opacity:0.4;}
	.st16{fill:#E2E2E2;}
	.st17{opacity:0.3;fill:#66C966;}
	.st18{fill:#1D1D1B;}
	.st19{fill:#C3C3C3;}
	.st20{fill:none;stroke:#EAEAEA;stroke-width:4.6587;stroke-linecap:round;stroke-linejoin:round;stroke-miterlimit:10;}
	
		.st21{opacity:0.7;fill:none;stroke:#F3F3F3;stroke-width:27.492;stroke-linecap:round;stroke-linejoin:round;stroke-miterlimit:10;}
	.st22{fill:none;stroke:#F3F3F3;stroke-width:27.492;stroke-linejoin:round;stroke-miterlimit:10;}
	.st23{opacity:0.4;fill:#E2E2E2;enable-background:new    ;}
	.st24{fill:none;}
	.st25{enable-background:new    ;}
	.st26{fill:none;stroke:#FFFFFF;stroke-width:17.1405;stroke-linejoin:round;stroke-miterlimit:10;}
	.st27{fill:none;stroke:#EAEAEA;stroke-width:6;stroke-miterlimit:10;}
	.st28{fill:none;stroke:#EAEAEA;stroke-width:5.1807;stroke-miterlimit:10;}
	.st29{fill:none;stroke:#EAEAEA;stroke-width:3.1253;stroke-miterlimit:10;}
	.st30{fill:none;stroke:#D7D7D7;stroke-width:3.1253;stroke-miterlimit:10;}
	.st31{fill:none;stroke:#FFFFFF;stroke-width:8.854;stroke-linecap:round;stroke-linejoin:round;stroke-miterlimit:10;}
	.st32{fill:none;stroke:#FFFFFF;stroke-width:8.854;stroke-linejoin:round;stroke-miterlimit:10;}
	.st33{opacity:0.6;fill:none;stroke:#F3F3F3;stroke-width:20;stroke-linecap:round;stroke-linejoin:round;stroke-miterlimit:10;}
	.st34{fill:none;stroke:#FFFFFF;stroke-width:56.7203;stroke-linecap:round;stroke-linejoin:round;stroke-miterlimit:10;}
	.st35{fill:none;stroke:#FFFFFF;stroke-width:56.7203;stroke-linejoin:round;stroke-miterlimit:10;}
	.st36{opacity:0.4;fill:#EAEAEA;}
	.st37{fill:none;stroke:#FFFFFF;stroke-width:25.6126;stroke-linecap:round;stroke-linejoin:round;stroke-miterlimit:10;}
	.st38{fill:none;stroke:#FFFFFF;stroke-width:25.6126;stroke-linejoin:round;stroke-miterlimit:10;}
	.st39{fill:none;stroke:#FFFFFF;stroke-width:9.6047;stroke-miterlimit:10;}
	.st40{fill:#C9DAF8;}
	.st41{fill:none;stroke:#C9DAF8;stroke-width:12;stroke-miterlimit:10;}
	.st42{fill:none;stroke:#66C966;stroke-width:4;stroke-miterlimit:10;}
	.st43{fill:#FFFFFF;stroke:#FFFFFF;stroke-width:6;stroke-linecap:round;stroke-linejoin:round;stroke-miterlimit:10;}
	.st44{fill:none;stroke:#EAEAEA;stroke-width:8.6297;stroke-linecap:round;stroke-linejoin:round;stroke-miterlimit:10;}
</style>
<rect y="0" class="st0" width="1680" height="900"/>
<g class="st2">
	
		<image style="overflow:visible;opacity:0.8;" width="2419" height="2415" xlink:href="B98A8D02.png"  transform="matrix(0.24 0 0 0.24 266.7162 197.6105)">
	</image>
	<g>
		<path class="st0" d="M652.9,386.8c59.3,56.5,64.5,147.4,11.6,202.9c-52.9,55.6-143.9,54.8-203.3-1.7
			c-59.3-56.5-64.5-147.4-11.5-202.9C502.5,329.5,593.5,330.2,652.9,386.8z"/>
	</g>
</g>
<g>
	<path class="st0" d="M738.5,368.3l-71.9-71.9c-27.8-27.8-64.6-43-103.8-43c-39.2,0-76,15.3-103.8,43l-71.9,71.9
		c-27.8,27.8-43,64.6-43,103.8c0,39.2,15.3,76.1,43,103.8l71.9,71.9c27.8,27.8,64.6,43,103.8,43c38.2,0,74.3-14.6,101.8-41.1
		l0.1-0.1l0.1-0.1l73.6-73.6c27.8-27.7,43.1-64.6,43.1-103.8C781.5,432.9,766.2,396.1,738.5,368.3z"/>
</g>
<path class="st14" d="M1507.4,59.9l-6-6c-2.3-2.3-5.4-3.6-8.7-3.6c-3.3,0-6.4,1.3-8.7,3.6l-6,6c-2.3,2.3-3.6,5.4-3.6,8.7
	c0,3.3,1.3,6.4,3.6,8.7l6,6c2.3,2.3,5.4,3.6,8.7,3.6c3.2,0,6.2-1.2,8.5-3.4l0,0l0,0l6.2-6.2c2.3-2.3,3.6-5.4,3.6-8.7
	C1511,65.3,1509.8,62.2,1507.4,59.9z M1503.4,72.9l-6.1,6.1c-1.1,1.1-2.7,1.8-4.4,1.8c-1.8,0-3.3-0.7-4.5-1.9l3-3
	c0.4,0.4,0.9,0.6,1.5,0.6c0.6,0,1.1-0.2,1.5-0.6l6-6c0.4-0.4,0.6-0.9,0.6-1.5c0-0.6-0.2-1.1-0.6-1.5c-0.4-0.4-0.9-0.6-1.5-0.6
	c-0.6,0-1.1,0.2-1.5,0.6l-6,6c-1.2,1.1-2.7,1.9-4.5,1.9c-1.8,0-3.3-0.7-4.5-1.9c-1.2-1.2-1.9-2.7-1.9-4.5c0-1.8,0.7-3.3,1.9-4.5l6-6
	c1.2-1.1,2.7-1.9,4.5-1.9c1.8,0,3.3,0.7,4.5,1.9l-3,3c-0.4-0.4-0.9-0.6-1.5-0.6c-0.6,0-1.1,0.2-1.5,0.6l-6,6
	c-0.4,0.4-0.6,0.9-0.6,1.5c0,0.6,0.2,1.1,0.6,1.5c0.4,0.4,0.9,0.6,1.5,0.6c0.6,0,1.1-0.2,1.5-0.6l6-6c1.2-1.1,2.7-1.9,4.5-1.9
	c1.8,0,3.3,0.7,4.5,1.9c1.2,1.2,1.9,2.7,1.9,4.5C1505.3,70.2,1504.6,71.8,1503.4,72.9z"/>
<path class="st4" d="M1410.9,122.6l-77.1-76.7C1304.1,16.3,1264.6,0,1222.6,0c-42,0-81.5,16.3-111.2,45.9l-77.1,76.7
	c-29.8,29.6-46.1,68.9-46.1,110.8c0,41.8,16.4,81.2,46.1,110.8l77.1,76.7c29.8,29.6,69.3,45.9,111.2,45.9
	c40.9,0,79.7-15.6,109.1-43.9l0.2-0.1l0.2-0.2l78.8-78.5c29.7-29.6,46.2-69,46.2-110.8C1457,191.6,1440.6,152.2,1410.9,122.6"/>
<g>
	<line class="st21" x1="503.9" y1="472.1" x2="620.2" y2="472.1"/>
	<polyline class="st22" points="562.1,412.6 621.6,472.1 562.1,531.7 	"/>
</g>
<g>
	<g>
		<path class="st0" d="M1257.1,204.6c0,19.1-15.5,34.6-34.6,34.6c-19.1,0-34.6-15.5-34.6-34.6c0-19.1,15.5-34.6,34.6-34.6
			C1241.7,170,1257.1,185.5,1257.1,204.6z"/>
		<path class="st0" d="M1176.5,296.8c0-25.5,20.7-46.1,46.1-46.1c25.5,0,46.1,20.6,46.1,46.1"/>
	</g>
</g>
<g class="st2">
	
		<image style="overflow:visible;opacity:0.8;" width="1330" height="1326" xlink:href="B98A8D05.png"  transform="matrix(0.24 0 0 0.24 1378.5315 319.7675)">
	</image>
	<g>
		<path class="st0" d="M1585.9,428.8c31.5,30,35.6,76.7,9.2,104.4c-26.4,27.7-73.3,25.9-104.8-4.1c-31.5-30-35.6-76.7-9.2-104.4
			C1507.6,396.9,1554.5,398.8,1585.9,428.8z"/>
	</g>
</g>
<g class="st1">
	
		<image style="overflow:visible;opacity:0.8;" width="1007" height="992" xlink:href="B98A8D04.png"  transform="matrix(0.24 0 0 0.24 1473.1737 307.8497)">
	</image>
	<g>
		
			<ellipse transform="matrix(0.6898 -0.724 0.724 0.6898 185.3529 1286.3976)" class="st0" cx="1594" cy="426.9" rx="22.5" ry="65.5"/>
	</g>
</g>
<g>
	<path class="st0" d="M1654.9,403.2l-41.8-41.8c-16.2-16.2-37.6-25-60.4-25c-22.8,0-44.3,8.9-60.4,25l-41.8,41.8
		c-16.2,16.1-25.1,37.6-25.1,60.4c0,22.8,8.9,44.3,25.1,60.4l41.9,41.8c16.2,16.2,37.6,25,60.4,25c22.2,0,43.3-8.5,59.3-23.9
		l0.1-0.1l0.1-0.1l42.8-42.8c16.2-16.1,25.1-37.6,25.1-60.4C1680,440.8,1671.1,419.3,1654.9,403.2z"/>
</g>
<g class="st1">
	
		<image style="overflow:visible;opacity:0.8;" width="1232" height="1205" xlink:href="B98A8D0B.png"  transform="matrix(0.24 0 0 0.24 56.0436 80.9997)">
	</image>
	<g>
		<path class="st0" d="M219.4,209.2c41.6,39.6,68.3,79,59.7,88c-8.6,9-49.2-15.8-90.8-55.4c-41.6-39.6-68.3-79-59.7-88
			C137.2,144.8,177.8,169.6,219.4,209.2z"/>
	</g>
</g>
<path class="st4" d="M274.9,213.3l-57.8-57.5c-22.3-22.2-51.9-34.4-83.4-34.4c-31.5,0-61.1,12.2-83.4,34.4l-57.8,57.5
	C-29.7,235.5-42,265-42,296.3c0,31.4,12.3,60.9,34.6,83l57.8,57.5c22.3,22.2,51.9,34.4,83.4,34.4c30.7,0,59.7-11.7,81.8-32.9
	l0.1-0.1l0.1-0.1l59.1-58.8c22.3-22.2,34.6-51.7,34.6-83.1C309.5,265,297.2,235.5,274.9,213.3"/>
<g>
	<path class="st44" d="M1543.2,464.3v-12.9c0-3.8,3-6.8,6.8-6.8h5.4c3.8,0,6.8,3,6.8,6.8v12.9"/>
	<path class="st14" d="M1571,476.3c0,5.4-4.4,9.8-9.8,9.8h-17.1c-5.4,0-9.8-4.4-9.8-9.8v-6.5c0-5.4,4.4-9.8,9.8-9.8h17.1
		c5.4,0,9.8,4.4,9.8,9.8V476.3z"/>
</g>
<g class="st2">
	
		<image style="overflow:visible;opacity:0.8;" width="1330" height="1326" xlink:href="B98A8D0C.png"  transform="matrix(0.24 0 0 0.24 554.5614 -64.2325)">
	</image>
	<g>
		<path class="st0" d="M762,44.8c31.5,30,35.6,76.7,9.2,104.4c-26.4,27.7-73.3,25.9-104.8-4.1c-31.5-30-35.6-76.7-9.2-104.4
			C683.6,12.9,730.5,14.8,762,44.8z"/>
	</g>
</g>
<g class="st1">
	
		<image style="overflow:visible;opacity:0.8;" width="1007" height="992" xlink:href="B98A8D0D.png"  transform="matrix(0.24 0 0 0.24 649.2036 -76.1503)">
	</image>
	<g>
		<ellipse transform="matrix(0.6898 -0.724 0.724 0.6898 207.7849 570.7558)" class="st0" cx="770" cy="42.9" rx="22.5" ry="65.5"/>
	</g>
</g>
<g>
	<path class="st0" d="M831,19.2l-41.8-41.8c-16.2-16.2-37.6-25-60.4-25c-22.8,0-44.3,8.9-60.4,25l-41.8,41.8
		c-16.2,16.1-25.1,37.6-25.1,60.4c0,22.8,8.9,44.3,25.1,60.4l41.9,41.8c16.2,16.2,37.6,25,60.4,25c22.2,0,43.3-8.5,59.3-23.9
		l0.1-0.1l0.1-0.1L831,140c16.2-16.1,25.1-37.6,25.1-60.4C856,56.8,847.1,35.3,831,19.2z"/>
</g>
<g>
	<path class="st44" d="M722.7,73.9l9.1-9.1c2.7-2.7,7-2.7,9.6,0l3.8,3.8c2.7,2.7,2.7,7,0,9.6l-9.1,9.1"/>
	<path class="st14" d="M733.9,102.1c-3.8,3.8-10,3.8-13.8,0L708,90c-3.8-3.8-3.8-10,0-13.8l4.6-4.6c3.8-3.8,10-3.8,13.8,0l12.1,12.1
		c3.8,3.8,3.8,10,0,13.8L733.9,102.1z"/>
</g>
<g>
	<path class="st0" d="M205,286c0,1.6-1.3,2.9-2.9,2.9H95c-1.6,0-2.9-1.3-2.9-2.9v-11c0-1.6,1.3-2.9,2.9-2.9h107.1
		c1.6,0,2.9,1.3,2.9,2.9V286z"/>
	<path class="st0" d="M205,318.3c0,1.6-1.3,2.9-2.9,2.9H95c-1.6,0-2.9-1.3-2.9-2.9v-11c0-1.6,1.3-2.9,2.9-2.9h107.1
		c1.6,0,2.9,1.3,2.9,2.9V318.3z"/>
	<g>
		<circle class="st0" cx="74.3" cy="276.3" r="4.8"/>
		<path class="st0" d="M67.9,289c0-3.5,2.8-6.4,6.4-6.4c3.5,0,6.4,2.8,6.4,6.4"/>
	</g>
	<g>
		<circle class="st0" cx="79.4" cy="312.4" r="4.8"/>
		<path class="st0" d="M78.7,311.8c0,0.7-0.6,1.3-1.3,1.3H63.9c-0.7,0-1.3-0.6-1.3-1.3l0,0c0-0.7,0.6-1.3,1.3-1.3h13.4
			C78.1,310.5,78.7,311.1,78.7,311.8L78.7,311.8z"/>
		<path class="st0" d="M68.4,315.9c-0.5,0-0.9-0.4-0.9-0.9v-3.6c0-0.5,0.4-0.9,0.9-0.9l0,0c0.5,0,0.9,0.4,0.9,0.9v3.6
			C69.3,315.5,68.9,315.9,68.4,315.9L68.4,315.9z"/>
		<path class="st0" d="M64.8,315.9c-0.5,0-0.9-0.4-0.9-0.9v-3.6c0-0.5,0.4-0.9,0.9-0.9l0,0c0.5,0,0.9,0.4,0.9,0.9v3.6
			C65.7,315.5,65.3,315.9,64.8,315.9L64.8,315.9z"/>
	</g>
</g>
</svg>
