<?xml version="1.0" encoding="UTF-8"?> <svg xmlns="http://www.w3.org/2000/svg" xmlns:xlink="http://www.w3.org/1999/xlink" id="Layer_1" data-name="Layer 1" viewBox="0 0 300 300"> <defs> <style>.cls-1{fill:url(#linear-gradient);}.cls-2{fill:url(#linear-gradient-2);}.cls-3{fill:url(#linear-gradient-3);}</style> <linearGradient id="linear-gradient" x1="28.19" y1="225.69" x2="137.1" y2="125.03" gradientUnits="userSpaceOnUse"> <stop offset="0" stop-color="#535366"></stop> <stop offset="0.28" stop-color="#454659"></stop> <stop offset="1" stop-color="#25263a"></stop> </linearGradient> <linearGradient id="linear-gradient-2" x1="14.85" y1="211.26" x2="123.76" y2="110.6" xlink:href="#linear-gradient"></linearGradient> <linearGradient id="linear-gradient-3" x1="48.25" y1="247.4" x2="157.16" y2="146.74" xlink:href="#linear-gradient"></linearGradient> </defs> <title>Artboard 10 copy 7 копия 4</title> <circle class="cls-1" cx="113" cy="147.31" r="34.08"></circle> <path class="cls-2" d="M113,104.93A122.44,122.44,0,0,1,200.15,141l21.21-21.21a153.25,153.25,0,0,0-216.73,0L25.85,141A122.44,122.44,0,0,1,113,104.93Z"></path> <path class="cls-3" d="M45.29,167.08,24.07,188.29a125.9,125.9,0,0,0,177.85,0l-21.21-21.21A95.87,95.87,0,0,1,45.29,167.08Z"></path> </svg> 