<?xml version="1.0" encoding="UTF-8"?> <svg xmlns="http://www.w3.org/2000/svg" viewBox="0 0 1557.45 227.98"> <defs> <style>.cls-1{fill:#fff;}</style> </defs> <g id="Layer_2" data-name="Layer 2"> <g id="Layer_1-2" data-name="Layer 1"> <path class="cls-1" d="M576.77,220.44H519.66c-.71-3.26-1.5-6.46-2.09-9.7q-13.2-71.69-26.37-143.38c-.46-2.48.32-6.16-5.2-5.67-.36,52.72-.72,105.38-1.09,158.51H430c1.58-70.48,3.14-140.53,4.72-211h93c1.81,11.58,3.61,22.82,5.34,34.06,3.82,24.93,7.52,49.86,11.51,74.76.39,2.39-.71,7,5.43,6.06,6.14-38.27,12.31-76.67,18.55-115.57h92.25c2,70.43,3.94,140.76,5.93,211.65h-55c-1-8.48-.39-17.24-.56-25.95s-.13-17.69-.18-26.54-.1-17.69-.18-26.53-.19-17.69-.3-26.53-.26-17.69-.38-26.53-.21-17.49-.31-26.22c-4.6-.49-4.24,2.56-4.62,4.55-2.23,11.75-4.3,23.52-6.42,35.29q-10.25,56.78-20.5,113.55A50.73,50.73,0,0,1,576.77,220.44Z"></path> <path class="cls-1" d="M1228.58,220.25h-53.76c-1.73-5.37-2.48-195.59-.81-210.91,5.51-1.72,51.19-2.35,67.59-.82l56.27,128.29,2-.39c.53-21.29-.87-42.57-1.48-63.86s-1.2-42.48-1.82-64.17h55.5V219.31c-5.35,1.68-52.84,2.23-65.71.69-9.72-21.42-19.54-43.19-29.47-64.91-9.74-21.28-19.12-42.74-29.18-63.88l-2.16.58C1226.56,134.46,1227.57,177.13,1228.58,220.25Z"></path> <path class="cls-1" d="M945.51,8.55h60.67v9.62q0,71.41.1,142.82c0,2.61-.08,5.21.07,7.81.62,10.91,7.72,17,18.63,16.12,6.09-.49,10.48-3.55,12.22-9.28a43.24,43.24,0,0,0,1.58-12.27q.15-72.59.06-145.17V8.56h58.63c.21,2.16.55,4.16.55,6.16q0,76.48,0,153c0,24.63-11.44,41.79-34,51-27.13,11.11-54.88,11.23-82.27,1.12-24.14-8.91-36.38-27.8-36.35-53.52q.06-73.76,0-147.51Z"></path> <path class="cls-1" d="M728.94,152.25h58.73c.27,7.08.09,13.81.9,20.42.91,7.52,6,11.91,13.56,12.84,7.38.91,13.63-2.36,16.63-8.93a19.6,19.6,0,0,0-.87-18.7c-3.46-6.07-8.6-10.31-14.73-13.52q-18.31-9.57-36.53-19.32a113.06,113.06,0,0,1-9.93-6.16C740.25,107.73,732.76,92,733.23,72.33c.23-9.6.28-19.24,1.15-28.8C735.75,28.59,744,18.08,757,11.15A79.26,79.26,0,0,1,783.75,3C801.94.54,820.1.62,837.94,5.34a73,73,0,0,1,16.59,6.59c14.09,7.82,21.58,19.86,21.48,36.26-.06,8,0,16,0,25-18.57.91-36.59.24-55.67.49,0-5.91-.11-11,0-16.12.17-6.38-2.22-11.13-8.22-13.72-6.41-2.76-12.89-3-18.39,1.62-5.14,4.3-7,10.2-5.15,16.9a22.89,22.89,0,0,0,11.11,14.48c9.95,5.6,20.14,10.79,30.22,16.16,8,4.27,16.24,8.23,24,12.91,16.74,10.09,24.53,25.65,25.7,44.72.46,7.52.11,15.08.09,22.63,0,18.18-8,31.91-23.38,41.43-10.34,6.41-21.78,9.77-33.68,11.6-19.28,3-38.44,2.43-57-4A74,74,0,0,1,747.79,213a42.45,42.45,0,0,1-18.69-32C728.27,171.78,728.94,162.4,728.94,152.25Z"></path> <path class="cls-1" d="M59.41,152.8c0,5.75-.08,11.68,0,17.61.21,13,12.67,17.65,22.33,14.09,8.63-3.19,12.54-15,8.24-24.62-3.11-6.95-8.55-11.68-15.13-15.19-12.17-6.47-24.37-12.86-36.55-19.31-2.29-1.22-4.56-2.5-6.77-3.86C12.92,110,3.56,93.45,4.3,71.41c.31-9.1.44-18.2,1-27.28.83-12.61,7.27-22,17.69-28.78C34.37,8,47.11,4.22,60.33,2.54,76.7.45,93.12.93,109.11,5.38A76.7,76.7,0,0,1,127,12.8c13.41,7.81,20.22,19.78,20.17,35.46,0,8,0,16.09,0,25.26-18.52.26-36.56.1-55.52.1-.11-5.43-.45-10.27-.24-15.09.3-7-1.92-12.2-8.68-15s-14.57-1.7-19,2.7-5.88,12.41-3.16,18.9a23.82,23.82,0,0,0,10.72,12c10,5.46,20.2,10.69,30.29,16.06,8,4.28,16.23,8.27,24,13,16.07,9.91,23.85,25,25,43.47.52,8,.16,16.12.14,24.19-.05,17.61-7.93,30.89-22.58,40.31-10.93,7-23.19,10.48-35.87,12.33a125.06,125.06,0,0,1-51.08-2.71c-9.39-2.52-18.07-6.59-25.42-13.11C6.9,202.81,1.1,193,.31,181.06c-.61-9.28-.12-18.64-.12-27.88C6,151.53,49.88,151.18,59.41,152.8Z"></path> <path class="cls-1" d="M1555.91,72H1501a55.22,55.22,0,0,1-.81-5.94c-.14-3.64,0-7.28-.09-10.92-.13-5.86-2.11-10.86-7.7-13.43-5.95-2.73-11.72-1.41-17,2-3.63,2.32-4.79,6-4.89,10.1-.11,4.43,0,8.85,0,13.27q0,48,0,96a46.55,46.55,0,0,0,.67,9.3c1.5,7.41,6.71,11.58,14.33,11.93,7.08.32,12.85-4.07,14.78-11.35a18.46,18.46,0,0,0,.72-4.6c.07-10.91,0-21.82,0-33.56l-14.88-1.26V103.36h70.75c.21,2.2.56,4.18.56,6.15,0,19.26.17,38.51-.05,57.76a132.9,132.9,0,0,1-1.69,19.41c-2.25,13.89-10.3,23.64-22.85,29.62a101.45,101.45,0,0,1-40.72,9.54c-16,.54-31.7-1.25-46.64-7.41-15.52-6.39-27-16.69-30.76-33.68a72.89,72.89,0,0,1-1.36-15.49c-.11-33.56-.06-67.12,0-100.69,0-6.23-.43-12.51.18-18.68,2.06-20.8,13.19-35,32.31-43.2,12.46-5.33,25.61-6.62,38.94-6.69,13.61-.07,26.94,1.71,39.78,6.58,19.87,7.54,30.56,21.74,31.4,43.05C1556.15,56.83,1555.91,64.05,1555.91,72Z"></path> <path class="cls-1" d="M262.8,219.93H203.93C216.17,149.24,228.3,79.2,240.47,9h93.72l36.57,211.1H311.51c-7.25-54.52-14.49-109-21.67-162.9-3.77-1.21-4.93,0-5.29,2.54-.81,5.92-1.76,11.82-2.54,17.75q-8.89,67.65-17.75,135.29C264,215,263.34,217.28,262.8,219.93Z"></path> </g> </g> </svg> 