<?xml version="1.0" encoding="UTF-8"?> <svg xmlns="http://www.w3.org/2000/svg" width="24" height="24" viewBox="0 0 24 24" fill="none"> <path fill-rule="evenodd" clip-rule="evenodd" d="M24 11.9997C24 5.37691 18.6231 0 12.0003 0C5.37748 0 0 5.37691 0 11.9997C0 18.6225 5.37691 23.9994 11.9997 23.9994C18.6225 23.9994 24 18.6225 24 11.9997Z" fill="#404040"></path> <path d="M7.90044 17.3408C10.83 17.3408 13.205 14.9496 13.205 11.9998C13.205 9.05009 10.8302 6.65869 7.90044 6.65869C4.97069 6.65869 2.5957 9.0506 2.5957 11.9998C2.5957 14.949 4.97088 17.3408 7.90044 17.3408Z" fill="#BFBFBF"></path> <path d="M16.3719 17.0281C17.8367 17.0281 19.0243 14.7764 19.0243 11.9998C19.0243 9.22256 17.8366 6.97153 16.3717 6.97153C14.9068 6.97153 13.7195 9.22327 13.7195 11.9998C13.7195 14.7764 14.907 17.0281 16.3719 17.0281Z" fill="#BFBFBF"></path> <path d="M20.4717 16.5043C20.9869 16.5043 21.4045 14.4869 21.4045 11.9998C21.4045 9.51198 20.9867 7.49531 20.4717 7.49531C19.9565 7.49531 19.539 9.51217 19.539 11.9998C19.539 14.4875 19.9564 16.5043 20.4717 16.5043Z" fill="#BFBFBF"></path> </svg> 