<svg id="Layer_1" data-name="Layer 1" xmlns="http://www.w3.org/2000/svg" xmlns:xlink="http://www.w3.org/1999/xlink" viewBox="0 0 560 560"><defs><style>.cls-1{opacity:0.5;fill:url(#linear-gradient);}.cls-2,.cls-3,.cls-4,.cls-5,.cls-6,.cls-7{fill:none;stroke-miterlimit:10;}.cls-2,.cls-3{stroke-width:35.85px;}.cls-2{stroke:url(#linear-gradient-2);}.cls-3{stroke:url(#linear-gradient-3);}.cls-4,.cls-5{stroke:#c6dbdb;}.cls-4,.cls-5,.cls-6{stroke-width:30px;}.cls-5{opacity:0.8;}.cls-6{stroke:#f2f2f2;}.cls-7{stroke:#000;stroke-width:20px;}</style><linearGradient id="linear-gradient" x1="478.89" y1="125.38" x2="-26.59" y2="518.36" gradientUnits="userSpaceOnUse"><stop offset="0" stop-color="#fff" stop-opacity="0"/><stop offset="1" stop-color="#cdc7c7" stop-opacity="0.8"/></linearGradient><linearGradient id="linear-gradient-2" x1="1150.35" y1="-23.81" x2="1434.73" y2="-23.81" gradientTransform="translate(307.71 1569.16) rotate(-90)" gradientUnits="userSpaceOnUse"><stop offset="0" stop-color="#fff"/><stop offset="0.16" stop-color="#d6f1d6"/><stop offset="0.34" stop-color="#aee4ae"/><stop offset="0.52" stop-color="#8ed98e"/><stop offset="0.69" stop-color="#78d278"/><stop offset="0.85" stop-color="#6bce6b"/><stop offset="1" stop-color="#6c6"/></linearGradient><linearGradient id="linear-gradient-3" x1="1052" y1="-42.34" x2="1336.38" y2="-42.34" gradientTransform="translate(1478.09 234.27) rotate(180)" gradientUnits="userSpaceOnUse"><stop offset="0" stop-color="#fff"/><stop offset="0.64" stop-color="#9add9a"/><stop offset="1" stop-color="#6c6"/></linearGradient></defs><title>Artboard 10 copy</title><path class="cls-1" d="M478.17,162.93l-81.1-81.1a165.42,165.42,0,0,0-234.13,0l-81.1,81.09a165.44,165.44,0,0,0,0,234.16l81.1,81.1a165.46,165.46,0,0,0,231.92,2.18l.15-.14.15-.14,83-83a165.45,165.45,0,0,0,0-234.16Z"/><line class="cls-2" x1="283.91" y1="418.8" x2="283.91" y2="134.42"/><line class="cls-3" x1="426.1" y1="276.61" x2="141.72" y2="276.61"/><line class="cls-4" x1="114.78" y1="519.44" x2="114.78" y2="378.45"/><line class="cls-5" x1="44.29" y1="448.95" x2="185.28" y2="448.95"/><line class="cls-6" x1="513.33" y1="395.61" x2="406.67" y2="395.61"/><line class="cls-6" x1="460" y1="342.28" x2="460" y2="448.95"/><line class="cls-7" x1="132.01" y1="64.58" x2="132.01" y2="155.42"/><line class="cls-7" x1="177.43" y1="110" x2="86.6" y2="110"/></svg>