<?xml version="1.0" encoding="UTF-8"?> <svg xmlns="http://www.w3.org/2000/svg" width="24" height="24" viewBox="0 0 24 24" fill="none"> <g clip-path="url(#clip0_7391_29906)"> <path d="M12 24C18.6275 24 24 18.6275 24 12C24 5.37255 18.6275 0 12 0C5.37255 0 0 5.37255 0 12C0 18.6275 5.37255 24 12 24Z" fill="#404040"></path> <path d="M20.0048 11.9999C20.0048 11.0261 19.2173 10.2529 18.2577 10.2529C17.7852 10.2529 17.3556 10.439 17.0406 10.7398C15.8378 9.88055 14.1909 9.3221 12.3581 9.25055L13.16 5.49875L15.7661 6.0572C15.7947 6.71585 16.3389 7.2458 17.012 7.2458C17.6993 7.2458 18.2577 6.6872 18.2577 5.9999C18.2577 5.3126 17.6993 4.75415 17.012 4.75415C16.5251 4.75415 16.0955 5.0405 15.8951 5.4557L12.9881 4.83995C12.9021 4.8257 12.8163 4.83995 12.759 4.883C12.6873 4.9259 12.6444 4.9976 12.63 5.0834L11.7423 9.2648C9.88083 9.3221 8.20533 9.88055 6.98808 10.7542C6.66026 10.4411 6.22426 10.2667 5.77098 10.2673C4.79718 10.2673 4.02393 11.0548 4.02393 12.0143C4.02393 12.7303 4.45353 13.3316 5.05488 13.6037C5.0258 13.7788 5.01145 13.956 5.01198 14.1335C5.01198 16.8257 8.14803 19.0166 12.0144 19.0166C15.8807 19.0166 19.0167 16.84 19.0167 14.1335C19.0167 13.9618 19.0025 13.7756 18.9738 13.6037C19.2813 13.4632 19.5419 13.2374 19.7246 12.9531C19.9074 12.6688 20.0046 12.3379 20.0048 11.9999ZM8.00478 13.2458C8.00478 12.5584 8.56323 11.9999 9.25068 11.9999C9.93798 11.9999 10.4964 12.5584 10.4964 13.2458C10.4964 13.9331 9.93798 14.4916 9.25068 14.4916C8.56323 14.506 8.00478 13.9331 8.00478 13.2458ZM14.9786 16.5536C14.1194 17.4128 12.4869 17.4701 12.0144 17.4701C11.5275 17.4701 9.89493 17.3986 9.05013 16.5536C9.01954 16.5238 8.99523 16.4882 8.97864 16.4488C8.96204 16.4095 8.95349 16.3672 8.95349 16.3245C8.95349 16.2818 8.96204 16.2395 8.97864 16.2001C8.99523 16.1608 9.01954 16.1252 9.05013 16.0954C9.07993 16.0648 9.11556 16.0405 9.15492 16.0239C9.19427 16.0073 9.23654 15.9987 9.27925 15.9987C9.32196 15.9987 9.36423 16.0073 9.40359 16.0239C9.44294 16.0405 9.47857 16.0648 9.50838 16.0954C10.0526 16.6396 11.1981 16.8257 12.0143 16.8257C12.8306 16.8257 13.9905 16.6396 14.5203 16.0954C14.5501 16.0648 14.5858 16.0405 14.6251 16.0239C14.6645 16.0073 14.7067 15.9987 14.7495 15.9987C14.7922 15.9987 14.8344 16.0073 14.8738 16.0239C14.9131 16.0405 14.9488 16.0648 14.9786 16.0954C15.034 16.1588 15.0645 16.2402 15.0645 16.3245C15.0645 16.4087 15.034 16.4901 14.9786 16.5536ZM14.7494 14.506C14.0621 14.506 13.5036 13.9474 13.5036 13.2601C13.5036 12.5728 14.0621 12.0143 14.7494 12.0143C15.4368 12.0143 15.9953 12.5728 15.9953 13.2601C15.9953 13.9331 15.4368 14.506 14.7494 14.506Z" fill="#BFBFBF"></path> </g> <defs> <clipPath id="clip0_7391_29906"> <rect width="24" height="24" fill="white"></rect> </clipPath> </defs> </svg> 