<?xml version="1.0" encoding="UTF-8"?> <svg xmlns="http://www.w3.org/2000/svg" xmlns:xlink="http://www.w3.org/1999/xlink" width="755px" height="145px" viewBox="0 0 755 145"> <!-- Generator: Sketch 63.1 (92452) - https://sketch.com --> <title>Какзапуститьсвойпервыйплатныйкурс?</title> <desc>Created with Sketch.</desc> <g id="Page-1" stroke="none" stroke-width="1" fill="none" fill-rule="evenodd"> <path d="M11.96,48 L11.96,25.968 L27.192,48 L39.568,48 L22.84,23.588 L38.888,0.4 L26.512,0.4 L11.96,21.072 L11.96,0.4 L1.08,0.4 L1.08,48 L11.96,48 Z M55.65,48.952 C60.206,48.952 63.538,47.388 65.782,44.804 L65.782,48 L75.982,48 L75.982,14 L65.782,14 L65.782,17.196 C63.538,14.612 60.206,13.048 55.65,13.048 C46.742,13.048 39.398,20.868 39.398,31 C39.398,41.132 46.742,48.952 55.65,48.952 Z M57.69,39.296 C52.998,39.296 49.598,36.1 49.598,31 C49.598,25.9 52.998,22.704 57.69,22.704 C62.382,22.704 65.782,25.9 65.782,31 C65.782,36.1 62.382,39.296 57.69,39.296 Z M94.512,48 L94.512,32.972 L105.392,48 L116.952,48 L104.236,31 L116.612,14 L104.712,14 L94.512,28.892 L94.512,14 L84.312,14 L84.312,48 L94.512,48 Z M150.952,48.952 C160.132,48.952 165.028,44.396 165.028,38.752 C165.028,35.284 163.26,32.428 160.064,30.728 C162.512,29.028 163.668,26.376 163.668,23.248 C163.668,17.876 158.908,13.048 150.612,13.048 C144.764,13.048 139.868,15.496 137.012,21.004 L145.24,25.696 C146.464,22.976 148.232,21.752 150.816,21.752 C152.72,21.752 154.012,22.568 154.012,24.2 C154.012,25.696 152.992,26.512 150.816,26.512 L147.144,26.512 L147.144,35.08 L151.904,35.08 C154.148,35.08 155.1,35.964 155.1,37.46 C155.1,39.16 153.604,40.112 151.088,40.112 C147.96,40.112 145.852,38.616 144.9,35.964 L136.672,40.86 C139.324,46.368 144.152,48.952 150.952,48.952 Z M185.53,48.952 C190.086,48.952 193.418,47.388 195.662,44.804 L195.662,48 L205.862,48 L205.862,14 L195.662,14 L195.662,17.196 C193.418,14.612 190.086,13.048 185.53,13.048 C176.622,13.048 169.278,20.868 169.278,31 C169.278,41.132 176.622,48.952 185.53,48.952 Z M187.57,39.296 C182.878,39.296 179.478,36.1 179.478,31 C179.478,25.9 182.878,22.704 187.57,22.704 C192.262,22.704 195.662,25.9 195.662,31 C195.662,36.1 192.262,39.296 187.57,39.296 Z M224.392,48 L224.392,23.52 L235.952,23.52 L235.952,48 L246.152,48 L246.152,14 L214.192,14 L214.192,48 L224.392,48 Z M275.154,46.98 L286.782,14 L275.902,14 L269.51,34.876 L261.622,14 L250.742,14 L264.07,47.388 C262.506,50.992 260.33,52.08 255.774,52.08 L255.774,61.6 C264.614,62.076 271.346,57.792 275.154,46.98 Z M306.332,48.952 C312.996,48.952 318.776,45.484 321.7,40.18 L312.792,35.08 C311.704,37.46 309.188,38.888 306.196,38.888 C301.776,38.888 298.512,35.692 298.512,31 C298.512,26.308 301.776,23.112 306.196,23.112 C309.188,23.112 311.636,24.54 312.792,26.92 L321.7,21.752 C318.776,16.516 312.928,13.048 306.332,13.048 C295.996,13.048 288.312,20.868 288.312,31 C288.312,41.132 295.996,48.952 306.332,48.952 Z M344.038,48 L344.038,23.792 L354.17,23.792 L354.17,14 L323.57,14 L323.57,23.792 L333.838,23.792 L333.838,48 L344.038,48 Z M366.92,48 L381.472,31 L381.472,48 L391.4,48 L391.4,14 L383.92,14 L369.368,31 L369.368,14 L359.44,14 L359.44,48 L366.92,48 Z M417.138,48 L417.138,23.792 L427.27,23.792 L427.27,14 L396.67,14 L396.67,23.792 L406.938,23.792 L406.938,48 L417.138,48 Z M448.452,48 C456.68,48 461.78,43.24 461.78,36.1 C461.78,28.96 456.68,24.2 448.452,24.2 L442.74,24.2 L442.74,14 L432.54,14 L432.54,48 L448.452,48 Z M448.52,39.16 L442.74,39.16 L442.74,33.04 L448.52,33.04 C450.56,33.04 451.852,34.332 451.852,36.1 C451.852,37.868 450.56,39.16 448.52,39.16 Z M501.9,48.952 C508.564,48.952 514.344,45.484 517.268,40.18 L508.36,35.08 C507.272,37.46 504.756,38.888 501.764,38.888 C497.344,38.888 494.08,35.692 494.08,31 C494.08,26.308 497.344,23.112 501.764,23.112 C504.756,23.112 507.204,24.54 508.36,26.92 L517.268,21.752 C514.344,16.516 508.496,13.048 501.9,13.048 C491.564,13.048 483.88,20.868 483.88,31 C483.88,41.132 491.564,48.952 501.9,48.952 Z M540.898,48 C548.446,48 552.458,43.92 552.458,38.276 C552.458,34.808 550.826,32.156 547.902,30.592 C550.01,29.028 551.098,26.648 551.098,23.724 C551.098,18.08 547.086,14 539.538,14 L522.538,14 L522.538,48 L540.898,48 Z M538.45,26.92 L532.058,26.92 L532.058,22.16 L538.45,22.16 C540.286,22.16 541.442,22.908 541.442,24.608 C541.442,26.24 540.286,26.92 538.45,26.92 Z M539.538,39.568 L532.058,39.568 L532.058,34.672 L539.538,34.672 C541.306,34.672 542.53,35.42 542.53,37.052 C542.53,38.752 541.306,39.568 539.538,39.568 Z M574.728,48.952 C584.724,48.952 592.748,41.132 592.748,31 C592.748,20.868 584.724,13.048 574.728,13.048 C564.732,13.048 556.708,20.868 556.708,31 C556.708,41.132 564.732,48.952 574.728,48.952 Z M574.728,39.024 C570.308,39.024 566.908,35.828 566.908,31 C566.908,26.172 570.308,22.976 574.728,22.976 C579.148,22.976 582.548,26.172 582.548,31 C582.548,35.828 579.148,39.024 574.728,39.024 Z M625.558,9.988 L625.558,1.148 L605.158,1.148 L605.158,9.988 L625.558,9.988 Z M606.858,48 L621.41,31 L621.41,48 L631.338,48 L631.338,14 L623.858,14 L609.306,31 L609.306,14 L599.378,14 L599.378,48 L606.858,48 Z M10.94,131 L10.94,106.52 L22.5,106.52 L22.5,131 L32.7,131 L32.7,97 L0.74,97 L0.74,131 L10.94,131 Z M58.166,131.952 C64.626,131.952 69.658,129.572 72.99,124.948 L64.83,120.256 C63.47,121.752 61.09,122.84 58.302,122.84 C54.562,122.84 51.434,121.616 50.142,118.08 L74.282,118.08 C74.554,116.788 74.69,115.428 74.69,114 C74.69,103.732 67.346,96.048 57.418,96.048 C46.674,96.048 39.33,103.868 39.33,114 C39.33,124.132 46.538,131.952 58.166,131.952 Z M64.558,110.464 L49.938,110.464 C50.89,106.996 53.474,105.092 57.35,105.092 C60.41,105.092 63.47,106.52 64.558,110.464 Z M91.52,144.6 L91.52,127.804 C93.764,130.388 97.096,131.952 101.652,131.952 C110.56,131.952 117.904,124.132 117.904,114 C117.904,103.868 110.56,96.048 101.652,96.048 C97.096,96.048 93.764,97.612 91.52,100.196 L91.52,97 L81.32,97 L81.32,144.6 L91.52,144.6 Z M99.612,122.296 C94.92,122.296 91.52,119.1 91.52,114 C91.52,108.9 94.92,105.704 99.612,105.704 C104.304,105.704 107.704,108.9 107.704,114 C107.704,119.1 104.304,122.296 99.612,122.296 Z M142.894,131 C150.442,131 154.454,126.92 154.454,121.276 C154.454,117.808 152.822,115.156 149.898,113.592 C152.006,112.028 153.094,109.648 153.094,106.724 C153.094,101.08 149.082,97 141.534,97 L124.534,97 L124.534,131 L142.894,131 Z M140.446,109.92 L134.054,109.92 L134.054,105.16 L140.446,105.16 C142.282,105.16 143.438,105.908 143.438,107.608 C143.438,109.24 142.282,109.92 140.446,109.92 Z M141.534,122.568 L134.054,122.568 L134.054,117.672 L141.534,117.672 C143.302,117.672 144.526,118.42 144.526,120.052 C144.526,121.752 143.302,122.568 141.534,122.568 Z M176.316,131 C184.544,131 189.644,126.24 189.644,119.1 C189.644,111.96 184.544,107.2 176.316,107.2 L170.604,107.2 L170.604,97 L160.404,97 L160.404,131 L176.316,131 Z M203.244,131 L203.244,97 L193.044,97 L193.044,131 L203.244,131 Z M176.384,122.16 L170.604,122.16 L170.604,116.04 L176.384,116.04 C178.424,116.04 179.716,117.332 179.716,119.1 C179.716,120.868 178.424,122.16 176.384,122.16 Z M237.754,92.988 L237.754,84.148 L217.354,84.148 L217.354,92.988 L237.754,92.988 Z M219.054,131 L233.606,114 L233.606,131 L243.534,131 L243.534,97 L236.054,97 L221.502,114 L221.502,97 L211.574,97 L211.574,131 L219.054,131 Z M279.914,131 L279.914,106.52 L291.474,106.52 L291.474,131 L301.674,131 L301.674,97 L269.714,97 L269.714,131 L279.914,131 Z M322.04,116.924 L322.04,106.792 L329.384,106.792 L329.384,131 L339.584,131 L339.584,97 L311.84,97 L311.84,116.244 C311.84,120.46 310.14,122.432 306.944,121.48 L306.944,131 C316.872,132.156 322.04,127.192 322.04,116.924 Z M362.466,131.952 C367.022,131.952 370.354,130.388 372.598,127.804 L372.598,131 L382.798,131 L382.798,97 L372.598,97 L372.598,100.196 C370.354,97.612 367.022,96.048 362.466,96.048 C353.558,96.048 346.214,103.868 346.214,114 C346.214,124.132 353.558,131.952 362.466,131.952 Z M364.506,122.296 C359.814,122.296 356.414,119.1 356.414,114 C356.414,108.9 359.814,105.704 364.506,105.704 C369.198,105.704 372.598,108.9 372.598,114 C372.598,119.1 369.198,122.296 364.506,122.296 Z M408.536,131 L408.536,106.792 L418.668,106.792 L418.668,97 L388.068,97 L388.068,106.792 L398.336,106.792 L398.336,131 L408.536,131 Z M434.138,131 L434.138,118.76 L445.698,118.76 L445.698,131 L455.898,131 L455.898,97 L445.698,97 L445.698,109.24 L434.138,109.24 L434.138,97 L423.938,97 L423.938,131 L434.138,131 Z M480.14,131 C488.368,131 493.468,126.24 493.468,119.1 C493.468,111.96 488.368,107.2 480.14,107.2 L474.428,107.2 L474.428,97 L464.228,97 L464.228,131 L480.14,131 Z M507.068,131 L507.068,97 L496.868,97 L496.868,131 L507.068,131 Z M480.208,122.16 L474.428,122.16 L474.428,116.04 L480.208,116.04 C482.248,116.04 483.54,117.332 483.54,119.1 C483.54,120.868 482.248,122.16 480.208,122.16 Z M541.578,92.988 L541.578,84.148 L521.178,84.148 L521.178,92.988 L541.578,92.988 Z M522.878,131 L537.43,114 L537.43,131 L547.358,131 L547.358,97 L539.878,97 L525.326,114 L525.326,97 L515.398,97 L515.398,131 L522.878,131 Z M583.738,131 L583.738,115.972 L594.618,131 L606.178,131 L593.462,114 L605.838,97 L593.938,97 L583.738,111.892 L583.738,97 L573.538,97 L573.538,131 L583.738,131 Z M631.44,129.98 L643.068,97 L632.188,97 L625.796,117.876 L617.908,97 L607.028,97 L620.356,130.388 C618.792,133.992 616.616,135.08 612.06,135.08 L612.06,144.6 C620.9,145.076 627.632,140.792 631.44,129.98 Z M657.858,144.6 L657.858,127.804 C660.102,130.388 663.434,131.952 667.99,131.952 C676.898,131.952 684.242,124.132 684.242,114 C684.242,103.868 676.898,96.048 667.99,96.048 C663.434,96.048 660.102,97.612 657.858,100.196 L657.858,97 L647.658,97 L647.658,144.6 L657.858,144.6 Z M665.95,122.296 C661.258,122.296 657.858,119.1 657.858,114 C657.858,108.9 661.258,105.704 665.95,105.704 C670.642,105.704 674.042,108.9 674.042,114 C674.042,119.1 670.642,122.296 665.95,122.296 Z M707.192,131.952 C713.856,131.952 719.636,128.484 722.56,123.18 L713.652,118.08 C712.564,120.46 710.048,121.888 707.056,121.888 C702.636,121.888 699.372,118.692 699.372,114 C699.372,109.308 702.636,106.112 707.056,106.112 C710.048,106.112 712.496,107.54 713.652,109.92 L722.56,104.752 C719.636,99.516 713.788,96.048 707.192,96.048 C696.856,96.048 689.172,103.868 689.172,114 C689.172,124.132 696.856,131.952 707.192,131.952 Z M743.81,114 C743.81,109.308 754.69,106.18 754.69,96.048 C754.69,87.208 746.938,82.448 739.186,82.448 C731.638,82.448 725.042,86.392 722.05,93.396 L731.434,98.768 C732.794,95.572 735.038,93.056 738.778,93.056 C742.246,93.056 743.81,94.62 743.81,97 C743.81,102.984 732.93,106.044 732.93,114 L743.81,114 Z M738.37,131.952 C741.906,131.952 744.83,129.028 744.83,125.492 C744.83,121.956 741.906,119.032 738.37,119.032 C734.834,119.032 731.91,121.956 731.91,125.492 C731.91,129.028 734.834,131.952 738.37,131.952 Z" id="Какзапуститьсвойпервыйплатныйкурс?" fill="#66CC66" fill-rule="nonzero"></path> </g> </svg> 